<svg xmlns="http://www.w3.org/2000/svg" xmlns:xlink="http://www.w3.org/1999/xlink" width="1030" height="505" viewBox="0 0 1030 505">
  <defs>
    <linearGradient id="linear-gradient" y1="0.264" x2="0.993" y2="0.264" gradientUnits="objectBoundingBox">
      <stop offset="0" stop-color="#e4fdfb"/>
      <stop offset="1" stop-color="#edf2fa"/>
    </linearGradient>
    <clipPath id="clip-path">
      <rect id="Rectángulo_345904" data-name="Rectángulo 345904" width="31.069" height="48.574" fill="#566377"/>
    </clipPath>
  </defs>
  <g id="Grupo_1015402" data-name="Grupo 1015402" transform="translate(-285 -3965)">
    <rect id="Rectángulo_345909" data-name="Rectángulo 345909" width="1030" height="505" transform="translate(285 3965)" fill="url(#linear-gradient)"/>
    <path id="Trazado_606160" data-name="Trazado 606160" d="M-42.157-4.342V0h-3.085V-12.8h5.106a5.948,5.948,0,0,1,2.6.541,4.074,4.074,0,0,1,1.749,1.538,4.2,4.2,0,0,1,.62,2.263,3.7,3.7,0,0,1-1.34,2.993,5.561,5.561,0,0,1-3.678,1.121Zm0-2.382h2.021a1.906,1.906,0,0,0,1.367-.448,1.665,1.665,0,0,0,.47-1.266,2.059,2.059,0,0,0-.483-1.433,1.712,1.712,0,0,0-1.318-.545h-2.057Zm14.247-.105-.976-.07a1.752,1.752,0,0,0-1.793.879V0H-33.64V-9.51h2.777l.1,1.222a2.294,2.294,0,0,1,2.083-1.4,2.888,2.888,0,0,1,.826.105Zm5.5,7A4.889,4.889,0,0,1-25.95-1.129a4.507,4.507,0,0,1-1.354-3.4v-.246a5.84,5.84,0,0,1,.541-2.575,3.955,3.955,0,0,1,1.578-1.727,4.763,4.763,0,0,1,2.461-.611A4.117,4.117,0,0,1-19.56-8.442,4.887,4.887,0,0,1-18.4-4.975v1.151h-5.889a2.135,2.135,0,0,0,.694,1.257,2.066,2.066,0,0,0,1.389.457,2.662,2.662,0,0,0,2.2-.984l1.354,1.6A3.784,3.784,0,0,1-20.224-.277,5.3,5.3,0,0,1-22.408.176ZM-22.742-7.4q-1.3,0-1.547,1.723H-21.3v-.229a1.467,1.467,0,0,0-.36-1.1A1.434,1.434,0,0,0-22.742-7.4Zm15.8,3.023h-5.282V-6.662h5.282Zm11.892.9L7.5-12.8h3.445L6.64,0H3.265L-1.006-12.8H2.413Zm11,3.656a4.889,4.889,0,0,1-3.542-1.305,4.507,4.507,0,0,1-1.354-3.4v-.246A5.84,5.84,0,0,1,11.6-7.348a3.955,3.955,0,0,1,1.578-1.727,4.763,4.763,0,0,1,2.461-.611A4.117,4.117,0,0,1,18.8-8.442a4.887,4.887,0,0,1,1.16,3.467v1.151H14.076a2.135,2.135,0,0,0,.694,1.257,2.066,2.066,0,0,0,1.389.457,2.662,2.662,0,0,0,2.2-.984l1.354,1.6A3.784,3.784,0,0,1,18.141-.277,5.3,5.3,0,0,1,15.957.176ZM15.623-7.4q-1.3,0-1.547,1.723h2.988v-.229a1.467,1.467,0,0,0-.36-1.1A1.434,1.434,0,0,0,15.623-7.4ZM23.875-9.51l.1,1.116a3.225,3.225,0,0,1,2.716-1.292,2.713,2.713,0,0,1,2.219.888,4.226,4.226,0,0,1,.76,2.672V0H26.7V-6a1.6,1.6,0,0,0-.29-1.059A1.342,1.342,0,0,0,25.352-7.4a1.413,1.413,0,0,0-1.292.686V0H21.1V-9.51Zm10.881-2.364V-9.51h1.564v2.057H34.756V-3.1a1.111,1.111,0,0,0,.193.747,1.037,1.037,0,0,0,.765.211,4.345,4.345,0,0,0,.738-.053V-.079a5.466,5.466,0,0,1-1.67.255,3.1,3.1,0,0,1-2.259-.721,2.954,2.954,0,0,1-.729-2.188v-4.72H30.582V-9.51h1.213v-2.364ZM42.842,0a3.344,3.344,0,0,1-.281-.853A2.754,2.754,0,0,1,40.276.176a3.374,3.374,0,0,1-2.285-.813,2.588,2.588,0,0,1-.94-2.043,2.66,2.66,0,0,1,1.143-2.338,5.821,5.821,0,0,1,3.322-.791h.914v-.5q0-1.316-1.134-1.316a.927.927,0,0,0-1.055,1.042H37.279a2.655,2.655,0,0,1,1.173-2.239,4.931,4.931,0,0,1,2.993-.86,4.323,4.323,0,0,1,2.874.888A3.086,3.086,0,0,1,45.4-6.363v4.21a4.311,4.311,0,0,0,.4,2V0ZM40.988-1.934a1.652,1.652,0,0,0,.918-.237,1.487,1.487,0,0,0,.523-.536V-4.228h-.861q-1.547,0-1.547,1.389a.848.848,0,0,0,.272.655A.986.986,0,0,0,40.988-1.934Z" transform="translate(526 4030)" fill="#12263f"/>
    <path id="Trazado_606164" data-name="Trazado 606164" d="M-81.837-12.086l3.951,9.861,3.951-9.861h2.067V0h-1.594V-4.707l.149-5.08L-77.28,0H-78.5L-82.46-9.762l.158,5.055V0H-83.9V-12.086ZM-69.7-4.574a5.3,5.3,0,0,1,.519-2.374,3.87,3.87,0,0,1,1.444-1.627,3.932,3.932,0,0,1,2.113-.573,3.788,3.788,0,0,1,2.968,1.27A4.886,4.886,0,0,1-61.525-4.5v.108a5.351,5.351,0,0,1-.5,2.353A3.813,3.813,0,0,1-63.464-.415a3.977,3.977,0,0,1-2.146.581A3.778,3.778,0,0,1-68.569-1.1,4.861,4.861,0,0,1-69.7-4.466Zm1.544.183a3.842,3.842,0,0,0,.693,2.4,2.218,2.218,0,0,0,1.855.9A2.2,2.2,0,0,0-63.75-2a4.2,4.2,0,0,0,.689-2.569,3.836,3.836,0,0,0-.7-2.395,2.23,2.23,0,0,0-1.864-.917,2.205,2.205,0,0,0-1.834.9A4.17,4.17,0,0,0-68.158-4.391Zm10.642-6.765v2.175h1.677v1.187h-1.677v5.577a1.247,1.247,0,0,0,.224.81.943.943,0,0,0,.764.27,3.718,3.718,0,0,0,.73-.1V0a4.478,4.478,0,0,1-1.179.165,1.912,1.912,0,0,1-1.552-.623,2.675,2.675,0,0,1-.523-1.768v-5.57h-1.635V-8.981h1.635v-2.175ZM-52.378,0h-1.536V-8.981h1.536Zm-1.66-11.364a.917.917,0,0,1,.228-.631.857.857,0,0,1,.677-.257.87.87,0,0,1,.681.257.907.907,0,0,1,.232.631.877.877,0,0,1-.232.623.886.886,0,0,1-.681.249.872.872,0,0,1-.677-.249A.886.886,0,0,1-54.038-11.364Zm7.081,9.28,2.225-6.9h1.569L-46.385,0h-1.17l-3.254-8.981h1.569ZM-36.266,0a3.226,3.226,0,0,1-.216-.946A3.426,3.426,0,0,1-39.039.166a3.17,3.17,0,0,1-2.179-.751,2.43,2.43,0,0,1-.851-1.905A2.539,2.539,0,0,1-41-4.669a5.029,5.029,0,0,1,3-.776h1.494v-.706a1.725,1.725,0,0,0-.481-1.282,1.935,1.935,0,0,0-1.419-.477,2.239,2.239,0,0,0-1.378.415,1.223,1.223,0,0,0-.556,1h-1.544a2.119,2.119,0,0,1,.477-1.3,3.258,3.258,0,0,1,1.295-.992,4.356,4.356,0,0,1,1.8-.365,3.551,3.551,0,0,1,2.432.776,2.8,2.8,0,0,1,.913,2.137V-2.1a5.054,5.054,0,0,0,.315,1.967V0Zm-2.548-1.17a2.7,2.7,0,0,0,1.37-.374,2.259,2.259,0,0,0,.938-.971V-4.358h-1.2q-2.822,0-2.822,1.652a1.4,1.4,0,0,0,.481,1.129A1.85,1.85,0,0,0-38.814-1.17Zm9.853.083a2.212,2.212,0,0,0,1.436-.5,1.752,1.752,0,0,0,.681-1.245h1.453a2.785,2.785,0,0,1-.531,1.469A3.5,3.5,0,0,1-27.231-.249a3.772,3.772,0,0,1-1.731.415,3.7,3.7,0,0,1-2.918-1.224,4.877,4.877,0,0,1-1.083-3.349v-.257A5.407,5.407,0,0,1-32.481-7,3.667,3.667,0,0,1-31.1-8.583a3.926,3.926,0,0,1,2.129-.564,3.6,3.6,0,0,1,2.511.9,3.234,3.234,0,0,1,1.067,2.349h-1.453a2.116,2.116,0,0,0-.66-1.432,2.053,2.053,0,0,0-1.465-.56,2.149,2.149,0,0,0-1.814.843,3.957,3.957,0,0,0-.643,2.436v.291a3.878,3.878,0,0,0,.639,2.391A2.16,2.16,0,0,0-28.961-1.087ZM-22,0h-1.536V-8.981H-22Zm-1.66-11.364a.917.917,0,0,1,.228-.631.857.857,0,0,1,.677-.257.87.87,0,0,1,.681.257.907.907,0,0,1,.232.631.877.877,0,0,1-.232.623.886.886,0,0,1-.681.249.872.872,0,0,1-.677-.249A.886.886,0,0,1-23.657-11.364Zm3.71,6.79a5.3,5.3,0,0,1,.519-2.374,3.87,3.87,0,0,1,1.444-1.627,3.932,3.932,0,0,1,2.113-.573A3.788,3.788,0,0,1-12.9-7.877,4.886,4.886,0,0,1-11.771-4.5v.108a5.351,5.351,0,0,1-.5,2.353A3.813,3.813,0,0,1-13.709-.415a3.977,3.977,0,0,1-2.146.581A3.778,3.778,0,0,1-18.814-1.1a4.861,4.861,0,0,1-1.133-3.362Zm1.544.183a3.842,3.842,0,0,0,.693,2.4,2.218,2.218,0,0,0,1.855.9A2.2,2.2,0,0,0-14-2a4.2,4.2,0,0,0,.689-2.569,3.836,3.836,0,0,0-.7-2.395,2.23,2.23,0,0,0-1.864-.917,2.205,2.205,0,0,0-1.834.9A4.17,4.17,0,0,0-18.4-4.391Zm3.229-8.359h1.859l-2.225,2.44-1.237,0Zm6.782,3.769.05,1.129A3.273,3.273,0,0,1-5.653-9.147q2.847,0,2.872,3.212V0H-4.316V-5.943A2.068,2.068,0,0,0-4.76-7.379a1.78,1.78,0,0,0-1.357-.465,2.216,2.216,0,0,0-1.312.4A2.706,2.706,0,0,0-8.309-6.4V0H-9.845V-8.981ZM6.682-2.25,8.774-8.981h1.644L6.807,1.386Q5.968,3.627,4.142,3.627L3.852,3.6l-.573-.108V2.25l.415.033A2.043,2.043,0,0,0,4.91,1.967,2.283,2.283,0,0,0,5.628.813L5.968-.1l-3.2-8.882H4.441ZM21.541,0a3.226,3.226,0,0,1-.216-.946A3.426,3.426,0,0,1,18.768.166a3.17,3.17,0,0,1-2.179-.751,2.43,2.43,0,0,1-.851-1.905A2.539,2.539,0,0,1,16.8-4.669a5.029,5.029,0,0,1,3-.776H21.3v-.706a1.725,1.725,0,0,0-.481-1.282A1.935,1.935,0,0,0,19.4-7.911a2.239,2.239,0,0,0-1.378.415,1.223,1.223,0,0,0-.556,1H15.921a2.119,2.119,0,0,1,.477-1.3,3.258,3.258,0,0,1,1.295-.992,4.356,4.356,0,0,1,1.8-.365,3.551,3.551,0,0,1,2.432.776,2.8,2.8,0,0,1,.913,2.137V-2.1a5.054,5.054,0,0,0,.315,1.967V0ZM18.992-1.17a2.7,2.7,0,0,0,1.37-.374,2.259,2.259,0,0,0,.938-.971V-4.358H20.1q-2.822,0-2.822,1.652a1.4,1.4,0,0,0,.481,1.129A1.85,1.85,0,0,0,18.992-1.17Zm8.334-9.986v2.175H29v1.187H27.326v5.577a1.247,1.247,0,0,0,.224.81.943.943,0,0,0,.764.27,3.718,3.718,0,0,0,.73-.1V0a4.478,4.478,0,0,1-1.179.165,1.912,1.912,0,0,1-1.552-.623,2.675,2.675,0,0,1-.523-1.768v-5.57H24.155V-8.981h1.635v-2.175ZM35.137-7.6a4.6,4.6,0,0,0-.755-.058,2.024,2.024,0,0,0-2.05,1.287V0H30.8V-8.981H32.29l.025,1.038a2.391,2.391,0,0,1,2.142-1.2,1.569,1.569,0,0,1,.681.116ZM41.761,0a3.226,3.226,0,0,1-.216-.946A3.426,3.426,0,0,1,38.989.166,3.17,3.17,0,0,1,36.81-.585a2.43,2.43,0,0,1-.851-1.905,2.539,2.539,0,0,1,1.067-2.179,5.029,5.029,0,0,1,3-.776h1.494v-.706a1.725,1.725,0,0,0-.481-1.282,1.935,1.935,0,0,0-1.419-.477,2.239,2.239,0,0,0-1.378.415,1.223,1.223,0,0,0-.556,1H36.142a2.119,2.119,0,0,1,.477-1.3,3.258,3.258,0,0,1,1.295-.992,4.356,4.356,0,0,1,1.8-.365,3.551,3.551,0,0,1,2.432.776,2.8,2.8,0,0,1,.913,2.137V-2.1a5.054,5.054,0,0,0,.315,1.967V0ZM39.213-1.17a2.7,2.7,0,0,0,1.37-.374,2.259,2.259,0,0,0,.938-.971V-4.358h-1.2q-2.822,0-2.822,1.652a1.4,1.4,0,0,0,.481,1.129A1.85,1.85,0,0,0,39.213-1.17Zm9.853.083a2.212,2.212,0,0,0,1.436-.5,1.752,1.752,0,0,0,.681-1.245h1.453A2.785,2.785,0,0,1,52.1-1.361,3.5,3.5,0,0,1,50.8-.249a3.772,3.772,0,0,1-1.731.415,3.7,3.7,0,0,1-2.918-1.224,4.877,4.877,0,0,1-1.083-3.349v-.257A5.407,5.407,0,0,1,45.546-7a3.667,3.667,0,0,1,1.382-1.585,3.926,3.926,0,0,1,2.129-.564,3.6,3.6,0,0,1,2.511.9,3.234,3.234,0,0,1,1.067,2.349H51.183a2.116,2.116,0,0,0-.66-1.432,2.053,2.053,0,0,0-1.465-.56,2.149,2.149,0,0,0-1.814.843A3.957,3.957,0,0,0,46.6-4.607v.291a3.878,3.878,0,0,0,.639,2.391A2.16,2.16,0,0,0,49.066-1.087Zm8.9,0a2.212,2.212,0,0,0,1.436-.5,1.752,1.752,0,0,0,.681-1.245h1.453A2.785,2.785,0,0,1,61-1.361,3.5,3.5,0,0,1,59.7-.249a3.772,3.772,0,0,1-1.731.415,3.7,3.7,0,0,1-2.918-1.224,4.877,4.877,0,0,1-1.083-3.349v-.257A5.407,5.407,0,0,1,54.445-7a3.667,3.667,0,0,1,1.382-1.585,3.926,3.926,0,0,1,2.129-.564,3.6,3.6,0,0,1,2.511.9,3.234,3.234,0,0,1,1.067,2.349H60.081a2.116,2.116,0,0,0-.66-1.432,2.053,2.053,0,0,0-1.465-.56,2.149,2.149,0,0,0-1.814.843A3.957,3.957,0,0,0,55.5-4.607v.291a3.878,3.878,0,0,0,.639,2.391A2.16,2.16,0,0,0,57.964-1.087ZM64.929,0H63.393V-8.981h1.536Zm-1.66-11.364a.917.917,0,0,1,.228-.631.857.857,0,0,1,.677-.257.87.87,0,0,1,.681.257.907.907,0,0,1,.232.631.877.877,0,0,1-.232.623.886.886,0,0,1-.681.249.872.872,0,0,1-.677-.249A.886.886,0,0,1,63.269-11.364Zm3.71,6.79A5.3,5.3,0,0,1,67.5-6.948a3.87,3.87,0,0,1,1.444-1.627,3.932,3.932,0,0,1,2.113-.573,3.788,3.788,0,0,1,2.968,1.27A4.886,4.886,0,0,1,75.155-4.5v.108a5.351,5.351,0,0,1-.5,2.353A3.813,3.813,0,0,1,73.217-.415a3.977,3.977,0,0,1-2.146.581A3.778,3.778,0,0,1,68.112-1.1a4.861,4.861,0,0,1-1.133-3.362Zm1.544.183a3.842,3.842,0,0,0,.693,2.4,2.218,2.218,0,0,0,1.855.9A2.2,2.2,0,0,0,72.931-2a4.2,4.2,0,0,0,.689-2.569,3.836,3.836,0,0,0-.7-2.395,2.23,2.23,0,0,0-1.864-.917,2.205,2.205,0,0,0-1.834.9A4.17,4.17,0,0,0,68.523-4.391Zm3.229-8.359h1.859l-2.225,2.44-1.237,0Zm6.782,3.769.05,1.129a3.273,3.273,0,0,1,2.689-1.295q2.847,0,2.872,3.212V0H82.609V-5.943a2.068,2.068,0,0,0-.444-1.436,1.78,1.78,0,0,0-1.357-.465,2.216,2.216,0,0,0-1.312.4,2.706,2.706,0,0,0-.88,1.046V0H77.081V-8.981Z" transform="translate(637 4085)" fill="#12263f"/>
    <path id="Trazado_606167" data-name="Trazado 606167" d="M-81.057-4.889H-83.9V0h-1.6V-12.086h4a4.736,4.736,0,0,1,3.142.93,3.345,3.345,0,0,1,1.1,2.706,3.254,3.254,0,0,1-.61,1.967,3.642,3.642,0,0,1-1.7,1.253L-76.724-.1V0h-1.71Zm-2.839-1.3h2.449a2.762,2.762,0,0,0,1.888-.615,2.081,2.081,0,0,0,.7-1.647,2.191,2.191,0,0,0-.668-1.721,2.829,2.829,0,0,0-1.93-.607H-83.9ZM-71.536.166a3.924,3.924,0,0,1-2.972-1.2,4.452,4.452,0,0,1-1.146-3.208v-.282a5.39,5.39,0,0,1,.51-2.386,3.982,3.982,0,0,1,1.428-1.644,3.59,3.59,0,0,1,1.988-.594A3.364,3.364,0,0,1-69-7.994a5,5,0,0,1,.971,3.3v.639h-6.084a3.193,3.193,0,0,0,.776,2.146,2.44,2.44,0,0,0,1.888.818,2.675,2.675,0,0,0,1.378-.332,3.462,3.462,0,0,0,.988-.88l.938.73A3.772,3.772,0,0,1-71.536.166Zm-.191-8.052a2.048,2.048,0,0,0-1.561.677,3.288,3.288,0,0,0-.78,1.9h4.5v-.116A2.925,2.925,0,0,0-70.2-7.242,1.928,1.928,0,0,0-71.727-7.886Zm9.073,6.8a2.212,2.212,0,0,0,1.436-.5,1.752,1.752,0,0,0,.681-1.245h1.453a2.785,2.785,0,0,1-.531,1.469A3.5,3.5,0,0,1-60.924-.249a3.772,3.772,0,0,1-1.731.415,3.7,3.7,0,0,1-2.918-1.224,4.877,4.877,0,0,1-1.083-3.349v-.257A5.407,5.407,0,0,1-66.174-7a3.667,3.667,0,0,1,1.382-1.585,3.926,3.926,0,0,1,2.129-.564,3.6,3.6,0,0,1,2.511.9,3.234,3.234,0,0,1,1.067,2.349h-1.453a2.116,2.116,0,0,0-.66-1.432,2.053,2.053,0,0,0-1.465-.56,2.149,2.149,0,0,0-1.814.843,3.957,3.957,0,0,0-.643,2.436v.291a3.878,3.878,0,0,0,.639,2.391A2.16,2.16,0,0,0-62.654-1.087ZM-53.631.166a3.924,3.924,0,0,1-2.972-1.2,4.452,4.452,0,0,1-1.146-3.208v-.282a5.39,5.39,0,0,1,.51-2.386A3.982,3.982,0,0,1-55.81-8.554a3.59,3.59,0,0,1,1.988-.594A3.364,3.364,0,0,1-51.1-7.994a5,5,0,0,1,.971,3.3v.639h-6.084a3.193,3.193,0,0,0,.776,2.146,2.44,2.44,0,0,0,1.888.818,2.675,2.675,0,0,0,1.378-.332,3.462,3.462,0,0,0,.988-.88l.938.73A3.772,3.772,0,0,1-53.631.166Zm-.191-8.052a2.048,2.048,0,0,0-1.561.677,3.288,3.288,0,0,0-.78,1.9h4.5v-.116a2.925,2.925,0,0,0-.631-1.814A1.928,1.928,0,0,0-53.822-7.886Zm13.057,3.495a5.378,5.378,0,0,1-.938,3.3A3.006,3.006,0,0,1-44.243.166,3.294,3.294,0,0,1-46.816-.872V3.453h-1.536V-8.981h1.4l.075,1a3.163,3.163,0,0,1,2.606-1.162,3.063,3.063,0,0,1,2.561,1.22,5.437,5.437,0,0,1,.942,3.4ZM-42.3-4.565a3.968,3.968,0,0,0-.647-2.4,2.086,2.086,0,0,0-1.776-.88,2.257,2.257,0,0,0-2.092,1.237v4.292a2.262,2.262,0,0,0,2.108,1.229,2.076,2.076,0,0,0,1.756-.876A4.332,4.332,0,0,0-42.3-4.565Zm7.089,3.478a2.212,2.212,0,0,0,1.436-.5A1.752,1.752,0,0,0-33.1-2.831h1.453a2.785,2.785,0,0,1-.531,1.469A3.5,3.5,0,0,1-33.481-.249a3.772,3.772,0,0,1-1.731.415A3.7,3.7,0,0,1-38.13-1.058a4.877,4.877,0,0,1-1.083-3.349v-.257A5.407,5.407,0,0,1-38.731-7a3.667,3.667,0,0,1,1.382-1.585,3.926,3.926,0,0,1,2.129-.564,3.6,3.6,0,0,1,2.511.9,3.234,3.234,0,0,1,1.067,2.349H-33.1a2.116,2.116,0,0,0-.66-1.432,2.053,2.053,0,0,0-1.465-.56,2.149,2.149,0,0,0-1.814.843,3.957,3.957,0,0,0-.643,2.436v.291a3.878,3.878,0,0,0,.639,2.391A2.16,2.16,0,0,0-35.212-1.087ZM-28.248,0h-1.536V-8.981h1.536Zm-1.66-11.364a.917.917,0,0,1,.228-.631A.857.857,0,0,1-29-12.252a.87.87,0,0,1,.681.257.907.907,0,0,1,.232.631.877.877,0,0,1-.232.623.886.886,0,0,1-.681.249.872.872,0,0,1-.677-.249A.886.886,0,0,1-29.908-11.364Zm3.71,6.79a5.3,5.3,0,0,1,.519-2.374,3.87,3.87,0,0,1,1.444-1.627,3.932,3.932,0,0,1,2.113-.573,3.788,3.788,0,0,1,2.968,1.27A4.886,4.886,0,0,1-18.021-4.5v.108a5.351,5.351,0,0,1-.5,2.353A3.813,3.813,0,0,1-19.959-.415,3.977,3.977,0,0,1-22.1.166,3.778,3.778,0,0,1-25.064-1.1,4.861,4.861,0,0,1-26.2-4.466Zm1.544.183a3.842,3.842,0,0,0,.693,2.4,2.218,2.218,0,0,0,1.855.9A2.2,2.2,0,0,0-20.246-2a4.2,4.2,0,0,0,.689-2.569,3.836,3.836,0,0,0-.7-2.395,2.23,2.23,0,0,0-1.864-.917,2.205,2.205,0,0,0-1.834.9A4.17,4.17,0,0,0-24.653-4.391Zm3.229-8.359h1.859l-2.225,2.44-1.237,0Zm6.782,3.769.05,1.129A3.273,3.273,0,0,1-11.9-9.147q2.847,0,2.872,3.212V0h-1.536V-5.943a2.068,2.068,0,0,0-.444-1.436,1.78,1.78,0,0,0-1.357-.465,2.216,2.216,0,0,0-1.312.4A2.706,2.706,0,0,0-14.56-6.4V0H-16.1V-8.981ZM-2.88-4.565A5.261,5.261,0,0,1-1.9-7.89,3.1,3.1,0,0,1,.664-9.147a3.115,3.115,0,0,1,2.5,1.079V-12.75H4.7V0H3.287L3.212-.963A3.127,3.127,0,0,1,.647.166,3.068,3.068,0,0,1-1.9-1.112,5.321,5.321,0,0,1-2.88-4.449Zm1.536.174A3.984,3.984,0,0,0-.714-2a2.039,2.039,0,0,0,1.743.863A2.24,2.24,0,0,0,3.163-2.449V-6.574a2.257,2.257,0,0,0-2.117-1.27,2.049,2.049,0,0,0-1.76.872A4.386,4.386,0,0,0-1.345-4.391ZM10.808.166a3.924,3.924,0,0,1-2.972-1.2A4.452,4.452,0,0,1,6.69-4.242v-.282A5.39,5.39,0,0,1,7.2-6.91,3.982,3.982,0,0,1,8.629-8.554a3.59,3.59,0,0,1,1.988-.594,3.364,3.364,0,0,1,2.723,1.154,5,5,0,0,1,.971,3.3v.639H8.226A3.193,3.193,0,0,0,9-1.905a2.44,2.44,0,0,0,1.888.818,2.675,2.675,0,0,0,1.378-.332,3.462,3.462,0,0,0,.988-.88l.938.73A3.772,3.772,0,0,1,10.808.166Zm-.191-8.052a2.048,2.048,0,0,0-1.561.677,3.288,3.288,0,0,0-.78,1.9h4.5v-.116a2.925,2.925,0,0,0-.631-1.814A1.928,1.928,0,0,0,10.617-7.886ZM27.882-4.391a5.378,5.378,0,0,1-.938,3.3A3.006,3.006,0,0,1,24.4.166,3.294,3.294,0,0,1,21.831-.872V3.453H20.3V-8.981h1.4l.075,1a3.163,3.163,0,0,1,2.606-1.162,3.063,3.063,0,0,1,2.561,1.22,5.437,5.437,0,0,1,.942,3.4Zm-1.536-.174a3.968,3.968,0,0,0-.647-2.4,2.086,2.086,0,0,0-1.776-.88,2.257,2.257,0,0,0-2.092,1.237v4.292a2.262,2.262,0,0,0,2.108,1.229A2.076,2.076,0,0,0,25.7-1.963,4.332,4.332,0,0,0,26.347-4.565ZM34.174-7.6a4.6,4.6,0,0,0-.755-.058,2.024,2.024,0,0,0-2.05,1.287V0H29.833V-8.981h1.494l.025,1.038a2.391,2.391,0,0,1,2.142-1.2,1.569,1.569,0,0,1,.681.116Zm.838,3.03a5.3,5.3,0,0,1,.519-2.374,3.87,3.87,0,0,1,1.444-1.627,3.932,3.932,0,0,1,2.113-.573,3.788,3.788,0,0,1,2.968,1.27A4.886,4.886,0,0,1,43.189-4.5v.108a5.351,5.351,0,0,1-.5,2.353A3.813,3.813,0,0,1,41.251-.415,3.977,3.977,0,0,1,39.1.166,3.778,3.778,0,0,1,36.146-1.1a4.861,4.861,0,0,1-1.133-3.362Zm1.544.183a3.842,3.842,0,0,0,.693,2.4,2.218,2.218,0,0,0,1.855.9A2.2,2.2,0,0,0,40.964-2a4.2,4.2,0,0,0,.689-2.569,3.836,3.836,0,0,0-.7-2.395,2.23,2.23,0,0,0-1.864-.917,2.205,2.205,0,0,0-1.834.9A4.17,4.17,0,0,0,36.557-4.391Zm8.185-.174a5.261,5.261,0,0,1,.979-3.324,3.1,3.1,0,0,1,2.565-1.258,3.115,3.115,0,0,1,2.5,1.079V-12.75H52.32V0H50.909l-.075-.963A3.127,3.127,0,0,1,48.269.166a3.068,3.068,0,0,1-2.544-1.278,5.321,5.321,0,0,1-.984-3.337Zm1.536.174A3.984,3.984,0,0,0,46.908-2a2.039,2.039,0,0,0,1.743.863,2.24,2.24,0,0,0,2.133-1.312V-6.574a2.257,2.257,0,0,0-2.117-1.27,2.049,2.049,0,0,0-1.76.872A4.386,4.386,0,0,0,46.277-4.391Zm13.97,3.5A3.262,3.262,0,0,1,57.616.166a2.792,2.792,0,0,1-2.187-.834,3.611,3.611,0,0,1-.76-2.469V-8.981H56.2v5.8q0,2.042,1.66,2.042a2.3,2.3,0,0,0,2.341-1.312V-8.981h1.536V0H60.28Zm7.429-.2a2.212,2.212,0,0,0,1.436-.5,1.752,1.752,0,0,0,.681-1.245h1.453a2.785,2.785,0,0,1-.531,1.469A3.5,3.5,0,0,1,69.407-.249a3.772,3.772,0,0,1-1.731.415,3.7,3.7,0,0,1-2.918-1.224,4.877,4.877,0,0,1-1.083-3.349v-.257A5.407,5.407,0,0,1,64.157-7a3.667,3.667,0,0,1,1.382-1.585,3.926,3.926,0,0,1,2.129-.564,3.6,3.6,0,0,1,2.511.9,3.234,3.234,0,0,1,1.067,2.349H69.793a2.116,2.116,0,0,0-.66-1.432,2.053,2.053,0,0,0-1.465-.56,2.149,2.149,0,0,0-1.814.843,3.957,3.957,0,0,0-.643,2.436v.291a3.878,3.878,0,0,0,.639,2.391A2.16,2.16,0,0,0,67.676-1.087Zm7.379-10.069v2.175h1.677v1.187H75.056v5.577a1.247,1.247,0,0,0,.224.81.943.943,0,0,0,.764.27,3.718,3.718,0,0,0,.73-.1V0A4.478,4.478,0,0,1,75.6.166a1.912,1.912,0,0,1-1.552-.623,2.675,2.675,0,0,1-.523-1.768v-5.57H71.885V-8.981H73.52v-2.175Zm2.9,6.583a5.3,5.3,0,0,1,.519-2.374,3.87,3.87,0,0,1,1.444-1.627,3.932,3.932,0,0,1,2.113-.573A3.788,3.788,0,0,1,85-7.877,4.886,4.886,0,0,1,86.129-4.5v.108a5.351,5.351,0,0,1-.5,2.353A3.813,3.813,0,0,1,84.191-.415a3.977,3.977,0,0,1-2.146.581A3.778,3.778,0,0,1,79.086-1.1a4.861,4.861,0,0,1-1.133-3.362Zm1.544.183a3.842,3.842,0,0,0,.693,2.4,2.218,2.218,0,0,0,1.855.9A2.2,2.2,0,0,0,83.9-2a4.2,4.2,0,0,0,.689-2.569,3.836,3.836,0,0,0-.7-2.395,2.23,2.23,0,0,0-1.864-.917,2.205,2.205,0,0,0-1.834.9A4.17,4.17,0,0,0,79.5-4.391Z" transform="translate(1085 4143)" fill="#12263f"/>
    <path id="Trazado_606176" data-name="Trazado 606176" d="M-57.064-12.086l3.951,9.861,3.951-9.861h2.067V0h-1.594V-4.707l.149-5.08L-52.507,0h-1.22l-3.959-9.762.158,5.055V0h-1.594V-12.086ZM-40.794.166a3.924,3.924,0,0,1-2.972-1.2,4.452,4.452,0,0,1-1.146-3.208v-.282A5.39,5.39,0,0,1-44.4-6.91a3.982,3.982,0,0,1,1.428-1.644,3.59,3.59,0,0,1,1.988-.594,3.364,3.364,0,0,1,2.723,1.154,5,5,0,0,1,.971,3.3v.639h-6.084A3.193,3.193,0,0,0-42.6-1.905a2.44,2.44,0,0,0,1.888.818,2.675,2.675,0,0,0,1.378-.332,3.462,3.462,0,0,0,.988-.88l.938.73A3.772,3.772,0,0,1-40.794.166Zm-.191-8.052a2.048,2.048,0,0,0-1.561.677,3.288,3.288,0,0,0-.78,1.9h4.5v-.116a2.925,2.925,0,0,0-.631-1.814A1.928,1.928,0,0,0-40.985-7.886Zm5.1,3.32a5.261,5.261,0,0,1,.979-3.324,3.1,3.1,0,0,1,2.565-1.258,3.115,3.115,0,0,1,2.5,1.079V-12.75h1.536V0h-1.411L-29.8-.963A3.127,3.127,0,0,1-32.361.166,3.068,3.068,0,0,1-34.9-1.112a5.321,5.321,0,0,1-.984-3.337Zm1.536.174A3.984,3.984,0,0,0-33.722-2a2.039,2.039,0,0,0,1.743.863,2.24,2.24,0,0,0,2.133-1.312V-6.574a2.257,2.257,0,0,0-2.117-1.27,2.049,2.049,0,0,0-1.76.872A4.386,4.386,0,0,0-34.353-4.391ZM-24.259,0h-1.536V-8.981h1.536Zm-1.66-11.364a.917.917,0,0,1,.228-.631.857.857,0,0,1,.677-.257.87.87,0,0,1,.681.257.907.907,0,0,1,.232.631.877.877,0,0,1-.232.623.886.886,0,0,1-.681.249.872.872,0,0,1-.677-.249A.886.886,0,0,1-25.919-11.364Zm3.71,6.79a5.3,5.3,0,0,1,.519-2.374,3.87,3.87,0,0,1,1.444-1.627,3.932,3.932,0,0,1,2.113-.573,3.788,3.788,0,0,1,2.968,1.27A4.886,4.886,0,0,1-14.032-4.5v.108a5.351,5.351,0,0,1-.5,2.353A3.813,3.813,0,0,1-15.971-.415a3.977,3.977,0,0,1-2.146.581A3.778,3.778,0,0,1-21.076-1.1a4.861,4.861,0,0,1-1.133-3.362Zm1.544.183a3.842,3.842,0,0,0,.693,2.4,2.218,2.218,0,0,0,1.855.9A2.2,2.2,0,0,0-16.257-2a4.2,4.2,0,0,0,.689-2.569,3.836,3.836,0,0,0-.7-2.395,2.23,2.23,0,0,0-1.864-.917,2.205,2.205,0,0,0-1.834.9A4.17,4.17,0,0,0-20.665-4.391ZM-6.877-2.382a1.131,1.131,0,0,0-.469-.967,4.514,4.514,0,0,0-1.635-.594,7.731,7.731,0,0,1-1.851-.6,2.633,2.633,0,0,1-1.013-.83,1.986,1.986,0,0,1-.328-1.146,2.33,2.33,0,0,1,.934-1.868,3.647,3.647,0,0,1,2.386-.764,3.753,3.753,0,0,1,2.478.789,2.5,2.5,0,0,1,.95,2.017H-6.969A1.386,1.386,0,0,0-7.5-7.429a2.006,2.006,0,0,0-1.349-.457,2.1,2.1,0,0,0-1.312.365,1.15,1.15,0,0,0-.473.955.932.932,0,0,0,.44.838,5.413,5.413,0,0,0,1.59.54,8.283,8.283,0,0,1,1.864.614,2.718,2.718,0,0,1,1.058.859A2.112,2.112,0,0,1-5.342-2.49,2.3,2.3,0,0,1-6.3-.56,4.039,4.039,0,0,1-8.8.166a4.523,4.523,0,0,1-1.909-.382,3.105,3.105,0,0,1-1.3-1.067,2.571,2.571,0,0,1-.469-1.482h1.536a1.59,1.59,0,0,0,.618,1.224A2.4,2.4,0,0,0-8.8-1.087,2.476,2.476,0,0,0-7.4-1.44,1.084,1.084,0,0,0-6.877-2.382ZM.494-4.565A5.261,5.261,0,0,1,1.473-7.89,3.1,3.1,0,0,1,4.038-9.147a3.115,3.115,0,0,1,2.5,1.079V-12.75H8.073V0H6.661L6.587-.963A3.127,3.127,0,0,1,4.022.166,3.068,3.068,0,0,1,1.478-1.112,5.321,5.321,0,0,1,.494-4.449Zm1.536.174A3.984,3.984,0,0,0,2.66-2,2.039,2.039,0,0,0,4.4-1.137,2.24,2.24,0,0,0,6.537-2.449V-6.574A2.257,2.257,0,0,0,4.42-7.844a2.049,2.049,0,0,0-1.76.872A4.386,4.386,0,0,0,2.03-4.391ZM14.182.166a3.924,3.924,0,0,1-2.972-1.2,4.452,4.452,0,0,1-1.146-3.208v-.282a5.39,5.39,0,0,1,.51-2.386A3.982,3.982,0,0,1,12-8.554a3.59,3.59,0,0,1,1.988-.594,3.364,3.364,0,0,1,2.723,1.154,5,5,0,0,1,.971,3.3v.639H11.6a3.193,3.193,0,0,0,.776,2.146,2.44,2.44,0,0,0,1.888.818,2.675,2.675,0,0,0,1.378-.332,3.462,3.462,0,0,0,.988-.88l.938.73A3.772,3.772,0,0,1,14.182.166Zm-.191-8.052a2.048,2.048,0,0,0-1.561.677,3.288,3.288,0,0,0-.78,1.9h4.5v-.116a2.925,2.925,0,0,0-.631-1.814A1.928,1.928,0,0,0,13.991-7.886ZM31.257-4.391a5.378,5.378,0,0,1-.938,3.3A3.006,3.006,0,0,1,27.779.166,3.294,3.294,0,0,1,25.205-.872V3.453H23.67V-8.981h1.4l.075,1a3.163,3.163,0,0,1,2.606-1.162,3.063,3.063,0,0,1,2.561,1.22,5.437,5.437,0,0,1,.942,3.4Zm-1.536-.174a3.968,3.968,0,0,0-.647-2.4,2.086,2.086,0,0,0-1.776-.88,2.257,2.257,0,0,0-2.092,1.237v4.292a2.262,2.262,0,0,0,2.108,1.229,2.076,2.076,0,0,0,1.756-.876A4.332,4.332,0,0,0,29.721-4.565ZM38.752,0a3.226,3.226,0,0,1-.216-.946A3.426,3.426,0,0,1,35.98.166,3.17,3.17,0,0,1,33.8-.585,2.43,2.43,0,0,1,32.95-2.49a2.539,2.539,0,0,1,1.067-2.179,5.029,5.029,0,0,1,3-.776h1.494v-.706a1.725,1.725,0,0,0-.481-1.282,1.935,1.935,0,0,0-1.419-.477,2.239,2.239,0,0,0-1.378.415,1.223,1.223,0,0,0-.556,1H33.133a2.119,2.119,0,0,1,.477-1.3A3.258,3.258,0,0,1,34.9-8.782a4.356,4.356,0,0,1,1.8-.365,3.551,3.551,0,0,1,2.432.776,2.8,2.8,0,0,1,.913,2.137V-2.1a5.054,5.054,0,0,0,.315,1.967V0ZM36.2-1.17a2.7,2.7,0,0,0,1.37-.374,2.259,2.259,0,0,0,.938-.971V-4.358h-1.2q-2.822,0-2.822,1.652a1.4,1.4,0,0,0,.481,1.129A1.85,1.85,0,0,0,36.2-1.17Zm5.885-3.4a5.279,5.279,0,0,1,.971-3.341,3.106,3.106,0,0,1,2.573-1.241A3.09,3.09,0,0,1,48.2-7.985l.075-1h1.4V-.216a3.654,3.654,0,0,1-1.033,2.748,3.814,3.814,0,0,1-2.777,1,4.619,4.619,0,0,1-1.9-.415,3.272,3.272,0,0,1-1.419-1.137l.8-.921a3,3,0,0,0,2.416,1.22,2.353,2.353,0,0,0,1.747-.631,2.411,2.411,0,0,0,.627-1.776V-.9A3.156,3.156,0,0,1,45.617.166,3.068,3.068,0,0,1,43.064-1.1,5.55,5.55,0,0,1,42.089-4.565Zm1.544.174A4.027,4.027,0,0,0,44.256-2,2.023,2.023,0,0,0,46-1.137a2.249,2.249,0,0,0,2.133-1.32v-4.1a2.276,2.276,0,0,0-2.117-1.287,2.041,2.041,0,0,0-1.751.872A4.386,4.386,0,0,0,43.633-4.391Zm7.952-.183A5.3,5.3,0,0,1,52.1-6.948a3.87,3.87,0,0,1,1.444-1.627,3.932,3.932,0,0,1,2.113-.573,3.788,3.788,0,0,1,2.968,1.27A4.886,4.886,0,0,1,59.761-4.5v.108a5.351,5.351,0,0,1-.5,2.353A3.813,3.813,0,0,1,57.823-.415a3.977,3.977,0,0,1-2.146.581A3.778,3.778,0,0,1,52.718-1.1a4.861,4.861,0,0,1-1.133-3.362Zm1.544.183a3.842,3.842,0,0,0,.693,2.4,2.218,2.218,0,0,0,1.855.9A2.2,2.2,0,0,0,57.537-2a4.2,4.2,0,0,0,.689-2.569,3.836,3.836,0,0,0-.7-2.395,2.23,2.23,0,0,0-1.864-.917,2.205,2.205,0,0,0-1.834.9A4.17,4.17,0,0,0,53.129-4.391Z" transform="translate(854 4351)" fill="#12263f"/>
    <path id="Trazado_606162" data-name="Trazado 606162" d="M-46.626-4.342V0h-3.085V-12.8H-44.6a5.948,5.948,0,0,1,2.6.541,4.074,4.074,0,0,1,1.749,1.538,4.2,4.2,0,0,1,.62,2.263,3.7,3.7,0,0,1-1.34,2.993,5.561,5.561,0,0,1-3.678,1.121Zm0-2.382H-44.6a1.906,1.906,0,0,0,1.367-.448,1.665,1.665,0,0,0,.47-1.266,2.059,2.059,0,0,0-.483-1.433,1.712,1.712,0,0,0-1.318-.545h-2.057Zm8.007,1.881a5.613,5.613,0,0,1,.554-2.536,3.96,3.96,0,0,1,1.591-1.709,4.791,4.791,0,0,1,2.435-.6,4.373,4.373,0,0,1,3.366,1.323,5.076,5.076,0,0,1,1.23,3.6v.105a4.925,4.925,0,0,1-1.235,3.529A4.384,4.384,0,0,1-34.022.176a4.434,4.434,0,0,1-3.261-1.217,4.761,4.761,0,0,1-1.327-3.3Zm2.962.185a3.538,3.538,0,0,0,.413,1.934,1.376,1.376,0,0,0,1.222.615q1.582,0,1.617-2.435v-.3q0-2.558-1.635-2.558-1.485,0-1.608,2.206Zm12.5,1.986a.684.684,0,0,0-.4-.606,6.016,6.016,0,0,0-1.5-.475A6.853,6.853,0,0,1-26.886-4.4a3.062,3.062,0,0,1-1.1-.971,2.319,2.319,0,0,1-.378-1.31,2.628,2.628,0,0,1,1.081-2.158,4.453,4.453,0,0,1,2.83-.848,4.934,4.934,0,0,1,3.023.853,2.666,2.666,0,0,1,1.143,2.241h-2.971q0-1.143-1.2-1.143a1.194,1.194,0,0,0-.782.259.8.8,0,0,0-.316.646.737.737,0,0,0,.387.642,3.654,3.654,0,0,0,1.235.4,10.671,10.671,0,0,1,1.49.378A2.706,2.706,0,0,1-20.3-2.76,2.491,2.491,0,0,1-21.458-.642a5.068,5.068,0,0,1-2.993.817,5.172,5.172,0,0,1-2.18-.439,3.645,3.645,0,0,1-1.494-1.2,2.707,2.707,0,0,1-.536-1.591h2.769a1.145,1.145,0,0,0,.439.962,1.808,1.808,0,0,0,1.081.3,1.422,1.422,0,0,0,.91-.246A.787.787,0,0,0-23.159-2.672Zm7.69-9.2V-9.51H-13.9v2.057h-1.564V-3.1a1.111,1.111,0,0,0,.193.747,1.037,1.037,0,0,0,.765.211,4.345,4.345,0,0,0,.738-.053V-.079a5.466,5.466,0,0,1-1.67.255A3.1,3.1,0,0,1-17.7-.545a2.954,2.954,0,0,1-.729-2.188v-4.72h-1.213V-9.51h1.213v-2.364Zm13,7.5H-7.752V-6.662H-2.47Zm11.892.9L11.971-12.8h3.445L11.109,0H7.734L3.463-12.8H6.882Zm11,3.656a4.889,4.889,0,0,1-3.542-1.305,4.507,4.507,0,0,1-1.354-3.4v-.246a5.84,5.84,0,0,1,.541-2.575,3.955,3.955,0,0,1,1.578-1.727,4.763,4.763,0,0,1,2.461-.611,4.117,4.117,0,0,1,3.164,1.244,4.887,4.887,0,0,1,1.16,3.467v1.151H18.545a2.135,2.135,0,0,0,.694,1.257,2.066,2.066,0,0,0,1.389.457,2.662,2.662,0,0,0,2.2-.984l1.354,1.6A3.784,3.784,0,0,1,22.61-.277,5.3,5.3,0,0,1,20.426.176ZM20.092-7.4q-1.3,0-1.547,1.723h2.988v-.229a1.467,1.467,0,0,0-.36-1.1A1.434,1.434,0,0,0,20.092-7.4ZM28.345-9.51l.1,1.116a3.225,3.225,0,0,1,2.716-1.292,2.713,2.713,0,0,1,2.219.888,4.226,4.226,0,0,1,.76,2.672V0H31.166V-6a1.6,1.6,0,0,0-.29-1.059A1.342,1.342,0,0,0,29.821-7.4a1.413,1.413,0,0,0-1.292.686V0H25.567V-9.51Zm10.881-2.364V-9.51H40.79v2.057H39.226V-3.1a1.111,1.111,0,0,0,.193.747,1.037,1.037,0,0,0,.765.211,4.345,4.345,0,0,0,.738-.053V-.079a5.466,5.466,0,0,1-1.67.255,3.1,3.1,0,0,1-2.259-.721,2.954,2.954,0,0,1-.729-2.188v-4.72H35.051V-9.51h1.213v-2.364ZM47.312,0a3.344,3.344,0,0,1-.281-.853A2.754,2.754,0,0,1,44.745.176,3.374,3.374,0,0,1,42.46-.637a2.588,2.588,0,0,1-.94-2.043,2.66,2.66,0,0,1,1.143-2.338,5.821,5.821,0,0,1,3.322-.791H46.9v-.5q0-1.316-1.134-1.316A.927.927,0,0,0,44.71-6.587H41.748a2.655,2.655,0,0,1,1.173-2.239,4.931,4.931,0,0,1,2.993-.86,4.323,4.323,0,0,1,2.874.888,3.086,3.086,0,0,1,1.081,2.435v4.21a4.311,4.311,0,0,0,.4,2V0ZM45.457-1.934a1.652,1.652,0,0,0,.918-.237,1.487,1.487,0,0,0,.523-.536V-4.228h-.861q-1.547,0-1.547,1.389a.848.848,0,0,0,.272.655A.986.986,0,0,0,45.457-1.934Z" transform="translate(1120 4030)" fill="#12263f"/>
    <path id="Trazado_606161" data-name="Trazado 606161" d="M-17.662-3.48l2.549-9.316h3.445L-15.974,0h-3.375l-4.271-12.8H-20.2Zm11,3.656A4.889,4.889,0,0,1-10.2-1.129a4.507,4.507,0,0,1-1.354-3.4v-.246a5.84,5.84,0,0,1,.541-2.575A3.955,3.955,0,0,1-9.435-9.075a4.763,4.763,0,0,1,2.461-.611A4.117,4.117,0,0,1-3.81-8.442,4.887,4.887,0,0,1-2.65-4.975v1.151H-8.539a2.135,2.135,0,0,0,.694,1.257,2.066,2.066,0,0,0,1.389.457,2.662,2.662,0,0,0,2.2-.984l1.354,1.6A3.784,3.784,0,0,1-4.474-.277,5.3,5.3,0,0,1-6.658.176ZM-6.992-7.4q-1.3,0-1.547,1.723H-5.55v-.229a1.467,1.467,0,0,0-.36-1.1A1.434,1.434,0,0,0-6.992-7.4ZM1.261-9.51l.1,1.116A3.225,3.225,0,0,1,4.074-9.686,2.713,2.713,0,0,1,6.293-8.8a4.226,4.226,0,0,1,.76,2.672V0H4.083V-6a1.6,1.6,0,0,0-.29-1.059A1.342,1.342,0,0,0,2.738-7.4a1.413,1.413,0,0,0-1.292.686V0H-1.516V-9.51Zm10.881-2.364V-9.51h1.564v2.057H12.142V-3.1a1.111,1.111,0,0,0,.193.747,1.037,1.037,0,0,0,.765.211,4.345,4.345,0,0,0,.738-.053V-.079a5.466,5.466,0,0,1-1.67.255A3.1,3.1,0,0,1,9.91-.545,2.954,2.954,0,0,1,9.18-2.733v-4.72H7.967V-9.51H9.18v-2.364ZM20.228,0a3.344,3.344,0,0,1-.281-.853A2.754,2.754,0,0,1,17.662.176a3.374,3.374,0,0,1-2.285-.813,2.588,2.588,0,0,1-.94-2.043,2.66,2.66,0,0,1,1.143-2.338A5.821,5.821,0,0,1,18.9-5.81h.914v-.5q0-1.316-1.134-1.316a.927.927,0,0,0-1.055,1.042H14.665a2.655,2.655,0,0,1,1.173-2.239,4.931,4.931,0,0,1,2.993-.86A4.323,4.323,0,0,1,21.7-8.8a3.086,3.086,0,0,1,1.081,2.435v4.21a4.311,4.311,0,0,0,.4,2V0ZM18.374-1.934a1.652,1.652,0,0,0,.918-.237,1.487,1.487,0,0,0,.523-.536V-4.228h-.861q-1.547,0-1.547,1.389a.848.848,0,0,0,.272.655A.986.986,0,0,0,18.374-1.934Z" transform="translate(824 4030)" fill="#12263f"/>
    <path id="Trazado_606163" data-name="Trazado 606163" d="M4.052-4.342V0H.967V-12.8H6.073a5.948,5.948,0,0,1,2.6.541,4.074,4.074,0,0,1,1.749,1.538,4.2,4.2,0,0,1,.62,2.263A3.7,3.7,0,0,1,9.7-5.462,5.561,5.561,0,0,1,6.021-4.342Zm0-2.382H6.073A1.906,1.906,0,0,0,7.44-7.172a1.665,1.665,0,0,0,.47-1.266A2.059,2.059,0,0,0,7.427-9.87a1.712,1.712,0,0,0-1.318-.545H4.052Zm8.007,1.881a5.613,5.613,0,0,1,.554-2.536A3.96,3.96,0,0,1,14.2-9.088a4.791,4.791,0,0,1,2.435-.6A4.373,4.373,0,0,1,20-8.363a5.076,5.076,0,0,1,1.23,3.6v.105A4.925,4.925,0,0,1,20-1.129,4.384,4.384,0,0,1,16.655.176a4.434,4.434,0,0,1-3.261-1.217,4.761,4.761,0,0,1-1.327-3.3Zm2.962.185a3.538,3.538,0,0,0,.413,1.934,1.376,1.376,0,0,0,1.222.615q1.582,0,1.617-2.435v-.3q0-2.558-1.635-2.558-1.485,0-1.608,2.206Zm12.5,1.986a.684.684,0,0,0-.4-.606,6.016,6.016,0,0,0-1.5-.475A6.853,6.853,0,0,1,23.792-4.4a3.062,3.062,0,0,1-1.1-.971,2.319,2.319,0,0,1-.378-1.31A2.628,2.628,0,0,1,23.4-8.837a4.453,4.453,0,0,1,2.83-.848,4.934,4.934,0,0,1,3.023.853,2.666,2.666,0,0,1,1.143,2.241H27.422q0-1.143-1.2-1.143a1.194,1.194,0,0,0-.782.259.8.8,0,0,0-.316.646.737.737,0,0,0,.387.642,3.654,3.654,0,0,0,1.235.4,10.671,10.671,0,0,1,1.49.378A2.706,2.706,0,0,1,30.375-2.76,2.491,2.491,0,0,1,29.219-.642a5.068,5.068,0,0,1-2.993.817,5.172,5.172,0,0,1-2.18-.439,3.645,3.645,0,0,1-1.494-1.2,2.707,2.707,0,0,1-.536-1.591h2.769a1.145,1.145,0,0,0,.439.962,1.808,1.808,0,0,0,1.081.3,1.422,1.422,0,0,0,.91-.246A.787.787,0,0,0,27.519-2.672ZM34.884,0H31.913V-9.51h2.971ZM31.737-11.962A1.322,1.322,0,0,1,32.194-13a1.724,1.724,0,0,1,1.187-.4,1.724,1.724,0,0,1,1.187.4,1.322,1.322,0,0,1,.457,1.037,1.322,1.322,0,0,1-.457,1.037,1.724,1.724,0,0,1-1.187.4,1.724,1.724,0,0,1-1.187-.4A1.322,1.322,0,0,1,31.737-11.962Zm8.42.088V-9.51h1.564v2.057H40.157V-3.1a1.111,1.111,0,0,0,.193.747,1.037,1.037,0,0,0,.765.211,4.345,4.345,0,0,0,.738-.053V-.079a5.466,5.466,0,0,1-1.67.255,3.1,3.1,0,0,1-2.259-.721A2.954,2.954,0,0,1,37.2-2.733v-4.72H35.982V-9.51H37.2v-2.364ZM46.011,0H43.04V-9.51h2.971ZM42.864-11.962A1.322,1.322,0,0,1,43.321-13a1.724,1.724,0,0,1,1.187-.4,1.724,1.724,0,0,1,1.187.4,1.322,1.322,0,0,1,.457,1.037,1.322,1.322,0,0,1-.457,1.037,1.724,1.724,0,0,1-1.187.4,1.724,1.724,0,0,1-1.187-.4A1.322,1.322,0,0,1,42.864-11.962Zm8.763,8.438,1.5-5.985h3.12L53.147,0H50.124l-3.1-9.51H50.15ZM62.358,0a3.344,3.344,0,0,1-.281-.853A2.754,2.754,0,0,1,59.792.176a3.374,3.374,0,0,1-2.285-.813,2.588,2.588,0,0,1-.94-2.043,2.66,2.66,0,0,1,1.143-2.338,5.821,5.821,0,0,1,3.322-.791h.914v-.5q0-1.316-1.134-1.316a.927.927,0,0,0-1.055,1.042H56.795a2.655,2.655,0,0,1,1.173-2.239,4.931,4.931,0,0,1,2.993-.86,4.323,4.323,0,0,1,2.874.888,3.086,3.086,0,0,1,1.081,2.435v4.21a4.311,4.311,0,0,0,.4,2V0ZM60.5-1.934a1.652,1.652,0,0,0,.918-.237,1.487,1.487,0,0,0,.523-.536V-4.228h-.861q-1.547,0-1.547,1.389a.848.848,0,0,0,.272.655A.986.986,0,0,0,60.5-1.934Z" transform="translate(301 4116)" fill="#12263f"/>
    <path id="Trazado_606172" data-name="Trazado 606172" d="M11.654,0H8.587L4.052-7.963V0H.967V-12.8H4.052L8.578-4.834V-12.8h3.076ZM18.07.176a4.889,4.889,0,0,1-3.542-1.305,4.507,4.507,0,0,1-1.354-3.4v-.246a5.84,5.84,0,0,1,.541-2.575,3.955,3.955,0,0,1,1.578-1.727,4.763,4.763,0,0,1,2.461-.611,4.117,4.117,0,0,1,3.164,1.244,4.887,4.887,0,0,1,1.16,3.467v1.151H16.189a2.135,2.135,0,0,0,.694,1.257,2.066,2.066,0,0,0,1.389.457,2.662,2.662,0,0,0,2.2-.984l1.354,1.6A3.784,3.784,0,0,1,20.254-.277,5.3,5.3,0,0,1,18.07.176ZM17.736-7.4q-1.3,0-1.547,1.723h2.988v-.229a1.467,1.467,0,0,0-.36-1.1A1.434,1.434,0,0,0,17.736-7.4Zm11.2,6.372a3.054,3.054,0,0,1-2.54,1.2,3,3,0,0,1-2.369-.91,3.826,3.826,0,0,1-.8-2.615V-9.51h2.962v6.179a1.065,1.065,0,0,0,1.187,1.222,1.548,1.548,0,0,0,1.45-.729V-9.51H31.8V0H29.021ZM36.87-11.874V-9.51h1.564v2.057H36.87V-3.1a1.111,1.111,0,0,0,.193.747,1.037,1.037,0,0,0,.765.211,4.345,4.345,0,0,0,.738-.053V-.079A5.466,5.466,0,0,1,36.9.176a3.1,3.1,0,0,1-2.259-.721,2.954,2.954,0,0,1-.729-2.188v-4.72H32.7V-9.51h1.213v-2.364Zm8.481,5.045-.976-.07a1.752,1.752,0,0,0-1.793.879V0H39.621V-9.51H42.4l.1,1.222a2.294,2.294,0,0,1,2.083-1.4,2.888,2.888,0,0,1,.826.105ZM51.513,0a3.344,3.344,0,0,1-.281-.853A2.754,2.754,0,0,1,48.946.176a3.374,3.374,0,0,1-2.285-.813,2.588,2.588,0,0,1-.94-2.043,2.66,2.66,0,0,1,1.143-2.338,5.821,5.821,0,0,1,3.322-.791H51.1v-.5q0-1.316-1.134-1.316a.927.927,0,0,0-1.055,1.042H45.949a2.655,2.655,0,0,1,1.173-2.239,4.931,4.931,0,0,1,2.993-.86,4.323,4.323,0,0,1,2.874.888A3.086,3.086,0,0,1,54.07-6.363v4.21a4.311,4.311,0,0,0,.4,2V0ZM49.658-1.934a1.652,1.652,0,0,0,.918-.237,1.487,1.487,0,0,0,.523-.536V-4.228h-.861q-1.547,0-1.547,1.389a.848.848,0,0,0,.272.655A.986.986,0,0,0,49.658-1.934ZM58.834,0H55.863V-13.5h2.971Z" transform="translate(301 4246)" fill="#12263f"/>
    <path id="Trazado_606173" data-name="Trazado 606173" d="M11.654,0H8.587L4.052-7.963V0H.967V-12.8H4.052L8.578-4.834V-12.8h3.076ZM18.07.176a4.889,4.889,0,0,1-3.542-1.305,4.507,4.507,0,0,1-1.354-3.4v-.246a5.84,5.84,0,0,1,.541-2.575,3.955,3.955,0,0,1,1.578-1.727,4.763,4.763,0,0,1,2.461-.611,4.117,4.117,0,0,1,3.164,1.244,4.887,4.887,0,0,1,1.16,3.467v1.151H16.189a2.135,2.135,0,0,0,.694,1.257,2.066,2.066,0,0,0,1.389.457,2.662,2.662,0,0,0,2.2-.984l1.354,1.6A3.784,3.784,0,0,1,20.254-.277,5.3,5.3,0,0,1,18.07.176ZM17.736-7.4q-1.3,0-1.547,1.723h2.988v-.229a1.467,1.467,0,0,0-.36-1.1A1.434,1.434,0,0,0,17.736-7.4Zm5.186,2.575A6.421,6.421,0,0,1,23.4-7.374a3.821,3.821,0,0,1,1.362-1.709,3.591,3.591,0,0,1,2.065-.6,2.855,2.855,0,0,1,2.32,1l.105-.826h2.689V-.36a4.009,4.009,0,0,1-.584,2.184,3.75,3.75,0,0,1-1.692,1.424,6.219,6.219,0,0,1-2.566.5,5.365,5.365,0,0,1-2.026-.4,3.657,3.657,0,0,1-1.5-1.028L24.812.58a2.716,2.716,0,0,0,2.18.976A1.764,1.764,0,0,0,28.96-.466v-.3a2.781,2.781,0,0,1-2.153.94,3.437,3.437,0,0,1-2.812-1.332A5.517,5.517,0,0,1,22.922-4.72Zm2.971.185a3.383,3.383,0,0,0,.439,1.85,1.386,1.386,0,0,0,1.23.681,1.573,1.573,0,0,0,1.4-.642v-4a1.534,1.534,0,0,0-1.38-.65,1.4,1.4,0,0,0-1.239.708A3.858,3.858,0,0,0,25.893-4.641ZM38.979,0A3.344,3.344,0,0,1,38.7-.853,2.754,2.754,0,0,1,36.413.176a3.374,3.374,0,0,1-2.285-.813,2.588,2.588,0,0,1-.94-2.043A2.66,2.66,0,0,1,34.33-5.019a5.821,5.821,0,0,1,3.322-.791h.914v-.5q0-1.316-1.134-1.316a.927.927,0,0,0-1.055,1.042H33.416a2.655,2.655,0,0,1,1.173-2.239,4.931,4.931,0,0,1,2.993-.86,4.323,4.323,0,0,1,2.874.888,3.086,3.086,0,0,1,1.081,2.435v4.21a4.311,4.311,0,0,0,.4,2V0ZM37.125-1.934a1.652,1.652,0,0,0,.918-.237,1.487,1.487,0,0,0,.523-.536V-4.228h-.861q-1.547,0-1.547,1.389a.848.848,0,0,0,.272.655A.986.986,0,0,0,37.125-1.934Zm9.5-9.94V-9.51H48.19v2.057H46.626V-3.1a1.111,1.111,0,0,0,.193.747,1.037,1.037,0,0,0,.765.211,4.345,4.345,0,0,0,.738-.053V-.079a5.466,5.466,0,0,1-1.67.255,3.1,3.1,0,0,1-2.259-.721,2.954,2.954,0,0,1-.729-2.188v-4.72H42.451V-9.51h1.213v-2.364ZM52.479,0H49.509V-9.51h2.971ZM49.333-11.962A1.322,1.322,0,0,1,49.79-13a1.724,1.724,0,0,1,1.187-.4,1.724,1.724,0,0,1,1.187.4,1.322,1.322,0,0,1,.457,1.037,1.322,1.322,0,0,1-.457,1.037,1.724,1.724,0,0,1-1.187.4,1.724,1.724,0,0,1-1.187-.4A1.322,1.322,0,0,1,49.333-11.962ZM58.1-3.524,59.6-9.51h3.12L59.616,0H56.593l-3.1-9.51h3.129ZM68.827,0a3.344,3.344,0,0,1-.281-.853A2.754,2.754,0,0,1,66.261.176a3.374,3.374,0,0,1-2.285-.813,2.588,2.588,0,0,1-.94-2.043,2.66,2.66,0,0,1,1.143-2.338A5.821,5.821,0,0,1,67.5-5.81h.914v-.5q0-1.316-1.134-1.316a.927.927,0,0,0-1.055,1.042H63.264a2.655,2.655,0,0,1,1.173-2.239,4.931,4.931,0,0,1,2.993-.86A4.323,4.323,0,0,1,70.3-8.8a3.086,3.086,0,0,1,1.081,2.435v4.21a4.311,4.311,0,0,0,.4,2V0ZM66.973-1.934a1.652,1.652,0,0,0,.918-.237,1.487,1.487,0,0,0,.523-.536V-4.228h-.861q-1.547,0-1.547,1.389a.848.848,0,0,0,.272.655A.986.986,0,0,0,66.973-1.934Z" transform="translate(301 4359)" fill="#12263f"/>
    <g id="Grupo_1015395" data-name="Grupo 1015395" transform="translate(953.931 4112.394)">
      <g id="Grupo_1015394" data-name="Grupo 1015394" clip-path="url(#clip-path)">
        <path id="Trazado_605510" data-name="Trazado 605510" d="M26.972,108.966l-4.217,1.539L20.9,105.4c-.876-2.407-1.747-4.816-2.636-7.219a1.58,1.58,0,0,0-.439-.631c-2.428-2.058-4.869-4.1-7.3-6.15a4.5,4.5,0,0,1-1.634-4.5q.537-3.029,1.067-6.059a3.7,3.7,0,0,0,0-.4,13.841,13.841,0,0,0-1.776,1.625c-1.428,1.868-2.779,3.794-4.161,5.7-.1.142-.213.279-.365.477L0,85.583c1.745-2.4,3.465-4.782,5.2-7.15a2.308,2.308,0,0,1,.533-.427c2.157-1.571,4.394-3.045,6.454-4.734,2.854-2.339,7.287-.807,8.6,2.624.063.165.13.329.179.5,1.061,3.677,3.752,5.6,7.209,6.656a23.58,23.58,0,0,0,2.9.509v4.43A15.917,15.917,0,0,1,18.9,82.259c-.148.8-.288,1.535-.418,2.269-.358,2.019-.7,4.041-1.075,6.058a.89.89,0,0,0,.351.99c1.32,1.067,2.611,2.169,3.9,3.273a1.483,1.483,0,0,1,.424.582q2.405,6.569,4.786,13.148c.041.113.065.231.108.388" transform="translate(0 -61.931)" fill="#566377"/>
        <path id="Trazado_605511" data-name="Trazado 605511" d="M12.043,239.961l-3.5-2.941c.864-1.034,1.7-2.035,2.537-3.034,1.318-1.573,2.64-3.141,3.949-4.721a2.269,2.269,0,0,0,.372-.689c.52-1.48,1.024-2.966,1.561-4.533l1.693,1.422c.691.579,1.375,1.167,2.078,1.732a.4.4,0,0,1,.136.575c-.513,1.086-1,2.184-1.5,3.275a1.821,1.821,0,0,1-.254.4q-3.455,4.132-6.914,8.259a2.072,2.072,0,0,0-.154.254" transform="translate(-7.334 -192.309)" fill="#566377"/>
        <path id="Trazado_605512" data-name="Trazado 605512" d="M104.357,9.052a4.526,4.526,0,1,1,4.518-4.519,4.53,4.53,0,0,1-4.518,4.519" transform="translate(-85.678 0.001)" fill="#566377"/>
      </g>
    </g>
    <g id="Grupo_1015400" data-name="Grupo 1015400" transform="translate(599.466 4112.394)">
      <g id="Grupo_1015394-2" data-name="Grupo 1015394" clip-path="url(#clip-path)">
        <path id="Trazado_605510-2" data-name="Trazado 605510" d="M26.972,108.966l-4.217,1.539L20.9,105.4c-.876-2.407-1.747-4.816-2.636-7.219a1.58,1.58,0,0,0-.439-.631c-2.428-2.058-4.869-4.1-7.3-6.15a4.5,4.5,0,0,1-1.634-4.5q.537-3.029,1.067-6.059a3.7,3.7,0,0,0,0-.4,13.841,13.841,0,0,0-1.776,1.625c-1.428,1.868-2.779,3.794-4.161,5.7-.1.142-.213.279-.365.477L0,85.583c1.745-2.4,3.465-4.782,5.2-7.15a2.308,2.308,0,0,1,.533-.427c2.157-1.571,4.394-3.045,6.454-4.734,2.854-2.339,7.287-.807,8.6,2.624.063.165.13.329.179.5,1.061,3.677,3.752,5.6,7.209,6.656a23.58,23.58,0,0,0,2.9.509v4.43A15.917,15.917,0,0,1,18.9,82.259c-.148.8-.288,1.535-.418,2.269-.358,2.019-.7,4.041-1.075,6.058a.89.89,0,0,0,.351.99c1.32,1.067,2.611,2.169,3.9,3.273a1.483,1.483,0,0,1,.424.582q2.405,6.569,4.786,13.148c.041.113.065.231.108.388" transform="translate(0 -61.931)" fill="#566377"/>
        <path id="Trazado_605511-2" data-name="Trazado 605511" d="M12.043,239.961l-3.5-2.941c.864-1.034,1.7-2.035,2.537-3.034,1.318-1.573,2.64-3.141,3.949-4.721a2.269,2.269,0,0,0,.372-.689c.52-1.48,1.024-2.966,1.561-4.533l1.693,1.422c.691.579,1.375,1.167,2.078,1.732a.4.4,0,0,1,.136.575c-.513,1.086-1,2.184-1.5,3.275a1.821,1.821,0,0,1-.254.4q-3.455,4.132-6.914,8.259a2.072,2.072,0,0,0-.154.254" transform="translate(-7.334 -192.309)" fill="#566377"/>
        <path id="Trazado_605512-2" data-name="Trazado 605512" d="M104.357,9.052a4.526,4.526,0,1,1,4.518-4.519,4.53,4.53,0,0,1-4.518,4.519" transform="translate(-85.678 0.001)" fill="#566377"/>
      </g>
    </g>
    <g id="Grupo_1015401" data-name="Grupo 1015401" transform="translate(503.465 4054.713)">
      <g id="Grupo_1015394-3" data-name="Grupo 1015394" clip-path="url(#clip-path)">
        <path id="Trazado_605510-3" data-name="Trazado 605510" d="M26.972,108.966l-4.217,1.539L20.9,105.4c-.876-2.407-1.747-4.816-2.636-7.219a1.58,1.58,0,0,0-.439-.631c-2.428-2.058-4.869-4.1-7.3-6.15a4.5,4.5,0,0,1-1.634-4.5q.537-3.029,1.067-6.059a3.7,3.7,0,0,0,0-.4,13.841,13.841,0,0,0-1.776,1.625c-1.428,1.868-2.779,3.794-4.161,5.7-.1.142-.213.279-.365.477L0,85.583c1.745-2.4,3.465-4.782,5.2-7.15a2.308,2.308,0,0,1,.533-.427c2.157-1.571,4.394-3.045,6.454-4.734,2.854-2.339,7.287-.807,8.6,2.624.063.165.13.329.179.5,1.061,3.677,3.752,5.6,7.209,6.656a23.58,23.58,0,0,0,2.9.509v4.43A15.917,15.917,0,0,1,18.9,82.259c-.148.8-.288,1.535-.418,2.269-.358,2.019-.7,4.041-1.075,6.058a.89.89,0,0,0,.351.99c1.32,1.067,2.611,2.169,3.9,3.273a1.483,1.483,0,0,1,.424.582q2.405,6.569,4.786,13.148c.041.113.065.231.108.388" transform="translate(0 -61.931)" fill="#566377"/>
        <path id="Trazado_605511-3" data-name="Trazado 605511" d="M12.043,239.961l-3.5-2.941c.864-1.034,1.7-2.035,2.537-3.034,1.318-1.573,2.64-3.141,3.949-4.721a2.269,2.269,0,0,0,.372-.689c.52-1.48,1.024-2.966,1.561-4.533l1.693,1.422c.691.579,1.375,1.167,2.078,1.732a.4.4,0,0,1,.136.575c-.513,1.086-1,2.184-1.5,3.275a1.821,1.821,0,0,1-.254.4q-3.455,4.132-6.914,8.259a2.072,2.072,0,0,0-.154.254" transform="translate(-7.334 -192.309)" fill="#566377"/>
        <path id="Trazado_605512-3" data-name="Trazado 605512" d="M104.357,9.052a4.526,4.526,0,1,1,4.518-4.519,4.53,4.53,0,0,1-4.518,4.519" transform="translate(-85.678 0.001)" fill="#566377"/>
      </g>
    </g>
    <g id="Grupo_1015396" data-name="Grupo 1015396" transform="translate(953.931 4214.394)">
      <g id="Grupo_1015394-4" data-name="Grupo 1015394" clip-path="url(#clip-path)">
        <path id="Trazado_605510-4" data-name="Trazado 605510" d="M26.972,108.966l-4.217,1.539L20.9,105.4c-.876-2.407-1.747-4.816-2.636-7.219a1.58,1.58,0,0,0-.439-.631c-2.428-2.058-4.869-4.1-7.3-6.15a4.5,4.5,0,0,1-1.634-4.5q.537-3.029,1.067-6.059a3.7,3.7,0,0,0,0-.4,13.841,13.841,0,0,0-1.776,1.625c-1.428,1.868-2.779,3.794-4.161,5.7-.1.142-.213.279-.365.477L0,85.583c1.745-2.4,3.465-4.782,5.2-7.15a2.308,2.308,0,0,1,.533-.427c2.157-1.571,4.394-3.045,6.454-4.734,2.854-2.339,7.287-.807,8.6,2.624.063.165.13.329.179.5,1.061,3.677,3.752,5.6,7.209,6.656a23.58,23.58,0,0,0,2.9.509v4.43A15.917,15.917,0,0,1,18.9,82.259c-.148.8-.288,1.535-.418,2.269-.358,2.019-.7,4.041-1.075,6.058a.89.89,0,0,0,.351.99c1.32,1.067,2.611,2.169,3.9,3.273a1.483,1.483,0,0,1,.424.582q2.405,6.569,4.786,13.148c.041.113.065.231.108.388" transform="translate(0 -61.931)" fill="#566377"/>
        <path id="Trazado_605511-4" data-name="Trazado 605511" d="M12.043,239.961l-3.5-2.941c.864-1.034,1.7-2.035,2.537-3.034,1.318-1.573,2.64-3.141,3.949-4.721a2.269,2.269,0,0,0,.372-.689c.52-1.48,1.024-2.966,1.561-4.533l1.693,1.422c.691.579,1.375,1.167,2.078,1.732a.4.4,0,0,1,.136.575c-.513,1.086-1,2.184-1.5,3.275a1.821,1.821,0,0,1-.254.4q-3.455,4.132-6.914,8.259a2.072,2.072,0,0,0-.154.254" transform="translate(-7.334 -192.309)" fill="#566377"/>
        <path id="Trazado_605512-4" data-name="Trazado 605512" d="M104.357,9.052a4.526,4.526,0,1,1,4.518-4.519,4.53,4.53,0,0,1-4.518,4.519" transform="translate(-85.678 0.001)" fill="#566377"/>
      </g>
    </g>
    <g id="Grupo_1015397" data-name="Grupo 1015397" transform="translate(745.931 4315.394)">
      <g id="Grupo_1015394-5" data-name="Grupo 1015394" clip-path="url(#clip-path)">
        <path id="Trazado_605510-5" data-name="Trazado 605510" d="M26.972,108.966l-4.217,1.539L20.9,105.4c-.876-2.407-1.747-4.816-2.636-7.219a1.58,1.58,0,0,0-.439-.631c-2.428-2.058-4.869-4.1-7.3-6.15a4.5,4.5,0,0,1-1.634-4.5q.537-3.029,1.067-6.059a3.7,3.7,0,0,0,0-.4,13.841,13.841,0,0,0-1.776,1.625c-1.428,1.868-2.779,3.794-4.161,5.7-.1.142-.213.279-.365.477L0,85.583c1.745-2.4,3.465-4.782,5.2-7.15a2.308,2.308,0,0,1,.533-.427c2.157-1.571,4.394-3.045,6.454-4.734,2.854-2.339,7.287-.807,8.6,2.624.063.165.13.329.179.5,1.061,3.677,3.752,5.6,7.209,6.656a23.58,23.58,0,0,0,2.9.509v4.43A15.917,15.917,0,0,1,18.9,82.259c-.148.8-.288,1.535-.418,2.269-.358,2.019-.7,4.041-1.075,6.058a.89.89,0,0,0,.351.99c1.32,1.067,2.611,2.169,3.9,3.273a1.483,1.483,0,0,1,.424.582q2.405,6.569,4.786,13.148c.041.113.065.231.108.388" transform="translate(0 -61.931)" fill="#566377"/>
        <path id="Trazado_605511-5" data-name="Trazado 605511" d="M12.043,239.961l-3.5-2.941c.864-1.034,1.7-2.035,2.537-3.034,1.318-1.573,2.64-3.141,3.949-4.721a2.269,2.269,0,0,0,.372-.689c.52-1.48,1.024-2.966,1.561-4.533l1.693,1.422c.691.579,1.375,1.167,2.078,1.732a.4.4,0,0,1,.136.575c-.513,1.086-1,2.184-1.5,3.275a1.821,1.821,0,0,1-.254.4q-3.455,4.132-6.914,8.259a2.072,2.072,0,0,0-.154.254" transform="translate(-7.334 -192.309)" fill="#566377"/>
        <path id="Trazado_605512-5" data-name="Trazado 605512" d="M104.357,9.052a4.526,4.526,0,1,1,4.518-4.519,4.53,4.53,0,0,1-4.518,4.519" transform="translate(-85.678 0.001)" fill="#566377"/>
      </g>
    </g>
    <g id="Grupo_1015398" data-name="Grupo 1015398" transform="translate(406.931 4330.713)">
      <g id="Grupo_1015394-6" data-name="Grupo 1015394" clip-path="url(#clip-path)">
        <path id="Trazado_605510-6" data-name="Trazado 605510" d="M26.972,108.966l-4.217,1.539L20.9,105.4c-.876-2.407-1.747-4.816-2.636-7.219a1.58,1.58,0,0,0-.439-.631c-2.428-2.058-4.869-4.1-7.3-6.15a4.5,4.5,0,0,1-1.634-4.5q.537-3.029,1.067-6.059a3.7,3.7,0,0,0,0-.4,13.841,13.841,0,0,0-1.776,1.625c-1.428,1.868-2.779,3.794-4.161,5.7-.1.142-.213.279-.365.477L0,85.583c1.745-2.4,3.465-4.782,5.2-7.15a2.308,2.308,0,0,1,.533-.427c2.157-1.571,4.394-3.045,6.454-4.734,2.854-2.339,7.287-.807,8.6,2.624.063.165.13.329.179.5,1.061,3.677,3.752,5.6,7.209,6.656a23.58,23.58,0,0,0,2.9.509v4.43A15.917,15.917,0,0,1,18.9,82.259c-.148.8-.288,1.535-.418,2.269-.358,2.019-.7,4.041-1.075,6.058a.89.89,0,0,0,.351.99c1.32,1.067,2.611,2.169,3.9,3.273a1.483,1.483,0,0,1,.424.582q2.405,6.569,4.786,13.148c.041.113.065.231.108.388" transform="translate(0 -61.931)" fill="#566377"/>
        <path id="Trazado_605511-6" data-name="Trazado 605511" d="M12.043,239.961l-3.5-2.941c.864-1.034,1.7-2.035,2.537-3.034,1.318-1.573,2.64-3.141,3.949-4.721a2.269,2.269,0,0,0,.372-.689c.52-1.48,1.024-2.966,1.561-4.533l1.693,1.422c.691.579,1.375,1.167,2.078,1.732a.4.4,0,0,1,.136.575c-.513,1.086-1,2.184-1.5,3.275a1.821,1.821,0,0,1-.254.4q-3.455,4.132-6.914,8.259a2.072,2.072,0,0,0-.154.254" transform="translate(-7.334 -192.309)" fill="#566377"/>
        <path id="Trazado_605512-6" data-name="Trazado 605512" d="M104.357,9.052a4.526,4.526,0,1,1,4.518-4.519,4.53,4.53,0,0,1-4.518,4.519" transform="translate(-85.678 0.001)" fill="#566377"/>
      </g>
    </g>
    <g id="Grupo_1015399" data-name="Grupo 1015399" transform="translate(409.931 4182.426)">
      <g id="Grupo_1015394-7" data-name="Grupo 1015394" clip-path="url(#clip-path)">
        <path id="Trazado_605510-7" data-name="Trazado 605510" d="M26.972,108.966l-4.217,1.539L20.9,105.4c-.876-2.407-1.747-4.816-2.636-7.219a1.58,1.58,0,0,0-.439-.631c-2.428-2.058-4.869-4.1-7.3-6.15a4.5,4.5,0,0,1-1.634-4.5q.537-3.029,1.067-6.059a3.7,3.7,0,0,0,0-.4,13.841,13.841,0,0,0-1.776,1.625c-1.428,1.868-2.779,3.794-4.161,5.7-.1.142-.213.279-.365.477L0,85.583c1.745-2.4,3.465-4.782,5.2-7.15a2.308,2.308,0,0,1,.533-.427c2.157-1.571,4.394-3.045,6.454-4.734,2.854-2.339,7.287-.807,8.6,2.624.063.165.13.329.179.5,1.061,3.677,3.752,5.6,7.209,6.656a23.58,23.58,0,0,0,2.9.509v4.43A15.917,15.917,0,0,1,18.9,82.259c-.148.8-.288,1.535-.418,2.269-.358,2.019-.7,4.041-1.075,6.058a.89.89,0,0,0,.351.99c1.32,1.067,2.611,2.169,3.9,3.273a1.483,1.483,0,0,1,.424.582q2.405,6.569,4.786,13.148c.041.113.065.231.108.388" transform="translate(0 -61.931)" fill="#566377"/>
        <path id="Trazado_605511-7" data-name="Trazado 605511" d="M12.043,239.961l-3.5-2.941c.864-1.034,1.7-2.035,2.537-3.034,1.318-1.573,2.64-3.141,3.949-4.721a2.269,2.269,0,0,0,.372-.689c.52-1.48,1.024-2.966,1.561-4.533l1.693,1.422c.691.579,1.375,1.167,2.078,1.732a.4.4,0,0,1,.136.575c-.513,1.086-1,2.184-1.5,3.275a1.821,1.821,0,0,1-.254.4q-3.455,4.132-6.914,8.259a2.072,2.072,0,0,0-.154.254" transform="translate(-7.334 -192.309)" fill="#566377"/>
        <path id="Trazado_605512-7" data-name="Trazado 605512" d="M104.357,9.052a4.526,4.526,0,1,1,4.518-4.519,4.53,4.53,0,0,1-4.518,4.519" transform="translate(-85.678 0.001)" fill="#566377"/>
      </g>
    </g>
    <path id="Trazado_605513" data-name="Trazado 605513" d="M-7522-7670v377.733h906.371" transform="translate(7910 11705)" fill="none" stroke="#566377" stroke-width="2"/>
    <path id="Trazado_605514" data-name="Trazado 605514" d="M-7527-7400.464h915.033" transform="translate(7910 11705)" fill="none" stroke="#566377" stroke-width="2"/>
    <path id="Trazado_605515" data-name="Trazado 605515" d="M-7527-7400.464h915.033" transform="translate(7910 11570.032)" fill="none" stroke="#566377" stroke-width="2"/>
    <g id="Rectángulo_345905" data-name="Rectángulo 345905" transform="translate(379 4031)" fill="#fff" stroke="#707070" stroke-width="1.5">
      <rect width="19" height="19" stroke="none"/>
      <rect x="0.75" y="0.75" width="17.5" height="17.5" fill="none"/>
    </g>
    <g id="Rectángulo_345906" data-name="Rectángulo 345906" transform="translate(379 4160)" fill="#fff" stroke="#707070" stroke-width="1.5">
      <rect width="19" height="19" stroke="none"/>
      <rect x="0.75" y="0.75" width="17.5" height="17.5" fill="none"/>
    </g>
    <g id="Rectángulo_345907" data-name="Rectángulo 345907" transform="translate(379 4295)" fill="#fff" stroke="#707070" stroke-width="1.5">
      <rect width="19" height="19" stroke="none"/>
      <rect x="0.75" y="0.75" width="17.5" height="17.5" fill="none"/>
    </g>
    <g id="Rectángulo_345908" data-name="Rectángulo 345908" transform="translate(379 4403)" fill="#fff" stroke="#707070" stroke-width="1.5">
      <rect width="19" height="19" stroke="none"/>
      <rect x="0.75" y="0.75" width="17.5" height="17.5" fill="none"/>
    </g>
    <circle id="Elipse_5690" data-name="Elipse 5690" cx="9" cy="9" r="9" transform="translate(394 4083)" fill="#33ece0"/>
    <circle id="Elipse_5691" data-name="Elipse 5691" cx="9" cy="9" r="9" transform="translate(433 4083)" fill="#33ece0"/>
    <circle id="Elipse_5692" data-name="Elipse 5692" cx="9" cy="9" r="9" transform="translate(470 4083)" fill="#33ece0"/>
    <circle id="Elipse_5693" data-name="Elipse 5693" cx="9" cy="9" r="9" transform="translate(488 4115)" fill="#33ece0"/>
    <circle id="Elipse_5694" data-name="Elipse 5694" cx="9" cy="9" r="9" transform="translate(506 4152)" fill="#33ece0"/>
    <circle id="Elipse_5695" data-name="Elipse 5695" cx="9" cy="9" r="9" transform="translate(526 4187)" fill="#33ece0"/>
    <circle id="Elipse_5696" data-name="Elipse 5696" cx="9" cy="9" r="9" transform="translate(543 4222)" fill="#33ece0"/>
    <circle id="Elipse_5697" data-name="Elipse 5697" cx="9" cy="9" r="9" transform="translate(563 4256)" fill="#33ece0"/>
    <circle id="Elipse_5698" data-name="Elipse 5698" cx="9" cy="9" r="9" transform="translate(579 4293)" fill="#33ece0"/>
    <circle id="Elipse_5699" data-name="Elipse 5699" cx="9" cy="9" r="9" transform="translate(597 4331)" fill="#33ece0"/>
    <circle id="Elipse_5700" data-name="Elipse 5700" cx="9" cy="9" r="9" transform="translate(618 4364)" fill="#33ece0"/>
    <circle id="Elipse_5701" data-name="Elipse 5701" cx="9" cy="9" r="9" transform="translate(636 4331)" fill="#33ece0"/>
    <circle id="Elipse_5702" data-name="Elipse 5702" cx="9" cy="9" r="9" transform="translate(655 4300)" fill="#33ece0"/>
    <circle id="Elipse_5703" data-name="Elipse 5703" cx="9" cy="9" r="9" transform="translate(678 4269)" fill="#33ece0"/>
    <circle id="Elipse_5704" data-name="Elipse 5704" cx="9" cy="9" r="9" transform="translate(698 4240)" fill="#33ece0"/>
    <circle id="Elipse_5705" data-name="Elipse 5705" cx="9" cy="9" r="9" transform="translate(717 4208)" fill="#33ece0"/>
    <circle id="Elipse_5706" data-name="Elipse 5706" cx="9" cy="9" r="9" transform="translate(737 4180)" fill="#33ece0"/>
    <circle id="Elipse_5707" data-name="Elipse 5707" cx="9" cy="9" r="9" transform="translate(756 4149)" fill="#33ece0"/>
    <circle id="Elipse_5708" data-name="Elipse 5708" cx="9" cy="9" r="9" transform="translate(777 4118)" fill="#33ece0"/>
    <circle id="Elipse_5710" data-name="Elipse 5710" cx="9" cy="9" r="9" transform="translate(813 4124)" fill="#33ece0"/>
    <circle id="Elipse_5711" data-name="Elipse 5711" cx="9" cy="9" r="9" transform="translate(836 4158)" fill="#33ece0"/>
    <circle id="Elipse_5712" data-name="Elipse 5712" cx="9" cy="9" r="9" transform="translate(860 4190)" fill="#33ece0"/>
    <circle id="Elipse_5713" data-name="Elipse 5713" cx="9" cy="9" r="9" transform="translate(882 4224)" fill="#33ece0"/>
    <circle id="Elipse_5714" data-name="Elipse 5714" cx="9" cy="9" r="9" transform="translate(908 4258)" fill="#33ece0"/>
    <circle id="Elipse_5715" data-name="Elipse 5715" cx="9" cy="9" r="9" transform="translate(928 4291)" fill="#33ece0"/>
    <circle id="Elipse_5716" data-name="Elipse 5716" cx="9" cy="9" r="9" transform="translate(951 4322)" fill="#33ece0"/>
    <circle id="Elipse_5717" data-name="Elipse 5717" cx="9" cy="9" r="9" transform="translate(970 4355)" fill="#33ece0"/>
    <circle id="Elipse_5718" data-name="Elipse 5718" cx="9" cy="9" r="9" transform="translate(1004 4327)" fill="#33ece0"/>
    <circle id="Elipse_5719" data-name="Elipse 5719" cx="9" cy="9" r="9" transform="translate(1040 4300)" fill="#33ece0"/>
    <circle id="Elipse_5720" data-name="Elipse 5720" cx="9" cy="9" r="9" transform="translate(1076 4276)" fill="#33ece0"/>
    <circle id="Elipse_5721" data-name="Elipse 5721" cx="9" cy="9" r="9" transform="translate(1111 4247)" fill="#33ece0"/>
    <circle id="Elipse_5722" data-name="Elipse 5722" cx="9" cy="9" r="9" transform="translate(1144 4221)" fill="#33ece0"/>
    <circle id="Elipse_5723" data-name="Elipse 5723" cx="9" cy="9" r="9" transform="translate(1178 4196)" fill="#33ece0"/>
    <circle id="Elipse_5724" data-name="Elipse 5724" cx="9" cy="9" r="9" transform="translate(1213 4167)" fill="#33ece0"/>
    <circle id="Elipse_5725" data-name="Elipse 5725" cx="9" cy="9" r="9" transform="translate(1248 4142)" fill="#33ece0"/>
    <circle id="Elipse_5709" data-name="Elipse 5709" cx="9" cy="9" r="9" transform="translate(789 4092)" fill="#33ece0"/>
    <rect id="Rectángulo_345910" data-name="Rectángulo 345910" width="114" height="46" transform="translate(637 4111)" fill="#fff"/>
    <rect id="Rectángulo_345911" data-name="Rectángulo 345911" width="114" height="46" transform="translate(993 4208)" fill="#fff"/>
    <rect id="Rectángulo_345912" data-name="Rectángulo 345912" width="141" height="49" transform="translate(398 4240)" fill="#fff"/>
    <rect id="Rectángulo_345913" data-name="Rectángulo 345913" width="125" height="49" transform="translate(459 4345)" fill="#fff"/>
    <path id="Trazado_606166" data-name="Trazado 606166" d="M-43.048-5.387a7.494,7.494,0,0,1-2.984-1.448,2.768,2.768,0,0,1-.934-2.121,2.923,2.923,0,0,1,1.141-2.362,4.536,4.536,0,0,1,2.968-.934,4.951,4.951,0,0,1,2.22.481,3.651,3.651,0,0,1,1.511,1.328,3.4,3.4,0,0,1,.535,1.851h-1.6a2.21,2.21,0,0,0-.7-1.729,2.835,2.835,0,0,0-1.967-.629,2.9,2.9,0,0,0-1.839.52,1.734,1.734,0,0,0-.66,1.443,1.56,1.56,0,0,0,.627,1.252A6.147,6.147,0,0,0-42.6-6.8a9.9,9.9,0,0,1,2.357.935,3.577,3.577,0,0,1,1.262,1.191,3.04,3.04,0,0,1,.411,1.6A2.824,2.824,0,0,1-39.711-.718a4.884,4.884,0,0,1-3.063.884A5.681,5.681,0,0,1-45.1-.311a3.911,3.911,0,0,1-1.664-1.307A3.191,3.191,0,0,1-47.348-3.5h1.6a2.082,2.082,0,0,0,.809,1.731,3.408,3.408,0,0,0,2.162.635,3.133,3.133,0,0,0,1.934-.515,1.672,1.672,0,0,0,.672-1.4,1.641,1.641,0,0,0-.623-1.374A7.178,7.178,0,0,0-43.048-5.387ZM-33.037.166a3.924,3.924,0,0,1-2.972-1.2,4.452,4.452,0,0,1-1.146-3.208v-.282a5.39,5.39,0,0,1,.51-2.386,3.982,3.982,0,0,1,1.428-1.644,3.59,3.59,0,0,1,1.988-.594,3.364,3.364,0,0,1,2.723,1.154,5,5,0,0,1,.971,3.3v.639h-6.084a3.193,3.193,0,0,0,.776,2.146,2.44,2.44,0,0,0,1.888.818,2.675,2.675,0,0,0,1.378-.332,3.462,3.462,0,0,0,.988-.88l.938.73A3.772,3.772,0,0,1-33.037.166Zm-.191-8.052a2.048,2.048,0,0,0-1.561.677,3.288,3.288,0,0,0-.78,1.9h4.5v-.116A2.925,2.925,0,0,0-31.7-7.242,1.928,1.928,0,0,0-33.228-7.886ZM-26.089,0h-1.536V-12.75h1.536Zm6.184.166a3.924,3.924,0,0,1-2.972-1.2,4.452,4.452,0,0,1-1.146-3.208v-.282a5.39,5.39,0,0,1,.51-2.386,3.982,3.982,0,0,1,1.428-1.644A3.59,3.59,0,0,1-20.1-9.147a3.364,3.364,0,0,1,2.723,1.154,5,5,0,0,1,.971,3.3v.639h-6.084a3.193,3.193,0,0,0,.776,2.146,2.44,2.44,0,0,0,1.888.818,2.675,2.675,0,0,0,1.378-.332,3.462,3.462,0,0,0,.988-.88l.938.73A3.772,3.772,0,0,1-19.905.166ZM-20.1-7.886a2.048,2.048,0,0,0-1.561.677,3.288,3.288,0,0,0-.78,1.9h4.5v-.116a2.925,2.925,0,0,0-.631-1.814A1.928,1.928,0,0,0-20.1-7.886Zm9.073,6.8a2.212,2.212,0,0,0,1.436-.5,1.752,1.752,0,0,0,.681-1.245h1.453a2.785,2.785,0,0,1-.531,1.469A3.5,3.5,0,0,1-9.293-.249a3.772,3.772,0,0,1-1.731.415,3.7,3.7,0,0,1-2.918-1.224,4.877,4.877,0,0,1-1.083-3.349v-.257A5.407,5.407,0,0,1-14.543-7a3.667,3.667,0,0,1,1.382-1.585,3.926,3.926,0,0,1,2.129-.564,3.6,3.6,0,0,1,2.511.9A3.234,3.234,0,0,1-7.454-5.894H-8.907a2.116,2.116,0,0,0-.66-1.432,2.053,2.053,0,0,0-1.465-.56,2.149,2.149,0,0,0-1.814.843,3.957,3.957,0,0,0-.643,2.436v.291a3.878,3.878,0,0,0,.639,2.391A2.16,2.16,0,0,0-11.023-1.087Zm8.9,0a2.212,2.212,0,0,0,1.436-.5A1.752,1.752,0,0,0-.008-2.831H1.444A2.785,2.785,0,0,1,.913-1.361,3.5,3.5,0,0,1-.394-.249,3.772,3.772,0,0,1-2.125.166,3.7,3.7,0,0,1-5.043-1.058,4.877,4.877,0,0,1-6.126-4.408v-.257A5.407,5.407,0,0,1-5.645-7,3.667,3.667,0,0,1-4.262-8.583a3.926,3.926,0,0,1,2.129-.564,3.6,3.6,0,0,1,2.511.9A3.234,3.234,0,0,1,1.444-5.894H-.008a2.116,2.116,0,0,0-.66-1.432,2.053,2.053,0,0,0-1.465-.56,2.149,2.149,0,0,0-1.814.843A3.957,3.957,0,0,0-4.59-4.607v.291a3.878,3.878,0,0,0,.639,2.391A2.16,2.16,0,0,0-2.125-1.087ZM4.839,0H3.3V-8.981H4.839ZM3.179-11.364a.917.917,0,0,1,.228-.631.857.857,0,0,1,.677-.257.87.87,0,0,1,.681.257A.907.907,0,0,1,5-11.364a.877.877,0,0,1-.232.623.886.886,0,0,1-.681.249.872.872,0,0,1-.677-.249A.886.886,0,0,1,3.179-11.364Zm3.71,6.79a5.3,5.3,0,0,1,.519-2.374A3.87,3.87,0,0,1,8.853-8.575a3.932,3.932,0,0,1,2.113-.573,3.788,3.788,0,0,1,2.968,1.27A4.886,4.886,0,0,1,15.066-4.5v.108a5.351,5.351,0,0,1-.5,2.353A3.813,3.813,0,0,1,13.128-.415a3.977,3.977,0,0,1-2.146.581A3.778,3.778,0,0,1,8.023-1.1,4.861,4.861,0,0,1,6.89-4.466Zm1.544.183a3.842,3.842,0,0,0,.693,2.4,2.218,2.218,0,0,0,1.855.9A2.2,2.2,0,0,0,12.841-2a4.2,4.2,0,0,0,.689-2.569,3.836,3.836,0,0,0-.7-2.395,2.23,2.23,0,0,0-1.864-.917,2.205,2.205,0,0,0-1.834.9A4.17,4.17,0,0,0,8.434-4.391Zm3.229-8.359h1.859L11.3-10.31l-1.237,0Zm6.782,3.769.05,1.129a3.273,3.273,0,0,1,2.689-1.295q2.847,0,2.872,3.212V0H22.52V-5.943a2.068,2.068,0,0,0-.444-1.436,1.78,1.78,0,0,0-1.357-.465,2.216,2.216,0,0,0-1.312.4,2.706,2.706,0,0,0-.88,1.046V0H16.992V-8.981ZM30.207-4.565a5.261,5.261,0,0,1,.979-3.324,3.1,3.1,0,0,1,2.565-1.258,3.115,3.115,0,0,1,2.5,1.079V-12.75h1.536V0H36.374L36.3-.963A3.127,3.127,0,0,1,33.734.166,3.068,3.068,0,0,1,31.19-1.112a5.321,5.321,0,0,1-.984-3.337Zm1.536.174A3.984,3.984,0,0,0,32.373-2a2.039,2.039,0,0,0,1.743.863A2.24,2.24,0,0,0,36.25-2.449V-6.574a2.257,2.257,0,0,0-2.117-1.27,2.049,2.049,0,0,0-1.76.872A4.386,4.386,0,0,0,31.742-4.391ZM43.895.166a3.924,3.924,0,0,1-2.972-1.2,4.452,4.452,0,0,1-1.146-3.208v-.282a5.39,5.39,0,0,1,.51-2.386,3.982,3.982,0,0,1,1.428-1.644A3.59,3.59,0,0,1,43.7-9.147a3.364,3.364,0,0,1,2.723,1.154,5,5,0,0,1,.971,3.3v.639H41.313a3.193,3.193,0,0,0,.776,2.146,2.44,2.44,0,0,0,1.888.818,2.675,2.675,0,0,0,1.378-.332,3.462,3.462,0,0,0,.988-.88l.938.73A3.772,3.772,0,0,1,43.895.166ZM43.7-7.886a2.048,2.048,0,0,0-1.561.677,3.288,3.288,0,0,0-.78,1.9h4.5v-.116a2.925,2.925,0,0,0-.631-1.814A1.928,1.928,0,0,0,43.7-7.886Z" transform="translate(694 4132)" fill="#12263f"/>
    <path id="Trazado_606165" data-name="Trazado 606165" d="M-25.131-4.391a5.378,5.378,0,0,1-.938,3.3A3.006,3.006,0,0,1-28.609.166,3.294,3.294,0,0,1-31.182-.872V3.453h-1.536V-8.981h1.4l.075,1a3.163,3.163,0,0,1,2.606-1.162,3.063,3.063,0,0,1,2.561,1.22,5.437,5.437,0,0,1,.942,3.4Zm-1.536-.174a3.968,3.968,0,0,0-.647-2.4,2.086,2.086,0,0,0-1.776-.88,2.257,2.257,0,0,0-2.092,1.237v4.292a2.262,2.262,0,0,0,2.108,1.229,2.076,2.076,0,0,0,1.756-.876A4.332,4.332,0,0,0-26.666-4.565ZM-18.839-7.6a4.6,4.6,0,0,0-.755-.058,2.024,2.024,0,0,0-2.05,1.287V0H-23.18V-8.981h1.494l.025,1.038a2.391,2.391,0,0,1,2.142-1.2,1.569,1.569,0,0,1,.681.116ZM-18-4.574a5.3,5.3,0,0,1,.519-2.374,3.87,3.87,0,0,1,1.444-1.627,3.932,3.932,0,0,1,2.113-.573,3.788,3.788,0,0,1,2.968,1.27A4.886,4.886,0,0,1-9.824-4.5v.108a5.351,5.351,0,0,1-.5,2.353A3.813,3.813,0,0,1-11.762-.415a3.977,3.977,0,0,1-2.146.581A3.778,3.778,0,0,1-16.867-1.1,4.861,4.861,0,0,1-18-4.466Zm1.544.183a3.842,3.842,0,0,0,.693,2.4,2.218,2.218,0,0,0,1.855.9A2.2,2.2,0,0,0-12.049-2a4.2,4.2,0,0,0,.689-2.569,3.836,3.836,0,0,0-.7-2.395,2.23,2.23,0,0,0-1.864-.917,2.205,2.205,0,0,0-1.834.9A4.17,4.17,0,0,0-16.456-4.391Zm8.185-.174A5.261,5.261,0,0,1-7.292-7.89,3.1,3.1,0,0,1-4.727-9.147a3.115,3.115,0,0,1,2.5,1.079V-12.75H-.693V0H-2.1l-.075-.963A3.127,3.127,0,0,1-4.744.166,3.068,3.068,0,0,1-7.288-1.112a5.321,5.321,0,0,1-.984-3.337Zm1.536.174A3.984,3.984,0,0,0-6.105-2a2.039,2.039,0,0,0,1.743.863A2.24,2.24,0,0,0-2.229-2.449V-6.574a2.257,2.257,0,0,0-2.117-1.27,2.049,2.049,0,0,0-1.76.872A4.386,4.386,0,0,0-6.736-4.391Zm13.97,3.5A3.262,3.262,0,0,1,4.6.166,2.792,2.792,0,0,1,2.416-.668a3.611,3.611,0,0,1-.76-2.469V-8.981H3.192v5.8q0,2.042,1.66,2.042A2.3,2.3,0,0,0,7.193-2.449V-8.981H8.728V0H7.267Zm7.429-.2a2.212,2.212,0,0,0,1.436-.5,1.752,1.752,0,0,0,.681-1.245h1.453A2.785,2.785,0,0,1,17.7-1.361,3.5,3.5,0,0,1,16.394-.249a3.772,3.772,0,0,1-1.731.415,3.7,3.7,0,0,1-2.918-1.224,4.877,4.877,0,0,1-1.083-3.349v-.257A5.407,5.407,0,0,1,11.144-7a3.667,3.667,0,0,1,1.382-1.585,3.926,3.926,0,0,1,2.129-.564,3.6,3.6,0,0,1,2.511.9,3.234,3.234,0,0,1,1.067,2.349H16.78a2.116,2.116,0,0,0-.66-1.432,2.053,2.053,0,0,0-1.465-.56,2.149,2.149,0,0,0-1.814.843A3.957,3.957,0,0,0,12.2-4.607v.291a3.878,3.878,0,0,0,.639,2.391A2.16,2.16,0,0,0,14.663-1.087Zm7.379-10.069v2.175h1.677v1.187H22.043v5.577a1.247,1.247,0,0,0,.224.81.943.943,0,0,0,.764.27,3.718,3.718,0,0,0,.73-.1V0a4.478,4.478,0,0,1-1.179.165A1.912,1.912,0,0,1,21.03-.457a2.675,2.675,0,0,1-.523-1.768v-5.57H18.872V-8.981h1.635v-2.175Zm2.9,6.583a5.3,5.3,0,0,1,.519-2.374A3.87,3.87,0,0,1,26.9-8.575a3.932,3.932,0,0,1,2.113-.573,3.788,3.788,0,0,1,2.968,1.27A4.886,4.886,0,0,1,33.116-4.5v.108a5.351,5.351,0,0,1-.5,2.353A3.813,3.813,0,0,1,31.178-.415a3.977,3.977,0,0,1-2.146.581A3.778,3.778,0,0,1,26.073-1.1,4.861,4.861,0,0,1,24.94-4.466Zm1.544.183a3.842,3.842,0,0,0,.693,2.4,2.218,2.218,0,0,0,1.855.9A2.2,2.2,0,0,0,30.891-2a4.2,4.2,0,0,0,.689-2.569,3.836,3.836,0,0,0-.7-2.395,2.23,2.23,0,0,0-1.864-.917,2.205,2.205,0,0,0-1.834.9A4.17,4.17,0,0,0,26.484-4.391Z" transform="translate(694 4150)" fill="#12263f"/>
    <path id="Trazado_606168" data-name="Trazado 606168" d="M-42.571,0V-12.086h3.412a5.492,5.492,0,0,1,2.789.7A4.716,4.716,0,0,1-34.5-9.4,6.457,6.457,0,0,1-33.83-6.45v.772a6.48,6.48,0,0,1-.66,3A4.642,4.642,0,0,1-36.374-.706,5.842,5.842,0,0,1-39.225,0Zm1.594-10.783V-1.3H-39.3A3.648,3.648,0,0,0-36.432-2.45a4.737,4.737,0,0,0,1.025-3.265v-.706a4.812,4.812,0,0,0-.967-3.2,3.441,3.441,0,0,0-2.743-1.159ZM-27.936.166a3.924,3.924,0,0,1-2.972-1.2,4.452,4.452,0,0,1-1.146-3.208v-.282a5.39,5.39,0,0,1,.51-2.386,3.982,3.982,0,0,1,1.428-1.644,3.59,3.59,0,0,1,1.988-.594A3.364,3.364,0,0,1-25.4-7.994a5,5,0,0,1,.971,3.3v.639h-6.084a3.193,3.193,0,0,0,.776,2.146,2.44,2.44,0,0,0,1.888.818,2.675,2.675,0,0,0,1.378-.332,3.462,3.462,0,0,0,.988-.88l.938.73A3.772,3.772,0,0,1-27.936.166Zm-.191-8.052a2.048,2.048,0,0,0-1.561.677,3.288,3.288,0,0,0-.78,1.9h4.5v-.116A2.925,2.925,0,0,0-26.6-7.242,1.928,1.928,0,0,0-28.127-7.886Zm9.073,6.8a2.212,2.212,0,0,0,1.436-.5,1.752,1.752,0,0,0,.681-1.245h1.453a2.785,2.785,0,0,1-.531,1.469A3.5,3.5,0,0,1-17.324-.249a3.772,3.772,0,0,1-1.731.415,3.7,3.7,0,0,1-2.918-1.224,4.877,4.877,0,0,1-1.083-3.349v-.257A5.407,5.407,0,0,1-22.574-7a3.667,3.667,0,0,1,1.382-1.585,3.926,3.926,0,0,1,2.129-.564,3.6,3.6,0,0,1,2.511.9,3.234,3.234,0,0,1,1.067,2.349h-1.453a2.116,2.116,0,0,0-.66-1.432,2.053,2.053,0,0,0-1.465-.56,2.149,2.149,0,0,0-1.814.843,3.957,3.957,0,0,0-.643,2.436v.291a3.878,3.878,0,0,0,.639,2.391A2.16,2.16,0,0,0-19.054-1.087ZM-12.09,0h-1.536V-8.981h1.536Zm-1.66-11.364a.917.917,0,0,1,.228-.631.857.857,0,0,1,.677-.257.87.87,0,0,1,.681.257.907.907,0,0,1,.232.631.877.877,0,0,1-.232.623.886.886,0,0,1-.681.249.872.872,0,0,1-.677-.249A.886.886,0,0,1-13.75-11.364ZM-4.4-2.382a1.131,1.131,0,0,0-.469-.967,4.514,4.514,0,0,0-1.635-.594,7.731,7.731,0,0,1-1.851-.6,2.633,2.633,0,0,1-1.013-.83A1.986,1.986,0,0,1-9.7-6.516a2.33,2.33,0,0,1,.934-1.868,3.647,3.647,0,0,1,2.386-.764A3.753,3.753,0,0,1-3.9-8.359a2.5,2.5,0,0,1,.95,2.017H-4.495A1.386,1.386,0,0,0-5.03-7.429a2.006,2.006,0,0,0-1.349-.457,2.1,2.1,0,0,0-1.312.365,1.15,1.15,0,0,0-.473.955.932.932,0,0,0,.44.838,5.413,5.413,0,0,0,1.59.54,8.283,8.283,0,0,1,1.864.614,2.718,2.718,0,0,1,1.058.859A2.112,2.112,0,0,1-2.868-2.49,2.3,2.3,0,0,1-3.831-.56a4.039,4.039,0,0,1-2.5.726A4.523,4.523,0,0,1-8.239-.216a3.105,3.105,0,0,1-1.3-1.067,2.571,2.571,0,0,1-.469-1.482h1.536A1.59,1.59,0,0,0-7.853-1.54a2.4,2.4,0,0,0,1.523.452,2.476,2.476,0,0,0,1.4-.353A1.084,1.084,0,0,0-4.4-2.382ZM.8,0H-.735V-8.981H.8ZM-.859-11.364a.917.917,0,0,1,.228-.631.857.857,0,0,1,.677-.257.87.87,0,0,1,.681.257.907.907,0,0,1,.232.631.877.877,0,0,1-.232.623.886.886,0,0,1-.681.249.872.872,0,0,1-.677-.249A.886.886,0,0,1-.859-11.364Zm3.71,6.79A5.3,5.3,0,0,1,3.37-6.948,3.87,3.87,0,0,1,4.814-8.575a3.932,3.932,0,0,1,2.113-.573,3.788,3.788,0,0,1,2.968,1.27A4.886,4.886,0,0,1,11.028-4.5v.108a5.351,5.351,0,0,1-.5,2.353A3.813,3.813,0,0,1,9.089-.415,3.977,3.977,0,0,1,6.944.166,3.778,3.778,0,0,1,3.984-1.1,4.861,4.861,0,0,1,2.851-4.466ZM4.4-4.391a3.842,3.842,0,0,0,.693,2.4,2.218,2.218,0,0,0,1.855.9A2.2,2.2,0,0,0,8.8-2a4.2,4.2,0,0,0,.689-2.569,3.836,3.836,0,0,0-.7-2.395,2.23,2.23,0,0,0-1.864-.917,2.205,2.205,0,0,0-1.834.9A4.17,4.17,0,0,0,4.4-4.391ZM7.624-12.75H9.484L7.259-10.31l-1.237,0Zm6.782,3.769.05,1.129a3.273,3.273,0,0,1,2.689-1.295q2.847,0,2.872,3.212V0H18.482V-5.943a2.068,2.068,0,0,0-.444-1.436,1.78,1.78,0,0,0-1.357-.465,2.216,2.216,0,0,0-1.312.4,2.706,2.706,0,0,0-.88,1.046V0H12.953V-8.981ZM26.168-4.565a5.261,5.261,0,0,1,.979-3.324,3.1,3.1,0,0,1,2.565-1.258,3.115,3.115,0,0,1,2.5,1.079V-12.75h1.536V0H32.336l-.075-.963A3.127,3.127,0,0,1,29.7.166a3.068,3.068,0,0,1-2.544-1.278,5.321,5.321,0,0,1-.984-3.337Zm1.536.174A3.984,3.984,0,0,0,28.335-2a2.039,2.039,0,0,0,1.743.863,2.24,2.24,0,0,0,2.133-1.312V-6.574a2.257,2.257,0,0,0-2.117-1.27,2.049,2.049,0,0,0-1.76.872A4.386,4.386,0,0,0,27.7-4.391ZM39.856.166a3.924,3.924,0,0,1-2.972-1.2,4.452,4.452,0,0,1-1.146-3.208v-.282a5.39,5.39,0,0,1,.51-2.386,3.982,3.982,0,0,1,1.428-1.644,3.59,3.59,0,0,1,1.988-.594,3.364,3.364,0,0,1,2.723,1.154,5,5,0,0,1,.971,3.3v.639H37.275a3.193,3.193,0,0,0,.776,2.146,2.44,2.44,0,0,0,1.888.818,2.675,2.675,0,0,0,1.378-.332A3.462,3.462,0,0,0,42.3-2.3l.938.73A3.772,3.772,0,0,1,39.856.166Zm-.191-8.052a2.048,2.048,0,0,0-1.561.677,3.288,3.288,0,0,0-.78,1.9h4.5v-.116a2.925,2.925,0,0,0-.631-1.814A1.928,1.928,0,0,0,39.665-7.886Z" transform="translate(1050 4228)" fill="#12263f"/>
    <path id="Trazado_606169" data-name="Trazado 606169" d="M-24.085-1.087a2.212,2.212,0,0,0,1.436-.5,1.752,1.752,0,0,0,.681-1.245h1.453a2.785,2.785,0,0,1-.531,1.469A3.5,3.5,0,0,1-22.354-.249a3.772,3.772,0,0,1-1.731.415A3.7,3.7,0,0,1-27-1.058a4.877,4.877,0,0,1-1.083-3.349v-.257A5.407,5.407,0,0,1-27.6-7a3.667,3.667,0,0,1,1.382-1.585,3.926,3.926,0,0,1,2.129-.564,3.6,3.6,0,0,1,2.511.9,3.234,3.234,0,0,1,1.067,2.349h-1.453a2.116,2.116,0,0,0-.66-1.432,2.053,2.053,0,0,0-1.465-.56,2.149,2.149,0,0,0-1.814.843,3.957,3.957,0,0,0-.643,2.436v.291a3.878,3.878,0,0,0,.639,2.391A2.16,2.16,0,0,0-24.085-1.087ZM-19.2-4.574a5.3,5.3,0,0,1,.519-2.374,3.87,3.87,0,0,1,1.444-1.627,3.932,3.932,0,0,1,2.113-.573,3.788,3.788,0,0,1,2.968,1.27A4.886,4.886,0,0,1-11.019-4.5v.108a5.351,5.351,0,0,1-.5,2.353A3.813,3.813,0,0,1-12.958-.415,3.977,3.977,0,0,1-15.1.166,3.778,3.778,0,0,1-18.062-1.1,4.861,4.861,0,0,1-19.2-4.466Zm1.544.183a3.842,3.842,0,0,0,.693,2.4,2.218,2.218,0,0,0,1.855.9A2.2,2.2,0,0,0-13.244-2a4.2,4.2,0,0,0,.689-2.569,3.836,3.836,0,0,0-.7-2.395,2.23,2.23,0,0,0-1.864-.917,2.205,2.205,0,0,0-1.834.9A4.17,4.17,0,0,0-17.652-4.391Zm10-4.59.042,1A3.317,3.317,0,0,1-4.943-9.147,2.568,2.568,0,0,1-2.378-7.7,3.4,3.4,0,0,1-1.212-8.749a3.445,3.445,0,0,1,1.7-.4q2.955,0,3,3.129V0H1.955V-5.927a2.062,2.062,0,0,0-.44-1.44A1.937,1.937,0,0,0,.037-7.844a2.036,2.036,0,0,0-1.419.51A2.071,2.071,0,0,0-2.038-5.96V0H-3.582V-5.885A1.713,1.713,0,0,0-5.5-7.844,2.055,2.055,0,0,0-7.566-6.558V0H-9.1V-8.981Zm21.042,4.59a5.378,5.378,0,0,1-.938,3.3A3.006,3.006,0,0,1,9.915.166,3.294,3.294,0,0,1,7.342-.872V3.453H5.806V-8.981h1.4l.075,1A3.163,3.163,0,0,1,9.89-9.147a3.063,3.063,0,0,1,2.561,1.22,5.437,5.437,0,0,1,.942,3.4Zm-1.536-.174a3.968,3.968,0,0,0-.647-2.4,2.086,2.086,0,0,0-1.776-.88A2.257,2.257,0,0,0,7.342-6.607v4.292A2.262,2.262,0,0,0,9.45-1.087a2.076,2.076,0,0,0,1.756-.876A4.332,4.332,0,0,0,11.858-4.565ZM19.685-7.6a4.6,4.6,0,0,0-.755-.058,2.024,2.024,0,0,0-2.05,1.287V0H15.344V-8.981h1.494l.025,1.038A2.391,2.391,0,0,1,19-9.147a1.569,1.569,0,0,1,.681.116ZM26.309,0a3.226,3.226,0,0,1-.216-.946A3.426,3.426,0,0,1,23.537.166a3.17,3.17,0,0,1-2.179-.751,2.43,2.43,0,0,1-.851-1.905,2.539,2.539,0,0,1,1.067-2.179,5.029,5.029,0,0,1,3-.776h1.494v-.706a1.725,1.725,0,0,0-.481-1.282,1.935,1.935,0,0,0-1.419-.477A2.239,2.239,0,0,0,22.79-7.5a1.223,1.223,0,0,0-.556,1H20.69a2.119,2.119,0,0,1,.477-1.3,3.258,3.258,0,0,1,1.295-.992,4.356,4.356,0,0,1,1.8-.365,3.551,3.551,0,0,1,2.432.776A2.8,2.8,0,0,1,27.6-6.234V-2.1A5.054,5.054,0,0,0,27.92-.133V0ZM23.761-1.17a2.7,2.7,0,0,0,1.37-.374,2.259,2.259,0,0,0,.938-.971V-4.358h-1.2q-2.822,0-2.822,1.652a1.4,1.4,0,0,0,.481,1.129A1.85,1.85,0,0,0,23.761-1.17Z" transform="translate(1050 4245)" fill="#12263f"/>
    <path id="Trazado_606170" data-name="Trazado 606170" d="M-51.133-5.586h-5.238V-1.3h6.084V0h-7.678V-12.086h7.6v1.3h-6V-6.89h5.238Zm5.6-.116,1.992-3.279h1.793l-2.938,4.441L-41.653,0H-43.43L-45.5-3.362-47.58,0h-1.785l3.03-4.541-2.938-4.441H-47.5Zm13,1.312a5.378,5.378,0,0,1-.938,3.3A3.006,3.006,0,0,1-36.009.166,3.294,3.294,0,0,1-38.582-.872V3.453h-1.536V-8.981h1.4l.075,1a3.163,3.163,0,0,1,2.606-1.162,3.063,3.063,0,0,1,2.561,1.22,5.437,5.437,0,0,1,.942,3.4Zm-1.536-.174a3.968,3.968,0,0,0-.647-2.4,2.086,2.086,0,0,0-1.776-.88,2.257,2.257,0,0,0-2.092,1.237v4.292a2.262,2.262,0,0,0,2.108,1.229,2.076,2.076,0,0,0,1.756-.876A4.332,4.332,0,0,0-34.066-4.565ZM-26.853.166a3.924,3.924,0,0,1-2.972-1.2A4.452,4.452,0,0,1-30.97-4.242v-.282a5.39,5.39,0,0,1,.51-2.386,3.982,3.982,0,0,1,1.428-1.644,3.59,3.59,0,0,1,1.988-.594,3.364,3.364,0,0,1,2.723,1.154,5,5,0,0,1,.971,3.3v.639h-6.084a3.193,3.193,0,0,0,.776,2.146,2.44,2.44,0,0,0,1.888.818,2.675,2.675,0,0,0,1.378-.332A3.462,3.462,0,0,0-24.4-2.3l.938.73A3.772,3.772,0,0,1-26.853.166Zm-.191-8.052a2.048,2.048,0,0,0-1.561.677,3.288,3.288,0,0,0-.78,1.9h4.5v-.116a2.925,2.925,0,0,0-.631-1.814A1.928,1.928,0,0,0-27.044-7.886Zm9.812.282a4.6,4.6,0,0,0-.755-.058,2.024,2.024,0,0,0-2.05,1.287V0h-1.536V-8.981h1.494l.025,1.038a2.391,2.391,0,0,1,2.142-1.2,1.569,1.569,0,0,1,.681.116Zm3.08,7.6h-1.536V-8.981h1.536Zm-1.66-11.364a.917.917,0,0,1,.228-.631.857.857,0,0,1,.677-.257.87.87,0,0,1,.681.257.907.907,0,0,1,.232.631.877.877,0,0,1-.232.623.886.886,0,0,1-.681.249.872.872,0,0,1-.677-.249A.886.886,0,0,1-15.813-11.364ZM-7.969.166a3.924,3.924,0,0,1-2.972-1.2,4.452,4.452,0,0,1-1.146-3.208v-.282a5.39,5.39,0,0,1,.51-2.386,3.982,3.982,0,0,1,1.428-1.644A3.59,3.59,0,0,1-8.16-9.147,3.364,3.364,0,0,1-5.437-7.994a5,5,0,0,1,.971,3.3v.639H-10.55a3.193,3.193,0,0,0,.776,2.146,2.44,2.44,0,0,0,1.888.818,2.675,2.675,0,0,0,1.378-.332A3.462,3.462,0,0,0-5.52-2.3l.938.73A3.772,3.772,0,0,1-7.969.166ZM-8.16-7.886a2.048,2.048,0,0,0-1.561.677,3.288,3.288,0,0,0-.78,1.9H-6v-.116a2.925,2.925,0,0,0-.631-1.814A1.928,1.928,0,0,0-8.16-7.886Zm6.923-1.1.05,1.129A3.273,3.273,0,0,1,1.5-9.147q2.847,0,2.872,3.212V0H2.839V-5.943a2.068,2.068,0,0,0-.444-1.436,1.78,1.78,0,0,0-1.357-.465,2.216,2.216,0,0,0-1.312.4A2.706,2.706,0,0,0-1.154-6.4V0H-2.689V-8.981Zm11.53,7.894a2.212,2.212,0,0,0,1.436-.5,1.752,1.752,0,0,0,.681-1.245h1.453a2.785,2.785,0,0,1-.531,1.469A3.5,3.5,0,0,1,12.024-.249a3.772,3.772,0,0,1-1.731.415A3.7,3.7,0,0,1,7.375-1.058,4.877,4.877,0,0,1,6.292-4.408v-.257A5.407,5.407,0,0,1,6.773-7,3.667,3.667,0,0,1,8.156-8.583a3.926,3.926,0,0,1,2.129-.564,3.6,3.6,0,0,1,2.511.9,3.234,3.234,0,0,1,1.067,2.349H12.41a2.116,2.116,0,0,0-.66-1.432,2.053,2.053,0,0,0-1.465-.56,2.149,2.149,0,0,0-1.814.843,3.957,3.957,0,0,0-.643,2.436v.291a3.878,3.878,0,0,0,.639,2.391A2.16,2.16,0,0,0,10.293-1.087ZM17.257,0H15.722V-8.981h1.536ZM15.6-11.364a.917.917,0,0,1,.228-.631.857.857,0,0,1,.677-.257.87.87,0,0,1,.681.257.907.907,0,0,1,.232.631.877.877,0,0,1-.232.623.886.886,0,0,1-.681.249.872.872,0,0,1-.677-.249A.886.886,0,0,1,15.6-11.364ZM25.259,0a3.226,3.226,0,0,1-.216-.946A3.426,3.426,0,0,1,22.487.166a3.17,3.17,0,0,1-2.179-.751,2.43,2.43,0,0,1-.851-1.905,2.539,2.539,0,0,1,1.067-2.179,5.029,5.029,0,0,1,3-.776h1.494v-.706a1.725,1.725,0,0,0-.481-1.282,1.935,1.935,0,0,0-1.419-.477A2.239,2.239,0,0,0,21.74-7.5a1.223,1.223,0,0,0-.556,1H19.64a2.119,2.119,0,0,1,.477-1.3,3.258,3.258,0,0,1,1.295-.992,4.356,4.356,0,0,1,1.8-.365,3.551,3.551,0,0,1,2.432.776,2.8,2.8,0,0,1,.913,2.137V-2.1A5.054,5.054,0,0,0,26.87-.133V0ZM22.711-1.17a2.7,2.7,0,0,0,1.37-.374,2.259,2.259,0,0,0,.938-.971V-4.358h-1.2q-2.822,0-2.822,1.652a1.4,1.4,0,0,0,.481,1.129A1.85,1.85,0,0,0,22.711-1.17Zm11.48-1.212a1.13,1.13,0,0,0-.469-.967,4.514,4.514,0,0,0-1.635-.594,7.731,7.731,0,0,1-1.851-.6,2.633,2.633,0,0,1-1.013-.83A1.986,1.986,0,0,1,28.9-6.516a2.33,2.33,0,0,1,.934-1.868,3.647,3.647,0,0,1,2.386-.764,3.753,3.753,0,0,1,2.478.789,2.5,2.5,0,0,1,.95,2.017H34.1a1.386,1.386,0,0,0-.535-1.087,2.006,2.006,0,0,0-1.349-.457,2.1,2.1,0,0,0-1.312.365,1.15,1.15,0,0,0-.473.955.932.932,0,0,0,.44.838,5.413,5.413,0,0,0,1.59.54,8.283,8.283,0,0,1,1.864.614,2.718,2.718,0,0,1,1.058.859,2.112,2.112,0,0,1,.344,1.224,2.3,2.3,0,0,1-.963,1.93,4.039,4.039,0,0,1-2.5.726,4.523,4.523,0,0,1-1.909-.382,3.105,3.105,0,0,1-1.3-1.067,2.571,2.571,0,0,1-.469-1.482h1.536a1.59,1.59,0,0,0,.618,1.224,2.4,2.4,0,0,0,1.523.452,2.476,2.476,0,0,0,1.4-.353A1.084,1.084,0,0,0,34.191-2.382Zm7.371-2.183a5.261,5.261,0,0,1,.979-3.324,3.1,3.1,0,0,1,2.565-1.258,3.115,3.115,0,0,1,2.5,1.079V-12.75h1.536V0H47.729l-.075-.963A3.127,3.127,0,0,1,45.09.166a3.068,3.068,0,0,1-2.544-1.278,5.321,5.321,0,0,1-.984-3.337Zm1.536.174A3.984,3.984,0,0,0,43.729-2a2.039,2.039,0,0,0,1.743.863A2.24,2.24,0,0,0,47.6-2.449V-6.574a2.257,2.257,0,0,0-2.117-1.27,2.049,2.049,0,0,0-1.76.872A4.386,4.386,0,0,0,43.1-4.391ZM55.25.166a3.924,3.924,0,0,1-2.972-1.2,4.452,4.452,0,0,1-1.146-3.208v-.282a5.39,5.39,0,0,1,.51-2.386,3.982,3.982,0,0,1,1.428-1.644,3.59,3.59,0,0,1,1.988-.594,3.364,3.364,0,0,1,2.723,1.154,5,5,0,0,1,.971,3.3v.639H52.668a3.193,3.193,0,0,0,.776,2.146,2.44,2.44,0,0,0,1.888.818,2.675,2.675,0,0,0,1.378-.332A3.462,3.462,0,0,0,57.7-2.3l.938.73A3.772,3.772,0,0,1,55.25.166Zm-.191-8.052a2.048,2.048,0,0,0-1.561.677,3.288,3.288,0,0,0-.78,1.9h4.5v-.116a2.925,2.925,0,0,0-.631-1.814A1.928,1.928,0,0,0,55.059-7.886Z" transform="translate(469 4261)" fill="#12263f"/>
    <path id="Trazado_606174" data-name="Trazado 606174" d="M-37.984-3.835A4.447,4.447,0,0,1-39.4-.876,4.638,4.638,0,0,1-42.566.166,4.259,4.259,0,0,1-46-1.37,6.178,6.178,0,0,1-47.29-5.479V-6.641a6.886,6.886,0,0,1,.6-2.963,4.5,4.5,0,0,1,1.706-1.963,4.75,4.75,0,0,1,2.557-.685,4.367,4.367,0,0,1,3.088,1.075A4.5,4.5,0,0,1-37.984-8.2h-1.6a3.472,3.472,0,0,0-.9-2.1,2.725,2.725,0,0,0-1.938-.649,2.851,2.851,0,0,0-2.395,1.13A5.187,5.187,0,0,0-45.687-6.6v1.171A5.332,5.332,0,0,0-44.866-2.3a2.655,2.655,0,0,0,2.3,1.163,3.067,3.067,0,0,0,2.038-.6,3.34,3.34,0,0,0,.942-2.1Zm1.527-.739a5.3,5.3,0,0,1,.519-2.374,3.87,3.87,0,0,1,1.444-1.627,3.932,3.932,0,0,1,2.113-.573,3.788,3.788,0,0,1,2.968,1.27A4.886,4.886,0,0,1-28.281-4.5v.108a5.351,5.351,0,0,1-.5,2.353A3.813,3.813,0,0,1-30.219-.415a3.977,3.977,0,0,1-2.146.581A3.778,3.778,0,0,1-35.324-1.1a4.861,4.861,0,0,1-1.133-3.362Zm1.544.183a3.842,3.842,0,0,0,.693,2.4,2.218,2.218,0,0,0,1.855.9A2.2,2.2,0,0,0-30.505-2a4.2,4.2,0,0,0,.689-2.569,3.836,3.836,0,0,0-.7-2.395,2.23,2.23,0,0,0-1.864-.917,2.205,2.205,0,0,0-1.834.9A4.17,4.17,0,0,0-34.913-4.391Zm10-4.59.042,1A3.317,3.317,0,0,1-22.2-9.147,2.568,2.568,0,0,1-19.64-7.7a3.4,3.4,0,0,1,1.166-1.046,3.445,3.445,0,0,1,1.7-.4q2.955,0,3,3.129V0h-1.536V-5.927a2.062,2.062,0,0,0-.44-1.44,1.937,1.937,0,0,0-1.478-.477,2.036,2.036,0,0,0-1.419.51A2.071,2.071,0,0,0-19.3-5.96V0h-1.544V-5.885a1.713,1.713,0,0,0-1.917-1.959,2.055,2.055,0,0,0-2.067,1.287V0h-1.536V-8.981Zm21.042,4.59a5.378,5.378,0,0,1-.938,3.3A3.006,3.006,0,0,1-7.346.166,3.294,3.294,0,0,1-9.919-.872V3.453h-1.536V-8.981h1.4l.075,1A3.163,3.163,0,0,1-7.371-9.147,3.063,3.063,0,0,1-4.81-7.927a5.437,5.437,0,0,1,.942,3.4ZM-5.4-4.565a3.968,3.968,0,0,0-.647-2.4,2.086,2.086,0,0,0-1.776-.88A2.257,2.257,0,0,0-9.919-6.607v4.292A2.262,2.262,0,0,0-7.811-1.087a2.076,2.076,0,0,0,1.756-.876A4.332,4.332,0,0,0-5.4-4.565ZM3.627,0a3.226,3.226,0,0,1-.216-.946A3.426,3.426,0,0,1,.855.166,3.17,3.17,0,0,1-1.324-.585,2.43,2.43,0,0,1-2.175-2.49,2.539,2.539,0,0,1-1.108-4.669a5.029,5.029,0,0,1,3-.776H3.387v-.706a1.725,1.725,0,0,0-.481-1.282,1.935,1.935,0,0,0-1.419-.477A2.239,2.239,0,0,0,.108-7.5a1.223,1.223,0,0,0-.556,1H-1.992a2.119,2.119,0,0,1,.477-1.3A3.258,3.258,0,0,1-.22-8.782a4.356,4.356,0,0,1,1.8-.365,3.551,3.551,0,0,1,2.432.776,2.8,2.8,0,0,1,.913,2.137V-2.1A5.054,5.054,0,0,0,5.238-.133V0ZM1.079-1.17a2.7,2.7,0,0,0,1.37-.374,2.259,2.259,0,0,0,.938-.971V-4.358h-1.2q-2.822,0-2.822,1.652A1.4,1.4,0,0,0-.158-1.577,1.85,1.85,0,0,0,1.079-1.17ZM11.671-7.6a4.6,4.6,0,0,0-.755-.058,2.024,2.024,0,0,0-2.05,1.287V0H7.33V-8.981H8.824l.025,1.038a2.391,2.391,0,0,1,2.142-1.2,1.569,1.569,0,0,1,.681.116ZM18.295,0a3.226,3.226,0,0,1-.216-.946A3.426,3.426,0,0,1,15.522.166a3.17,3.17,0,0,1-2.179-.751,2.43,2.43,0,0,1-.851-1.905,2.539,2.539,0,0,1,1.067-2.179,5.029,5.029,0,0,1,3-.776h1.494v-.706a1.725,1.725,0,0,0-.481-1.282,1.935,1.935,0,0,0-1.419-.477,2.239,2.239,0,0,0-1.378.415,1.223,1.223,0,0,0-.556,1H12.675a2.119,2.119,0,0,1,.477-1.3,3.258,3.258,0,0,1,1.295-.992,4.356,4.356,0,0,1,1.8-.365,3.551,3.551,0,0,1,2.432.776,2.8,2.8,0,0,1,.913,2.137V-2.1a5.054,5.054,0,0,0,.315,1.967V0ZM15.747-1.17a2.7,2.7,0,0,0,1.37-.374,2.259,2.259,0,0,0,.938-.971V-4.358h-1.2q-2.822,0-2.822,1.652a1.4,1.4,0,0,0,.481,1.129A1.85,1.85,0,0,0,15.747-1.17Zm11.9-7.811.042,1a3.317,3.317,0,0,1,2.665-1.162A2.568,2.568,0,0,1,32.921-7.7a3.4,3.4,0,0,1,1.166-1.046,3.445,3.445,0,0,1,1.7-.4q2.955,0,3,3.129V0H37.254V-5.927a2.062,2.062,0,0,0-.44-1.44,1.937,1.937,0,0,0-1.478-.477,2.036,2.036,0,0,0-1.419.51,2.071,2.071,0,0,0-.656,1.374V0H31.717V-5.885A1.713,1.713,0,0,0,29.8-7.844a2.055,2.055,0,0,0-2.067,1.287V0H26.2V-8.981ZM42.774,0H41.238V-8.981h1.536Zm-1.66-11.364a.917.917,0,0,1,.228-.631.857.857,0,0,1,.677-.257.87.87,0,0,1,.681.257.907.907,0,0,1,.232.631.877.877,0,0,1-.232.623.886.886,0,0,1-.681.249.872.872,0,0,1-.677-.249A.886.886,0,0,1,41.114-11.364Z" transform="translate(522 4366)" fill="#12263f"/>
    <path id="Trazado_606171" data-name="Trazado 606171" d="M-58.388-1.087a2.212,2.212,0,0,0,1.436-.5,1.752,1.752,0,0,0,.681-1.245h1.453a2.785,2.785,0,0,1-.531,1.469A3.5,3.5,0,0,1-56.657-.249a3.772,3.772,0,0,1-1.731.415,3.7,3.7,0,0,1-2.918-1.224,4.877,4.877,0,0,1-1.083-3.349v-.257A5.407,5.407,0,0,1-61.907-7a3.667,3.667,0,0,1,1.382-1.585A3.926,3.926,0,0,1-58.4-9.147a3.6,3.6,0,0,1,2.511.9,3.234,3.234,0,0,1,1.067,2.349h-1.453a2.116,2.116,0,0,0-.66-1.432,2.053,2.053,0,0,0-1.465-.56,2.149,2.149,0,0,0-1.814.843,3.957,3.957,0,0,0-.643,2.436v.291a3.878,3.878,0,0,0,.639,2.391A2.16,2.16,0,0,0-58.388-1.087ZM-53.5-4.574a5.3,5.3,0,0,1,.519-2.374,3.87,3.87,0,0,1,1.444-1.627,3.932,3.932,0,0,1,2.113-.573,3.788,3.788,0,0,1,2.968,1.27A4.886,4.886,0,0,1-45.322-4.5v.108a5.351,5.351,0,0,1-.5,2.353A3.813,3.813,0,0,1-47.26-.415a3.977,3.977,0,0,1-2.146.581A3.778,3.778,0,0,1-52.365-1.1,4.861,4.861,0,0,1-53.5-4.466Zm1.544.183a3.842,3.842,0,0,0,.693,2.4,2.218,2.218,0,0,0,1.855.9A2.2,2.2,0,0,0-47.547-2a4.2,4.2,0,0,0,.689-2.569,3.836,3.836,0,0,0-.7-2.395,2.23,2.23,0,0,0-1.864-.917,2.205,2.205,0,0,0-1.834.9A4.17,4.17,0,0,0-51.955-4.391Zm10-4.59.042,1a3.317,3.317,0,0,1,2.665-1.162A2.568,2.568,0,0,1-36.681-7.7a3.4,3.4,0,0,1,1.166-1.046,3.445,3.445,0,0,1,1.7-.4q2.955,0,3,3.129V0h-1.536V-5.927a2.062,2.062,0,0,0-.44-1.44,1.937,1.937,0,0,0-1.478-.477,2.036,2.036,0,0,0-1.419.51,2.071,2.071,0,0,0-.656,1.374V0h-1.544V-5.885A1.713,1.713,0,0,0-39.8-7.844a2.055,2.055,0,0,0-2.067,1.287V0H-43.4V-8.981Zm21.042,4.59a5.378,5.378,0,0,1-.938,3.3A3.006,3.006,0,0,1-24.388.166,3.294,3.294,0,0,1-26.961-.872V3.453H-28.5V-8.981h1.4l.075,1a3.163,3.163,0,0,1,2.606-1.162,3.063,3.063,0,0,1,2.561,1.22,5.437,5.437,0,0,1,.942,3.4Zm-1.536-.174a3.968,3.968,0,0,0-.647-2.4,2.086,2.086,0,0,0-1.776-.88,2.257,2.257,0,0,0-2.092,1.237v4.292a2.262,2.262,0,0,0,2.108,1.229A2.076,2.076,0,0,0-23.1-1.963,4.332,4.332,0,0,0-22.445-4.565ZM-14.618-7.6a4.6,4.6,0,0,0-.755-.058,2.024,2.024,0,0,0-2.05,1.287V0h-1.536V-8.981h1.494l.025,1.038a2.391,2.391,0,0,1,2.142-1.2,1.569,1.569,0,0,1,.681.116ZM-7.994,0a3.226,3.226,0,0,1-.216-.946A3.426,3.426,0,0,1-10.766.166a3.17,3.17,0,0,1-2.179-.751A2.43,2.43,0,0,1-13.8-2.49a2.539,2.539,0,0,1,1.067-2.179,5.029,5.029,0,0,1,3-.776h1.494v-.706a1.725,1.725,0,0,0-.481-1.282,1.935,1.935,0,0,0-1.419-.477,2.239,2.239,0,0,0-1.378.415,1.223,1.223,0,0,0-.556,1h-1.544a2.119,2.119,0,0,1,.477-1.3,3.258,3.258,0,0,1,1.295-.992,4.356,4.356,0,0,1,1.8-.365,3.551,3.551,0,0,1,2.432.776A2.8,2.8,0,0,1-6.7-6.234V-2.1A5.054,5.054,0,0,0-6.383-.133V0Zm-2.548-1.17a2.7,2.7,0,0,0,1.37-.374,2.259,2.259,0,0,0,.938-.971V-4.358h-1.2q-2.822,0-2.822,1.652a1.4,1.4,0,0,0,.481,1.129A1.85,1.85,0,0,0-10.542-1.17ZM7.5-4.391a5.378,5.378,0,0,1-.938,3.3A3.006,3.006,0,0,1,4.026.166,3.294,3.294,0,0,1,1.453-.872V3.453H-.083V-8.981h1.4l.075,1A3.163,3.163,0,0,1,4-9.147a3.063,3.063,0,0,1,2.561,1.22,5.437,5.437,0,0,1,.942,3.4ZM5.968-4.565a3.968,3.968,0,0,0-.647-2.4,2.086,2.086,0,0,0-1.776-.88A2.257,2.257,0,0,0,1.453-6.607v4.292A2.262,2.262,0,0,0,3.561-1.087a2.076,2.076,0,0,0,1.756-.876A4.332,4.332,0,0,0,5.968-4.565ZM15,0a3.226,3.226,0,0,1-.216-.946A3.426,3.426,0,0,1,12.227.166a3.17,3.17,0,0,1-2.179-.751A2.43,2.43,0,0,1,9.2-2.49a2.539,2.539,0,0,1,1.067-2.179,5.029,5.029,0,0,1,3-.776h1.494v-.706a1.725,1.725,0,0,0-.481-1.282,1.935,1.935,0,0,0-1.419-.477A2.239,2.239,0,0,0,11.48-7.5a1.223,1.223,0,0,0-.556,1H9.38a2.119,2.119,0,0,1,.477-1.3,3.258,3.258,0,0,1,1.295-.992,4.356,4.356,0,0,1,1.8-.365,3.551,3.551,0,0,1,2.432.776,2.8,2.8,0,0,1,.913,2.137V-2.1A5.054,5.054,0,0,0,16.61-.133V0ZM12.451-1.17a2.7,2.7,0,0,0,1.37-.374,2.259,2.259,0,0,0,.938-.971V-4.358h-1.2q-2.822,0-2.822,1.652a1.4,1.4,0,0,0,.481,1.129A1.85,1.85,0,0,0,12.451-1.17Zm11.48-1.212a1.131,1.131,0,0,0-.469-.967,4.514,4.514,0,0,0-1.635-.594,7.731,7.731,0,0,1-1.851-.6,2.633,2.633,0,0,1-1.013-.83,1.986,1.986,0,0,1-.328-1.146,2.33,2.33,0,0,1,.934-1.868,3.647,3.647,0,0,1,2.386-.764,3.753,3.753,0,0,1,2.478.789,2.5,2.5,0,0,1,.95,2.017H23.84A1.386,1.386,0,0,0,23.3-7.429a2.006,2.006,0,0,0-1.349-.457,2.1,2.1,0,0,0-1.312.365,1.15,1.15,0,0,0-.473.955.932.932,0,0,0,.44.838,5.413,5.413,0,0,0,1.59.54,8.283,8.283,0,0,1,1.864.614,2.718,2.718,0,0,1,1.058.859,2.112,2.112,0,0,1,.344,1.224A2.3,2.3,0,0,1,24.5-.56a4.039,4.039,0,0,1-2.5.726A4.523,4.523,0,0,1,20.1-.216a3.105,3.105,0,0,1-1.3-1.067,2.571,2.571,0,0,1-.469-1.482h1.536a1.59,1.59,0,0,0,.618,1.224,2.4,2.4,0,0,0,1.523.452,2.476,2.476,0,0,0,1.4-.353A1.084,1.084,0,0,0,23.931-2.382ZM33.012,0A3.226,3.226,0,0,1,32.8-.946,3.426,3.426,0,0,1,30.24.166a3.17,3.17,0,0,1-2.179-.751A2.43,2.43,0,0,1,27.21-2.49a2.539,2.539,0,0,1,1.067-2.179,5.029,5.029,0,0,1,3-.776h1.494v-.706a1.725,1.725,0,0,0-.481-1.282,1.935,1.935,0,0,0-1.419-.477,2.239,2.239,0,0,0-1.378.415,1.223,1.223,0,0,0-.556,1H27.393a2.119,2.119,0,0,1,.477-1.3,3.258,3.258,0,0,1,1.295-.992,4.356,4.356,0,0,1,1.8-.365,3.551,3.551,0,0,1,2.432.776,2.8,2.8,0,0,1,.913,2.137V-2.1a5.054,5.054,0,0,0,.315,1.967V0ZM30.464-1.17a2.7,2.7,0,0,0,1.37-.374,2.259,2.259,0,0,0,.938-.971V-4.358h-1.2q-2.822,0-2.822,1.652a1.4,1.4,0,0,0,.481,1.129A1.85,1.85,0,0,0,30.464-1.17Zm5.877-3.4A5.261,5.261,0,0,1,37.32-7.89a3.1,3.1,0,0,1,2.565-1.258,3.115,3.115,0,0,1,2.5,1.079V-12.75h1.536V0H42.508l-.075-.963A3.127,3.127,0,0,1,39.869.166a3.068,3.068,0,0,1-2.544-1.278,5.321,5.321,0,0,1-.984-3.337Zm1.536.174A3.984,3.984,0,0,0,38.507-2a2.039,2.039,0,0,0,1.743.863,2.24,2.24,0,0,0,2.133-1.312V-6.574a2.257,2.257,0,0,0-2.117-1.27,2.049,2.049,0,0,0-1.76.872A4.386,4.386,0,0,0,37.876-4.391ZM51.847,0a3.226,3.226,0,0,1-.216-.946A3.426,3.426,0,0,1,49.074.166,3.17,3.17,0,0,1,46.9-.585a2.43,2.43,0,0,1-.851-1.905,2.539,2.539,0,0,1,1.067-2.179,5.029,5.029,0,0,1,3-.776h1.494v-.706a1.725,1.725,0,0,0-.481-1.282,1.935,1.935,0,0,0-1.419-.477,2.239,2.239,0,0,0-1.378.415,1.223,1.223,0,0,0-.556,1H46.227a2.119,2.119,0,0,1,.477-1.3A3.258,3.258,0,0,1,48-8.782a4.356,4.356,0,0,1,1.8-.365,3.551,3.551,0,0,1,2.432.776,2.8,2.8,0,0,1,.913,2.137V-2.1a5.054,5.054,0,0,0,.315,1.967V0ZM49.3-1.17a2.7,2.7,0,0,0,1.37-.374,2.259,2.259,0,0,0,.938-.971V-4.358H50.4q-2.822,0-2.822,1.652a1.4,1.4,0,0,0,.481,1.129A1.85,1.85,0,0,0,49.3-1.17Zm11.48-1.212a1.13,1.13,0,0,0-.469-.967,4.514,4.514,0,0,0-1.635-.594,7.731,7.731,0,0,1-1.851-.6,2.633,2.633,0,0,1-1.013-.83,1.986,1.986,0,0,1-.328-1.146,2.33,2.33,0,0,1,.934-1.868A3.647,3.647,0,0,1,58.8-9.147a3.753,3.753,0,0,1,2.478.789,2.5,2.5,0,0,1,.95,2.017H60.687a1.386,1.386,0,0,0-.535-1.087A2.006,2.006,0,0,0,58.8-7.886a2.1,2.1,0,0,0-1.312.365,1.15,1.15,0,0,0-.473.955.932.932,0,0,0,.44.838,5.413,5.413,0,0,0,1.59.54,8.283,8.283,0,0,1,1.864.614,2.718,2.718,0,0,1,1.058.859,2.112,2.112,0,0,1,.344,1.224,2.3,2.3,0,0,1-.963,1.93,4.039,4.039,0,0,1-2.5.726,4.523,4.523,0,0,1-1.909-.382,3.105,3.105,0,0,1-1.3-1.067,2.571,2.571,0,0,1-.469-1.482h1.536a1.59,1.59,0,0,0,.618,1.224,2.4,2.4,0,0,0,1.523.452,2.476,2.476,0,0,0,1.4-.353A1.084,1.084,0,0,0,60.778-2.382Z" transform="translate(469 4281)" fill="#12263f"/>
    <path id="Trazado_606175" data-name="Trazado 606175" d="M-25.131-4.391a5.378,5.378,0,0,1-.938,3.3A3.006,3.006,0,0,1-28.609.166,3.294,3.294,0,0,1-31.182-.872V3.453h-1.536V-8.981h1.4l.075,1a3.163,3.163,0,0,1,2.606-1.162,3.063,3.063,0,0,1,2.561,1.22,5.437,5.437,0,0,1,.942,3.4Zm-1.536-.174a3.968,3.968,0,0,0-.647-2.4,2.086,2.086,0,0,0-1.776-.88,2.257,2.257,0,0,0-2.092,1.237v4.292a2.262,2.262,0,0,0,2.108,1.229,2.076,2.076,0,0,0,1.756-.876A4.332,4.332,0,0,0-26.666-4.565ZM-18.839-7.6a4.6,4.6,0,0,0-.755-.058,2.024,2.024,0,0,0-2.05,1.287V0H-23.18V-8.981h1.494l.025,1.038a2.391,2.391,0,0,1,2.142-1.2,1.569,1.569,0,0,1,.681.116ZM-18-4.574a5.3,5.3,0,0,1,.519-2.374,3.87,3.87,0,0,1,1.444-1.627,3.932,3.932,0,0,1,2.113-.573,3.788,3.788,0,0,1,2.968,1.27A4.886,4.886,0,0,1-9.824-4.5v.108a5.351,5.351,0,0,1-.5,2.353A3.813,3.813,0,0,1-11.762-.415a3.977,3.977,0,0,1-2.146.581A3.778,3.778,0,0,1-16.867-1.1,4.861,4.861,0,0,1-18-4.466Zm1.544.183a3.842,3.842,0,0,0,.693,2.4,2.218,2.218,0,0,0,1.855.9A2.2,2.2,0,0,0-12.049-2a4.2,4.2,0,0,0,.689-2.569,3.836,3.836,0,0,0-.7-2.395,2.23,2.23,0,0,0-1.864-.917,2.205,2.205,0,0,0-1.834.9A4.17,4.17,0,0,0-16.456-4.391Zm8.185-.174A5.261,5.261,0,0,1-7.292-7.89,3.1,3.1,0,0,1-4.727-9.147a3.115,3.115,0,0,1,2.5,1.079V-12.75H-.693V0H-2.1l-.075-.963A3.127,3.127,0,0,1-4.744.166,3.068,3.068,0,0,1-7.288-1.112a5.321,5.321,0,0,1-.984-3.337Zm1.536.174A3.984,3.984,0,0,0-6.105-2a2.039,2.039,0,0,0,1.743.863A2.24,2.24,0,0,0-2.229-2.449V-6.574a2.257,2.257,0,0,0-2.117-1.27,2.049,2.049,0,0,0-1.76.872A4.386,4.386,0,0,0-6.736-4.391Zm13.97,3.5A3.262,3.262,0,0,1,4.6.166,2.792,2.792,0,0,1,2.416-.668a3.611,3.611,0,0,1-.76-2.469V-8.981H3.192v5.8q0,2.042,1.66,2.042A2.3,2.3,0,0,0,7.193-2.449V-8.981H8.728V0H7.267Zm7.429-.2a2.212,2.212,0,0,0,1.436-.5,1.752,1.752,0,0,0,.681-1.245h1.453A2.785,2.785,0,0,1,17.7-1.361,3.5,3.5,0,0,1,16.394-.249a3.772,3.772,0,0,1-1.731.415,3.7,3.7,0,0,1-2.918-1.224,4.877,4.877,0,0,1-1.083-3.349v-.257A5.407,5.407,0,0,1,11.144-7a3.667,3.667,0,0,1,1.382-1.585,3.926,3.926,0,0,1,2.129-.564,3.6,3.6,0,0,1,2.511.9,3.234,3.234,0,0,1,1.067,2.349H16.78a2.116,2.116,0,0,0-.66-1.432,2.053,2.053,0,0,0-1.465-.56,2.149,2.149,0,0,0-1.814.843A3.957,3.957,0,0,0,12.2-4.607v.291a3.878,3.878,0,0,0,.639,2.391A2.16,2.16,0,0,0,14.663-1.087Zm7.379-10.069v2.175h1.677v1.187H22.043v5.577a1.247,1.247,0,0,0,.224.81.943.943,0,0,0,.764.27,3.718,3.718,0,0,0,.73-.1V0a4.478,4.478,0,0,1-1.179.165A1.912,1.912,0,0,1,21.03-.457a2.675,2.675,0,0,1-.523-1.768v-5.57H18.872V-8.981h1.635v-2.175Zm2.9,6.583a5.3,5.3,0,0,1,.519-2.374A3.87,3.87,0,0,1,26.9-8.575a3.932,3.932,0,0,1,2.113-.573,3.788,3.788,0,0,1,2.968,1.27A4.886,4.886,0,0,1,33.116-4.5v.108a5.351,5.351,0,0,1-.5,2.353A3.813,3.813,0,0,1,31.178-.415a3.977,3.977,0,0,1-2.146.581A3.778,3.778,0,0,1,26.073-1.1,4.861,4.861,0,0,1,24.94-4.466Zm1.544.183a3.842,3.842,0,0,0,.693,2.4,2.218,2.218,0,0,0,1.855.9A2.2,2.2,0,0,0,30.891-2a4.2,4.2,0,0,0,.689-2.569,3.836,3.836,0,0,0-.7-2.395,2.23,2.23,0,0,0-1.864-.917,2.205,2.205,0,0,0-1.834.9A4.17,4.17,0,0,0,26.484-4.391Z" transform="translate(522 4386)" fill="#12263f"/>
  </g>
</svg>
