<svg id="Grupo_1015542" data-name="Grupo 1015542" xmlns="http://www.w3.org/2000/svg" width="82.545" height="86.665" viewBox="0 0 82.545 86.665">
  <ellipse id="Elipse_4912" data-name="Elipse 4912" cx="39.105" cy="3.699" rx="39.105" ry="3.699" transform="translate(2.114 79.267)" fill="#c4d3d3"/>
  <g id="cow" transform="translate(0 0)">
    <g id="Grupo_153280" data-name="Grupo 153280" transform="translate(0 0)">
      <g id="Grupo_153279" data-name="Grupo 153279">
        <g id="Grupo_153278" data-name="Grupo 153278">
          <g id="Grupo_153277" data-name="Grupo 153277">
            <g id="Grupo_153276" data-name="Grupo 153276">
              <g id="Grupo_153275" data-name="Grupo 153275">
                <g id="Grupo_153274" data-name="Grupo 153274">
                  <ellipse id="Elipse_4914" data-name="Elipse 4914" cx="41.219" cy="41.219" rx="41.219" ry="41.219" fill="#a3bfe4"/>
                </g>
              </g>
            </g>
          </g>
        </g>
      </g>
    </g>
    <path id="Trazado_213181" data-name="Trazado 213181" d="M168.735,95.582a41.582,41.582,0,0,0-.462-6.193L143.648,64.764l-2.022,30.313L111.313,64.764l1.127,25.124-9.649,2.907,20.483,20.483-11.12,10.688,12.794,12.794q1.256.076,2.532.076A41.254,41.254,0,0,0,168.735,95.582Z" transform="translate(-86.19 -54.048)" fill="#8caad1"/>
    <g id="Grupo_153281" data-name="Grupo 153281" transform="translate(21.814 10.716)">
      <path id="Trazado_213182" data-name="Trazado 213182" d="M146.625,78.167s-7.466-3.037-8.179-13.4c0,0-8.389,12.69,1.545,20.3S146.625,78.167,146.625,78.167Z" transform="translate(-135.137 -64.764)" fill="#555a66"/>
    </g>
    <g id="Grupo_153282" data-name="Grupo 153282" transform="translate(12.234 26.414)">
      <path id="Trazado_213183" data-name="Trazado 213183" d="M90.2,168.981s-5.7-7.311-14.439-6.776c0,0-1.783,13.607,13.013,16.519Z" transform="translate(-75.69 -162.177)" fill="#ffb89c"/>
    </g>
    <g id="Grupo_153283" data-name="Grupo 153283" transform="translate(48.754 10.716)">
      <path id="Trazado_213184" data-name="Trazado 213184" d="M302.836,78.167s7.466-3.037,8.179-13.4c0,0,8.389,12.69-1.545,20.3S302.836,78.167,302.836,78.167Z" transform="translate(-302.31 -64.764)" fill="#333940"/>
    </g>
    <g id="Grupo_153284" data-name="Grupo 153284" transform="translate(55.841 26.414)">
      <path id="Trazado_213185" data-name="Trazado 213185" d="M346.291,168.981s5.7-7.311,14.439-6.776c0,0,1.783,13.607-13.013,16.519Z" transform="translate(-346.291 -162.177)" fill="#ff936b"/>
    </g>
    <g id="Grupo_153285" data-name="Grupo 153285" transform="translate(23.011 20.262)">
      <path id="Trazado_213186" data-name="Trazado 213186" d="M162.832,124h-5.18a15.082,15.082,0,0,0-14.957,17.019l2.967,22.912h30.371l1.815-14.02Z" transform="translate(-142.568 -124.003)" fill="#fff"/>
    </g>
    <g id="Grupo_153286" data-name="Grupo 153286" transform="translate(41.291 20.262)">
      <path id="Trazado_213187" data-name="Trazado 213187" d="M257.984,124H256v39.931h15.186L273,149.914l-1.034-8.738Z" transform="translate(-256 -124.003)" fill="#e9edf5"/>
    </g>
    <g id="Grupo_153287" data-name="Grupo 153287" transform="translate(23.65 54.013)">
      <path id="Trazado_213188" data-name="Trazado 213188" d="M173.712,351.78H154.633a8.1,8.1,0,0,1-8.1-8.1v-2.136a8.1,8.1,0,0,1,8.1-8.1h19.079a8.1,8.1,0,0,1,8.1,8.1v2.136A8.1,8.1,0,0,1,173.712,351.78Z" transform="translate(-146.532 -333.442)" fill="#ffb89c"/>
    </g>
    <g id="Grupo_153288" data-name="Grupo 153288" transform="translate(41.291 54.013)">
      <path id="Trazado_213189" data-name="Trazado 213189" d="M265.54,333.442H256V351.78h9.54a8.1,8.1,0,0,0,8.1-8.1v-2.136A8.1,8.1,0,0,0,265.54,333.442Z" transform="translate(-256 -333.442)" fill="#ff936b"/>
    </g>
    <g id="Grupo_153291" data-name="Grupo 153291" transform="translate(30.717 60.668)">
      <g id="Grupo_153289" data-name="Grupo 153289">
        <ellipse id="Elipse_4915" data-name="Elipse 4915" cx="3.111" cy="3.111" rx="3.111" ry="3.111" fill="#555a66"/>
      </g>
      <g id="Grupo_153290" data-name="Grupo 153290" transform="translate(14.926)">
        <ellipse id="Elipse_4916" data-name="Elipse 4916" cx="3.111" cy="3.111" rx="3.111" ry="3.111" fill="#333940"/>
      </g>
    </g>
    <g id="Grupo_153294" data-name="Grupo 153294" transform="translate(30.165 39.93)">
      <g id="Grupo_153292" data-name="Grupo 153292">
        <ellipse id="Elipse_4917" data-name="Elipse 4917" cx="3.03" cy="3.03" rx="3.03" ry="3.03" fill="#555a66"/>
      </g>
      <g id="Grupo_153293" data-name="Grupo 153293" transform="translate(16.19)">
        <ellipse id="Elipse_4918" data-name="Elipse 4918" cx="3.03" cy="3.03" rx="3.03" ry="3.03" fill="#333940"/>
      </g>
    </g>
    <g id="Grupo_153295" data-name="Grupo 153295" transform="translate(42.068 20.262)">
      <path id="Trazado_213190" data-name="Trazado 213190" d="M263.242,124h-2.418a11.117,11.117,0,0,1,3.574,5.7c1.242,5.229,1.221,10.22,6.222,10.458,3,.142,5.167,5.485,6.427,9.749l1.151-8.893A15.082,15.082,0,0,0,263.242,124Z" transform="translate(-260.824 -124.003)" fill="#555a66"/>
    </g>
  </g>
</svg>
