<svg xmlns="http://www.w3.org/2000/svg" width="82.891" height="85.816" viewBox="0 0 82.891 85.816">
  <g id="Grupo_1015543" data-name="Grupo 1015543" transform="translate(-0.975)">
    <ellipse id="Elipse_4913" data-name="Elipse 4913" cx="39.007" cy="3.901" rx="39.007" ry="3.901" transform="translate(3.413 78.015)" fill="#c4d3d3"/>
    <g id="Grupo_153317" data-name="Grupo 153317" transform="translate(0.975 0)">
      <g id="perro" transform="translate(0 0)">
        <g id="XMLID_181_" transform="translate(0)">
          <g id="XMLID_182_">
            <g id="XMLID_183_">
              <g id="XMLID_184_">
                <g id="XMLID_185_">
                  <g id="XMLID_186_">
                    <g id="XMLID_187_">
                      <g id="XMLID_188_">
                        <g id="XMLID_189_">
                          <g id="XMLID_190_">
                            <g id="XMLID_191_">
                              <g id="XMLID_192_">
                                <g id="XMLID_193_">
                                  <g id="XMLID_194_">
                                    <ellipse id="XMLID_195_" cx="41.445" cy="40.958" rx="41.445" ry="40.958" fill="#a3bfe4"/>
                                  </g>
                                </g>
                              </g>
                            </g>
                          </g>
                        </g>
                      </g>
                    </g>
                  </g>
                </g>
              </g>
            </g>
          </g>
        </g>
        <path id="Trazado_213191" data-name="Trazado 213191" d="M152.825,155.5a40.87,40.87,0,0,0-2.854-15.053l-4.145-4.1-57.162,4.519L84.375,153.7l9.559,9.556,9.021,22.551,10.639,10.639A40.977,40.977,0,0,0,152.825,155.5Z" transform="translate(-70.627 -114.831)" fill="#8caad1"/>
        <g id="Grupo_153304" data-name="Grupo 153304" transform="translate(6.544 15.401)">
          <g id="Grupo_153298" data-name="Grupo 153298">
            <g id="Grupo_153296" data-name="Grupo 153296">
              <path id="Trazado_213192" data-name="Trazado 213192" d="M126.775,106.793s-7.677-6.229-10.159-5.926-5.448,8.959-5.448,8.959,4.367,7.853,5.946,11.432Z" transform="translate(-99.675 -100.418)" fill="#b56f40"/>
              <path id="Trazado_213193" data-name="Trazado 213193" d="M58.345,99.079a6.34,6.34,0,0,0-5.525-.645A69.152,69.152,0,0,0,42,102.635c-3.3,1.643-3.3,4.762-1.1,9.391,1.534,3.225,5.476,11.194,7.177,10.113.808-.514,5.581-13.93,6.566-16.555C55.459,103.415,58.039,99.988,58.345,99.079Z" transform="translate(-39.368 -98.119)" fill="#cc8656"/>
            </g>
            <g id="Grupo_153297" data-name="Grupo 153297" transform="translate(42.252)">
              <path id="Trazado_213194" data-name="Trazado 213194" d="M303.328,106.793s7.677-6.229,10.159-5.926,5.448,8.959,5.448,8.959-4.367,7.853-5.946,11.432Z" transform="translate(-303.328 -100.418)" fill="#a35d2e"/>
              <path id="Trazado_213195" data-name="Trazado 213195" d="M354.079,99.079a6.34,6.34,0,0,1,5.525-.645,69.157,69.157,0,0,1,10.817,4.2c3.3,1.643,3.3,4.762,1.1,9.391-1.534,3.225-5.476,11.194-7.177,10.113-.808-.514-5.581-13.93-6.566-16.555C356.965,103.415,354.384,99.988,354.079,99.079Z" transform="translate(-345.955 -98.119)" fill="#b56f40"/>
            </g>
          </g>
          <g id="Grupo_153302" data-name="Grupo 153302" transform="translate(14.691 3.55)">
            <path id="Trazado_213196" data-name="Trazado 213196" d="M179.842,152.912q-.316.656-.693,1.372c-5.644,10.734-3.605,20.654-17.561,20.654s-11.917-9.92-17.561-20.654q-.377-.717-.693-1.372a76.608,76.608,0,0,0,4.731-16.131c1.427-8.014,9.729-16.131,9.729-16.131a20.47,20.47,0,0,1,7.59,0s8.073,8.117,9.5,16.131A69.213,69.213,0,0,0,179.842,152.912Z" transform="translate(-141.383 -120.295)" fill="#fcf0e5"/>
            <path id="Trazado_213197" data-name="Trazado 213197" d="M274.475,152.916c-.211.439-.442.895-.693,1.373-5.646,10.734-3.606,20.654-17.563,20.654-.074,0-.147,0-.219,0V120.3c.074,0,.146,0,.219,0a20.336,20.336,0,0,1,3.8.354s8.074,8.117,9.5,16.132A69.215,69.215,0,0,0,274.475,152.916Z" transform="translate(-236.015 -120.299)" fill="#eaddd3"/>
            <g id="Grupo_153299" data-name="Grupo 153299" transform="translate(13.21 36.358)">
              <path id="Trazado_213198" data-name="Trazado 213198" d="M220.452,347.437c-4.065,0-7.638.249-6.59,4.975.677,3.055,4.989,5.237,6.59,5.237s5.912-2.182,6.59-5.237C228.089,347.686,224.516,347.437,220.452,347.437Z" transform="translate(-213.677 -347.437)" fill="#70695e"/>
            </g>
            <g id="Grupo_153300" data-name="Grupo 153300" transform="translate(19.985 36.359)">
              <path id="Trazado_213199" data-name="Trazado 213199" d="M262.59,352.415c-.677,3.054-4.989,5.236-6.59,5.236V347.44c4.064,0,7.639.248,6.59,4.975Z" transform="translate(-256 -347.44)" fill="#5b554a"/>
            </g>
            <g id="Grupo_153301" data-name="Grupo 153301" transform="translate(0 0.355)">
              <path id="Trazado_213200" data-name="Trazado 213200" d="M145.388,150.741c-3.135,1.985-9.038,3.436-12.288,4.032-4.54-9.379.048-9.792,1.7-19.038a15.608,15.608,0,0,1,12.983-13.224C148.232,129.625,150.732,147.36,145.388,150.741Z" transform="translate(-131.15 -122.511)" fill="#cc8656"/>
              <path id="Trazado_213201" data-name="Trazado 213201" d="M289.515,154.774c-3.249-.6-9.055-1.985-12.19-3.97-5.344-3.381-2.942-21.178-2.49-28.292a15.608,15.608,0,0,1,12.983,13.224C289.466,144.982,294.054,145.4,289.515,154.774Z" transform="translate(-251.055 -122.512)" fill="#b56f40"/>
            </g>
          </g>
          <g id="Grupo_153303" data-name="Grupo 153303" transform="translate(20.411 20.354)">
            <circle id="Elipse_4919" data-name="Elipse 4919" cx="2.569" cy="2.569" r="2.569" transform="translate(0 3.021) rotate(-35.851)" fill="#5b554a"/>
            <circle id="Elipse_4920" data-name="Elipse 4920" cx="2.569" cy="2.569" r="2.569" transform="translate(21.416 3.011) rotate(-35.851)" fill="#3a352e"/>
          </g>
        </g>
      </g>
    </g>
  </g>
</svg>
