<svg xmlns="http://www.w3.org/2000/svg" xmlns:xlink="http://www.w3.org/1999/xlink" width="357" height="188" viewBox="0 0 357 188">
  <defs>
    <clipPath id="clip-path">
      <rect id="Rectángulo_346108" data-name="Rectángulo 346108" width="315" height="160.811" fill="none"/>
    </clipPath>
  </defs>
  <g id="Grupo_1015584" data-name="Grupo 1015584" transform="translate(-328 -6430)">
    <rect id="Rectángulo_346110" data-name="Rectángulo 346110" width="357" height="54" rx="27" transform="translate(328 6564)" fill="#a3bfe4"/>
    <g id="Grupo_1015583" data-name="Grupo 1015583" transform="translate(344 6430)">
      <g id="Grupo_1015582" data-name="Grupo 1015582" clip-path="url(#clip-path)">
        <path id="Trazado_605980" data-name="Trazado 605980" d="M329.035,90.876V83.932L322.944,81.3l-2.631-6.164,2.826-6.245-4.781-4.954-6.193,2.676-6.183-2.322-2.606-6.357h-7L293.8,64.3l-6.171,2.434-6.364-2.755L276.426,68.8l2.686,6.212-2.686,6.109-6.838,2.77v6.874l6.457,2.5,3.068,6.219-2.713,6.457,2.984,2.94,2.791-1.044,1.083,2.24,4.266-1.958,6.307,2.822,2.587,6.471h6.845l2.4-6.448,6.26-2.845,6.489,2.925,4.785-5.2L320.588,99.4l2.484-6.056ZM299.847,98.5a11.1,11.1,0,1,1,11.1-11.1,11.1,11.1,0,0,1-11.1,11.1" transform="translate(-14.035 -3.016)" fill="#a3bfe4"/>
        <path id="Trazado_605981" data-name="Trazado 605981" d="M302.837,95.448H231.71L230.769,106v37.629a5.521,5.521,0,0,1-5.409,4.816H208.883a5.461,5.461,0,0,0,5.439,5.274h88.515a5.464,5.464,0,0,0,5.448-5.448V100.9a5.464,5.464,0,0,0-5.448-5.448" transform="translate(-10.875 -4.969)" fill="#1a1a1a"/>
        <path id="Trazado_605982" data-name="Trazado 605982" d="M255.239,90.6a39.883,39.883,0,0,1-12,.063c-5.471-1.042-7.8-3.6-8.776-6.825s-1.927-6.357-1.635-10.131.466-4.924.466-4.924-2.182,1.168-7.046.186-6.6-2.245-6.6-2.245a60.767,60.767,0,0,0-.392,10.15c.281,5.277,1.862,16.235,5.845,21.309s7.11,9.288,19.139,8.9c0,0-1.344,16.3-1.583,25.936s0,19.209,0,19.209h48.965s.326-8.294,0-16.414c-.386-9.678-.818-19.656-1.807-26.065-.883-5.717-1.674-10.11-7.88-14.366a27.955,27.955,0,0,0-13.374-4.491Z" transform="translate(-11.411 -3.474)" fill="#fff198"/>
        <path id="Trazado_605983" data-name="Trazado 605983" d="M222.738,24.81V5.275s-8.719-.228-14.165,6.085a22.161,22.161,0,0,0-5.37,13.45Z" transform="translate(-10.579 -0.275)" fill="#afafaf"/>
        <path id="Trazado_605984" data-name="Trazado 605984" d="M258.823,87.328l.118,1.2L257.2,91.145l.046,9.978c.277-.282-1.47,22.41-1.581,25.616l8.672-25.23.716,1.177,5.405-11.541-2.613-2.76-.485-6.415s2.5.849,3.37-.924.136-3.853-1.366-4.168a4.224,4.224,0,0,0-3.009.872s-3.128-3.758-3.338-6.139c0,0-2.973,3.639-7.311,2.166,0,0-.192,7.206-.083,8.679s-.107,4.5,3.206,4.871" transform="translate(-13.306 -3.728)" fill="#fff"/>
        <path id="Trazado_605985" data-name="Trazado 605985" d="M231.1,68.491s-.128-4.638-.089-5.585a2.336,2.336,0,0,1,1.661-2.173c1.045-.323,3.716-1.695,3.614-2.73a1.71,1.71,0,0,0-1.939-1.7,14.645,14.645,0,0,0-4.269,1.443,17.856,17.856,0,0,1-2.6,1.128,75.6,75.6,0,0,0-5.213-5.65c-1.906-1.705-3.458-1.741-3.929-1.021,0,0-1.664-.54-2.229.491a2.731,2.731,0,0,0-2.177.1c-.883.589-.555,2.225,1.217,4.733s4.725,4.047,5.1,4.6,1.4,3.245.844,4.535c0,0,.329.8,3.859,1.34a40.347,40.347,0,0,0,6.16.488" transform="translate(-11.113 -2.695)" fill="#fff"/>
        <path id="Trazado_605986" data-name="Trazado 605986" d="M221.267,65.634s-1.32.28-1.505.792,1.505,1.1,1.505,1.1Z" transform="translate(-11.44 -3.417)" fill="#1a1a1a"/>
        <path id="Trazado_605987" data-name="Trazado 605987" d="M231.938,67.465l.141,1.953s2.117-.009,1.868-.758-2.01-1.194-2.01-1.194" transform="translate(-12.075 -3.512)" fill="#1a1a1a"/>
        <path id="Trazado_605988" data-name="Trazado 605988" d="M177.239,70.316a1.724,1.724,0,1,1-1.724-1.724,1.724,1.724,0,0,1,1.724,1.724" transform="translate(-9.048 -3.571)" fill="#fff"/>
        <path id="Trazado_605989" data-name="Trazado 605989" d="M260.978,97.32l-2.615,3.541.344,3.039-1.714,3.7-1.329,20.479,6.195-18.268-.445-5.585,2.027-2.851Z" transform="translate(-13.31 -5.067)" fill="#1a1a1a"/>
        <path id="Trazado_605990" data-name="Trazado 605990" d="M270.32,77.1s2.08-2.706,1.169-5.328-2.52-4.085-6.608-3.246c0,0-2.109-2.4-4.755-2.1s-5.672,1.394-6.276,4.341a6.637,6.637,0,0,0,1.6,5.325l.151-2.583s5.259,1.1,7.128-2.293c.183.127,2.123,5.671,3.522,6.267a2.873,2.873,0,0,1,4.066-.378" transform="translate(-13.21 -3.457)" fill="#1a1a1a"/>
        <rect id="Rectángulo_346088" data-name="Rectángulo 346088" width="8.967" height="8.967" transform="translate(185.67 65.565)" fill="#1a1a1a"/>
        <rect id="Rectángulo_346089" data-name="Rectángulo 346089" width="6.389" height="6.388" transform="translate(200.088 81.463)" fill="#ffce26"/>
        <path id="Trazado_605991" data-name="Trazado 605991" d="M228.256,10.811V30.346H208.721a19.535,19.535,0,1,0,19.535-19.535" transform="translate(-10.866 -0.563)" fill="#1a1a1a"/>
        <path id="Trazado_605992" data-name="Trazado 605992" d="M261.672,98.389l-2.075,2.673.448,3.067L256.53,115l.508-7.4,1.714-3.7-.191-3.228,2.463-3.352Z" transform="translate(-13.355 -5.067)" fill="#fff"/>
        <path id="Trazado_605993" data-name="Trazado 605993" d="M261.245,66.706c.233-.034.449-.068.653-.1a4.394,4.394,0,0,0-1.772-.18c-2.645.3-5.673,1.4-6.277,4.341a6.637,6.637,0,0,0,1.6,5.325l.151-2.582s.293.061.762.11c.018-.11-2.176-5.891,4.878-6.91" transform="translate(-13.21 -3.457)" fill="#fff"/>
        <path id="Trazado_605994" data-name="Trazado 605994" d="M263.411,71.351s2.656,5.131,4.726,5.368l-1.466,1.128a45.806,45.806,0,0,1-3.261-6.5" transform="translate(-13.714 -3.715)" fill="#fff"/>
        <path id="Trazado_605995" data-name="Trazado 605995" d="M316.63,109.714c-.1-.022-1.6-.735-1.6-.735-1.163-.552-2.3-1.095-3.451-1.618a10.484,10.484,0,0,1,3.646,1.208l1.358.644,1.03-1.04c1.2-1.2,2.432-2.451,3.61-3.7a1,1,0,0,0,.051-.791c-.418-.932-.865-1.87-1.3-2.777-.4-.837-.8-1.673-1.179-2.518a1.863,1.863,0,0,1-.085-1.294c.661-1.906,1.3-3.6,1.947-5.181a2.1,2.1,0,0,1,1.036-1.054c1.883-.762,3.771-1.431,5.206-1.928a.7.7,0,0,0,.566-.819c-.039-2.106-.039-4.025,0-5.867.009-.5-.133-.7-.645-.875-1.522-.526-3.319-1.161-5.107-1.9a2.245,2.245,0,0,1-1.082-1.121c-.617-1.428-1.221-2.958-1.957-4.961a1.836,1.836,0,0,1,.007-1.276c.4-.895.824-1.78,1.246-2.667.445-.936.89-1.871,1.312-2.817a.95.95,0,0,0-.1-.774c-.785-.838-1.607-1.668-2.4-2.473-.612-.618-1.225-1.237-1.826-1.865a.613.613,0,0,0-.884-.139c-2,.992-3.682,1.789-5.289,2.508a1.971,1.971,0,0,1-1.373.061c-1.709-.614-3.413-1.282-5.064-1.98a2.112,2.112,0,0,1-1.075-1c-.6-1.5-1.193-3.106-1.913-5.208-.163-.483-.313-.663-.793-.663-1.924.047-3.848.048-5.924,0-.481-.032-.7.134-.87.649-.284.83-.587,1.652-.89,2.476-.321.876-.644,1.754-.943,2.637a1.743,1.743,0,0,1-1.234,1.188c-1.652.574-3.243,1.211-4.733,1.893a1.753,1.753,0,0,1-1.707-.017c-.883-.445-1.776-.872-2.669-1.3-.835-.4-1.668-.8-2.495-1.211a.675.675,0,0,0-.974.17c-1.5,1.564-2.855,2.921-4.149,4.147-.382.36-.367.592-.133,1.062.755,1.529,1.636,3.343,2.453,5.206a2.008,2.008,0,0,1-.033,1.451c-.711,1.664-1.484,3.323-2.289,4.933a2.34,2.34,0,0,1-1.108,1.088c-.219.083-.441.167-.663.248.064-.507.283-.591.5-.673a1.856,1.856,0,0,0,.864-.866c.8-1.6,1.569-3.254,2.279-4.909a1.545,1.545,0,0,0,.033-1.09c-.812-1.854-1.69-3.662-2.444-5.186a1.166,1.166,0,0,1,.227-1.594c1.289-1.22,2.641-2.572,4.137-4.13a1.1,1.1,0,0,1,1.5-.261c.827.411,1.657.81,2.489,1.207.895.428,1.792.857,2.678,1.3a1.316,1.316,0,0,0,1.314.009c1.5-.69,3.108-1.333,4.774-1.91a1.294,1.294,0,0,0,.952-.9c.3-.887.626-1.769.948-2.648.3-.82.6-1.64.885-2.467a1.224,1.224,0,0,1,1.31-.957c2.071.045,3.985.047,5.848,0a1.189,1.189,0,0,1,1.291.969c.715,2.093,1.3,3.693,1.9,5.185a1.663,1.663,0,0,0,.832.756c1.641.695,3.338,1.358,5.04,1.971a1.53,1.53,0,0,0,1.033-.048c1.6-.718,3.278-1.512,5.272-2.5a1.057,1.057,0,0,1,1.414.232c.6.626,1.21,1.243,1.821,1.86.8.806,1.621,1.639,2.41,2.481a1.358,1.358,0,0,1,.18,1.271c-.424.95-.869,1.887-1.318,2.827-.42.883-.838,1.766-1.241,2.658a1.385,1.385,0,0,0,.007.932c.734,2,1.334,3.518,1.948,4.938a1.806,1.806,0,0,0,.836.881c1.777.731,3.567,1.364,5.083,1.887a1.19,1.19,0,0,1,.951,1.314c-.039,1.836-.039,3.749,0,5.848a1.14,1.14,0,0,1-.872,1.258c-1.43.495-3.309,1.161-5.182,1.919a1.619,1.619,0,0,0-.787.807c-.646,1.572-1.281,3.259-1.941,5.159a1.438,1.438,0,0,0,.072.957c.381.842.777,1.675,1.176,2.508.434.91.883,1.851,1.3,2.789a1.381,1.381,0,0,1-.136,1.287c-1.18,1.255-2.419,2.5-3.617,3.71l-1.141,1.155a.233.233,0,0,1-.162.067M289.442,93.467a11.053,11.053,0,0,1-3.551-8.316,11.534,11.534,0,0,1,3.387-8.225,11.663,11.663,0,0,1,19.894,8.254,11.186,11.186,0,0,1-3.4,8.223,13.422,13.422,0,0,0,2.945-8.223,11.186,11.186,0,1,0-22.372-.028,10.813,10.813,0,0,0,3.254,7.927c-.04.367-.1.39-.158.39" transform="translate(-14.169 -2.845)" fill="#1a1a1a"/>
        <path id="Trazado_605996" data-name="Trazado 605996" d="M231.607,69.064c-.293-.838-.855-6.431.2-7.382A9.328,9.328,0,0,1,234.4,60.1c.289-.133.57-.259.84-.4.963-.515,1.439-1.183,1.3-1.833a1.542,1.542,0,0,0-1.454-1.084c-1.565-.136-4.1,1.229-5.956,2.22-1.766.942-5.933-.548-6.108-.612,1.3-.01,4.547.933,5.716.306,2.187-1.168,4.68-2.506,6.383-2.366a1.989,1.989,0,0,1,1.862,1.446c.084.407.105,1.449-1.536,2.324-.277.147-.566.279-.864.415a8.765,8.765,0,0,0-2.476,1.511c-.668.6-.526,4.485-.282,6.791-.21.251-.216.252-.225.252" transform="translate(-11.611 -2.932)" fill="#1a1a1a"/>
        <path id="Trazado_605997" data-name="Trazado 605997" d="M221.052,67.059c-.22-.295.246-4.143-1.387-5.069s-6.62-5.161-6.391-8.325a1.425,1.425,0,0,1,.786-1.212,2.11,2.11,0,0,1,2.051.247,55.334,55.334,0,0,1,4.8,4.588c.644.115,4.869.966,6.243,3.727-1.76-2.518-6.346-3.286-6.392-3.292-.165-.106-3.815-3.931-4.9-4.644a1.662,1.662,0,0,0-1.6-.219.969.969,0,0,0-.536.838c-.2,2.754,4.285,6.836,6.163,7.9,1.9,1.075,1.41,5.1,1.388,5.266a.228.228,0,0,1-.225.2" transform="translate(-11.103 -2.722)" fill="#1a1a1a"/>
        <path id="Trazado_605998" data-name="Trazado 605998" d="M224.852,58.78c-2.431-2.577-6.112-6.357-6.982-6.51a1.368,1.368,0,0,0-1.52.694c-.211-.611.458-1.341,1.6-1.141,1.3.229,6.484,5.929,7.071,6.579-.061.359-.115.379-.169.379" transform="translate(-11.262 -2.696)" fill="#1a1a1a"/>
        <path id="Trazado_605999" data-name="Trazado 605999" d="M227.743,59.09c-.2-.105-2.369-2.654-2.88-3.155-.256-.251-.553-.569-.877-.916-1.065-1.138-2.388-2.554-3.468-2.93-1.289-.448-1.721.216-1.725.223-.361-.28.246-1.218,1.875-.65,1.185.411,2.552,1.873,3.649,3.047.319.342.612.656.864.9.526.516,2.645,3,2.736,3.105-.069.356-.121.374-.173.374" transform="translate(-11.385 -2.68)" fill="#1a1a1a"/>
        <path id="Trazado_606000" data-name="Trazado 606000" d="M226.218,28.821H206.684c0-.453,19.308-.453,19.308-.453V9.059c.453,0,.453,19.535.453,19.535a.227.227,0,0,1-.227.227" transform="translate(-10.76 -0.472)" fill="#1a1a1a"/>
        <path id="Trazado_606001" data-name="Trazado 606001" d="M226.206,48.342a19.763,19.763,0,1,1,13.327-5.17,21.707,21.707,0,0,0,5.981-14.592,19.308,19.308,0,1,0-19.309,19.308,19.529,19.529,0,0,0,3.329-.286,6.1,6.1,0,0,1-3.329.74" transform="translate(-10.748 -0.459)" fill="#1a1a1a"/>
        <path id="Trazado_606002" data-name="Trazado 606002" d="M175.445,72.255A1.951,1.951,0,1,1,177.4,70.3a1.954,1.954,0,0,1-1.952,1.951m0-3.449a1.5,1.5,0,1,0,1.5,1.5,1.5,1.5,0,0,0-1.5-1.5" transform="translate(-9.032 -3.559)" fill="#1a1a1a"/>
        <path id="Trazado_606003" data-name="Trazado 606003" d="M171.382,17.317a5.494,5.494,0,0,1,2.316-1.47,5.953,5.953,0,0,1-2.222,1.449.218.218,0,0,1-.094.021m32.961-1.063c-.868-.354-1.683-.667-2.514-.953a4.694,4.694,0,0,1,2.6.518c.081.384,0,.435-.09.435m-28.107-.865a5.239,5.239,0,0,1,2.444-1.2,5.982,5.982,0,0,1-2.373,1.183.184.184,0,0,1-.071.012m23.167-.835c-.885-.228-1.737-.425-2.589-.592a4.733,4.733,0,0,1,2.648.145c.134.38.042.446-.059.446m-18.121-.51a4.97,4.97,0,0,1,2.545-.887,6.1,6.1,0,0,1-2.5.883.353.353,0,0,1-.045,0m13-.493q-1.327-.166-2.613-.244a4.7,4.7,0,0,1,2.642-.209c.182.369.084.453-.028.453m-7.821-.212a4.792,4.792,0,0,1,2.609-.555,6.113,6.113,0,0,1-2.593.554h-.016" transform="translate(-8.922 -0.666)" fill="#1a1a1a"/>
        <path id="Trazado_606004" data-name="Trazado 606004" d="M153.561,59.048a7.442,7.442,0,0,1-.932-2.692,18.46,18.46,0,0,1,1.146,2.387c-.161.3-.187.305-.214.305m-1.216-5.081a11.239,11.239,0,0,1-.556-2.8,6.089,6.089,0,0,1,.779,2.535c-.2.263-.211.264-.223.264m-.485-5.2a2.579,2.579,0,0,1-.24-1.19c0-.541.011-1.1.036-1.659a2.47,2.47,0,0,1,.419,1.659q0,.485.011.956c-.223.233-.225.233-.227.233m.236-5.217a8.875,8.875,0,0,1,.185-2.851,6.224,6.224,0,0,1,.041,2.652.227.227,0,0,1-.226.2m1.015-5.121c-.182-.043-.251-.169-.218-.288.239-.844.515-1.684.82-2.5a6.325,6.325,0,0,1-.383,2.624.228.228,0,0,1-.219.165m1.834-4.886a7.072,7.072,0,0,1,1.023-2.65,6.414,6.414,0,0,1-.817,2.522.228.228,0,0,1-.206.129m2.63-4.507a6.532,6.532,0,0,1,1.412-2.447,6.344,6.344,0,0,1-1.227,2.35.225.225,0,0,1-.186.1m3.335-4.015a4.9,4.9,0,0,1,1.445-1.855l.346-.293a.444.444,0,0,1-.054.64c-.435.365-.884.742-1.3,1.158-.32.326-.38.35-.439.35" transform="translate(-7.894 -1.191)" fill="#1a1a1a"/>
        <path id="Trazado_606005" data-name="Trazado 606005" d="M167.148,23.829a3.738,3.738,0,0,1-.447-.026,3.727,3.727,0,1,1,.447.026m-.013-6.967a3.285,3.285,0,1,0,.393.025,3.045,3.045,0,0,0-.393-.025" transform="translate(-8.508 -0.854)" fill="#1a1a1a"/>
        <path id="Trazado_606006" data-name="Trazado 606006" d="M250.447,21.456a5.34,5.34,0,0,1,2.223-1.638,6.384,6.384,0,0,1-2.11,1.608.229.229,0,0,1-.113.03m4.722-2.239a5.232,5.232,0,0,1,2.4-1.311,6.122,6.122,0,0,1-2.315,1.295.232.232,0,0,1-.082.016m28.155-.368c-.906-.291-1.742-.544-2.558-.766a4.744,4.744,0,0,1,2.63.324c.111.382.024.442-.072.442m-23.171-1.2a5.069,5.069,0,0,1,2.521-.981,6.027,6.027,0,0,1-2.467.974.218.218,0,0,1-.054.008m18.134-.177c-.9-.186-1.759-.342-2.6-.469a4.745,4.745,0,0,1,2.651.021c.154.375.06.448-.046.448M265.3,16.761a4.82,4.82,0,0,1,2.6-.644,6.11,6.11,0,0,1-2.572.642l-.024,0m7.825-.064c-.882-.076-1.755-.125-2.614-.146a4.723,4.723,0,0,1,2.634-.306c.194.363.1.452-.02.452" transform="translate(-13.039 -0.839)" fill="#1a1a1a"/>
        <path id="Trazado_606007" data-name="Trazado 606007" d="M306.828,58.322c-.219-.291.009-1.243.2-2.832a7.347,7.347,0,0,1,.019,2.658.227.227,0,0,1-.22.174m.645-5.183a8.481,8.481,0,0,1-.18-2.14c0-.227,0-.459-.008-.694.46.228.462.464.462.695,0,.653-.017,1.3-.047,1.923a.228.228,0,0,1-.227.216m-.095-5.222a21.851,21.851,0,0,1-.538-2.786,4.683,4.683,0,0,1,.763,2.54c-.212.246-.219.246-.226.246m-.814-5.159c-.418-1.022-.649-1.864-.908-2.677a4.6,4.6,0,0,1,1.129,2.4c-.188.276-.2.278-.221.278m-1.577-4.975c-.538-.946-.9-1.74-1.286-2.5a4.572,4.572,0,0,1,1.5,2.186c-.153.308-.182.314-.21.314m-2.365-4.652c-.65-.847-1.14-1.568-1.652-2.25a4.532,4.532,0,0,1,1.846,1.9c-.111.336-.153.347-.193.347m-3.113-4.187c-.732-.712-1.336-1.343-1.965-1.948a4.648,4.648,0,0,1,2.135,1.571c-.063.359-.117.377-.17.377m-3.76-3.62c-.913-.671-1.4-1-1.879-1.315l-.367-.246a.437.437,0,0,1,.619-.132c.482.321.982.654,1.459,1.036.3.628.233.656.168.656" transform="translate(-15.28 -1.226)" fill="#1a1a1a"/>
        <path id="Trazado_606008" data-name="Trazado 606008" d="M289.264,24.8a3.71,3.71,0,1,1,3.16-1.754,3.685,3.685,0,0,1-3.16,1.754m.013-6.966a3.258,3.258,0,1,0,1.709.489,3.253,3.253,0,0,0-1.709-.489" transform="translate(-14.867 -0.905)" fill="#1a1a1a"/>
        <path id="Trazado_606009" data-name="Trazado 606009" d="M249.4,91.49c-5.382,0-10.649-1.2-12.943-4.627a17.852,17.852,0,0,1-2.514-6.353,31.885,31.885,0,0,1-.138-11.655,45.784,45.784,0,0,0,.582,11.56,17.437,17.437,0,0,0,2.447,6.195c2.977,4.446,11.879,5.126,19.39,3.829A18.776,18.776,0,0,1,249.4,91.49" transform="translate(-12.148 -3.585)" fill="#1a1a1a"/>
        <path id="Trazado_606010" data-name="Trazado 606010" d="M241.674,107.409c-8.24,0-12.465-3.762-14.985-6.72-9.181-10.784-7.891-28.939-7.277-34.247-.157,5.314-1.439,23.309,7.623,33.953,2.7,3.174,7.415,7.3,17.17,6.446a4.493,4.493,0,0,1-2.531.568" transform="translate(-11.4 -3.459)" fill="#1a1a1a"/>
        <path id="Trazado_606011" data-name="Trazado 606011" d="M230.819,69.558a30.37,30.37,0,0,1-4.6-.431c-2.436-.41-6.99-1.513-6.783-2.746.074-.435.887-.9,1.979-.9a3.881,3.881,0,0,0-1.533.98c-.063.373,2.143,1.5,6.413,2.219s6.72.376,6.785,0c.009-.047.024-.475-1.82-1.114,1.671.1,2.364.628,2.267,1.19-.1.6-1.265.8-2.711.8" transform="translate(-11.424 -3.409)" fill="#1a1a1a"/>
        <path id="Trazado_606012" data-name="Trazado 606012" d="M300.717,169.618H119.544c0-.453,181.173-.453,181.173-.453.228.352.126.453,0,.453" transform="translate(-6.224 -8.807)" fill="#1a1a1a"/>
        <path id="Trazado_606013" data-name="Trazado 606013" d="M262.794,77.187c-.181-.027-.3.051-.35.7-.052.729.136.856.3.848s.325-.234.313-.754-.026-.763-.264-.8" transform="translate(-13.663 -4.018)" fill="#1a1a1a"/>
        <path id="Trazado_606014" data-name="Trazado 606014" d="M257.2,77.29c-.183-.023-.3.059-.332.713-.033.73.159.852.323.84s.319-.242.294-.761-.047-.762-.285-.792" transform="translate(-13.373 -4.024)" fill="#1a1a1a"/>
        <path id="Trazado_606015" data-name="Trazado 606015" d="M268.365,89.3c-.227-.214-.6-6.748-.6-6.748.454-.027.831,6.507.831,6.507a2.06,2.06,0,0,1-.228.242" transform="translate(-13.94 -4.298)" fill="#1a1a1a"/>
        <path id="Trazado_606016" data-name="Trazado 606016" d="M259.42,87.692a3.438,3.438,0,0,1-3.175-1.317,7.69,7.69,0,0,1-.841-4.215c0-.309-.007-.611-.019-.9-.036-.956.072-7.1.077-7.365.452.072.341,6.4.378,7.348.011.3.015.6.017.915a7.254,7.254,0,0,0,.765,3.968c.781,1.173,2.15,1.138,3.47,1.1.17,0,.337-.009.5-.011a13.183,13.183,0,0,0,2.873-.305,4.244,4.244,0,0,1-2.867.759c-.165,0-.33.006-.5.011-.224.006-.455.011-.684.011" transform="translate(-13.295 -3.847)" fill="#1a1a1a"/>
        <path id="Trazado_606017" data-name="Trazado 606017" d="M269.054,82.714a2.96,2.96,0,0,1-1.789-.6,3.682,3.682,0,0,0,3.4-.437,2.514,2.514,0,0,0-1.383-4.434,2.455,2.455,0,0,0-1.836.573,2.508,2.508,0,0,0-.745,1.054,1.149,1.149,0,0,1,.456-1.4,2.966,2.966,0,0,1,4.179.379,2.974,2.974,0,0,1-2.281,4.871" transform="translate(-13.88 -3.997)" fill="#1a1a1a"/>
        <path id="Trazado_606018" data-name="Trazado 606018" d="M255.765,76.356c-.2-.33.346-1.467,1.953-1.062a2.042,2.042,0,0,0-1.748.932.227.227,0,0,1-.2.13" transform="translate(-13.313 -3.915)" fill="#1a1a1a"/>
        <path id="Trazado_606019" data-name="Trazado 606019" d="M263.892,76.422c-1.243-1.428-2.292-.784-2.335-.756-.231-.39,1.187-1.283,2.513.387-.081.353-.13.369-.178.369" transform="translate(-13.616 -3.909)" fill="#1a1a1a"/>
        <path id="Trazado_606020" data-name="Trazado 606020" d="M259.113,89.615c-.227-.225-.236-1.411-.236-1.411.455,0,.464,1.182.464,1.182-.226.228-.228.228-.228.228" transform="translate(-13.478 -4.592)" fill="#1a1a1a"/>
        <path id="Trazado_606021" data-name="Trazado 606021" d="M270.932,77.42a7.514,7.514,0,0,0,.907-5.657,4.059,4.059,0,0,0-2.623-2.9,5.509,5.509,0,0,0-2.3-.2c-.467.047-1.377.085-1.414.087-.01-.454.913-.493,1.368-.54a6.092,6.092,0,0,1,2.488.221,4.5,4.5,0,0,1,2.919,3.21,6.306,6.306,0,0,1-1.079,5.595c-.144.161-.2.186-.265.186" transform="translate(-13.822 -3.549)" fill="#1a1a1a"/>
        <path id="Trazado_606022" data-name="Trazado 606022" d="M269.991,81.454c-.1-.023-2.235-1.062-2.235-1.062-.064-.362,1.857-2.354,1.857-2.354.326.315-1.377,2.082-1.377,2.082l1.855.9c.065.385-.015.431-.1.431" transform="translate(-13.94 -4.063)" fill="#1a1a1a"/>
        <path id="Trazado_606023" data-name="Trazado 606023" d="M264.327,70.134c-.178-.369.925-1.759.925-1.759.356.282-.747,1.674-.747,1.674a.229.229,0,0,1-.178.085" transform="translate(-13.76 -3.56)" fill="#1a1a1a"/>
        <path id="Trazado_606024" data-name="Trazado 606024" d="M266.353,77.963a16.763,16.763,0,0,1-3.469-6.039,7.4,7.4,0,0,1-7.232,2.061,7.659,7.659,0,0,0,7.138-2.648c.412.106,1.652,4.091,3.725,6.241-.048.364-.105.385-.163.385" transform="translate(-13.31 -3.714)" fill="#1a1a1a"/>
        <path id="Trazado_606025" data-name="Trazado 606025" d="M243.939,154.381c-.228-23.343.464-39.364,1.944-50.646-1.028,11.32-1.718,27.323-1.718,50.42a.227.227,0,0,1-.227.227" transform="translate(-12.698 -5.401)" fill="#1a1a1a"/>
        <path id="Trazado_606026" data-name="Trazado 606026" d="M265.242,104.027c-.193-.109-4.25-6.783-4.25-6.783l-3.531,4.978c-.412-.129-.482-10.069-.482-10.069.039-.127,1.848-2.843,1.848-2.843.406.067,2.291,7.063,2.291,7.063l6.629-7.228a23.745,23.745,0,0,1,2.942,2.758c.042.248-5.24,11.99-5.24,11.99a1.155,1.155,0,0,1-.207.134m-3.953-7.167,3.924,6.454L270.255,92.1l-2.339-2.472Zm-3.856-4.639.065,9.165,3.262-4.6-1.835-6.807Z" transform="translate(-13.379 -4.641)" fill="#1a1a1a"/>
        <path id="Trazado_606027" data-name="Trazado 606027" d="M255.652,129.152c-.186-.046-.254-.172-.217-.291,1.407-4.71,8.6-25.578,8.674-25.789.356.359-6.835,21.217-8.24,25.918a.225.225,0,0,1-.216.162" transform="translate(-13.298 -5.366)" fill="#1a1a1a"/>
        <path id="Trazado_606028" data-name="Trazado 606028" d="M254.939,154.307c-.227-11.831.451-25.3.458-25.434.083-5.732,1.841-26.352,1.86-26.56.434.247-1.323,20.851-1.406,26.575-.007.142-.685,13.6-.685,25.192a.227.227,0,0,1-.227.227" transform="translate(-13.27 -5.327)" fill="#1a1a1a"/>
        <path id="Trazado_606029" data-name="Trazado 606029" d="M261.54,104.663l-2.607-.228a24.56,24.56,0,0,1-.5-3.558c.451-.041.73,3.122.73,3.122l2.267.2,1.968-2.772c.37.262-1.674,3.14-1.674,3.14a.224.224,0,0,1-.185.1" transform="translate(-13.454 -5.252)" fill="#1a1a1a"/>
        <path id="Trazado_606030" data-name="Trazado 606030" d="M262.161,110.419a56.412,56.412,0,0,1-.688-5.767c.451-.037.913,5.522.913,5.522-.213.246-.218.246-.225.246" transform="translate(-13.613 -5.448)" fill="#1a1a1a"/>
        <path id="Trazado_606031" data-name="Trazado 606031" d="M257.142,108.174c-.2-.327,1.539-3.887,1.539-3.887.407.2-1.336,3.76-1.336,3.76a.227.227,0,0,1-.2.127" transform="translate(-13.386 -5.429)" fill="#1a1a1a"/>
        <path id="Trazado_606032" data-name="Trazado 606032" d="M260.837,84.694a2.5,2.5,0,0,1-.8-.148c.651-.256,1.066-.266,1.388-.46a1.706,1.706,0,0,0,.671-1.071c.442.111.287,1.026-.436,1.46a1.567,1.567,0,0,1-.819.219" transform="translate(-13.538 -4.322)" fill="#1a1a1a"/>
        <path id="Trazado_606033" data-name="Trazado 606033" d="M259.359,82.252a2.68,2.68,0,0,1-1.815-.5.813.813,0,0,1-.194-.711c.2-1.134,1.236-4.561,1.28-4.707.424.167-.639,3.679-.832,4.786.428.7,1.579.7,1.959.667-.011.457-.177.469-.4.469" transform="translate(-13.397 -3.974)" fill="#1a1a1a"/>
        <path id="Trazado_606034" data-name="Trazado 606034" d="M255.449,76.3c-.22-.141-3.7-4.966-.418-7.978,3.075-2.826,7.019-2.852,9.815-.072a7.058,7.058,0,0,0-9.509.407c-2.977,2.737.261,7.237.295,7.281-.089.348-.136.362-.183.362" transform="translate(-13.204 -3.446)" fill="#1a1a1a"/>
        <path id="Trazado_606035" data-name="Trazado 606035" d="M302.824,153.933H214.28a5.994,5.994,0,0,1-5.643-5.42c.745,2.717,3.073,4.966,5.643,4.966h88.544a5.226,5.226,0,0,0,5.22-5.221V100.8a5.225,5.225,0,0,0-5.22-5.22H278.931c0-.454,23.893-.454,23.893-.454A5.681,5.681,0,0,1,308.5,100.8v47.461a5.682,5.682,0,0,1-5.675,5.675" transform="translate(-10.862 -4.952)" fill="#1a1a1a"/>
        <path id="Trazado_606036" data-name="Trazado 606036" d="M221.049,147.045H132.5a5.681,5.681,0,0,1-5.674-5.674V68.713a5.68,5.68,0,0,1,5.674-5.674h83.59c0,.454-83.59.454-83.59.454a5.226,5.226,0,0,0-5.22,5.22v72.658a5.226,5.226,0,0,0,5.22,5.22h88.545a5.227,5.227,0,0,0,5.221-5.22V104.4c.454,0,.454,36.975.454,36.975a5.681,5.681,0,0,1-5.675,5.674" transform="translate(-6.603 -3.282)" fill="#1a1a1a"/>
        <path id="Trazado_606037" data-name="Trazado 606037" d="M294.5,153.79c-.224-.566,0-34.095-3.059-47.169-3.023-12.933-20.018-14.157-20.189-14.167.2-.442,17.531.8,20.629,14.065,3.07,13.126,2.849,46.709,2.846,47.047a.227.227,0,0,1-.227.225" transform="translate(-14.122 -4.81)" fill="#1a1a1a"/>
        <path id="Trazado_606038" data-name="Trazado 606038" d="M279.078,154.678c.092-20.061-1.672-44.994-1.69-45.244.471.218,2.236,25.171,1.917,45.02a.226.226,0,0,1-.227.224" transform="translate(-14.441 -5.697)" fill="#1a1a1a"/>
        <path id="Trazado_606039" data-name="Trazado 606039" d="M202.528,80.368h-8.966c-.227-.228-.227-9.194-.227-9.194.227-.227,9.193-.227,9.193-.227.227.227.227,9.193.227,9.193a.227.227,0,0,1-.227.228m-8.739-.454H202.3V71.4h-8.512Z" transform="translate(-10.065 -3.694)" fill="#1a1a1a"/>
        <path id="Trazado_606040" data-name="Trazado 606040" d="M214.692,90.065H208.3c-.227-.227-.227-6.615-.227-6.615.227-.228,6.615-.228,6.615-.228.228.228.228,6.616.228,6.616a.227.227,0,0,1-.228.227m-6.161-.454h5.934V83.677h-5.934Z" transform="translate(-10.833 -4.333)" fill="#1a1a1a"/>
        <path id="Trazado_606041" data-name="Trazado 606041" d="M129.93,60.65A38.282,38.282,0,1,1,91.648,22.368,38.283,38.283,0,0,1,129.93,60.65" transform="translate(-2.778 -1.165)" fill="#fff"/>
        <path id="Trazado_606042" data-name="Trazado 606042" d="M60.122,160.489H65.7l-4.031-33.446-3.105-1.059a126,126,0,0,0,.009,17.782c.739,8.246,1.65,17.156,1.65,17.156Z" transform="translate(-3.032 -6.559)" fill="#fff"/>
        <rect id="Rectángulo_346090" data-name="Rectángulo 346090" width="75.755" height="143.62" transform="translate(91.844 15.36)" fill="#1a1a1a"/>
        <rect id="Rectángulo_346091" data-name="Rectángulo 346091" width="65.858" height="122.484" transform="translate(96.073 21.663)" fill="#fff"/>
        <rect id="Rectángulo_346092" data-name="Rectángulo 346092" width="57.769" height="20.209" transform="translate(98.764 80.084)" fill="#ffce26"/>
        <path id="Trazado_606043" data-name="Trazado 606043" d="M185.307,19.867A19.569,19.569,0,1,1,165.737.3a19.569,19.569,0,0,1,19.57,19.569" transform="translate(-7.61 -0.016)" fill="#fff"/>
        <path id="Trazado_606044" data-name="Trazado 606044" d="M120.567,89.333h3.842a3.089,3.089,0,0,1,2.24.759,1.932,1.932,0,0,1,.576,1.444A2.04,2.04,0,0,1,126,93.446a2.108,2.108,0,0,1,1.7,2.105c0,1.53-1.261,2.35-3.169,2.35h-3.966Zm3.537,3.611c.968,0,1.615-.379,1.615-1.188,0-.673-.538-1.089-1.5-1.089h-2.167v2.277Zm.442,3.623c1.029,0,1.651-.4,1.651-1.2,0-.722-.575-1.151-1.762-1.151h-2.387v2.35Z" transform="translate(-6.277 -4.651)" fill="#fff"/>
        <path id="Trazado_606045" data-name="Trazado 606045" d="M131.034,94.266V89.334h1.507V94.2c0,1.592.819,2.449,2.165,2.449s2.155-.808,2.155-2.387V89.334h1.506v4.858c0,2.559-1.445,3.844-3.686,3.844s-3.648-1.284-3.648-3.77" transform="translate(-6.822 -4.651)" fill="#fff"/>
        <path id="Trazado_606046" data-name="Trazado 606046" d="M144.713,94.524l-3.4-5.19h1.775l2.4,3.795,2.424-3.795h1.725l-3.4,5.153V97.9h-1.517Z" transform="translate(-7.357 -4.651)" fill="#fff"/>
        <path id="Trazado_606047" data-name="Trazado 606047" d="M52.059,53.29s.526,5.073-9.262,9.7c-.262.129-1.156-1.02-3.026-.555s-2.336,3.33-1.786,4.933,2.228,4.02,5.074,2.691a26.943,26.943,0,0,1,1.161,7.61,45.064,45.064,0,0,1-.446,4.838L48.8,84.216l1.493-5.6s5.858-1.575,6.429-5.46.064-4.226.064-4.226a41.3,41.3,0,0,0,3.411-2.87c.267-.435.337-.8,0-1.088s-5.085-3.86-5.085-3.86-1.339-6.578-3.053-7.818" transform="translate(-1.966 -2.774)" fill="#fff"/>
        <path id="Trazado_606048" data-name="Trazado 606048" d="M106.483,109.176a56.112,56.112,0,0,0,6.858-1.688c1.2-.592,1.163-.31,3.019-2.985,1.946-2.809,5.9-4.469,7.408-5.345s5.225-2.362,5.225-2.362,2.221,1.744,1.209,2.695c-.845.8-4.034,1.4-4.027,2.274s2.392,4.84,1.89,6.484-1.509,4.554-7.394,4.217l-11.335,5.154Z" transform="translate(-5.544 -5.039)" fill="#fff"/>
        <path id="Trazado_606049" data-name="Trazado 606049" d="M21.644,121.313s1.119,11.694.58,19.686-1.533,18.133-3.745,24.079h42.81s-2.191-19.8-2.463-25.655-.4-12.232.145-15.386c0,0,11.5,4.18,21.82,2.778s24.767-7.141,24.767-7.141l-4.052-11.854s-10.029,2.855-23.832-.528S60.13,96.543,57.741,95.3s-5.863-6.455-16.388-6.718a32.226,32.226,0,0,1-7.706,6.887c-4.815,3.06-5.706,10.092-6.377,12.677s.521,14.648-5.626,13.166" transform="translate(-0.962 -4.612)" fill="#33ece0"/>
        <path id="Trazado_606050" data-name="Trazado 606050" d="M10.457,119.6l2.842.085a8.046,8.046,0,0,1-1.12-3.37Z" transform="translate(-0.544 -6.056)" fill="#afafaf"/>
        <path id="Trazado_606051" data-name="Trazado 606051" d="M8.82,122.113S-.749,141.456.346,148.883c0,0-.285,4.644,6.248,6.034Z" transform="translate(-0.013 -6.357)" fill="#afafaf"/>
        <rect id="Rectángulo_346093" data-name="Rectángulo 346093" width="30.832" height="5.793" transform="translate(144.651 105.7)" fill="#fff"/>
        <rect id="Rectángulo_346094" data-name="Rectángulo 346094" width="11.262" height="11.263" transform="translate(140.466 119.661)" fill="#ffce26"/>
        <rect id="Rectángulo_346095" data-name="Rectángulo 346095" width="24.422" height="11.15" transform="translate(145.911 110.441)" fill="#fff"/>
        <rect id="Rectángulo_346096" data-name="Rectángulo 346096" width="44.935" height="6.88" transform="translate(136.925 121.562)" fill="#fff"/>
        <rect id="Rectángulo_346097" data-name="Rectángulo 346097" width="41.234" height="13.526" transform="translate(138.984 127.431)" fill="#fff"/>
        <rect id="Rectángulo_346098" data-name="Rectángulo 346098" width="55.575" height="6.975" transform="translate(133.406 140.958)" fill="#fff"/>
        <rect id="Rectángulo_346099" data-name="Rectángulo 346099" width="53.296" height="14.051" transform="translate(134.458 146.415)" fill="#fff"/>
        <path id="Trazado_606052" data-name="Trazado 606052" d="M137.52,156.6a3.582,3.582,0,1,1-3.582-3.582,3.583,3.583,0,0,1,3.582,3.582" transform="translate(-6.787 -7.966)" fill="#fff"/>
        <rect id="Rectángulo_346100" data-name="Rectángulo 346100" width="21.773" height="12.517" transform="translate(158.445 128.441)" fill="#ffce26"/>
        <rect id="Rectángulo_346101" data-name="Rectángulo 346101" width="24.213" height="6.912" transform="translate(157.582 121.562)" fill="#ffce26"/>
        <rect id="Rectángulo_346102" data-name="Rectángulo 346102" width="19.504" height="6.975" transform="translate(169.477 140.958)" fill="#afafaf"/>
        <rect id="Rectángulo_346103" data-name="Rectángulo 346103" width="19.531" height="12.534" transform="translate(168.222 147.932)" fill="#afafaf"/>
        <rect id="Rectángulo_346104" data-name="Rectángulo 346104" width="7.206" height="10.062" transform="translate(166.813 111.499)" fill="#afafaf"/>
        <rect id="Rectángulo_346105" data-name="Rectángulo 346105" width="7.052" height="5.793" transform="translate(168.431 105.7)" fill="#afafaf"/>
        <path id="Trazado_606053" data-name="Trazado 606053" d="M41.235,62.766s1.758-1.77,4.013-3.85,6.27-7.52,3.4-10.086S40.506,46.166,35,47.232c-5.382,1.041-9.422,2.966-11.116,4.53S22.017,59.025,22.5,61.67s1.931,9.473,2.235,13.651-.662,9.782-4.35,16.795-4.033,9.369-5.618,12.687-3.644,10.666.243,12.686c5.8,3.012,8.526,1.085,8.86-1.52s.742-12.89,2.645-16.106,1.836-4.829,7.965-8.824a14.083,14.083,0,0,0,6.4-11.7c.015-1.4.441-6.22-.715-9.273,0,0-2.956.181-3.689-4.391,0,0-.217-2.9,2.359-3.668a1.926,1.926,0,0,1,2.406.757" transform="translate(-0.665 -2.426)" fill="#1a1a1a"/>
        <path id="Trazado_606054" data-name="Trazado 606054" d="M181.967,20.061A16.034,16.034,0,1,1,165.933,4.026a16.033,16.033,0,0,1,16.033,16.035" transform="translate(-7.804 -0.21)" fill="#33ece0"/>
        <rect id="Rectángulo_346106" data-name="Rectángulo 346106" width="11.263" height="11.263" transform="translate(102.941 119.661)" fill="#a3bfe4"/>
        <rect id="Rectángulo_346107" data-name="Rectángulo 346107" width="11.263" height="11.263" transform="translate(118.184 114.851)" fill="#983333"/>
        <path id="Trazado_606055" data-name="Trazado 606055" d="M16.485,119.852l-9.907-.06L3.649,160.347H18.594Z" transform="translate(-0.19 -6.237)" fill="#fff"/>
        <path id="Trazado_606056" data-name="Trazado 606056" d="M92.936,33.735h-3.19v4.689S78.74,39.514,78.132,50.839c-.68,12.66,12.761,14.62,14.876,15.435V55.369s-5.648-.828-5.5-4.9,3.656-4.8,5.5-4.947Z" transform="translate(-4.066 -1.756)" fill="#a3bfe4"/>
        <path id="Trazado_606057" data-name="Trazado 606057" d="M92.971,92.61H89.778l.022-6.193s-7.121-.347-10.25-5.437c-3.013-4.9-3-7.106-3-7.106l8.106-2.053s.937,7.068,8.275,7.158Z" transform="translate(-3.985 -3.739)" fill="#a3bfe4"/>
        <path id="Trazado_606058" data-name="Trazado 606058" d="M41.439,71.175a3.3,3.3,0,0,1-1.452-.331,4.856,4.856,0,0,1-2.421-3.492c-.352-2.034.15-4.377,2.611-4.851a3.178,3.178,0,0,1,3.1,1.593.283.283,0,0,1-.489.284,2.6,2.6,0,0,0-2.508-1.321c-2.591.5-2.308,3.339-2.16,4.2a4.324,4.324,0,0,0,2.111,3.079,3.3,3.3,0,0,0,3.121-.271.283.283,0,0,1,.269.5,4.6,4.6,0,0,1-2.184.613" transform="translate(-1.95 -3.251)" fill="#1a1a1a"/>
        <path id="Trazado_606059" data-name="Trazado 606059" d="M40.863,69.312c-.319-.237-.295-.413-.17-.507l2-1.514-2.911-2.3a.283.283,0,0,1,.352-.444l3.2,2.528c-.006.447-2.3,2.18-2.3,2.18a.281.281,0,0,1-.17.057" transform="translate(-2.066 -3.357)" fill="#1a1a1a"/>
        <path id="Trazado_606060" data-name="Trazado 606060" d="M52.272,63.647a.394.394,0,0,0,.373-.413l-.057-1.106a.393.393,0,1,0-.786.041l.056,1.105a.4.4,0,0,0,.413.373" transform="translate(-2.697 -3.215)" fill="#1a1a1a"/>
        <path id="Trazado_606061" data-name="Trazado 606061" d="M49.545,85.912a.292.292,0,0,1-.277-.339l1.2-5.84a.281.281,0,0,1,.334-.221.284.284,0,0,1,.221.335l-1.206,5.841a.282.282,0,0,1-.277.225" transform="translate(-2.565 -4.139)" fill="#1a1a1a"/>
        <path id="Trazado_606062" data-name="Trazado 606062" d="M49.39,78.871a.282.282,0,0,1-.035-.562c3.3-.412,5.615-1.592,6.881-3.5a7.77,7.77,0,0,0,.869-5.823c2.1-1.679,3.778-3.207,3.707-3.582a13.031,13.031,0,0,0-2.427-1.867c-1.818-1.242-2.939-2.03-3.058-2.586-1.213-5.7-2.809-7.612-2.824-7.632a.282.282,0,0,1,.428-.368c.069.079,1.7,2.014,2.949,7.882.078.362,1.73,1.489,2.824,2.236a9.583,9.583,0,0,1,2.627,2.112c.383.869-2.037,2.738-3.632,3.85a8.166,8.166,0,0,1-.992,6.09c-1.362,2.057-3.812,3.32-7.282,3.753l-.035,0" transform="translate(-2.557 -2.751)" fill="#1a1a1a"/>
        <path id="Trazado_606063" data-name="Trazado 606063" d="M52,90.729c-.248-.148-2.633-4.542-2.633-4.542L44,84.359a.283.283,0,1,1,.183-.536l5.471,1.865c.157.134,2.595,4.624,2.595,4.624a.282.282,0,0,1-.248.417" transform="translate(-2.281 -4.363)" fill="#1a1a1a"/>
        <path id="Trazado_606064" data-name="Trazado 606064" d="M63.475,167.291a.282.282,0,0,1-.281-.248c-.643-5.292-3.774-32.143-2.376-41.141a.277.277,0,0,1,.322-.237.283.283,0,0,1,.236.322c-1.387,8.925,1.738,35.709,2.378,40.987a.283.283,0,0,1-.246.315l-.034,0" transform="translate(-3.148 -6.542)" fill="#1a1a1a"/>
        <path id="Trazado_606065" data-name="Trazado 606065" d="M18.464,167.144c-.236-.064-.317-.224-.268-.372,2.034-6.129,5.143-19.946,3.1-43.617a.283.283,0,0,1,.256-.306.276.276,0,0,1,.307.258c2.052,23.772-1.077,37.672-3.125,43.843a.28.28,0,0,1-.268.193" transform="translate(-0.947 -6.396)" fill="#1a1a1a"/>
        <path id="Trazado_606066" data-name="Trazado 606066" d="M76.853,127.283A46.287,46.287,0,0,1,55.909,122.5a43.487,43.487,0,0,1-16.178-13.774.283.283,0,0,1,.088-.39.286.286,0,0,1,.391.089A42.884,42.884,0,0,0,56.19,122c9.864,4.941,26.561,8.487,50.125-2.595l-3.728-11.032c-2.692.466-26.757,4.14-40.933-10.107-8.829-8.875-15.673-9.224-18.963-9.392l-.457-.025a.284.284,0,0,1-.266-.3.3.3,0,0,1,.3-.265l.453.025c3.359.172,10.351.528,19.332,9.557,14.739,14.812,40.413,9.955,40.668,9.907a.288.288,0,0,1,.323.187l3.886,11.5a.282.282,0,0,1-.145.347c-11.618,5.5-21.595,7.474-29.931,7.474" transform="translate(-2.066 -4.596)" fill="#1a1a1a"/>
        <path id="Trazado_606067" data-name="Trazado 606067" d="M50.394,61.332c-.312-.2-.31-.374-.2-.484a7.114,7.114,0,0,1,2.5-1.517.277.277,0,0,1,.355.182.281.281,0,0,1-.183.355,6.628,6.628,0,0,0-2.278,1.383.28.28,0,0,1-.2.081" transform="translate(-2.61 -3.088)" fill="#1a1a1a"/>
        <path id="Trazado_606068" data-name="Trazado 606068" d="M109.292,117.8c-.322-.307-.26-.474-.118-.539l11.2-5.094c1.176.164,4.529.1,6.383-1.739,1.9-1.885.537-4.969-.366-7.01-.532-1.2-.826-1.862-.391-2.152A15.74,15.74,0,0,1,128.462,100c.37-.164.742-.327,1.108-.505a1.711,1.711,0,0,0,.394-.238,1.217,1.217,0,0,0,.27-.413,1.822,1.822,0,0,0,.168-1.01,1.021,1.021,0,0,0-.566-.8,1.275,1.275,0,0,0-.749-.023,11.808,11.808,0,0,0-2.728,1.072l-.391.191c-.808.391-1.6.819-2.33,1.224-.423.233-.845.48-1.265.726a27.284,27.284,0,0,1-2.658,1.43,11.45,11.45,0,0,0-4.2,4.611c-.912,1.909-8.18,3.042-9.005,3.164a.282.282,0,1,1-.083-.558c2.16-.322,7.915-1.461,8.579-2.849a11.915,11.915,0,0,1,4.48-4.885,26.444,26.444,0,0,0,2.6-1.4c.427-.249.85-.5,1.278-.735.741-.408,1.539-.84,2.359-1.235l.387-.191a12.335,12.335,0,0,1,2.861-1.119,1.823,1.823,0,0,1,1.077.051,1.569,1.569,0,0,1,.912,1.23,2.4,2.4,0,0,1-.208,1.327,1.731,1.731,0,0,1-.41.6,2.152,2.152,0,0,1-.525.328c-.374.18-.75.347-1.127.513a15.366,15.366,0,0,0-2.33,1.187,6.668,6.668,0,0,0,.553,1.482c.907,2.05,2.426,5.48.246,7.639-2.1,2.08-5.66,2.028-6.625,1.888l-11.126,5.059a.276.276,0,0,1-.116.025" transform="translate(-5.528 -5.019)" fill="#1a1a1a"/>
        <path id="Trazado_606069" data-name="Trazado 606069" d="M21.516,119.425c-.18,0-.352-.006-.511-.012-4.444-.2-7.2-1.455-8.207-3.727-3.618-8.212,1.279-15.692,5.6-22.291a41.908,41.908,0,0,0,4.659-8.338c2.379-6.845.88-14.34-.217-19.813-.252-1.264-.491-2.457-.663-3.529a17.311,17.311,0,0,1,.737-8.98c1.527-3.63,16.8-8.388,24.866-5.764,4.032,1.313,5.635,4.25,4.635,8.489a.282.282,0,1,1-.549-.129c.934-3.965-.5-6.6-4.262-7.822-7.859-2.561-22.7,1.957-24.17,5.446a16.739,16.739,0,0,0-.7,8.671c.17,1.062.408,2.25.659,3.508,1.109,5.536,2.627,13.119.2,20.111a42.137,42.137,0,0,1-4.721,8.46c-4.242,6.479-9.049,13.823-5.553,21.754.907,2.059,3.5,3.2,7.715,3.39a5.085,5.085,0,0,0,2.934-.566c1.575-1.01,1.818-3.167,1.93-5.289a42.605,42.605,0,0,1,2.456-13.417,14.482,14.482,0,0,1,3.225-5.2,30.217,30.217,0,0,1,3.885-3.03,16.649,16.649,0,0,0,4.672-4.435,15.171,15.171,0,0,0,2.159-5.637,27.335,27.335,0,0,0-.872-11.512.283.283,0,0,1,.547-.143,27.9,27.9,0,0,1,.883,11.753,15.784,15.784,0,0,1-2.243,5.847,16.876,16.876,0,0,1-4.714,4.515,30.751,30.751,0,0,0-3.924,3.048,13.444,13.444,0,0,0-3.1,5.007,42.113,42.113,0,0,0-2.415,13.24c-.116,2.17-.389,4.581-2.19,5.735a5.106,5.106,0,0,1-2.754.667" transform="translate(-0.601 -2.406)" fill="#1a1a1a"/>
        <path id="Trazado_606070" data-name="Trazado 606070" d="M42.785,63.374c-.324-.3-.265-.467-.126-.535,9.952-4.911,9.442-9.625,9.438-9.671a.283.283,0,0,1,.56-.077c.028.209.566,5.166-9.747,10.253a.278.278,0,0,1-.125.029" transform="translate(-2.215 -2.751)" fill="#1a1a1a"/>
        <path id="Trazado_606071" data-name="Trazado 606071" d="M93.734,103.2a.282.282,0,0,1-.282-.282V14.777a.283.283,0,0,1,.282-.282h48.253a.283.283,0,1,1,0,.566H94.017v87.854a.282.282,0,0,1-.282.282" transform="translate(-4.865 -0.755)" fill="#1a1a1a"/>
        <path id="Trazado_606072" data-name="Trazado 606072" d="M136.37,161.355H93.733a.283.283,0,0,1-.282-.282V129.153a.283.283,0,0,1,.566,0V160.79H136.37a.282.282,0,1,1,0,.565" transform="translate(-4.865 -6.709)" fill="#1a1a1a"/>
        <path id="Trazado_606073" data-name="Trazado 606073" d="M172.945,107.01a.283.283,0,0,1-.283-.282v-64a.283.283,0,0,1,.567,0v64a.283.283,0,0,1-.283.282" transform="translate(-8.989 -2.21)" fill="#1a1a1a"/>
        <path id="Trazado_606074" data-name="Trazado 606074" d="M99.882,103.518a.282.282,0,0,1-.283-.282V20.926a.282.282,0,0,1,.283-.282h42.425a.282.282,0,1,1,0,.565H100.165v82.026a.282.282,0,0,1-.282.282" transform="translate(-5.185 -1.075)" fill="#1a1a1a"/>
        <path id="Trazado_606075" data-name="Trazado 606075" d="M136.69,148.326H99.882a.281.281,0,0,1-.282-.282V127.384a.282.282,0,1,1,.565,0v20.377H136.69a.282.282,0,0,1,0,.565" transform="translate(-5.185 -6.617)" fill="#1a1a1a"/>
        <path id="Trazado_606076" data-name="Trazado 606076" d="M166.8,107.086a.283.283,0,0,1-.283-.282V44.192a.283.283,0,0,1,.567,0V106.8a.283.283,0,0,1-.283.282" transform="translate(-8.669 -2.286)" fill="#1a1a1a"/>
        <path id="Trazado_606077" data-name="Trazado 606077" d="M160.661,102.375H128.016a.282.282,0,1,1,0-.564h32.362V81.751H103.126v20.06h12.431a.282.282,0,1,1,0,.564H102.843a.283.283,0,0,1-.283-.282V81.468a.283.283,0,0,1,.283-.282h57.818a.283.283,0,0,1,.283.282v20.625a.283.283,0,0,1-.283.282" transform="translate(-5.339 -4.227)" fill="#1a1a1a"/>
        <path id="Trazado_606078" data-name="Trazado 606078" d="M143.467,19.139H122.172a.283.283,0,0,1-.282-.282v-1.7a.283.283,0,0,1,.282-.282h21.294a.282.282,0,1,1,0,.565H122.456v1.138h21.011a.282.282,0,1,1,0,.565" transform="translate(-6.346 -0.878)" fill="#1a1a1a"/>
        <path id="Trazado_606079" data-name="Trazado 606079" d="M133.144,159.3a3.864,3.864,0,1,1,3.865-3.865,3.869,3.869,0,0,1-3.865,3.865m0-7.164a3.3,3.3,0,1,0,3.3,3.3,3.3,3.3,0,0,0-3.3-3.3" transform="translate(-6.73 -7.891)" fill="#1a1a1a"/>
        <path id="Trazado_606080" data-name="Trazado 606080" d="M178.112,81.912h-5.166a.282.282,0,1,1,0-.565h5.166a.282.282,0,1,1,0,.565" transform="translate(-8.989 -4.235)" fill="#1a1a1a"/>
        <path id="Trazado_606081" data-name="Trazado 606081" d="M178.112,84.163h-5.166a.282.282,0,1,1,0-.564h5.166a.282.282,0,1,1,0,.564" transform="translate(-8.989 -4.352)" fill="#1a1a1a"/>
        <path id="Trazado_606082" data-name="Trazado 606082" d="M165.722,39.7a19.851,19.851,0,1,1,19.854-19.85A19.873,19.873,0,0,1,165.722,39.7m0-39.137a19.286,19.286,0,1,0,19.287,19.287A19.308,19.308,0,0,0,165.722.565" transform="translate(-7.594)" fill="#1a1a1a"/>
        <path id="Trazado_606083" data-name="Trazado 606083" d="M138.662,135.728H127.4a.283.283,0,0,1-.283-.282V124.182a.283.283,0,0,1,.283-.282h11.262a.283.283,0,0,1,.283.282v11.263a.283.283,0,0,1-.283.282m-10.98-.565h10.7v-10.7h-10.7Z" transform="translate(-6.618 -6.45)" fill="#1a1a1a"/>
        <path id="Trazado_606084" data-name="Trazado 606084" d="M118.568,135.728H107.305a.283.283,0,0,1-.283-.282V124.182a.283.283,0,0,1,.283-.282h11.262a.283.283,0,0,1,.283.282v11.263a.283.283,0,0,1-.283.282m-10.98-.565h10.7v-10.7h-10.7Z" transform="translate(-5.572 -6.45)" fill="#1a1a1a"/>
        <path id="Trazado_606085" data-name="Trazado 606085" d="M147.493,128.323a.283.283,0,0,1-.283-.282v-3.858a.283.283,0,0,1,.283-.282h6.267a.282.282,0,1,1,0,.565h-5.983v3.576a.283.283,0,0,1-.283.282" transform="translate(-7.664 -6.45)" fill="#1a1a1a"/>
        <path id="Trazado_606086" data-name="Trazado 606086" d="M125.069,71.955a3.169,3.169,0,1,1,3.17-3.168,3.173,3.173,0,0,1-3.17,3.168m0-5.774a2.6,2.6,0,1,0,2.6,2.606,2.607,2.607,0,0,0-2.6-2.606" transform="translate(-6.346 -3.416)" fill="#1a1a1a"/>
        <path id="Trazado_606087" data-name="Trazado 606087" d="M142.295,71.955a3.169,3.169,0,1,1,3.169-3.168,3.173,3.173,0,0,1-3.169,3.168m0-5.774a2.6,2.6,0,1,0,2.6,2.606,2.608,2.608,0,0,0-2.6-2.606" transform="translate(-7.243 -3.416)" fill="#1a1a1a"/>
        <path id="Trazado_606088" data-name="Trazado 606088" d="M144.02,64.052h-21.7a1.088,1.088,0,0,1-1.088-1.086V41.143h-4.573a1.087,1.087,0,1,1,0-2.174h5.661a1.087,1.087,0,0,1,1.086,1.086v4.81H149.7a1.85,1.85,0,0,1,1.79,2.85l-3.888,8.07a5.783,5.783,0,0,1-4.1,2.909l-18.561,2.1a2.685,2.685,0,0,1-1.54-.27V61.88H144.02a1.086,1.086,0,1,1,0,2.173M116.656,39.533a.522.522,0,0,0,0,1.045h4.856a.283.283,0,0,1,.282.282V62.966a.523.523,0,0,0,.522.522h21.7a.522.522,0,0,0,0-1.044h-20.9a.283.283,0,0,1-.282-.282V60.009a8.441,8.441,0,0,0,2.043.227l18.56-2.1a5.239,5.239,0,0,0,3.652-2.592l3.887-8.07A1.3,1.3,0,0,0,149.7,45.43H123.12a.283.283,0,0,1-.282-.282V40.055a.521.521,0,0,0-.52-.522Z" transform="translate(-6.017 -2.029)" fill="#1a1a1a"/>
        <path id="Trazado_606089" data-name="Trazado 606089" d="M178.445,106.919a.283.283,0,0,1-.283-.282l-.049-65.663a.283.283,0,0,1,.567,0l.049,65.663a.282.282,0,0,1-.283.282" transform="translate(-9.273 -2.118)" fill="#1a1a1a"/>
        <path id="Trazado_606090" data-name="Trazado 606090" d="M84.233,169.546H1.592a.282.282,0,1,1,0-.565h82.64a.282.282,0,1,1,0,.565" transform="translate(-0.068 -8.797)" fill="#1a1a1a"/>
        <path id="Trazado_606091" data-name="Trazado 606091" d="M6.578,155.168a11.28,11.28,0,0,1-5.266-3c-4.251-4.868,2.8-21.192,7.376-30.489a.283.283,0,1,1,.507.249C4.679,131.1-2.3,147.18,1.738,151.8a10.841,10.841,0,0,0,4.909,2.812.282.282,0,0,1-.069.556" transform="translate(0 -6.327)" fill="#1a1a1a"/>
        <path id="Trazado_606092" data-name="Trazado 606092" d="M10.431,119.894c-.266-.1-.322-.269-.252-.41,1.386-2.759,1.651-3.17,1.663-3.186a.284.284,0,0,1,.391-.078.281.281,0,0,1,.08.389c-.012.021-.286.454-1.63,3.129a.283.283,0,0,1-.252.155" transform="translate(-0.528 -6.048)" fill="#1a1a1a"/>
        <path id="Trazado_606093" data-name="Trazado 606093" d="M167.185,148.28A.283.283,0,0,1,166.9,148V135.48a.283.283,0,0,1,.567,0V148a.283.283,0,0,1-.283.282" transform="translate(-8.689 -7.039)" fill="#1a1a1a"/>
        <path id="Trazado_606094" data-name="Trazado 606094" d="M190.1,148.28a.283.283,0,0,1-.283-.282V135.48a.283.283,0,0,1,.567,0V148a.283.283,0,0,1-.283.282" transform="translate(-9.882 -7.039)" fill="#1a1a1a"/>
        <path id="Trazado_606095" data-name="Trazado 606095" d="M190.5,135.387H166.221a.283.283,0,0,1-.283-.283v-6.852a.284.284,0,0,1,.283-.282H190.5a.283.283,0,0,1,.283.282V135.1a.283.283,0,0,1-.283.283m-23.994-.565h23.712v-6.287H166.5Z" transform="translate(-8.639 -6.662)" fill="#1a1a1a"/>
        <path id="Trazado_606096" data-name="Trazado 606096" d="M175.591,168.858H141.826a.283.283,0,0,1-.282-.282V156.041a.283.283,0,0,1,.566,0v12.251h33.2V156.041a.283.283,0,0,1,.567,0v12.534a.283.283,0,0,1-.283.282" transform="translate(-7.369 -8.109)" fill="#1a1a1a"/>
        <path id="Trazado_606097" data-name="Trazado 606097" d="M196.294,155.941H140.741a.283.283,0,0,1-.282-.282v-6.975a.283.283,0,0,1,.282-.282h55.552a.284.284,0,0,1,.283.282v6.975a.283.283,0,0,1-.283.282m-55.269-.564H196.01v-6.41H141.025Z" transform="translate(-7.313 -7.726)" fill="#1a1a1a"/>
        <path id="Trazado_606098" data-name="Trazado 606098" d="M177.665,117.573a.283.283,0,0,1-.283-.282v-5.636a.283.283,0,1,1,.566,0v5.636a.283.283,0,0,1-.282.282" transform="translate(-9.235 -5.798)" fill="#1a1a1a"/>
        <path id="Trazado_606099" data-name="Trazado 606099" d="M177.586,117.589H152.6a.316.316,0,0,1-.3-.3v-5.636a.317.317,0,0,1,.3-.3h24.988a.317.317,0,0,1,.3.3.293.293,0,0,1-.384.264H152.864v5.109H177.5a.292.292,0,0,1,.384.264.316.316,0,0,1-.3.3" transform="translate(-7.929 -5.797)" fill="#1a1a1a"/>
        <path id="Trazado_606100" data-name="Trazado 606100" d="M177.665,117.573a.283.283,0,0,1-.283-.282v-5.636a.283.283,0,1,1,.566,0v5.636A.283.283,0,0,1,177.665,117.573Z" transform="translate(-9.235 -5.798)" fill="none" stroke="#000" stroke-linecap="round" stroke-linejoin="round" stroke-width="0.425"/>
        <path id="Trazado_606101" data-name="Trazado 606101" d="M177.586,117.589H152.6a.316.316,0,0,1-.3-.3v-5.636a.317.317,0,0,1,.3-.3h24.988a.317.317,0,0,1,.3.3.293.293,0,0,1-.384.264H152.864v5.109H177.5a.292.292,0,0,1,.384.264A.316.316,0,0,1,177.586,117.589Z" transform="translate(-7.929 -5.797)" fill="none" stroke="#000" stroke-linecap="round" stroke-linejoin="round" stroke-width="0.425"/>
        <path id="Trazado_606102" data-name="Trazado 606102" d="M184.785,117.591h-5.807a.282.282,0,1,1,0-.564H184.5v-5.088h-5.524a.282.282,0,1,1,0-.564h5.807a.283.283,0,0,1,.283.282v5.653a.283.283,0,0,1-.283.282" transform="translate(-9.303 -5.798)" fill="#1a1a1a"/>
        <path id="Trazado_606103" data-name="Trazado 606103" d="M183.56,127.953a.283.283,0,0,1-.283-.282V117.62a.283.283,0,0,1,.567,0v10.05a.283.283,0,0,1-.283.282" transform="translate(-9.542 -6.109)" fill="#1a1a1a"/>
        <path id="Trazado_606104" data-name="Trazado 606104" d="M165.087,135.387H144.429a.283.283,0,0,1-.283-.283v-6.851a.284.284,0,0,1,.283-.283h20.657a.282.282,0,1,1,0,.565H144.713v6.287h20.374a.283.283,0,1,1,0,.565" transform="translate(-7.504 -6.662)" fill="#1a1a1a"/>
        <path id="Trazado_606105" data-name="Trazado 606105" d="M178.77,155.941a.282.282,0,0,1-.282-.282v-6.975a.283.283,0,0,1,.566,0v6.975a.283.283,0,0,1-.283.282" transform="translate(-9.292 -7.726)" fill="#1a1a1a"/>
        <path id="Trazado_606106" data-name="Trazado 606106" d="M196.977,168.858H177.445a.282.282,0,1,1,0-.565h19.248V156.041a.283.283,0,0,1,.567,0v12.534a.283.283,0,0,1-.283.282" transform="translate(-9.223 -8.109)" fill="#1a1a1a"/>
        <path id="Trazado_606107" data-name="Trazado 606107" d="M154.1,127.981a.282.282,0,0,1-.282-.282V117.62a.283.283,0,0,1,.566,0V127.7a.283.283,0,0,1-.283.282" transform="translate(-8.008 -6.109)" fill="#1a1a1a"/>
        <path id="Trazado_606108" data-name="Trazado 606108" d="M146.6,148.28a.283.283,0,0,1-.283-.282V135.48a.283.283,0,0,1,.567,0V148a.283.283,0,0,1-.283.282" transform="translate(-7.618 -7.039)" fill="#1a1a1a"/>
        <path id="Trazado_606109" data-name="Trazado 606109" d="M68.487,160.814a.282.282,0,0,1-.281-.248l-4.032-33.447a.282.282,0,0,1,.246-.314.286.286,0,0,1,.315.246L68.768,160.5a.283.283,0,0,1-.246.315h-.034" transform="translate(-3.341 -6.602)" fill="#1a1a1a"/>
        <path id="Trazado_606110" data-name="Trazado 606110" d="M62.829,162.672a.282.282,0,0,1,0-.565l5.573-.02a.282.282,0,1,1,0,.564l-5.573.021Z" transform="translate(-3.256 -8.438)" fill="#1a1a1a"/>
        <path id="Trazado_606111" data-name="Trazado 606111" d="M6.5,162.853a.282.282,0,0,1,0-.565l13.048-.043a.282.282,0,0,1,0,.565L6.5,162.853Z" transform="translate(-0.324 -8.447)" fill="#1a1a1a"/>
        <path id="Trazado_606112" data-name="Trazado 606112" d="M6.5,160.626a.287.287,0,0,1-.282-.3l2.9-40.58a.263.263,0,0,1,.3-.262.283.283,0,0,1,.262.3l-2.9,40.579a.281.281,0,0,1-.282.263" transform="translate(-0.324 -6.22)" fill="#1a1a1a"/>
        <path id="Trazado_606113" data-name="Trazado 606113" d="M15.533,160.63a.282.282,0,0,1-.282-.272l-1.557-39.7a.282.282,0,0,1,.27-.294.274.274,0,0,1,.294.272l1.557,39.7a.283.283,0,0,1-.271.293Z" transform="translate(-0.713 -6.266)" fill="#1a1a1a"/>
        <path id="Trazado_606114" data-name="Trazado 606114" d="M13.153,120.088l-3.594-.042a.282.282,0,0,1,0-.565l3.594.043a.282.282,0,0,1,0,.564" transform="translate(-0.483 -6.22)" fill="#1a1a1a"/>
        <path id="Trazado_606115" data-name="Trazado 606115" d="M57.016,74.88a3.073,3.073,0,0,1-2.649-1.422,2.1,2.1,0,0,1-.288-2.034,1.07,1.07,0,0,1,.688-.534,2.423,2.423,0,0,1,1.735.593,2.1,2.1,0,0,0,1.18.317.282.282,0,0,1,.046.563,2.623,2.623,0,0,1-1.539-.41c-.293-.2-.9-.6-1.295-.513a.528.528,0,0,0-.329.271,1.617,1.617,0,0,0,.279,1.442A2.548,2.548,0,0,0,57.366,74.3a.283.283,0,0,1,.057.562,4.055,4.055,0,0,1-.407.022" transform="translate(-2.807 -3.689)" fill="#1a1a1a"/>
        <path id="Trazado_606116" data-name="Trazado 606116" d="M176.087,127.981a.283.283,0,0,1-.283-.282V117.62a.283.283,0,0,1,.566,0V127.7a.282.282,0,0,1-.282.282" transform="translate(-9.153 -6.109)" fill="#1a1a1a"/>
        <path id="Trazado_606117" data-name="Trazado 606117" d="M91.016,99.481A35.911,35.911,0,0,1,58.143,76.156a.283.283,0,1,1,.53-.2,35.342,35.342,0,0,0,32.35,22.961.283.283,0,0,1-.008.565" transform="translate(-3.026 -3.945)" fill="#1a1a1a"/>
        <path id="Trazado_606118" data-name="Trazado 606118" d="M56.288,56.537a.288.288,0,0,1-.281-.318A35.893,35.893,0,0,1,90.44,24.737a.282.282,0,1,1,.02.564A35.331,35.331,0,0,0,56.568,56.29a.28.28,0,0,1-.28.246" transform="translate(-2.916 -1.288)" fill="#1a1a1a"/>
        <path id="Trazado_606119" data-name="Trazado 606119" d="M164.4,17.631c0,2.686-1.558,4.367-4.02,4.367s-4.018-1.682-4.018-4.367c0-2.666,1.559-4.346,4.018-4.346s4.02,1.681,4.02,4.346m-5.721,0c0,1.476.636,2.379,1.7,2.379s1.7-.9,1.7-2.379-.636-2.357-1.7-2.357-1.7.881-1.7,2.357m14.372-4.285-10.23,14.373H159.4l10.23-14.373Zm3.117,10.087c0,2.686-1.559,4.367-4.018,4.367s-4.018-1.681-4.018-4.367c0-2.666,1.557-4.346,4.018-4.346s4.018,1.681,4.018,4.346m-5.721,0c0,1.476.636,2.378,1.7,2.378s1.7-.9,1.7-2.378-.636-2.358-1.7-2.358-1.7.883-1.7,2.358" transform="translate(-8.141 -0.692)" fill="#fff"/>
      </g>
    </g>
  </g>
</svg>
