<svg xmlns="http://www.w3.org/2000/svg" width="505" height="352" viewBox="0 0 505 352">
  <g id="Grupo_1015544" data-name="Grupo 1015544" transform="translate(-864 9137)">
    <rect id="Rect치ngulo_345382" data-name="Rect치ngulo 345382" width="505" height="352" transform="translate(864 -9137)" fill="#fff"/>
    <g id="Grupo_1014967" data-name="Grupo 1014967" transform="translate(5389 -5578.771)">
      <g id="Grupo_1014966" data-name="Grupo 1014966">
        <g id="Grupo_875875" data-name="Grupo 875875" transform="translate(-4489.619 -3531.457)">
          <path id="Trazado_606273" data-name="Trazado 606273" d="M9.106,16H.822V14.356l3.91-4.167A9.645,9.645,0,0,0,5.923,8.654a2.467,2.467,0,0,0,.386-1.245A1.846,1.846,0,0,0,5.9,6.143,1.468,1.468,0,0,0,4.74,5.682a1.584,1.584,0,0,0-1.282.56,2.219,2.219,0,0,0-.469,1.473H.581A3.962,3.962,0,0,1,1.108,5.7,3.715,3.715,0,0,1,2.6,4.267a4.529,4.529,0,0,1,2.183-.519,4.288,4.288,0,0,1,2.9.9A3.172,3.172,0,0,1,8.716,7.176,4.064,4.064,0,0,1,8.251,9a10.148,10.148,0,0,1-1.594,2.167l-2.748,2.9h5.2Zm9.6-5a6.123,6.123,0,0,1-1.038,3.835,3.622,3.622,0,0,1-3.038,1.328,3.647,3.647,0,0,1-3.021-1.3,5.943,5.943,0,0,1-1.071-3.735V8.9a6.042,6.042,0,0,1,1.05-3.843,3.649,3.649,0,0,1,3.026-1.312,3.652,3.652,0,0,1,3.021,1.3A5.925,5.925,0,0,1,18.71,8.778Zm-2.4-2.446A4.426,4.426,0,0,0,15.9,6.368a1.389,1.389,0,0,0-1.282-.685,1.364,1.364,0,0,0-1.249.652,4.142,4.142,0,0,0-.427,2.04v2.941a4.646,4.646,0,0,0,.4,2.2,1.37,1.37,0,0,0,1.291.719,1.347,1.347,0,0,0,1.27-.69,4.535,4.535,0,0,0,.407-2.11ZM20.3,6.238a2.389,2.389,0,0,1,.722-1.805A2.619,2.619,0,0,1,22.91,3.74a2.66,2.66,0,0,1,1.909.685,2.435,2.435,0,0,1,.722,1.855v.6a2.359,2.359,0,0,1-.722,1.8,2.647,2.647,0,0,1-1.893.681,2.664,2.664,0,0,1-1.905-.685A2.417,2.417,0,0,1,20.3,6.828Zm1.594.639a1.118,1.118,0,0,0,.286.8.986.986,0,0,0,.751.3.94.94,0,0,0,.739-.307,1.189,1.189,0,0,0,.274-.822V6.238a1.164,1.164,0,0,0-.274-.805,1.067,1.067,0,0,0-1.494,0,1.188,1.188,0,0,0-.282.843Zm4.184,6.159a2.359,2.359,0,0,1,.73-1.805,2.656,2.656,0,0,1,1.893-.685,2.683,2.683,0,0,1,1.905.677,2.422,2.422,0,0,1,.726,1.864v.6a2.377,2.377,0,0,1-.714,1.8,2.631,2.631,0,0,1-1.9.685,2.662,2.662,0,0,1-1.917-.689,2.407,2.407,0,0,1-.722-1.826Zm1.594.647a1.11,1.11,0,0,0,.3.78.974.974,0,0,0,.747.324q1.013,0,1.013-1.121v-.631a1.128,1.128,0,0,0-.282-.8,1.073,1.073,0,0,0-1.494,0,1.164,1.164,0,0,0-.282.826ZM23.4,15.1l-1.17-.631,5.9-9.446,1.17.631Z" transform="translate(0 0.68)" fill="#12263f"/>
          <path id="Trazado_606274" data-name="Trazado 606274" d="M6.649,16H4.25V6.753l-2.864.888V5.69L6.392,3.9h.257Zm4.283-5.943.7-6.143H18.4v2H13.6l-.3,2.6a3.8,3.8,0,0,1,1.818-.457,3.484,3.484,0,0,1,2.706,1.071,4.277,4.277,0,0,1,.979,3,4.382,4.382,0,0,1-.494,2.1,3.486,3.486,0,0,1-1.415,1.436,4.418,4.418,0,0,1-2.175.51,4.692,4.692,0,0,1-2.034-.444A3.607,3.607,0,0,1,11.2,14.473a3.4,3.4,0,0,1-.577-1.834H13a1.773,1.773,0,0,0,.527,1.175,1.671,1.671,0,0,0,1.183.419,1.475,1.475,0,0,0,1.253-.585,2.711,2.711,0,0,0,.44-1.656,2.242,2.242,0,0,0-.506-1.577,1.858,1.858,0,0,0-1.436-.548,2.077,2.077,0,0,0-1.386.448l-.232.216ZM20.3,6.238a2.389,2.389,0,0,1,.722-1.805A2.619,2.619,0,0,1,22.91,3.74a2.66,2.66,0,0,1,1.909.685,2.435,2.435,0,0,1,.722,1.855v.6a2.359,2.359,0,0,1-.722,1.8,2.647,2.647,0,0,1-1.893.681,2.664,2.664,0,0,1-1.905-.685A2.417,2.417,0,0,1,20.3,6.828Zm1.594.639a1.118,1.118,0,0,0,.286.8.986.986,0,0,0,.751.3.94.94,0,0,0,.739-.307,1.189,1.189,0,0,0,.274-.822V6.238a1.164,1.164,0,0,0-.274-.805,1.067,1.067,0,0,0-1.494,0,1.188,1.188,0,0,0-.282.843Zm4.184,6.159a2.359,2.359,0,0,1,.73-1.805,2.656,2.656,0,0,1,1.893-.685,2.683,2.683,0,0,1,1.905.677,2.422,2.422,0,0,1,.726,1.864v.6a2.377,2.377,0,0,1-.714,1.8,2.631,2.631,0,0,1-1.9.685,2.662,2.662,0,0,1-1.917-.689,2.407,2.407,0,0,1-.722-1.826Zm1.594.647a1.11,1.11,0,0,0,.3.78.974.974,0,0,0,.747.324q1.013,0,1.013-1.121v-.631a1.128,1.128,0,0,0-.282-.8,1.073,1.073,0,0,0-1.494,0,1.164,1.164,0,0,0-.282.826ZM23.4,15.1l-1.17-.631,5.9-9.446,1.17.631Z" transform="translate(0 54.37)" fill="#12263f"/>
          <path id="Trazado_606275" data-name="Trazado 606275" d="M6.649,16H4.25V6.753l-2.864.888V5.69L6.392,3.9h.257ZM18.71,11a6.123,6.123,0,0,1-1.038,3.835,3.622,3.622,0,0,1-3.038,1.328,3.647,3.647,0,0,1-3.021-1.3,5.943,5.943,0,0,1-1.071-3.735V8.9a6.042,6.042,0,0,1,1.05-3.843,3.649,3.649,0,0,1,3.026-1.312,3.652,3.652,0,0,1,3.021,1.3A5.925,5.925,0,0,1,18.71,8.778Zm-2.4-2.446A4.426,4.426,0,0,0,15.9,6.368a1.389,1.389,0,0,0-1.282-.685,1.364,1.364,0,0,0-1.249.652,4.142,4.142,0,0,0-.427,2.04v2.941a4.646,4.646,0,0,0,.4,2.2,1.37,1.37,0,0,0,1.291.719,1.347,1.347,0,0,0,1.27-.69,4.535,4.535,0,0,0,.407-2.11ZM20.3,6.238a2.389,2.389,0,0,1,.722-1.805A2.619,2.619,0,0,1,22.91,3.74a2.66,2.66,0,0,1,1.909.685,2.435,2.435,0,0,1,.722,1.855v.6a2.359,2.359,0,0,1-.722,1.8,2.647,2.647,0,0,1-1.893.681,2.664,2.664,0,0,1-1.905-.685A2.417,2.417,0,0,1,20.3,6.828Zm1.594.639a1.118,1.118,0,0,0,.286.8.986.986,0,0,0,.751.3.94.94,0,0,0,.739-.307,1.189,1.189,0,0,0,.274-.822V6.238a1.164,1.164,0,0,0-.274-.805,1.067,1.067,0,0,0-1.494,0,1.188,1.188,0,0,0-.282.843Zm4.184,6.159a2.359,2.359,0,0,1,.73-1.805,2.656,2.656,0,0,1,1.893-.685,2.683,2.683,0,0,1,1.905.677,2.422,2.422,0,0,1,.726,1.864v.6a2.377,2.377,0,0,1-.714,1.8,2.631,2.631,0,0,1-1.9.685,2.662,2.662,0,0,1-1.917-.689,2.407,2.407,0,0,1-.722-1.826Zm1.594.647a1.11,1.11,0,0,0,.3.78.974.974,0,0,0,.747.324q1.013,0,1.013-1.121v-.631a1.128,1.128,0,0,0-.282-.8,1.073,1.073,0,0,0-1.494,0,1.164,1.164,0,0,0-.282.826ZM23.4,15.1l-1.17-.631,5.9-9.446,1.17.631Z" transform="translate(0 113.496)" fill="#12263f"/>
          <path id="Trazado_606276" data-name="Trazado 606276" d="M1.179,10.057l.7-6.143H8.649v2H3.843l-.3,2.6a3.8,3.8,0,0,1,1.818-.457A3.484,3.484,0,0,1,8.068,9.127a4.277,4.277,0,0,1,.979,3,4.382,4.382,0,0,1-.494,2.1,3.486,3.486,0,0,1-1.415,1.436,4.418,4.418,0,0,1-2.175.51,4.692,4.692,0,0,1-2.034-.444,3.607,3.607,0,0,1-1.482-1.249,3.4,3.4,0,0,1-.577-1.834H3.246a1.773,1.773,0,0,0,.527,1.175,1.671,1.671,0,0,0,1.183.419,1.475,1.475,0,0,0,1.253-.585,2.711,2.711,0,0,0,.44-1.656,2.242,2.242,0,0,0-.506-1.577,1.858,1.858,0,0,0-1.436-.548,2.077,2.077,0,0,0-1.386.448l-.232.216Zm9.363-3.818a2.389,2.389,0,0,1,.722-1.805,2.619,2.619,0,0,1,1.893-.693,2.66,2.66,0,0,1,1.909.685,2.435,2.435,0,0,1,.722,1.855v.6a2.359,2.359,0,0,1-.722,1.8,2.647,2.647,0,0,1-1.893.681,2.664,2.664,0,0,1-1.905-.685,2.417,2.417,0,0,1-.726-1.847Zm1.594.639a1.118,1.118,0,0,0,.286.8.986.986,0,0,0,.751.3.94.94,0,0,0,.739-.307,1.189,1.189,0,0,0,.274-.822V6.238a1.164,1.164,0,0,0-.274-.805,1.067,1.067,0,0,0-1.494,0,1.188,1.188,0,0,0-.282.843Zm4.184,6.159a2.359,2.359,0,0,1,.73-1.805,2.656,2.656,0,0,1,1.893-.685,2.683,2.683,0,0,1,1.905.677,2.422,2.422,0,0,1,.726,1.864v.6a2.377,2.377,0,0,1-.714,1.8,2.631,2.631,0,0,1-1.9.685,2.662,2.662,0,0,1-1.917-.689,2.407,2.407,0,0,1-.722-1.826Zm1.594.647a1.11,1.11,0,0,0,.3.78.974.974,0,0,0,.747.324q1.013,0,1.013-1.121v-.631a1.128,1.128,0,0,0-.282-.8,1.073,1.073,0,0,0-1.494,0,1.164,1.164,0,0,0-.282.826ZM13.646,15.1l-1.17-.631,5.9-9.446,1.17.631Z" transform="translate(0 182.138)" fill="#12263f"/>
          <path id="Trazado_606277" data-name="Trazado 606277" d="M8.957,11a6.123,6.123,0,0,1-1.038,3.835,3.622,3.622,0,0,1-3.038,1.328,3.647,3.647,0,0,1-3.021-1.3A5.943,5.943,0,0,1,.789,11.127V8.9A6.042,6.042,0,0,1,1.839,5.06,3.649,3.649,0,0,1,4.864,3.748a3.652,3.652,0,0,1,3.021,1.3A5.925,5.925,0,0,1,8.957,8.778Zm-2.4-2.446a4.426,4.426,0,0,0-.411-2.189,1.389,1.389,0,0,0-1.282-.685,1.364,1.364,0,0,0-1.249.652,4.142,4.142,0,0,0-.427,2.04v2.941a4.646,4.646,0,0,0,.4,2.2,1.37,1.37,0,0,0,1.291.719,1.347,1.347,0,0,0,1.27-.69,4.535,4.535,0,0,0,.407-2.11Zm3.984-2.319a2.389,2.389,0,0,1,.722-1.805,2.619,2.619,0,0,1,1.893-.693,2.66,2.66,0,0,1,1.909.685,2.435,2.435,0,0,1,.722,1.855v.6a2.359,2.359,0,0,1-.722,1.8,2.647,2.647,0,0,1-1.893.681,2.664,2.664,0,0,1-1.905-.685,2.417,2.417,0,0,1-.726-1.847Zm1.594.639a1.118,1.118,0,0,0,.286.8.986.986,0,0,0,.751.3.94.94,0,0,0,.739-.307,1.189,1.189,0,0,0,.274-.822V6.238a1.164,1.164,0,0,0-.274-.805,1.067,1.067,0,0,0-1.494,0,1.188,1.188,0,0,0-.282.843Zm4.184,6.159a2.359,2.359,0,0,1,.73-1.805,2.656,2.656,0,0,1,1.893-.685,2.683,2.683,0,0,1,1.905.677,2.422,2.422,0,0,1,.726,1.864v.6a2.377,2.377,0,0,1-.714,1.8,2.631,2.631,0,0,1-1.9.685,2.662,2.662,0,0,1-1.917-.689,2.407,2.407,0,0,1-.722-1.826Zm1.594.647a1.11,1.11,0,0,0,.3.78.974.974,0,0,0,.747.324q1.013,0,1.013-1.121v-.631a1.128,1.128,0,0,0-.282-.8,1.073,1.073,0,0,0-1.494,0,1.164,1.164,0,0,0-.282.826ZM13.646,15.1l-1.17-.631,5.9-9.446,1.17.631Z" transform="translate(0 226.313)" fill="#12263f"/>
          <path id="Trazado_606282" data-name="Trazado 606282" d="M1.179,10.057l.7-6.143H8.649v2H3.843l-.3,2.6a3.8,3.8,0,0,1,1.818-.457A3.484,3.484,0,0,1,8.068,9.127a4.277,4.277,0,0,1,.979,3,4.382,4.382,0,0,1-.494,2.1,3.486,3.486,0,0,1-1.415,1.436,4.418,4.418,0,0,1-2.175.51,4.692,4.692,0,0,1-2.034-.444,3.607,3.607,0,0,1-1.482-1.249,3.4,3.4,0,0,1-.577-1.834H3.246a1.773,1.773,0,0,0,.527,1.175,1.671,1.671,0,0,0,1.183.419,1.475,1.475,0,0,0,1.253-.585,2.711,2.711,0,0,0,.44-1.656,2.242,2.242,0,0,0-.506-1.577,1.858,1.858,0,0,0-1.436-.548,2.077,2.077,0,0,0-1.386.448l-.232.216ZM14.095,9.7l1.511-2.681H18.17l-2.557,4.4L18.278,16H15.705l-1.6-2.822L12.509,16H9.928l2.665-4.582-2.548-4.4h2.573Z" transform="translate(134.609 245.342)" fill="#636363"/>
          <path id="Trazado_606283" data-name="Trazado 606283" d="M6.649,16H4.25V6.753l-2.864.888V5.69L6.392,3.9h.257Zm7.446-6.3,1.511-2.681H18.17l-2.557,4.4L18.278,16H15.705l-1.6-2.822L12.509,16H9.928l2.665-4.582-2.548-4.4h2.573Z" transform="translate(228.396 245.342)" fill="#636363"/>
          <path id="Trazado_606284" data-name="Trazado 606284" d="M8.957,11a6.123,6.123,0,0,1-1.038,3.835,3.622,3.622,0,0,1-3.038,1.328,3.647,3.647,0,0,1-3.021-1.3A5.943,5.943,0,0,1,.789,11.127V8.9A6.042,6.042,0,0,1,1.839,5.06,3.649,3.649,0,0,1,4.864,3.748a3.652,3.652,0,0,1,3.021,1.3A5.925,5.925,0,0,1,8.957,8.778Zm-2.4-2.446a4.426,4.426,0,0,0-.411-2.189,1.389,1.389,0,0,0-1.282-.685,1.364,1.364,0,0,0-1.249.652,4.142,4.142,0,0,0-.427,2.04v2.941a4.646,4.646,0,0,0,.4,2.2,1.37,1.37,0,0,0,1.291.719,1.347,1.347,0,0,0,1.27-.69,4.535,4.535,0,0,0,.407-2.11ZM10.8,14.821a1.208,1.208,0,0,1,.386-.93,1.5,1.5,0,0,1,1.942,0,1.208,1.208,0,0,1,.386.93,1.191,1.191,0,0,1-.382.917,1.525,1.525,0,0,1-1.951,0A1.191,1.191,0,0,1,10.8,14.821Zm5.072-4.765.7-6.143h6.773v2H18.536l-.3,2.6a3.8,3.8,0,0,1,1.818-.457,3.484,3.484,0,0,1,2.706,1.071,4.277,4.277,0,0,1,.979,3,4.382,4.382,0,0,1-.494,2.1,3.486,3.486,0,0,1-1.415,1.436,4.418,4.418,0,0,1-2.175.51,4.692,4.692,0,0,1-2.034-.444,3.607,3.607,0,0,1-1.482-1.249,3.4,3.4,0,0,1-.577-1.834h2.374a1.773,1.773,0,0,0,.527,1.175,1.671,1.671,0,0,0,1.183.419,1.475,1.475,0,0,0,1.253-.585,2.711,2.711,0,0,0,.44-1.656,2.242,2.242,0,0,0-.506-1.577A1.858,1.858,0,0,0,19.4,9.866a2.077,2.077,0,0,0-1.386.448l-.232.216ZM28.787,9.7,30.3,7.019h2.565l-2.557,4.4L32.971,16H30.4l-1.6-2.822L27.2,16H24.62l2.665-4.582-2.548-4.4H27.31Z" transform="translate(315.387 245.342)" fill="#636363"/>
          <path id="Trazado_606285" data-name="Trazado 606285" d="M8.957,11a6.123,6.123,0,0,1-1.038,3.835,3.622,3.622,0,0,1-3.038,1.328,3.647,3.647,0,0,1-3.021-1.3A5.943,5.943,0,0,1,.789,11.127V8.9A6.042,6.042,0,0,1,1.839,5.06,3.649,3.649,0,0,1,4.864,3.748a3.652,3.652,0,0,1,3.021,1.3A5.925,5.925,0,0,1,8.957,8.778Zm-2.4-2.446a4.426,4.426,0,0,0-.411-2.189,1.389,1.389,0,0,0-1.282-.685,1.364,1.364,0,0,0-1.249.652,4.142,4.142,0,0,0-.427,2.04v2.941a4.646,4.646,0,0,0,.4,2.2,1.37,1.37,0,0,0,1.291.719,1.347,1.347,0,0,0,1.27-.69,4.535,4.535,0,0,0,.407-2.11Z" transform="translate(414.612 245.342)" fill="#636363"/>
          <path id="Trazado_213249" data-name="Trazado 213249" d="M-6360.474-3242h-374.353" transform="translate(6785.28 3361.613)" fill="none" stroke="#33ece0" stroke-width="2"/>
          <path id="Trazado_213250" data-name="Trazado 213250" d="M239.226,0H0" transform="translate(237.63 0) rotate(90)" fill="none" stroke="#33ece0" stroke-width="2"/>
          <path id="Trazado_213254" data-name="Trazado 213254" d="M-6360.661-3066.838h-374.748" transform="translate(6785.065 3306.174)" fill="none" stroke="#707070" stroke-width="2"/>
          <path id="Trazado_213255" data-name="Trazado 213255" d="M239.435,0H0" transform="translate(49.657 239.497) rotate(-90)" fill="none" stroke="#707070" stroke-width="2"/>
        </g>
        <path id="Trazado_606278" data-name="Trazado 606278" d="M35.912,10.762H31.131V14h5.611v2h-8.1V3.914h8.085V5.931H31.131v2.88h4.781Zm7,2.756a.773.773,0,0,0-.436-.693,4.95,4.95,0,0,0-1.4-.452q-3.2-.672-3.2-2.723a2.468,2.468,0,0,1,.992-2,4,4,0,0,1,2.594-.8,4.307,4.307,0,0,1,2.735.805A2.538,2.538,0,0,1,45.217,9.75h-2.4a1.161,1.161,0,0,0-.332-.851,1.405,1.405,0,0,0-1.038-.336,1.436,1.436,0,0,0-.938.274.865.865,0,0,0-.332.7.739.739,0,0,0,.378.643,3.885,3.885,0,0,0,1.274.423,10.407,10.407,0,0,1,1.511.4,2.482,2.482,0,0,1,1.9,2.416,2.343,2.343,0,0,1-1.054,1.988,4.548,4.548,0,0,1-2.723.76,4.75,4.75,0,0,1-2-.4,3.363,3.363,0,0,1-1.374-1.1,2.565,2.565,0,0,1-.5-1.515h2.274a1.252,1.252,0,0,0,.473.979,1.877,1.877,0,0,0,1.179.34,1.737,1.737,0,0,0,1.042-.261A.814.814,0,0,0,42.91,13.518Zm6.749-8.708V7.019h1.536v1.76H49.658v4.482a1.07,1.07,0,0,0,.191.714.959.959,0,0,0,.73.216,3.826,3.826,0,0,0,.706-.058V15.95a4.939,4.939,0,0,1-1.453.216,2.29,2.29,0,0,1-2.573-2.548V8.778H45.948V7.019h1.312V4.811Zm7.919,4.458a6.517,6.517,0,0,0-.863-.066,1.757,1.757,0,0,0-1.785.921V16h-2.4V7.019H54.8l.066,1.071a2.223,2.223,0,0,1,2-1.237,2.514,2.514,0,0,1,.747.108Zm5.13,6.9a4.409,4.409,0,0,1-3.217-1.212,4.308,4.308,0,0,1-1.241-3.229v-.232a5.426,5.426,0,0,1,.523-2.42,3.838,3.838,0,0,1,1.482-1.644,4.159,4.159,0,0,1,2.187-.577,3.727,3.727,0,0,1,2.9,1.162,4.722,4.722,0,0,1,1.058,3.3v.979H60.682a2.229,2.229,0,0,0,.7,1.411,2.12,2.12,0,0,0,1.482.531,2.589,2.589,0,0,0,2.167-1l1.179,1.32a3.6,3.6,0,0,1-1.461,1.191A4.793,4.793,0,0,1,62.707,16.166Zm-.274-7.379a1.5,1.5,0,0,0-1.158.484,2.5,2.5,0,0,0-.569,1.384h3.337v-.192a1.786,1.786,0,0,0-.432-1.238A1.547,1.547,0,0,0,62.433,8.787ZM70.294,16H67.887V3.25h2.407ZM74.8,16H72.394V3.25H74.8Zm7.18,0a2.664,2.664,0,0,1-.241-.805,2.9,2.9,0,0,1-2.266.971,3.189,3.189,0,0,1-2.187-.764,2.456,2.456,0,0,1-.867-1.926,2.538,2.538,0,0,1,1.058-2.191,5.222,5.222,0,0,1,3.059-.772h1.1V10a1.48,1.48,0,0,0-.32-1,1.257,1.257,0,0,0-1.009-.374,1.429,1.429,0,0,0-.95.291.987.987,0,0,0-.344.8h-2.4A2.41,2.41,0,0,1,77.1,8.272,3.182,3.182,0,0,1,78.462,7.23a4.961,4.961,0,0,1,1.976-.378,3.92,3.92,0,0,1,2.635.834,2.918,2.918,0,0,1,.975,2.345v3.893a4.294,4.294,0,0,0,.357,1.934V16ZM80,14.332a2.066,2.066,0,0,0,.979-.237,1.554,1.554,0,0,0,.664-.635V11.916h-.9q-1.8,0-1.917,1.245l-.008.141a.96.96,0,0,0,.315.739A1.225,1.225,0,0,0,80,14.332Z" transform="translate(-4401.903 -3462.229)" fill="#12263f"/>
        <g id="Grupo_875888" data-name="Grupo 875888" transform="translate(-4374.04 -3525.015)">
          <ellipse id="Elipse_5592" data-name="Elipse 5592" cx="26.972" cy="2.187" rx="26.972" ry="2.187" transform="translate(1.458 54.674)" fill="#e8e8e8"/>
          <g id="Grupo_875877" data-name="Grupo 875877" transform="translate(0 0)">
            <g id="cow" transform="translate(0 0)">
              <g id="Grupo_153280" data-name="Grupo 153280">
                <g id="Grupo_153279" data-name="Grupo 153279">
                  <g id="Grupo_153278" data-name="Grupo 153278">
                    <g id="Grupo_153277" data-name="Grupo 153277">
                      <g id="Grupo_153276" data-name="Grupo 153276">
                        <g id="Grupo_153275" data-name="Grupo 153275">
                          <g id="Grupo_153274" data-name="Grupo 153274">
                            <ellipse id="Elipse_4914" data-name="Elipse 4914" cx="28.43" cy="28.43" rx="28.43" ry="28.43" fill="#a3bfe4"/>
                          </g>
                        </g>
                      </g>
                    </g>
                  </g>
                </g>
              </g>
              <path id="Trazado_213181" data-name="Trazado 213181" d="M148.275,85.549a28.681,28.681,0,0,0-.318-4.271l-27.924-18.56L129.577,85.2l-9.545-10.036-10.586,6.457-6.655,2.005,14.128,14.128-10.661,6.98,11.815,9.216q.867.052,1.747.053A28.455,28.455,0,0,0,148.275,85.549Z" transform="translate(-91.34 -57.069)" fill="#8caad1"/>
            </g>
            <g id="estrella_1_" data-name="estrella (1)" transform="translate(6.158 5.388)">
              <path id="Trazado_213145" data-name="Trazado 213145" d="M22.255,12.53,14.973,25.908,0,28.7l13.822,5.866,8.433,1.152,1.217-8.889Z" transform="translate(0 -12.53)" fill="#ffdd46"/>
              <path id="Trazado_213146" data-name="Trazado 213146" d="M278.255,198.524l-14.6,2.736L256,205.542l4.694,8.932,9.06,10.212-1.972-15.1Z" transform="translate(-233.745 -182.355)" fill="#ff9e00"/>
              <path id="Trazado_213147" data-name="Trazado 213147" d="M97.783,298.393l13.754-6.543,1.13-5.147-1.13-7.455-7.129,5.716Z" transform="translate(-89.282 -256.062)" fill="#ffdd46"/>
              <g id="Grupo_153262" data-name="Grupo 153262" transform="translate(0 0)">
                <path id="Trazado_213148" data-name="Trazado 213148" d="M256,279.249v12.6l13.754,6.543Z" transform="translate(-233.745 -256.062)" fill="#fcbe00"/>
                <path id="Trazado_213149" data-name="Trazado 213149" d="M278.255,28.7l-14.973-2.791L256,12.53V35.717Z" transform="translate(-233.745 -12.53)" fill="#fcbe00"/>
                <path id="Trazado_213150" data-name="Trazado 213150" d="M0,198.524l10.473,11.059L8.5,224.686l13.754-19.145Z" transform="translate(0 -182.355)" fill="#fcbe00"/>
              </g>
            </g>
          </g>
        </g>
        <path id="Trazado_606279" data-name="Trazado 606279" d="M12.794,16H10.3V3.914h2.49Zm4.358-8.981.075,1.038a3.136,3.136,0,0,1,2.582-1.2,2.606,2.606,0,0,1,2.125.838,3.912,3.912,0,0,1,.714,2.507V16h-2.4V10.256a1.556,1.556,0,0,0-.332-1.108,1.486,1.486,0,0,0-1.1-.344,1.65,1.65,0,0,0-1.519.863V16h-2.4V7.019ZM27.337,4.811V7.019h1.536v1.76H27.337v4.482a1.07,1.07,0,0,0,.191.714.959.959,0,0,0,.73.216,3.826,3.826,0,0,0,.706-.058V15.95a4.938,4.938,0,0,1-1.453.216,2.29,2.29,0,0,1-2.573-2.548V8.778H23.627V7.019h1.312V4.811Zm7.006,11.355a4.409,4.409,0,0,1-3.217-1.212,4.308,4.308,0,0,1-1.241-3.229v-.232a5.426,5.426,0,0,1,.523-2.42A3.838,3.838,0,0,1,31.89,7.429a4.159,4.159,0,0,1,2.187-.577,3.727,3.727,0,0,1,2.9,1.162,4.722,4.722,0,0,1,1.058,3.3v.979H32.318a2.229,2.229,0,0,0,.7,1.411,2.12,2.12,0,0,0,1.482.531,2.589,2.589,0,0,0,2.167-1l1.179,1.32a3.6,3.6,0,0,1-1.461,1.191A4.793,4.793,0,0,1,34.343,16.166Zm-.274-7.379a1.5,1.5,0,0,0-1.158.484,2.5,2.5,0,0,0-.569,1.384H35.68v-.192a1.786,1.786,0,0,0-.432-1.238A1.547,1.547,0,0,0,34.069,8.787Zm10.376.481a6.517,6.517,0,0,0-.863-.066,1.757,1.757,0,0,0-1.785.921V16H39.4V7.019h2.266l.066,1.071a2.223,2.223,0,0,1,2-1.237,2.514,2.514,0,0,1,.747.108Zm6.2,0a6.517,6.517,0,0,0-.863-.066A1.757,1.757,0,0,0,48,10.123V16H45.6V7.019h2.266l.066,1.071a2.223,2.223,0,0,1,2-1.237,2.514,2.514,0,0,1,.747.108Zm.481,2.158a5.327,5.327,0,0,1,.515-2.382,3.767,3.767,0,0,1,1.482-1.619,4.323,4.323,0,0,1,2.245-.573,4.09,4.09,0,0,1,2.968,1.112,4.464,4.464,0,0,1,1.282,3.021l.017.614a4.694,4.694,0,0,1-1.154,3.316,4.472,4.472,0,0,1-6.2,0,4.777,4.777,0,0,1-1.158-3.387Zm2.4.17a3.357,3.357,0,0,0,.481,1.958,1.73,1.73,0,0,0,2.739.008,3.674,3.674,0,0,0,.49-2.141,3.324,3.324,0,0,0-.49-1.945,1.592,1.592,0,0,0-1.378-.69,1.566,1.566,0,0,0-1.361.686A3.735,3.735,0,0,0,53.526,11.6Zm7.238-.154a5.264,5.264,0,0,1,.984-3.329A3.187,3.187,0,0,1,64.4,6.853a2.8,2.8,0,0,1,2.3,1.013l.1-.847h2.175V15.7a3.839,3.839,0,0,1-.535,2.05,3.439,3.439,0,0,1-1.507,1.328,5.3,5.3,0,0,1-2.274.457,4.925,4.925,0,0,1-1.926-.394,3.418,3.418,0,0,1-1.419-1.017l1.063-1.461a2.81,2.81,0,0,0,2.175,1,2.057,2.057,0,0,0,1.486-.51,1.915,1.915,0,0,0,.531-1.448v-.481a2.775,2.775,0,0,1-2.183.938A3.179,3.179,0,0,1,61.765,14.9a5.262,5.262,0,0,1-1-3.358Zm2.4.179a3.278,3.278,0,0,0,.49,1.916A1.558,1.558,0,0,0,65,14.232a1.666,1.666,0,0,0,1.569-.823V9.626A1.662,1.662,0,0,0,65.015,8.8a1.568,1.568,0,0,0-1.357.707A3.694,3.694,0,0,0,63.164,11.621ZM76.021,16a2.664,2.664,0,0,1-.241-.805,2.9,2.9,0,0,1-2.266.971,3.189,3.189,0,0,1-2.187-.764,2.456,2.456,0,0,1-.867-1.926,2.538,2.538,0,0,1,1.058-2.191,5.222,5.222,0,0,1,3.059-.772h1.1V10a1.48,1.48,0,0,0-.32-1,1.257,1.257,0,0,0-1.009-.374,1.429,1.429,0,0,0-.95.291.987.987,0,0,0-.344.8h-2.4a2.41,2.41,0,0,1,.481-1.444A3.182,3.182,0,0,1,72.5,7.23a4.961,4.961,0,0,1,1.976-.378,3.92,3.92,0,0,1,2.635.834,2.918,2.918,0,0,1,.975,2.345v3.893a4.294,4.294,0,0,0,.357,1.934V16Zm-1.984-1.668a2.066,2.066,0,0,0,.979-.237,1.554,1.554,0,0,0,.664-.635V11.916h-.9q-1.8,0-1.917,1.245l-.008.141a.96.96,0,0,0,.315.739A1.225,1.225,0,0,0,74.038,14.332Zm8.1-7.313.075,1.038a3.136,3.136,0,0,1,2.582-1.2,2.606,2.606,0,0,1,2.125.838,3.912,3.912,0,0,1,.714,2.507V16h-2.4V10.256A1.556,1.556,0,0,0,84.9,9.148,1.486,1.486,0,0,0,83.8,8.8a1.65,1.65,0,0,0-1.519.863V16h-2.4V7.019ZM92.324,4.811V7.019H93.86v1.76H92.324v4.482a1.07,1.07,0,0,0,.191.714.959.959,0,0,0,.73.216,3.826,3.826,0,0,0,.706-.058V15.95a4.938,4.938,0,0,1-1.453.216,2.29,2.29,0,0,1-2.573-2.548V8.778H88.614V7.019h1.312V4.811ZM99.33,16.166a4.409,4.409,0,0,1-3.217-1.212,4.308,4.308,0,0,1-1.241-3.229v-.232a5.426,5.426,0,0,1,.523-2.42,3.838,3.838,0,0,1,1.482-1.644,4.159,4.159,0,0,1,2.187-.577,3.727,3.727,0,0,1,2.9,1.162,4.722,4.722,0,0,1,1.058,3.3v.979H97.3a2.229,2.229,0,0,0,.7,1.411,2.12,2.12,0,0,0,1.482.531,2.589,2.589,0,0,0,2.167-1l1.179,1.32a3.6,3.6,0,0,1-1.461,1.191A4.793,4.793,0,0,1,99.33,16.166Zm-.274-7.379A1.5,1.5,0,0,0,97.9,9.27a2.5,2.5,0,0,0-.569,1.384h3.337v-.192a1.786,1.786,0,0,0-.432-1.238A1.547,1.547,0,0,0,99.056,8.787Z" transform="translate(-4207.533 -3462.229)" fill="#12263f"/>
        <g id="Grupo_875881" data-name="Grupo 875881" transform="translate(-4179.669 -3525.015)">
          <ellipse id="Elipse_5593" data-name="Elipse 5593" cx="26.972" cy="2.187" rx="26.972" ry="2.187" transform="translate(1.458 54.674)" fill="#e8e8e8"/>
          <g id="Grupo_875879" data-name="Grupo 875879" transform="translate(0 0)">
            <g id="cow-2" data-name="cow" transform="translate(0 0)">
              <g id="Grupo_153280-2" data-name="Grupo 153280">
                <g id="Grupo_153279-2" data-name="Grupo 153279">
                  <g id="Grupo_153278-2" data-name="Grupo 153278">
                    <g id="Grupo_153277-2" data-name="Grupo 153277">
                      <g id="Grupo_153276-2" data-name="Grupo 153276">
                        <g id="Grupo_153275-2" data-name="Grupo 153275">
                          <g id="Grupo_153274-2" data-name="Grupo 153274">
                            <ellipse id="Elipse_4914-2" data-name="Elipse 4914" cx="28.43" cy="28.43" rx="28.43" ry="28.43" fill="#a3bfe4"/>
                          </g>
                        </g>
                      </g>
                    </g>
                  </g>
                </g>
              </g>
              <path id="Trazado_213181-2" data-name="Trazado 213181" d="M150.795,86.053a28.681,28.681,0,0,0-.318-4.271l-19.72-16.874,1.34,20.8-4.791-7.529L123.011,87.3l-5.061,4.448,2.644,5.905-6.862,11.12,6.862,5.68q.867.052,1.747.053A28.455,28.455,0,0,0,150.795,86.053Z" transform="translate(-93.869 -57.574)" fill="#8caad1"/>
            </g>
            <g id="signo-de-interrogacion" transform="translate(7.837 4.72)">
              <g id="Grupo_153266" data-name="Grupo 153266" transform="translate(0 0)">
                <g id="Grupo_153265" data-name="Grupo 153265" transform="translate(0 0)">
                  <g id="Grupo_153264" data-name="Grupo 153264">
                    <path id="Trazado_213151" data-name="Trazado 213151" d="M191.711,59.636l8.342-6.535,1.3-11.376-9.644-5.309L187.8,41.8a6.621,6.621,0,0,1-.758,12.164,9.4,9.4,0,0,0-6.235,8.858v1.71a4.032,4.032,0,0,0,4.031,4.032h5.9Z" transform="translate(-170.153 -33.037)" fill="#fe9738"/>
                    <path id="Trazado_213152" data-name="Trazado 213152" d="M75.982,18.717h-5.9a4.032,4.032,0,0,1-4.032-4.032A14.673,14.673,0,0,1,81.716.036h5.9l-4.2,4.236" transform="translate(-66.054 -0.005)" fill="#fe9738"/>
                  </g>
                  <path id="Trazado_213153" data-name="Trazado 213153" d="M190.729,424.763h-5.9a4.032,4.032,0,0,0-4.032,4.032v.033a4.032,4.032,0,0,0,4.032,4.032h5.179" transform="translate(-170.151 -385.341)" fill="#fe9738"/>
                </g>
              </g>
              <g id="Grupo_153272" data-name="Grupo 153272" transform="translate(5.896 0)">
                <g id="Grupo_153271" data-name="Grupo 153271" transform="translate(0 0)">
                  <g id="Grupo_153268" data-name="Grupo 153268" transform="translate(0 0)">
                    <g id="Grupo_153267" data-name="Grupo 153267">
                      <path id="Trazado_213154" data-name="Trazado 213154" d="M144.265,35.528a4.032,4.032,0,0,1-4.032-4.032v-1.71a9.4,9.4,0,0,1,6.236-8.857,6.62,6.62,0,1,0-8.758-7.171,6.741,6.741,0,0,0-.064.928,4.032,4.032,0,0,1-8.063,0,14.682,14.682,0,1,1,19.573,13.845,1.321,1.321,0,0,0-.86,1.256V31.5A4.032,4.032,0,0,1,144.265,35.528Z" transform="translate(-129.584 -0.005)" fill="#ffd15b"/>
                    </g>
                    <path id="Trazado_213155" data-name="Trazado 213155" d="M248.362,432.86a4.032,4.032,0,0,1-4.032-4.032V428.8a4.032,4.032,0,1,1,8.063,0v.033A4.031,4.031,0,0,1,248.362,432.86Z" transform="translate(-233.68 -385.342)" fill="#ffd15b"/>
                  </g>
                  <g id="Grupo_153270" data-name="Grupo 153270">
                    <g id="Grupo_153269" data-name="Grupo 153269">
                      <path id="Trazado_213156" data-name="Trazado 213156" d="M133.288,12.64a14.7,14.7,0,0,0-.141,2.042A4.029,4.029,0,0,0,135.4,18.3a4.032,4.032,0,0,1-5.814-3.617A14.684,14.684,0,0,1,145.246.032q.411.027.816.079A14.749,14.749,0,0,0,133.288,12.64Z" transform="translate(-129.583 0)" fill="#ffc344"/>
                      <path id="Trazado_213157" data-name="Trazado 213157" d="M254.138,99.744A9.4,9.4,0,0,0,247.9,108.6v1.71a4.03,4.03,0,0,0,2.251,3.617,4.032,4.032,0,0,1-5.814-3.617V108.6a9.4,9.4,0,0,1,6.236-8.858,6.621,6.621,0,0,0-.411-12.614,6.616,6.616,0,0,1,3.973,12.614Z" transform="translate(-233.688 -78.821)" fill="#ffc344"/>
                    </g>
                    <path id="Trazado_213158" data-name="Trazado 213158" d="M250.152,432.436a4.032,4.032,0,0,1-5.814-3.617v-.034a4.032,4.032,0,0,1,5.814-3.617,4.035,4.035,0,0,0-2.251,3.617v.034A4.03,4.03,0,0,0,250.152,432.436Z" transform="translate(-233.688 -385.332)" fill="#ffc344"/>
                  </g>
                </g>
              </g>
            </g>
          </g>
        </g>
        <path id="Trazado_606281" data-name="Trazado 606281" d="M42.9,13l2.739-9.089h2.772L44.2,16H41.6L37.41,3.914h2.764Zm11.314,3a2.664,2.664,0,0,1-.241-.805,2.9,2.9,0,0,1-2.266.971,3.189,3.189,0,0,1-2.187-.764,2.456,2.456,0,0,1-.867-1.926,2.538,2.538,0,0,1,1.058-2.191,5.222,5.222,0,0,1,3.059-.772h1.1V10a1.48,1.48,0,0,0-.32-1,1.257,1.257,0,0,0-1.009-.374,1.429,1.429,0,0,0-.95.291.987.987,0,0,0-.344.8h-2.4a2.41,2.41,0,0,1,.481-1.444A3.182,3.182,0,0,1,50.692,7.23a4.961,4.961,0,0,1,1.976-.378,3.92,3.92,0,0,1,2.635.834,2.918,2.918,0,0,1,.975,2.345v3.893a4.294,4.294,0,0,0,.357,1.934V16Zm-1.984-1.668a2.066,2.066,0,0,0,.979-.237,1.554,1.554,0,0,0,.664-.635V11.916h-.9q-1.8,0-1.917,1.245l-.008.141a.96.96,0,0,0,.315.739A1.225,1.225,0,0,0,52.227,14.332Zm9.629-.1a1.573,1.573,0,0,0,1.079-.365,1.28,1.28,0,0,0,.432-.971h2.25a3.077,3.077,0,0,1-.5,1.673,3.286,3.286,0,0,1-1.341,1.179,4.2,4.2,0,0,1-1.88.419,3.9,3.9,0,0,1-3.038-1.224,4.845,4.845,0,0,1-1.112-3.383V11.4a4.79,4.79,0,0,1,1.1-3.312,3.854,3.854,0,0,1,3.03-1.237,3.778,3.778,0,0,1,2.7.959,3.4,3.4,0,0,1,1.033,2.552h-2.25a1.648,1.648,0,0,0-.432-1.139,1.6,1.6,0,0,0-2.362.173,3.541,3.541,0,0,0-.427,1.983v.249a3.586,3.586,0,0,0,.423,2A1.463,1.463,0,0,0,61.856,14.232ZM72.191,16a2.664,2.664,0,0,1-.241-.805,2.9,2.9,0,0,1-2.266.971A3.189,3.189,0,0,1,67.5,15.4a2.456,2.456,0,0,1-.867-1.926,2.538,2.538,0,0,1,1.058-2.191,5.222,5.222,0,0,1,3.059-.772h1.1V10a1.48,1.48,0,0,0-.32-1,1.257,1.257,0,0,0-1.009-.374,1.429,1.429,0,0,0-.95.291.987.987,0,0,0-.344.8h-2.4a2.41,2.41,0,0,1,.481-1.444A3.182,3.182,0,0,1,68.671,7.23a4.961,4.961,0,0,1,1.976-.378,3.92,3.92,0,0,1,2.635.834,2.918,2.918,0,0,1,.975,2.345v3.893a4.294,4.294,0,0,0,.357,1.934V16Zm-1.984-1.668a2.066,2.066,0,0,0,.979-.237,1.554,1.554,0,0,0,.664-.635V11.916h-.9q-1.8,0-1.917,1.245l-.008.141a.96.96,0,0,0,.315.739A1.225,1.225,0,0,0,70.207,14.332Z" transform="translate(-4401.903 -3341.937)" fill="#12263f"/>
        <path id="Trazado_606280" data-name="Trazado 606280" d="M38.954,11.742V16h-2.49V3.914h4.715a5.455,5.455,0,0,1,2.395.5,3.67,3.67,0,0,1,1.59,1.415,3.946,3.946,0,0,1,.556,2.088,3.47,3.47,0,0,1-1.216,2.8,5.065,5.065,0,0,1-3.366,1.025Zm0-2.017h2.225a2.187,2.187,0,0,0,1.507-.465A1.691,1.691,0,0,0,43.2,7.932,1.994,1.994,0,0,0,42.681,6.5a1.953,1.953,0,0,0-1.444-.564H38.954ZM51.3,16.166a4.409,4.409,0,0,1-3.217-1.212,4.308,4.308,0,0,1-1.241-3.229v-.232a5.426,5.426,0,0,1,.523-2.42,3.838,3.838,0,0,1,1.482-1.644,4.159,4.159,0,0,1,2.187-.577,3.727,3.727,0,0,1,2.9,1.162,4.722,4.722,0,0,1,1.058,3.3v.979H49.272a2.229,2.229,0,0,0,.7,1.411,2.12,2.12,0,0,0,1.482.531,2.589,2.589,0,0,0,2.167-1l1.179,1.32a3.6,3.6,0,0,1-1.461,1.191A4.793,4.793,0,0,1,51.3,16.166Zm-.274-7.379a1.5,1.5,0,0,0-1.158.484,2.5,2.5,0,0,0-.569,1.384h3.337v-.192A1.786,1.786,0,0,0,52.2,9.224,1.547,1.547,0,0,0,51.024,8.787ZM61.4,9.268a6.517,6.517,0,0,0-.863-.066,1.757,1.757,0,0,0-1.785.921V16h-2.4V7.019h2.266l.066,1.071a2.223,2.223,0,0,1,2-1.237,2.514,2.514,0,0,1,.747.108Zm6.2,0a6.517,6.517,0,0,0-.863-.066,1.757,1.757,0,0,0-1.785.921V16h-2.4V7.019H64.82l.066,1.071a2.223,2.223,0,0,1,2-1.237,2.514,2.514,0,0,1,.747.108Zm.481,2.158A5.326,5.326,0,0,1,68.6,9.044a3.768,3.768,0,0,1,1.482-1.619,4.323,4.323,0,0,1,2.245-.573,4.09,4.09,0,0,1,2.968,1.112,4.464,4.464,0,0,1,1.282,3.021l.017.614a4.694,4.694,0,0,1-1.154,3.316,4.472,4.472,0,0,1-6.2,0,4.777,4.777,0,0,1-1.158-3.387Zm2.4.17a3.357,3.357,0,0,0,.481,1.958,1.73,1.73,0,0,0,2.739.008,3.674,3.674,0,0,0,.49-2.141,3.324,3.324,0,0,0-.49-1.945,1.592,1.592,0,0,0-1.378-.69,1.566,1.566,0,0,0-1.361.686A3.736,3.736,0,0,0,70.481,11.6Z" transform="translate(-4207.533 -3341.937)" fill="#12263f"/>
        <g id="Grupo_875889" data-name="Grupo 875889" transform="translate(-4374.04 -3405.141)">
          <ellipse id="Elipse_4912" data-name="Elipse 4912" cx="26.972" cy="2.551" rx="26.972" ry="2.551" transform="translate(1.458 54.674)" fill="#e8e8e8"/>
          <g id="cow-3" data-name="cow" transform="translate(0 0)">
            <g id="Grupo_153280-3" data-name="Grupo 153280" transform="translate(0 0)">
              <g id="Grupo_153279-3" data-name="Grupo 153279">
                <g id="Grupo_153278-3" data-name="Grupo 153278">
                  <g id="Grupo_153277-3" data-name="Grupo 153277">
                    <g id="Grupo_153276-3" data-name="Grupo 153276">
                      <g id="Grupo_153275-3" data-name="Grupo 153275">
                        <g id="Grupo_153274-3" data-name="Grupo 153274">
                          <ellipse id="Elipse_4914-3" data-name="Elipse 4914" cx="28.43" cy="28.43" rx="28.43" ry="28.43" fill="#a3bfe4"/>
                        </g>
                      </g>
                    </g>
                  </g>
                </g>
              </g>
            </g>
            <path id="Trazado_213181-3" data-name="Trazado 213181" d="M148.275,86.02a28.681,28.681,0,0,0-.318-4.271L130.972,64.764l-1.395,20.908L108.669,64.764l.777,17.329L102.791,84.1l14.128,14.128-7.67,7.372,8.824,8.824q.867.052,1.747.053A28.455,28.455,0,0,0,148.275,86.02Z" transform="translate(-91.34 -57.373)" fill="#8caad1"/>
            <g id="Grupo_153281" data-name="Grupo 153281" transform="translate(15.046 7.391)">
              <path id="Trazado_213182" data-name="Trazado 213182" d="M143.061,74.008s-5.149-2.095-5.641-9.244c0,0-5.786,8.753,1.066,14S143.061,74.008,143.061,74.008Z" transform="translate(-135.137 -64.764)" fill="#555a66"/>
            </g>
            <g id="Grupo_153282" data-name="Grupo 153282" transform="translate(8.438 18.219)">
              <path id="Trazado_213183" data-name="Trazado 213183" d="M85.7,166.87s-3.935-5.042-9.959-4.673c0,0-1.23,9.386,8.976,11.394Z" transform="translate(-75.69 -162.177)" fill="#ffb89c"/>
            </g>
            <g id="Grupo_153283" data-name="Grupo 153283" transform="translate(33.627 7.391)">
              <path id="Trazado_213184" data-name="Trazado 213184" d="M302.673,74.008s5.149-2.095,5.641-9.244c0,0,5.786,8.753-1.066,14S302.673,74.008,302.673,74.008Z" transform="translate(-302.31 -64.764)" fill="#333940"/>
            </g>
            <g id="Grupo_153284" data-name="Grupo 153284" transform="translate(38.516 18.219)">
              <path id="Trazado_213185" data-name="Trazado 213185" d="M346.291,166.87s3.935-5.042,9.959-4.673c0,0,1.23,9.386-8.976,11.394Z" transform="translate(-346.291 -162.177)" fill="#ff936b"/>
            </g>
            <g id="Grupo_153285" data-name="Grupo 153285" transform="translate(15.872 13.976)">
              <path id="Trazado_213186" data-name="Trazado 213186" d="M156.545,124h-3.573a10.4,10.4,0,0,0-10.317,11.738l2.046,15.8H165.65l1.252-9.67Z" transform="translate(-142.568 -124.003)" fill="#fff"/>
            </g>
            <g id="Grupo_153286" data-name="Grupo 153286" transform="translate(28.48 13.976)">
              <path id="Trazado_213187" data-name="Trazado 213187" d="M257.369,124H256v27.542h10.474l1.252-9.67-.713-6.027Z" transform="translate(-256 -124.003)" fill="#e9edf5"/>
            </g>
            <g id="Grupo_153287" data-name="Grupo 153287" transform="translate(16.312 37.255)">
              <path id="Trazado_213188" data-name="Trazado 213188" d="M165.279,346.09H152.12a5.588,5.588,0,0,1-5.588-5.588V339.03a5.588,5.588,0,0,1,5.588-5.588h13.16a5.588,5.588,0,0,1,5.588,5.588V340.5A5.588,5.588,0,0,1,165.279,346.09Z" transform="translate(-146.532 -333.442)" fill="#ffb89c"/>
            </g>
            <g id="Grupo_153288" data-name="Grupo 153288" transform="translate(28.48 37.255)">
              <path id="Trazado_213189" data-name="Trazado 213189" d="M262.58,333.442H256V346.09h6.58a5.588,5.588,0,0,0,5.588-5.588V339.03A5.588,5.588,0,0,0,262.58,333.442Z" transform="translate(-256 -333.442)" fill="#ff936b"/>
            </g>
            <g id="Grupo_153291" data-name="Grupo 153291" transform="translate(21.187 41.845)">
              <g id="Grupo_153289" data-name="Grupo 153289">
                <ellipse id="Elipse_4915" data-name="Elipse 4915" cx="2.146" cy="2.146" rx="2.146" ry="2.146" fill="#555a66"/>
              </g>
              <g id="Grupo_153290" data-name="Grupo 153290" transform="translate(10.295)">
                <ellipse id="Elipse_4916" data-name="Elipse 4916" cx="2.146" cy="2.146" rx="2.146" ry="2.146" fill="#333940"/>
              </g>
            </g>
            <g id="Grupo_153294" data-name="Grupo 153294" transform="translate(20.806 27.542)">
              <g id="Grupo_153292" data-name="Grupo 153292">
                <ellipse id="Elipse_4917" data-name="Elipse 4917" cx="2.09" cy="2.09" rx="2.09" ry="2.09" fill="#555a66"/>
              </g>
              <g id="Grupo_153293" data-name="Grupo 153293" transform="translate(11.167)">
                <ellipse id="Elipse_4918" data-name="Elipse 4918" cx="2.09" cy="2.09" rx="2.09" ry="2.09" fill="#333940"/>
              </g>
            </g>
            <g id="Grupo_153295" data-name="Grupo 153295" transform="translate(29.016 13.976)">
              <path id="Trazado_213190" data-name="Trazado 213190" d="M262.492,124h-1.668a7.668,7.668,0,0,1,2.465,3.935c.856,3.607.842,7.049,4.292,7.213,2.066.1,3.564,3.784,4.433,6.724l.794-6.134A10.4,10.4,0,0,0,262.492,124Z" transform="translate(-260.824 -124.003)" fill="#555a66"/>
            </g>
          </g>
        </g>
        <g id="Grupo_875882" data-name="Grupo 875882" transform="translate(-4180.348 -3405.141)">
          <ellipse id="Elipse_4913" data-name="Elipse 4913" cx="27.185" cy="2.718" rx="27.185" ry="2.718" transform="translate(0 54.369)" fill="#e8e8e8"/>
          <g id="Grupo_153317" data-name="Grupo 153317" transform="translate(0.68 0)">
            <g id="perro" transform="translate(0 0)">
              <g id="XMLID_181_" transform="translate(0 0)">
                <g id="XMLID_182_">
                  <g id="XMLID_183_">
                    <g id="XMLID_184_">
                      <g id="XMLID_185_">
                        <g id="XMLID_186_">
                          <g id="XMLID_187_">
                            <g id="XMLID_188_">
                              <g id="XMLID_189_">
                                <g id="XMLID_190_">
                                  <g id="XMLID_191_">
                                    <g id="XMLID_192_">
                                      <g id="XMLID_193_">
                                        <g id="XMLID_194_">
                                          <ellipse id="XMLID_195_" cx="28.884" cy="28.544" rx="28.884" ry="28.544" fill="#a3bfe4"/>
                                        </g>
                                      </g>
                                    </g>
                                  </g>
                                </g>
                              </g>
                            </g>
                          </g>
                        </g>
                      </g>
                    </g>
                  </g>
                </g>
              </g>
              <path id="Trazado_213191" data-name="Trazado 213191" d="M132.078,149.7a28.483,28.483,0,0,0-1.989-10.491l-2.889-2.857L87.364,139.5l-2.989,8.938,6.662,6.66,6.287,15.716,7.414,7.414A28.557,28.557,0,0,0,132.078,149.7Z" transform="translate(-74.794 -121.354)" fill="#8caad1"/>
              <g id="Grupo_153304" data-name="Grupo 153304" transform="translate(4.56 10.733)">
                <g id="Grupo_153298" data-name="Grupo 153298">
                  <g id="Grupo_153296" data-name="Grupo 153296">
                    <path id="Trazado_213192" data-name="Trazado 213192" d="M122.045,104.994s-5.35-4.341-7.08-4.13-3.8,6.244-3.8,6.244,3.043,5.473,4.144,7.967Z" transform="translate(-103.158 -100.551)" fill="#b56f40"/>
                    <path id="Trazado_213193" data-name="Trazado 213193" d="M52.593,98.788a4.418,4.418,0,0,0-3.851-.449,48.193,48.193,0,0,0-7.538,2.927c-2.3,1.145-2.3,3.319-.766,6.545,1.069,2.248,3.817,7.8,5,7.048.563-.358,3.89-9.708,4.576-11.537C50.582,101.809,52.38,99.422,52.593,98.788Z" transform="translate(-39.368 -98.119)" fill="#cc8656"/>
                  </g>
                  <g id="Grupo_153297" data-name="Grupo 153297" transform="translate(29.446)">
                    <path id="Trazado_213194" data-name="Trazado 213194" d="M303.328,104.994s5.35-4.341,7.08-4.13,3.8,6.244,3.8,6.244-3.043,5.473-4.144,7.967Z" transform="translate(-303.328 -100.551)" fill="#a35d2e"/>
                    <path id="Trazado_213195" data-name="Trazado 213195" d="M354.079,98.788a4.418,4.418,0,0,1,3.851-.449,48.2,48.2,0,0,1,7.538,2.927c2.3,1.145,2.3,3.319.766,6.545-1.069,2.248-3.817,7.8-5,7.048-.563-.358-3.89-9.708-4.576-11.537C356.09,101.809,354.292,99.422,354.079,98.788Z" transform="translate(-348.418 -98.119)" fill="#b56f40"/>
                  </g>
                </g>
                <g id="Grupo_153302" data-name="Grupo 153302" transform="translate(10.239 2.474)">
                  <path id="Trazado_213196" data-name="Trazado 213196" d="M168.777,143.026q-.221.457-.483.956c-3.934,7.481-2.512,14.394-12.239,14.394s-8.305-6.913-12.239-14.394q-.263-.5-.483-.956a53.389,53.389,0,0,0,3.3-11.242c.995-5.585,6.78-11.242,6.78-11.242a14.266,14.266,0,0,1,5.29,0s5.626,5.657,6.621,11.242A48.236,48.236,0,0,0,168.777,143.026Z" transform="translate(-141.974 -120.295)" fill="#fcf0e5"/>
                  <path id="Trazado_213197" data-name="Trazado 213197" d="M268.876,143.03c-.147.306-.308.624-.483.957-3.935,7.481-2.513,14.394-12.24,14.394H256V120.3h.153a14.173,14.173,0,0,1,2.645.247s5.627,5.657,6.622,11.242A48.237,48.237,0,0,0,268.876,143.03Z" transform="translate(-242.073 -120.299)" fill="#eaddd3"/>
                  <g id="Grupo_153299" data-name="Grupo 153299" transform="translate(9.206 25.339)">
                    <path id="Trazado_213198" data-name="Trazado 213198" d="M218.4,347.437c-2.833,0-5.323.174-4.593,3.467.472,2.129,3.477,3.65,4.593,3.65s4.12-1.521,4.592-3.65C223.721,347.611,221.231,347.437,218.4,347.437Z" transform="translate(-213.677 -347.437)" fill="#70695e"/>
                  </g>
                  <g id="Grupo_153300" data-name="Grupo 153300" transform="translate(13.927 25.339)">
                    <path id="Trazado_213199" data-name="Trazado 213199" d="M260.593,350.907c-.472,2.128-3.477,3.649-4.593,3.649V347.44c2.832,0,5.323.173,4.593,3.467Z" transform="translate(-256 -347.44)" fill="#5b554a"/>
                  </g>
                  <g id="Grupo_153301" data-name="Grupo 153301" transform="translate(0 0.247)">
                    <path id="Trazado_213200" data-name="Trazado 213200" d="M141.073,142.185c-2.185,1.383-6.3,2.395-8.563,2.81-3.164-6.536.034-6.824,1.183-13.268a10.877,10.877,0,0,1,9.048-9.216C143.055,127.469,144.8,139.828,141.073,142.185Z" transform="translate(-131.15 -122.511)" fill="#cc8656"/>
                    <path id="Trazado_213201" data-name="Trazado 213201" d="M284.784,145c-2.265-.415-6.31-1.383-8.495-2.767-3.725-2.356-2.05-14.759-1.735-19.717a10.877,10.877,0,0,1,9.048,9.216C284.75,138.172,287.948,138.459,284.784,145Z" transform="translate(-257.981 -122.512)" fill="#b56f40"/>
                  </g>
                </g>
                <g id="Grupo_153303" data-name="Grupo 153303" transform="translate(14.225 14.185)">
                  <ellipse id="Elipse_4919" data-name="Elipse 4919" cx="1.791" cy="1.791" rx="1.791" ry="1.791" transform="translate(0 2.105) rotate(-35.851)" fill="#5b554a"/>
                  <ellipse id="Elipse_4920" data-name="Elipse 4920" cx="1.791" cy="1.791" rx="1.791" ry="1.791" transform="translate(14.925 2.099) rotate(-35.851)" fill="#3a352e"/>
                </g>
              </g>
            </g>
          </g>
        </g>
      </g>
      <rect id="Rect치ngulo_345381" data-name="Rect치ngulo 345381" width="271" height="27" rx="13.5" transform="translate(-4387 -3246)" fill="#d0def1"/>
      <path id="Trazado_606286" data-name="Trazado 606286" d="M35.042,11.974a4.277,4.277,0,0,1-1.44,3.071,5.058,5.058,0,0,1-3.424,1.121A4.548,4.548,0,0,1,26.521,14.6a6.416,6.416,0,0,1-1.332-4.3V9.567A7.245,7.245,0,0,1,25.8,6.5a4.6,4.6,0,0,1,1.756-2.038,4.918,4.918,0,0,1,2.652-.71,4.927,4.927,0,0,1,3.37,1.121,4.6,4.6,0,0,1,1.478,3.146h-2.49a2.524,2.524,0,0,0-.652-1.7,2.413,2.413,0,0,0-1.706-.527,2.116,2.116,0,0,0-1.864.892,5,5,0,0,0-.635,2.768v.913a5.352,5.352,0,0,0,.594,2.864,2.077,2.077,0,0,0,1.872.9,2.458,2.458,0,0,0,1.722-.527,2.381,2.381,0,0,0,.652-1.631Zm6.524-2.706A6.517,6.517,0,0,0,40.7,9.2a1.757,1.757,0,0,0-1.785.921V16h-2.4V7.019h2.266l.066,1.071a2.223,2.223,0,0,1,2-1.237,2.514,2.514,0,0,1,.747.108Zm5.13,6.9a4.409,4.409,0,0,1-3.217-1.212,4.308,4.308,0,0,1-1.241-3.229v-.232a5.426,5.426,0,0,1,.523-2.42,3.838,3.838,0,0,1,1.482-1.644,4.159,4.159,0,0,1,2.187-.577,3.727,3.727,0,0,1,2.9,1.162,4.722,4.722,0,0,1,1.058,3.3v.979H44.671a2.229,2.229,0,0,0,.7,1.411,2.12,2.12,0,0,0,1.482.531,2.589,2.589,0,0,0,2.167-1l1.179,1.32a3.6,3.6,0,0,1-1.461,1.191A4.793,4.793,0,0,1,46.7,16.166Zm-.274-7.379a1.5,1.5,0,0,0-1.158.484,2.5,2.5,0,0,0-.569,1.384h3.337v-.192A1.786,1.786,0,0,0,47.6,9.224,1.547,1.547,0,0,0,46.422,8.787Zm9.064,5.445a1.573,1.573,0,0,0,1.079-.365A1.28,1.28,0,0,0,57,12.9h2.25a3.077,3.077,0,0,1-.5,1.673,3.286,3.286,0,0,1-1.341,1.179,4.2,4.2,0,0,1-1.88.419,3.9,3.9,0,0,1-3.038-1.224,4.845,4.845,0,0,1-1.112-3.383V11.4a4.79,4.79,0,0,1,1.1-3.312,3.854,3.854,0,0,1,3.03-1.237,3.778,3.778,0,0,1,2.7.959,3.4,3.4,0,0,1,1.033,2.552H57a1.648,1.648,0,0,0-.432-1.139A1.6,1.6,0,0,0,54.2,9.4a3.541,3.541,0,0,0-.427,1.983v.249a3.586,3.586,0,0,0,.423,2A1.463,1.463,0,0,0,55.487,14.232ZM63.148,16H60.741V7.019h2.407ZM60.6,4.694a1.181,1.181,0,0,1,.361-.888,1.556,1.556,0,0,1,1.963,0,1.175,1.175,0,0,1,.365.888,1.178,1.178,0,0,1-.369.9,1.539,1.539,0,0,1-1.951,0A1.178,1.178,0,0,1,60.6,4.694Zm6.773,2.324.075,1a3.156,3.156,0,0,1,2.582-1.17,2.4,2.4,0,0,1,2.382,1.37,3.084,3.084,0,0,1,2.7-1.37,2.679,2.679,0,0,1,2.175.851A3.911,3.911,0,0,1,78,10.264V16H75.591V10.272a1.71,1.71,0,0,0-.3-1.116A1.324,1.324,0,0,0,74.238,8.8a1.5,1.5,0,0,0-1.494,1.029L72.752,16h-2.4V10.281a1.689,1.689,0,0,0-.307-1.129A1.337,1.337,0,0,0,69,8.8a1.555,1.555,0,0,0-1.478.847V16h-2.4V7.019Zm15,8.981H79.966V7.019h2.407ZM79.825,4.694a1.181,1.181,0,0,1,.361-.888,1.556,1.556,0,0,1,1.963,0,1.175,1.175,0,0,1,.365.888,1.178,1.178,0,0,1-.369.9,1.539,1.539,0,0,1-1.951,0A1.178,1.178,0,0,1,79.825,4.694Zm8.658,11.472a4.409,4.409,0,0,1-3.217-1.212,4.308,4.308,0,0,1-1.241-3.229v-.232a5.426,5.426,0,0,1,.523-2.42,3.838,3.838,0,0,1,1.482-1.644,4.159,4.159,0,0,1,2.187-.577,3.727,3.727,0,0,1,2.9,1.162,4.722,4.722,0,0,1,1.058,3.3v.979H86.457a2.229,2.229,0,0,0,.7,1.411,2.12,2.12,0,0,0,1.482.531,2.589,2.589,0,0,0,2.167-1l1.179,1.32a3.6,3.6,0,0,1-1.461,1.191A4.793,4.793,0,0,1,88.482,16.166Zm-.274-7.379a1.5,1.5,0,0,0-1.158.484,2.5,2.5,0,0,0-.569,1.384h3.337v-.192a1.786,1.786,0,0,0-.432-1.238A1.547,1.547,0,0,0,88.208,8.787Zm7.537-1.768.075,1.038a3.136,3.136,0,0,1,2.582-1.2,2.606,2.606,0,0,1,2.125.838,3.912,3.912,0,0,1,.714,2.507V16h-2.4V10.256a1.556,1.556,0,0,0-.332-1.108,1.486,1.486,0,0,0-1.1-.344,1.65,1.65,0,0,0-1.519.863V16h-2.4V7.019Zm10.185-2.208V7.019h1.536v1.76h-1.536v4.482a1.07,1.07,0,0,0,.191.714.959.959,0,0,0,.73.216,3.826,3.826,0,0,0,.706-.058V15.95a4.938,4.938,0,0,1-1.453.216,2.29,2.29,0,0,1-2.573-2.548V8.778H102.22V7.019h1.312V4.811Zm2.25,6.616a5.326,5.326,0,0,1,.515-2.382,3.768,3.768,0,0,1,1.482-1.619,4.323,4.323,0,0,1,2.245-.573,4.09,4.09,0,0,1,2.968,1.112,4.464,4.464,0,0,1,1.282,3.021l.017.614a4.694,4.694,0,0,1-1.154,3.316,4.472,4.472,0,0,1-6.2,0,4.777,4.777,0,0,1-1.158-3.387Zm2.4.17a3.357,3.357,0,0,0,.481,1.958,1.73,1.73,0,0,0,2.739.008,3.674,3.674,0,0,0,.49-2.141,3.324,3.324,0,0,0-.49-1.945,1.592,1.592,0,0,0-1.378-.69,1.566,1.566,0,0,0-1.361.686A3.736,3.736,0,0,0,110.579,11.6Zm11.447-.154a5.413,5.413,0,0,1,.942-3.345,3.057,3.057,0,0,1,2.577-1.245,2.751,2.751,0,0,1,2.167.979V3.25h2.407V16h-2.167l-.116-.955a2.823,2.823,0,0,1-2.308,1.121,3.049,3.049,0,0,1-2.544-1.249A5.587,5.587,0,0,1,122.026,11.443Zm2.4.179a3.546,3.546,0,0,0,.44,1.937,1.433,1.433,0,0,0,1.278.673,1.605,1.605,0,0,0,1.569-.939V9.743A1.582,1.582,0,0,0,126.16,8.8Q124.425,8.8,124.425,11.621Zm11.688,4.545a4.409,4.409,0,0,1-3.217-1.212,4.308,4.308,0,0,1-1.241-3.229v-.232a5.426,5.426,0,0,1,.523-2.42,3.838,3.838,0,0,1,1.482-1.644,4.159,4.159,0,0,1,2.187-.577,3.727,3.727,0,0,1,2.9,1.162,4.722,4.722,0,0,1,1.058,3.3v.979h-5.719a2.228,2.228,0,0,0,.7,1.411,2.12,2.12,0,0,0,1.482.531,2.589,2.589,0,0,0,2.167-1l1.179,1.32a3.6,3.6,0,0,1-1.461,1.191A4.793,4.793,0,0,1,136.112,16.166Zm-.274-7.379a1.5,1.5,0,0,0-1.158.484,2.5,2.5,0,0,0-.569,1.384h3.337v-.192a1.786,1.786,0,0,0-.432-1.238A1.547,1.547,0,0,0,135.838,8.787ZM143.7,16h-2.407V3.25H143.7Zm14.294-4.408a5.387,5.387,0,0,1-.942,3.324,3.021,3.021,0,0,1-2.544,1.249,2.8,2.8,0,0,1-2.2-.946v4.233h-2.4V7.019h2.225l.083.88a2.819,2.819,0,0,1,2.274-1.046,3.041,3.041,0,0,1,2.582,1.229,5.532,5.532,0,0,1,.921,3.387Zm-2.4-.174a3.535,3.535,0,0,0-.444-1.934,1.446,1.446,0,0,0-1.291-.681,1.571,1.571,0,0,0-1.552.863v3.677a1.6,1.6,0,0,0,1.569.888Q155.594,14.232,155.594,11.418Zm8.932-2.15a6.517,6.517,0,0,0-.863-.066,1.757,1.757,0,0,0-1.785.921V16h-2.4V7.019h2.266l.066,1.071a2.223,2.223,0,0,1,2-1.237,2.514,2.514,0,0,1,.747.108Zm.481,2.158a5.327,5.327,0,0,1,.515-2.382A3.767,3.767,0,0,1,167,7.425a4.323,4.323,0,0,1,2.245-.573,4.09,4.09,0,0,1,2.968,1.112,4.464,4.464,0,0,1,1.282,3.021l.017.614a4.694,4.694,0,0,1-1.154,3.316,4.472,4.472,0,0,1-6.2,0,4.777,4.777,0,0,1-1.158-3.387Zm2.4.17a3.357,3.357,0,0,0,.481,1.958,1.73,1.73,0,0,0,2.739.008,3.674,3.674,0,0,0,.49-2.141,3.324,3.324,0,0,0-.49-1.945,1.592,1.592,0,0,0-1.378-.69,1.566,1.566,0,0,0-1.361.686A3.735,3.735,0,0,0,167.406,11.6Zm7.213-.154a5.413,5.413,0,0,1,.942-3.345,3.057,3.057,0,0,1,2.577-1.245,2.751,2.751,0,0,1,2.167.979V3.25h2.407V16h-2.167l-.116-.955a2.823,2.823,0,0,1-2.308,1.121,3.049,3.049,0,0,1-2.544-1.249A5.587,5.587,0,0,1,174.619,11.443Zm2.4.179a3.546,3.546,0,0,0,.44,1.937,1.433,1.433,0,0,0,1.278.673,1.605,1.605,0,0,0,1.569-.939V9.743a1.582,1.582,0,0,0-1.552-.939Q177.018,8.8,177.018,11.621Zm12.933,3.465a3.008,3.008,0,0,1-2.457,1.079,2.837,2.837,0,0,1-2.2-.83,3.543,3.543,0,0,1-.776-2.432V7.019h2.4v5.809q0,1.4,1.278,1.4a1.732,1.732,0,0,0,1.677-.848V7.019h2.407V16h-2.258Zm7.869-.855a1.573,1.573,0,0,0,1.079-.365,1.28,1.28,0,0,0,.432-.971h2.25a3.077,3.077,0,0,1-.5,1.673,3.286,3.286,0,0,1-1.341,1.179,4.2,4.2,0,0,1-1.88.419,3.9,3.9,0,0,1-3.038-1.224,4.845,4.845,0,0,1-1.112-3.383V11.4a4.79,4.79,0,0,1,1.1-3.312,3.854,3.854,0,0,1,3.03-1.237,3.778,3.778,0,0,1,2.7.959,3.4,3.4,0,0,1,1.033,2.552h-2.25a1.648,1.648,0,0,0-.432-1.139,1.6,1.6,0,0,0-2.362.173,3.541,3.541,0,0,0-.427,1.983v.249a3.586,3.586,0,0,0,.423,2A1.463,1.463,0,0,0,197.82,14.232Zm8-9.421V7.019h1.536v1.76h-1.536v4.482a1.07,1.07,0,0,0,.191.714.959.959,0,0,0,.73.216,3.826,3.826,0,0,0,.706-.058V15.95a4.939,4.939,0,0,1-1.453.216,2.29,2.29,0,0,1-2.573-2.548V8.778h-1.312V7.019h1.312V4.811Zm2.25,6.616a5.327,5.327,0,0,1,.515-2.382,3.767,3.767,0,0,1,1.482-1.619,4.323,4.323,0,0,1,2.245-.573,4.09,4.09,0,0,1,2.968,1.112,4.464,4.464,0,0,1,1.282,3.021l.017.614a4.694,4.694,0,0,1-1.154,3.316,4.472,4.472,0,0,1-6.2,0,4.777,4.777,0,0,1-1.158-3.387Zm2.4.17a3.357,3.357,0,0,0,.481,1.958,1.73,1.73,0,0,0,2.739.008,3.674,3.674,0,0,0,.49-2.141,3.324,3.324,0,0,0-.49-1.945,1.592,1.592,0,0,0-1.378-.69,1.566,1.566,0,0,0-1.361.686A3.735,3.735,0,0,0,210.471,11.6Z" transform="translate(-4372 -3243.564)" fill="#12263f"/>
    </g>
  </g>
</svg>
