<svg xmlns="http://www.w3.org/2000/svg" width="820" height="486" viewBox="0 0 820 486">
  <g id="Grupo_1015539" data-name="Grupo 1015539" transform="translate(3504 4525)">
    <g id="Grupo_1014788" data-name="Grupo 1014788" transform="translate(-3894 -11700)">
      <rect id="Rect치ngulo_345382" data-name="Rect치ngulo 345382" width="820" height="486" transform="translate(390 7175)" fill="#fff"/>
      <g id="Grupo_875875" data-name="Grupo 875875" transform="translate(390 7200.638)">
        <path id="Trazado_606259" data-name="Trazado 606259" d="M9.106,16H.822V14.356l3.91-4.167A9.645,9.645,0,0,0,5.923,8.654a2.467,2.467,0,0,0,.386-1.245A1.846,1.846,0,0,0,5.9,6.143,1.468,1.468,0,0,0,4.74,5.682a1.584,1.584,0,0,0-1.282.56,2.219,2.219,0,0,0-.469,1.473H.581A3.962,3.962,0,0,1,1.108,5.7,3.715,3.715,0,0,1,2.6,4.267a4.529,4.529,0,0,1,2.183-.519,4.288,4.288,0,0,1,2.9.9A3.172,3.172,0,0,1,8.716,7.176,4.064,4.064,0,0,1,8.251,9a10.148,10.148,0,0,1-1.594,2.167l-2.748,2.9h5.2Zm9.6-5a6.123,6.123,0,0,1-1.038,3.835,3.622,3.622,0,0,1-3.038,1.328,3.647,3.647,0,0,1-3.021-1.3,5.943,5.943,0,0,1-1.071-3.735V8.9a6.042,6.042,0,0,1,1.05-3.843,3.649,3.649,0,0,1,3.026-1.312,3.652,3.652,0,0,1,3.021,1.3A5.925,5.925,0,0,1,18.71,8.778Zm-2.4-2.446A4.426,4.426,0,0,0,15.9,6.368a1.389,1.389,0,0,0-1.282-.685,1.364,1.364,0,0,0-1.249.652,4.142,4.142,0,0,0-.427,2.04v2.941a4.646,4.646,0,0,0,.4,2.2,1.37,1.37,0,0,0,1.291.719,1.347,1.347,0,0,0,1.27-.69,4.535,4.535,0,0,0,.407-2.11ZM20.3,6.238a2.389,2.389,0,0,1,.722-1.805A2.619,2.619,0,0,1,22.91,3.74a2.66,2.66,0,0,1,1.909.685,2.435,2.435,0,0,1,.722,1.855v.6a2.359,2.359,0,0,1-.722,1.8,2.647,2.647,0,0,1-1.893.681,2.664,2.664,0,0,1-1.905-.685A2.417,2.417,0,0,1,20.3,6.828Zm1.594.639a1.118,1.118,0,0,0,.286.8.986.986,0,0,0,.751.3.94.94,0,0,0,.739-.307,1.189,1.189,0,0,0,.274-.822V6.238a1.164,1.164,0,0,0-.274-.805,1.067,1.067,0,0,0-1.494,0,1.188,1.188,0,0,0-.282.843Zm4.184,6.159a2.359,2.359,0,0,1,.73-1.805,2.656,2.656,0,0,1,1.893-.685,2.683,2.683,0,0,1,1.905.677,2.422,2.422,0,0,1,.726,1.864v.6a2.377,2.377,0,0,1-.714,1.8,2.631,2.631,0,0,1-1.9.685,2.662,2.662,0,0,1-1.917-.689,2.407,2.407,0,0,1-.722-1.826Zm1.594.647a1.11,1.11,0,0,0,.3.78.974.974,0,0,0,.747.324q1.013,0,1.013-1.121v-.631a1.128,1.128,0,0,0-.282-.8,1.073,1.073,0,0,0-1.494,0,1.164,1.164,0,0,0-.282.826ZM23.4,15.1l-1.17-.631,5.9-9.446,1.17.631Z" transform="translate(105 1)" fill="#12263f"/>
        <path id="Trazado_606260" data-name="Trazado 606260" d="M6.649,16H4.25V6.753l-2.864.888V5.69L6.392,3.9h.257Zm4.283-5.943.7-6.143H18.4v2H13.6l-.3,2.6a3.8,3.8,0,0,1,1.818-.457,3.484,3.484,0,0,1,2.706,1.071,4.277,4.277,0,0,1,.979,3,4.382,4.382,0,0,1-.494,2.1,3.486,3.486,0,0,1-1.415,1.436,4.418,4.418,0,0,1-2.175.51,4.692,4.692,0,0,1-2.034-.444A3.607,3.607,0,0,1,11.2,14.473a3.4,3.4,0,0,1-.577-1.834H13a1.773,1.773,0,0,0,.527,1.175,1.671,1.671,0,0,0,1.183.419,1.475,1.475,0,0,0,1.253-.585,2.711,2.711,0,0,0,.44-1.656,2.242,2.242,0,0,0-.506-1.577,1.858,1.858,0,0,0-1.436-.548,2.077,2.077,0,0,0-1.386.448l-.232.216ZM20.3,6.238a2.389,2.389,0,0,1,.722-1.805A2.619,2.619,0,0,1,22.91,3.74a2.66,2.66,0,0,1,1.909.685,2.435,2.435,0,0,1,.722,1.855v.6a2.359,2.359,0,0,1-.722,1.8,2.647,2.647,0,0,1-1.893.681,2.664,2.664,0,0,1-1.905-.685A2.417,2.417,0,0,1,20.3,6.828Zm1.594.639a1.118,1.118,0,0,0,.286.8.986.986,0,0,0,.751.3.94.94,0,0,0,.739-.307,1.189,1.189,0,0,0,.274-.822V6.238a1.164,1.164,0,0,0-.274-.805,1.067,1.067,0,0,0-1.494,0,1.188,1.188,0,0,0-.282.843Zm4.184,6.159a2.359,2.359,0,0,1,.73-1.805,2.656,2.656,0,0,1,1.893-.685,2.683,2.683,0,0,1,1.905.677,2.422,2.422,0,0,1,.726,1.864v.6a2.377,2.377,0,0,1-.714,1.8,2.631,2.631,0,0,1-1.9.685,2.662,2.662,0,0,1-1.917-.689,2.407,2.407,0,0,1-.722-1.826Zm1.594.647a1.11,1.11,0,0,0,.3.78.974.974,0,0,0,.747.324q1.013,0,1.013-1.121v-.631a1.128,1.128,0,0,0-.282-.8,1.073,1.073,0,0,0-1.494,0,1.164,1.164,0,0,0-.282.826ZM23.4,15.1l-1.17-.631,5.9-9.446,1.17.631Z" transform="translate(105 80)" fill="#12263f"/>
        <path id="Trazado_606261" data-name="Trazado 606261" d="M6.649,16H4.25V6.753l-2.864.888V5.69L6.392,3.9h.257ZM18.71,11a6.123,6.123,0,0,1-1.038,3.835,3.622,3.622,0,0,1-3.038,1.328,3.647,3.647,0,0,1-3.021-1.3,5.943,5.943,0,0,1-1.071-3.735V8.9a6.042,6.042,0,0,1,1.05-3.843,3.649,3.649,0,0,1,3.026-1.312,3.652,3.652,0,0,1,3.021,1.3A5.925,5.925,0,0,1,18.71,8.778Zm-2.4-2.446A4.426,4.426,0,0,0,15.9,6.368a1.389,1.389,0,0,0-1.282-.685,1.364,1.364,0,0,0-1.249.652,4.142,4.142,0,0,0-.427,2.04v2.941a4.646,4.646,0,0,0,.4,2.2,1.37,1.37,0,0,0,1.291.719,1.347,1.347,0,0,0,1.27-.69,4.535,4.535,0,0,0,.407-2.11ZM20.3,6.238a2.389,2.389,0,0,1,.722-1.805A2.619,2.619,0,0,1,22.91,3.74a2.66,2.66,0,0,1,1.909.685,2.435,2.435,0,0,1,.722,1.855v.6a2.359,2.359,0,0,1-.722,1.8,2.647,2.647,0,0,1-1.893.681,2.664,2.664,0,0,1-1.905-.685A2.417,2.417,0,0,1,20.3,6.828Zm1.594.639a1.118,1.118,0,0,0,.286.8.986.986,0,0,0,.751.3.94.94,0,0,0,.739-.307,1.189,1.189,0,0,0,.274-.822V6.238a1.164,1.164,0,0,0-.274-.805,1.067,1.067,0,0,0-1.494,0,1.188,1.188,0,0,0-.282.843Zm4.184,6.159a2.359,2.359,0,0,1,.73-1.805,2.656,2.656,0,0,1,1.893-.685,2.683,2.683,0,0,1,1.905.677,2.422,2.422,0,0,1,.726,1.864v.6a2.377,2.377,0,0,1-.714,1.8,2.631,2.631,0,0,1-1.9.685,2.662,2.662,0,0,1-1.917-.689,2.407,2.407,0,0,1-.722-1.826Zm1.594.647a1.11,1.11,0,0,0,.3.78.974.974,0,0,0,.747.324q1.013,0,1.013-1.121v-.631a1.128,1.128,0,0,0-.282-.8,1.073,1.073,0,0,0-1.494,0,1.164,1.164,0,0,0-.282.826ZM23.4,15.1l-1.17-.631,5.9-9.446,1.17.631Z" transform="translate(105 167)" fill="#12263f"/>
        <path id="Trazado_606262" data-name="Trazado 606262" d="M1.179,10.057l.7-6.143H8.649v2H3.843l-.3,2.6a3.8,3.8,0,0,1,1.818-.457A3.484,3.484,0,0,1,8.068,9.127a4.277,4.277,0,0,1,.979,3,4.382,4.382,0,0,1-.494,2.1,3.486,3.486,0,0,1-1.415,1.436,4.418,4.418,0,0,1-2.175.51,4.692,4.692,0,0,1-2.034-.444,3.607,3.607,0,0,1-1.482-1.249,3.4,3.4,0,0,1-.577-1.834H3.246a1.773,1.773,0,0,0,.527,1.175,1.671,1.671,0,0,0,1.183.419,1.475,1.475,0,0,0,1.253-.585,2.711,2.711,0,0,0,.44-1.656,2.242,2.242,0,0,0-.506-1.577,1.858,1.858,0,0,0-1.436-.548,2.077,2.077,0,0,0-1.386.448l-.232.216Zm9.363-3.818a2.389,2.389,0,0,1,.722-1.805,2.619,2.619,0,0,1,1.893-.693,2.66,2.66,0,0,1,1.909.685,2.435,2.435,0,0,1,.722,1.855v.6a2.359,2.359,0,0,1-.722,1.8,2.647,2.647,0,0,1-1.893.681,2.664,2.664,0,0,1-1.905-.685,2.417,2.417,0,0,1-.726-1.847Zm1.594.639a1.118,1.118,0,0,0,.286.8.986.986,0,0,0,.751.3.94.94,0,0,0,.739-.307,1.189,1.189,0,0,0,.274-.822V6.238a1.164,1.164,0,0,0-.274-.805,1.067,1.067,0,0,0-1.494,0,1.188,1.188,0,0,0-.282.843Zm4.184,6.159a2.359,2.359,0,0,1,.73-1.805,2.656,2.656,0,0,1,1.893-.685,2.683,2.683,0,0,1,1.905.677,2.422,2.422,0,0,1,.726,1.864v.6a2.377,2.377,0,0,1-.714,1.8,2.631,2.631,0,0,1-1.9.685,2.662,2.662,0,0,1-1.917-.689,2.407,2.407,0,0,1-.722-1.826Zm1.594.647a1.11,1.11,0,0,0,.3.78.974.974,0,0,0,.747.324q1.013,0,1.013-1.121v-.631a1.128,1.128,0,0,0-.282-.8,1.073,1.073,0,0,0-1.494,0,1.164,1.164,0,0,0-.282.826ZM13.646,15.1l-1.17-.631,5.9-9.446,1.17.631Z" transform="translate(105 268)" fill="#12263f"/>
        <path id="Trazado_606263" data-name="Trazado 606263" d="M8.957,11a6.123,6.123,0,0,1-1.038,3.835,3.622,3.622,0,0,1-3.038,1.328,3.647,3.647,0,0,1-3.021-1.3A5.943,5.943,0,0,1,.789,11.127V8.9A6.042,6.042,0,0,1,1.839,5.06,3.649,3.649,0,0,1,4.864,3.748a3.652,3.652,0,0,1,3.021,1.3A5.925,5.925,0,0,1,8.957,8.778Zm-2.4-2.446a4.426,4.426,0,0,0-.411-2.189,1.389,1.389,0,0,0-1.282-.685,1.364,1.364,0,0,0-1.249.652,4.142,4.142,0,0,0-.427,2.04v2.941a4.646,4.646,0,0,0,.4,2.2,1.37,1.37,0,0,0,1.291.719,1.347,1.347,0,0,0,1.27-.69,4.535,4.535,0,0,0,.407-2.11Zm3.984-2.319a2.389,2.389,0,0,1,.722-1.805,2.619,2.619,0,0,1,1.893-.693,2.66,2.66,0,0,1,1.909.685,2.435,2.435,0,0,1,.722,1.855v.6a2.359,2.359,0,0,1-.722,1.8,2.647,2.647,0,0,1-1.893.681,2.664,2.664,0,0,1-1.905-.685,2.417,2.417,0,0,1-.726-1.847Zm1.594.639a1.118,1.118,0,0,0,.286.8.986.986,0,0,0,.751.3.94.94,0,0,0,.739-.307,1.189,1.189,0,0,0,.274-.822V6.238a1.164,1.164,0,0,0-.274-.805,1.067,1.067,0,0,0-1.494,0,1.188,1.188,0,0,0-.282.843Zm4.184,6.159a2.359,2.359,0,0,1,.73-1.805,2.656,2.656,0,0,1,1.893-.685,2.683,2.683,0,0,1,1.905.677,2.422,2.422,0,0,1,.726,1.864v.6a2.377,2.377,0,0,1-.714,1.8,2.631,2.631,0,0,1-1.9.685,2.662,2.662,0,0,1-1.917-.689,2.407,2.407,0,0,1-.722-1.826Zm1.594.647a1.11,1.11,0,0,0,.3.78.974.974,0,0,0,.747.324q1.013,0,1.013-1.121v-.631a1.128,1.128,0,0,0-.282-.8,1.073,1.073,0,0,0-1.494,0,1.164,1.164,0,0,0-.282.826ZM13.646,15.1l-1.17-.631,5.9-9.446,1.17.631Z" transform="translate(105 333)" fill="#12263f"/>
        <path id="Trazado_606268" data-name="Trazado 606268" d="M1.179,10.057l.7-6.143H8.649v2H3.843l-.3,2.6a3.8,3.8,0,0,1,1.818-.457A3.484,3.484,0,0,1,8.068,9.127a4.277,4.277,0,0,1,.979,3,4.382,4.382,0,0,1-.494,2.1,3.486,3.486,0,0,1-1.415,1.436,4.418,4.418,0,0,1-2.175.51,4.692,4.692,0,0,1-2.034-.444,3.607,3.607,0,0,1-1.482-1.249,3.4,3.4,0,0,1-.577-1.834H3.246a1.773,1.773,0,0,0,.527,1.175,1.671,1.671,0,0,0,1.183.419,1.475,1.475,0,0,0,1.253-.585,2.711,2.711,0,0,0,.44-1.656,2.242,2.242,0,0,0-.506-1.577,1.858,1.858,0,0,0-1.436-.548,2.077,2.077,0,0,0-1.386.448l-.232.216ZM14.095,9.7l1.511-2.681H18.17l-2.557,4.4L18.278,16H15.705l-1.6-2.822L12.509,16H9.928l2.665-4.582-2.548-4.4h2.573Z" transform="translate(288 361)" fill="#636363"/>
        <path id="Trazado_606269" data-name="Trazado 606269" d="M6.649,16H4.25V6.753l-2.864.888V5.69L6.392,3.9h.257Zm7.446-6.3,1.511-2.681H18.17l-2.557,4.4L18.278,16H15.705l-1.6-2.822L12.509,16H9.928l2.665-4.582-2.548-4.4h2.573Z" transform="translate(426 361)" fill="#636363"/>
        <path id="Trazado_606270" data-name="Trazado 606270" d="M8.957,11a6.123,6.123,0,0,1-1.038,3.835,3.622,3.622,0,0,1-3.038,1.328,3.647,3.647,0,0,1-3.021-1.3A5.943,5.943,0,0,1,.789,11.127V8.9A6.042,6.042,0,0,1,1.839,5.06,3.649,3.649,0,0,1,4.864,3.748a3.652,3.652,0,0,1,3.021,1.3A5.925,5.925,0,0,1,8.957,8.778Zm-2.4-2.446a4.426,4.426,0,0,0-.411-2.189,1.389,1.389,0,0,0-1.282-.685,1.364,1.364,0,0,0-1.249.652,4.142,4.142,0,0,0-.427,2.04v2.941a4.646,4.646,0,0,0,.4,2.2,1.37,1.37,0,0,0,1.291.719,1.347,1.347,0,0,0,1.27-.69,4.535,4.535,0,0,0,.407-2.11ZM10.8,14.821a1.208,1.208,0,0,1,.386-.93,1.5,1.5,0,0,1,1.942,0,1.208,1.208,0,0,1,.386.93,1.191,1.191,0,0,1-.382.917,1.525,1.525,0,0,1-1.951,0A1.191,1.191,0,0,1,10.8,14.821Zm5.072-4.765.7-6.143h6.773v2H18.536l-.3,2.6a3.8,3.8,0,0,1,1.818-.457,3.484,3.484,0,0,1,2.706,1.071,4.277,4.277,0,0,1,.979,3,4.382,4.382,0,0,1-.494,2.1,3.486,3.486,0,0,1-1.415,1.436,4.418,4.418,0,0,1-2.175.51,4.692,4.692,0,0,1-2.034-.444,3.607,3.607,0,0,1-1.482-1.249,3.4,3.4,0,0,1-.577-1.834h2.374a1.773,1.773,0,0,0,.527,1.175,1.671,1.671,0,0,0,1.183.419,1.475,1.475,0,0,0,1.253-.585,2.711,2.711,0,0,0,.44-1.656,2.242,2.242,0,0,0-.506-1.577A1.858,1.858,0,0,0,19.4,9.866a2.077,2.077,0,0,0-1.386.448l-.232.216ZM28.787,9.7,30.3,7.019h2.565l-2.557,4.4L32.971,16H30.4l-1.6-2.822L27.2,16H24.62l2.665-4.582-2.548-4.4H27.31Z" transform="translate(554 361)" fill="#636363"/>
        <path id="Trazado_606271" data-name="Trazado 606271" d="M8.957,11a6.123,6.123,0,0,1-1.038,3.835,3.622,3.622,0,0,1-3.038,1.328,3.647,3.647,0,0,1-3.021-1.3A5.943,5.943,0,0,1,.789,11.127V8.9A6.042,6.042,0,0,1,1.839,5.06,3.649,3.649,0,0,1,4.864,3.748a3.652,3.652,0,0,1,3.021,1.3A5.925,5.925,0,0,1,8.957,8.778Zm-2.4-2.446a4.426,4.426,0,0,0-.411-2.189,1.389,1.389,0,0,0-1.282-.685,1.364,1.364,0,0,0-1.249.652,4.142,4.142,0,0,0-.427,2.04v2.941a4.646,4.646,0,0,0,.4,2.2,1.37,1.37,0,0,0,1.291.719,1.347,1.347,0,0,0,1.27-.69,4.535,4.535,0,0,0,.407-2.11Z" transform="translate(700 361)" fill="#636363"/>
        <path id="Trazado_213249" data-name="Trazado 213249" d="M-6184-3242h-550.828" transform="translate(6899 3418)" fill="none" stroke="#33ece0" stroke-width="2"/>
        <path id="Trazado_213250" data-name="Trazado 213250" d="M352,0H0" transform="translate(439.586 0) rotate(90)" fill="none" stroke="#33ece0" stroke-width="2"/>
        <path id="Trazado_213254" data-name="Trazado 213254" d="M-6184-3066.838h-551.409" transform="translate(6898.41 3419)" fill="none" stroke="#707070" stroke-width="2"/>
        <path id="Trazado_213255" data-name="Trazado 213255" d="M352.309,0H0" transform="translate(163 352.4) rotate(-90)" fill="none" stroke="#707070" stroke-width="2"/>
      </g>
      <path id="Trazado_606264" data-name="Trazado 606264" d="M62.146,10.762H57.365V14h5.611v2h-8.1V3.914H62.96V5.931H57.365v2.88h4.781Zm7,2.756a.773.773,0,0,0-.436-.693,4.95,4.95,0,0,0-1.4-.452q-3.2-.672-3.2-2.723a2.468,2.468,0,0,1,.992-2,4,4,0,0,1,2.594-.8,4.307,4.307,0,0,1,2.735.805A2.538,2.538,0,0,1,71.452,9.75h-2.4a1.161,1.161,0,0,0-.332-.851,1.405,1.405,0,0,0-1.038-.336,1.436,1.436,0,0,0-.938.274.865.865,0,0,0-.332.7.739.739,0,0,0,.378.643,3.885,3.885,0,0,0,1.274.423,10.407,10.407,0,0,1,1.511.4,2.482,2.482,0,0,1,1.9,2.416,2.343,2.343,0,0,1-1.054,1.988,4.548,4.548,0,0,1-2.723.76,4.75,4.75,0,0,1-2-.4,3.363,3.363,0,0,1-1.374-1.1,2.565,2.565,0,0,1-.5-1.515H66.1a1.252,1.252,0,0,0,.473.979,1.877,1.877,0,0,0,1.179.34,1.737,1.737,0,0,0,1.042-.261A.814.814,0,0,0,69.144,13.518Zm6.749-8.708V7.019h1.536v1.76H75.893v4.482a1.07,1.07,0,0,0,.191.714.959.959,0,0,0,.73.216,3.826,3.826,0,0,0,.706-.058V15.95a4.938,4.938,0,0,1-1.453.216,2.29,2.29,0,0,1-2.573-2.548V8.778H72.182V7.019h1.312V4.811Zm7.919,4.458a6.517,6.517,0,0,0-.863-.066,1.757,1.757,0,0,0-1.785.921V16h-2.4V7.019h2.266L81.1,8.089a2.223,2.223,0,0,1,2-1.237,2.514,2.514,0,0,1,.747.108Zm5.13,6.9a4.409,4.409,0,0,1-3.217-1.212,4.308,4.308,0,0,1-1.241-3.229v-.232a5.426,5.426,0,0,1,.523-2.42,3.838,3.838,0,0,1,1.482-1.644,4.159,4.159,0,0,1,2.187-.577,3.727,3.727,0,0,1,2.9,1.162,4.722,4.722,0,0,1,1.058,3.3v.979H86.916a2.229,2.229,0,0,0,.7,1.411,2.12,2.12,0,0,0,1.482.531,2.589,2.589,0,0,0,2.167-1l1.179,1.32a3.6,3.6,0,0,1-1.461,1.191A4.793,4.793,0,0,1,88.941,16.166Zm-.274-7.379a1.5,1.5,0,0,0-1.158.484,2.5,2.5,0,0,0-.569,1.384h3.337v-.192a1.786,1.786,0,0,0-.432-1.238A1.547,1.547,0,0,0,88.667,8.787ZM96.528,16H94.121V3.25h2.407Zm4.507,0H98.628V3.25h2.407Zm7.18,0a2.664,2.664,0,0,1-.241-.805,2.9,2.9,0,0,1-2.266.971,3.189,3.189,0,0,1-2.187-.764,2.456,2.456,0,0,1-.867-1.926,2.538,2.538,0,0,1,1.058-2.191,5.222,5.222,0,0,1,3.059-.772h1.1V10a1.48,1.48,0,0,0-.32-1,1.257,1.257,0,0,0-1.009-.374,1.429,1.429,0,0,0-.95.291.987.987,0,0,0-.344.8h-2.4a2.41,2.41,0,0,1,.481-1.444A3.182,3.182,0,0,1,104.7,7.23a4.961,4.961,0,0,1,1.976-.378,3.92,3.92,0,0,1,2.635.834,2.918,2.918,0,0,1,.975,2.345v3.893a4.294,4.294,0,0,0,.357,1.934V16Zm-1.984-1.668a2.066,2.066,0,0,0,.979-.237,1.554,1.554,0,0,0,.664-.635V11.916h-.9q-1.8,0-1.917,1.245l-.008.141a.96.96,0,0,0,.315.739A1.225,1.225,0,0,0,106.232,14.332Z" transform="translate(609 7323.5)" fill="#12263f"/>
      <g id="Grupo_875888" data-name="Grupo 875888" transform="translate(650 7231.116)">
        <ellipse id="Elipse_5592" data-name="Elipse 5592" cx="39.687" cy="3.218" rx="39.687" ry="3.218" transform="translate(2.145 80.447)" fill="#e8e8e8"/>
        <g id="Grupo_875877" data-name="Grupo 875877" transform="translate(0 0)">
          <g id="cow" transform="translate(0 0)">
            <g id="Grupo_153280" data-name="Grupo 153280">
              <g id="Grupo_153279" data-name="Grupo 153279">
                <g id="Grupo_153278" data-name="Grupo 153278">
                  <g id="Grupo_153277" data-name="Grupo 153277">
                    <g id="Grupo_153276" data-name="Grupo 153276">
                      <g id="Grupo_153275" data-name="Grupo 153275">
                        <g id="Grupo_153274" data-name="Grupo 153274">
                          <circle id="Elipse_4914" data-name="Elipse 4914" cx="41.833" cy="41.833" r="41.833" fill="#a3bfe4"/>
                        </g>
                      </g>
                    </g>
                  </g>
                </g>
              </g>
            </g>
            <path id="Trazado_213181" data-name="Trazado 213181" d="M169.717,96.312a42.2,42.2,0,0,0-.469-6.285L128.16,62.718,142.2,95.8,128.16,81.033l-15.577,9.5-9.793,2.95,20.788,20.788-15.686,10.271,17.385,13.56q1.275.077,2.57.078A41.869,41.869,0,0,0,169.717,96.312Z" transform="translate(-85.942 -54.406)" fill="#8caad1"/>
          </g>
          <g id="estrella_1_" data-name="estrella (1)" transform="translate(9.061 7.928)">
            <path id="Trazado_213145" data-name="Trazado 213145" d="M32.746,12.53,22.032,32.214,0,36.321l20.339,8.631,12.408,1.695,1.791-13.079Z" transform="translate(0 -12.53)" fill="#ffdd46"/>
            <path id="Trazado_213146" data-name="Trazado 213146" d="M288.746,198.524l-21.49,4.026L256,208.85l6.907,13.143,13.331,15.026-2.9-22.223Z" transform="translate(-223.254 -174.733)" fill="#ff9e00"/>
            <path id="Trazado_213147" data-name="Trazado 213147" d="M97.783,307.419l20.238-9.627,1.663-7.574-1.663-10.969-10.489,8.411Z" transform="translate(-85.275 -245.132)" fill="#ffdd46"/>
            <g id="Grupo_153262" data-name="Grupo 153262" transform="translate(0 0)">
              <path id="Trazado_213148" data-name="Trazado 213148" d="M256,279.249v18.542l20.238,9.627Z" transform="translate(-223.254 -245.132)" fill="#fcbe00"/>
              <path id="Trazado_213149" data-name="Trazado 213149" d="M288.746,36.321l-22.032-4.107L256,12.53V46.647Z" transform="translate(-223.254 -12.53)" fill="#fcbe00"/>
              <path id="Trazado_213150" data-name="Trazado 213150" d="M0,198.524,15.41,214.8l-2.9,22.223,20.238-28.17Z" transform="translate(0 -174.733)" fill="#fcbe00"/>
            </g>
          </g>
        </g>
      </g>
      <path id="Trazado_606265" data-name="Trazado 606265" d="M39.529,16h-2.49V3.914h2.49Zm4.358-8.981.075,1.038a3.136,3.136,0,0,1,2.582-1.2,2.606,2.606,0,0,1,2.125.838,3.912,3.912,0,0,1,.714,2.507V16h-2.4V10.256a1.556,1.556,0,0,0-.332-1.108,1.486,1.486,0,0,0-1.1-.344,1.65,1.65,0,0,0-1.519.863V16h-2.4V7.019ZM54.072,4.811V7.019h1.536v1.76H54.072v4.482a1.07,1.07,0,0,0,.191.714.959.959,0,0,0,.73.216,3.826,3.826,0,0,0,.706-.058V15.95a4.939,4.939,0,0,1-1.453.216,2.29,2.29,0,0,1-2.573-2.548V8.778H50.361V7.019h1.312V4.811Zm7.006,11.355a4.409,4.409,0,0,1-3.217-1.212,4.308,4.308,0,0,1-1.241-3.229v-.232a5.426,5.426,0,0,1,.523-2.42,3.838,3.838,0,0,1,1.482-1.644,4.159,4.159,0,0,1,2.187-.577,3.727,3.727,0,0,1,2.9,1.162,4.722,4.722,0,0,1,1.058,3.3v.979H59.052a2.229,2.229,0,0,0,.7,1.411,2.12,2.12,0,0,0,1.482.531,2.589,2.589,0,0,0,2.167-1l1.179,1.32a3.6,3.6,0,0,1-1.461,1.191A4.793,4.793,0,0,1,61.078,16.166ZM60.8,8.787a1.5,1.5,0,0,0-1.158.484,2.5,2.5,0,0,0-.569,1.384h3.337v-.192a1.786,1.786,0,0,0-.432-1.238A1.547,1.547,0,0,0,60.8,8.787Zm10.376.481a6.517,6.517,0,0,0-.863-.066,1.757,1.757,0,0,0-1.785.921V16h-2.4V7.019H68.4l.066,1.071a2.223,2.223,0,0,1,2-1.237,2.514,2.514,0,0,1,.747.108Zm6.2,0a6.517,6.517,0,0,0-.863-.066,1.757,1.757,0,0,0-1.785.921V16h-2.4V7.019H74.6l.066,1.071a2.223,2.223,0,0,1,2-1.237,2.514,2.514,0,0,1,.747.108Zm.481,2.158a5.326,5.326,0,0,1,.515-2.382,3.768,3.768,0,0,1,1.482-1.619A4.323,4.323,0,0,1,82.1,6.853a4.09,4.09,0,0,1,2.968,1.112,4.464,4.464,0,0,1,1.282,3.021l.017.614a4.694,4.694,0,0,1-1.154,3.316,4.472,4.472,0,0,1-6.2,0,4.777,4.777,0,0,1-1.158-3.387Zm2.4.17a3.357,3.357,0,0,0,.481,1.958,1.73,1.73,0,0,0,2.739.008,3.674,3.674,0,0,0,.49-2.141,3.324,3.324,0,0,0-.49-1.945,1.592,1.592,0,0,0-1.378-.69,1.566,1.566,0,0,0-1.361.686A3.736,3.736,0,0,0,80.261,11.6Zm7.238-.154a5.264,5.264,0,0,1,.984-3.329,3.187,3.187,0,0,1,2.652-1.262,2.8,2.8,0,0,1,2.3,1.013l.1-.847h2.175V15.7a3.839,3.839,0,0,1-.535,2.05,3.439,3.439,0,0,1-1.507,1.328,5.3,5.3,0,0,1-2.274.457,4.925,4.925,0,0,1-1.926-.394,3.418,3.418,0,0,1-1.419-1.017l1.063-1.461a2.81,2.81,0,0,0,2.175,1,2.057,2.057,0,0,0,1.486-.51,1.915,1.915,0,0,0,.531-1.448v-.481a2.775,2.775,0,0,1-2.183.938A3.179,3.179,0,0,1,88.5,14.9a5.262,5.262,0,0,1-1-3.358Zm2.4.179a3.278,3.278,0,0,0,.49,1.916,1.558,1.558,0,0,0,1.345.694,1.666,1.666,0,0,0,1.569-.823V9.626A1.662,1.662,0,0,0,91.749,8.8a1.568,1.568,0,0,0-1.357.707A3.694,3.694,0,0,0,89.9,11.621ZM102.756,16a2.664,2.664,0,0,1-.241-.805,2.9,2.9,0,0,1-2.266.971,3.189,3.189,0,0,1-2.187-.764,2.456,2.456,0,0,1-.867-1.926,2.538,2.538,0,0,1,1.058-2.191,5.222,5.222,0,0,1,3.059-.772h1.1V10a1.48,1.48,0,0,0-.32-1,1.257,1.257,0,0,0-1.009-.374,1.429,1.429,0,0,0-.95.291.987.987,0,0,0-.344.8h-2.4a2.41,2.41,0,0,1,.481-1.444A3.182,3.182,0,0,1,99.236,7.23a4.961,4.961,0,0,1,1.976-.378,3.92,3.92,0,0,1,2.635.834,2.918,2.918,0,0,1,.975,2.345v3.893a4.294,4.294,0,0,0,.357,1.934V16Zm-1.984-1.668a2.066,2.066,0,0,0,.979-.237,1.554,1.554,0,0,0,.664-.635V11.916h-.9q-1.8,0-1.917,1.245l-.008.141a.96.96,0,0,0,.315.739A1.225,1.225,0,0,0,100.772,14.332Zm8.1-7.313.075,1.038a3.136,3.136,0,0,1,2.582-1.2,2.606,2.606,0,0,1,2.125.838,3.912,3.912,0,0,1,.714,2.507V16h-2.4V10.256a1.556,1.556,0,0,0-.332-1.108,1.486,1.486,0,0,0-1.1-.344,1.65,1.65,0,0,0-1.519.863V16h-2.4V7.019Zm10.185-2.208V7.019h1.536v1.76h-1.536v4.482a1.07,1.07,0,0,0,.191.714.959.959,0,0,0,.73.216,3.826,3.826,0,0,0,.706-.058V15.95a4.938,4.938,0,0,1-1.453.216,2.29,2.29,0,0,1-2.573-2.548V8.778h-1.312V7.019h1.312V4.811Zm7.006,11.355a4.409,4.409,0,0,1-3.217-1.212,4.308,4.308,0,0,1-1.241-3.229v-.232a5.426,5.426,0,0,1,.523-2.42,3.838,3.838,0,0,1,1.482-1.644,4.159,4.159,0,0,1,2.187-.577,3.727,3.727,0,0,1,2.9,1.162,4.722,4.722,0,0,1,1.058,3.3v.979h-5.719a2.229,2.229,0,0,0,.7,1.411,2.12,2.12,0,0,0,1.482.531,2.589,2.589,0,0,0,2.167-1l1.179,1.32a3.6,3.6,0,0,1-1.461,1.191A4.793,4.793,0,0,1,126.064,16.166Zm-.274-7.379a1.5,1.5,0,0,0-1.158.484,2.5,2.5,0,0,0-.569,1.384H127.4v-.192a1.786,1.786,0,0,0-.432-1.238A1.547,1.547,0,0,0,125.791,8.787Z" transform="translate(895 7323.5)" fill="#12263f"/>
      <g id="Grupo_875881" data-name="Grupo 875881" transform="translate(936 7231.116)">
        <ellipse id="Elipse_5593" data-name="Elipse 5593" cx="39.687" cy="3.218" rx="39.687" ry="3.218" transform="translate(2.145 80.447)" fill="#e8e8e8"/>
        <g id="Grupo_875879" data-name="Grupo 875879" transform="translate(0 0)">
          <g id="cow-2" data-name="cow" transform="translate(0 0)">
            <g id="Grupo_153280-2" data-name="Grupo 153280" transform="translate(0)">
              <g id="Grupo_153279-2" data-name="Grupo 153279">
                <g id="Grupo_153278-2" data-name="Grupo 153278">
                  <g id="Grupo_153277-2" data-name="Grupo 153277">
                    <g id="Grupo_153276-2" data-name="Grupo 153276">
                      <g id="Grupo_153275-2" data-name="Grupo 153275">
                        <g id="Grupo_153274-2" data-name="Grupo 153274">
                          <circle id="Elipse_4914-2" data-name="Elipse 4914" cx="41.833" cy="41.833" r="41.833" fill="#a3bfe4"/>
                        </g>
                      </g>
                    </g>
                  </g>
                </g>
              </g>
            </g>
            <path id="Trazado_213181-2" data-name="Trazado 213181" d="M168.267,96.021a42.2,42.2,0,0,0-.469-6.285L138.782,64.909l1.972,30.6L133.7,84.43l-6.319,13.429-7.448,6.545,3.89,8.689-10.1,16.362,10.1,8.358q1.275.077,2.57.078A41.869,41.869,0,0,0,168.267,96.021Z" transform="translate(-84.506 -54.116)" fill="#8caad1"/>
          </g>
          <g id="signo-de-interrogacion" transform="translate(11.532 6.945)">
            <g id="Grupo_153266" data-name="Grupo 153266" transform="translate(0 0.001)">
              <g id="Grupo_153265" data-name="Grupo 153265" transform="translate(0 0)">
                <g id="Grupo_153264" data-name="Grupo 153264">
                  <path id="Trazado_213151" data-name="Trazado 213151" d="M196.853,70.582l12.274-9.615,1.916-16.739-14.19-7.812-5.761,7.917a9.743,9.743,0,0,1-1.116,17.9A13.829,13.829,0,0,0,180.8,75.265V77.78a5.932,5.932,0,0,0,5.931,5.933h8.676Z" transform="translate(-165.133 -31.444)" fill="#fe9738"/>
                  <path id="Trazado_213152" data-name="Trazado 213152" d="M80.662,27.538H71.986a5.932,5.932,0,0,1-5.932-5.932A21.59,21.59,0,0,1,89.1.051h8.677L91.6,6.284" transform="translate(-66.054 -0.005)" fill="#fe9738"/>
                </g>
                <path id="Trazado_213153" data-name="Trazado 213153" d="M195.409,424.763h-8.676A5.932,5.932,0,0,0,180.8,430.7v.049a5.932,5.932,0,0,0,5.932,5.932h7.621" transform="translate(-165.131 -366.757)" fill="#fe9738"/>
              </g>
            </g>
            <g id="Grupo_153272" data-name="Grupo 153272" transform="translate(8.676 0)">
              <g id="Grupo_153271" data-name="Grupo 153271" transform="translate(0 0)">
                <g id="Grupo_153268" data-name="Grupo 153268" transform="translate(0 0.001)">
                  <g id="Grupo_153267" data-name="Grupo 153267">
                    <path id="Trazado_213154" data-name="Trazado 213154" d="M151.186,52.274a5.932,5.932,0,0,1-5.932-5.932V43.826a13.826,13.826,0,0,1,9.175-13.033,9.74,9.74,0,1,0-12.887-10.552,9.919,9.919,0,0,0-.094,1.366,5.932,5.932,0,1,1-11.864,0,21.6,21.6,0,1,1,28.8,20.371,1.943,1.943,0,0,0-1.266,1.848v2.516A5.932,5.932,0,0,1,151.186,52.274Z" transform="translate(-129.584 -0.005)" fill="#ffd15b"/>
                  </g>
                  <path id="Trazado_213155" data-name="Trazado 213155" d="M250.262,436.677a5.932,5.932,0,0,1-5.932-5.932V430.7a5.932,5.932,0,1,1,11.864,0v.049A5.932,5.932,0,0,1,250.262,436.677Z" transform="translate(-228.66 -366.758)" fill="#ffd15b"/>
                </g>
                <g id="Grupo_153270" data-name="Grupo 153270">
                  <g id="Grupo_153269" data-name="Grupo 153269">
                    <path id="Trazado_213156" data-name="Trazado 213156" d="M135.035,18.6a21.626,21.626,0,0,0-.207,3,5.928,5.928,0,0,0,3.31,5.322,5.933,5.933,0,0,1-8.554-5.321A21.607,21.607,0,0,1,152.629.047q.6.04,1.2.116A21.7,21.7,0,0,0,135.035,18.6Z" transform="translate(-129.583 0)" fill="#ffc344"/>
                    <path id="Trazado_213157" data-name="Trazado 213157" d="M258.757,105.807a13.83,13.83,0,0,0-9.176,13.034v2.516a5.93,5.93,0,0,0,3.313,5.322,5.933,5.933,0,0,1-8.554-5.321v-2.516a13.826,13.826,0,0,1,9.176-13.034,9.742,9.742,0,0,0-.6-18.56,9.735,9.735,0,0,1,5.846,18.56Z" transform="translate(-228.668 -75.019)" fill="#ffc344"/>
                  </g>
                  <path id="Trazado_213158" data-name="Trazado 213158" d="M252.892,436.058a5.933,5.933,0,0,1-8.554-5.321v-.05a5.933,5.933,0,0,1,8.554-5.321,5.937,5.937,0,0,0-3.313,5.322v.05A5.93,5.93,0,0,0,252.892,436.058Z" transform="translate(-228.667 -366.748)" fill="#ffc344"/>
                </g>
              </g>
            </g>
          </g>
        </g>
      </g>
      <path id="Trazado_606267" data-name="Trazado 606267" d="M69.132,13l2.739-9.089h2.772L70.435,16h-2.6L63.645,3.914h2.764Zm11.314,3a2.664,2.664,0,0,1-.241-.805,2.9,2.9,0,0,1-2.266.971,3.189,3.189,0,0,1-2.187-.764,2.456,2.456,0,0,1-.867-1.926,2.538,2.538,0,0,1,1.058-2.191A5.222,5.222,0,0,1,79,10.513h1.1V10a1.48,1.48,0,0,0-.32-1,1.257,1.257,0,0,0-1.009-.374,1.429,1.429,0,0,0-.95.291.987.987,0,0,0-.344.8h-2.4a2.41,2.41,0,0,1,.481-1.444A3.182,3.182,0,0,1,76.926,7.23,4.961,4.961,0,0,1,78.9,6.853a3.92,3.92,0,0,1,2.635.834,2.918,2.918,0,0,1,.975,2.345v3.893a4.294,4.294,0,0,0,.357,1.934V16Zm-1.984-1.668a2.066,2.066,0,0,0,.979-.237,1.554,1.554,0,0,0,.664-.635V11.916h-.9q-1.8,0-1.917,1.245l-.008.141a.96.96,0,0,0,.315.739A1.225,1.225,0,0,0,78.462,14.332Zm9.629-.1a1.573,1.573,0,0,0,1.079-.365A1.28,1.28,0,0,0,89.6,12.9h2.25a3.077,3.077,0,0,1-.5,1.673,3.286,3.286,0,0,1-1.341,1.179,4.2,4.2,0,0,1-1.88.419,3.9,3.9,0,0,1-3.038-1.224,4.845,4.845,0,0,1-1.112-3.383V11.4a4.79,4.79,0,0,1,1.1-3.312,3.854,3.854,0,0,1,3.03-1.237,3.778,3.778,0,0,1,2.7.959,3.4,3.4,0,0,1,1.033,2.552H89.6a1.648,1.648,0,0,0-.432-1.139,1.6,1.6,0,0,0-2.362.173,3.541,3.541,0,0,0-.427,1.983v.249a3.586,3.586,0,0,0,.423,2A1.463,1.463,0,0,0,88.091,14.232ZM98.425,16a2.664,2.664,0,0,1-.241-.805,2.9,2.9,0,0,1-2.266.971,3.189,3.189,0,0,1-2.187-.764,2.456,2.456,0,0,1-.867-1.926,2.538,2.538,0,0,1,1.058-2.191,5.222,5.222,0,0,1,3.059-.772h1.1V10a1.48,1.48,0,0,0-.32-1,1.257,1.257,0,0,0-1.009-.374,1.429,1.429,0,0,0-.95.291.987.987,0,0,0-.344.8h-2.4a2.41,2.41,0,0,1,.481-1.444A3.182,3.182,0,0,1,94.906,7.23a4.961,4.961,0,0,1,1.976-.378,3.92,3.92,0,0,1,2.635.834,2.918,2.918,0,0,1,.975,2.345v3.893a4.294,4.294,0,0,0,.357,1.934V16Zm-1.984-1.668a2.066,2.066,0,0,0,.979-.237,1.554,1.554,0,0,0,.664-.635V11.916h-.9q-1.8,0-1.917,1.245l-.008.141a.96.96,0,0,0,.315.739A1.225,1.225,0,0,0,96.441,14.332Z" transform="translate(609 7500.5)" fill="#12263f"/>
      <path id="Trazado_606266" data-name="Trazado 606266" d="M65.689,11.742V16H63.2V3.914h4.715a5.455,5.455,0,0,1,2.395.5A3.67,3.67,0,0,1,71.9,5.827a3.946,3.946,0,0,1,.556,2.088,3.47,3.47,0,0,1-1.216,2.8,5.065,5.065,0,0,1-3.366,1.025Zm0-2.017h2.225A2.187,2.187,0,0,0,69.42,9.26a1.691,1.691,0,0,0,.519-1.328A1.994,1.994,0,0,0,69.416,6.5a1.953,1.953,0,0,0-1.444-.564H65.689Zm12.343,6.441a4.409,4.409,0,0,1-3.217-1.212,4.308,4.308,0,0,1-1.241-3.229v-.232a5.426,5.426,0,0,1,.523-2.42,3.838,3.838,0,0,1,1.482-1.644,4.159,4.159,0,0,1,2.187-.577,3.727,3.727,0,0,1,2.9,1.162,4.722,4.722,0,0,1,1.058,3.3v.979H76.007a2.229,2.229,0,0,0,.7,1.411,2.12,2.12,0,0,0,1.482.531,2.589,2.589,0,0,0,2.167-1l1.179,1.32a3.6,3.6,0,0,1-1.461,1.191A4.793,4.793,0,0,1,78.032,16.166Zm-.274-7.379A1.5,1.5,0,0,0,76.6,9.27a2.5,2.5,0,0,0-.569,1.384h3.337v-.192a1.786,1.786,0,0,0-.432-1.238A1.547,1.547,0,0,0,77.758,8.787Zm10.376.481a6.517,6.517,0,0,0-.863-.066,1.757,1.757,0,0,0-1.785.921V16h-2.4V7.019h2.266l.066,1.071a2.223,2.223,0,0,1,2-1.237,2.514,2.514,0,0,1,.747.108Zm6.2,0a6.517,6.517,0,0,0-.863-.066,1.757,1.757,0,0,0-1.785.921V16h-2.4V7.019h2.266l.066,1.071a2.223,2.223,0,0,1,2-1.237,2.514,2.514,0,0,1,.747.108Zm.481,2.158a5.326,5.326,0,0,1,.515-2.382,3.768,3.768,0,0,1,1.482-1.619,4.323,4.323,0,0,1,2.245-.573,4.09,4.09,0,0,1,2.968,1.112,4.464,4.464,0,0,1,1.282,3.021l.017.614a4.694,4.694,0,0,1-1.154,3.316,4.472,4.472,0,0,1-6.2,0,4.777,4.777,0,0,1-1.158-3.387Zm2.4.17a3.357,3.357,0,0,0,.481,1.958,1.73,1.73,0,0,0,2.739.008,3.674,3.674,0,0,0,.49-2.141,3.324,3.324,0,0,0-.49-1.945,1.592,1.592,0,0,0-1.378-.69,1.566,1.566,0,0,0-1.361.686A3.736,3.736,0,0,0,97.215,11.6Z" transform="translate(895 7500.5)" fill="#12263f"/>
      <g id="Grupo_875889" data-name="Grupo 875889" transform="translate(650 7407.5)">
        <ellipse id="Elipse_4912" data-name="Elipse 4912" cx="39.687" cy="3.754" rx="39.687" ry="3.754" transform="translate(2.145 80.447)" fill="#e8e8e8"/>
        <g id="cow-3" data-name="cow" transform="translate(0 0)">
          <g id="Grupo_153280-3" data-name="Grupo 153280" transform="translate(0 0)">
            <g id="Grupo_153279-3" data-name="Grupo 153279" transform="translate(0 0)">
              <g id="Grupo_153278-3" data-name="Grupo 153278">
                <g id="Grupo_153277-3" data-name="Grupo 153277">
                  <g id="Grupo_153276-3" data-name="Grupo 153276">
                    <g id="Grupo_153275-3" data-name="Grupo 153275">
                      <g id="Grupo_153274-3" data-name="Grupo 153274">
                        <circle id="Elipse_4914-3" data-name="Elipse 4914" cx="41.833" cy="41.833" r="41.833" fill="#a3bfe4"/>
                      </g>
                    </g>
                  </g>
                </g>
              </g>
            </g>
          </g>
          <path id="Trazado_213181-3" data-name="Trazado 213181" d="M169.717,96.041a42.2,42.2,0,0,0-.469-6.285L144.257,64.764,142.2,95.528,111.44,64.764l1.144,25.5-9.793,2.95L123.579,114l-11.285,10.847,12.984,12.984q1.275.077,2.57.078A41.869,41.869,0,0,0,169.717,96.041Z" transform="translate(-85.942 -53.889)" fill="#8caad1"/>
          <g id="Grupo_153281" data-name="Grupo 153281" transform="translate(22.139 10.875)">
            <path id="Trazado_213182" data-name="Trazado 213182" d="M146.8,78.366s-7.577-3.082-8.3-13.6c0,0-8.514,12.879,1.568,20.6S146.8,78.366,146.8,78.366Z" transform="translate(-135.137 -64.764)" fill="#555a66"/>
          </g>
          <g id="Grupo_153282" data-name="Grupo 153282" transform="translate(12.416 26.807)">
            <path id="Trazado_213183" data-name="Trazado 213183" d="M90.413,169.082s-5.789-7.419-14.654-6.877c0,0-1.809,13.81,13.207,16.765Z" transform="translate(-75.69 -162.177)" fill="#ffb89c"/>
          </g>
          <g id="Grupo_153283" data-name="Grupo 153283" transform="translate(49.48 10.875)">
            <path id="Trazado_213184" data-name="Trazado 213184" d="M302.844,78.366s7.577-3.082,8.3-13.6c0,0,8.514,12.879-1.568,20.6S302.844,78.366,302.844,78.366Z" transform="translate(-302.31 -64.764)" fill="#333940"/>
          </g>
          <g id="Grupo_153284" data-name="Grupo 153284" transform="translate(56.673 26.807)">
            <path id="Trazado_213185" data-name="Trazado 213185" d="M346.291,169.082s5.789-7.419,14.654-6.877c0,0,1.809,13.81-13.207,16.765Z" transform="translate(-346.291 -162.177)" fill="#ff936b"/>
          </g>
          <g id="Grupo_153285" data-name="Grupo 153285" transform="translate(23.354 20.564)">
            <path id="Trazado_213186" data-name="Trazado 213186" d="M163.134,124h-5.257a15.307,15.307,0,0,0-15.18,17.272l3.011,23.254h30.824l1.842-14.229Z" transform="translate(-142.568 -124.003)" fill="#fff"/>
          </g>
          <g id="Grupo_153286" data-name="Grupo 153286" transform="translate(41.906 20.564)">
            <path id="Trazado_213187" data-name="Trazado 213187" d="M258.014,124H256v40.526h15.412l1.842-14.229-1.049-8.868Z" transform="translate(-256 -124.003)" fill="#e9edf5"/>
          </g>
          <g id="Grupo_153287" data-name="Grupo 153287" transform="translate(24.002 54.818)">
            <path id="Trazado_213188" data-name="Trazado 213188" d="M174.117,352.053H154.754a8.222,8.222,0,0,1-8.222-8.222v-2.167a8.222,8.222,0,0,1,8.222-8.222h19.363a8.222,8.222,0,0,1,8.222,8.222v2.167A8.222,8.222,0,0,1,174.117,352.053Z" transform="translate(-146.532 -333.442)" fill="#ffb89c"/>
          </g>
          <g id="Grupo_153288" data-name="Grupo 153288" transform="translate(41.906 54.818)">
            <path id="Trazado_213189" data-name="Trazado 213189" d="M265.682,333.442H256v18.611h9.682a8.222,8.222,0,0,0,8.222-8.222v-2.167A8.222,8.222,0,0,0,265.682,333.442Z" transform="translate(-256 -333.442)" fill="#ff936b"/>
          </g>
          <g id="Grupo_153291" data-name="Grupo 153291" transform="translate(31.174 61.572)">
            <g id="Grupo_153289" data-name="Grupo 153289">
              <ellipse id="Elipse_4915" data-name="Elipse 4915" cx="3.158" cy="3.158" rx="3.158" ry="3.158" fill="#555a66"/>
            </g>
            <g id="Grupo_153290" data-name="Grupo 153290" transform="translate(15.148)">
              <ellipse id="Elipse_4916" data-name="Elipse 4916" cx="3.158" cy="3.158" rx="3.158" ry="3.158" fill="#333940"/>
            </g>
          </g>
          <g id="Grupo_153294" data-name="Grupo 153294" transform="translate(30.615 40.525)">
            <g id="Grupo_153292" data-name="Grupo 153292">
              <ellipse id="Elipse_4917" data-name="Elipse 4917" cx="3.076" cy="3.076" rx="3.076" ry="3.076" fill="#555a66"/>
            </g>
            <g id="Grupo_153293" data-name="Grupo 153293" transform="translate(16.431)">
              <ellipse id="Elipse_4918" data-name="Elipse 4918" cx="3.076" cy="3.076" rx="3.076" ry="3.076" fill="#333940"/>
            </g>
          </g>
          <g id="Grupo_153295" data-name="Grupo 153295" transform="translate(42.695 20.564)">
            <path id="Trazado_213190" data-name="Trazado 213190" d="M263.278,124h-2.454a11.282,11.282,0,0,1,3.628,5.789c1.26,5.307,1.239,10.373,6.315,10.614,3.04.144,5.244,5.567,6.523,9.894l1.169-9.025A15.307,15.307,0,0,0,263.278,124Z" transform="translate(-260.824 -124.003)" fill="#555a66"/>
          </g>
        </g>
      </g>
      <g id="Grupo_875882" data-name="Grupo 875882" transform="translate(935.189 7407.508)">
        <ellipse id="Elipse_4913" data-name="Elipse 4913" cx="40" cy="4" rx="40" ry="4" transform="translate(-0.189 79.992)" fill="#e8e8e8"/>
        <g id="Grupo_153317" data-name="Grupo 153317" transform="translate(1.073 0)">
          <g id="perro" transform="translate(0 0)">
            <g id="XMLID_181_" transform="translate(0 0)">
              <g id="XMLID_182_">
                <g id="XMLID_183_">
                  <g id="XMLID_184_">
                    <g id="XMLID_185_">
                      <g id="XMLID_186_">
                        <g id="XMLID_187_">
                          <g id="XMLID_188_">
                            <g id="XMLID_189_">
                              <g id="XMLID_190_">
                                <g id="XMLID_191_">
                                  <g id="XMLID_192_">
                                    <g id="XMLID_193_">
                                      <g id="XMLID_194_">
                                        <ellipse id="XMLID_195_" cx="42.5" cy="42" rx="42.5" ry="42" transform="translate(-0.262 -0.008)" fill="#a3bfe4"/>
                                      </g>
                                    </g>
                                  </g>
                                </g>
                              </g>
                            </g>
                          </g>
                        </g>
                      </g>
                    </g>
                  </g>
                </g>
              </g>
            </g>
            <path id="Trazado_213191" data-name="Trazado 213191" d="M154.566,155.991a41.911,41.911,0,0,0-2.926-15.436l-4.251-4.2-58.616,4.634-4.4,13.152,9.8,9.8,9.251,23.125,10.909,10.909A42.019,42.019,0,0,0,154.566,155.991Z" transform="translate(-70.539 -114.291)" fill="#8caad1"/>
            <g id="Grupo_153304" data-name="Grupo 153304" transform="translate(6.448 15.785)">
              <g id="Grupo_153298" data-name="Grupo 153298">
                <g id="Grupo_153296" data-name="Grupo 153296">
                  <path id="Trazado_213192" data-name="Trazado 213192" d="M127.172,106.944s-7.872-6.387-10.417-6.077-5.587,9.187-5.587,9.187,4.478,8.052,6.1,11.722Z" transform="translate(-99.383 -100.407)" fill="#b56f40"/>
                  <path id="Trazado_213193" data-name="Trazado 213193" d="M58.828,99.1a6.5,6.5,0,0,0-5.666-.661A70.909,70.909,0,0,0,42.07,102.75c-3.385,1.685-3.385,4.884-1.127,9.63,1.573,3.307,5.616,11.479,7.36,10.37.829-.527,5.723-14.285,6.733-16.976C55.869,103.549,58.514,100.036,58.828,99.1Z" transform="translate(-39.368 -98.119)" fill="#cc8656"/>
                </g>
                <g id="Grupo_153297" data-name="Grupo 153297" transform="translate(43.327)">
                  <path id="Trazado_213194" data-name="Trazado 213194" d="M303.328,106.944s7.872-6.387,10.417-6.077,5.587,9.187,5.587,9.187-4.478,8.052-6.1,11.722Z" transform="translate(-303.328 -100.407)" fill="#a35d2e"/>
                  <path id="Trazado_213195" data-name="Trazado 213195" d="M354.079,99.1a6.5,6.5,0,0,1,5.666-.661,70.913,70.913,0,0,1,11.092,4.307c3.385,1.685,3.385,4.884,1.127,9.63-1.573,3.307-5.616,11.479-7.36,10.37-.829-.527-5.723-14.285-6.733-16.976C357.038,103.549,354.392,100.036,354.079,99.1Z" transform="translate(-345.749 -98.119)" fill="#b56f40"/>
                </g>
              </g>
              <g id="Grupo_153302" data-name="Grupo 153302" transform="translate(15.065 3.64)">
                <path id="Trazado_213196" data-name="Trazado 213196" d="M180.771,153.742q-.325.673-.711,1.407c-5.788,11.007-3.7,21.179-18.008,21.179s-12.22-10.172-18.008-21.179q-.387-.736-.711-1.407a78.557,78.557,0,0,0,4.851-16.541c1.464-8.218,9.976-16.541,9.976-16.541a20.991,20.991,0,0,1,7.783,0s8.279,8.323,9.742,16.541A70.975,70.975,0,0,0,180.771,153.742Z" transform="translate(-141.333 -120.295)" fill="#fcf0e5"/>
                <path id="Trazado_213197" data-name="Trazado 213197" d="M274.945,153.746c-.217.45-.453.918-.711,1.408-5.789,11.007-3.7,21.179-18.01,21.179-.075,0-.151,0-.225,0V120.3c.076,0,.149,0,.225,0a20.855,20.855,0,0,1,3.892.363s8.279,8.324,9.743,16.542A70.978,70.978,0,0,0,274.945,153.746Z" transform="translate(-235.507 -120.299)" fill="#eaddd3"/>
                <g id="Grupo_153299" data-name="Grupo 153299" transform="translate(13.546 37.284)">
                  <path id="Trazado_213198" data-name="Trazado 213198" d="M220.624,347.437c-4.168,0-7.832.256-6.758,5.1.695,3.133,5.116,5.37,6.758,5.37s6.063-2.238,6.757-5.37C228.456,347.693,224.792,347.437,220.624,347.437Z" transform="translate(-213.677 -347.437)" fill="#70695e"/>
                </g>
                <g id="Grupo_153300" data-name="Grupo 153300" transform="translate(20.493 37.284)">
                  <path id="Trazado_213199" data-name="Trazado 213199" d="M262.758,352.542c-.694,3.132-5.116,5.369-6.758,5.369V347.44c4.168,0,7.833.254,6.758,5.1Z" transform="translate(-256 -347.44)" fill="#5b554a"/>
                </g>
                <g id="Grupo_153301" data-name="Grupo 153301" transform="translate(0 0.364)">
                  <path id="Trazado_213200" data-name="Trazado 213200" d="M145.75,151.459c-3.215,2.036-9.268,3.524-12.6,4.135-4.655-9.618.049-10.041,1.74-19.522A16,16,0,0,1,148.2,122.511C148.667,129.806,151.231,147.992,145.75,151.459Z" transform="translate(-131.15 -122.511)" fill="#cc8656"/>
                  <path id="Trazado_213201" data-name="Trazado 213201" d="M289.912,155.595c-3.332-.611-9.285-2.035-12.5-4.071-5.48-3.467-3.017-21.717-2.554-29.012a16,16,0,0,1,13.313,13.561C289.862,145.554,294.567,145.977,289.912,155.595Z" transform="translate(-250.474 -122.512)" fill="#b56f40"/>
                </g>
              </g>
              <g id="Grupo_153303" data-name="Grupo 153303" transform="translate(20.931 20.872)">
                <circle id="Elipse_4919" data-name="Elipse 4919" cx="2.635" cy="2.635" r="2.635" transform="translate(0 3.098) rotate(-35.851)" fill="#5b554a"/>
                <circle id="Elipse_4920" data-name="Elipse 4920" cx="2.635" cy="2.635" r="2.635" transform="translate(21.961 3.088) rotate(-35.851)" fill="#3a352e"/>
              </g>
            </g>
          </g>
        </g>
      </g>
      <rect id="Rect치ngulo_345381" data-name="Rect치ngulo 345381" width="401" height="40" rx="20" transform="translate(630 7599)" fill="#d0def1"/>
      <path id="Trazado_606272" data-name="Trazado 606272" d="M86.691,12.737a4.528,4.528,0,0,1-1.525,3.252,5.355,5.355,0,0,1-3.625,1.187,4.816,4.816,0,0,1-3.872-1.657,6.793,6.793,0,0,1-1.411-4.548v-.782a7.671,7.671,0,0,1,.65-3.252,4.874,4.874,0,0,1,1.859-2.158,5.809,5.809,0,0,1,6.376.435,4.866,4.866,0,0,1,1.564,3.331H84.072a2.673,2.673,0,0,0-.69-1.8,2.555,2.555,0,0,0-1.806-.558,2.24,2.24,0,0,0-1.973.945,5.3,5.3,0,0,0-.672,2.931v.967a5.667,5.667,0,0,0,.628,3.032,2.2,2.2,0,0,0,1.982.958,2.6,2.6,0,0,0,1.824-.558,2.521,2.521,0,0,0,.69-1.727ZM93.6,9.872a6.9,6.9,0,0,0-.914-.07,1.86,1.86,0,0,0-1.89.976V17h-2.54V7.49h2.4l.07,1.134a2.354,2.354,0,0,1,2.118-1.31,2.662,2.662,0,0,1,.791.114Zm5.432,7.3a4.668,4.668,0,0,1-3.406-1.283,4.561,4.561,0,0,1-1.314-3.419v-.246a5.745,5.745,0,0,1,.554-2.562,4.064,4.064,0,0,1,1.569-1.74,4.4,4.4,0,0,1,2.316-.611,3.947,3.947,0,0,1,3.072,1.23,5,5,0,0,1,1.121,3.489v1.037H96.887a2.36,2.36,0,0,0,.743,1.494,2.245,2.245,0,0,0,1.569.563,2.742,2.742,0,0,0,2.294-1.063l1.248,1.4a3.813,3.813,0,0,1-1.547,1.261A5.075,5.075,0,0,1,99.031,17.176Zm-.29-7.813a1.587,1.587,0,0,0-1.226.512,2.651,2.651,0,0,0-.6,1.466h3.533v-.2a1.891,1.891,0,0,0-.457-1.311A1.638,1.638,0,0,0,98.741,9.362Zm9.6,5.766a1.666,1.666,0,0,0,1.143-.387,1.355,1.355,0,0,0,.457-1.028h2.382a3.258,3.258,0,0,1-.527,1.771,3.48,3.48,0,0,1-1.419,1.248,4.442,4.442,0,0,1-1.991.444,4.129,4.129,0,0,1-3.217-1.3,5.13,5.13,0,0,1-1.178-3.582v-.167a5.071,5.071,0,0,1,1.169-3.507,4.08,4.08,0,0,1,3.208-1.31,4,4,0,0,1,2.861,1.015,3.594,3.594,0,0,1,1.094,2.7h-2.382a1.745,1.745,0,0,0-.457-1.206,1.7,1.7,0,0,0-2.5.183,3.749,3.749,0,0,0-.453,2.1v.264a3.8,3.8,0,0,0,.448,2.113A1.549,1.549,0,0,0,108.339,15.128ZM116.451,17H113.9V7.49h2.549Zm-2.7-11.971a1.251,1.251,0,0,1,.382-.94,1.648,1.648,0,0,1,2.079,0,1.244,1.244,0,0,1,.387.94,1.247,1.247,0,0,1-.391.949,1.629,1.629,0,0,1-2.065,0A1.247,1.247,0,0,1,113.753,5.029Zm7.172,2.461L121,8.554a3.342,3.342,0,0,1,2.733-1.239,2.536,2.536,0,0,1,2.522,1.45,3.265,3.265,0,0,1,2.856-1.45,2.836,2.836,0,0,1,2.3.9,4.141,4.141,0,0,1,.756,2.711V17h-2.549V10.936a1.811,1.811,0,0,0-.316-1.182,1.4,1.4,0,0,0-1.116-.374,1.585,1.585,0,0,0-1.582,1.09L126.62,17h-2.54V10.944a1.789,1.789,0,0,0-.325-1.2,1.416,1.416,0,0,0-1.107-.369,1.646,1.646,0,0,0-1.564.9V17h-2.54V7.49ZM136.807,17h-2.549V7.49h2.549Zm-2.7-11.971a1.251,1.251,0,0,1,.382-.94,1.648,1.648,0,0,1,2.079,0,1.244,1.244,0,0,1,.387.94,1.247,1.247,0,0,1-.391.949,1.629,1.629,0,0,1-2.065,0A1.247,1.247,0,0,1,134.108,5.029Zm9.167,12.146a4.668,4.668,0,0,1-3.406-1.283,4.561,4.561,0,0,1-1.314-3.419v-.246a5.745,5.745,0,0,1,.554-2.562,4.064,4.064,0,0,1,1.569-1.74,4.4,4.4,0,0,1,2.316-.611,3.947,3.947,0,0,1,3.072,1.23,5,5,0,0,1,1.121,3.489v1.037h-6.056a2.36,2.36,0,0,0,.743,1.494,2.245,2.245,0,0,0,1.569.563,2.742,2.742,0,0,0,2.294-1.063l1.248,1.4a3.813,3.813,0,0,1-1.547,1.261A5.075,5.075,0,0,1,143.275,17.176Zm-.29-7.813a1.587,1.587,0,0,0-1.226.512,2.651,2.651,0,0,0-.6,1.466h3.533v-.2a1.891,1.891,0,0,0-.457-1.311A1.638,1.638,0,0,0,142.985,9.362Zm7.98-1.872.079,1.1a3.32,3.32,0,0,1,2.733-1.274,2.759,2.759,0,0,1,2.25.888,4.142,4.142,0,0,1,.756,2.654V17h-2.54V10.918a1.648,1.648,0,0,0-.352-1.173,1.574,1.574,0,0,0-1.169-.365,1.747,1.747,0,0,0-1.608.914V17h-2.54V7.49ZM161.75,5.152V7.49h1.626V9.354H161.75V14.1a1.133,1.133,0,0,0,.2.756,1.015,1.015,0,0,0,.773.229,4.051,4.051,0,0,0,.747-.062v1.925a5.229,5.229,0,0,1-1.538.229,2.425,2.425,0,0,1-2.725-2.7V9.354h-1.389V7.49h1.389V5.152Zm2.382,7a5.64,5.64,0,0,1,.545-2.522,3.989,3.989,0,0,1,1.569-1.714,4.577,4.577,0,0,1,2.377-.606,4.33,4.33,0,0,1,3.142,1.178,4.727,4.727,0,0,1,1.358,3.2l.018.65a4.97,4.97,0,0,1-1.222,3.511,4.735,4.735,0,0,1-6.561,0,5.058,5.058,0,0,1-1.226-3.586Zm2.54.18a3.555,3.555,0,0,0,.51,2.073,1.831,1.831,0,0,0,2.9.009,3.89,3.89,0,0,0,.519-2.267,3.519,3.519,0,0,0-.519-2.06,1.686,1.686,0,0,0-1.459-.731,1.658,1.658,0,0,0-1.441.726A3.955,3.955,0,0,0,166.672,12.338Zm12.12-.163a5.731,5.731,0,0,1,1-3.542,3.237,3.237,0,0,1,2.729-1.318,2.913,2.913,0,0,1,2.294,1.037V3.5h2.549V17h-2.294l-.123-1.011a2.989,2.989,0,0,1-2.443,1.187,3.228,3.228,0,0,1-2.694-1.323A5.916,5.916,0,0,1,178.792,12.175Zm2.54.189a3.754,3.754,0,0,0,.466,2.051,1.517,1.517,0,0,0,1.354.713,1.7,1.7,0,0,0,1.661-.995V10.375a1.675,1.675,0,0,0-1.644-.995Q181.332,9.38,181.332,12.364Zm12.375,4.812a4.668,4.668,0,0,1-3.406-1.283,4.561,4.561,0,0,1-1.314-3.419v-.246a5.745,5.745,0,0,1,.554-2.562,4.064,4.064,0,0,1,1.569-1.74,4.4,4.4,0,0,1,2.316-.611,3.947,3.947,0,0,1,3.072,1.23,5,5,0,0,1,1.121,3.489v1.037h-6.056a2.36,2.36,0,0,0,.743,1.494,2.245,2.245,0,0,0,1.569.563,2.742,2.742,0,0,0,2.294-1.063l1.248,1.4a3.813,3.813,0,0,1-1.547,1.261A5.075,5.075,0,0,1,193.707,17.176Zm-.29-7.813a1.587,1.587,0,0,0-1.226.512,2.651,2.651,0,0,0-.6,1.466h3.533v-.2a1.891,1.891,0,0,0-.457-1.311A1.638,1.638,0,0,0,193.417,9.362ZM201.74,17h-2.549V3.5h2.549Zm15.135-4.667a5.7,5.7,0,0,1-1,3.52,3.2,3.2,0,0,1-2.694,1.323,2.963,2.963,0,0,1-2.329-1v4.482h-2.54V7.49h2.355l.088.932a2.985,2.985,0,0,1,2.408-1.107,3.22,3.22,0,0,1,2.733,1.3,5.858,5.858,0,0,1,.976,3.586Zm-2.54-.185a3.743,3.743,0,0,0-.47-2.048A1.532,1.532,0,0,0,212.5,9.38a1.663,1.663,0,0,0-1.644.914v3.894a1.692,1.692,0,0,0,1.661.94Q214.335,15.128,214.335,12.148Zm9.457-2.276a6.9,6.9,0,0,0-.914-.07,1.86,1.86,0,0,0-1.89.976V17h-2.54V7.49h2.4l.07,1.134a2.354,2.354,0,0,1,2.118-1.31,2.662,2.662,0,0,1,.791.114Zm.51,2.285a5.64,5.64,0,0,1,.545-2.522,3.989,3.989,0,0,1,1.569-1.714,4.577,4.577,0,0,1,2.377-.606,4.33,4.33,0,0,1,3.142,1.178,4.727,4.727,0,0,1,1.358,3.2l.018.65a4.97,4.97,0,0,1-1.222,3.511,4.735,4.735,0,0,1-6.561,0,5.058,5.058,0,0,1-1.226-3.586Zm2.54.18a3.555,3.555,0,0,0,.51,2.073,1.831,1.831,0,0,0,2.9.009,3.89,3.89,0,0,0,.519-2.267,3.519,3.519,0,0,0-.519-2.06,1.686,1.686,0,0,0-1.459-.731,1.658,1.658,0,0,0-1.441.726A3.955,3.955,0,0,0,226.842,12.338Zm7.638-.163a5.731,5.731,0,0,1,1-3.542,3.237,3.237,0,0,1,2.729-1.318A2.913,2.913,0,0,1,240.5,8.352V3.5h2.549V17h-2.294l-.123-1.011a2.989,2.989,0,0,1-2.443,1.187,3.228,3.228,0,0,1-2.694-1.323A5.916,5.916,0,0,1,234.479,12.175Zm2.54.189a3.754,3.754,0,0,0,.466,2.051,1.517,1.517,0,0,0,1.354.713,1.7,1.7,0,0,0,1.661-.995V10.375a1.675,1.675,0,0,0-1.644-.995Q237.02,9.38,237.02,12.364Zm13.693,3.669a3.185,3.185,0,0,1-2.6,1.143,3,3,0,0,1-2.333-.879,3.752,3.752,0,0,1-.822-2.575V7.49h2.54v6.151q0,1.487,1.354,1.487a1.834,1.834,0,0,0,1.775-.9V7.49h2.549V17h-2.391Zm8.332-.905a1.666,1.666,0,0,0,1.143-.387,1.355,1.355,0,0,0,.457-1.028h2.382a3.258,3.258,0,0,1-.527,1.771,3.48,3.48,0,0,1-1.419,1.248,4.442,4.442,0,0,1-1.991.444,4.129,4.129,0,0,1-3.217-1.3,5.13,5.13,0,0,1-1.178-3.582v-.167a5.071,5.071,0,0,1,1.169-3.507,4.08,4.08,0,0,1,3.208-1.31,4,4,0,0,1,2.861,1.015,3.594,3.594,0,0,1,1.094,2.7h-2.382a1.745,1.745,0,0,0-.457-1.206,1.7,1.7,0,0,0-2.5.183,3.749,3.749,0,0,0-.453,2.1v.264a3.8,3.8,0,0,0,.448,2.113A1.549,1.549,0,0,0,259.045,15.128Zm8.473-9.976V7.49h1.626V9.354h-1.626V14.1a1.133,1.133,0,0,0,.2.756,1.015,1.015,0,0,0,.773.229,4.051,4.051,0,0,0,.747-.062v1.925a5.229,5.229,0,0,1-1.538.229,2.425,2.425,0,0,1-2.725-2.7V9.354h-1.389V7.49h1.389V5.152Zm2.382,7a5.64,5.64,0,0,1,.545-2.522,3.989,3.989,0,0,1,1.569-1.714,4.577,4.577,0,0,1,2.377-.606,4.33,4.33,0,0,1,3.142,1.178,4.727,4.727,0,0,1,1.358,3.2l.018.65a4.97,4.97,0,0,1-1.222,3.511,4.735,4.735,0,0,1-6.561,0,5.058,5.058,0,0,1-1.226-3.586Zm2.54.18a3.555,3.555,0,0,0,.51,2.073,1.831,1.831,0,0,0,2.9.009,3.89,3.89,0,0,0,.519-2.267,3.519,3.519,0,0,0-.519-2.06,1.686,1.686,0,0,0-1.459-.731,1.658,1.658,0,0,0-1.441.726A3.955,3.955,0,0,0,272.439,12.338Z" transform="translate(653 7607.638)" fill="#12263f"/>
    </g>
  </g>
</svg>
