<svg id="Grupo_1015541" data-name="Grupo 1015541" xmlns="http://www.w3.org/2000/svg" width="83.53" height="86.644" viewBox="0 0 83.53 86.644">
  <ellipse id="Elipse_5593" data-name="Elipse 5593" cx="39.578" cy="3.209" rx="39.578" ry="3.209" transform="translate(2.139 80.226)" fill="#c4d3d3"/>
  <g id="Grupo_875879" data-name="Grupo 875879" transform="translate(0 0)">
    <g id="cow" transform="translate(0 0)">
      <g id="Grupo_153280" data-name="Grupo 153280">
        <g id="Grupo_153279" data-name="Grupo 153279">
          <g id="Grupo_153278" data-name="Grupo 153278">
            <g id="Grupo_153277" data-name="Grupo 153277">
              <g id="Grupo_153276" data-name="Grupo 153276">
                <g id="Grupo_153275" data-name="Grupo 153275">
                  <g id="Grupo_153274" data-name="Grupo 153274">
                    <ellipse id="Elipse_4914" data-name="Elipse 4914" cx="41.717" cy="41.717" rx="41.717" ry="41.717" fill="#a3bfe4"/>
                  </g>
                </g>
              </g>
            </g>
          </g>
        </g>
      </g>
      <path id="Trazado_213181" data-name="Trazado 213181" d="M168.116,95.936a42.085,42.085,0,0,0-.467-6.267l-28.936-24.76,1.966,30.516-7.03-11.048-6.3,13.391L119.92,104.3l3.88,8.665-10.068,16.317,10.068,8.335q1.272.077,2.563.077A41.753,41.753,0,0,0,168.116,95.936Z" transform="translate(-84.586 -54.145)" fill="#8caad1"/>
    </g>
    <g id="signo-de-interrogacion" transform="translate(11.5 6.926)">
      <g id="Grupo_153266" data-name="Grupo 153266" transform="translate(0 0.001)">
        <g id="Grupo_153265" data-name="Grupo 153265" transform="translate(0 0)">
          <g id="Grupo_153264" data-name="Grupo 153264">
            <path id="Trazado_213151" data-name="Trazado 213151" d="M196.809,70.488l12.24-9.588,1.911-16.693-14.151-7.79-5.745,7.895a9.716,9.716,0,0,1-1.113,17.849,13.791,13.791,0,0,0-9.149,13v2.509a5.916,5.916,0,0,0,5.915,5.916h8.652Z" transform="translate(-165.176 -31.457)" fill="#fe9738"/>
            <path id="Trazado_213152" data-name="Trazado 213152" d="M80.621,27.463H71.97a5.916,5.916,0,0,1-5.916-5.916A21.53,21.53,0,0,1,89.035.051h8.653L91.533,6.267" transform="translate(-66.054 -0.005)" fill="#fe9738"/>
          </g>
          <path id="Trazado_213153" data-name="Trazado 213153" d="M195.368,424.763h-8.652a5.916,5.916,0,0,0-5.916,5.916v.049a5.916,5.916,0,0,0,5.916,5.916h7.6" transform="translate(-165.174 -366.916)" fill="#fe9738"/>
        </g>
      </g>
      <g id="Grupo_153272" data-name="Grupo 153272" transform="translate(8.652 0)">
        <g id="Grupo_153271" data-name="Grupo 153271" transform="translate(0 0)">
          <g id="Grupo_153268" data-name="Grupo 153268" transform="translate(0 0.001)">
            <g id="Grupo_153267" data-name="Grupo 153267">
              <path id="Trazado_213154" data-name="Trazado 213154" d="M151.127,52.13a5.916,5.916,0,0,1-5.916-5.916V43.7a13.788,13.788,0,0,1,9.15-13,9.714,9.714,0,1,0-12.851-10.523,9.891,9.891,0,0,0-.094,1.362,5.916,5.916,0,0,1-11.831,0A21.543,21.543,0,1,1,158.3,41.862a1.938,1.938,0,0,0-1.262,1.842v2.509A5.916,5.916,0,0,1,151.127,52.13Z" transform="translate(-129.584 -0.005)" fill="#ffd15b"/>
            </g>
            <path id="Trazado_213155" data-name="Trazado 213155" d="M250.246,436.644a5.916,5.916,0,0,1-5.916-5.916v-.049a5.916,5.916,0,0,1,11.831,0v.049A5.916,5.916,0,0,1,250.246,436.644Z" transform="translate(-228.703 -366.917)" fill="#ffd15b"/>
          </g>
          <g id="Grupo_153270" data-name="Grupo 153270">
            <g id="Grupo_153269" data-name="Grupo 153269">
              <path id="Trazado_213156" data-name="Trazado 213156" d="M135.02,18.547a21.568,21.568,0,0,0-.207,3,5.911,5.911,0,0,0,3.3,5.307,5.917,5.917,0,0,1-8.531-5.307A21.547,21.547,0,0,1,152.566.047q.6.04,1.2.115A21.642,21.642,0,0,0,135.02,18.547Z" transform="translate(-129.583 0)" fill="#ffc344"/>
              <path id="Trazado_213157" data-name="Trazado 213157" d="M258.717,105.755a13.792,13.792,0,0,0-9.151,13v2.509a5.914,5.914,0,0,0,3.3,5.307,5.917,5.917,0,0,1-8.531-5.307v-2.509a13.788,13.788,0,0,1,9.151-13,9.715,9.715,0,0,0-.6-18.509,9.708,9.708,0,0,1,5.83,18.509Z" transform="translate(-228.711 -75.052)" fill="#ffc344"/>
            </g>
            <path id="Trazado_213158" data-name="Trazado 213158" d="M252.868,436.027a5.917,5.917,0,0,1-8.53-5.307v-.05a5.916,5.916,0,0,1,8.53-5.307,5.92,5.92,0,0,0-3.3,5.307v.05A5.914,5.914,0,0,0,252.868,436.027Z" transform="translate(-228.71 -366.908)" fill="#ffc344"/>
          </g>
        </g>
      </g>
    </g>
  </g>
</svg>
