<svg id="Grupo_1015069" data-name="Grupo 1015069" xmlns="http://www.w3.org/2000/svg" xmlns:xlink="http://www.w3.org/1999/xlink" width="251.44" height="135.931" viewBox="0 0 251.44 135.931">
  <defs>
    <clipPath id="clip-path">
      <rect id="Rectángulo_345713" data-name="Rectángulo 345713" width="251.44" height="135.931" fill="none"/>
    </clipPath>
  </defs>
  <rect id="Rectángulo_345703" data-name="Rectángulo 345703" width="22.004" height="7.547" transform="translate(58.17 20.208)" fill="#fcfcfc"/>
  <rect id="Rectángulo_345704" data-name="Rectángulo 345704" width="22.004" height="7.547" transform="translate(58.17 31.343)" fill="#fcfcfc"/>
  <rect id="Rectángulo_345705" data-name="Rectángulo 345705" width="22.004" height="7.547" transform="translate(58.17 42.477)" fill="#fcfcfc"/>
  <rect id="Rectángulo_345706" data-name="Rectángulo 345706" width="52.807" height="52.808" transform="translate(158.455 10.426)" fill="#33ece0"/>
  <g id="Grupo_1015067" data-name="Grupo 1015067">
    <g id="Grupo_1015066" data-name="Grupo 1015066" clip-path="url(#clip-path)">
      <path id="Trazado_605309" data-name="Trazado 605309" d="M73.01,111.59H5.259a5.16,5.16,0,0,1-5.145-5.145v-47.5A5.16,5.16,0,0,1,5.259,53.8H73.01a5.16,5.16,0,0,1,5.145,5.145v47.5a5.16,5.16,0,0,1-5.145,5.145" fill="#fff"/>
      <path id="Trazado_605310" data-name="Trazado 605310" d="M115.024,77.337s-7.327.178-12.286,4.413a51.343,51.343,0,0,0-12.56,16.3c-2.971,6.205-5.59,10.985-5.266,16.5s3.558,9.217,8.85,10.667a64.366,64.366,0,0,0,9.811,1.876l-.115,8.352h37.134l-.335-16.7a3.92,3.92,0,0,0,2.754-1.148c1.243-1.232.673-4.984.673-4.984s4.7,3.307,8.713,2.97,6.694-3.277,7.248-5.33a38.314,38.314,0,0,0,1.132-10.31c-.035-4.964-.521-15.695-.521-15.695s-.832-1.735-6.468-2-7,1.544-7,1.544l-.137,3.627s-1.689-3.853-4.344-5.6-7.352-4.325-12.234-4.363l-15.045-.118" fill="#1a1a1a"/>
      <path id="Trazado_605311" data-name="Trazado 605311" d="M130.86,118.626h9.4a4.009,4.009,0,0,0,2.755-1.031c1.108-1.109.672-3.716.672-3.716l.068-20.663a2.949,2.949,0,0,0-.874-2.11,3.338,3.338,0,0,0-2.06-.849h-36s-2.085-.078-2.857,1.029a3.563,3.563,0,0,0-.488,2.5l-.051,18.406s9.623,2.025,14.384,2.077c0,0,.876-.257,1.222.309s0,.141,0,.141,1.5-.579,1.66-1.813.025-4.6,1.621-4.642,1.923,2.2,1.914,3.973a15,15,0,0,1-.833,4.065s-.252.97,1.173,1.36a26.617,26.617,0,0,0,8.3.968" fill="#bcbcbc"/>
      <path id="Trazado_605312" data-name="Trazado 605312" d="M176.082,96.5a25.081,25.081,0,0,0-9.837,10.354c-3.682,7.235-5.761,13.562-6.118,18.62a20.977,20.977,0,0,0,1.728,9.975h35.666l11.206-3.4-4.716-23.776s-2.439-6.331-5.95-9.508a16.116,16.116,0,0,0-8.593-4.066c-.915-.014-13.386,1.8-13.386,1.8" fill="#fff198"/>
      <path id="Trazado_605313" data-name="Trazado 605313" d="M204.66,135.728h33.5a5.371,5.371,0,0,0,4.861-3.647l7.946-22.948a4.939,4.939,0,0,0-4.861-6.443h-33.5a5.106,5.106,0,0,0-4.862,3.36L199.8,129a5.165,5.165,0,0,0,4.862,6.73" fill="#1a1a1a"/>
      <path id="Trazado_605314" data-name="Trazado 605314" d="M56.523,67.69l-.195.8s.041-.144-.5-.2a.859.859,0,0,0-.881.641c-.063.224-.987,3.591-.987,3.591s.122.675.492.673a2.528,2.528,0,0,0,.892-.271l-.571,1.842a2.6,2.6,0,0,0-1.919,0s-2.358-.955-3.36.242c0,0-1.633-1.356-2.311-1.788a1.5,1.5,0,0,0-2.1.177c-.468.7-.294,1.032.516,1.611s2.964,2.4,3.5,2.943a18.889,18.889,0,0,1,2.075,2.326c.019.212-.325.087-.674-.237s-2.337-2.31-3.012-2.368a1.133,1.133,0,0,0-1.154,1.521c.266.987,1.579,1.562,2.65,2.924s4.326,2.2,4.409,2.2,2.57-1.962,4.489-1.766a5.465,5.465,0,0,1-.362-3.624,6.622,6.622,0,0,1,2.435-3.337,2.458,2.458,0,0,0,2.7-1.058,2.311,2.311,0,0,0-.829-3.074,2.924,2.924,0,0,0-1.389-.426s-3.389-1.273-3.914-3.338" fill="#fff"/>
      <path id="Trazado_605315" data-name="Trazado 605315" d="M34.264,95.172a4.77,4.77,0,0,1-1.346-2.548c-.337-1.684-.509-4.338-1.007-4.659s-1.706-.913-1.982.465.5,2.388.384,3.263-.3,1.287-.867,1.322-1.16-.373-1.936-1.181a27.1,27.1,0,0,1-2.526-3.4c-.657-1.017-1.481-1.807-2.24-1.364a1.725,1.725,0,0,0-.7,1.488,1.1,1.1,0,0,0-1.236.09.925.925,0,0,0-.305,1.22,1.54,1.54,0,0,0-1.078,1.658c-.022,1.45,2.607,4.726,3.32,5.569s2.918,3.279,4,3.565a16.942,16.942,0,0,1,3.432-2.936c1.891-1.159,4.089-2.548,4.089-2.548" fill="#fff"/>
      <path id="Trazado_605316" data-name="Trazado 605316" d="M115.642,115.483a7.528,7.528,0,0,0,2.558-1.729,3.4,3.4,0,0,0,.67-2.526c0-1.414.282-2.8,1.44-2.967s1.946,1.148,1.9,2.993a20.6,20.6,0,0,1-.6,4.537,1.174,1.174,0,0,0,.6,1.713,10.029,10.029,0,0,0,5.147,1.107,22.548,22.548,0,0,1,3.5.016,2.843,2.843,0,0,1-.733.9s-.5,2.212-2.13,2.788a14.362,14.362,0,0,1-5.165,1.005c-2.316.054-4.219-.2-5.014-.208s-2.371-.178-2.673-1.27a16.471,16.471,0,0,1-.162-3.39,8.7,8.7,0,0,1,.659-2.964" fill="#fff"/>
      <path id="Trazado_605317" data-name="Trazado 605317" d="M157.914,85.272s.211-3.711.1-4.973a8.563,8.563,0,0,1-.1-3.191,26.587,26.587,0,0,0,.514-5.789c-.142-1.951-.448-3.244-1.3-3.116a4.061,4.061,0,0,0-1.524.6,1.16,1.16,0,0,0-1.213-1.231,1.494,1.494,0,0,0-1.576.915,1.82,1.82,0,0,0-1.577-.869c-1,.092-1.517.9-1.568,2s-.205,6.812-.205,6.812-.6-.111-1.365-1.125-2.226-2.367-3.394-1.266-.769,2.121.458,3.3,3.022,2.624,3.417,4.377a22.6,22.6,0,0,1,.451,3.739s5.825,1.094,8.879-.182" fill="#fff"/>
      <path id="Trazado_605318" data-name="Trazado 605318" d="M126.571,105.665a2.985,2.985,0,1,1-2.985-2.986,2.986,2.986,0,0,1,2.985,2.986" fill="#fff"/>
      <path id="Trazado_605319" data-name="Trazado 605319" d="M189.287,94.7l.181-3.428s2.27-.05,2.718-1.517a13.052,13.052,0,0,0,.668-4.924c-.065-2.343-.14-4.478-.14-4.478l-3.427-3.643s-3.164,4.232-4.11,5.305-1.784,1.814-1.7,3.357,1.686,3.556,2.236,4.094a5.363,5.363,0,0,1,.756,4.371,10.742,10.742,0,0,1-1.323,2.663s1.657,3.023,3.021,2.806,1.12-4.606,1.12-4.606" fill="#fff"/>
      <path id="Trazado_605320" data-name="Trazado 605320" d="M183.054,128.651a20.9,20.9,0,0,1,3.28-1.635,7.3,7.3,0,0,1,3.616-.73s2.133-1.47,4.125-.415a3.6,3.6,0,0,1,1.816-.694c1.035-.071,1.978,2.177,1.978,2.177l-.612,2.892s.385,2.6.871,2.92l-7.537.27-1.137-1.879a2.2,2.2,0,0,1-2.008,1.609,22.874,22.874,0,0,1-2.948,0s-1.977-2.112-1.444-4.514" fill="#fff"/>
      <path id="Trazado_605321" data-name="Trazado 605321" d="M131.887,64.323c-.022-2.352-2.585-1.877-3.085-1.751a6.491,6.491,0,0,0-.212-2.293,16.827,16.827,0,0,1-.943-2.669,48.315,48.315,0,0,1-5.085.742,7.658,7.658,0,0,1-5.22-1.905,10.925,10.925,0,0,1-1.221,4l-.2,2.053c-2.023-.48-3.032.692-2.948,1.822A2.358,2.358,0,0,0,114.4,66.46a3.332,3.332,0,0,0,1.714-.157,10.288,10.288,0,0,1,.226,2.4,5.511,5.511,0,0,0,1.821,3.466l-.179,2.625-2.953,2.545,2.551,12.906h9.88l2.614-12.788-3.248-2.663-.3-2.432c1.965-1.572,2.211-4.1,2.237-6.09a2.025,2.025,0,0,0,3.124-1.947" fill="#fff"/>
      <path id="Trazado_605322" data-name="Trazado 605322" d="M59.954,75.586s-2.575,1.8-2.581,4.26,1.133,4.037,2.311,4.362,3.415.468,4.168,2.531.927,4.754,1.289,5.772a4.689,4.689,0,0,0,3.987,3.511c2.946.5,5.038-1,6.452-3.354a9.734,9.734,0,0,0,1.16-7.427,15.878,15.878,0,0,0-2.481-6.61,21.5,21.5,0,0,0-3.623-3.964c-.578-.659-.933-.646-.636-1.679s1.849-2.732,1.711-4.951-.356-3.223-5.179-4.555a6.7,6.7,0,0,0-3.924-2.122c-2.751-.561-5.238.063-6.031,1.912a5.889,5.889,0,0,0,.558,5.384,10.243,10.243,0,0,0,3.3,2.373s2.464-.011,2.516,2.108a2.414,2.414,0,0,1-3,2.449" fill="#ff7e7e"/>
      <path id="Trazado_605323" data-name="Trazado 605323" d="M189.2,76.587l3.567,3.659a20.36,20.36,0,0,0-.072-3.06,3.069,3.069,0,0,0-2.556-2.73,27.552,27.552,0,0,0-6.474-.361c-2.776.214-6.475,1.7-6.652,5.355,0,0,.79,3.668,1.089,5.575s1.047,4.893.2,5.85-2.748,1.314-3.669,1.628-3.566,3.634-1.1,5.583l2.55-1.59s3.992,1.918,6.385,1.32a5.373,5.373,0,0,0,3.9-3.435,8.359,8.359,0,0,0-.521-4.748c-.811-1.448-2.259-2.278-2.336-3.957s.213-2.283.965-3.052a39.346,39.346,0,0,0,2.683-3.107c.757-.992,2.039-2.93,2.039-2.93" fill="#1a1a1a"/>
      <path id="Trazado_605324" data-name="Trazado 605324" d="M189.468,91.269l-.181,3.428,2.294.429a3.041,3.041,0,0,0,.61-2.064,3.482,3.482,0,0,0-.825-2.186,11.154,11.154,0,0,1-1.9.393" fill="#1a1a1a"/>
      <path id="Trazado_605325" data-name="Trazado 605325" d="M226.081,117.993c-1.021,1.768-.9,3.745.259,4.417s2.933-.217,3.954-1.985.9-3.746-.259-4.417-2.934.217-3.954,1.985" fill="#fff"/>
      <path id="Trazado_605326" data-name="Trazado 605326" d="M203.2,135.728H176.639s-1.184-.49-.875-1.365a1.735,1.735,0,0,1,1-1.092l21.461.063a4.337,4.337,0,0,1-.971-3.088,8.406,8.406,0,0,1,.871-3.371l7.748-23.065a4.647,4.647,0,0,1,4.344-2.6h34.508l2.856,1.625-35.228-.128s-3.782.514-4.529,3.165l-8.211,23.817a4.411,4.411,0,0,0,.542,3.2,9.639,9.639,0,0,0,3.037,2.832" fill="#fff"/>
      <path id="Trazado_605327" data-name="Trazado 605327" d="M183.054,128.651s4.657-2.766,7.043-2.365a3.685,3.685,0,0,1,3.447-.638l-.273-.473a7.59,7.59,0,0,0-4.84-2.076,5.344,5.344,0,0,0-5.377,5.552" fill="#1a1a1a"/>
      <path id="Trazado_605328" data-name="Trazado 605328" d="M187.878,133.1s1.44-.592,1.575-1.544l.935,1.544Z" fill="#1a1a1a"/>
      <path id="Trazado_605468" data-name="Trazado 605468" d="M0,0H9.877V30.678H0Z" transform="translate(156.358 29.601)" fill="#a3bfe4"/>
      <rect id="Rectángulo_345708" data-name="Rectángulo 345708" width="9.877" height="19.09" transform="translate(177.17 37.552)" fill="#fff"/>
      <path id="Trazado_605469" data-name="Trazado 605469" d="M0,0H9.877V12.157H0Z" transform="translate(193.414 48.407)" fill="#a3bfe4"/>
      <path id="Trazado_605329" data-name="Trazado 605329" d="M122.476,80.783l-2.3,5.151.915,1.963-.563,2.346h4.419l-.791-2.34.835-1.815Z" fill="#33ece0"/>
      <path id="Trazado_605330" data-name="Trazado 605330" d="M121.909,82.055l1.566,3.647-.488,2.2.488,2.34h1.475l-.791-2.34.835-1.814-2.517-5.305Z" fill="#fff"/>
      <path id="Trazado_605331" data-name="Trazado 605331" d="M57.881,82.547s-4.923-.026-8.116,6.793-6.537,14.62-6.537,14.62L35.1,94.875S29,97.532,26.124,101.383c0,0,4.737,10.687,10.091,14.859s7.254,4.609,11.322,3.593l-2.726,15.634H75.9s-1.836-12.908-1.963-15.423-.168-5.525-.168-5.525a4.618,4.618,0,0,0,5-1.328c2.485-2.453,2.531-3.508,2.223-5.615a45.66,45.66,0,0,0-2.678-9.393c-1.641-4.326-2.727-5.517-2.727-5.517s-1.615,3.893-5.668,3.392-4.594-2.625-4.98-4.362-.265-3.589-1.271-5.384a3.985,3.985,0,0,0-3.544-2c-1.051-.142-2.226-.958-2.237-1.766" fill="#1a1a1a"/>
      <path id="Trazado_605332" data-name="Trazado 605332" d="M38.218,117.741a7.54,7.54,0,0,1,13.129-.3,7.911,7.911,0,0,1-6.833,2.853,9.825,9.825,0,0,1-6.3-2.556" fill="#bfe8e5"/>
      <rect id="Rectángulo_345710" data-name="Rectángulo 345710" width="4.683" height="4.683" transform="translate(6.997 91.935)" fill="#33ece0"/>
      <rect id="Rectángulo_345711" data-name="Rectángulo 345711" width="4.683" height="4.683" transform="translate(4.166 103.739)" fill="#1a1a1a"/>
      <path id="Trazado_605333" data-name="Trazado 605333" d="M115.226,62.3s-1.559-8.57,1.956-8.874a5.37,5.37,0,0,1,5.243-2.219c3.726.37,5.931,1.55,7.041,4.859a11.034,11.034,0,0,1,.169,6.267l-.911.129V60.51l-.9-2.985a12.265,12.265,0,0,1-5.664.811,13.279,13.279,0,0,1-4.819-1.89s-.571,3.321-1.22,4l-.2,2.053Z" fill="#ffce26"/>
      <path id="Trazado_605334" data-name="Trazado 605334" d="M187.646,76.706a23.838,23.838,0,0,1-2.915,5.65c.744-.787,1.75-1.953,2.426-2.839.757-.992,2.039-2.93,2.039-2.93l3.567,3.659a20.36,20.36,0,0,0-.072-3.06,3.067,3.067,0,0,0-2.556-2.729,27.485,27.485,0,0,0-6.474-.362c-.325.025-.665.07-1.009.131.107.006,5.459.325,4.994,2.48" fill="#fff"/>
      <path id="Trazado_605335" data-name="Trazado 605335" d="M182.467,97.816a5.373,5.373,0,0,0,3.9-3.435,8.342,8.342,0,0,0-.521-4.748,15.685,15.685,0,0,0-1.491-1.954c.656,1.407,1.506,3.879.741,6.142-1.151,3.4-4.9,3.937-4.9,3.937l.418.122a5.3,5.3,0,0,0,1.86-.064" fill="#fff"/>
      <path id="Trazado_605336" data-name="Trazado 605336" d="M190.367,91.128a4.987,4.987,0,0,1,.243,3.816l.971.181a3.039,3.039,0,0,0,.609-2.063,3.478,3.478,0,0,0-.825-2.186s-.507.137-1,.252" fill="#fff"/>
      <path id="Trazado_605337" data-name="Trazado 605337" d="M128.724,60.51v1.956l.91-.129a11.043,11.043,0,0,0-.168-6.268,6.185,6.185,0,0,0-4.334-4.348c.641.562,2.893,2.7,1.894,4.209-1.154,1.744-8.108,1.362-8.154,1.359a12.464,12.464,0,0,0,3.287,1.048,12.265,12.265,0,0,0,5.665-.812Z" fill="#fff"/>
      <path id="Trazado_605338" data-name="Trazado 605338" d="M62.609,61.36c-2.752-.56-5.24.062-6.032,1.913a5.89,5.89,0,0,0,.558,5.383A6.467,6.467,0,0,0,58.84,70.14c-.548-1.03-3.667-7.547,4.715-8.531a8.655,8.655,0,0,0-.946-.249" fill="#fff"/>
      <path id="Trazado_605339" data-name="Trazado 605339" d="M60.508,84.39c-3.5-3.6.436-8.754.436-8.754a3.063,3.063,0,0,1-.989-.05s-2.575,1.805-2.581,4.259,1.133,4.038,2.311,4.363c.241.067.527.126.834.195l-.011-.013" fill="#fff"/>
      <path id="Trazado_605340" data-name="Trazado 605340" d="M184.923,62.64h-9.878c-.2-.2-.2-19.295-.2-19.295.2-.2,10.082-.2,10.082-.2.205.2.205,19.294.205,19.294a.206.206,0,0,1-.205.2m-9.674-.408h9.47V43.548h-9.47Z" fill="#1a1a1a"/>
      <path id="Trazado_605341" data-name="Trazado 605341" d="M168.4,62.64H158.52c-.205-.2-.205-30.882-.205-30.882.205-.2,10.083-.2,10.083-.2.2.2.2,30.882.2,30.882a.2.2,0,0,1-.2.2m-9.674-.408h9.47V31.961h-9.47Z" fill="#1a1a1a"/>
      <path id="Trazado_605342" data-name="Trazado 605342" d="M119.034,66.015c-1.39,0-2.521-1.423-2.521-3.173s1.131-3.174,2.521-3.174,2.522,1.424,2.522,3.174-1.132,3.173-2.522,3.173m0-5.94c-1.166,0-2.115,1.242-2.115,2.767s.949,2.766,2.115,2.766,2.114-1.241,2.114-2.766-.948-2.767-2.114-2.767" fill="#1a1a1a"/>
      <path id="Trazado_605343" data-name="Trazado 605343" d="M140.8,118.815H128.621c0-.407,12.182-.407,12.182-.407a2.713,2.713,0,0,0,2.71-2.71V93.156a2.713,2.713,0,0,0-2.71-2.71H104.325a2.714,2.714,0,0,0-2.71,2.71v19.077c-.407,0-.407-19.077-.407-19.077a3.12,3.12,0,0,1,3.117-3.116H140.8a3.12,3.12,0,0,1,3.118,3.116V115.7a3.121,3.121,0,0,1-3.118,3.117" fill="#1a1a1a"/>
      <path id="Trazado_605344" data-name="Trazado 605344" d="M122.616,107.8a3.188,3.188,0,1,1,3.188-3.188,3.192,3.192,0,0,1-3.188,3.188m0-5.969a2.781,2.781,0,1,0,2.782,2.781,2.785,2.785,0,0,0-2.782-2.781" fill="#1a1a1a"/>
      <path id="Trazado_605345" data-name="Trazado 605345" d="M146.583,87.823a18.862,18.862,0,0,0-3.49-5.1c-4.445-3.822-8.591-4.468-12.248-5.037-.319-.051-.636-.1-.948-.15a1.023,1.023,0,0,1,1.011-.253c3.711.578,7.916,1.234,12.448,5.131a16.478,16.478,0,0,1,3.409,5.114c-.122.286-.152.293-.182.293" fill="#1a1a1a"/>
      <path id="Trazado_605346" data-name="Trazado 605346" d="M107.943,127.283c-11.7,0-18.822-2.413-21.756-7.352C83.108,114.743,84.745,107,91.34,95.546a59.008,59.008,0,0,1,10.254-13.13c4.534-3.9,8.741-4.554,12.453-5.132.318-.05.633-.1.945-.149a1.013,1.013,0,0,1-.883.552c-3.657.57-7.8,1.215-12.248,5.037A58.5,58.5,0,0,0,91.694,95.748c-6.515,11.308-8.153,18.926-5.156,23.974,2.986,5.027,10.92,7.435,23.547,7.127,1.72-.039,6.9,0,6.945,0-.054.407-5.223.366-6.935.407q-1.1.027-2.152.027" fill="#1a1a1a"/>
      <path id="Trazado_605347" data-name="Trazado 605347" d="M117.576,90.446c-.2-.164-2.752-13.07-2.752-13.07.064-.191,3.018-2.833,3.018-2.833.3.029,4.662,5.827,4.662,5.827l4.136-5.794a29.365,29.365,0,0,1,3.422,2.605c.067.194-2.407,13.1-2.407,13.1-.4-.077,2.052-12.866,2.052-12.866l-2.864-2.423-4.169,5.84c-.328,0-4.726-5.838-4.726-5.838l-2.7,2.417L117.776,90.2c-.174.242-.188.243-.2.243" fill="#1a1a1a"/>
      <path id="Trazado_605348" data-name="Trazado 605348" d="M118.059,90.446c-.184-.289,4.266-9.818,4.266-9.818.369,0,4.785,9.529,4.785,9.529-.368.171-4.6-8.959-4.6-8.959l-4.265,9.131a.205.205,0,0,1-.184.117" fill="#1a1a1a"/>
      <path id="Trazado_605349" data-name="Trazado 605349" d="M121.1,88.107a18.988,18.988,0,0,1-1.105-2.326c.377-.157,1.241,1.918,1.241,1.918l2.789,0,.74-1.79c.378.155-.414,2.071-.414,2.071a29.81,29.81,0,0,1-3.251.132" fill="#1a1a1a"/>
      <path id="Trazado_605350" data-name="Trazado 605350" d="M120.53,90.446a9.915,9.915,0,0,1,.368-2.591c.4.1-.17,2.436-.17,2.436a.2.2,0,0,1-.2.155" fill="#1a1a1a"/>
      <path id="Trazado_605351" data-name="Trazado 605351" d="M124.863,90.446a17.229,17.229,0,0,1-.9-2.49c.39-.117,1.1,2.228,1.1,2.228-.157.259-.176.262-.195.262" fill="#1a1a1a"/>
      <path id="Trazado_605352" data-name="Trazado 605352" d="M125.9,66.015c-1.39,0-2.521-1.423-2.521-3.173s1.131-3.174,2.521-3.174,2.523,1.424,2.523,3.174-1.132,3.173-2.523,3.173m0-5.94c-1.166,0-2.114,1.242-2.114,2.767s.948,2.766,2.114,2.766,2.115-1.241,2.115-2.766-.948-2.767-2.115-2.767" fill="#1a1a1a"/>
      <path id="Trazado_605353" data-name="Trazado 605353" d="M123.5,63.043a1.761,1.761,0,0,0-1.194-.531,1.16,1.16,0,0,0-.749.391c-.3-.274.081-.752.715-.8a1.8,1.8,0,0,1,1.367.587c-.031.331-.085.351-.139.351" fill="#1a1a1a"/>
      <path id="Trazado_605354" data-name="Trazado 605354" d="M129.767,66.783a2.32,2.32,0,0,1-1.07-.261,3.043,3.043,0,0,1,1.19-.151,1.92,1.92,0,0,0,1.152-3.354,1.921,1.921,0,0,0-2.022-.328c.084-.478.34-.538.6-.555a2.347,2.347,0,0,1,1.685.577,2.328,2.328,0,0,1-1.392,4.068c-.051,0-.1,0-.148,0" fill="#1a1a1a"/>
      <path id="Trazado_605355" data-name="Trazado 605355" d="M130.235,65.736c-.125-.042-1.556-1.148-1.556-1.148,0-.326,1.586-1.5,1.586-1.5.241.329-1.124,1.339-1.124,1.339l1.217.942c0,.339-.063.365-.123.365" fill="#1a1a1a"/>
      <path id="Trazado_605356" data-name="Trazado 605356" d="M115.1,66.783a2.327,2.327,0,1,1,.144-4.649,2.337,2.337,0,0,1,.764.179.9.9,0,0,1-.789.227,1.919,1.919,0,1,0,.764,3.62.788.788,0,0,1-.883.623" fill="#1a1a1a"/>
      <path id="Trazado_605357" data-name="Trazado 605357" d="M114.628,65.736c-.125-.365,1.1-1.307,1.1-1.307l-1.367-1.01c.243-.329,1.825.843,1.825.843,0,.326-1.429,1.432-1.429,1.432a.209.209,0,0,1-.125.042" fill="#1a1a1a"/>
      <path id="Trazado_605358" data-name="Trazado 605358" d="M117.978,75.119a14.413,14.413,0,0,1-.2-2.852c.407,0,.407,2.648.407,2.648a.2.2,0,0,1-.2.2" fill="#1a1a1a"/>
      <path id="Trazado_605359" data-name="Trazado 605359" d="M126.821,74.9a12.889,12.889,0,0,1-.344-2.579c.405-.023.547,2.364.547,2.364-.194.215-.2.215-.2.215" fill="#1a1a1a"/>
      <path id="Trazado_605360" data-name="Trazado 605360" d="M129.635,62.54a11.085,11.085,0,0,0-1.128-8.075c-1.422-2.591-5.107-3.431-8.009-2.918a5.241,5.241,0,0,0-3.147,2,3.337,3.337,0,0,0-1.1.565,3.237,3.237,0,0,0-1.056,2.419c-.015,1.765.239,5.756.242,5.8-.41-.014-.664-4.02-.648-5.789a3.584,3.584,0,0,1,1.209-2.744,2.718,2.718,0,0,1,1.069-.542,5.562,5.562,0,0,1,3.366-2.1c3.049-.536,6.921.367,8.437,3.126a10.411,10.411,0,0,1,.968,8.116.2.2,0,0,1-.2.154" fill="#1a1a1a"/>
      <path id="Trazado_605361" data-name="Trazado 605361" d="M147.093,6.658a3.367,3.367,0,0,1-.872-.116,3.329,3.329,0,0,1-2.339-4.087,3.329,3.329,0,1,1,3.211,4.2m0-6.253a2.937,2.937,0,1,0,.772.1,2.948,2.948,0,0,0-.772-.1" fill="#1a1a1a"/>
      <path id="Trazado_605362" data-name="Trazado 605362" d="M177.171,19.716a15.856,15.856,0,0,1-1.021-1.334,2.058,2.058,0,0,1,1.191,1.02c-.094.3-.131.314-.17.314m-2.284-3.106c-.647-.672-1.168-1.257-1.7-1.818a4.2,4.2,0,0,1,1.86,1.485c-.067.316-.114.333-.159.333m-3.229-3.4c-.713-.576-1.31-1.084-1.912-1.559a4.168,4.168,0,0,1,2.05,1.206c-.026.33-.082.353-.138.353m-3.678-2.9c-.75-.468-1.414-.887-2.085-1.278a4.218,4.218,0,0,1,2.2.9c.015.342-.048.373-.114.373m-4.046-2.361c-.783-.362-1.5-.688-2.213-.985a4.242,4.242,0,0,1,2.3.6c.057.344-.015.385-.09.385m-4.324-1.8c-.79-.261-1.54-.494-2.293-.7a4.325,4.325,0,0,1,2.359.308c.1.344.017.4-.066.4M155.1,4.885c-.789-.168-1.56-.317-2.336-.446a4.38,4.38,0,0,1,2.379.043c.134.339.05.4-.043.4" fill="#1a1a1a"/>
      <path id="Trazado_605363" data-name="Trazado 605363" d="M107.7,17.51a5.977,5.977,0,0,1,1.318-2.161,5.481,5.481,0,0,1-1.156,2.081.2.2,0,0,1-.162.08m3.062-3.547a5.6,5.6,0,0,1,1.566-1.97,5.485,5.485,0,0,1-1.421,1.909.2.2,0,0,1-.145.061m3.51-3.107a5.247,5.247,0,0,1,1.793-1.739,5.478,5.478,0,0,1-1.669,1.7.208.208,0,0,1-.124.042m3.9-2.593a4.947,4.947,0,0,1,1.989-1.474,5.515,5.515,0,0,1-1.888,1.448.206.206,0,0,1-.1.026M122.4,6.236a4.684,4.684,0,0,1,2.143-1.192,5.536,5.536,0,0,1-2.068,1.178.208.208,0,0,1-.075.014m4.456-1.445a4.529,4.529,0,0,1,2.25-.913,5.493,5.493,0,0,1-2.2.907.222.222,0,0,1-.051.006m4.6-.882a4.464,4.464,0,0,1,2.314-.649,5.326,5.326,0,0,1-2.288.648h-.026m4.673-.36a4.363,4.363,0,0,1,2.347-.411,5.29,5.29,0,0,1-2.342.411Z" fill="#1a1a1a"/>
      <path id="Trazado_605364" data-name="Trazado 605364" d="M223.586,98.471a9.04,9.04,0,0,1,1.2-2.219,4.129,4.129,0,0,1-1.037,2.141.205.205,0,0,1-.16.078m2.575-3.913a10.317,10.317,0,0,1,.851-2.386,4.15,4.15,0,0,1-.671,2.28.2.2,0,0,1-.18.106m1.9-4.278a11.918,11.918,0,0,1,.489-2.5,4.152,4.152,0,0,1-.3,2.36.2.2,0,0,1-.192.136m1.195-4.529a14.079,14.079,0,0,1,.133-2.545,4.2,4.2,0,0,1,.069,2.379.2.2,0,0,1-.2.166m.5-4.658a3.826,3.826,0,0,1-.184-1.352c0-.4-.009-.792-.023-1.188a1.4,1.4,0,0,1,.432,1.187q0,.579-.021,1.158a.2.2,0,0,1-.2.195m-.162-4.681a19.768,19.768,0,0,1-.517-2.492,4.22,4.22,0,0,1,.719,2.268c-.189.224-.2.224-.2.224m-.784-4.62a24.112,24.112,0,0,1-.81-2.407,4.252,4.252,0,0,1,1.007,2.156c-.166.249-.183.251-.2.251m-1.373-4.481c-.47-.865-.773-1.59-1.091-2.282a4.194,4.194,0,0,1,1.281,2.006c-.143.271-.167.276-.19.276m-1.954-4.263c-.553-.792-.952-1.468-1.365-2.11a4.167,4.167,0,0,1,1.545,1.81c-.113.294-.146.3-.18.3m-2.538-3.936c-.644-.709-1.147-1.311-1.654-1.867a4.06,4.06,0,0,1,1.816,1.539c-.075.315-.119.328-.162.328m-3.166-3.454c-.725-.582-1.335-1.069-1.945-1.5a3.85,3.85,0,0,1,2.081,1.149c-.026.332-.081.355-.136.355m-3.822-2.694a18.189,18.189,0,0,0-2.218-.93,3.6,3.6,0,0,1,2.311.546c.051.345-.019.384-.093.384m-4.427-1.46a11.47,11.47,0,0,0-2.325-.1,3.431,3.431,0,0,1,2.354-.31c.159.332.072.406-.029.406" fill="#1a1a1a"/>
      <path id="Trazado_605365" data-name="Trazado 605365" d="M140.592,135.649c-.205-.327-.207-12.549-.537-16.89.737,4.327.741,16.563.741,16.686a.2.2,0,0,1-.2.2" fill="#1a1a1a"/>
      <path id="Trazado_605366" data-name="Trazado 605366" d="M103.459,135.649c-.2-.207-.089-8.557-.089-8.557.408,0,.292,8.356.292,8.356a.2.2,0,0,1-.2.2" fill="#1a1a1a"/>
      <path id="Trazado_605367" data-name="Trazado 605367" d="M176.284,135.649H14.625c0-.407,161.659-.407,161.659-.407.2.316.112.407,0,.407" fill="#1a1a1a"/>
      <path id="Trazado_605368" data-name="Trazado 605368" d="M122.748,132.545c-.2-.2-.2-9.118-.2-9.118.406,0,.406,8.914.406,8.914a.2.2,0,0,1-.2.2" fill="#1a1a1a"/>
      <path id="Trazado_605369" data-name="Trazado 605369" d="M128.622,118.815c-.181-.017-.4-.034-.665-.055-3.057-.241-5.977-.619-6.644-1.744a.988.988,0,0,1-.031-.955c.728-1.618,1.118-5.354.225-6.906a1.205,1.205,0,0,0-.935-.683,1.037,1.037,0,0,0-.857.243c-.665.605-.65,2.216-.641,3.178,0,.164,0,.314,0,.445-.021,1.921-3.376,3.345-3.517,3.4-.125-.389,3.091-1.755,3.11-3.41,0-.128,0-.276,0-.436-.011-1.1-.027-2.755.774-3.484a1.437,1.437,0,0,1,1.172-.346,1.608,1.608,0,0,1,1.246.884c.982,1.707.553,5.591-.207,7.277a.588.588,0,0,0,.011.579c.65,1.1,4.627,1.414,6.325,1.546.268.021.49.04.653.056.172.328.083.406-.02.406" fill="#1a1a1a"/>
      <path id="Trazado_605370" data-name="Trazado 605370" d="M124.515,121.176a24.271,24.271,0,0,1-3.645-.3c8.076.817,9.794-2.195,9.81-2.225.3.3-.924,2.526-6.165,2.526" fill="#1a1a1a"/>
      <path id="Trazado_605371" data-name="Trazado 605371" d="M122.629,123.518c-.615,0-1.236-.022-1.881-.045-.421-.016-.855-.031-1.31-.041a16.438,16.438,0,0,1-1.754-.137,6.248,6.248,0,0,1-1.691-.344,2.325,2.325,0,0,1-1.1-1.147c.627.325.9.612,1.263.774a4.818,4.818,0,0,0,1.315.28,17.445,17.445,0,0,0,1.976.166c.456.011.892.027,1.315.041a16.271,16.271,0,0,0,6.672-.719,4.259,4.259,0,0,0,2.486-2.825c.408.958-.956,2.72-2.352,3.21a14.119,14.119,0,0,1-4.94.787" fill="#1a1a1a"/>
      <path id="Trazado_605372" data-name="Trazado 605372" d="M151.477,115.841a6.968,6.968,0,0,1-1.775-.22,16.911,16.911,0,0,1-6.14-2.848,32.045,32.045,0,0,0,6.244,2.454,9.042,9.042,0,0,0,7.838-2.257c2.539-2.355,2.651-6.311,2.751-9.8.024-.812.046-1.577.1-2.307.33-4.78-.43-16.484-.437-16.6.414.092,1.176,11.822.843,16.629-.049.721-.071,1.484-.094,2.29-.1,3.57-.218,7.619-2.881,10.089a9.813,9.813,0,0,1-6.445,2.573" fill="#1a1a1a"/>
      <path id="Trazado_605373" data-name="Trazado 605373" d="M147.047,109.531c-1.5-4.287-.507-24.594-.464-25.457.4.231-.622,21.118.658,25.192-.154.262-.174.265-.194.265" fill="#1a1a1a"/>
      <path id="Trazado_605374" data-name="Trazado 605374" d="M153.52,86.069c-3.449,0-6.939-.626-6.939-1.822,0-.7.748-1.188,2.288-1.476-.817.568-1.88.891-1.88,1.476s2.485,1.415,6.531,1.415,6.531-.825,6.531-1.415c0-.431-.7-.833-1.882-1.076,1.908-.024,2.291.611,2.291,1.076,0,1.2-3.491,1.822-6.94,1.822" fill="#1a1a1a"/>
      <path id="Trazado_605375" data-name="Trazado 605375" d="M149.132,85.677a1.681,1.681,0,0,1-.259-.929,7.8,7.8,0,0,0-2.616-6.082c-1.722-1.5-2.5-2.623-2.441-3.536a1.8,1.8,0,0,1,.937-1.374c1.431-.962,2.468.222,3.379,1.271.664.765,1.351,1.557,2.178,1.615a3.675,3.675,0,0,1,3.034,2.435c-.414.049-1.1-1.887-3.063-2.028a4.056,4.056,0,0,1-2.457-1.755c-.917-1.054-1.708-1.961-2.843-1.2a1.426,1.426,0,0,0-.761,1.063c-.047.764.708,1.812,2.3,3.2a8.269,8.269,0,0,1,2.755,6.371c.014.286.027.531.052.716-.182.232-.191.233-.2.233" fill="#1a1a1a"/>
      <path id="Trazado_605376" data-name="Trazado 605376" d="M149.467,76.634a15.03,15.03,0,0,1-.149-4.18c.046-.714.1-1.524.128-2.466a3.289,3.289,0,0,1,.471-1.805,1.929,1.929,0,0,1,1.8-.75,1.435,1.435,0,0,1,1.165.856,2.039,2.039,0,0,1,.1.634,53.436,53.436,0,0,1-.213,7.458c-.093-2.645-.14-5.8-.2-7.444a1.741,1.741,0,0,0-.067-.509,1.031,1.031,0,0,0-.841-.592,1.529,1.529,0,0,0-1.422.594A2.891,2.891,0,0,0,149.856,70c-.032.947-.084,1.761-.131,2.479a26.2,26.2,0,0,0-.056,3.935c-.193.218-.2.218-.2.218" fill="#1a1a1a"/>
      <path id="Trazado_605377" data-name="Trazado 605377" d="M155.416,76.517c.082-2.569.145-5.084-.012-7.7a1.3,1.3,0,0,0-.144-.631,1.148,1.148,0,0,0-.872-.409,1.463,1.463,0,0,0-1.448.923,1.272,1.272,0,0,1,1.461-1.331,1.562,1.562,0,0,1,1.2.593,1.63,1.63,0,0,1,.209.829,41.933,41.933,0,0,1-.192,7.549.2.2,0,0,1-.2.179" fill="#1a1a1a"/>
      <path id="Trazado_605378" data-name="Trazado 605378" d="M157.9,85.582a40.711,40.711,0,0,0-.152-6.064,9.42,9.42,0,0,1-.061-1.829,37.359,37.359,0,0,0,.448-7.957,1.806,1.806,0,0,0-.354-1.028,1.086,1.086,0,0,0-.913-.293,1.341,1.341,0,0,0-1.013.48c.035-.718.529-.834.966-.885a1.479,1.479,0,0,1,1.258.421,2.138,2.138,0,0,1,.461,1.256,37.592,37.592,0,0,1-.442,8.022,8.791,8.791,0,0,0,.055,1.776,25.018,25.018,0,0,1-.05,5.923.2.2,0,0,1-.2.178" fill="#1a1a1a"/>
      <path id="Trazado_605379" data-name="Trazado 605379" d="M117.006,127.258c-1.221,0-2.043-3.314-2.2-6.465-.157-3.178.346-6.59,1.586-6.652a2.66,2.66,0,0,1,.726.251.721.721,0,0,1-.715.156c-.618.031-1.378,2.414-1.19,6.225s1.178,6.117,1.8,6.077c.164-.007.989-.224,1.141-3.715.261,3.356-.505,4.092-1.122,4.122h-.033" fill="#1a1a1a"/>
      <path id="Trazado_605380" data-name="Trazado 605380" d="M116.193,114.548c-.728-.073-1.435-.139-2.14-.2-2.862-.272-5.822-.553-8.721-1.1a84.743,84.743,0,0,1-11.076-2.931c4.249.969,7.752,1.9,11.151,2.531,2.881.54,5.832.819,8.685,1.09q1.059.1,2.121.205c.171.328.083.406-.02.406" fill="#1a1a1a"/>
      <path id="Trazado_605381" data-name="Trazado 605381" d="M44.832,120.483c-7.275,0-14.8-9.635-18.9-19.019a14.476,14.476,0,0,1,4.032-3.9,26.741,26.741,0,0,1,5.055-2.882c.309.142,9.665,9.545,12.548,15.318-3.063-5.222-11.534-13.882-12.527-14.887A29.181,29.181,0,0,0,30.2,97.9a18.956,18.956,0,0,0-3.838,3.511C30.608,111.1,38.5,121,45.869,120.006c7.822-1.071,11.134-11.2,14.652-24.329-3.163,13.383-6.526,23.627-14.6,24.732a7.981,7.981,0,0,1-1.092.074" fill="#1a1a1a"/>
      <path id="Trazado_605382" data-name="Trazado 605382" d="M43.228,104.164a64.169,64.169,0,0,1,2.293-6.04C49.107,89.59,51.94,82.85,57.654,82.345c-5.433.889-8.224,7.53-11.758,15.937-.785,1.869-1.6,3.8-2.482,5.762a.2.2,0,0,1-.186.12" fill="#1a1a1a"/>
      <path id="Trazado_605383" data-name="Trazado 605383" d="M60.744,75.816a2.418,2.418,0,0,1-1.994-1.05,6.2,6.2,0,0,1,1.286.513,2.016,2.016,0,1,0-.514-3.487,1.56,1.56,0,0,1,2.081-.667,2.423,2.423,0,0,1-.859,4.691" fill="#1a1a1a"/>
      <path id="Trazado_605384" data-name="Trazado 605384" d="M60.913,74.732a17.384,17.384,0,0,1-1.243-1.564c.108-.315,1.945-.847,1.945-.847.114.393-1.444.843-1.444.843l.907,1.245c-.081.311-.123.323-.165.323" fill="#1a1a1a"/>
      <path id="Trazado_605385" data-name="Trazado 605385" d="M57.374,79.127a3.131,3.131,0,0,1-2.541-1.319,4.482,4.482,0,0,1-.139-3.5l1.632-6.664c.394.1-1.243,6.785-1.243,6.785a4.171,4.171,0,0,0,.1,3.166,2.744,2.744,0,0,0,2.214,1.127c.175.328.085.407-.018.407" fill="#1a1a1a"/>
      <path id="Trazado_605386" data-name="Trazado 605386" d="M54.632,73.421c-.7-.164-.978-.65-.846-1.117L54.8,68.7a.88.88,0,0,1,1.083-.608.764.764,0,0,1,.486.342.756.756,0,0,1,.039.593c-.323-.36-.386-.472-.636-.543-.58.327-1.592,3.932-1.592,3.932.574.65.837.507.908.255.284.5-.07.752-.454.752" fill="#1a1a1a"/>
      <path id="Trazado_605387" data-name="Trazado 605387" d="M44.811,135.674c.187-1.4,2.289-13.516,2.523-15.65.154,2.318-1.935,14.331-2.33,15.511a.2.2,0,0,1-.193.139" fill="#1a1a1a"/>
      <path id="Trazado_605388" data-name="Trazado 605388" d="M75.071,114.989a3.107,3.107,0,0,1-1.4-.29c.3-.3,2.8.953,6.174-2.851,3.122-3.524-2-14.633-4.353-19.246,3.328,5.638,7.828,15.938,4.657,19.516-2.092,2.362-3.9,2.871-5.075,2.871" fill="#1a1a1a"/>
      <path id="Trazado_605389" data-name="Trazado 605389" d="M75.9,135.674c-.228-.319-2.965-15.464-2.185-23.1a118.384,118.384,0,0,0,.7-18.5c.708,4.688.465,11.11-.3,18.547-.775,7.58,1.952,22.668,1.979,22.82-.176.239-.188.24-.2.24" fill="#1a1a1a"/>
      <path id="Trazado_605390" data-name="Trazado 605390" d="M53.476,84.518c-.106-.028-.4-.151-1.586-.463a6.49,6.49,0,0,1-3.69-2.527l-.278-.326a9.182,9.182,0,0,0-.719-.717c-.618-.573-1.2-1.117-1.195-1.761a1.319,1.319,0,0,1,.518-.973,1.142,1.142,0,0,1,.863-.3A4.307,4.307,0,0,1,49.753,79a9.209,9.209,0,0,0,.931.932,22.559,22.559,0,0,0-1.545-1.649l-.434-.437a23.162,23.162,0,0,0-2.192-1.766,14.489,14.489,0,0,1-1.663-1.341,1.215,1.215,0,0,1,.032-1.41,1.345,1.345,0,0,1,1.448-.7,8.848,8.848,0,0,1,2.938,1.926c.438.05.73-.224,1.264-.316a2.868,2.868,0,0,1,2.123.277,1.629,1.629,0,0,1,1.129-.232,5.69,5.69,0,0,1,.981.295,1.248,1.248,0,0,1-1.053.106,1.326,1.326,0,0,0-.937.24,3.607,3.607,0,0,0-2.174-.284,1.39,1.39,0,0,0-.774.408c-.106.1-.268.251-.448.128-.063-.041-.2-.156-.379-.315a8.772,8.772,0,0,0-2.765-1.838.956.956,0,0,0-1,.514.852.852,0,0,0-.076.931,15.243,15.243,0,0,0,1.6,1.283,23.06,23.06,0,0,1,2.237,1.805l.435.437c1.128,1.132,1.816,1.847,1.863,2.226-.25.37-.556.506-1.844-.953a3.711,3.711,0,0,0-2.082-1.4.706.706,0,0,0-.567.195.95.95,0,0,0-.385.674c0,.464.516.947,1.067,1.459a9.992,9.992,0,0,1,.75.748l.281.33a6.085,6.085,0,0,0,3.482,2.4,11.943,11.943,0,0,1,1.568.468c.064.345-.01.388-.086.388" fill="#1a1a1a"/>
      <path id="Trazado_605391" data-name="Trazado 605391" d="M52.164,77.736a19.835,19.835,0,0,0-2.8-2.57c.331-.261,2.295,1.245,2.966,2.253-.092.306-.132.317-.17.317" fill="#1a1a1a"/>
      <path id="Trazado_605392" data-name="Trazado 605392" d="M54.556,76.614a22.836,22.836,0,0,0-2.028-1.687c.287-.294,1.417.53,2.177,1.345-.05.324-.1.342-.149.342" fill="#1a1a1a"/>
      <path id="Trazado_605393" data-name="Trazado 605393" d="M70.233,96.321a6.608,6.608,0,0,1-1.966-.295,4.6,4.6,0,0,1-2.992-2.509,13.718,13.718,0,0,1-.788-3.318c-.037-.247-.074-.495-.114-.742-.3-1.819-.772-3.6-2.231-4.306a6.513,6.513,0,0,0-1.408-.438A4.346,4.346,0,0,1,58.5,83.707a4.774,4.774,0,0,1-1.327-3.676A5.375,5.375,0,0,1,60,75.428c.071.418-2.334,1.582-2.419,4.615a4.441,4.441,0,0,0,1.2,3.37,3.954,3.954,0,0,0,2.042.9,6.823,6.823,0,0,1,1.495.468c1.626.788,2.141,2.68,2.455,4.609.04.247.078.5.116.746a13.288,13.288,0,0,0,.76,3.22,4.206,4.206,0,0,0,2.737,2.279,5.846,5.846,0,0,0,4.676-.471,7.128,7.128,0,0,0,2.148-2.28c1.67-2.671,1.961-5.313,1-9.116a14.609,14.609,0,0,0-4.751-8c-.419-.408-.851-.831-1.284-1.291a1.5,1.5,0,0,1-.485-.915,2.893,2.893,0,0,1,.468-1.389A17.951,17.951,0,0,0,71.02,70.4a6.429,6.429,0,0,0,.4-3.446c-.431-2.39-4.825-3.372-4.869-3.381-2.185-1.907-5.861-3-8.389-1.611-2.428,1.337-1.787,4.24-1.78,4.269,0,.172.014,3.05,4.491,4.748-4.906-1.425-4.9-4.573-4.893-4.706-.006,0-.7-3.188,1.986-4.667,2.665-1.471,6.516-.353,8.724,1.58.543.126,4.674,1.162,5.13,3.7A6.807,6.807,0,0,1,71.4,70.55a12.506,12.506,0,0,1-.594,1.271,4.292,4.292,0,0,0-.706,1.723,1.165,1.165,0,0,0,.375.66c.426.453.855.873,1.271,1.279a14.939,14.939,0,0,1,4.861,8.187c.992,3.924.687,6.657-1.05,9.433a7.521,7.521,0,0,1-2.275,2.408,5.753,5.753,0,0,1-3.049.81" fill="#1a1a1a"/>
      <path id="Trazado_605394" data-name="Trazado 605394" d="M38.363,117.945c.857-2.816,3.41-4.39,6.474-4.39a7.068,7.068,0,0,1,6.606,3.986,7.9,7.9,0,0,0-6.606-3.58,6.543,6.543,0,0,0-6.285,3.858.2.2,0,0,1-.189.126" fill="#1a1a1a"/>
      <path id="Trazado_605395" data-name="Trazado 605395" d="M.2,70.445C0,70.242,0,58.686,0,58.686A5.1,5.1,0,0,1,5.092,53.6h51.62c0,.406-51.62.406-51.62.406A4.691,4.691,0,0,0,.407,58.686V70.242a.2.2,0,0,1-.2.2" fill="#1a1a1a"/>
      <path id="Trazado_605396" data-name="Trazado 605396" d="M25.852,111.793H5.092A5.1,5.1,0,0,1,0,106.7V86.75c.407,0,.407,19.951.407,19.951a4.69,4.69,0,0,0,4.685,4.685h20.76c.2.318.112.407,0,.407" fill="#1a1a1a"/>
      <path id="Trazado_605397" data-name="Trazado 605397" d="M73.266,111.793a5.36,5.36,0,0,0,4.685-5.092V75.774c.407,0,.407,30.927.407,30.927a5.1,5.1,0,0,1-5.092,5.092" fill="#1a1a1a"/>
      <path id="Trazado_605398" data-name="Trazado 605398" d="M122.216,73.58c-6.358,0-6.358-4.134-6.358-10.985V60.518a18.033,18.033,0,0,0,1.37-3.91,4.515,4.515,0,0,1-.8-.941c.375-.164,2.5,3.466,8.947,2.221.491-.1,2.334-.5,2.334-.5.246.168.871,2.454,1.167,3.038.021.083.117,2.414.117,2.414,0,6.471,0,10.74-6.777,10.74m-5.952-12.986v2c0,6.821,0,10.578,5.952,10.578,6.369,0,6.369-3.667,6.369-10.324l-.092-2.28a26.211,26.211,0,0,1-.887-2.742c-.483.107-1.758.385-2.154.461-4.148.8-6.605-.362-7.881-1.385a17.39,17.39,0,0,1-1.307,3.691" fill="#1a1a1a"/>
      <path id="Trazado_605399" data-name="Trazado 605399" d="M121.323,67.263c-.147-.05-1.46-.718-1.282-1.757.113-.654.767-.64,1.237-.634.411.011.585-.008.6-.126.1-.65.071-4.428.071-4.465.409.153.436,3.844.332,4.527-.074.49-.6.483-1.014.472-.521-.01-.781.015-.828.3-.126.74.961,1.3.972,1.3.056.344-.017.385-.091.385" fill="#1a1a1a"/>
      <path id="Trazado_605400" data-name="Trazado 605400" d="M122.793,69.479a2.25,2.25,0,0,1-.7-.12c.578-.24.952-.253,1.238-.431a1.531,1.531,0,0,0,.587-.971c.4.093.272.917-.371,1.316a1.4,1.4,0,0,1-.757.206" fill="#1a1a1a"/>
      <path id="Trazado_605401" data-name="Trazado 605401" d="M173.417,98.244c-.845-.458-1.161-1.433-.991-2.773a3.757,3.757,0,0,1,1.585-2.873,3.811,3.811,0,0,1,.649-.33,9.593,9.593,0,0,1,1.195-.369,4.625,4.625,0,0,0,2.07-.913,2.189,2.189,0,0,0,.563-1.944A94.73,94.73,0,0,0,176.81,79.5a4.971,4.971,0,0,1,2.3-4.072c2.988-2.01,6.957-1.776,10.449-1.283a3.421,3.421,0,0,1,2.91,1.814,7.782,7.782,0,0,1,.493,4.31c-.277-1.162-.185-2.8-.857-4.126a3,3,0,0,0-2.6-1.594c-3.416-.484-7.294-.715-10.166,1.218a4.567,4.567,0,0,0-2.126,3.664c.086.353.884,3.659,1.68,9.556a2.6,2.6,0,0,1-.69,2.3,5.013,5.013,0,0,1-2.245,1.007,9.265,9.265,0,0,0-1.146.351,3.439,3.439,0,0,0-.58.3,3.367,3.367,0,0,0-1.4,2.58c-.085.677-.108,1.88.689,2.343.036.344-.032.38-.1.38" fill="#1a1a1a"/>
      <path id="Trazado_605402" data-name="Trazado 605402" d="M166.406,130.028c6.482-6.139,21.253-7.086,21.4-7.1-.124.416-14.759,1.355-21.269,7.045a.206.206,0,0,1-.134.05" fill="#1a1a1a"/>
      <path id="Trazado_605403" data-name="Trazado 605403" d="M161.856,135.649a13.447,13.447,0,0,1-1.571-4.225c-.116-.574-.208-1.154-.274-1.723-.828-7.175,2.1-14.639,4.381-19.628,3.1-6.795,6.9-11.295,11.6-13.757-4.428,2.779-8.162,7.217-11.225,13.926-2.258,4.945-5.163,12.338-4.346,19.413.063.558.154,1.125.266,1.687a16.667,16.667,0,0,0,1.355,4.013c-.122.287-.152.294-.182.294" fill="#1a1a1a"/>
      <path id="Trazado_605404" data-name="Trazado 605404" d="M204.169,108.85a8.763,8.763,0,0,1-.77-1.506c-3.111-7.187-7.069-11.044-12.453-12.14-.421-.085-1.695-.307-1.695-.307.07-.4,1.351-.178,1.775-.092,5.452,1.109,9.622,5.158,12.748,12.377.075.176.509,1.209.582,1.385-.133.278-.161.283-.187.283" fill="#1a1a1a"/>
      <path id="Trazado_605405" data-name="Trazado 605405" d="M189.6,91.423c-.186,0-.383-.008-.6-.027-.682-.058-1.683-.18-2.383-.32a6.214,6.214,0,0,1,2.417-.085,4.175,4.175,0,0,0,1.641-.122,2.341,2.341,0,0,0,1.515-1.678,14.323,14.323,0,0,0,.441-4.72c-.015-1.059-.044-1.917-.07-2.774l-.031-.91c.4-.387.437.9.437.9.029.86.056,1.72.07,2.579a15.331,15.331,0,0,1-.458,5.056,2.724,2.724,0,0,1-1.78,1.937,3.936,3.936,0,0,1-1.2.167" fill="#1a1a1a"/>
      <path id="Trazado_605406" data-name="Trazado 605406" d="M181.458,98.053a13.148,13.148,0,0,1-5.242-1.272,16.153,16.153,0,0,0,6.444.771,4.24,4.24,0,0,0,3.288-2.631,5.892,5.892,0,0,0-.522-5.527c-.191-.279-.4-.552-.6-.825-.966-1.286-1.968-2.615-1.384-4.458a5.756,5.756,0,0,1,1.441-2.081c.131-.141.261-.28.383-.418.856-.963,1.59-1.865,2.245-2.76a9.718,9.718,0,0,0,1.493-2.2c.4-.13,1.232,1,3.854,3.552a17.906,17.906,0,0,1-3.572-3.176,15.682,15.682,0,0,1-1.353,1.943c-.755,1.028-1.5,1.94-2.362,2.912-.125.14-.256.281-.39.426a5.446,5.446,0,0,0-1.35,1.924c-.521,1.643.374,2.832,1.322,4.092.207.277.417.556.611.84a6.3,6.3,0,0,1,.562,5.916,4.632,4.632,0,0,1-3.6,2.872,7.853,7.853,0,0,1-1.27.1" fill="#1a1a1a"/>
      <path id="Trazado_605407" data-name="Trazado 605407" d="M187.6,82.629c.163-.026.272.044.319.63.052.654-.117.769-.264.763s-.294-.208-.286-.675.018-.685.231-.718" fill="#1a1a1a"/>
      <path id="Trazado_605408" data-name="Trazado 605408" d="M192.116,82.362c.162-.031.273.035.34.619.074.652-.092.772-.238.771s-.3-.2-.309-.664,0-.685.207-.726" fill="#1a1a1a"/>
      <path id="Trazado_605409" data-name="Trazado 605409" d="M192.713,81.186a1.378,1.378,0,0,0-1.323-.225c.76-.622,1.2-.354,1.456-.133-.018.335-.076.358-.133.358" fill="#1a1a1a"/>
      <path id="Trazado_605410" data-name="Trazado 605410" d="M188.295,99.513c-1.132,0-2.976-2.249-3.36-2.732,1.271.948,2.879,2.538,3.47,2.306.688-.266.781-2.825.679-4.378l.18-3.453c.406.023.225,3.451.225,3.451.048.7.23,4.311-.936,4.76a.694.694,0,0,1-.258.046" fill="#1a1a1a"/>
      <path id="Trazado_605411" data-name="Trazado 605411" d="M191.636,95.147a3.7,3.7,0,0,0-.615-4.13c.314-.262,2.329,1.865.781,4.045a.2.2,0,0,1-.166.085" fill="#1a1a1a"/>
      <path id="Trazado_605412" data-name="Trazado 605412" d="M174.68,125.787c-.908-7.33,3.06-19.15,3.1-19.269.345.249-3.594,11.987-2.9,19.045-.189.224-.2.224-.2.224" fill="#1a1a1a"/>
      <path id="Trazado_605413" data-name="Trazado 605413" d="M189.43,88.145a1.429,1.429,0,0,1-.835-.248,1.926,1.926,0,0,1-.711-1.294c.406-.032.479.641.945.96a1.284,1.284,0,0,0,1.108.1c-.112.452-.316.483-.507.483" fill="#1a1a1a"/>
      <path id="Trazado_605414" data-name="Trazado 605414" d="M226.579,121.952a1.9,1.9,0,0,1-.96-.247,2.305,2.305,0,0,1-1.05-1.963,5.358,5.358,0,0,1,2.727-4.72,2.307,2.307,0,0,1,2.222-.072c1.258.727,1.409,2.833.334,4.7a4.183,4.183,0,0,1-3.273,2.306m1.968-6.846a2.407,2.407,0,0,0-1.068.28,4.95,4.95,0,0,0-2.5,4.333,1.912,1.912,0,0,0,.847,1.632c1.062.617,2.714-.241,3.677-1.91s.879-3.524-.186-4.138a1.513,1.513,0,0,0-.767-.2" fill="#1a1a1a"/>
      <path id="Trazado_605415" data-name="Trazado 605415" d="M202.383,135.643a5.325,5.325,0,0,1-5.055-7l7.946-23.981a5.316,5.316,0,0,1,5.055-3.651h33.5a5.423,5.423,0,0,1,1.181.129c.052.021,3.356,1.825,3.356,1.825-.194.358-3.473-1.433-3.473-1.433a4.982,4.982,0,0,0-1.064-.114h-33.5a4.915,4.915,0,0,0-4.67,3.372l-7.946,23.982a4.919,4.919,0,0,0,4.67,6.464c.2.316.113.407,0,.407" fill="#1a1a1a"/>
      <path id="Trazado_605416" data-name="Trazado 605416" d="M238.166,135.931H204.66a5.368,5.368,0,0,1-5.053-7l7.945-22.948a5.306,5.306,0,0,1,5.055-3.5h33.5a5.39,5.39,0,0,1,4.4,2.229,4.883,4.883,0,0,1,.654,4.484l-7.945,22.948a5.6,5.6,0,0,1-5.054,3.783m-25.559-33.037a4.9,4.9,0,0,0-4.67,3.222l-7.945,22.948a4.962,4.962,0,0,0,4.668,6.461h33.506a5.18,5.18,0,0,0,4.669-3.511l7.945-22.948a4.486,4.486,0,0,0-.6-4.114,4.983,4.983,0,0,0-4.068-2.058Z" fill="#1a1a1a"/>
      <path id="Trazado_605417" data-name="Trazado 605417" d="M194.053,133.369a8.163,8.163,0,0,0-1.027-2.734c-.111-.219-.217-.423-.3-.6-.092-.2-.183-.427-.278-.675-.544-1.4-1.287-3.322-3.946-2.862a21.812,21.812,0,0,0-5.331,2.323,14.313,14.313,0,0,1,5.241-2.72c3.024-.518,3.854,1.664,4.415,3.111.094.239.179.461.267.651.083.174.185.372.3.586a5.1,5.1,0,0,1,.864,2.757.2.2,0,0,1-.2.165" fill="#1a1a1a"/>
      <path id="Trazado_605418" data-name="Trazado 605418" d="M190.489,133.37a5.111,5.111,0,0,1-1.524-3.027c.409.174.681,1.726,1.667,2.678-.036.329-.089.349-.143.349" fill="#1a1a1a"/>
      <path id="Trazado_605419" data-name="Trazado 605419" d="M197.084,133.357a2.045,2.045,0,0,0-.455-1.778,8.3,8.3,0,0,1-1.034-2.141,11.278,11.278,0,0,0-1.672-3.269c-1.13-1.232-3.7.215-3.729.229-.085-.42,2.683-1.97,4.031-.505a11.591,11.591,0,0,1,1.751,3.4,8.4,8.4,0,0,0,.955,2.018,1.632,1.632,0,0,1,.324,1.958.2.2,0,0,1-.171.092" fill="#1a1a1a"/>
      <path id="Trazado_605420" data-name="Trazado 605420" d="M184.5,133.369a6.082,6.082,0,0,1-1.714-5.3,5.953,5.953,0,0,1,6.672-5.126,7.3,7.3,0,0,1,4.369,2.5,9.576,9.576,0,0,0-4.434-2.1,5.556,5.556,0,0,0-6.205,4.788,5.845,5.845,0,0,0,1.461,4.892c-.049.325-.1.343-.149.343" fill="#1a1a1a"/>
      <path id="Trazado_605421" data-name="Trazado 605421" d="M197.921,127.705c-.36-.654-.938-2.046-1.614-2.326-1.017-.426-2.305.608-2.315.619-.2-.364,1.233-1.509,2.472-1,.988.412,1.623,2.356,1.65,2.438-.152.263-.174.266-.193.266" fill="#1a1a1a"/>
      <path id="Trazado_605422" data-name="Trazado 605422" d="M196.828,125.674c3.211-12.593.524-20.253.5-20.329.411-.063,3.144,7.708-.3,20.18a.2.2,0,0,1-.2.149" fill="#1a1a1a"/>
      <path id="Trazado_605423" data-name="Trazado 605423" d="M21.626,86.007c-.144-.059-13.682-13.6-13.682-13.6.288-.288,13.682,13.106,13.682,13.106L34.431,72.711c.288,0,9.662,9.374,9.662,9.374-.288.288-9.518-8.942-9.518-8.942L21.77,85.948a.2.2,0,0,1-.144.059" fill="#1a1a1a"/>
      <path id="Trazado_605424" data-name="Trazado 605424" d="M48.684,78.427H46.555c0-.407,2.129-.407,2.129-.407.2.316.111.407,0,.407m-4.413,0H41.988c0-.407,2.283-.407,2.283-.407.2.316.112.407,0,.407m-4.566,0H37.421c0-.407,2.284-.407,2.284-.407.2.316.112.407,0,.407m-4.567,0H32.854c0-.407,2.284-.407,2.284-.407.2.316.111.407,0,.407m-4.567,0H28.287c0-.407,2.284-.407,2.284-.407.2.316.112.407,0,.407m-4.568,0H23.719c0-.407,2.284-.407,2.284-.407.2.316.113.407,0,.407m-4.567,0H19.153c0-.407,2.283-.407,2.283-.407.2.316.113.407,0,.407m-4.566,0H14.586c0-.407,2.284-.407,2.284-.407.2.316.111.407,0,.407m-4.568,0H10.02c0-.407,2.282-.407,2.282-.407.2.316.112.407,0,.407m-4.566,0H5.452c0-.407,2.284-.407,2.284-.407.2.316.112.407,0,.407" fill="#1a1a1a"/>
      <path id="Trazado_605425" data-name="Trazado 605425" d="M26.659,100.826c-2.825-1-7.27-7.543-7.434-9.284a1.521,1.521,0,0,1,.942-1.611,1.2,1.2,0,0,1,.482-1.423,1.5,1.5,0,0,1,.585-.265,1.241,1.241,0,0,1,1.045.349c.057.083,4.571,11.959,4.571,11.959-.084.254-.137.275-.191.275M21.42,88.633a1.1,1.1,0,0,0-.534.207.8.8,0,0,0-.262,1.112c-.17.309-1.088.537-.993,1.551.14,1.494,4.024,7.313,6.664,8.731L21.975,88.87a.9.9,0,0,0-.555-.237" fill="#1a1a1a"/>
      <path id="Trazado_605426" data-name="Trazado 605426" d="M34.264,95.451c-.046,0-8.582-1.982-8.582-1.982a31.6,31.6,0,0,1-3.032-3.633c-.571-.782-1.077-1.468-.952-2.12a1.254,1.254,0,0,1,.629-.824c1.2-.74,1.947.328,2.447,1.035.094.134.231.337.4.579a28.651,28.651,0,0,0,1.778,2.455c.827.931,1.976,1.909,2.617,1.853a.512.512,0,0,0,.408-.264,1.356,1.356,0,0,0,.142-.778,7.112,7.112,0,0,0-.143-.849c-.225-1.1-.531-2.612.077-3.265a1.092,1.092,0,0,1,1-.294,1.57,1.57,0,0,1,.928.366,1.605,1.605,0,0,1,.388.81c.143.6.242,1.244.339,1.864.262,1.7.534,3.45,1.708,4.7-.007.305-.076.343-.147.343m-8.435-2.366,7.894,1.828A9.929,9.929,0,0,1,32.3,90.467c-.1-.642-.194-1.248-.334-1.834a1.19,1.19,0,0,0-.275-.61A1.209,1.209,0,0,0,31,87.768a.705.705,0,0,0-.649.167c-.465.5-.17,1.948.022,2.907a7.472,7.472,0,0,1,.153.909,1.746,1.746,0,0,1-.206,1.018.919.919,0,0,1-.719.45c-1.021.064-2.4-1.362-2.954-1.986a29.485,29.485,0,0,1-1.812-2.5c-.161-.239-.3-.442-.39-.574-.684-.969-1.166-1.383-1.9-.922a.859.859,0,0,0-.444.554c-.092.477.353,1.08.679,1.521a39.13,39.13,0,0,0,3.052,3.771" fill="#1a1a1a"/>
      <path id="Trazado_605427" data-name="Trazado 605427" d="M24,95.11a24.716,24.716,0,0,1-2.011-2.293,18.787,18.787,0,0,1-1.669-2.565c.312-.28,1.191,1.352,1.982,2.305.977,1.177,1.853,2.218,1.853,2.218-.063.32-.109.335-.155.335" fill="#1a1a1a"/>
      <path id="Trazado_605428" data-name="Trazado 605428" d="M10.806,97.953H6.174a40,40,0,0,1-.2-4.836,40.193,40.193,0,0,1,4.836-.2,40.168,40.168,0,0,1,.2,4.835.2.2,0,0,1-.2.2m-4.429-.407H10.6V93.321H6.377Z" fill="#1a1a1a"/>
      <path id="Trazado_605429" data-name="Trazado 605429" d="M10.806,107.389H6.174a40,40,0,0,1-.2-4.836,40,40,0,0,1,4.836-.2,40.176,40.176,0,0,1,.2,4.835.2.2,0,0,1-.2.205m-4.429-.408H10.6v-4.225H6.377Z" fill="#1a1a1a"/>
      <path id="Trazado_605430" data-name="Trazado 605430" d="M29.745,59.56H16.26c0-.407,13.485-.407,13.485-.407.2.316.112.407,0,.407" fill="#1a1a1a"/>
      <path id="Trazado_605431" data-name="Trazado 605431" d="M11.629,59.56H8.088c0-.407,3.541-.407,3.541-.407.2.316.112.407,0,.407" fill="#1a1a1a"/>
      <path id="Trazado_605432" data-name="Trazado 605432" d="M29.745,62.647H8.088c0-.406,21.657-.406,21.657-.406.2.316.112.406,0,.406" fill="#1a1a1a"/>
      <path id="Trazado_605433" data-name="Trazado 605433" d="M18.036,65.763H8.089c0-.407,9.947-.407,9.947-.407.2.316.112.407,0,.407" fill="#1a1a1a"/>
      <path id="Trazado_605434" data-name="Trazado 605434" d="M206.388,73.7l-10.449-.025c0-.407,10.245-.382,10.245-.382V20.9h-52.4V63.234c-.409,0-.409-42.541-.409-42.541.2-.2,53.012-.2,53.012-.2.205.2.205,53.011.205,53.011-.1.183-.151.2-.205.2" fill="#1a1a1a"/>
      <path id="Trazado_605435" data-name="Trazado 605435" d="M201.449,62.64h-9.876c-.205-.2-.205-12.362-.205-12.362.205-.2,10.081-.2,10.081-.2.2.2.2,12.361.2,12.361a.2.2,0,0,1-.2.2m-9.672-.408h9.468V50.482h-9.468Z" fill="#1a1a1a"/>
      <path id="Trazado_605436" data-name="Trazado 605436" d="M191.338,86.537a2.164,2.164,0,0,0,.843-1.6,2.748,2.748,0,0,1-1.416-.375,11.671,11.671,0,0,1-.624-2.518,13.41,13.41,0,0,1,.939,2.26,4.1,4.1,0,0,0,1.32.241,1.472,1.472,0,0,1-1.029,1.988l-.033,0" fill="#1a1a1a"/>
      <path id="Trazado_605437" data-name="Trazado 605437" d="M186.469,82.71a1.5,1.5,0,0,1,.781-1.648A1.7,1.7,0,0,1,188.672,81c-.553.239-.92.25-1.225.418a1.929,1.929,0,0,0-.779,1.132.2.2,0,0,1-.2.159" fill="#1a1a1a"/>
      <path id="Trazado_605438" data-name="Trazado 605438" d="M204.455,135.931H176.966a1.432,1.432,0,1,1,0-2.864H198.2c0,.407-21.232.407-21.232.407a1.025,1.025,0,0,0,0,2.051h27.489c.2.315.113.406,0,.406" fill="#1a1a1a"/>
      <path id="Trazado_605439" data-name="Trazado 605439" d="M186.906,133.474c2.2-.535,2.311-2.065,2.313-2.081.4.042.27,1.932-2.3,2.081Z" fill="#1a1a1a"/>
      <path id="Trazado_605440" data-name="Trazado 605440" d="M79.737,39.308H58.649a.884.884,0,0,1-.884-.882V31.808a.885.885,0,0,1,.884-.883H79.737a.885.885,0,0,1,.884.883v6.618a.884.884,0,0,1-.884.882M58.649,31.613c-.194.195-.194,6.813-.194,6.813.194.193,21.282.193,21.282.193.194-.193.194-6.811.194-6.811-.194-.195-21.282-.195-21.282-.195"/>
      <path id="Trazado_605441" data-name="Trazado 605441" d="M72.58,35.333H60.561a.276.276,0,0,1,0-.552H72.58a.276.276,0,0,1,0,.552"/>
      <path id="Trazado_605442" data-name="Trazado 605442" d="M74.748,33.305H60.561a.276.276,0,0,1,0-.552H74.748a.276.276,0,0,1,0,.552"/>
      <path id="Trazado_605443" data-name="Trazado 605443" d="M70.235,37.481H60.561a.276.276,0,1,1,0-.552h9.674a.276.276,0,1,1,0,.552"/>
      <path id="Trazado_605444" data-name="Trazado 605444" d="M79.737,28.16H58.649a.884.884,0,0,1-.884-.882V20.66a.885.885,0,0,1,.884-.883H79.737a.885.885,0,0,1,.884.883v6.618a.884.884,0,0,1-.884.882M58.649,20.465c-.194.195-.194,6.813-.194,6.813.194.193,21.282.193,21.282.193.194-.193.194-6.811.194-6.811-.194-.195-21.282-.195-21.282-.195"/>
      <path id="Trazado_605445" data-name="Trazado 605445" d="M72.58,24.185H60.561a.276.276,0,1,1,0-.552H72.58a.276.276,0,1,1,0,.552"/>
      <path id="Trazado_605446" data-name="Trazado 605446" d="M74.748,22.157H60.561a.276.276,0,1,1,0-.552H74.748a.276.276,0,1,1,0,.552"/>
      <path id="Trazado_605447" data-name="Trazado 605447" d="M70.235,26.333H60.561a.276.276,0,1,1,0-.552h9.674a.276.276,0,1,1,0,.552"/>
      <path id="Trazado_605448" data-name="Trazado 605448" d="M79.737,50.456H58.649a.884.884,0,0,1-.884-.882V42.956a.885.885,0,0,1,.884-.883H79.737a.885.885,0,0,1,.884.883v6.618a.884.884,0,0,1-.884.882M58.649,42.761c-.194.195-.194,6.813-.194,6.813.194.193,21.282.193,21.282.193.194-.193.194-6.811.194-6.811-.194-.195-21.282-.195-21.282-.195"/>
      <path id="Trazado_605449" data-name="Trazado 605449" d="M72.58,46.481H60.561a.276.276,0,1,1,0-.552H72.58a.276.276,0,1,1,0,.552"/>
      <path id="Trazado_605450" data-name="Trazado 605450" d="M74.748,44.452H60.561a.275.275,0,1,1,0-.551H74.748a.275.275,0,1,1,0,.551"/>
      <path id="Trazado_605451" data-name="Trazado 605451" d="M70.235,48.629H60.561a.276.276,0,0,1,0-.552h9.674a.276.276,0,0,1,0,.552"/>
      <rect id="Rectángulo_345712" data-name="Rectángulo 345712" width="27.051" height="33.671" transform="translate(86.671 17.603)" fill="#fff7c2"/>
      <path id="Trazado_605452" data-name="Trazado 605452" d="M114.792,50.016H88.017a.225.225,0,0,1-.225-.224V16.535a.224.224,0,0,1,.225-.224h26.775a.224.224,0,0,1,.225.224V49.792a.225.225,0,0,1-.225.224m-26.55-.449h26.325V16.76H88.242Z" fill="#1a1a1a"/>
      <path id="Trazado_605453" data-name="Trazado 605453" d="M98.591,39.772a.225.225,0,0,1-.225-.225l0-1.926a.225.225,0,0,1,.45,0l0,1.926a.225.225,0,0,1-.224.225Z" fill="#1a1a1a"/>
      <path id="Trazado_605454" data-name="Trazado 605454" d="M98.393,37.852a5.345,5.345,0,0,1-2.884-.721c-1.857-1.189-1.378-3.309-1.028-4.858.083-.367.161-.713.193-.99.16-1.4.444-7.075.447-7.132a.227.227,0,0,1,.236-.213.224.224,0,0,1,.213.236c-.011.233-.287,5.745-.449,7.16a10.257,10.257,0,0,1-.2,1.038c-.339,1.5-.76,3.361.831,4.381,2.042,1.308,5.475.22,5.51.208a.225.225,0,1,1,.138.428,10.736,10.736,0,0,1-3.006.463" fill="#1a1a1a"/>
      <path id="Trazado_605455" data-name="Trazado 605455" d="M104.5,29.36a.23.23,0,0,1-.223-.257,7.846,7.846,0,0,0-.908-4.14,16.963,16.963,0,0,1-8.035-.589.225.225,0,0,1-.137-.287.228.228,0,0,1,.288-.136,16.875,16.875,0,0,0,7.962.541.221.221,0,0,1,.242.111,8.423,8.423,0,0,1,1.033,4.565.225.225,0,0,1-.222.192" fill="#1a1a1a"/>
      <path id="Trazado_605456" data-name="Trazado 605456" d="M107.294,28.475c-.185-.047-.251-.173-.214-.292.015-.049,1.519-4.934.113-6.509a2.051,2.051,0,0,0-2.538-.8,9.2,9.2,0,0,1-1.326.224,5.388,5.388,0,0,1-3.059-1.02c-1.366-.769-2.78-1.564-4.586-.829a3.462,3.462,0,0,0-2.266,3.439,2.58,2.58,0,0,0,1.921,2.438.225.225,0,0,1-.111.436,3.018,3.018,0,0,1-2.259-2.844,3.909,3.909,0,0,1,2.545-3.887c2.008-.817,3.585.07,4.976.854a5.171,5.171,0,0,0,2.8.967,9.124,9.124,0,0,0,1.265-.217,2.467,2.467,0,0,1,2.973.939c1.574,1.764.045,6.732-.02,6.942a.227.227,0,0,1-.215.158" fill="#1a1a1a"/>
      <path id="Trazado_605457" data-name="Trazado 605457" d="M102.88,27.373a4.587,4.587,0,0,0-1.113-.617.225.225,0,0,1-.164-.274.231.231,0,0,1,.273-.162,2.961,2.961,0,0,1,1.16.667.224.224,0,0,1-.156.386" fill="#1a1a1a"/>
      <path id="Trazado_605458" data-name="Trazado 605458" d="M96.243,27.231c-.242-.139-.25-.281-.168-.374a2.167,2.167,0,0,1,1.134-.542.234.234,0,0,1,.256.189.226.226,0,0,1-.188.256,1.7,1.7,0,0,0-.866.4.226.226,0,0,1-.168.075" fill="#1a1a1a"/>
      <path id="Trazado_605459" data-name="Trazado 605459" d="M97.373,32.519c-.23-.268-.348-1.758.579-4.345a.229.229,0,0,1,.288-.136.226.226,0,0,1,.136.288,11.949,11.949,0,0,0-.783,3.659l.8-.264a.225.225,0,0,1,.141.428l-1.093.359a.209.209,0,0,1-.07.011" fill="#1a1a1a"/>
      <path id="Trazado_605460" data-name="Trazado 605460" d="M106.4,32.706a2.422,2.422,0,0,1-1.323-.39.225.225,0,0,1,.245-.377,1.986,1.986,0,1,0-.724-2.5.225.225,0,1,1-.408-.189,2.435,2.435,0,1,1,2.21,3.457" fill="#1a1a1a"/>
      <path id="Trazado_605461" data-name="Trazado 605461" d="M101.736,42.093c-3.295,0-3.37-2.518-3.37-2.543a.225.225,0,0,1,.221-.228.229.229,0,0,1,.228.221c0,.086.081,2.1,2.908,2.1,3.162,0,4.189-1.678,4.344-1.971V32.481a.225.225,0,0,1,.45,0v7.245c-.062.186-1.1,2.367-4.781,2.367" fill="#1a1a1a"/>
      <path id="Trazado_605462" data-name="Trazado 605462" d="M96.411,29.294a.256.256,0,0,1-.242-.268l.037-.718a.256.256,0,1,1,.511.026l-.037.719a.256.256,0,0,1-.269.241" fill="#1a1a1a"/>
      <path id="Trazado_605463" data-name="Trazado 605463" d="M100.706,29.472a.257.257,0,0,1-.242-.269l.037-.719a.256.256,0,0,1,.511.027l-.037.718a.259.259,0,0,1-.269.243" fill="#1a1a1a"/>
      <path id="Trazado_605464" data-name="Trazado 605464" d="M98.746,34.51c-.12-.034-1.505-.911-1.505-.911a.225.225,0,0,1,.241-.381l1.209.768,1.137-1.516a.225.225,0,1,1,.36.269l-1.262,1.682a.226.226,0,0,1-.18.089" fill="#1a1a1a"/>
      <path id="Trazado_605465" data-name="Trazado 605465" d="M88.017,46.773c-.195-.057-.254-.187-.211-.3C90,40.6,98.212,39.545,98.561,39.5a.225.225,0,0,1,.054.447c-.082.01-8.288,1.067-10.387,6.677a.225.225,0,0,1-.211.146" fill="#1a1a1a"/>
      <path id="Trazado_605466" data-name="Trazado 605466" d="M114.792,43.62c-3.366-3.024-8.475-3.664-8.526-3.67a.225.225,0,0,1,.053-.447c.215.027,5.307.665,8.626,3.727a.225.225,0,0,1,.012.318.222.222,0,0,1-.165.072" fill="#1a1a1a"/>
      <path id="Trazado_605467" data-name="Trazado 605467" d="M106.894,31.544c-.1-.024-1.869-.917-1.869-.917-.047-.369,1.72-1.938,1.72-1.938a.225.225,0,0,1,.3.337l-1.519,1.348,1.471.745a.224.224,0,0,1-.1.425" fill="#1a1a1a"/>
    </g>
  </g>
</svg>
