<svg xmlns="http://www.w3.org/2000/svg" xmlns:xlink="http://www.w3.org/1999/xlink" width="505" height="436" viewBox="0 0 505 436">
  <defs>
    <linearGradient id="linear-gradient" y1="0.264" x2="0.993" y2="0.264" gradientUnits="objectBoundingBox">
      <stop offset="0" stop-color="#e4fdfb"/>
      <stop offset="1" stop-color="#edf2fa"/>
    </linearGradient>
    <clipPath id="clip-path">
      <rect id="Rectángulo_345904" data-name="Rectángulo 345904" width="14.23" height="22.247" fill="#566377"/>
    </clipPath>
    <clipPath id="clip-path-8">
      <rect width="473.949" height="383.625" fill="none"/>
    </clipPath>
  </defs>
  <g id="Grupo_1015405" data-name="Grupo 1015405" transform="translate(6156 7544)">
    <rect id="Rectángulo_345909" data-name="Rectángulo 345909" width="505" height="436" transform="translate(-6156 -7544)" fill="url(#linear-gradient)"/>
    <g id="Grupo_1015395" data-name="Grupo 1015395" transform="translate(-5809 -7458.317)">
      <g id="Grupo_1015394" data-name="Grupo 1015394" transform="translate(-6.23)" clip-path="url(#clip-path)">
        <path id="Trazado_605510" data-name="Trazado 605510" d="M12.353,89.012l-1.931.705-.852-2.34c-.4-1.1-.8-2.206-1.207-3.306a.724.724,0,0,0-.2-.289c-1.112-.942-2.23-1.878-3.345-2.817a2.06,2.06,0,0,1-.749-2.06q.246-1.387.489-2.775a1.692,1.692,0,0,0,0-.183,6.339,6.339,0,0,0-.814.744c-.654.855-1.273,1.738-1.906,2.61-.047.065-.1.128-.167.219L0,78.3c.8-1.1,1.587-2.19,2.381-3.275a1.057,1.057,0,0,1,.244-.2c.988-.72,2.012-1.395,2.956-2.168a2.578,2.578,0,0,1,3.937,1.2c.029.076.06.151.082.228a4.441,4.441,0,0,0,3.3,3.049,10.8,10.8,0,0,0,1.328.233v2.029a7.29,7.29,0,0,1-5.576-2.625c-.068.367-.132.7-.192,1.039-.164.925-.321,1.851-.492,2.775a.407.407,0,0,0,.161.453c.6.489,1.2.994,1.787,1.5a.679.679,0,0,1,.194.266q1.1,3.009,2.192,6.022c.019.052.03.106.05.178" transform="translate(0 -67.47)" fill="#566377"/>
        <path id="Trazado_605511" data-name="Trazado 605511" d="M10.147,231.333l-1.6-1.347,1.162-1.39c.6-.72,1.209-1.439,1.809-2.162a1.039,1.039,0,0,0,.17-.315c.238-.678.469-1.358.715-2.076l.775.651c.317.265.63.535.952.793a.183.183,0,0,1,.062.263c-.235.5-.459,1-.689,1.5a.834.834,0,0,1-.116.183q-1.582,1.892-3.167,3.783a.948.948,0,0,0-.07.117" transform="translate(-7.99 -209.509)" fill="#566377"/>
        <path id="Trazado_605512" data-name="Trazado 605512" d="M101.9,4.145a2.073,2.073,0,1,1,2.069-2.07,2.075,2.075,0,0,1-2.069,2.07" transform="translate(-93.341 0.001)" fill="#566377"/>
      </g>
    </g>
    <g id="Grupo_1015400" data-name="Grupo 1015400" transform="translate(-5965.563 -7458.317)">
      <g id="Grupo_1015394-2" data-name="Grupo 1015394" clip-path="url(#clip-path)">
        <path id="Trazado_605510-2" data-name="Trazado 605510" d="M12.353,89.012l-1.931.705-.852-2.34c-.4-1.1-.8-2.206-1.207-3.306a.724.724,0,0,0-.2-.289c-1.112-.942-2.23-1.878-3.345-2.817a2.06,2.06,0,0,1-.749-2.06q.246-1.387.489-2.775a1.692,1.692,0,0,0,0-.183,6.339,6.339,0,0,0-.814.744c-.654.855-1.273,1.738-1.906,2.61-.047.065-.1.128-.167.219L0,78.3c.8-1.1,1.587-2.19,2.381-3.275a1.057,1.057,0,0,1,.244-.2c.988-.72,2.012-1.395,2.956-2.168a2.578,2.578,0,0,1,3.937,1.2c.029.076.06.151.082.228a4.441,4.441,0,0,0,3.3,3.049,10.8,10.8,0,0,0,1.328.233v2.029a7.29,7.29,0,0,1-5.576-2.625c-.068.367-.132.7-.192,1.039-.164.925-.321,1.851-.492,2.775a.407.407,0,0,0,.161.453c.6.489,1.2.994,1.787,1.5a.679.679,0,0,1,.194.266q1.1,3.009,2.192,6.022c.019.052.03.106.05.178" transform="translate(0 -67.47)" fill="#566377"/>
        <path id="Trazado_605511-2" data-name="Trazado 605511" d="M10.147,231.333l-1.6-1.347,1.162-1.39c.6-.72,1.209-1.439,1.809-2.162a1.039,1.039,0,0,0,.17-.315c.238-.678.469-1.358.715-2.076l.775.651c.317.265.63.535.952.793a.183.183,0,0,1,.062.263c-.235.5-.459,1-.689,1.5a.834.834,0,0,1-.116.183q-1.582,1.892-3.167,3.783a.948.948,0,0,0-.07.117" transform="translate(-7.99 -209.509)" fill="#566377"/>
        <path id="Trazado_605512-2" data-name="Trazado 605512" d="M101.9,4.145a2.073,2.073,0,1,1,2.069-2.07,2.075,2.075,0,0,1-2.069,2.07" transform="translate(-93.341 0.001)" fill="#566377"/>
      </g>
    </g>
    <g id="Grupo_1015401" data-name="Grupo 1015401" transform="translate(-6022.881 -7484.736)">
      <g id="Grupo_1015394-3" data-name="Grupo 1015394" clip-path="url(#clip-path)">
        <path id="Trazado_605510-3" data-name="Trazado 605510" d="M12.353,89.012l-1.931.705-.852-2.34c-.4-1.1-.8-2.206-1.207-3.306a.724.724,0,0,0-.2-.289c-1.112-.942-2.23-1.878-3.345-2.817a2.06,2.06,0,0,1-.749-2.06q.246-1.387.489-2.775a1.692,1.692,0,0,0,0-.183,6.339,6.339,0,0,0-.814.744c-.654.855-1.273,1.738-1.906,2.61-.047.065-.1.128-.167.219L0,78.3c.8-1.1,1.587-2.19,2.381-3.275a1.057,1.057,0,0,1,.244-.2c.988-.72,2.012-1.395,2.956-2.168a2.578,2.578,0,0,1,3.937,1.2c.029.076.06.151.082.228a4.441,4.441,0,0,0,3.3,3.049,10.8,10.8,0,0,0,1.328.233v2.029a7.29,7.29,0,0,1-5.576-2.625c-.068.367-.132.7-.192,1.039-.164.925-.321,1.851-.492,2.775a.407.407,0,0,0,.161.453c.6.489,1.2.994,1.787,1.5a.679.679,0,0,1,.194.266q1.1,3.009,2.192,6.022c.019.052.03.106.05.178" transform="translate(0 -67.47)" fill="#566377"/>
        <path id="Trazado_605511-3" data-name="Trazado 605511" d="M10.147,231.333l-1.6-1.347,1.162-1.39c.6-.72,1.209-1.439,1.809-2.162a1.039,1.039,0,0,0,.17-.315c.238-.678.469-1.358.715-2.076l.775.651c.317.265.63.535.952.793a.183.183,0,0,1,.062.263c-.235.5-.459,1-.689,1.5a.834.834,0,0,1-.116.183q-1.582,1.892-3.167,3.783a.948.948,0,0,0-.07.117" transform="translate(-7.99 -209.509)" fill="#566377"/>
        <path id="Trazado_605512-3" data-name="Trazado 605512" d="M101.9,4.145a2.073,2.073,0,1,1,2.069-2.07,2.075,2.075,0,0,1-2.069,2.07" transform="translate(-93.341 0.001)" fill="#566377"/>
      </g>
    </g>
    <g id="Grupo_1015396" data-name="Grupo 1015396" transform="translate(-5815.23 -7411.601)">
      <g id="Grupo_1015394-4" data-name="Grupo 1015394" clip-path="url(#clip-path)">
        <path id="Trazado_605510-4" data-name="Trazado 605510" d="M12.353,89.012l-1.931.705-.852-2.34c-.4-1.1-.8-2.206-1.207-3.306a.724.724,0,0,0-.2-.289c-1.112-.942-2.23-1.878-3.345-2.817a2.06,2.06,0,0,1-.749-2.06q.246-1.387.489-2.775a1.692,1.692,0,0,0,0-.183,6.339,6.339,0,0,0-.814.744c-.654.855-1.273,1.738-1.906,2.61-.047.065-.1.128-.167.219L0,78.3c.8-1.1,1.587-2.19,2.381-3.275a1.057,1.057,0,0,1,.244-.2c.988-.72,2.012-1.395,2.956-2.168a2.578,2.578,0,0,1,3.937,1.2c.029.076.06.151.082.228a4.441,4.441,0,0,0,3.3,3.049,10.8,10.8,0,0,0,1.328.233v2.029a7.29,7.29,0,0,1-5.576-2.625c-.068.367-.132.7-.192,1.039-.164.925-.321,1.851-.492,2.775a.407.407,0,0,0,.161.453c.6.489,1.2.994,1.787,1.5a.679.679,0,0,1,.194.266q1.1,3.009,2.192,6.022c.019.052.03.106.05.178" transform="translate(0 -67.47)" fill="#566377"/>
        <path id="Trazado_605511-4" data-name="Trazado 605511" d="M10.147,231.333l-1.6-1.347,1.162-1.39c.6-.72,1.209-1.439,1.809-2.162a1.039,1.039,0,0,0,.17-.315c.238-.678.469-1.358.715-2.076l.775.651c.317.265.63.535.952.793a.183.183,0,0,1,.062.263c-.235.5-.459,1-.689,1.5a.834.834,0,0,1-.116.183q-1.582,1.892-3.167,3.783a.948.948,0,0,0-.07.117" transform="translate(-7.99 -209.509)" fill="#566377"/>
        <path id="Trazado_605512-4" data-name="Trazado 605512" d="M101.9,4.145a2.073,2.073,0,1,1,2.069-2.07,2.075,2.075,0,0,1-2.069,2.07" transform="translate(-93.341 0.001)" fill="#566377"/>
      </g>
    </g>
    <g id="Grupo_1015397" data-name="Grupo 1015397" transform="translate(-5911.829 -7365.341)">
      <g id="Grupo_1015394-5" data-name="Grupo 1015394" clip-path="url(#clip-path)">
        <path id="Trazado_605510-5" data-name="Trazado 605510" d="M12.353,89.012l-1.931.705-.852-2.34c-.4-1.1-.8-2.206-1.207-3.306a.724.724,0,0,0-.2-.289c-1.112-.942-2.23-1.878-3.345-2.817a2.06,2.06,0,0,1-.749-2.06q.246-1.387.489-2.775a1.692,1.692,0,0,0,0-.183,6.339,6.339,0,0,0-.814.744c-.654.855-1.273,1.738-1.906,2.61-.047.065-.1.128-.167.219L0,78.3c.8-1.1,1.587-2.19,2.381-3.275a1.057,1.057,0,0,1,.244-.2c.988-.72,2.012-1.395,2.956-2.168a2.578,2.578,0,0,1,3.937,1.2c.029.076.06.151.082.228a4.441,4.441,0,0,0,3.3,3.049,10.8,10.8,0,0,0,1.328.233v2.029a7.29,7.29,0,0,1-5.576-2.625c-.068.367-.132.7-.192,1.039-.164.925-.321,1.851-.492,2.775a.407.407,0,0,0,.161.453c.6.489,1.2.994,1.787,1.5a.679.679,0,0,1,.194.266q1.1,3.009,2.192,6.022c.019.052.03.106.05.178" transform="translate(0 -67.47)" fill="#566377"/>
        <path id="Trazado_605511-5" data-name="Trazado 605511" d="M10.147,231.333l-1.6-1.347,1.162-1.39c.6-.72,1.209-1.439,1.809-2.162a1.039,1.039,0,0,0,.17-.315c.238-.678.469-1.358.715-2.076l.775.651c.317.265.63.535.952.793a.183.183,0,0,1,.062.263c-.235.5-.459,1-.689,1.5a.834.834,0,0,1-.116.183q-1.582,1.892-3.167,3.783a.948.948,0,0,0-.07.117" transform="translate(-7.99 -209.509)" fill="#566377"/>
        <path id="Trazado_605512-5" data-name="Trazado 605512" d="M101.9,4.145a2.073,2.073,0,1,1,2.069-2.07,2.075,2.075,0,0,1-2.069,2.07" transform="translate(-93.341 0.001)" fill="#566377"/>
      </g>
    </g>
    <g id="Grupo_1015398" data-name="Grupo 1015398" transform="translate(-6058.115 -7358.325)">
      <g id="Grupo_1015394-6" data-name="Grupo 1015394" clip-path="url(#clip-path)">
        <path id="Trazado_605510-6" data-name="Trazado 605510" d="M12.353,89.012l-1.931.705-.852-2.34c-.4-1.1-.8-2.206-1.207-3.306a.724.724,0,0,0-.2-.289c-1.112-.942-2.23-1.878-3.345-2.817a2.06,2.06,0,0,1-.749-2.06q.246-1.387.489-2.775a1.692,1.692,0,0,0,0-.183,6.339,6.339,0,0,0-.814.744c-.654.855-1.273,1.738-1.906,2.61-.047.065-.1.128-.167.219L0,78.3c.8-1.1,1.587-2.19,2.381-3.275a1.057,1.057,0,0,1,.244-.2c.988-.72,2.012-1.395,2.956-2.168a2.578,2.578,0,0,1,3.937,1.2c.029.076.06.151.082.228a4.441,4.441,0,0,0,3.3,3.049,10.8,10.8,0,0,0,1.328.233v2.029a7.29,7.29,0,0,1-5.576-2.625c-.068.367-.132.7-.192,1.039-.164.925-.321,1.851-.492,2.775a.407.407,0,0,0,.161.453c.6.489,1.2.994,1.787,1.5a.679.679,0,0,1,.194.266q1.1,3.009,2.192,6.022c.019.052.03.106.05.178" transform="translate(0 -67.47)" fill="#566377"/>
        <path id="Trazado_605511-6" data-name="Trazado 605511" d="M10.147,231.333l-1.6-1.347,1.162-1.39c.6-.72,1.209-1.439,1.809-2.162a1.039,1.039,0,0,0,.17-.315c.238-.678.469-1.358.715-2.076l.775.651c.317.265.63.535.952.793a.183.183,0,0,1,.062.263c-.235.5-.459,1-.689,1.5a.834.834,0,0,1-.116.183q-1.582,1.892-3.167,3.783a.948.948,0,0,0-.07.117" transform="translate(-7.99 -209.509)" fill="#566377"/>
        <path id="Trazado_605512-6" data-name="Trazado 605512" d="M101.9,4.145a2.073,2.073,0,1,1,2.069-2.07,2.075,2.075,0,0,1-2.069,2.07" transform="translate(-93.341 0.001)" fill="#566377"/>
      </g>
    </g>
    <g id="Grupo_1015399" data-name="Grupo 1015399" transform="translate(-6057.23 -7426.242)">
      <g id="Grupo_1015394-7" data-name="Grupo 1015394" clip-path="url(#clip-path)">
        <path id="Trazado_605510-7" data-name="Trazado 605510" d="M12.353,89.012l-1.931.705-.852-2.34c-.4-1.1-.8-2.206-1.207-3.306a.724.724,0,0,0-.2-.289c-1.112-.942-2.23-1.878-3.345-2.817a2.06,2.06,0,0,1-.749-2.06q.246-1.387.489-2.775a1.692,1.692,0,0,0,0-.183,6.339,6.339,0,0,0-.814.744c-.654.855-1.273,1.738-1.906,2.61-.047.065-.1.128-.167.219L0,78.3c.8-1.1,1.587-2.19,2.381-3.275a1.057,1.057,0,0,1,.244-.2c.988-.72,2.012-1.395,2.956-2.168a2.578,2.578,0,0,1,3.937,1.2c.029.076.06.151.082.228a4.441,4.441,0,0,0,3.3,3.049,10.8,10.8,0,0,0,1.328.233v2.029a7.29,7.29,0,0,1-5.576-2.625c-.068.367-.132.7-.192,1.039-.164.925-.321,1.851-.492,2.775a.407.407,0,0,0,.161.453c.6.489,1.2.994,1.787,1.5a.679.679,0,0,1,.194.266q1.1,3.009,2.192,6.022c.019.052.03.106.05.178" transform="translate(0 -67.47)" fill="#566377"/>
        <path id="Trazado_605511-7" data-name="Trazado 605511" d="M10.147,231.333l-1.6-1.347,1.162-1.39c.6-.72,1.209-1.439,1.809-2.162a1.039,1.039,0,0,0,.17-.315c.238-.678.469-1.358.715-2.076l.775.651c.317.265.63.535.952.793a.183.183,0,0,1,.062.263c-.235.5-.459,1-.689,1.5a.834.834,0,0,1-.116.183q-1.582,1.892-3.167,3.783a.948.948,0,0,0-.07.117" transform="translate(-7.99 -209.509)" fill="#566377"/>
        <path id="Trazado_605512-7" data-name="Trazado 605512" d="M101.9,4.145a2.073,2.073,0,1,1,2.069-2.07,2.075,2.075,0,0,1-2.069,2.07" transform="translate(-93.341 0.001)" fill="#566377"/>
      </g>
    </g>
    <path id="Trazado_605513" data-name="Trazado 605513" d="M-7522-7670v173.006h415.128" transform="translate(1446.235 176.235)" fill="none" stroke="#566377" stroke-width="2"/>
    <path id="Trazado_605514" data-name="Trazado 605514" d="M-7527-7400.464h419.094" transform="translate(1448.945 30.149)" fill="none" stroke="#566377" stroke-width="2"/>
    <path id="Trazado_605515" data-name="Trazado 605515" d="M-7527-7400.464h419.094" transform="translate(1448.945 -31.667)" fill="none" stroke="#566377" stroke-width="2"/>
    <g id="Rectángulo_345908" data-name="Rectángulo 345908" transform="translate(-6080 -7326)" fill="#fff" stroke="#566377" stroke-width="1">
      <rect width="9" height="9" stroke="none"/>
      <rect x="0.5" y="0.5" width="8" height="8" fill="none"/>
    </g>
    <g id="Rectángulo_345939" data-name="Rectángulo 345939" transform="translate(-6080 -7375)" fill="#fff" stroke="#566377" stroke-width="1">
      <rect width="9" height="9" stroke="none"/>
      <rect x="0.5" y="0.5" width="8" height="8" fill="none"/>
    </g>
    <g id="Rectángulo_345940" data-name="Rectángulo 345940" transform="translate(-6080 -7437)" fill="#fff" stroke="#566377" stroke-width="1">
      <rect width="9" height="9" stroke="none"/>
      <rect x="0.5" y="0.5" width="8" height="8" fill="none"/>
    </g>
    <g id="Rectángulo_345941" data-name="Rectángulo 345941" transform="translate(-6080 -7498)" fill="#fff" stroke="#566377" stroke-width="1">
      <rect width="9" height="9" stroke="none"/>
      <rect x="0.5" y="0.5" width="8" height="8" fill="none"/>
    </g>
    <circle id="Elipse_5690" data-name="Elipse 5690" cx="4.5" cy="4.5" r="4.5" transform="translate(-6073 -7472)" fill="#33ece0"/>
    <ellipse id="Elipse_5691" data-name="Elipse 5691" cx="4" cy="4.5" rx="4" ry="4.5" transform="translate(-6055 -7472)" fill="#33ece0"/>
    <ellipse id="Elipse_5692" data-name="Elipse 5692" cx="4" cy="4.5" rx="4" ry="4.5" transform="translate(-6038 -7472)" fill="#33ece0"/>
    <ellipse id="Elipse_5693" data-name="Elipse 5693" cx="4" cy="4.5" rx="4" ry="4.5" transform="translate(-6030 -7458)" fill="#33ece0"/>
    <circle id="Elipse_5694" data-name="Elipse 5694" cx="4" cy="4" r="4" transform="translate(-6022 -7440)" fill="#33ece0"/>
    <ellipse id="Elipse_5695" data-name="Elipse 5695" cx="4.5" cy="4" rx="4.5" ry="4" transform="translate(-6013 -7424)" fill="#33ece0"/>
    <ellipse id="Elipse_5696" data-name="Elipse 5696" cx="3.5" cy="4" rx="3.5" ry="4" transform="translate(-6004 -7408)" fill="#33ece0"/>
    <ellipse id="Elipse_5697" data-name="Elipse 5697" cx="3.5" cy="4" rx="3.5" ry="4" transform="translate(-5995 -7393)" fill="#33ece0"/>
    <ellipse id="Elipse_5698" data-name="Elipse 5698" cx="4.5" cy="4" rx="4.5" ry="4" transform="translate(-5989 -7375)" fill="#33ece0"/>
    <circle id="Elipse_5699" data-name="Elipse 5699" cx="4" cy="4" r="4" transform="translate(-5980 -7358)" fill="#33ece0"/>
    <circle id="Elipse_5700" data-name="Elipse 5700" cx="4" cy="4" r="4" transform="translate(-5970 -7343)" fill="#33ece0"/>
    <circle id="Elipse_5701" data-name="Elipse 5701" cx="4" cy="4" r="4" transform="translate(-5962 -7358)" fill="#33ece0"/>
    <ellipse id="Elipse_5702" data-name="Elipse 5702" cx="4.5" cy="3.5" rx="4.5" ry="3.5" transform="translate(-5954 -7372)" fill="#33ece0"/>
    <ellipse id="Elipse_5703" data-name="Elipse 5703" cx="4.5" cy="4" rx="4.5" ry="4" transform="translate(-5943 -7387)" fill="#33ece0"/>
    <ellipse id="Elipse_5704" data-name="Elipse 5704" cx="4.5" cy="4" rx="4.5" ry="4" transform="translate(-5934 -7400)" fill="#33ece0"/>
    <ellipse id="Elipse_5705" data-name="Elipse 5705" cx="4" cy="3.5" rx="4" ry="3.5" transform="translate(-5925 -7414)" fill="#33ece0"/>
    <ellipse id="Elipse_5706" data-name="Elipse 5706" cx="4.5" cy="3.5" rx="4.5" ry="3.5" transform="translate(-5916 -7427)" fill="#33ece0"/>
    <circle id="Elipse_5707" data-name="Elipse 5707" cx="4" cy="4" r="4" transform="translate(-5907 -7442)" fill="#33ece0"/>
    <ellipse id="Elipse_5708" data-name="Elipse 5708" cx="3.5" cy="4" rx="3.5" ry="4" transform="translate(-5897 -7456)" fill="#33ece0"/>
    <circle id="Elipse_5710" data-name="Elipse 5710" cx="4" cy="4" r="4" transform="translate(-5881 -7453)" fill="#33ece0"/>
    <ellipse id="Elipse_5711" data-name="Elipse 5711" cx="4.5" cy="4" rx="4.5" ry="4" transform="translate(-5871 -7437)" fill="#33ece0"/>
    <ellipse id="Elipse_5712" data-name="Elipse 5712" cx="4.5" cy="4" rx="4.5" ry="4" transform="translate(-5860 -7422)" fill="#33ece0"/>
    <circle id="Elipse_5713" data-name="Elipse 5713" cx="4" cy="4" r="4" transform="translate(-5849 -7407)" fill="#33ece0"/>
    <ellipse id="Elipse_5714" data-name="Elipse 5714" cx="3.5" cy="4.5" rx="3.5" ry="4.5" transform="translate(-5837 -7392)" fill="#33ece0"/>
    <ellipse id="Elipse_5715" data-name="Elipse 5715" cx="4" cy="4.5" rx="4" ry="4.5" transform="translate(-5828 -7377)" fill="#33ece0"/>
    <circle id="Elipse_5716" data-name="Elipse 5716" cx="4.5" cy="4.5" r="4.5" transform="translate(-5818 -7363)" fill="#33ece0"/>
    <circle id="Elipse_5717" data-name="Elipse 5717" cx="4" cy="4" r="4" transform="translate(-5809 -7347)" fill="#33ece0"/>
    <ellipse id="Elipse_5718" data-name="Elipse 5718" cx="3.5" cy="4.5" rx="3.5" ry="4.5" transform="translate(-5793 -7360)" fill="#33ece0"/>
    <ellipse id="Elipse_5719" data-name="Elipse 5719" cx="4" cy="3.5" rx="4" ry="3.5" transform="translate(-5777 -7372)" fill="#33ece0"/>
    <ellipse id="Elipse_5720" data-name="Elipse 5720" cx="4.5" cy="4" rx="4.5" ry="4" transform="translate(-5761 -7383)" fill="#33ece0"/>
    <circle id="Elipse_5721" data-name="Elipse 5721" cx="4.5" cy="4.5" r="4.5" transform="translate(-5745 -7397)" fill="#33ece0"/>
    <circle id="Elipse_5722" data-name="Elipse 5722" cx="3.5" cy="3.5" r="3.5" transform="translate(-5729 -7408)" fill="#33ece0"/>
    <circle id="Elipse_5723" data-name="Elipse 5723" cx="4" cy="4" r="4" transform="translate(-5714 -7420)" fill="#33ece0"/>
    <ellipse id="Elipse_5724" data-name="Elipse 5724" cx="3.5" cy="4.5" rx="3.5" ry="4.5" transform="translate(-5697 -7434)" fill="#33ece0"/>
    <ellipse id="Elipse_5725" data-name="Elipse 5725" cx="3.5" cy="4.5" rx="3.5" ry="4.5" transform="translate(-5681 -7445)" fill="#33ece0"/>
    <ellipse id="Elipse_5709" data-name="Elipse 5709" cx="4" cy="3.5" rx="4" ry="3.5" transform="translate(-5892 -7467)" fill="#33ece0"/>
    <rect id="Rectángulo_345912" data-name="Rectángulo 345912" width="130" height="50" transform="translate(-6148 -7306)" fill="#e3ecf7"/>
    <circle id="Elipse_5726" data-name="Elipse 5726" cx="6" cy="6" r="6" transform="translate(-5945 -7455)" fill="#7992cc"/>
    <circle id="Elipse_5728" data-name="Elipse 5728" cx="6" cy="6" r="6" transform="translate(-5890 -7353)" fill="#ccc079"/>
    <circle id="Elipse_5731" data-name="Elipse 5731" cx="6" cy="6" r="6" transform="translate(-6037.679 -7353)" fill="#ccc079"/>
    <circle id="Elipse_5732" data-name="Elipse 5732" cx="6" cy="6" r="6" transform="translate(-6037.977 -7397)" fill="#7992cc"/>
    <circle id="Elipse_5729" data-name="Elipse 5729" cx="6" cy="6" r="6" transform="translate(-5778 -7453.186)" fill="#ccc079"/>
    <circle id="Elipse_5730" data-name="Elipse 5730" cx="6" cy="6" r="6" transform="translate(-5778 -7410.5)" fill="#7992cc"/>
    <circle id="Elipse_5727" data-name="Elipse 5727" cx="6" cy="6" r="6" transform="translate(-5984 -7478)" fill="#ccc079"/>
    <rect id="Rectángulo_345910" data-name="Rectángulo 345910" width="110" height="43" transform="translate(-5994 -7176)" fill="#e3ecf7"/>
    <rect id="Rectángulo_345916" data-name="Rectángulo 345916" width="125" height="36" transform="translate(-5925 -7306)" fill="#fffbe5"/>
    <rect id="Rectángulo_345918" data-name="Rectángulo 345918" width="107" height="43" transform="translate(-5768 -7176)" fill="#e3ecf7"/>
    <rect id="Rectángulo_345915" data-name="Rectángulo 345915" width="110" height="48" transform="translate(-6055 -7236)" fill="#fffbe5"/>
    <rect id="Rectángulo_345917" data-name="Rectángulo 345917" width="110" height="48" transform="translate(-5866 -7236)" fill="#fff"/>
    <path id="Trazado_605516" data-name="Trazado 605516" d="M-5095-7360v272.5" transform="translate(-844 -89)" fill="none" stroke="#7992cc" stroke-width="2" stroke-dasharray="5"/>
    <path id="Trazado_605518" data-name="Trazado 605518" d="M-5095-7360v50.186" transform="translate(-789 9)" fill="none" stroke="#ccc079" stroke-width="2" stroke-dasharray="5"/>
    <path id="Trazado_605521" data-name="Trazado 605521" d="M-5095-7360h31.8v98.936h-101.732v85.084" transform="translate(-930.679 13)" fill="none" stroke="#ccc079" stroke-width="2" stroke-dasharray="5"/>
    <path id="Trazado_605522" data-name="Trazado 605522" d="M-5062.978-7360H-5095v84.462" transform="translate(-969 -31)" fill="none" stroke="#7992cc" stroke-width="2" stroke-dasharray="5"/>
    <path id="Trazado_605519" data-name="Trazado 605519" d="M-5095-7148.815V-7360h17.628" transform="translate(-694.5 -87.186)" fill="none" stroke="#ccc079" stroke-width="2" stroke-dasharray="5"/>
    <path id="Trazado_605520" data-name="Trazado 605520" d="M-5095-7131.5V-7360h-60.535" transform="translate(-611 -44.499)" fill="none" stroke="#7992cc" stroke-width="2" stroke-dasharray="5"/>
    <path id="Trazado_605517" data-name="Trazado 605517" d="M-5095-7360v236" transform="translate(-883 -112)" fill="none" stroke="#ccc079" stroke-width="2" stroke-dasharray="5"/>
    <rect id="Rectángulo_345913" data-name="Rectángulo 345913" width="101" height="43" transform="translate(-6144 -7176)" fill="#fff"/>
    <g id="Cuadrícula_de_repetición_1" data-name="Cuadrícula de repetición 1" transform="translate(-6147.141 -7520.375)" clip-path="url(#clip-path-8)">
      <g transform="translate(6147.141 7520.375)">
        <path id="Trazado_606177" data-name="Trazado 606177" d="M-37.473-3.859V0h-2.742V-11.375h4.539a5.287,5.287,0,0,1,2.309.48,3.621,3.621,0,0,1,1.555,1.367,3.734,3.734,0,0,1,.551,2.012,3.291,3.291,0,0,1-1.191,2.66,4.943,4.943,0,0,1-3.27,1Zm0-2.117h1.8a1.7,1.7,0,0,0,1.215-.4A1.48,1.48,0,0,0-34.043-7.5a1.83,1.83,0,0,0-.43-1.273,1.522,1.522,0,0,0-1.172-.484h-1.828Zm12.664-.094-.867-.062a1.558,1.558,0,0,0-1.594.781V0H-29.9V-8.453h2.469l.086,1.086A2.039,2.039,0,0,1-25.5-8.609a2.567,2.567,0,0,1,.734.094ZM-19.918.156A4.345,4.345,0,0,1-23.066-1a4.006,4.006,0,0,1-1.2-3.02v-.219a5.191,5.191,0,0,1,.48-2.289,3.516,3.516,0,0,1,1.4-1.535A4.233,4.233,0,0,1-20.2-8.609,3.659,3.659,0,0,1-17.387-7.5a4.344,4.344,0,0,1,1.031,3.082V-3.4H-21.59a1.9,1.9,0,0,0,.617,1.117,1.836,1.836,0,0,0,1.234.406,2.366,2.366,0,0,0,1.953-.875l1.2,1.422A3.363,3.363,0,0,1-17.977-.246,4.713,4.713,0,0,1-19.918.156Zm-.3-6.734q-1.156,0-1.375,1.531h2.656v-.2a1.3,1.3,0,0,0-.32-.98A1.275,1.275,0,0,0-20.215-6.578ZM-6.168-3.891h-4.7V-5.922h4.7Zm10.57.8,2.266-8.281H9.73L5.9,0h-3l-3.8-11.375H2.145ZM14.184.156A4.345,4.345,0,0,1,11.035-1a4.006,4.006,0,0,1-1.2-3.02v-.219a5.191,5.191,0,0,1,.48-2.289,3.516,3.516,0,0,1,1.4-1.535A4.233,4.233,0,0,1,13.9-8.609,3.659,3.659,0,0,1,16.715-7.5a4.344,4.344,0,0,1,1.031,3.082V-3.4H12.512a1.9,1.9,0,0,0,.617,1.117,1.836,1.836,0,0,0,1.234.406,2.366,2.366,0,0,0,1.953-.875l1.2,1.422A3.363,3.363,0,0,1,16.125-.246,4.713,4.713,0,0,1,14.184.156Zm-.3-6.734q-1.156,0-1.375,1.531h2.656v-.2a1.3,1.3,0,0,0-.32-.98A1.275,1.275,0,0,0,13.887-6.578Zm7.336-1.875.086.992a2.867,2.867,0,0,1,2.414-1.148A2.412,2.412,0,0,1,25.7-7.82a3.757,3.757,0,0,1,.676,2.375V0H23.73V-5.336a1.426,1.426,0,0,0-.258-.941,1.193,1.193,0,0,0-.937-.3,1.256,1.256,0,0,0-1.148.609V0H18.754V-8.453Zm9.672-2.1v2.1h1.391v1.828H30.895v3.867a.987.987,0,0,0,.172.664.922.922,0,0,0,.68.188,3.862,3.862,0,0,0,.656-.047V-.07a4.859,4.859,0,0,1-1.484.227A2.758,2.758,0,0,1,28.91-.484a2.626,2.626,0,0,1-.648-1.945v-4.2H27.184V-8.453h1.078v-2.1ZM38.082,0a2.973,2.973,0,0,1-.25-.758A2.448,2.448,0,0,1,35.8.156,3,3,0,0,1,33.77-.566a2.3,2.3,0,0,1-.836-1.816,2.364,2.364,0,0,1,1.016-2.078,5.174,5.174,0,0,1,2.953-.7h.813v-.448q0-1.17-1.008-1.17a.824.824,0,0,0-.937.926H33.137a2.36,2.36,0,0,1,1.043-1.99,4.383,4.383,0,0,1,2.66-.765,3.843,3.843,0,0,1,2.555.789,2.743,2.743,0,0,1,.961,2.164v3.742a3.832,3.832,0,0,0,.359,1.781V0ZM36.434-1.719a1.469,1.469,0,0,0,.816-.211,1.322,1.322,0,0,0,.465-.477V-3.758h-.766q-1.375,0-1.375,1.234a.754.754,0,0,0,.242.582A.876.876,0,0,0,36.434-1.719Z" transform="translate(-6018 -7509)" fill="#12263f"/>
        <path id="Trazado_606179" data-name="Trazado 606179" d="M-41.445-3.859V0h-2.742V-11.375h4.539a5.287,5.287,0,0,1,2.309.48,3.621,3.621,0,0,1,1.555,1.367,3.734,3.734,0,0,1,.551,2.012,3.291,3.291,0,0,1-1.191,2.66,4.943,4.943,0,0,1-3.27,1Zm0-2.117h1.8a1.7,1.7,0,0,0,1.215-.4A1.48,1.48,0,0,0-38.016-7.5a1.83,1.83,0,0,0-.43-1.273,1.522,1.522,0,0,0-1.172-.484h-1.828ZM-34.328-4.3a4.989,4.989,0,0,1,.492-2.254,3.52,3.52,0,0,1,1.414-1.52,4.259,4.259,0,0,1,2.164-.531,3.887,3.887,0,0,1,2.992,1.176,4.512,4.512,0,0,1,1.094,3.2v.094A4.378,4.378,0,0,1-27.27-1,3.9,3.9,0,0,1-30.242.156a3.942,3.942,0,0,1-2.9-1.082,4.232,4.232,0,0,1-1.18-2.934Zm2.633.164a3.145,3.145,0,0,0,.367,1.719,1.223,1.223,0,0,0,1.086.547q1.406,0,1.438-2.164V-4.3q0-2.273-1.453-2.273-1.32,0-1.43,1.961Zm11.109,1.766a.608.608,0,0,0-.352-.539,5.348,5.348,0,0,0-1.336-.422A6.092,6.092,0,0,1-23.9-3.91a2.722,2.722,0,0,1-.977-.863,2.061,2.061,0,0,1-.336-1.164,2.336,2.336,0,0,1,.961-1.918,3.958,3.958,0,0,1,2.516-.754,4.386,4.386,0,0,1,2.688.758,2.37,2.37,0,0,1,1.016,1.992h-2.641q0-1.016-1.07-1.016a1.061,1.061,0,0,0-.7.23.714.714,0,0,0-.281.574.655.655,0,0,0,.344.57,3.248,3.248,0,0,0,1.1.359,9.486,9.486,0,0,1,1.324.336,2.406,2.406,0,0,1,1.906,2.352A2.214,2.214,0,0,1-19.074-.57a4.505,4.505,0,0,1-2.66.727,4.6,4.6,0,0,1-1.937-.391A3.24,3.24,0,0,1-25-1.3a2.406,2.406,0,0,1-.477-1.414h2.461a1.017,1.017,0,0,0,.391.855,1.607,1.607,0,0,0,.961.27,1.264,1.264,0,0,0,.809-.219A.7.7,0,0,0-20.586-2.375Zm6.836-8.18v2.1h1.391v1.828H-13.75v3.867a.987.987,0,0,0,.172.664.922.922,0,0,0,.68.188,3.862,3.862,0,0,0,.656-.047V-.07a4.859,4.859,0,0,1-1.484.227,2.758,2.758,0,0,1-2.008-.641,2.626,2.626,0,0,1-.648-1.945v-4.2h-1.078V-8.453h1.078v-2.1ZM-2.2-3.891h-4.7V-5.922h4.7Zm10.57.8,2.266-8.281H13.7L9.875,0h-3l-3.8-11.375H6.117ZM18.156.156A4.345,4.345,0,0,1,15.008-1a4.006,4.006,0,0,1-1.2-3.02v-.219a5.191,5.191,0,0,1,.48-2.289,3.516,3.516,0,0,1,1.4-1.535,4.233,4.233,0,0,1,2.188-.543A3.659,3.659,0,0,1,20.688-7.5a4.344,4.344,0,0,1,1.031,3.082V-3.4H16.484A1.9,1.9,0,0,0,17.1-2.281a1.836,1.836,0,0,0,1.234.406,2.366,2.366,0,0,0,1.953-.875l1.2,1.422A3.363,3.363,0,0,1,20.1-.246,4.713,4.713,0,0,1,18.156.156Zm-.3-6.734q-1.156,0-1.375,1.531h2.656v-.2a1.3,1.3,0,0,0-.32-.98A1.275,1.275,0,0,0,17.859-6.578ZM25.2-8.453l.086.992A2.867,2.867,0,0,1,27.7-8.609a2.412,2.412,0,0,1,1.973.789,3.757,3.757,0,0,1,.676,2.375V0H27.7V-5.336a1.426,1.426,0,0,0-.258-.941,1.193,1.193,0,0,0-.937-.3,1.256,1.256,0,0,0-1.148.609V0H22.727V-8.453Zm9.672-2.1v2.1h1.391v1.828H34.867v3.867a.987.987,0,0,0,.172.664.922.922,0,0,0,.68.188,3.862,3.862,0,0,0,.656-.047V-.07a4.859,4.859,0,0,1-1.484.227,2.758,2.758,0,0,1-2.008-.641,2.626,2.626,0,0,1-.648-1.945v-4.2H31.156V-8.453h1.078v-2.1ZM42.055,0a2.973,2.973,0,0,1-.25-.758,2.448,2.448,0,0,1-2.031.914,3,3,0,0,1-2.031-.723,2.3,2.3,0,0,1-.836-1.816,2.364,2.364,0,0,1,1.016-2.078,5.174,5.174,0,0,1,2.953-.7h.813v-.448q0-1.17-1.008-1.17a.824.824,0,0,0-.937.926H37.109a2.36,2.36,0,0,1,1.043-1.99,4.383,4.383,0,0,1,2.66-.765,3.843,3.843,0,0,1,2.555.789,2.743,2.743,0,0,1,.961,2.164v3.742a3.832,3.832,0,0,0,.359,1.781V0ZM40.406-1.719a1.469,1.469,0,0,0,.816-.211,1.322,1.322,0,0,0,.465-.477V-3.758h-.766q-1.375,0-1.375,1.234a.754.754,0,0,0,.242.582A.876.876,0,0,0,40.406-1.719Z" transform="translate(-5748 -7509)" fill="#12263f"/>
        <path id="Trazado_606178" data-name="Trazado 606178" d="M-15.7-3.094l2.266-8.281h3.063L-14.2,0h-3L-21-11.375h3.039ZM-5.918.156A4.345,4.345,0,0,1-9.066-1a4.006,4.006,0,0,1-1.2-3.02v-.219a5.191,5.191,0,0,1,.48-2.289,3.516,3.516,0,0,1,1.4-1.535A4.233,4.233,0,0,1-6.2-8.609,3.659,3.659,0,0,1-3.387-7.5,4.344,4.344,0,0,1-2.355-4.422V-3.4H-7.59a1.9,1.9,0,0,0,.617,1.117,1.836,1.836,0,0,0,1.234.406A2.366,2.366,0,0,0-3.785-2.75l1.2,1.422A3.363,3.363,0,0,1-3.977-.246,4.713,4.713,0,0,1-5.918.156Zm-.3-6.734q-1.156,0-1.375,1.531h2.656v-.2a1.3,1.3,0,0,0-.32-.98A1.275,1.275,0,0,0-6.215-6.578ZM1.121-8.453l.086.992A2.867,2.867,0,0,1,3.621-8.609a2.412,2.412,0,0,1,1.973.789A3.757,3.757,0,0,1,6.27-5.445V0H3.629V-5.336a1.426,1.426,0,0,0-.258-.941,1.193,1.193,0,0,0-.937-.3,1.256,1.256,0,0,0-1.148.609V0H-1.348V-8.453Zm9.672-2.1v2.1h1.391v1.828H10.793v3.867a.987.987,0,0,0,.172.664.922.922,0,0,0,.68.188,3.862,3.862,0,0,0,.656-.047V-.07a4.859,4.859,0,0,1-1.484.227A2.758,2.758,0,0,1,8.809-.484,2.626,2.626,0,0,1,8.16-2.43v-4.2H7.082V-8.453H8.16v-2.1ZM17.98,0a2.973,2.973,0,0,1-.25-.758A2.448,2.448,0,0,1,15.7.156a3,3,0,0,1-2.031-.723,2.3,2.3,0,0,1-.836-1.816,2.364,2.364,0,0,1,1.016-2.078,5.174,5.174,0,0,1,2.953-.7h.813v-.448q0-1.17-1.008-1.17a.824.824,0,0,0-.937.926H13.035a2.36,2.36,0,0,1,1.043-1.99,4.383,4.383,0,0,1,2.66-.765,3.843,3.843,0,0,1,2.555.789,2.743,2.743,0,0,1,.961,2.164v3.742a3.832,3.832,0,0,0,.359,1.781V0ZM16.332-1.719a1.469,1.469,0,0,0,.816-.211,1.322,1.322,0,0,0,.465-.477V-3.758h-.766q-1.375,0-1.375,1.234a.754.754,0,0,0,.242.582A.876.876,0,0,0,16.332-1.719Z" transform="translate(-5889 -7509)" fill="#12263f"/>
        <path id="Trazado_606180" data-name="Trazado 606180" d="M3.6-3.859V0H.859V-11.375H5.4a5.287,5.287,0,0,1,2.309.48A3.621,3.621,0,0,1,9.262-9.527a3.734,3.734,0,0,1,.551,2.012,3.291,3.291,0,0,1-1.191,2.66,4.943,4.943,0,0,1-3.27,1Zm0-2.117H5.4a1.7,1.7,0,0,0,1.215-.4A1.48,1.48,0,0,0,7.031-7.5,1.83,1.83,0,0,0,6.6-8.773,1.522,1.522,0,0,0,5.43-9.258H3.6ZM10.719-4.3a4.989,4.989,0,0,1,.492-2.254,3.52,3.52,0,0,1,1.414-1.52,4.259,4.259,0,0,1,2.164-.531,3.887,3.887,0,0,1,2.992,1.176,4.512,4.512,0,0,1,1.094,3.2v.094A4.378,4.378,0,0,1,17.777-1,3.9,3.9,0,0,1,14.8.156a3.942,3.942,0,0,1-2.9-1.082,4.232,4.232,0,0,1-1.18-2.934Zm2.633.164a3.145,3.145,0,0,0,.367,1.719,1.223,1.223,0,0,0,1.086.547q1.406,0,1.438-2.164V-4.3q0-2.273-1.453-2.273-1.32,0-1.43,1.961ZM24.461-2.375a.608.608,0,0,0-.352-.539,5.348,5.348,0,0,0-1.336-.422,6.092,6.092,0,0,1-1.625-.574,2.722,2.722,0,0,1-.977-.863,2.061,2.061,0,0,1-.336-1.164A2.336,2.336,0,0,1,20.8-7.855a3.958,3.958,0,0,1,2.516-.754A4.386,4.386,0,0,1,26-7.852a2.37,2.37,0,0,1,1.016,1.992H24.375q0-1.016-1.07-1.016a1.061,1.061,0,0,0-.7.23.714.714,0,0,0-.281.574.655.655,0,0,0,.344.57,3.248,3.248,0,0,0,1.1.359,9.486,9.486,0,0,1,1.324.336A2.406,2.406,0,0,1,27-2.453,2.214,2.214,0,0,1,25.973-.57a4.505,4.505,0,0,1-2.66.727,4.6,4.6,0,0,1-1.937-.391A3.24,3.24,0,0,1,20.047-1.3a2.406,2.406,0,0,1-.477-1.414h2.461a1.017,1.017,0,0,0,.391.855,1.607,1.607,0,0,0,.961.27,1.264,1.264,0,0,0,.809-.219A.7.7,0,0,0,24.461-2.375ZM31.008,0H28.367V-8.453h2.641Zm-2.8-10.633a1.175,1.175,0,0,1,.406-.922,1.533,1.533,0,0,1,1.055-.359,1.533,1.533,0,0,1,1.055.359,1.175,1.175,0,0,1,.406.922,1.175,1.175,0,0,1-.406.922,1.533,1.533,0,0,1-1.055.359,1.533,1.533,0,0,1-1.055-.359A1.175,1.175,0,0,1,28.211-10.633Zm7.484.078v2.1h1.391v1.828H35.7v3.867a.987.987,0,0,0,.172.664.922.922,0,0,0,.68.188,3.862,3.862,0,0,0,.656-.047V-.07a4.859,4.859,0,0,1-1.484.227,2.758,2.758,0,0,1-2.008-.641,2.626,2.626,0,0,1-.648-1.945v-4.2H31.984V-8.453h1.078v-2.1ZM40.9,0H38.258V-8.453H40.9ZM38.1-10.633a1.175,1.175,0,0,1,.406-.922,1.533,1.533,0,0,1,1.055-.359,1.533,1.533,0,0,1,1.055.359,1.175,1.175,0,0,1,.406.922,1.175,1.175,0,0,1-.406.922,1.533,1.533,0,0,1-1.055.359,1.533,1.533,0,0,1-1.055-.359A1.175,1.175,0,0,1,38.1-10.633Zm7.789,7.5,1.336-5.32H50L47.242,0H44.555L41.8-8.453h2.781ZM55.43,0a2.973,2.973,0,0,1-.25-.758,2.448,2.448,0,0,1-2.031.914,3,3,0,0,1-2.031-.723,2.3,2.3,0,0,1-.836-1.816A2.364,2.364,0,0,1,51.3-4.461a5.174,5.174,0,0,1,2.953-.7h.813v-.448q0-1.17-1.008-1.17a.824.824,0,0,0-.937.926H50.484a2.36,2.36,0,0,1,1.043-1.99,4.383,4.383,0,0,1,2.66-.765,3.843,3.843,0,0,1,2.555.789A2.743,2.743,0,0,1,57.7-5.656v3.742a3.832,3.832,0,0,0,.359,1.781V0ZM53.781-1.719A1.469,1.469,0,0,0,54.6-1.93a1.322,1.322,0,0,0,.465-.477V-3.758H54.3q-1.375,0-1.375,1.234a.754.754,0,0,0,.242.582A.876.876,0,0,0,53.781-1.719Z" transform="translate(-6148 -7457)" fill="#12263f"/>
        <path id="Trazado_606181" data-name="Trazado 606181" d="M10.359,0H7.633L3.6-7.078V0H.859V-11.375H3.6L7.625-4.3v-7.078h2.734Zm5.7.156A4.345,4.345,0,0,1,12.914-1a4.006,4.006,0,0,1-1.2-3.02v-.219a5.191,5.191,0,0,1,.48-2.289,3.516,3.516,0,0,1,1.4-1.535,4.233,4.233,0,0,1,2.188-.543A3.659,3.659,0,0,1,18.594-7.5a4.344,4.344,0,0,1,1.031,3.082V-3.4H14.391a1.9,1.9,0,0,0,.617,1.117,1.836,1.836,0,0,0,1.234.406A2.366,2.366,0,0,0,18.2-2.75l1.2,1.422A3.363,3.363,0,0,1,18-.246,4.713,4.713,0,0,1,16.063.156Zm-.3-6.734q-1.156,0-1.375,1.531h2.656v-.2a1.3,1.3,0,0,0-.32-.98A1.275,1.275,0,0,0,15.766-6.578ZM25.719-.914A2.714,2.714,0,0,1,23.461.156a2.662,2.662,0,0,1-2.105-.809,3.4,3.4,0,0,1-.715-2.324V-8.453h2.633v5.492a.946.946,0,0,0,1.055,1.086,1.376,1.376,0,0,0,1.289-.648v-5.93h2.648V0H25.8Zm7.055-9.641v2.1h1.391v1.828H32.773v3.867a.987.987,0,0,0,.172.664.922.922,0,0,0,.68.188,3.862,3.862,0,0,0,.656-.047V-.07A4.859,4.859,0,0,1,32.8.156a2.758,2.758,0,0,1-2.008-.641,2.626,2.626,0,0,1-.648-1.945v-4.2H29.063V-8.453h1.078v-2.1ZM40.313-6.07l-.867-.062a1.558,1.558,0,0,0-1.594.781V0H35.219V-8.453h2.469l.086,1.086a2.039,2.039,0,0,1,1.852-1.242,2.567,2.567,0,0,1,.734.094ZM45.789,0a2.973,2.973,0,0,1-.25-.758,2.448,2.448,0,0,1-2.031.914,3,3,0,0,1-2.031-.723,2.3,2.3,0,0,1-.836-1.816,2.364,2.364,0,0,1,1.016-2.078,5.174,5.174,0,0,1,2.953-.7h.813v-.448q0-1.17-1.008-1.17a.824.824,0,0,0-.937.926H40.844a2.36,2.36,0,0,1,1.043-1.99,4.383,4.383,0,0,1,2.66-.765A3.843,3.843,0,0,1,47.1-7.82a2.743,2.743,0,0,1,.961,2.164v3.742a3.832,3.832,0,0,0,.359,1.781V0ZM44.141-1.719a1.469,1.469,0,0,0,.816-.211,1.322,1.322,0,0,0,.465-.477V-3.758h-.766q-1.375,0-1.375,1.234a.754.754,0,0,0,.242.582A.876.876,0,0,0,44.141-1.719ZM52.3,0H49.656V-12H52.3Z" transform="translate(-6148 -7394)" fill="#12263f"/>
        <path id="Trazado_606182" data-name="Trazado 606182" d="M10.359,0H7.633L3.6-7.078V0H.859V-11.375H3.6L7.625-4.3v-7.078h2.734Zm5.7.156A4.345,4.345,0,0,1,12.914-1a4.006,4.006,0,0,1-1.2-3.02v-.219a5.191,5.191,0,0,1,.48-2.289,3.516,3.516,0,0,1,1.4-1.535,4.233,4.233,0,0,1,2.188-.543A3.659,3.659,0,0,1,18.594-7.5a4.344,4.344,0,0,1,1.031,3.082V-3.4H14.391a1.9,1.9,0,0,0,.617,1.117,1.836,1.836,0,0,0,1.234.406A2.366,2.366,0,0,0,18.2-2.75l1.2,1.422A3.363,3.363,0,0,1,18-.246,4.713,4.713,0,0,1,16.063.156Zm-.3-6.734q-1.156,0-1.375,1.531h2.656v-.2a1.3,1.3,0,0,0-.32-.98A1.275,1.275,0,0,0,15.766-6.578Zm4.609,2.289A5.708,5.708,0,0,1,20.8-6.555a3.4,3.4,0,0,1,1.211-1.52,3.192,3.192,0,0,1,1.836-.535,2.538,2.538,0,0,1,2.063.891L26-8.453h2.391V-.32a3.564,3.564,0,0,1-.52,1.941,3.334,3.334,0,0,1-1.5,1.266,5.528,5.528,0,0,1-2.281.441,4.769,4.769,0,0,1-1.8-.352,3.251,3.251,0,0,1-1.332-.914l1.1-1.547a2.414,2.414,0,0,0,1.938.867,1.568,1.568,0,0,0,1.75-1.8V-.68a2.472,2.472,0,0,1-1.914.836,3.055,3.055,0,0,1-2.5-1.184A4.9,4.9,0,0,1,20.375-4.2Zm2.641.164a3.007,3.007,0,0,0,.391,1.645,1.232,1.232,0,0,0,1.094.605,1.4,1.4,0,0,0,1.242-.57V-6a1.363,1.363,0,0,0-1.227-.578,1.241,1.241,0,0,0-1.1.629A3.429,3.429,0,0,0,23.016-4.125ZM34.648,0a2.973,2.973,0,0,1-.25-.758,2.448,2.448,0,0,1-2.031.914,3,3,0,0,1-2.031-.723A2.3,2.3,0,0,1,29.5-2.383a2.364,2.364,0,0,1,1.016-2.078,5.174,5.174,0,0,1,2.953-.7h.813v-.448q0-1.17-1.008-1.17a.824.824,0,0,0-.937.926H29.7a2.36,2.36,0,0,1,1.043-1.99,4.383,4.383,0,0,1,2.66-.765,3.843,3.843,0,0,1,2.555.789,2.743,2.743,0,0,1,.961,2.164v3.742a3.832,3.832,0,0,0,.359,1.781V0ZM33-1.719a1.469,1.469,0,0,0,.816-.211,1.322,1.322,0,0,0,.465-.477V-3.758h-.766q-1.375,0-1.375,1.234a.754.754,0,0,0,.242.582A.876.876,0,0,0,33-1.719Zm8.445-8.836v2.1h1.391v1.828H41.445v3.867a.987.987,0,0,0,.172.664.922.922,0,0,0,.68.188,3.862,3.862,0,0,0,.656-.047V-.07a4.859,4.859,0,0,1-1.484.227,2.758,2.758,0,0,1-2.008-.641,2.626,2.626,0,0,1-.648-1.945v-4.2H37.734V-8.453h1.078v-2.1ZM46.648,0H44.008V-8.453h2.641Zm-2.8-10.633a1.175,1.175,0,0,1,.406-.922,1.533,1.533,0,0,1,1.055-.359,1.533,1.533,0,0,1,1.055.359,1.175,1.175,0,0,1,.406.922,1.175,1.175,0,0,1-.406.922,1.533,1.533,0,0,1-1.055.359,1.533,1.533,0,0,1-1.055-.359A1.175,1.175,0,0,1,43.852-10.633Zm7.789,7.5,1.336-5.32H55.75L52.992,0H50.3L47.547-8.453h2.781ZM61.18,0a2.973,2.973,0,0,1-.25-.758A2.448,2.448,0,0,1,58.9.156a3,3,0,0,1-2.031-.723,2.3,2.3,0,0,1-.836-1.816,2.364,2.364,0,0,1,1.016-2.078A5.174,5.174,0,0,1,60-5.164h.813v-.448q0-1.17-1.008-1.17a.824.824,0,0,0-.937.926H56.234a2.36,2.36,0,0,1,1.043-1.99,4.383,4.383,0,0,1,2.66-.765,3.843,3.843,0,0,1,2.555.789,2.743,2.743,0,0,1,.961,2.164v3.742a3.832,3.832,0,0,0,.359,1.781V0ZM59.531-1.719a1.469,1.469,0,0,0,.816-.211,1.322,1.322,0,0,0,.465-.477V-3.758h-.766q-1.375,0-1.375,1.234a.754.754,0,0,0,.242.582A.876.876,0,0,0,59.531-1.719Z" transform="translate(-6148 -7343)" fill="#12263f"/>
        <path id="Trazado_606184" data-name="Trazado 606184" d="M-48.125-5.258h-4.93v4.031h5.727V0h-7.227V-11.375h7.148v1.227h-5.648v3.664h4.93Zm5.273-.109,1.875-3.086h1.688l-2.766,4.18L-39.2,0h-1.672l-1.953-3.164L-44.781,0h-1.68l2.852-4.273-2.766-4.18H-44.7Zm12.234,1.234A5.062,5.062,0,0,1-31.5-1.023,2.829,2.829,0,0,1-33.891.156,3.1,3.1,0,0,1-36.312-.82V3.25h-1.445v-11.7h1.32l.07.938a2.977,2.977,0,0,1,2.453-1.094A2.882,2.882,0,0,1-31.5-7.461a5.117,5.117,0,0,1,.887,3.2ZM-32.062-4.3a3.735,3.735,0,0,0-.609-2.258,1.963,1.963,0,0,0-1.672-.828,2.125,2.125,0,0,0-1.969,1.164V-2.18a2.129,2.129,0,0,0,1.984,1.156,1.954,1.954,0,0,0,1.652-.824A4.077,4.077,0,0,0-32.062-4.3ZM-25.273.156a3.693,3.693,0,0,1-2.8-1.129,4.19,4.19,0,0,1-1.078-3.02v-.266a5.073,5.073,0,0,1,.48-2.246,3.748,3.748,0,0,1,1.344-1.547,3.378,3.378,0,0,1,1.871-.559,3.166,3.166,0,0,1,2.563,1.086,4.7,4.7,0,0,1,.914,3.109v.6H-27.7a3,3,0,0,0,.73,2.02,2.3,2.3,0,0,0,1.777.77,2.517,2.517,0,0,0,1.3-.312,3.259,3.259,0,0,0,.93-.828l.883.688A3.55,3.55,0,0,1-25.273.156Zm-.18-7.578a1.928,1.928,0,0,0-1.469.637A3.1,3.1,0,0,0-27.656-5h4.234v-.109a2.753,2.753,0,0,0-.594-1.707A1.815,1.815,0,0,0-25.453-7.422Zm9.234.266a4.331,4.331,0,0,0-.711-.055A1.9,1.9,0,0,0-18.859-6V0H-20.3V-8.453H-18.9l.023.977a2.251,2.251,0,0,1,2.016-1.133,1.477,1.477,0,0,1,.641.109ZM-13.32,0h-1.445V-8.453h1.445Zm-1.562-10.7a.863.863,0,0,1,.215-.594.807.807,0,0,1,.637-.242.819.819,0,0,1,.641.242.854.854,0,0,1,.219.594.826.826,0,0,1-.219.586.834.834,0,0,1-.641.234.821.821,0,0,1-.637-.234A.834.834,0,0,1-14.883-10.7ZM-7.5.156A3.693,3.693,0,0,1-10.3-.973a4.19,4.19,0,0,1-1.078-3.02v-.266a5.073,5.073,0,0,1,.48-2.246A3.748,3.748,0,0,1-9.551-8.051,3.378,3.378,0,0,1-7.68-8.609,3.166,3.166,0,0,1-5.117-7.523,4.7,4.7,0,0,1-4.2-4.414v.6H-9.93a3,3,0,0,0,.73,2.02,2.3,2.3,0,0,0,1.777.77,2.517,2.517,0,0,0,1.3-.312,3.259,3.259,0,0,0,.93-.828l.883.688A3.55,3.55,0,0,1-7.5.156Zm-.18-7.578a1.928,1.928,0,0,0-1.469.637A3.1,3.1,0,0,0-9.883-5h4.234v-.109a2.753,2.753,0,0,0-.594-1.707A1.815,1.815,0,0,0-7.68-7.422Zm6.516-1.031.047,1.063A3.08,3.08,0,0,1,1.414-8.609q2.68,0,2.7,3.023V0H2.672V-5.594a1.946,1.946,0,0,0-.418-1.352A1.675,1.675,0,0,0,.977-7.383a2.086,2.086,0,0,0-1.234.375,2.546,2.546,0,0,0-.828.984V0H-2.531V-8.453ZM9.688-1.023a2.082,2.082,0,0,0,1.352-.469,1.649,1.649,0,0,0,.641-1.172h1.367a2.621,2.621,0,0,1-.5,1.383,3.293,3.293,0,0,1-1.23,1.047A3.55,3.55,0,0,1,9.688.156,3.482,3.482,0,0,1,6.941-1a4.59,4.59,0,0,1-1.02-3.152v-.242a5.089,5.089,0,0,1,.453-2.2,3.451,3.451,0,0,1,1.3-1.492,3.7,3.7,0,0,1,2-.531,3.39,3.39,0,0,1,2.363.852,3.043,3.043,0,0,1,1,2.211H11.68a1.992,1.992,0,0,0-.621-1.348A1.932,1.932,0,0,0,9.68-7.422a2.023,2.023,0,0,0-1.707.793,3.724,3.724,0,0,0-.605,2.293v.273a3.65,3.65,0,0,0,.6,2.25A2.033,2.033,0,0,0,9.688-1.023ZM16.242,0H14.8V-8.453h1.445ZM14.68-10.7a.863.863,0,0,1,.215-.594.807.807,0,0,1,.637-.242.819.819,0,0,1,.641.242.854.854,0,0,1,.219.594.826.826,0,0,1-.219.586.834.834,0,0,1-.641.234.821.821,0,0,1-.637-.234A.834.834,0,0,1,14.68-10.7ZM23.773,0a3.036,3.036,0,0,1-.2-.891A3.225,3.225,0,0,1,21.164.156a2.984,2.984,0,0,1-2.051-.707,2.287,2.287,0,0,1-.8-1.793,2.39,2.39,0,0,1,1-2.051,4.733,4.733,0,0,1,2.824-.73h1.406v-.664A1.623,1.623,0,0,0,23.094-7a1.821,1.821,0,0,0-1.336-.449,2.108,2.108,0,0,0-1.3.391,1.151,1.151,0,0,0-.523.945H18.484a2,2,0,0,1,.449-1.223,3.066,3.066,0,0,1,1.219-.934,4.1,4.1,0,0,1,1.691-.344,3.342,3.342,0,0,1,2.289.73,2.635,2.635,0,0,1,.859,2.012v3.891a4.757,4.757,0,0,0,.3,1.852V0Zm-2.4-1.1a2.54,2.54,0,0,0,1.289-.352,2.127,2.127,0,0,0,.883-.914V-4.1H22.414q-2.656,0-2.656,1.555a1.316,1.316,0,0,0,.453,1.063A1.742,1.742,0,0,0,21.375-1.1Zm10.8-1.141a1.064,1.064,0,0,0-.441-.91A4.249,4.249,0,0,0,30.2-3.711a7.277,7.277,0,0,1-1.742-.562,2.479,2.479,0,0,1-.953-.781A1.869,1.869,0,0,1,27.2-6.133a2.193,2.193,0,0,1,.879-1.758,3.432,3.432,0,0,1,2.246-.719,3.532,3.532,0,0,1,2.332.742,2.357,2.357,0,0,1,.895,1.9H32.094a1.3,1.3,0,0,0-.5-1.023,1.888,1.888,0,0,0-1.27-.43,1.976,1.976,0,0,0-1.234.344,1.082,1.082,0,0,0-.445.9.877.877,0,0,0,.414.789,5.1,5.1,0,0,0,1.5.508A7.8,7.8,0,0,1,32.3-4.3a2.558,2.558,0,0,1,1,.809,1.988,1.988,0,0,1,.324,1.152,2.163,2.163,0,0,1-.906,1.816,3.8,3.8,0,0,1-2.352.684A4.257,4.257,0,0,1,28.57-.2a2.922,2.922,0,0,1-1.223-1A2.42,2.42,0,0,1,26.906-2.6h1.445a1.5,1.5,0,0,0,.582,1.152,2.258,2.258,0,0,0,1.434.426,2.331,2.331,0,0,0,1.316-.332A1.02,1.02,0,0,0,32.18-2.242ZM39.117-4.3a4.952,4.952,0,0,1,.922-3.129,2.915,2.915,0,0,1,2.414-1.184A2.932,2.932,0,0,1,44.8-7.594V-12H46.25V0H44.922l-.07-.906A2.943,2.943,0,0,1,42.438.156a2.887,2.887,0,0,1-2.395-1.2,5.008,5.008,0,0,1-.926-3.141Zm1.445.164a3.749,3.749,0,0,0,.594,2.25A1.92,1.92,0,0,0,42.8-1.07,2.108,2.108,0,0,0,44.8-2.3V-6.187a2.125,2.125,0,0,0-1.992-1.2,1.929,1.929,0,0,0-1.656.82A4.128,4.128,0,0,0,40.563-4.133ZM52,.156A3.693,3.693,0,0,1,49.2-.973a4.19,4.19,0,0,1-1.078-3.02v-.266a5.073,5.073,0,0,1,.48-2.246,3.748,3.748,0,0,1,1.344-1.547,3.378,3.378,0,0,1,1.871-.559,3.166,3.166,0,0,1,2.563,1.086A4.7,4.7,0,0,1,55.3-4.414v.6H49.57a3,3,0,0,0,.73,2.02,2.3,2.3,0,0,0,1.777.77,2.517,2.517,0,0,0,1.3-.312,3.259,3.259,0,0,0,.93-.828l.883.688A3.55,3.55,0,0,1,52,.156Zm-.18-7.578a1.928,1.928,0,0,0-1.469.637A3.1,3.1,0,0,0,49.617-5h4.234v-.109a2.753,2.753,0,0,0-.594-1.707A1.815,1.815,0,0,0,51.82-7.422Z" transform="translate(-6086 -7286)" fill="#12263f"/>
        <path id="Trazado_606183" data-name="Trazado 606183" d="M-54.953-1.023A2.082,2.082,0,0,0-53.6-1.492a1.649,1.649,0,0,0,.641-1.172h1.367a2.621,2.621,0,0,1-.5,1.383,3.293,3.293,0,0,1-1.23,1.047,3.55,3.55,0,0,1-1.629.391A3.482,3.482,0,0,1-57.7-1a4.59,4.59,0,0,1-1.02-3.152v-.242a5.089,5.089,0,0,1,.453-2.2,3.451,3.451,0,0,1,1.3-1.492,3.7,3.7,0,0,1,2-.531,3.39,3.39,0,0,1,2.363.852,3.043,3.043,0,0,1,1,2.211h-1.367a1.992,1.992,0,0,0-.621-1.348,1.932,1.932,0,0,0-1.379-.527,2.023,2.023,0,0,0-1.707.793,3.724,3.724,0,0,0-.605,2.293v.273a3.65,3.65,0,0,0,.6,2.25A2.033,2.033,0,0,0-54.953-1.023Zm4.6-3.281a4.993,4.993,0,0,1,.488-2.234A3.643,3.643,0,0,1-48.5-8.07a3.7,3.7,0,0,1,1.988-.539,3.565,3.565,0,0,1,2.793,1.2,4.6,4.6,0,0,1,1.066,3.18v.1a5.036,5.036,0,0,1-.473,2.215A3.589,3.589,0,0,1-44.48-.391,3.743,3.743,0,0,1-46.5.156a3.556,3.556,0,0,1-2.785-1.2A4.575,4.575,0,0,1-50.352-4.2Zm1.453.172a3.616,3.616,0,0,0,.652,2.258,2.088,2.088,0,0,0,1.746.852,2.075,2.075,0,0,0,1.75-.863A3.955,3.955,0,0,0-44.1-4.3a3.61,3.61,0,0,0-.66-2.254,2.1,2.1,0,0,0-1.754-.863,2.075,2.075,0,0,0-1.727.852A3.925,3.925,0,0,0-48.9-4.133Zm9.414-4.32.039.938a3.122,3.122,0,0,1,2.508-1.094A2.417,2.417,0,0,1-34.523-7.25a3.2,3.2,0,0,1,1.1-.984,3.242,3.242,0,0,1,1.6-.375q2.781,0,2.828,2.945V0h-1.445V-5.578a1.941,1.941,0,0,0-.414-1.355,1.823,1.823,0,0,0-1.391-.449,1.917,1.917,0,0,0-1.336.48A1.949,1.949,0,0,0-34.2-5.609V0h-1.453V-5.539a1.613,1.613,0,0,0-1.8-1.844,1.934,1.934,0,0,0-1.945,1.211V0h-1.445V-8.453Zm19.8,4.32a5.062,5.062,0,0,1-.883,3.109A2.829,2.829,0,0,1-22.953.156,3.1,3.1,0,0,1-25.375-.82V3.25H-26.82v-11.7h1.32l.07.938a2.977,2.977,0,0,1,2.453-1.094,2.882,2.882,0,0,1,2.41,1.148,5.117,5.117,0,0,1,.887,3.2ZM-21.125-4.3a3.735,3.735,0,0,0-.609-2.258,1.963,1.963,0,0,0-1.672-.828,2.125,2.125,0,0,0-1.969,1.164V-2.18a2.129,2.129,0,0,0,1.984,1.156,1.954,1.954,0,0,0,1.652-.824A4.077,4.077,0,0,0-21.125-4.3Zm7.367-2.859a4.331,4.331,0,0,0-.711-.055A1.9,1.9,0,0,0-16.4-6V0h-1.445V-8.453h1.406l.023.977A2.251,2.251,0,0,1-14.4-8.609a1.477,1.477,0,0,1,.641.109ZM-7.523,0a3.036,3.036,0,0,1-.2-.891A3.225,3.225,0,0,1-10.133.156a2.984,2.984,0,0,1-2.051-.707,2.287,2.287,0,0,1-.8-1.793,2.39,2.39,0,0,1,1-2.051,4.733,4.733,0,0,1,2.824-.73H-7.75v-.664A1.623,1.623,0,0,0-8.2-7a1.821,1.821,0,0,0-1.336-.449,2.107,2.107,0,0,0-1.3.391,1.151,1.151,0,0,0-.523.945h-1.453a2,2,0,0,1,.449-1.223,3.066,3.066,0,0,1,1.219-.934,4.1,4.1,0,0,1,1.691-.344,3.342,3.342,0,0,1,2.289.73A2.635,2.635,0,0,1-6.3-5.867v3.891a4.757,4.757,0,0,0,.3,1.852V0Zm-2.4-1.1a2.54,2.54,0,0,0,1.289-.352,2.127,2.127,0,0,0,.883-.914V-4.1H-8.883q-2.656,0-2.656,1.555a1.316,1.316,0,0,0,.453,1.063A1.742,1.742,0,0,0-9.922-1.1ZM7.063-4.133A5.062,5.062,0,0,1,6.18-1.023,2.829,2.829,0,0,1,3.789.156,3.1,3.1,0,0,1,1.367-.82V3.25H-.078v-11.7h1.32l.07.938A2.977,2.977,0,0,1,3.766-8.609a2.882,2.882,0,0,1,2.41,1.148,5.117,5.117,0,0,1,.887,3.2ZM5.617-4.3a3.735,3.735,0,0,0-.609-2.258,1.963,1.963,0,0,0-1.672-.828A2.125,2.125,0,0,0,1.367-6.219V-2.18A2.129,2.129,0,0,0,3.352-1.023,1.954,1.954,0,0,0,5-1.848,4.077,4.077,0,0,0,5.617-4.3Zm8.5,4.3a3.036,3.036,0,0,1-.2-.891A3.225,3.225,0,0,1,11.508.156,2.984,2.984,0,0,1,9.457-.551a2.287,2.287,0,0,1-.8-1.793,2.39,2.39,0,0,1,1-2.051,4.733,4.733,0,0,1,2.824-.73h1.406v-.664A1.623,1.623,0,0,0,13.438-7,1.821,1.821,0,0,0,12.1-7.445a2.107,2.107,0,0,0-1.3.391,1.151,1.151,0,0,0-.523.945H8.828a2,2,0,0,1,.449-1.223A3.066,3.066,0,0,1,10.5-8.266a4.1,4.1,0,0,1,1.691-.344,3.342,3.342,0,0,1,2.289.73,2.635,2.635,0,0,1,.859,2.012v3.891a4.757,4.757,0,0,0,.3,1.852V0Zm-2.4-1.1a2.54,2.54,0,0,0,1.289-.352,2.127,2.127,0,0,0,.883-.914V-4.1H12.758Q10.1-4.1,10.1-2.547a1.316,1.316,0,0,0,.453,1.063A1.742,1.742,0,0,0,11.719-1.1Zm10.8-1.141a1.064,1.064,0,0,0-.441-.91,4.249,4.249,0,0,0-1.539-.559A7.277,7.277,0,0,1,18.8-4.273a2.479,2.479,0,0,1-.953-.781,1.869,1.869,0,0,1-.309-1.078,2.193,2.193,0,0,1,.879-1.758,3.432,3.432,0,0,1,2.246-.719A3.532,3.532,0,0,1,23-7.867a2.357,2.357,0,0,1,.895,1.9H22.438a1.3,1.3,0,0,0-.5-1.023,1.888,1.888,0,0,0-1.27-.43,1.976,1.976,0,0,0-1.234.344,1.082,1.082,0,0,0-.445.9.877.877,0,0,0,.414.789,5.1,5.1,0,0,0,1.5.508,7.8,7.8,0,0,1,1.754.578,2.558,2.558,0,0,1,1,.809,1.988,1.988,0,0,1,.324,1.152,2.163,2.163,0,0,1-.906,1.816,3.8,3.8,0,0,1-2.352.684,4.257,4.257,0,0,1-1.8-.359,2.922,2.922,0,0,1-1.223-1A2.42,2.42,0,0,1,17.25-2.6H18.7a1.5,1.5,0,0,0,.582,1.152,2.258,2.258,0,0,0,1.434.426,2.331,2.331,0,0,0,1.316-.332A1.02,1.02,0,0,0,22.523-2.242ZM31.07,0a3.036,3.036,0,0,1-.2-.891A3.225,3.225,0,0,1,28.461.156,2.984,2.984,0,0,1,26.41-.551a2.287,2.287,0,0,1-.8-1.793,2.39,2.39,0,0,1,1-2.051,4.733,4.733,0,0,1,2.824-.73h1.406v-.664A1.623,1.623,0,0,0,30.391-7a1.821,1.821,0,0,0-1.336-.449,2.108,2.108,0,0,0-1.3.391,1.151,1.151,0,0,0-.523.945H25.781a2,2,0,0,1,.449-1.223,3.066,3.066,0,0,1,1.219-.934,4.1,4.1,0,0,1,1.691-.344,3.342,3.342,0,0,1,2.289.73,2.635,2.635,0,0,1,.859,2.012v3.891a4.757,4.757,0,0,0,.3,1.852V0Zm-2.4-1.1a2.54,2.54,0,0,0,1.289-.352,2.127,2.127,0,0,0,.883-.914V-4.1H29.711q-2.656,0-2.656,1.555a1.316,1.316,0,0,0,.453,1.063A1.742,1.742,0,0,0,28.672-1.1ZM34.2-4.3a4.952,4.952,0,0,1,.922-3.129,2.915,2.915,0,0,1,2.414-1.184,2.932,2.932,0,0,1,2.352,1.016V-12h1.445V0H40.008l-.07-.906A2.943,2.943,0,0,1,37.523.156a2.887,2.887,0,0,1-2.395-1.2A5.008,5.008,0,0,1,34.2-4.187Zm1.445.164a3.749,3.749,0,0,0,.594,2.25,1.92,1.92,0,0,0,1.641.813A2.108,2.108,0,0,0,39.891-2.3V-6.187a2.125,2.125,0,0,0-1.992-1.2,1.929,1.929,0,0,0-1.656.82A4.128,4.128,0,0,0,35.648-4.133ZM48.8,0a3.036,3.036,0,0,1-.2-.891A3.225,3.225,0,0,1,46.188.156a2.984,2.984,0,0,1-2.051-.707,2.287,2.287,0,0,1-.8-1.793,2.39,2.39,0,0,1,1-2.051,4.733,4.733,0,0,1,2.824-.73H48.57v-.664A1.623,1.623,0,0,0,48.117-7a1.821,1.821,0,0,0-1.336-.449,2.107,2.107,0,0,0-1.3.391,1.151,1.151,0,0,0-.523.945H43.508a2,2,0,0,1,.449-1.223,3.066,3.066,0,0,1,1.219-.934,4.1,4.1,0,0,1,1.691-.344,3.342,3.342,0,0,1,2.289.73,2.635,2.635,0,0,1,.859,2.012v3.891a4.757,4.757,0,0,0,.3,1.852V0ZM46.4-1.1a2.54,2.54,0,0,0,1.289-.352,2.127,2.127,0,0,0,.883-.914V-4.1H47.438q-2.656,0-2.656,1.555a1.316,1.316,0,0,0,.453,1.063A1.742,1.742,0,0,0,46.4-1.1ZM57.2-2.242a1.064,1.064,0,0,0-.441-.91,4.249,4.249,0,0,0-1.539-.559,7.277,7.277,0,0,1-1.742-.562,2.479,2.479,0,0,1-.953-.781,1.869,1.869,0,0,1-.309-1.078A2.193,2.193,0,0,1,53.1-7.891a3.432,3.432,0,0,1,2.246-.719,3.532,3.532,0,0,1,2.332.742,2.357,2.357,0,0,1,.895,1.9H57.117a1.3,1.3,0,0,0-.5-1.023,1.888,1.888,0,0,0-1.27-.43,1.976,1.976,0,0,0-1.234.344,1.082,1.082,0,0,0-.445.9.877.877,0,0,0,.414.789,5.1,5.1,0,0,0,1.5.508,7.8,7.8,0,0,1,1.754.578,2.558,2.558,0,0,1,1,.809,1.988,1.988,0,0,1,.324,1.152,2.163,2.163,0,0,1-.906,1.816,3.8,3.8,0,0,1-2.352.684,4.257,4.257,0,0,1-1.8-.359,2.922,2.922,0,0,1-1.223-1A2.42,2.42,0,0,1,51.93-2.6h1.445a1.5,1.5,0,0,0,.582,1.152,2.258,2.258,0,0,0,1.434.426,2.331,2.331,0,0,0,1.316-.332A1.02,1.02,0,0,0,57.2-2.242Z" transform="translate(-6085 -7267)" fill="#12263f"/>
        <path id="Trazado_606190" data-name="Trazado 606190" d="M-40.516-5.07a7.053,7.053,0,0,1-2.809-1.363,2.6,2.6,0,0,1-.879-2,2.752,2.752,0,0,1,1.074-2.223,4.269,4.269,0,0,1,2.793-.879,4.66,4.66,0,0,1,2.09.453,3.436,3.436,0,0,1,1.422,1.25,3.2,3.2,0,0,1,.5,1.742h-1.508a2.08,2.08,0,0,0-.656-1.627,2.669,2.669,0,0,0-1.852-.592,2.732,2.732,0,0,0-1.73.489,1.632,1.632,0,0,0-.621,1.358A1.468,1.468,0,0,0-42.1-7.28a5.785,5.785,0,0,0,2.008.88,9.316,9.316,0,0,1,2.219.88A3.367,3.367,0,0,1-36.684-4.4,2.861,2.861,0,0,1-36.3-2.891,2.658,2.658,0,0,1-37.375-.676a4.6,4.6,0,0,1-2.883.832,5.347,5.347,0,0,1-2.187-.449,3.681,3.681,0,0,1-1.566-1.23A3,3,0,0,1-44.562-3.3h1.508a1.959,1.959,0,0,0,.762,1.629,3.207,3.207,0,0,0,2.035.6,2.948,2.948,0,0,0,1.82-.484,1.573,1.573,0,0,0,.633-1.32,1.545,1.545,0,0,0-.586-1.293A6.755,6.755,0,0,0-40.516-5.07ZM-31.094.156a3.693,3.693,0,0,1-2.8-1.129,4.19,4.19,0,0,1-1.078-3.02v-.266a5.073,5.073,0,0,1,.48-2.246,3.748,3.748,0,0,1,1.344-1.547,3.378,3.378,0,0,1,1.871-.559,3.166,3.166,0,0,1,2.563,1.086A4.7,4.7,0,0,1-27.8-4.414v.6h-5.727a3,3,0,0,0,.73,2.02,2.3,2.3,0,0,0,1.777.77,2.517,2.517,0,0,0,1.3-.312,3.259,3.259,0,0,0,.93-.828l.883.688A3.55,3.55,0,0,1-31.094.156Zm-.18-7.578a1.928,1.928,0,0,0-1.469.637A3.1,3.1,0,0,0-33.477-5h4.234v-.109a2.753,2.753,0,0,0-.594-1.707A1.815,1.815,0,0,0-31.273-7.422ZM-24.555,0H-26V-12h1.445Zm5.82.156a3.693,3.693,0,0,1-2.8-1.129,4.19,4.19,0,0,1-1.078-3.02v-.266a5.073,5.073,0,0,1,.48-2.246,3.748,3.748,0,0,1,1.344-1.547,3.378,3.378,0,0,1,1.871-.559,3.166,3.166,0,0,1,2.563,1.086,4.7,4.7,0,0,1,.914,3.109v.6h-5.727a3,3,0,0,0,.73,2.02,2.3,2.3,0,0,0,1.777.77,2.517,2.517,0,0,0,1.3-.312,3.259,3.259,0,0,0,.93-.828l.883.688A3.55,3.55,0,0,1-18.734.156Zm-.18-7.578a1.928,1.928,0,0,0-1.469.637A3.1,3.1,0,0,0-21.117-5h4.234v-.109a2.753,2.753,0,0,0-.594-1.707A1.815,1.815,0,0,0-18.914-7.422Zm8.539,6.4a2.082,2.082,0,0,0,1.352-.469,1.649,1.649,0,0,0,.641-1.172h1.367a2.621,2.621,0,0,1-.5,1.383A3.293,3.293,0,0,1-8.746-.234a3.55,3.55,0,0,1-1.629.391A3.482,3.482,0,0,1-13.121-1a4.59,4.59,0,0,1-1.02-3.152v-.242a5.089,5.089,0,0,1,.453-2.2,3.451,3.451,0,0,1,1.3-1.492,3.7,3.7,0,0,1,2-.531,3.39,3.39,0,0,1,2.363.852,3.043,3.043,0,0,1,1,2.211H-8.383A1.992,1.992,0,0,0-9-6.895a1.932,1.932,0,0,0-1.379-.527,2.023,2.023,0,0,0-1.707.793A3.724,3.724,0,0,0-12.7-4.336v.273a3.65,3.65,0,0,0,.6,2.25A2.033,2.033,0,0,0-10.375-1.023Zm8.375,0A2.082,2.082,0,0,0-.648-1.492,1.649,1.649,0,0,0-.008-2.664H1.359a2.621,2.621,0,0,1-.5,1.383A3.293,3.293,0,0,1-.371-.234,3.55,3.55,0,0,1-2,.156,3.482,3.482,0,0,1-4.746-1a4.59,4.59,0,0,1-1.02-3.152v-.242a5.089,5.089,0,0,1,.453-2.2,3.451,3.451,0,0,1,1.3-1.492,3.7,3.7,0,0,1,2-.531,3.39,3.39,0,0,1,2.363.852,3.043,3.043,0,0,1,1,2.211H-.008A1.992,1.992,0,0,0-.629-6.895a1.932,1.932,0,0,0-1.379-.527,2.023,2.023,0,0,0-1.707.793A3.724,3.724,0,0,0-4.32-4.336v.273a3.65,3.65,0,0,0,.6,2.25A2.033,2.033,0,0,0-2-1.023ZM4.555,0H3.109V-8.453H4.555ZM2.992-10.7a.863.863,0,0,1,.215-.594.807.807,0,0,1,.637-.242.819.819,0,0,1,.641.242A.854.854,0,0,1,4.7-10.7a.826.826,0,0,1-.219.586.834.834,0,0,1-.641.234.821.821,0,0,1-.637-.234A.834.834,0,0,1,2.992-10.7ZM6.484-4.3a4.993,4.993,0,0,1,.488-2.234A3.643,3.643,0,0,1,8.332-8.07a3.7,3.7,0,0,1,1.988-.539,3.565,3.565,0,0,1,2.793,1.2,4.6,4.6,0,0,1,1.066,3.18v.1a5.036,5.036,0,0,1-.473,2.215A3.589,3.589,0,0,1,12.355-.391a3.743,3.743,0,0,1-2.02.547,3.556,3.556,0,0,1-2.785-1.2A4.575,4.575,0,0,1,6.484-4.2Zm1.453.172A3.616,3.616,0,0,0,8.59-1.875a2.088,2.088,0,0,0,1.746.852,2.075,2.075,0,0,0,1.75-.863A3.955,3.955,0,0,0,12.734-4.3a3.61,3.61,0,0,0-.66-2.254,2.1,2.1,0,0,0-1.754-.863,2.075,2.075,0,0,0-1.727.852A3.925,3.925,0,0,0,7.938-4.133ZM10.977-12h1.75L10.633-9.7l-1.164,0Zm6.383,3.547.047,1.063a3.08,3.08,0,0,1,2.531-1.219q2.68,0,2.7,3.023V0H21.2V-5.594a1.946,1.946,0,0,0-.418-1.352A1.675,1.675,0,0,0,19.5-7.383a2.086,2.086,0,0,0-1.234.375,2.546,2.546,0,0,0-.828.984V0H15.992V-8.453ZM28.43-4.3a4.952,4.952,0,0,1,.922-3.129,2.915,2.915,0,0,1,2.414-1.184,2.932,2.932,0,0,1,2.352,1.016V-12h1.445V0H34.234l-.07-.906A2.943,2.943,0,0,1,31.75.156a2.887,2.887,0,0,1-2.395-1.2,5.008,5.008,0,0,1-.926-3.141Zm1.445.164a3.749,3.749,0,0,0,.594,2.25,1.92,1.92,0,0,0,1.641.813A2.108,2.108,0,0,0,34.117-2.3V-6.187a2.125,2.125,0,0,0-1.992-1.2,1.929,1.929,0,0,0-1.656.82A4.128,4.128,0,0,0,29.875-4.133ZM41.313.156a3.693,3.693,0,0,1-2.8-1.129,4.19,4.19,0,0,1-1.078-3.02v-.266a5.073,5.073,0,0,1,.48-2.246,3.748,3.748,0,0,1,1.344-1.547,3.378,3.378,0,0,1,1.871-.559A3.166,3.166,0,0,1,43.7-7.523a4.7,4.7,0,0,1,.914,3.109v.6H38.883a3,3,0,0,0,.73,2.02,2.3,2.3,0,0,0,1.777.77,2.517,2.517,0,0,0,1.3-.312,3.259,3.259,0,0,0,.93-.828l.883.688A3.55,3.55,0,0,1,41.313.156Zm-.18-7.578a1.928,1.928,0,0,0-1.469.637A3.1,3.1,0,0,0,38.93-5h4.234v-.109a2.753,2.753,0,0,0-.594-1.707A1.815,1.815,0,0,0,41.133-7.422Z" transform="translate(-5939 -7159)" fill="#12263f"/>
        <path id="Trazado_606191" data-name="Trazado 606191" d="M-23.652-4.133a5.062,5.062,0,0,1-.883,3.109A2.829,2.829,0,0,1-26.926.156,3.1,3.1,0,0,1-29.348-.82V3.25h-1.445v-11.7h1.32l.07.938a2.977,2.977,0,0,1,2.453-1.094,2.882,2.882,0,0,1,2.41,1.148,5.117,5.117,0,0,1,.887,3.2ZM-25.1-4.3a3.735,3.735,0,0,0-.609-2.258,1.963,1.963,0,0,0-1.672-.828,2.125,2.125,0,0,0-1.969,1.164V-2.18a2.129,2.129,0,0,0,1.984,1.156,1.954,1.954,0,0,0,1.652-.824A4.077,4.077,0,0,0-25.1-4.3Zm7.367-2.859a4.331,4.331,0,0,0-.711-.055A1.9,1.9,0,0,0-20.371-6V0h-1.445V-8.453h1.406l.023.977a2.251,2.251,0,0,1,2.016-1.133,1.477,1.477,0,0,1,.641.109Zm.789,2.852a4.993,4.993,0,0,1,.488-2.234A3.643,3.643,0,0,1-15.094-8.07a3.7,3.7,0,0,1,1.988-.539,3.565,3.565,0,0,1,2.793,1.2,4.6,4.6,0,0,1,1.066,3.18v.1a5.036,5.036,0,0,1-.473,2.215A3.589,3.589,0,0,1-11.07-.391a3.743,3.743,0,0,1-2.02.547,3.556,3.556,0,0,1-2.785-1.2A4.575,4.575,0,0,1-16.941-4.2Zm1.453.172a3.616,3.616,0,0,0,.652,2.258,2.088,2.088,0,0,0,1.746.852,2.075,2.075,0,0,0,1.75-.863A3.955,3.955,0,0,0-10.691-4.3a3.61,3.61,0,0,0-.66-2.254,2.1,2.1,0,0,0-1.754-.863,2.075,2.075,0,0,0-1.727.852A3.925,3.925,0,0,0-15.488-4.133Zm7.7-.164a4.952,4.952,0,0,1,.922-3.129A2.915,2.915,0,0,1-4.449-8.609,2.932,2.932,0,0,1-2.1-7.594V-12H-.652V0H-1.98l-.07-.906A2.943,2.943,0,0,1-4.465.156a2.887,2.887,0,0,1-2.395-1.2,5.008,5.008,0,0,1-.926-3.141Zm1.445.164a3.749,3.749,0,0,0,.594,2.25,1.92,1.92,0,0,0,1.641.813A2.108,2.108,0,0,0-2.1-2.3V-6.187a2.125,2.125,0,0,0-1.992-1.2,1.929,1.929,0,0,0-1.656.82A4.128,4.128,0,0,0-6.34-4.133ZM6.809-.836A3.07,3.07,0,0,1,4.332.156,2.628,2.628,0,0,1,2.273-.629a3.4,3.4,0,0,1-.715-2.324v-5.5H3v5.461Q3-1.07,4.566-1.07A2.163,2.163,0,0,0,6.77-2.3V-8.453H8.215V0H6.84ZM13.8-1.023a2.082,2.082,0,0,0,1.352-.469,1.649,1.649,0,0,0,.641-1.172H17.16a2.621,2.621,0,0,1-.5,1.383A3.293,3.293,0,0,1,15.43-.234,3.55,3.55,0,0,1,13.8.156,3.482,3.482,0,0,1,11.055-1a4.59,4.59,0,0,1-1.02-3.152v-.242a5.089,5.089,0,0,1,.453-2.2,3.451,3.451,0,0,1,1.3-1.492,3.7,3.7,0,0,1,2-.531,3.39,3.39,0,0,1,2.363.852,3.043,3.043,0,0,1,1,2.211H15.793a1.992,1.992,0,0,0-.621-1.348,1.932,1.932,0,0,0-1.379-.527,2.023,2.023,0,0,0-1.707.793,3.724,3.724,0,0,0-.605,2.293v.273a3.65,3.65,0,0,0,.6,2.25A2.033,2.033,0,0,0,13.8-1.023ZM20.746-10.5v2.047h1.578v1.117H20.746v5.249a1.173,1.173,0,0,0,.211.763.888.888,0,0,0,.719.254,3.5,3.5,0,0,0,.688-.094V0a4.215,4.215,0,0,1-1.109.155A1.8,1.8,0,0,1,19.793-.43,2.517,2.517,0,0,1,19.3-2.094V-7.336H17.762V-8.453H19.3V-10.5Zm2.727,6.2a4.993,4.993,0,0,1,.488-2.234A3.643,3.643,0,0,1,25.32-8.07a3.7,3.7,0,0,1,1.988-.539,3.565,3.565,0,0,1,2.793,1.2,4.6,4.6,0,0,1,1.066,3.18v.1A5.036,5.036,0,0,1,30.7-1.918,3.589,3.589,0,0,1,29.344-.391a3.743,3.743,0,0,1-2.02.547,3.556,3.556,0,0,1-2.785-1.2A4.575,4.575,0,0,1,23.473-4.2Zm1.453.172a3.616,3.616,0,0,0,.652,2.258,2.088,2.088,0,0,0,1.746.852,2.075,2.075,0,0,0,1.75-.863A3.955,3.955,0,0,0,29.723-4.3a3.61,3.61,0,0,0-.66-2.254,2.1,2.1,0,0,0-1.754-.863,2.075,2.075,0,0,0-1.727.852A3.925,3.925,0,0,0,24.926-4.133Z" transform="translate(-5937 -7141)" fill="#12263f"/>
        <path id="Trazado_606186" data-name="Trazado 606186" d="M-41.883-11.375l3.719,9.281,3.719-9.281H-32.5V0H-34V-4.43l.141-4.781L-37.594,0h-1.148l-3.727-9.187.148,4.758V0h-1.5V-11.375ZM-30.461-4.3a4.993,4.993,0,0,1,.488-2.234A3.643,3.643,0,0,1-28.613-8.07a3.7,3.7,0,0,1,1.988-.539,3.565,3.565,0,0,1,2.793,1.2,4.6,4.6,0,0,1,1.066,3.18v.1a5.036,5.036,0,0,1-.473,2.215A3.589,3.589,0,0,1-24.59-.391a3.743,3.743,0,0,1-2.02.547,3.556,3.556,0,0,1-2.785-1.2A4.575,4.575,0,0,1-30.461-4.2Zm1.453.172a3.616,3.616,0,0,0,.652,2.258,2.088,2.088,0,0,0,1.746.852,2.075,2.075,0,0,0,1.75-.863A3.955,3.955,0,0,0-24.211-4.3a3.61,3.61,0,0,0-.66-2.254,2.1,2.1,0,0,0-1.754-.863,2.075,2.075,0,0,0-1.727.852A3.925,3.925,0,0,0-29.008-4.133ZM-18.992-10.5v2.047h1.578v1.117h-1.578v5.249a1.173,1.173,0,0,0,.211.763.888.888,0,0,0,.719.254,3.5,3.5,0,0,0,.688-.094V0a4.215,4.215,0,0,1-1.109.155A1.8,1.8,0,0,1-19.945-.43a2.517,2.517,0,0,1-.492-1.664V-7.336h-1.539V-8.453h1.539V-10.5ZM-14.156,0H-15.6V-8.453h1.445Zm-1.562-10.7a.863.863,0,0,1,.215-.594.807.807,0,0,1,.637-.242.819.819,0,0,1,.641.242.854.854,0,0,1,.219.594.826.826,0,0,1-.219.586.834.834,0,0,1-.641.234.821.821,0,0,1-.637-.234A.834.834,0,0,1-15.719-10.7Zm6.664,8.734,2.094-6.492h1.477L-8.516,0h-1.1L-12.68-8.453H-11.2ZM1.008,0A3.036,3.036,0,0,1,.8-.891,3.225,3.225,0,0,1-1.6.156,2.984,2.984,0,0,1-3.652-.551a2.287,2.287,0,0,1-.8-1.793,2.39,2.39,0,0,1,1-2.051,4.733,4.733,0,0,1,2.824-.73H.781v-.664A1.623,1.623,0,0,0,.328-7a1.821,1.821,0,0,0-1.336-.449,2.107,2.107,0,0,0-1.3.391,1.151,1.151,0,0,0-.523.945H-4.281a2,2,0,0,1,.449-1.223,3.066,3.066,0,0,1,1.219-.934A4.1,4.1,0,0,1-.922-8.609a3.342,3.342,0,0,1,2.289.73,2.635,2.635,0,0,1,.859,2.012v3.891a4.757,4.757,0,0,0,.3,1.852V0Zm-2.4-1.1A2.54,2.54,0,0,0-.1-1.453a2.127,2.127,0,0,0,.883-.914V-4.1H-.352q-2.656,0-2.656,1.555a1.316,1.316,0,0,0,.453,1.063A1.742,1.742,0,0,0-1.391-1.1Zm9.273.078a2.082,2.082,0,0,0,1.352-.469,1.649,1.649,0,0,0,.641-1.172h1.367a2.621,2.621,0,0,1-.5,1.383A3.293,3.293,0,0,1,9.512-.234,3.55,3.55,0,0,1,7.883.156,3.482,3.482,0,0,1,5.137-1a4.59,4.59,0,0,1-1.02-3.152v-.242a5.089,5.089,0,0,1,.453-2.2,3.451,3.451,0,0,1,1.3-1.492,3.7,3.7,0,0,1,2-.531,3.39,3.39,0,0,1,2.363.852,3.043,3.043,0,0,1,1,2.211H9.875a1.992,1.992,0,0,0-.621-1.348,1.932,1.932,0,0,0-1.379-.527,2.023,2.023,0,0,0-1.707.793,3.724,3.724,0,0,0-.605,2.293v.273a3.65,3.65,0,0,0,.6,2.25A2.033,2.033,0,0,0,7.883-1.023ZM14.438,0H12.992V-8.453h1.445ZM12.875-10.7a.863.863,0,0,1,.215-.594.807.807,0,0,1,.637-.242.819.819,0,0,1,.641.242.854.854,0,0,1,.219.594.826.826,0,0,1-.219.586.834.834,0,0,1-.641.234.821.821,0,0,1-.637-.234A.834.834,0,0,1,12.875-10.7ZM16.367-4.3a4.993,4.993,0,0,1,.488-2.234A3.643,3.643,0,0,1,18.215-8.07,3.7,3.7,0,0,1,20.2-8.609,3.565,3.565,0,0,1,23-7.414a4.6,4.6,0,0,1,1.066,3.18v.1a5.036,5.036,0,0,1-.473,2.215A3.589,3.589,0,0,1,22.238-.391a3.743,3.743,0,0,1-2.02.547,3.556,3.556,0,0,1-2.785-1.2A4.575,4.575,0,0,1,16.367-4.2Zm1.453.172a3.616,3.616,0,0,0,.652,2.258,2.088,2.088,0,0,0,1.746.852,2.075,2.075,0,0,0,1.75-.863A3.955,3.955,0,0,0,22.617-4.3a3.61,3.61,0,0,0-.66-2.254A2.1,2.1,0,0,0,20.2-7.422a2.075,2.075,0,0,0-1.727.852A3.925,3.925,0,0,0,17.82-4.133ZM20.859-12h1.75L20.516-9.7l-1.164,0Zm6.383,3.547.047,1.063A3.08,3.08,0,0,1,29.82-8.609q2.68,0,2.7,3.023V0H31.078V-5.594a1.946,1.946,0,0,0-.418-1.352,1.675,1.675,0,0,0-1.277-.437,2.086,2.086,0,0,0-1.234.375,2.546,2.546,0,0,0-.828.984V0H25.875V-8.453ZM41.43-2.117,43.4-8.453h1.547L41.547,1.3q-.789,2.109-2.508,2.109l-.273-.023-.539-.1V2.117l.391.031a1.923,1.923,0,0,0,1.145-.3A2.148,2.148,0,0,0,40.438.766l.32-.859L37.742-8.453H39.32Z" transform="translate(-6000 -7216)" fill="#12263f"/>
        <path id="Trazado_606187" data-name="Trazado 606187" d="M-26.848,0a3.036,3.036,0,0,1-.2-.891A3.225,3.225,0,0,1-29.457.156a2.984,2.984,0,0,1-2.051-.707,2.287,2.287,0,0,1-.8-1.793,2.39,2.39,0,0,1,1-2.051,4.733,4.733,0,0,1,2.824-.73h1.406v-.664A1.623,1.623,0,0,0-27.527-7a1.821,1.821,0,0,0-1.336-.449,2.108,2.108,0,0,0-1.3.391,1.151,1.151,0,0,0-.523.945h-1.453a2,2,0,0,1,.449-1.223,3.066,3.066,0,0,1,1.219-.934,4.1,4.1,0,0,1,1.691-.344,3.342,3.342,0,0,1,2.289.73,2.635,2.635,0,0,1,.859,2.012v3.891a4.757,4.757,0,0,0,.3,1.852V0Zm-2.4-1.1a2.54,2.54,0,0,0,1.289-.352,2.127,2.127,0,0,0,.883-.914V-4.1h-1.133q-2.656,0-2.656,1.555a1.316,1.316,0,0,0,.453,1.063A1.742,1.742,0,0,0-29.246-1.1Zm7.844-9.4v2.047h1.578v1.117H-21.4v5.249a1.173,1.173,0,0,0,.211.763.888.888,0,0,0,.719.254,3.5,3.5,0,0,0,.688-.094V0a4.215,4.215,0,0,1-1.109.155A1.8,1.8,0,0,1-22.355-.43a2.517,2.517,0,0,1-.492-1.664V-7.336h-1.539V-8.453h1.539V-10.5Zm7.352,3.344a4.331,4.331,0,0,0-.711-.055A1.9,1.9,0,0,0-16.691-6V0h-1.445V-8.453h1.406l.023.977a2.251,2.251,0,0,1,2.016-1.133,1.477,1.477,0,0,1,.641.109ZM-7.816,0a3.036,3.036,0,0,1-.2-.891A3.225,3.225,0,0,1-10.426.156a2.984,2.984,0,0,1-2.051-.707,2.287,2.287,0,0,1-.8-1.793,2.39,2.39,0,0,1,1-2.051,4.733,4.733,0,0,1,2.824-.73h1.406v-.664A1.623,1.623,0,0,0-8.5-7a1.821,1.821,0,0,0-1.336-.449,2.107,2.107,0,0,0-1.3.391,1.151,1.151,0,0,0-.523.945h-1.453a2,2,0,0,1,.449-1.223,3.066,3.066,0,0,1,1.219-.934,4.1,4.1,0,0,1,1.691-.344,3.342,3.342,0,0,1,2.289.73A2.635,2.635,0,0,1-6.6-5.867v3.891A4.757,4.757,0,0,0-6.3-.125V0Zm-2.4-1.1a2.54,2.54,0,0,0,1.289-.352,2.127,2.127,0,0,0,.883-.914V-4.1H-9.176q-2.656,0-2.656,1.555a1.316,1.316,0,0,0,.453,1.063A1.742,1.742,0,0,0-10.215-1.1Zm9.273.078A2.082,2.082,0,0,0,.41-1.492a1.649,1.649,0,0,0,.641-1.172H2.418a2.621,2.621,0,0,1-.5,1.383A3.293,3.293,0,0,1,.688-.234,3.55,3.55,0,0,1-.941.156,3.482,3.482,0,0,1-3.687-1a4.59,4.59,0,0,1-1.02-3.152v-.242a5.089,5.089,0,0,1,.453-2.2,3.451,3.451,0,0,1,1.3-1.492,3.7,3.7,0,0,1,2-.531,3.39,3.39,0,0,1,2.363.852,3.043,3.043,0,0,1,1,2.211H1.051A1.992,1.992,0,0,0,.43-6.895,1.932,1.932,0,0,0-.949-7.422a2.023,2.023,0,0,0-1.707.793,3.724,3.724,0,0,0-.605,2.293v.273a3.65,3.65,0,0,0,.6,2.25A2.033,2.033,0,0,0-.941-1.023Zm8.375,0a2.082,2.082,0,0,0,1.352-.469,1.649,1.649,0,0,0,.641-1.172h1.367a2.621,2.621,0,0,1-.5,1.383A3.293,3.293,0,0,1,9.063-.234,3.55,3.55,0,0,1,7.434.156,3.482,3.482,0,0,1,4.688-1a4.59,4.59,0,0,1-1.02-3.152v-.242a5.089,5.089,0,0,1,.453-2.2,3.451,3.451,0,0,1,1.3-1.492,3.7,3.7,0,0,1,2-.531,3.39,3.39,0,0,1,2.363.852,3.043,3.043,0,0,1,1,2.211H9.426A1.992,1.992,0,0,0,8.8-6.895a1.932,1.932,0,0,0-1.379-.527,2.023,2.023,0,0,0-1.707.793,3.724,3.724,0,0,0-.605,2.293v.273a3.65,3.65,0,0,0,.6,2.25A2.033,2.033,0,0,0,7.434-1.023ZM13.988,0H12.543V-8.453h1.445ZM12.426-10.7a.863.863,0,0,1,.215-.594.807.807,0,0,1,.637-.242.819.819,0,0,1,.641.242.854.854,0,0,1,.219.594.826.826,0,0,1-.219.586.834.834,0,0,1-.641.234.821.821,0,0,1-.637-.234A.834.834,0,0,1,12.426-10.7ZM15.918-4.3a4.993,4.993,0,0,1,.488-2.234A3.643,3.643,0,0,1,17.766-8.07a3.7,3.7,0,0,1,1.988-.539,3.565,3.565,0,0,1,2.793,1.2,4.6,4.6,0,0,1,1.066,3.18v.1a5.036,5.036,0,0,1-.473,2.215A3.589,3.589,0,0,1,21.789-.391a3.743,3.743,0,0,1-2.02.547,3.556,3.556,0,0,1-2.785-1.2A4.575,4.575,0,0,1,15.918-4.2Zm1.453.172a3.616,3.616,0,0,0,.652,2.258,2.088,2.088,0,0,0,1.746.852,2.075,2.075,0,0,0,1.75-.863A3.955,3.955,0,0,0,22.168-4.3a3.61,3.61,0,0,0-.66-2.254,2.1,2.1,0,0,0-1.754-.863,2.075,2.075,0,0,0-1.727.852A3.925,3.925,0,0,0,17.371-4.133ZM20.41-12h1.75L20.066-9.7l-1.164,0Zm6.383,3.547.047,1.063a3.08,3.08,0,0,1,2.531-1.219q2.68,0,2.7,3.023V0H30.629V-5.594a1.946,1.946,0,0,0-.418-1.352,1.675,1.675,0,0,0-1.277-.437,2.086,2.086,0,0,0-1.234.375,2.546,2.546,0,0,0-.828.984V0H25.426V-8.453Z" transform="translate(-6000 -7197)" fill="#12263f"/>
        <path id="Trazado_606185" data-name="Trazado 606185" d="M-53.707-11.375l3.719,9.281,3.719-9.281h1.945V0h-1.5V-4.43l.141-4.781L-49.418,0h-1.148l-3.727-9.187.148,4.758V0h-1.5V-11.375ZM-38.395.156a3.693,3.693,0,0,1-2.8-1.129,4.19,4.19,0,0,1-1.078-3.02v-.266a5.073,5.073,0,0,1,.48-2.246,3.748,3.748,0,0,1,1.344-1.547,3.378,3.378,0,0,1,1.871-.559,3.166,3.166,0,0,1,2.563,1.086A4.7,4.7,0,0,1-35.1-4.414v.6h-5.727a3,3,0,0,0,.73,2.02,2.3,2.3,0,0,0,1.777.77,2.517,2.517,0,0,0,1.3-.312,3.259,3.259,0,0,0,.93-.828l.883.688A3.55,3.55,0,0,1-38.395.156Zm-.18-7.578a1.928,1.928,0,0,0-1.469.637A3.1,3.1,0,0,0-40.777-5h4.234v-.109a2.753,2.753,0,0,0-.594-1.707A1.815,1.815,0,0,0-38.574-7.422Zm4.8,3.125a4.952,4.952,0,0,1,.922-3.129,2.915,2.915,0,0,1,2.414-1.184A2.932,2.932,0,0,1-28.09-7.594V-12h1.445V0h-1.328l-.07-.906A2.943,2.943,0,0,1-30.457.156a2.887,2.887,0,0,1-2.395-1.2,5.008,5.008,0,0,1-.926-3.141Zm1.445.164a3.749,3.749,0,0,0,.594,2.25A1.92,1.92,0,0,0-30.1-1.07,2.108,2.108,0,0,0-28.09-2.3V-6.187a2.125,2.125,0,0,0-1.992-1.2,1.929,1.929,0,0,0-1.656.82A4.128,4.128,0,0,0-32.332-4.133ZM-22.832,0h-1.445V-8.453h1.445Zm-1.562-10.7a.863.863,0,0,1,.215-.594.807.807,0,0,1,.637-.242.819.819,0,0,1,.641.242.854.854,0,0,1,.219.594.826.826,0,0,1-.219.586.834.834,0,0,1-.641.234.821.821,0,0,1-.637-.234A.834.834,0,0,1-24.395-10.7ZM-20.9-4.3a4.993,4.993,0,0,1,.488-2.234A3.643,3.643,0,0,1-19.055-8.07a3.7,3.7,0,0,1,1.988-.539,3.565,3.565,0,0,1,2.793,1.2,4.6,4.6,0,0,1,1.066,3.18v.1a5.036,5.036,0,0,1-.473,2.215A3.589,3.589,0,0,1-15.031-.391a3.743,3.743,0,0,1-2.02.547,3.556,3.556,0,0,1-2.785-1.2A4.575,4.575,0,0,1-20.9-4.2Zm1.453.172A3.616,3.616,0,0,0-18.8-1.875a2.088,2.088,0,0,0,1.746.852,2.075,2.075,0,0,0,1.75-.863A3.955,3.955,0,0,0-14.652-4.3a3.61,3.61,0,0,0-.66-2.254,2.1,2.1,0,0,0-1.754-.863,2.075,2.075,0,0,0-1.727.852A3.925,3.925,0,0,0-19.449-4.133ZM-6.473-2.242a1.064,1.064,0,0,0-.441-.91,4.249,4.249,0,0,0-1.539-.559A7.277,7.277,0,0,1-10.2-4.273a2.479,2.479,0,0,1-.953-.781,1.869,1.869,0,0,1-.309-1.078,2.193,2.193,0,0,1,.879-1.758,3.432,3.432,0,0,1,2.246-.719A3.532,3.532,0,0,1-6-7.867a2.357,2.357,0,0,1,.895,1.9H-6.559a1.3,1.3,0,0,0-.5-1.023,1.888,1.888,0,0,0-1.27-.43,1.976,1.976,0,0,0-1.234.344,1.082,1.082,0,0,0-.445.9.877.877,0,0,0,.414.789,5.1,5.1,0,0,0,1.5.508A7.8,7.8,0,0,1-6.348-4.3a2.558,2.558,0,0,1,1,.809,1.988,1.988,0,0,1,.324,1.152A2.163,2.163,0,0,1-5.934-.527,3.8,3.8,0,0,1-8.285.156a4.257,4.257,0,0,1-1.8-.359,2.922,2.922,0,0,1-1.223-1A2.42,2.42,0,0,1-11.746-2.6H-10.3a1.5,1.5,0,0,0,.582,1.152,2.258,2.258,0,0,0,1.434.426,2.331,2.331,0,0,0,1.316-.332A1.02,1.02,0,0,0-6.473-2.242ZM.465-4.3a4.952,4.952,0,0,1,.922-3.129A2.915,2.915,0,0,1,3.8-8.609,2.932,2.932,0,0,1,6.152-7.594V-12H7.6V0H6.27L6.2-.906A2.943,2.943,0,0,1,3.785.156a2.887,2.887,0,0,1-2.395-1.2A5.008,5.008,0,0,1,.465-4.187Zm1.445.164A3.749,3.749,0,0,0,2.5-1.883a1.92,1.92,0,0,0,1.641.813A2.108,2.108,0,0,0,6.152-2.3V-6.187a2.125,2.125,0,0,0-1.992-1.2,1.929,1.929,0,0,0-1.656.82A4.128,4.128,0,0,0,1.91-4.133ZM13.348.156a3.693,3.693,0,0,1-2.8-1.129,4.19,4.19,0,0,1-1.078-3.02v-.266A5.073,5.073,0,0,1,9.953-6.5,3.748,3.748,0,0,1,11.3-8.051a3.378,3.378,0,0,1,1.871-.559A3.166,3.166,0,0,1,15.73-7.523a4.7,4.7,0,0,1,.914,3.109v.6H10.918a3,3,0,0,0,.73,2.02,2.3,2.3,0,0,0,1.777.77,2.517,2.517,0,0,0,1.3-.312,3.259,3.259,0,0,0,.93-.828l.883.688A3.55,3.55,0,0,1,13.348.156Zm-.18-7.578a1.928,1.928,0,0,0-1.469.637A3.1,3.1,0,0,0,10.965-5H15.2v-.109a2.753,2.753,0,0,0-.594-1.707A1.815,1.815,0,0,0,13.168-7.422Zm16.25,3.289a5.062,5.062,0,0,1-.883,3.109A2.829,2.829,0,0,1,26.145.156,3.1,3.1,0,0,1,23.723-.82V3.25H22.277v-11.7H23.6l.07.938a2.977,2.977,0,0,1,2.453-1.094,2.882,2.882,0,0,1,2.41,1.148,5.117,5.117,0,0,1,.887,3.2ZM27.973-4.3a3.735,3.735,0,0,0-.609-2.258,1.963,1.963,0,0,0-1.672-.828,2.125,2.125,0,0,0-1.969,1.164V-2.18a2.129,2.129,0,0,0,1.984,1.156,1.954,1.954,0,0,0,1.652-.824A4.077,4.077,0,0,0,27.973-4.3Zm8.5,4.3a3.036,3.036,0,0,1-.2-.891A3.225,3.225,0,0,1,33.863.156a2.984,2.984,0,0,1-2.051-.707,2.287,2.287,0,0,1-.8-1.793,2.39,2.39,0,0,1,1-2.051,4.733,4.733,0,0,1,2.824-.73h1.406v-.664A1.623,1.623,0,0,0,35.793-7a1.821,1.821,0,0,0-1.336-.449,2.107,2.107,0,0,0-1.3.391,1.151,1.151,0,0,0-.523.945H31.184a2,2,0,0,1,.449-1.223,3.066,3.066,0,0,1,1.219-.934,4.1,4.1,0,0,1,1.691-.344,3.342,3.342,0,0,1,2.289.73,2.635,2.635,0,0,1,.859,2.012v3.891a4.757,4.757,0,0,0,.3,1.852V0Zm-2.4-1.1a2.54,2.54,0,0,0,1.289-.352,2.127,2.127,0,0,0,.883-.914V-4.1H35.113q-2.656,0-2.656,1.555a1.316,1.316,0,0,0,.453,1.063A1.742,1.742,0,0,0,34.074-1.1Zm5.539-3.2a4.968,4.968,0,0,1,.914-3.145,2.923,2.923,0,0,1,2.422-1.168,2.908,2.908,0,0,1,2.414,1.094l.07-.937h1.32V-.2a3.439,3.439,0,0,1-.973,2.586,3.589,3.589,0,0,1-2.613.945,4.348,4.348,0,0,1-1.789-.391,3.08,3.08,0,0,1-1.336-1.07L40.793,1a2.826,2.826,0,0,0,2.273,1.148,2.214,2.214,0,0,0,1.645-.594A2.269,2.269,0,0,0,45.3-.117V-.844a2.971,2.971,0,0,1-2.367,1,2.887,2.887,0,0,1-2.4-1.2A5.224,5.224,0,0,1,39.613-4.3Zm1.453.164a3.79,3.79,0,0,0,.586,2.246,1.9,1.9,0,0,0,1.641.816A2.117,2.117,0,0,0,45.3-2.312V-6.172a2.142,2.142,0,0,0-1.992-1.211,1.921,1.921,0,0,0-1.648.82A4.128,4.128,0,0,0,41.066-4.133ZM48.551-4.3a4.993,4.993,0,0,1,.488-2.234A3.643,3.643,0,0,1,50.4-8.07a3.7,3.7,0,0,1,1.988-.539,3.565,3.565,0,0,1,2.793,1.2,4.6,4.6,0,0,1,1.066,3.18v.1a5.036,5.036,0,0,1-.473,2.215A3.589,3.589,0,0,1,54.422-.391,3.743,3.743,0,0,1,52.4.156a3.556,3.556,0,0,1-2.785-1.2A4.575,4.575,0,0,1,48.551-4.2ZM50-4.133a3.616,3.616,0,0,0,.652,2.258,2.088,2.088,0,0,0,1.746.852,2.075,2.075,0,0,0,1.75-.863A3.955,3.955,0,0,0,54.8-4.3a3.61,3.61,0,0,0-.66-2.254,2.1,2.1,0,0,0-1.754-.863,2.075,2.075,0,0,0-1.727.852A3.925,3.925,0,0,0,50-4.133Z" transform="translate(-5864 -7283)" fill="#12263f"/>
        <path id="Trazado_606192" data-name="Trazado 606192" d="M-42.422-4.6h-2.672V0H-46.6V-11.375h3.766a4.457,4.457,0,0,1,2.957.875,3.148,3.148,0,0,1,1.035,2.547A3.062,3.062,0,0,1-39.418-6.1a3.428,3.428,0,0,1-1.6,1.18l2.672,4.828V0h-1.609Zm-2.672-1.227h2.3a2.6,2.6,0,0,0,1.777-.579,1.959,1.959,0,0,0,.66-1.55,2.062,2.062,0,0,0-.629-1.62,2.663,2.663,0,0,0-1.816-.571h-2.3ZM-33.461.156a3.693,3.693,0,0,1-2.8-1.129,4.19,4.19,0,0,1-1.078-3.02v-.266a5.073,5.073,0,0,1,.48-2.246,3.748,3.748,0,0,1,1.344-1.547,3.378,3.378,0,0,1,1.871-.559,3.166,3.166,0,0,1,2.563,1.086,4.7,4.7,0,0,1,.914,3.109v.6h-5.727a3,3,0,0,0,.73,2.02,2.3,2.3,0,0,0,1.777.77,2.517,2.517,0,0,0,1.3-.312,3.259,3.259,0,0,0,.93-.828l.883.688A3.55,3.55,0,0,1-33.461.156Zm-.18-7.578a1.928,1.928,0,0,0-1.469.637A3.1,3.1,0,0,0-35.844-5h4.234v-.109A2.753,2.753,0,0,0-32.2-6.816,1.815,1.815,0,0,0-33.641-7.422Zm8.539,6.4a2.082,2.082,0,0,0,1.352-.469,1.649,1.649,0,0,0,.641-1.172h1.367a2.621,2.621,0,0,1-.5,1.383,3.293,3.293,0,0,1-1.23,1.047A3.55,3.55,0,0,1-25.1.156,3.482,3.482,0,0,1-27.848-1a4.59,4.59,0,0,1-1.02-3.152v-.242a5.089,5.089,0,0,1,.453-2.2,3.451,3.451,0,0,1,1.3-1.492,3.7,3.7,0,0,1,2-.531,3.39,3.39,0,0,1,2.363.852,3.043,3.043,0,0,1,1,2.211h-1.367a1.992,1.992,0,0,0-.621-1.348,1.932,1.932,0,0,0-1.379-.527,2.023,2.023,0,0,0-1.707.793,3.724,3.724,0,0,0-.605,2.293v.273a3.65,3.65,0,0,0,.6,2.25A2.033,2.033,0,0,0-25.1-1.023Zm8.492,1.18a3.693,3.693,0,0,1-2.8-1.129,4.19,4.19,0,0,1-1.078-3.02v-.266A5.073,5.073,0,0,1-20-6.5,3.748,3.748,0,0,1-18.66-8.051a3.378,3.378,0,0,1,1.871-.559,3.166,3.166,0,0,1,2.563,1.086,4.7,4.7,0,0,1,.914,3.109v.6h-5.727a3,3,0,0,0,.73,2.02,2.3,2.3,0,0,0,1.777.77,2.517,2.517,0,0,0,1.3-.312,3.259,3.259,0,0,0,.93-.828l.883.688A3.55,3.55,0,0,1-16.609.156Zm-.18-7.578a1.928,1.928,0,0,0-1.469.637A3.1,3.1,0,0,0-18.992-5h4.234v-.109a2.753,2.753,0,0,0-.594-1.707A1.815,1.815,0,0,0-16.789-7.422ZM-4.5-4.133a5.062,5.062,0,0,1-.883,3.109A2.829,2.829,0,0,1-7.773.156,3.1,3.1,0,0,1-10.2-.82V3.25h-1.445v-11.7h1.32l.07.938A2.977,2.977,0,0,1-7.8-8.609a2.882,2.882,0,0,1,2.41,1.148,5.117,5.117,0,0,1,.887,3.2ZM-5.945-4.3a3.735,3.735,0,0,0-.609-2.258,1.963,1.963,0,0,0-1.672-.828A2.125,2.125,0,0,0-10.2-6.219V-2.18A2.129,2.129,0,0,0-8.211-1.023a1.954,1.954,0,0,0,1.652-.824A4.077,4.077,0,0,0-5.945-4.3ZM.727-1.023a2.082,2.082,0,0,0,1.352-.469,1.649,1.649,0,0,0,.641-1.172H4.086a2.621,2.621,0,0,1-.5,1.383A3.293,3.293,0,0,1,2.355-.234,3.55,3.55,0,0,1,.727.156,3.482,3.482,0,0,1-2.02-1a4.59,4.59,0,0,1-1.02-3.152v-.242a5.089,5.089,0,0,1,.453-2.2,3.451,3.451,0,0,1,1.3-1.492,3.7,3.7,0,0,1,2-.531,3.39,3.39,0,0,1,2.363.852,3.043,3.043,0,0,1,1,2.211H2.719A1.992,1.992,0,0,0,2.1-6.895,1.932,1.932,0,0,0,.719-7.422a2.023,2.023,0,0,0-1.707.793,3.724,3.724,0,0,0-.605,2.293v.273a3.65,3.65,0,0,0,.6,2.25A2.033,2.033,0,0,0,.727-1.023ZM7.281,0H5.836V-8.453H7.281ZM5.719-10.7a.863.863,0,0,1,.215-.594.807.807,0,0,1,.637-.242.819.819,0,0,1,.641.242.854.854,0,0,1,.219.594.826.826,0,0,1-.219.586.834.834,0,0,1-.641.234.821.821,0,0,1-.637-.234A.834.834,0,0,1,5.719-10.7ZM9.211-4.3A4.993,4.993,0,0,1,9.7-6.539,3.643,3.643,0,0,1,11.059-8.07a3.7,3.7,0,0,1,1.988-.539,3.565,3.565,0,0,1,2.793,1.2,4.6,4.6,0,0,1,1.066,3.18v.1a5.036,5.036,0,0,1-.473,2.215A3.589,3.589,0,0,1,15.082-.391a3.743,3.743,0,0,1-2.02.547,3.556,3.556,0,0,1-2.785-1.2A4.575,4.575,0,0,1,9.211-4.2Zm1.453.172a3.616,3.616,0,0,0,.652,2.258,2.088,2.088,0,0,0,1.746.852,2.075,2.075,0,0,0,1.75-.863A3.955,3.955,0,0,0,15.461-4.3a3.61,3.61,0,0,0-.66-2.254,2.1,2.1,0,0,0-1.754-.863,2.075,2.075,0,0,0-1.727.852A3.925,3.925,0,0,0,10.664-4.133ZM13.7-12h1.75L13.359-9.7l-1.164,0Zm6.383,3.547.047,1.063a3.08,3.08,0,0,1,2.531-1.219q2.68,0,2.7,3.023V0H23.922V-5.594A1.946,1.946,0,0,0,23.5-6.945a1.675,1.675,0,0,0-1.277-.437,2.086,2.086,0,0,0-1.234.375,2.546,2.546,0,0,0-.828.984V0H18.719V-8.453ZM31.156-4.3a4.952,4.952,0,0,1,.922-3.129,2.915,2.915,0,0,1,2.414-1.184,2.932,2.932,0,0,1,2.352,1.016V-12h1.445V0H36.961l-.07-.906A2.943,2.943,0,0,1,34.477.156a2.887,2.887,0,0,1-2.395-1.2,5.008,5.008,0,0,1-.926-3.141Zm1.445.164a3.749,3.749,0,0,0,.594,2.25,1.92,1.92,0,0,0,1.641.813A2.108,2.108,0,0,0,36.844-2.3V-6.187a2.125,2.125,0,0,0-1.992-1.2,1.929,1.929,0,0,0-1.656.82A4.128,4.128,0,0,0,32.6-4.133ZM44.039.156a3.693,3.693,0,0,1-2.8-1.129,4.19,4.19,0,0,1-1.078-3.02v-.266a5.073,5.073,0,0,1,.48-2.246,3.748,3.748,0,0,1,1.344-1.547,3.378,3.378,0,0,1,1.871-.559,3.166,3.166,0,0,1,2.563,1.086,4.7,4.7,0,0,1,.914,3.109v.6H41.609a3,3,0,0,0,.73,2.02,2.3,2.3,0,0,0,1.777.77,2.517,2.517,0,0,0,1.3-.312,3.259,3.259,0,0,0,.93-.828l.883.688A3.55,3.55,0,0,1,44.039.156Zm-.18-7.578a1.928,1.928,0,0,0-1.469.637A3.1,3.1,0,0,0,41.656-5h4.234v-.109A2.753,2.753,0,0,0,45.3-6.816,1.815,1.815,0,0,0,43.859-7.422Z" transform="translate(-5809 -7215)" fill="#12263f"/>
        <path id="Trazado_606193" data-name="Trazado 606193" d="M-23.652-4.133a5.062,5.062,0,0,1-.883,3.109A2.829,2.829,0,0,1-26.926.156,3.1,3.1,0,0,1-29.348-.82V3.25h-1.445v-11.7h1.32l.07.938a2.977,2.977,0,0,1,2.453-1.094,2.882,2.882,0,0,1,2.41,1.148,5.117,5.117,0,0,1,.887,3.2ZM-25.1-4.3a3.735,3.735,0,0,0-.609-2.258,1.963,1.963,0,0,0-1.672-.828,2.125,2.125,0,0,0-1.969,1.164V-2.18a2.129,2.129,0,0,0,1.984,1.156,1.954,1.954,0,0,0,1.652-.824A4.077,4.077,0,0,0-25.1-4.3Zm7.367-2.859a4.331,4.331,0,0,0-.711-.055A1.9,1.9,0,0,0-20.371-6V0h-1.445V-8.453h1.406l.023.977a2.251,2.251,0,0,1,2.016-1.133,1.477,1.477,0,0,1,.641.109Zm.789,2.852a4.993,4.993,0,0,1,.488-2.234A3.643,3.643,0,0,1-15.094-8.07a3.7,3.7,0,0,1,1.988-.539,3.565,3.565,0,0,1,2.793,1.2,4.6,4.6,0,0,1,1.066,3.18v.1a5.036,5.036,0,0,1-.473,2.215A3.589,3.589,0,0,1-11.07-.391a3.743,3.743,0,0,1-2.02.547,3.556,3.556,0,0,1-2.785-1.2A4.575,4.575,0,0,1-16.941-4.2Zm1.453.172a3.616,3.616,0,0,0,.652,2.258,2.088,2.088,0,0,0,1.746.852,2.075,2.075,0,0,0,1.75-.863A3.955,3.955,0,0,0-10.691-4.3a3.61,3.61,0,0,0-.66-2.254,2.1,2.1,0,0,0-1.754-.863,2.075,2.075,0,0,0-1.727.852A3.925,3.925,0,0,0-15.488-4.133Zm7.7-.164a4.952,4.952,0,0,1,.922-3.129A2.915,2.915,0,0,1-4.449-8.609,2.932,2.932,0,0,1-2.1-7.594V-12H-.652V0H-1.98l-.07-.906A2.943,2.943,0,0,1-4.465.156a2.887,2.887,0,0,1-2.395-1.2,5.008,5.008,0,0,1-.926-3.141Zm1.445.164a3.749,3.749,0,0,0,.594,2.25,1.92,1.92,0,0,0,1.641.813A2.108,2.108,0,0,0-2.1-2.3V-6.187a2.125,2.125,0,0,0-1.992-1.2,1.929,1.929,0,0,0-1.656.82A4.128,4.128,0,0,0-6.34-4.133ZM6.809-.836A3.07,3.07,0,0,1,4.332.156,2.628,2.628,0,0,1,2.273-.629a3.4,3.4,0,0,1-.715-2.324v-5.5H3v5.461Q3-1.07,4.566-1.07A2.163,2.163,0,0,0,6.77-2.3V-8.453H8.215V0H6.84ZM13.8-1.023a2.082,2.082,0,0,0,1.352-.469,1.649,1.649,0,0,0,.641-1.172H17.16a2.621,2.621,0,0,1-.5,1.383A3.293,3.293,0,0,1,15.43-.234,3.55,3.55,0,0,1,13.8.156,3.482,3.482,0,0,1,11.055-1a4.59,4.59,0,0,1-1.02-3.152v-.242a5.089,5.089,0,0,1,.453-2.2,3.451,3.451,0,0,1,1.3-1.492,3.7,3.7,0,0,1,2-.531,3.39,3.39,0,0,1,2.363.852,3.043,3.043,0,0,1,1,2.211H15.793a1.992,1.992,0,0,0-.621-1.348,1.932,1.932,0,0,0-1.379-.527,2.023,2.023,0,0,0-1.707.793,3.724,3.724,0,0,0-.605,2.293v.273a3.65,3.65,0,0,0,.6,2.25A2.033,2.033,0,0,0,13.8-1.023ZM20.746-10.5v2.047h1.578v1.117H20.746v5.249a1.173,1.173,0,0,0,.211.763.888.888,0,0,0,.719.254,3.5,3.5,0,0,0,.688-.094V0a4.215,4.215,0,0,1-1.109.155A1.8,1.8,0,0,1,19.793-.43,2.517,2.517,0,0,1,19.3-2.094V-7.336H17.762V-8.453H19.3V-10.5Zm2.727,6.2a4.993,4.993,0,0,1,.488-2.234A3.643,3.643,0,0,1,25.32-8.07a3.7,3.7,0,0,1,1.988-.539,3.565,3.565,0,0,1,2.793,1.2,4.6,4.6,0,0,1,1.066,3.18v.1A5.036,5.036,0,0,1,30.7-1.918,3.589,3.589,0,0,1,29.344-.391a3.743,3.743,0,0,1-2.02.547,3.556,3.556,0,0,1-2.785-1.2A4.575,4.575,0,0,1,23.473-4.2Zm1.453.172a3.616,3.616,0,0,0,.652,2.258,2.088,2.088,0,0,0,1.746.852,2.075,2.075,0,0,0,1.75-.863A3.955,3.955,0,0,0,29.723-4.3a3.61,3.61,0,0,0-.66-2.254,2.1,2.1,0,0,0-1.754-.863,2.075,2.075,0,0,0-1.727.852A3.925,3.925,0,0,0,24.926-4.133Z" transform="translate(-5809 -7196)" fill="#12263f"/>
        <path id="Trazado_606194" data-name="Trazado 606194" d="M-40.066,0V-11.375h3.211a5.169,5.169,0,0,1,2.625.656,4.438,4.438,0,0,1,1.762,1.867A6.078,6.078,0,0,1-31.84-6.07v.727a6.1,6.1,0,0,1-.621,2.82A4.369,4.369,0,0,1-34.234-.664,5.5,5.5,0,0,1-36.918,0Zm1.5-10.148v8.922h1.578a3.434,3.434,0,0,0,2.7-1.079,4.458,4.458,0,0,0,.965-3.073v-.665a4.529,4.529,0,0,0-.91-3.014,3.239,3.239,0,0,0-2.582-1.091ZM-26.293.156a3.693,3.693,0,0,1-2.8-1.129,4.19,4.19,0,0,1-1.078-3.02v-.266a5.073,5.073,0,0,1,.48-2.246,3.748,3.748,0,0,1,1.344-1.547,3.378,3.378,0,0,1,1.871-.559A3.166,3.166,0,0,1-23.91-7.523,4.7,4.7,0,0,1-23-4.414v.6h-5.727a3,3,0,0,0,.73,2.02,2.3,2.3,0,0,0,1.777.77,2.517,2.517,0,0,0,1.3-.312,3.259,3.259,0,0,0,.93-.828l.883.688A3.55,3.55,0,0,1-26.293.156Zm-.18-7.578a1.928,1.928,0,0,0-1.469.637A3.1,3.1,0,0,0-28.676-5h4.234v-.109a2.753,2.753,0,0,0-.594-1.707A1.815,1.815,0,0,0-26.473-7.422Zm8.539,6.4a2.082,2.082,0,0,0,1.352-.469,1.649,1.649,0,0,0,.641-1.172h1.367a2.621,2.621,0,0,1-.5,1.383A3.293,3.293,0,0,1-16.3-.234a3.55,3.55,0,0,1-1.629.391A3.482,3.482,0,0,1-20.68-1,4.59,4.59,0,0,1-21.7-4.148v-.242a5.089,5.089,0,0,1,.453-2.2,3.451,3.451,0,0,1,1.3-1.492,3.7,3.7,0,0,1,2-.531,3.39,3.39,0,0,1,2.363.852,3.043,3.043,0,0,1,1,2.211h-1.367a1.992,1.992,0,0,0-.621-1.348,1.932,1.932,0,0,0-1.379-.527,2.023,2.023,0,0,0-1.707.793,3.724,3.724,0,0,0-.605,2.293v.273a3.65,3.65,0,0,0,.6,2.25A2.033,2.033,0,0,0-17.934-1.023ZM-11.379,0h-1.445V-8.453h1.445Zm-1.562-10.7a.863.863,0,0,1,.215-.594.807.807,0,0,1,.637-.242.819.819,0,0,1,.641.242.854.854,0,0,1,.219.594.826.826,0,0,1-.219.586.834.834,0,0,1-.641.234.821.821,0,0,1-.637-.234A.834.834,0,0,1-12.941-10.7Zm8.8,8.453a1.064,1.064,0,0,0-.441-.91,4.249,4.249,0,0,0-1.539-.559,7.277,7.277,0,0,1-1.742-.562,2.479,2.479,0,0,1-.953-.781,1.869,1.869,0,0,1-.309-1.078A2.193,2.193,0,0,1-8.25-7.891,3.432,3.432,0,0,1-6-8.609a3.532,3.532,0,0,1,2.332.742,2.357,2.357,0,0,1,.895,1.9H-4.23a1.3,1.3,0,0,0-.5-1.023A1.888,1.888,0,0,0-6-7.422a1.976,1.976,0,0,0-1.234.344,1.082,1.082,0,0,0-.445.9.877.877,0,0,0,.414.789,5.1,5.1,0,0,0,1.5.508A7.8,7.8,0,0,1-4.02-4.3a2.558,2.558,0,0,1,1,.809A1.988,1.988,0,0,1-2.7-2.344,2.163,2.163,0,0,1-3.605-.527,3.8,3.8,0,0,1-5.957.156,4.257,4.257,0,0,1-7.754-.2a2.922,2.922,0,0,1-1.223-1A2.42,2.42,0,0,1-9.418-2.6h1.445a1.5,1.5,0,0,0,.582,1.152,2.258,2.258,0,0,0,1.434.426,2.331,2.331,0,0,0,1.316-.332A1.02,1.02,0,0,0-4.145-2.242ZM.754,0H-.691V-8.453H.754ZM-.809-10.7a.863.863,0,0,1,.215-.594.807.807,0,0,1,.637-.242.819.819,0,0,1,.641.242A.854.854,0,0,1,.9-10.7a.826.826,0,0,1-.219.586.834.834,0,0,1-.641.234.821.821,0,0,1-.637-.234A.834.834,0,0,1-.809-10.7ZM2.684-4.3a4.993,4.993,0,0,1,.488-2.234A3.643,3.643,0,0,1,4.531-8.07,3.7,3.7,0,0,1,6.52-8.609a3.565,3.565,0,0,1,2.793,1.2,4.6,4.6,0,0,1,1.066,3.18v.1a5.036,5.036,0,0,1-.473,2.215A3.589,3.589,0,0,1,8.555-.391a3.743,3.743,0,0,1-2.02.547,3.556,3.556,0,0,1-2.785-1.2A4.575,4.575,0,0,1,2.684-4.2Zm1.453.172a3.616,3.616,0,0,0,.652,2.258,2.088,2.088,0,0,0,1.746.852,2.075,2.075,0,0,0,1.75-.863A3.955,3.955,0,0,0,8.934-4.3a3.61,3.61,0,0,0-.66-2.254A2.1,2.1,0,0,0,6.52-7.422a2.075,2.075,0,0,0-1.727.852A3.925,3.925,0,0,0,4.137-4.133ZM7.176-12h1.75L6.832-9.7l-1.164,0Zm6.383,3.547.047,1.063a3.08,3.08,0,0,1,2.531-1.219q2.68,0,2.7,3.023V0H17.395V-5.594a1.946,1.946,0,0,0-.418-1.352A1.675,1.675,0,0,0,15.7-7.383a2.086,2.086,0,0,0-1.234.375,2.546,2.546,0,0,0-.828.984V0H12.191V-8.453ZM24.629-4.3a4.952,4.952,0,0,1,.922-3.129,2.915,2.915,0,0,1,2.414-1.184,2.932,2.932,0,0,1,2.352,1.016V-12h1.445V0H30.434l-.07-.906A2.943,2.943,0,0,1,27.949.156a2.887,2.887,0,0,1-2.395-1.2,5.008,5.008,0,0,1-.926-3.141Zm1.445.164a3.749,3.749,0,0,0,.594,2.25,1.92,1.92,0,0,0,1.641.813A2.108,2.108,0,0,0,30.316-2.3V-6.187a2.125,2.125,0,0,0-1.992-1.2,1.929,1.929,0,0,0-1.656.82A4.128,4.128,0,0,0,26.074-4.133ZM37.512.156a3.693,3.693,0,0,1-2.8-1.129,4.19,4.19,0,0,1-1.078-3.02v-.266a5.073,5.073,0,0,1,.48-2.246,3.748,3.748,0,0,1,1.344-1.547,3.378,3.378,0,0,1,1.871-.559,3.166,3.166,0,0,1,2.563,1.086,4.7,4.7,0,0,1,.914,3.109v.6H35.082a3,3,0,0,0,.73,2.02,2.3,2.3,0,0,0,1.777.77,2.517,2.517,0,0,0,1.3-.312,3.259,3.259,0,0,0,.93-.828l.883.688A3.55,3.55,0,0,1,37.512.156Zm-.18-7.578a1.928,1.928,0,0,0-1.469.637A3.1,3.1,0,0,0,35.129-5h4.234v-.109a2.753,2.753,0,0,0-.594-1.707A1.815,1.815,0,0,0,37.332-7.422Z" transform="translate(-5714 -7157)" fill="#12263f"/>
        <path id="Trazado_606195" data-name="Trazado 606195" d="M-22.668-1.023a2.082,2.082,0,0,0,1.352-.469,1.649,1.649,0,0,0,.641-1.172h1.367a2.621,2.621,0,0,1-.5,1.383,3.293,3.293,0,0,1-1.23,1.047,3.55,3.55,0,0,1-1.629.391A3.482,3.482,0,0,1-25.414-1a4.59,4.59,0,0,1-1.02-3.152v-.242a5.089,5.089,0,0,1,.453-2.2,3.451,3.451,0,0,1,1.3-1.492,3.7,3.7,0,0,1,2-.531,3.39,3.39,0,0,1,2.363.852,3.043,3.043,0,0,1,1,2.211h-1.367A1.992,1.992,0,0,0-21.3-6.895a1.932,1.932,0,0,0-1.379-.527,2.023,2.023,0,0,0-1.707.793,3.724,3.724,0,0,0-.605,2.293v.273a3.65,3.65,0,0,0,.6,2.25A2.033,2.033,0,0,0-22.668-1.023Zm4.6-3.281a4.993,4.993,0,0,1,.488-2.234A3.643,3.643,0,0,1-16.219-8.07a3.7,3.7,0,0,1,1.988-.539,3.565,3.565,0,0,1,2.793,1.2,4.6,4.6,0,0,1,1.066,3.18v.1a5.036,5.036,0,0,1-.473,2.215A3.589,3.589,0,0,1-12.2-.391a3.743,3.743,0,0,1-2.02.547A3.556,3.556,0,0,1-17-1.039,4.575,4.575,0,0,1-18.066-4.2Zm1.453.172a3.616,3.616,0,0,0,.652,2.258,2.088,2.088,0,0,0,1.746.852,2.075,2.075,0,0,0,1.75-.863A3.955,3.955,0,0,0-11.816-4.3a3.61,3.61,0,0,0-.66-2.254,2.1,2.1,0,0,0-1.754-.863,2.075,2.075,0,0,0-1.727.852A3.925,3.925,0,0,0-16.613-4.133ZM-7.2-8.453l.039.938A3.122,3.122,0,0,1-4.652-8.609,2.417,2.417,0,0,1-2.238-7.25a3.2,3.2,0,0,1,1.1-.984,3.242,3.242,0,0,1,1.6-.375q2.781,0,2.828,2.945V0H1.84V-5.578a1.941,1.941,0,0,0-.414-1.355A1.823,1.823,0,0,0,.035-7.383,1.916,1.916,0,0,0-1.3-6.9a1.949,1.949,0,0,0-.617,1.293V0H-3.371V-5.539a1.613,1.613,0,0,0-1.8-1.844A1.934,1.934,0,0,0-7.121-6.172V0H-8.566V-8.453Zm19.8,4.32a5.062,5.062,0,0,1-.883,3.109A2.829,2.829,0,0,1,9.332.156,3.1,3.1,0,0,1,6.91-.82V3.25H5.465v-11.7h1.32l.07.938A2.977,2.977,0,0,1,9.309-8.609a2.882,2.882,0,0,1,2.41,1.148,5.117,5.117,0,0,1,.887,3.2ZM11.16-4.3a3.735,3.735,0,0,0-.609-2.258,1.963,1.963,0,0,0-1.672-.828A2.125,2.125,0,0,0,6.91-6.219V-2.18A2.129,2.129,0,0,0,8.895-1.023a1.954,1.954,0,0,0,1.652-.824A4.077,4.077,0,0,0,11.16-4.3Zm7.367-2.859a4.331,4.331,0,0,0-.711-.055A1.9,1.9,0,0,0,15.887-6V0H14.441V-8.453h1.406l.023.977a2.251,2.251,0,0,1,2.016-1.133,1.477,1.477,0,0,1,.641.109ZM24.762,0a3.036,3.036,0,0,1-.2-.891A3.225,3.225,0,0,1,22.152.156,2.984,2.984,0,0,1,20.1-.551a2.287,2.287,0,0,1-.8-1.793,2.39,2.39,0,0,1,1-2.051,4.733,4.733,0,0,1,2.824-.73h1.406v-.664A1.623,1.623,0,0,0,24.082-7a1.821,1.821,0,0,0-1.336-.449,2.108,2.108,0,0,0-1.3.391,1.151,1.151,0,0,0-.523.945H19.473a2,2,0,0,1,.449-1.223,3.066,3.066,0,0,1,1.219-.934,4.1,4.1,0,0,1,1.691-.344,3.342,3.342,0,0,1,2.289.73,2.635,2.635,0,0,1,.859,2.012v3.891a4.757,4.757,0,0,0,.3,1.852V0Zm-2.4-1.1a2.54,2.54,0,0,0,1.289-.352,2.127,2.127,0,0,0,.883-.914V-4.1H23.4q-2.656,0-2.656,1.555A1.316,1.316,0,0,0,21.2-1.484,1.742,1.742,0,0,0,22.363-1.1Z" transform="translate(-5714 -7141)" fill="#12263f"/>
        <path id="Trazado_606188" data-name="Trazado 606188" d="M-35.75-3.609A4.185,4.185,0,0,1-37.082-.824a4.365,4.365,0,0,1-2.98.98,4.008,4.008,0,0,1-3.23-1.445,5.815,5.815,0,0,1-1.215-3.867V-6.25a6.481,6.481,0,0,1,.566-2.789,4.231,4.231,0,0,1,1.605-1.848,4.47,4.47,0,0,1,2.406-.645,4.11,4.11,0,0,1,2.906,1.012,4.235,4.235,0,0,1,1.273,2.8h-1.508a3.268,3.268,0,0,0-.848-1.975A2.565,2.565,0,0,0-39.93-10.3a2.684,2.684,0,0,0-2.254,1.063A4.882,4.882,0,0,0-43-6.215v1.1a5.018,5.018,0,0,0,.773,2.948A2.5,2.5,0,0,0-40.062-1.07a2.887,2.887,0,0,0,1.918-.566,3.143,3.143,0,0,0,.887-1.973Zm1.438-.7a4.993,4.993,0,0,1,.488-2.234A3.643,3.643,0,0,1-32.465-8.07a3.7,3.7,0,0,1,1.988-.539,3.565,3.565,0,0,1,2.793,1.2,4.6,4.6,0,0,1,1.066,3.18v.1a5.036,5.036,0,0,1-.473,2.215A3.589,3.589,0,0,1-28.441-.391a3.743,3.743,0,0,1-2.02.547,3.556,3.556,0,0,1-2.785-1.2A4.575,4.575,0,0,1-34.312-4.2Zm1.453.172a3.616,3.616,0,0,0,.652,2.258,2.088,2.088,0,0,0,1.746.852,2.075,2.075,0,0,0,1.75-.863A3.955,3.955,0,0,0-28.062-4.3a3.61,3.61,0,0,0-.66-2.254,2.1,2.1,0,0,0-1.754-.863A2.075,2.075,0,0,0-32.2-6.57,3.925,3.925,0,0,0-32.859-4.133Zm9.414-4.32.039.938A3.122,3.122,0,0,1-20.9-8.609,2.417,2.417,0,0,1-18.484-7.25a3.2,3.2,0,0,1,1.1-.984,3.242,3.242,0,0,1,1.6-.375q2.781,0,2.828,2.945V0h-1.445V-5.578a1.941,1.941,0,0,0-.414-1.355,1.823,1.823,0,0,0-1.391-.449,1.916,1.916,0,0,0-1.336.48,1.949,1.949,0,0,0-.617,1.293V0h-1.453V-5.539a1.613,1.613,0,0,0-1.8-1.844,1.934,1.934,0,0,0-1.945,1.211V0h-1.445V-8.453Zm19.8,4.32a5.062,5.062,0,0,1-.883,3.109A2.829,2.829,0,0,1-6.914.156,3.1,3.1,0,0,1-9.336-.82V3.25h-1.445v-11.7h1.32l.07.938A2.977,2.977,0,0,1-6.937-8.609a2.882,2.882,0,0,1,2.41,1.148,5.117,5.117,0,0,1,.887,3.2ZM-5.086-4.3A3.735,3.735,0,0,0-5.7-6.555a1.963,1.963,0,0,0-1.672-.828A2.125,2.125,0,0,0-9.336-6.219V-2.18A2.129,2.129,0,0,0-7.352-1.023,1.954,1.954,0,0,0-5.7-1.848,4.077,4.077,0,0,0-5.086-4.3ZM3.414,0a3.036,3.036,0,0,1-.2-.891A3.225,3.225,0,0,1,.8.156,2.984,2.984,0,0,1-1.246-.551a2.287,2.287,0,0,1-.8-1.793,2.39,2.39,0,0,1,1-2.051,4.733,4.733,0,0,1,2.824-.73H3.188v-.664A1.623,1.623,0,0,0,2.734-7,1.821,1.821,0,0,0,1.4-7.445a2.107,2.107,0,0,0-1.3.391,1.151,1.151,0,0,0-.523.945H-1.875a2,2,0,0,1,.449-1.223A3.066,3.066,0,0,1-.207-8.266a4.1,4.1,0,0,1,1.691-.344,3.342,3.342,0,0,1,2.289.73,2.635,2.635,0,0,1,.859,2.012v3.891a4.757,4.757,0,0,0,.3,1.852V0Zm-2.4-1.1A2.54,2.54,0,0,0,2.3-1.453a2.127,2.127,0,0,0,.883-.914V-4.1H2.055Q-.6-4.1-.6-2.547A1.316,1.316,0,0,0-.148-1.484,1.742,1.742,0,0,0,1.016-1.1Zm9.969-6.055a4.331,4.331,0,0,0-.711-.055A1.9,1.9,0,0,0,8.344-6V0H6.9V-8.453H8.3l.023.977a2.251,2.251,0,0,1,2.016-1.133,1.477,1.477,0,0,1,.641.109ZM17.219,0a3.036,3.036,0,0,1-.2-.891A3.225,3.225,0,0,1,14.609.156a2.984,2.984,0,0,1-2.051-.707,2.287,2.287,0,0,1-.8-1.793,2.39,2.39,0,0,1,1-2.051,4.733,4.733,0,0,1,2.824-.73h1.406v-.664A1.623,1.623,0,0,0,16.539-7,1.821,1.821,0,0,0,15.2-7.445a2.107,2.107,0,0,0-1.3.391,1.151,1.151,0,0,0-.523.945H11.93a2,2,0,0,1,.449-1.223A3.066,3.066,0,0,1,13.6-8.266a4.1,4.1,0,0,1,1.691-.344,3.342,3.342,0,0,1,2.289.73,2.635,2.635,0,0,1,.859,2.012v3.891a4.757,4.757,0,0,0,.3,1.852V0Zm-2.4-1.1a2.54,2.54,0,0,0,1.289-.352,2.127,2.127,0,0,0,.883-.914V-4.1H15.859Q13.2-4.1,13.2-2.547a1.316,1.316,0,0,0,.453,1.063A1.742,1.742,0,0,0,14.82-1.1Zm11.2-7.352.039.938A3.122,3.122,0,0,1,28.57-8.609,2.417,2.417,0,0,1,30.984-7.25a3.2,3.2,0,0,1,1.1-.984,3.242,3.242,0,0,1,1.6-.375q2.781,0,2.828,2.945V0H35.063V-5.578a1.941,1.941,0,0,0-.414-1.355,1.823,1.823,0,0,0-1.391-.449,1.917,1.917,0,0,0-1.336.48A1.949,1.949,0,0,0,31.3-5.609V0H29.852V-5.539a1.613,1.613,0,0,0-1.8-1.844A1.934,1.934,0,0,0,26.1-6.172V0H24.656V-8.453ZM40.258,0H38.813V-8.453h1.445ZM38.7-10.7a.863.863,0,0,1,.215-.594.807.807,0,0,1,.637-.242.819.819,0,0,1,.641.242.854.854,0,0,1,.219.594.826.826,0,0,1-.219.586.834.834,0,0,1-.641.234.821.821,0,0,1-.637-.234A.834.834,0,0,1,38.7-10.7Z" transform="translate(-6093 -7159)" fill="#12263f"/>
        <path id="Trazado_606189" data-name="Trazado 606189" d="M-23.652-4.133a5.062,5.062,0,0,1-.883,3.109A2.829,2.829,0,0,1-26.926.156,3.1,3.1,0,0,1-29.348-.82V3.25h-1.445v-11.7h1.32l.07.938a2.977,2.977,0,0,1,2.453-1.094,2.882,2.882,0,0,1,2.41,1.148,5.117,5.117,0,0,1,.887,3.2ZM-25.1-4.3a3.735,3.735,0,0,0-.609-2.258,1.963,1.963,0,0,0-1.672-.828,2.125,2.125,0,0,0-1.969,1.164V-2.18a2.129,2.129,0,0,0,1.984,1.156,1.954,1.954,0,0,0,1.652-.824A4.077,4.077,0,0,0-25.1-4.3Zm7.367-2.859a4.331,4.331,0,0,0-.711-.055A1.9,1.9,0,0,0-20.371-6V0h-1.445V-8.453h1.406l.023.977a2.251,2.251,0,0,1,2.016-1.133,1.477,1.477,0,0,1,.641.109Zm.789,2.852a4.993,4.993,0,0,1,.488-2.234A3.643,3.643,0,0,1-15.094-8.07a3.7,3.7,0,0,1,1.988-.539,3.565,3.565,0,0,1,2.793,1.2,4.6,4.6,0,0,1,1.066,3.18v.1a5.036,5.036,0,0,1-.473,2.215A3.589,3.589,0,0,1-11.07-.391a3.743,3.743,0,0,1-2.02.547,3.556,3.556,0,0,1-2.785-1.2A4.575,4.575,0,0,1-16.941-4.2Zm1.453.172a3.616,3.616,0,0,0,.652,2.258,2.088,2.088,0,0,0,1.746.852,2.075,2.075,0,0,0,1.75-.863A3.955,3.955,0,0,0-10.691-4.3a3.61,3.61,0,0,0-.66-2.254,2.1,2.1,0,0,0-1.754-.863,2.075,2.075,0,0,0-1.727.852A3.925,3.925,0,0,0-15.488-4.133Zm7.7-.164a4.952,4.952,0,0,1,.922-3.129A2.915,2.915,0,0,1-4.449-8.609,2.932,2.932,0,0,1-2.1-7.594V-12H-.652V0H-1.98l-.07-.906A2.943,2.943,0,0,1-4.465.156a2.887,2.887,0,0,1-2.395-1.2,5.008,5.008,0,0,1-.926-3.141Zm1.445.164a3.749,3.749,0,0,0,.594,2.25,1.92,1.92,0,0,0,1.641.813A2.108,2.108,0,0,0-2.1-2.3V-6.187a2.125,2.125,0,0,0-1.992-1.2,1.929,1.929,0,0,0-1.656.82A4.128,4.128,0,0,0-6.34-4.133ZM6.809-.836A3.07,3.07,0,0,1,4.332.156,2.628,2.628,0,0,1,2.273-.629a3.4,3.4,0,0,1-.715-2.324v-5.5H3v5.461Q3-1.07,4.566-1.07A2.163,2.163,0,0,0,6.77-2.3V-8.453H8.215V0H6.84ZM13.8-1.023a2.082,2.082,0,0,0,1.352-.469,1.649,1.649,0,0,0,.641-1.172H17.16a2.621,2.621,0,0,1-.5,1.383A3.293,3.293,0,0,1,15.43-.234,3.55,3.55,0,0,1,13.8.156,3.482,3.482,0,0,1,11.055-1a4.59,4.59,0,0,1-1.02-3.152v-.242a5.089,5.089,0,0,1,.453-2.2,3.451,3.451,0,0,1,1.3-1.492,3.7,3.7,0,0,1,2-.531,3.39,3.39,0,0,1,2.363.852,3.043,3.043,0,0,1,1,2.211H15.793a1.992,1.992,0,0,0-.621-1.348,1.932,1.932,0,0,0-1.379-.527,2.023,2.023,0,0,0-1.707.793,3.724,3.724,0,0,0-.605,2.293v.273a3.65,3.65,0,0,0,.6,2.25A2.033,2.033,0,0,0,13.8-1.023ZM20.746-10.5v2.047h1.578v1.117H20.746v5.249a1.173,1.173,0,0,0,.211.763.888.888,0,0,0,.719.254,3.5,3.5,0,0,0,.688-.094V0a4.215,4.215,0,0,1-1.109.155A1.8,1.8,0,0,1,19.793-.43,2.517,2.517,0,0,1,19.3-2.094V-7.336H17.762V-8.453H19.3V-10.5Zm2.727,6.2a4.993,4.993,0,0,1,.488-2.234A3.643,3.643,0,0,1,25.32-8.07a3.7,3.7,0,0,1,1.988-.539,3.565,3.565,0,0,1,2.793,1.2,4.6,4.6,0,0,1,1.066,3.18v.1A5.036,5.036,0,0,1,30.7-1.918,3.589,3.589,0,0,1,29.344-.391a3.743,3.743,0,0,1-2.02.547,3.556,3.556,0,0,1-2.785-1.2A4.575,4.575,0,0,1,23.473-4.2Zm1.453.172a3.616,3.616,0,0,0,.652,2.258,2.088,2.088,0,0,0,1.746.852,2.075,2.075,0,0,0,1.75-.863A3.955,3.955,0,0,0,29.723-4.3a3.61,3.61,0,0,0-.66-2.254,2.1,2.1,0,0,0-1.754-.863,2.075,2.075,0,0,0-1.727.852A3.925,3.925,0,0,0,24.926-4.133Z" transform="translate(-6093 -7140)" fill="#12263f"/>
      </g>
    </g>
  </g>
</svg>
