<svg id="Grupo_1015251" data-name="Grupo 1015251" xmlns="http://www.w3.org/2000/svg" xmlns:xlink="http://www.w3.org/1999/xlink" width="286.79" height="155.042" viewBox="0 0 286.79 155.042">
  <defs>
    <clipPath id="clip-path">
      <rect id="Rectángulo_345713" data-name="Rectángulo 345713" width="286.79" height="155.042" fill="none"/>
    </clipPath>
  </defs>
  <rect id="Rectángulo_345703" data-name="Rectángulo 345703" width="25.098" height="8.608" transform="translate(66.348 23.049)" fill="#fcfcfc"/>
  <rect id="Rectángulo_345704" data-name="Rectángulo 345704" width="25.098" height="8.608" transform="translate(66.348 35.75)" fill="#fcfcfc"/>
  <rect id="Rectángulo_345705" data-name="Rectángulo 345705" width="25.098" height="8.608" transform="translate(66.348 48.449)" fill="#fcfcfc"/>
  <rect id="Rectángulo_345706" data-name="Rectángulo 345706" width="60.231" height="60.232" transform="translate(180.732 11.892)" fill="#33ece0"/>
  <g id="Grupo_1015067" data-name="Grupo 1015067">
    <g id="Grupo_1015066" data-name="Grupo 1015066" clip-path="url(#clip-path)">
      <path id="Trazado_605309" data-name="Trazado 605309" d="M83.258,119.715H5.982a5.885,5.885,0,0,1-5.868-5.868V59.666A5.885,5.885,0,0,1,5.982,53.8H83.258a5.886,5.886,0,0,1,5.868,5.868v54.18a5.886,5.886,0,0,1-5.868,5.868" transform="translate(0.016 7.563)" fill="#fff"/>
      <path id="Trazado_605310" data-name="Trazado 605310" d="M119.261,77.337s-8.357.2-14.013,5.033a58.561,58.561,0,0,0-14.326,18.588c-3.389,7.077-6.376,12.529-6.006,18.824S88.974,130.3,95.01,131.95a73.416,73.416,0,0,0,11.19,2.14l-.131,9.526h42.355l-.382-19.051a4.471,4.471,0,0,0,3.141-1.309c1.418-1.405.768-5.685.768-5.685s5.357,3.772,9.938,3.388,7.635-3.738,8.267-6.079a43.7,43.7,0,0,0,1.291-11.759c-.04-5.662-.594-17.9-.594-17.9s-.949-1.979-7.377-2.286-7.989,1.761-7.989,1.761l-.156,4.137s-1.926-4.395-4.955-6.382-8.386-4.933-13.954-4.976l-17.16-.135" transform="translate(11.934 10.873)" fill="#1a1a1a"/>
      <path id="Trazado_605311" data-name="Trazado 605311" d="M135,122.615h10.718a4.573,4.573,0,0,0,3.142-1.176c1.264-1.265.766-4.238.766-4.238l.078-23.568a3.364,3.364,0,0,0-1-2.407,3.807,3.807,0,0,0-2.35-.968H105.3s-2.378-.089-3.259,1.174a4.063,4.063,0,0,0-.557,2.847l-.058,20.994s10.976,2.31,16.406,2.369c0,0,1-.293,1.394.352s0,.161,0,.161,1.717-.66,1.893-2.068.029-5.248,1.849-5.295,2.193,2.507,2.183,4.532a17.111,17.111,0,0,1-.95,4.636s-.287,1.106,1.338,1.551,6.234,1.468,9.462,1.1" transform="translate(14.259 12.689)" fill="#bcbcbc"/>
      <path id="Trazado_605312" data-name="Trazado 605312" d="M178.332,96.75a28.607,28.607,0,0,0-11.22,11.81c-4.2,8.252-6.571,15.469-6.978,21.238a23.926,23.926,0,0,0,1.971,11.377h40.68l12.781-3.877-5.379-27.119s-2.782-7.221-6.787-10.845a18.382,18.382,0,0,0-9.8-4.638c-1.044-.016-15.268,2.053-15.268,2.053" transform="translate(22.505 13.313)" fill="#fff198"/>
      <path id="Trazado_605313" data-name="Trazado 605313" d="M205.381,140.373H243.6a6.126,6.126,0,0,0,5.544-4.16l9.063-26.174a5.633,5.633,0,0,0-5.544-7.349H214.445a5.824,5.824,0,0,0-5.546,3.832L199.835,132.7a5.891,5.891,0,0,0,5.546,7.676" transform="translate(28.053 14.437)" fill="#1a1a1a"/>
      <path id="Trazado_605314" data-name="Trazado 605314" d="M58.168,67.69l-.222.908s.047-.164-.573-.228a.979.979,0,0,0-1,.731c-.072.255-1.126,4.1-1.126,4.1s.139.77.561.768a2.884,2.884,0,0,0,1.017-.309l-.651,2.1a2.968,2.968,0,0,0-2.189,0s-2.69-1.089-3.832.276c0,0-1.863-1.547-2.636-2.039a1.715,1.715,0,0,0-2.4.2c-.534.8-.335,1.177.589,1.837s3.381,2.74,4,3.357a21.545,21.545,0,0,1,2.367,2.653c.022.242-.371.1-.769-.27s-2.666-2.635-3.435-2.7a1.293,1.293,0,0,0-1.316,1.735c.3,1.126,1.8,1.782,3.023,3.335S54.5,86.65,54.6,86.65s2.931-2.238,5.12-2.014A6.233,6.233,0,0,1,59.3,80.5,7.553,7.553,0,0,1,62.081,76.7s2.155.54,3.081-1.207a2.636,2.636,0,0,0-.946-3.506,3.335,3.335,0,0,0-1.584-.486s-3.865-1.452-4.464-3.807" transform="translate(6.302 9.517)" fill="#fff"/>
      <path id="Trazado_605315" data-name="Trazado 605315" d="M36.35,96.329a5.44,5.44,0,0,1-1.535-2.906c-.384-1.921-.581-4.948-1.149-5.314s-1.946-1.041-2.261.53.571,2.724.438,3.722-.346,1.468-.989,1.508-1.323-.425-2.208-1.347a30.9,30.9,0,0,1-2.881-3.883c-.749-1.16-1.689-2.061-2.555-1.556a1.967,1.967,0,0,0-.795,1.7,1.255,1.255,0,0,0-1.41.1,1.056,1.056,0,0,0-.348,1.392,1.757,1.757,0,0,0-1.23,1.891c-.025,1.654,2.974,5.39,3.787,6.352s3.328,3.74,4.557,4.066a19.323,19.323,0,0,1,3.915-3.349c2.157-1.322,4.664-2.906,4.664-2.906" transform="translate(2.731 12.223)" fill="#fff"/>
      <path id="Trazado_605316" data-name="Trazado 605316" d="M115.738,116.5a8.587,8.587,0,0,0,2.918-1.972,3.882,3.882,0,0,0,.764-2.881c0-1.613.322-3.19,1.642-3.384s2.22,1.309,2.171,3.414a23.494,23.494,0,0,1-.688,5.175,1.339,1.339,0,0,0,.689,1.954,11.44,11.44,0,0,0,5.871,1.263,25.717,25.717,0,0,1,3.991.018,3.243,3.243,0,0,1-.836,1.021s-.567,2.523-2.429,3.18a16.382,16.382,0,0,1-5.891,1.146c-2.642.062-4.812-.227-5.719-.237s-2.7-.2-3.049-1.449a18.786,18.786,0,0,1-.185-3.867,9.927,9.927,0,0,1,.752-3.381" transform="translate(16.162 15.218)" fill="#fff"/>
      <path id="Trazado_605317" data-name="Trazado 605317" d="M159.869,87.761s.241-4.233.117-5.672a9.767,9.767,0,0,1-.117-3.64,30.324,30.324,0,0,0,.586-6.6c-.162-2.225-.511-3.7-1.479-3.554a4.632,4.632,0,0,0-1.738.684,1.323,1.323,0,0,0-1.384-1.4,1.7,1.7,0,0,0-1.8,1.044,2.076,2.076,0,0,0-1.8-.991c-1.145.1-1.73,1.027-1.788,2.282s-.234,7.77-.234,7.77-.688-.127-1.557-1.283-2.539-2.7-3.871-1.444-.877,2.419.522,3.762,3.447,2.993,3.9,4.992a25.777,25.777,0,0,1,.514,4.265s6.644,1.248,10.127-.208" transform="translate(20.247 9.5)" fill="#fff"/>
      <path id="Trazado_605318" data-name="Trazado 605318" d="M127.41,106.085a3.4,3.4,0,1,1-3.4-3.406,3.406,3.406,0,0,1,3.4,3.406" transform="translate(16.955 14.436)" fill="#fff"/>
      <path id="Trazado_605319" data-name="Trazado 605319" d="M190.1,97.225l.206-3.91s2.589-.057,3.1-1.73a14.887,14.887,0,0,0,.762-5.616c-.074-2.672-.16-5.108-.16-5.108L190.1,76.706s-3.609,4.827-4.688,6.051-2.035,2.069-1.939,3.829,1.923,4.056,2.55,4.67a6.117,6.117,0,0,1,.862,4.986,12.253,12.253,0,0,1-1.509,3.037s1.89,3.448,3.446,3.2,1.277-5.254,1.277-5.254" transform="translate(25.794 10.784)" fill="#fff"/>
      <path id="Trazado_605320" data-name="Trazado 605320" d="M183.067,129.14a23.834,23.834,0,0,1,3.741-1.865c1.682-.593,2.753-1.032,4.124-.833,0,0,2.433-1.677,4.7-.473a4.109,4.109,0,0,1,2.071-.792c1.18-.081,2.256,2.483,2.256,2.483l-.7,3.3s.439,2.964.993,3.331l-8.6.308-1.3-2.143a2.511,2.511,0,0,1-2.29,1.835,26.091,26.091,0,0,1-3.362,0s-2.255-2.409-1.647-5.149" transform="translate(25.723 17.598)" fill="#fff"/>
      <path id="Trazado_605321" data-name="Trazado 605321" d="M134.546,65.43c-.025-2.683-2.948-2.141-3.519-2a7.4,7.4,0,0,0-.242-2.615,19.193,19.193,0,0,1-1.076-3.044,55.11,55.11,0,0,1-5.8.846c-3.253.3-5.954-2.173-5.954-2.173a12.461,12.461,0,0,1-1.393,4.564l-.224,2.342c-2.307-.547-3.458.789-3.362,2.078a2.689,2.689,0,0,0,1.618,2.437,3.8,3.8,0,0,0,1.955-.179,11.734,11.734,0,0,1,.258,2.735,6.285,6.285,0,0,0,2.077,3.953l-.2,2.994-3.368,2.9,2.91,14.72h11.269l2.982-14.586-3.7-3.037-.338-2.774c2.241-1.793,2.522-4.674,2.551-6.946a2.309,2.309,0,0,0,3.563-2.221" transform="translate(15.883 7.936)" fill="#fff"/>
      <path id="Trazado_605322" data-name="Trazado 605322" d="M60.487,77.614s-2.937,2.058-2.944,4.859,1.292,4.6,2.636,4.975,3.9.534,4.754,2.887,1.057,5.422,1.47,6.583a5.349,5.349,0,0,0,4.548,4c3.36.571,5.746-1.135,7.359-3.826a11.1,11.1,0,0,0,1.323-8.471,18.11,18.11,0,0,0-2.83-7.539,24.519,24.519,0,0,0-4.132-4.521c-.659-.752-1.064-.737-.725-1.915S74.054,71.535,73.9,69s-.406-3.676-5.907-5.2a7.642,7.642,0,0,0-4.476-2.42c-3.138-.64-5.974.072-6.879,2.181a6.717,6.717,0,0,0,.636,6.141,11.684,11.684,0,0,0,3.765,2.707s2.81-.013,2.87,2.4a2.753,2.753,0,0,1-3.419,2.793" transform="translate(7.896 8.599)" fill="#ff7e7e"/>
      <path id="Trazado_605323" data-name="Trazado 605323" d="M191.543,76.946l4.068,4.173a23.222,23.222,0,0,0-.082-3.49,3.5,3.5,0,0,0-2.915-3.114,31.426,31.426,0,0,0-7.384-.412c-3.166.244-7.385,1.934-7.587,6.108,0,0,.9,4.184,1.242,6.359s1.194,5.581.226,6.672-3.134,1.5-4.185,1.857-4.067,4.145-1.249,6.368l2.909-1.814s4.553,2.188,7.283,1.506a6.129,6.129,0,0,0,4.447-3.918,9.534,9.534,0,0,0-.594-5.416c-.925-1.652-2.577-2.6-2.664-4.513s.243-2.6,1.1-3.481a44.875,44.875,0,0,0,3.06-3.544c.863-1.131,2.326-3.342,2.326-3.342" transform="translate(24.252 10.408)" fill="#1a1a1a"/>
      <path id="Trazado_605324" data-name="Trazado 605324" d="M189.493,91.324l-.206,3.91,2.617.489a3.468,3.468,0,0,0,.7-2.354,3.971,3.971,0,0,0-.941-2.493,12.723,12.723,0,0,1-2.165.448" transform="translate(26.612 12.776)" fill="#1a1a1a"/>
      <path id="Trazado_605325" data-name="Trazado 605325" d="M226.179,118.3c-1.165,2.017-1.031,4.272.3,5.038s3.345-.248,4.51-2.264,1.031-4.273-.3-5.038-3.346.247-4.51,2.264" transform="translate(31.687 16.278)" fill="#fff"/>
      <path id="Trazado_605326" data-name="Trazado 605326" d="M207.059,140.58h-30.29s-1.35-.559-1-1.557a1.978,1.978,0,0,1,1.144-1.246l24.478.072a4.946,4.946,0,0,1-1.108-3.522,9.588,9.588,0,0,1,.993-3.845l8.837-26.308a5.3,5.3,0,0,1,4.955-2.96h39.359l3.258,1.853-40.181-.146s-4.314.586-5.166,3.61L202.977,133.7a5.031,5.031,0,0,0,.618,3.652,10.994,10.994,0,0,0,3.464,3.23" transform="translate(24.704 14.23)" fill="#fff"/>
      <path id="Trazado_605327" data-name="Trazado 605327" d="M183.056,129.432s5.312-3.155,8.033-2.7a4.2,4.2,0,0,1,3.932-.728l-.311-.54a8.657,8.657,0,0,0-5.52-2.368,6.1,6.1,0,0,0-6.133,6.333" transform="translate(25.734 17.306)" fill="#1a1a1a"/>
      <path id="Trazado_605328" data-name="Trazado 605328" d="M187.878,133.319s1.642-.675,1.8-1.761l1.066,1.761Z" transform="translate(26.414 18.496)" fill="#1a1a1a"/>
      <path id="Trazado_605468" data-name="Trazado 605468" d="M0,0H11.266V34.991H0Z" transform="translate(178.34 33.763)" fill="#a3bfe4"/>
      <rect id="Rectángulo_345708" data-name="Rectángulo 345708" width="11.266" height="21.774" transform="translate(202.078 42.831)" fill="#fff"/>
      <path id="Trazado_605469" data-name="Trazado 605469" d="M0,0H11.266V13.866H0Z" transform="translate(220.606 55.213)" fill="#a3bfe4"/>
      <path id="Trazado_605329" data-name="Trazado 605329" d="M122.8,80.783l-2.621,5.875,1.044,2.239-.642,2.676h5.04l-.9-2.669.952-2.07Z" transform="translate(16.896 11.357)" fill="#33ece0"/>
      <path id="Trazado_605330" data-name="Trazado 605330" d="M121.908,82.234l1.786,4.16-.557,2.509.557,2.669h1.682l-.9-2.669.952-2.069-2.871-6.051Z" transform="translate(17.139 11.357)" fill="#fff"/>
      <path id="Trazado_605331" data-name="Trazado 605331" d="M62.346,82.547s-5.615-.03-9.257,7.748-7.456,16.675-7.456,16.675L36.356,96.608s-6.951,3.031-10.232,7.423c0,0,5.4,12.189,11.51,16.948s8.274,5.257,12.914,4.1l-3.109,17.832H82.893s-2.094-14.723-2.239-17.591-.192-6.3-.192-6.3a5.267,5.267,0,0,0,5.7-1.515c2.834-2.8,2.887-4,2.536-6.4a52.079,52.079,0,0,0-3.055-10.714c-1.872-4.934-3.11-6.293-3.11-6.293s-1.842,4.44-6.465,3.869-5.24-2.994-5.68-4.975-.3-4.094-1.45-6.141S66.1,84.724,64.9,84.561s-2.539-1.093-2.551-2.014" transform="translate(3.673 11.605)" fill="#1a1a1a"/>
      <path id="Trazado_605332" data-name="Trazado 605332" d="M38.218,118.3a8.6,8.6,0,0,1,14.975-.339,9.023,9.023,0,0,1-7.794,3.254,11.206,11.206,0,0,1-7.181-2.915" transform="translate(5.373 15.993)" fill="#bfe8e5"/>
      <rect id="Rectángulo_345710" data-name="Rectángulo 345710" width="5.341" height="5.341" transform="translate(7.981 104.86)" fill="#33ece0"/>
      <rect id="Rectángulo_345711" data-name="Rectángulo 345711" width="5.341" height="5.341" transform="translate(4.752 118.324)" fill="#1a1a1a"/>
      <path id="Trazado_605333" data-name="Trazado 605333" d="M115.274,63.868s-1.778-9.775,2.231-10.122a6.125,6.125,0,0,1,5.98-2.531c4.25.422,6.765,1.768,8.031,5.542a12.585,12.585,0,0,1,.193,7.148l-1.039.147v-2.23l-1.027-3.4a13.99,13.99,0,0,1-6.46.925,15.146,15.146,0,0,1-5.5-2.156s-.651,3.788-1.392,4.563l-.224,2.342Z" transform="translate(16.151 7.194)" fill="#ffce26"/>
      <path id="Trazado_605334" data-name="Trazado 605334" d="M188.348,77.082c-.352,1.638-2.144,4.609-3.325,6.444.849-.9,2-2.228,2.767-3.238.863-1.131,2.326-3.342,2.326-3.342l4.068,4.173a23.223,23.223,0,0,0-.082-3.49,3.5,3.5,0,0,0-2.915-3.113A31.349,31.349,0,0,0,183.8,74.1c-.371.029-.758.08-1.151.149.122.007,6.226.371,5.7,2.829" transform="translate(25.679 10.408)" fill="#fff"/>
      <path id="Trazado_605335" data-name="Trazado 605335" d="M182.787,99.241a6.129,6.129,0,0,0,4.446-3.918,9.515,9.515,0,0,0-.594-5.416,17.891,17.891,0,0,0-1.7-2.229c.748,1.6,1.718,4.424.845,7.006-1.313,3.881-5.595,4.491-5.595,4.491l.477.139a6.041,6.041,0,0,0,2.122-.073" transform="translate(25.333 12.327)" fill="#fff"/>
      <path id="Trazado_605336" data-name="Trazado 605336" d="M190.367,91.163a5.688,5.688,0,0,1,.277,4.352l1.108.206a3.467,3.467,0,0,0,.695-2.353,3.967,3.967,0,0,0-.941-2.493s-.578.156-1.138.287" transform="translate(26.764 12.776)" fill="#fff"/>
      <path id="Trazado_605337" data-name="Trazado 605337" d="M130.109,61.746v2.231l1.038-.147a12.6,12.6,0,0,0-.192-7.149,7.055,7.055,0,0,0-4.943-4.959c.731.641,3.3,3.08,2.16,4.8-1.316,1.989-9.248,1.553-9.3,1.55a14.216,14.216,0,0,0,3.749,1.2,13.99,13.99,0,0,0,6.461-.926Z" transform="translate(16.712 7.271)" fill="#fff"/>
      <path id="Trazado_605338" data-name="Trazado 605338" d="M63.515,61.388c-3.139-.639-5.977.071-6.88,2.182a6.718,6.718,0,0,0,.636,6.14A7.377,7.377,0,0,0,59.216,71.4c-.625-1.175-4.183-8.608,5.378-9.73a9.87,9.87,0,0,0-1.079-.284" transform="translate(7.896 8.599)" fill="#fff"/>
      <path id="Trazado_605339" data-name="Trazado 605339" d="M60.949,85.628c-3.991-4.11.5-9.985.5-9.985a3.494,3.494,0,0,1-1.128-.057s-2.937,2.059-2.944,4.858,1.292,4.606,2.636,4.976c.275.076.6.144.951.222l-.013-.015" transform="translate(8.066 10.627)" fill="#fff"/>
      <path id="Trazado_605340" data-name="Trazado 605340" d="M186.34,65.381H175.074c-.233-.233-.233-22.008-.233-22.008.233-.232,11.5-.232,11.5-.232.234.232.234,22.007.234,22.007a.235.235,0,0,1-.234.233m-11.034-.465h10.8V43.605h-10.8Z" transform="translate(24.581 6.065)" fill="#1a1a1a"/>
      <path id="Trazado_605341" data-name="Trazado 605341" d="M169.816,67.01H158.549c-.234-.233-.234-35.224-.234-35.224.234-.233,11.5-.233,11.5-.233.233.233.233,35.224.233,35.224a.234.234,0,0,1-.233.233m-11.034-.465h10.8V32.018h-10.8Z" transform="translate(22.258 4.436)" fill="#1a1a1a"/>
      <path id="Trazado_605342" data-name="Trazado 605342" d="M119.388,66.907c-1.585,0-2.875-1.623-2.875-3.619s1.29-3.62,2.875-3.62,2.877,1.624,2.877,3.62-1.291,3.619-2.877,3.619m0-6.775c-1.33,0-2.412,1.417-2.412,3.156s1.082,3.155,2.412,3.155,2.411-1.415,2.411-3.155-1.081-3.156-2.411-3.156" transform="translate(16.381 8.389)" fill="#1a1a1a"/>
      <path id="Trazado_605343" data-name="Trazado 605343" d="M146.37,122.86H132.475c0-.464,13.895-.464,13.895-.464a3.1,3.1,0,0,0,3.091-3.091V93.594A3.1,3.1,0,0,0,146.37,90.5H104.763a3.1,3.1,0,0,0-3.091,3.091v21.759c-.464,0-.464-21.759-.464-21.759a3.559,3.559,0,0,1,3.555-3.554H146.37a3.558,3.558,0,0,1,3.556,3.554v25.711a3.56,3.56,0,0,1-3.556,3.555" transform="translate(14.229 12.659)" fill="#1a1a1a"/>
      <path id="Trazado_605344" data-name="Trazado 605344" d="M123.064,108.7a3.636,3.636,0,1,1,3.636-3.636,3.641,3.641,0,0,1-3.636,3.636m0-6.808a3.172,3.172,0,1,0,3.173,3.172,3.176,3.176,0,0,0-3.173-3.172" transform="translate(16.79 14.259)" fill="#1a1a1a"/>
      <path id="Trazado_605345" data-name="Trazado 605345" d="M148.929,89.309c-1.6-2.969-2.836-4.828-3.981-5.815-5.07-4.359-9.8-5.1-13.97-5.745-.364-.058-.725-.113-1.081-.171a1.167,1.167,0,0,1,1.153-.289c4.233.659,9.029,1.407,14.2,5.852a18.794,18.794,0,0,1,3.888,5.833c-.139.326-.173.334-.208.334" transform="translate(18.262 10.861)" fill="#1a1a1a"/>
      <path id="Trazado_605346" data-name="Trazado 605346" d="M111.212,134.333c-13.34,0-21.468-2.752-24.815-8.386-3.512-5.917-1.645-14.755,5.877-27.813a67.3,67.3,0,0,1,11.7-14.976c5.171-4.447,9.97-5.194,14.2-5.854.363-.057.722-.112,1.078-.17a1.155,1.155,0,0,1-1.007.63c-4.171.65-8.9,1.386-13.97,5.745a66.719,66.719,0,0,0-11.6,14.855c-7.431,12.9-9.3,21.587-5.881,27.345,3.406,5.734,12.455,8.48,26.857,8.129,1.962-.044,7.864,0,7.921,0-.062.464-5.957.417-7.91.464q-1.254.031-2.455.031" transform="translate(11.906 10.844)" fill="#1a1a1a"/>
      <path id="Trazado_605347" data-name="Trazado 605347" d="M117.963,92.682c-.229-.187-3.139-14.908-3.139-14.908.073-.218,3.442-3.231,3.442-3.231.34.033,5.317,6.646,5.317,6.646l4.717-6.609c.34-.042,3.9,2.971,3.9,2.971.076.221-2.745,14.942-2.745,14.942-.454-.088,2.34-14.675,2.34-14.675l-3.267-2.764-4.755,6.661c-.374.006-5.39-6.659-5.39-6.659l-3.081,2.757,2.885,14.59c-.2.276-.214.277-.228.277" transform="translate(16.143 10.48)" fill="#1a1a1a"/>
      <path id="Trazado_605348" data-name="Trazado 605348" d="M118.06,91.826c-.21-.33,4.866-11.2,4.866-11.2.421,0,5.458,10.869,5.458,10.869-.42.2-5.249-10.219-5.249-10.219L118.27,91.693a.234.234,0,0,1-.21.133" transform="translate(16.597 11.336)" fill="#1a1a1a"/>
      <path id="Trazado_605349" data-name="Trazado 605349" d="M121.25,88.435a21.658,21.658,0,0,1-1.26-2.653c.43-.179,1.415,2.188,1.415,2.188l3.181-.006.844-2.042c.431.177-.472,2.362-.472,2.362a34,34,0,0,1-3.708.151" transform="translate(16.869 12.059)" fill="#1a1a1a"/>
      <path id="Trazado_605350" data-name="Trazado 605350" d="M120.536,90.81c-.225-.286.42-2.955.42-2.955.452.109-.194,2.778-.194,2.778a.23.23,0,0,1-.226.177" transform="translate(16.939 12.352)" fill="#1a1a1a"/>
      <path id="Trazado_605351" data-name="Trazado 605351" d="M124.99,90.8a19.652,19.652,0,0,1-1.027-2.84c.445-.133,1.249,2.541,1.249,2.541-.179.3-.2.3-.222.3" transform="translate(17.428 12.365)" fill="#1a1a1a"/>
      <path id="Trazado_605352" data-name="Trazado 605352" d="M126.258,66.907c-1.585,0-2.875-1.623-2.875-3.619s1.29-3.62,2.875-3.62,2.878,1.624,2.878,3.62-1.291,3.619-2.878,3.619m0-6.775c-1.33,0-2.411,1.417-2.411,3.156s1.081,3.155,2.411,3.155,2.412-1.415,2.412-3.155-1.081-3.156-2.412-3.156" transform="translate(17.346 8.389)" fill="#1a1a1a"/>
      <path id="Trazado_605353" data-name="Trazado 605353" d="M123.791,63.175a2.008,2.008,0,0,0-1.362-.606,1.323,1.323,0,0,0-.854.446c-.346-.313.092-.858.816-.91a2.058,2.058,0,0,1,1.559.67c-.035.378-.1.4-.159.4" transform="translate(17.075 8.731)" fill="#1a1a1a"/>
      <path id="Trazado_605354" data-name="Trazado 605354" d="M129.917,67.437a2.646,2.646,0,0,1-1.22-.3,3.47,3.47,0,0,1,1.357-.172,2.19,2.19,0,0,0,1.314-3.826,2.191,2.191,0,0,0-2.306-.374c.1-.545.388-.614.69-.633a2.677,2.677,0,0,1,1.922.658,2.655,2.655,0,0,1-1.588,4.64c-.058,0-.113,0-.169,0" transform="translate(18.094 8.735)" fill="#1a1a1a"/>
      <path id="Trazado_605355" data-name="Trazado 605355" d="M130.454,66.108c-.143-.048-1.775-1.309-1.775-1.309,0-.372,1.809-1.709,1.809-1.709.275.375-1.282,1.527-1.282,1.527l1.388,1.074c0,.387-.072.416-.14.416" transform="translate(18.091 8.87)" fill="#1a1a1a"/>
      <path id="Trazado_605356" data-name="Trazado 605356" d="M115.423,67.437a2.654,2.654,0,1,1,.164-5.3,2.665,2.665,0,0,1,.871.2,1.021,1.021,0,0,1-.9.259,2.189,2.189,0,1,0,.871,4.129.9.9,0,0,1-1.007.711" transform="translate(15.854 8.735)" fill="#1a1a1a"/>
      <path id="Trazado_605357" data-name="Trazado 605357" d="M114.666,66.07c-.143-.416,1.25-1.491,1.25-1.491l-1.559-1.152c.277-.375,2.082.962,2.082.962,0,.372-1.63,1.633-1.63,1.633a.238.238,0,0,1-.143.048" transform="translate(16.077 8.908)" fill="#1a1a1a"/>
      <path id="Trazado_605358" data-name="Trazado 605358" d="M118.007,75.52a16.439,16.439,0,0,1-.233-3.253c.464,0,.464,3.02.464,3.02a.232.232,0,0,1-.232.233" transform="translate(16.558 10.16)" fill="#1a1a1a"/>
      <path id="Trazado_605359" data-name="Trazado 605359" d="M126.869,75.261a14.7,14.7,0,0,1-.392-2.942c.462-.026.624,2.7.624,2.7-.221.245-.227.245-.232.245" transform="translate(17.781 10.167)" fill="#1a1a1a"/>
      <path id="Trazado_605360" data-name="Trazado 605360" d="M131.723,64.163a12.643,12.643,0,0,0-1.287-9.21c-1.622-2.955-5.825-3.913-9.135-3.328a5.978,5.978,0,0,0-3.589,2.278,3.807,3.807,0,0,0-1.26.644,3.693,3.693,0,0,0-1.2,2.759c-.017,2.013.273,6.565.276,6.61-.468-.016-.757-4.585-.739-6.6a4.088,4.088,0,0,1,1.379-3.13,3.1,3.1,0,0,1,1.219-.618,6.344,6.344,0,0,1,3.839-2.4c3.478-.611,7.894.419,9.623,3.565a11.874,11.874,0,0,1,1.1,9.257.234.234,0,0,1-.226.176" transform="translate(16.137 7.17)" fill="#1a1a1a"/>
      <path id="Trazado_605361" data-name="Trazado 605361" d="M147.561,7.594a3.841,3.841,0,0,1-.995-.132A3.8,3.8,0,0,1,143.9,2.8a3.8,3.8,0,1,1,3.662,4.794m0-7.132a3.35,3.35,0,1,0,.881.119,3.362,3.362,0,0,0-.881-.119" transform="translate(20.212 0)" fill="#1a1a1a"/>
      <path id="Trazado_605362" data-name="Trazado 605362" d="M180.6,21.885a18.085,18.085,0,0,1-1.165-1.522,2.348,2.348,0,0,1,1.358,1.163c-.107.346-.149.358-.194.358M178,18.342c-.738-.766-1.332-1.434-1.94-2.074a4.791,4.791,0,0,1,2.122,1.694c-.076.36-.13.38-.181.38m-3.683-3.873c-.813-.657-1.494-1.236-2.181-1.778a4.753,4.753,0,0,1,2.338,1.376c-.03.376-.094.4-.157.4m-4.2-3.309c-.855-.534-1.613-1.012-2.378-1.458a4.81,4.81,0,0,1,2.508,1.032c.017.39-.055.425-.13.425M165.5,8.467c-.893-.413-1.709-.785-2.524-1.123a4.838,4.838,0,0,1,2.627.684c.065.392-.017.439-.1.439m-4.932-2.054c-.9-.3-1.757-.563-2.615-.8a4.933,4.933,0,0,1,2.691.351c.111.392.019.453-.075.453m-5.146-1.444c-.9-.192-1.779-.362-2.664-.509a5,5,0,0,1,2.713.049c.153.387.057.46-.049.46" transform="translate(21.477 0.603)" fill="#1a1a1a"/>
      <path id="Trazado_605363" data-name="Trazado 605363" d="M107.7,19.531a6.818,6.818,0,0,1,1.5-2.465,6.251,6.251,0,0,1-1.319,2.374.231.231,0,0,1-.185.091m3.492-4.046a6.383,6.383,0,0,1,1.786-2.247,6.256,6.256,0,0,1-1.621,2.177.233.233,0,0,1-.165.07m4-3.544a5.985,5.985,0,0,1,2.045-1.983,6.248,6.248,0,0,1-1.9,1.936.238.238,0,0,1-.141.048m4.449-2.958A5.642,5.642,0,0,1,121.915,7.3a6.291,6.291,0,0,1-2.153,1.652.234.234,0,0,1-.115.03m4.817-2.312a5.343,5.343,0,0,1,2.444-1.36,6.314,6.314,0,0,1-2.359,1.344.238.238,0,0,1-.086.016m5.082-1.648a5.166,5.166,0,0,1,2.566-1.041A6.265,6.265,0,0,1,129.6,5.017a.253.253,0,0,1-.058.007m5.248-1.006a5.092,5.092,0,0,1,2.639-.74,6.075,6.075,0,0,1-2.61.739h-.03m5.33-.411a4.977,4.977,0,0,1,2.677-.469,6.034,6.034,0,0,1-2.671.469Z" transform="translate(15.142 0.44)" fill="#1a1a1a"/>
      <path id="Trazado_605364" data-name="Trazado 605364" d="M225.608,105.141a10.311,10.311,0,0,1,1.365-2.531,4.709,4.709,0,0,1-1.183,2.442.234.234,0,0,1-.182.089m2.937-4.463a11.769,11.769,0,0,1,.971-2.721,4.734,4.734,0,0,1-.765,2.6.234.234,0,0,1-.205.121M230.71,95.8a13.6,13.6,0,0,1,.558-2.847,4.736,4.736,0,0,1-.339,2.692.232.232,0,0,1-.219.155m1.363-5.166a16.058,16.058,0,0,1,.152-2.9,4.791,4.791,0,0,1,.079,2.713.233.233,0,0,1-.23.189m.57-5.313a4.364,4.364,0,0,1-.21-1.542c0-.452-.01-.9-.026-1.355a1.593,1.593,0,0,1,.493,1.354q0,.66-.024,1.321a.233.233,0,0,1-.233.222m-.185-5.339a22.552,22.552,0,0,1-.59-2.842,4.813,4.813,0,0,1,.82,2.587c-.216.255-.224.255-.23.255m-.894-5.27a27.5,27.5,0,0,1-.924-2.745,4.85,4.85,0,0,1,1.149,2.459c-.189.284-.209.286-.225.286M230,69.6c-.536-.987-.882-1.814-1.244-2.6a4.783,4.783,0,0,1,1.461,2.288c-.163.309-.19.315-.217.315m-2.229-4.862c-.631-.9-1.086-1.674-1.557-2.407a4.752,4.752,0,0,1,1.762,2.064c-.129.335-.167.342-.205.342m-2.895-4.489c-.735-.809-1.308-1.5-1.887-2.129a4.631,4.631,0,0,1,2.071,1.755c-.086.359-.136.374-.185.374m-3.611-3.94c-.827-.664-1.523-1.219-2.218-1.715a4.391,4.391,0,0,1,2.374,1.311c-.03.379-.092.4-.155.4M216.9,53.236a20.747,20.747,0,0,0-2.53-1.061,4.1,4.1,0,0,1,2.636.623c.058.394-.022.438-.106.438m-5.049-1.665a13.083,13.083,0,0,0-2.652-.109,3.913,3.913,0,0,1,2.685-.354c.181.379.082.463-.033.463" transform="translate(29.412 7.174)" fill="#1a1a1a"/>
      <path id="Trazado_605365" data-name="Trazado 605365" d="M140.667,138.024c-.234-.373-.236-14.313-.613-19.265.841,4.935.845,18.892.845,19.032a.233.233,0,0,1-.233.233" transform="translate(19.69 16.696)" fill="#1a1a1a"/>
      <path id="Trazado_605366" data-name="Trazado 605366" d="M103.476,136.852c-.232-.236-.1-9.76-.1-9.76.465.006.333,9.531.333,9.531a.231.231,0,0,1-.232.229" transform="translate(14.528 17.868)" fill="#1a1a1a"/>
      <path id="Trazado_605367" data-name="Trazado 605367" d="M199.012,135.706H14.625c0-.464,184.387-.464,184.387-.464.233.36.128.464,0,.464" transform="translate(2.056 19.014)" fill="#1a1a1a"/>
      <path id="Trazado_605368" data-name="Trazado 605368" d="M122.777,133.827c-.232-.233-.232-10.4-.232-10.4.463,0,.463,10.167.463,10.167a.232.232,0,0,1-.232.233" transform="translate(17.229 17.353)" fill="#1a1a1a"/>
      <path id="Trazado_605369" data-name="Trazado 605369" d="M130.459,120.328c-.206-.019-.458-.039-.758-.063-3.487-.275-6.817-.706-7.578-1.989a1.127,1.127,0,0,1-.035-1.089c.83-1.845,1.275-6.107.257-7.877a1.375,1.375,0,0,0-1.066-.779,1.183,1.183,0,0,0-.977.277c-.758.69-.741,2.528-.731,3.625,0,.187,0,.358,0,.508-.024,2.191-3.851,3.815-4.011,3.884-.143-.444,3.526-2,3.547-3.889,0-.146,0-.315,0-.5-.013-1.252-.031-3.142.883-3.974a1.639,1.639,0,0,1,1.337-.395,1.834,1.834,0,0,1,1.421,1.008c1.12,1.947.631,6.377-.236,8.3a.671.671,0,0,0,.013.66c.741,1.255,5.278,1.613,7.214,1.763.306.024.559.046.745.064.2.374.095.463-.023.463" transform="translate(16.246 15.192)" fill="#1a1a1a"/>
      <path id="Trazado_605370" data-name="Trazado 605370" d="M125.027,121.531a27.683,27.683,0,0,1-4.157-.343c9.211.932,11.171-2.5,11.189-2.538.346.343-1.054,2.881-7.032,2.881" transform="translate(16.993 16.681)" fill="#1a1a1a"/>
      <path id="Trazado_605371" data-name="Trazado 605371" d="M123.716,124.08c-.7,0-1.41-.025-2.145-.051-.48-.018-.975-.035-1.494-.047a18.747,18.747,0,0,1-2-.156,7.125,7.125,0,0,1-1.929-.392,2.652,2.652,0,0,1-1.254-1.308c.715.371,1.022.7,1.441.883a5.5,5.5,0,0,0,1.5.319,19.9,19.9,0,0,0,2.254.189c.52.013,1.017.031,1.5.047a18.558,18.558,0,0,0,7.61-.82,4.858,4.858,0,0,0,2.836-3.222c.465,1.093-1.09,3.1-2.683,3.661a16.1,16.1,0,0,1-5.635.9" transform="translate(16.153 16.804)" fill="#1a1a1a"/>
      <path id="Trazado_605372" data-name="Trazado 605372" d="M152.59,120.281a7.947,7.947,0,0,1-2.025-.251,19.288,19.288,0,0,1-7-3.248,36.551,36.551,0,0,0,7.122,2.8,10.314,10.314,0,0,0,8.94-2.574c2.9-2.686,3.024-7.2,3.138-11.18.027-.926.052-1.8.109-2.631.376-5.452-.49-18.8-.5-18.935.472.1,1.341,13.484.962,18.967-.056.822-.081,1.693-.107,2.612-.117,4.072-.249,8.69-3.286,11.507a11.193,11.193,0,0,1-7.351,2.935" transform="translate(20.183 11.846)" fill="#1a1a1a"/>
      <path id="Trazado_605373" data-name="Trazado 605373" d="M147.163,113.11c-1.706-4.89-.578-28.052-.529-29.036.451.263-.709,24.087.751,28.734-.176.3-.2.3-.221.3" transform="translate(20.558 11.82)" fill="#1a1a1a"/>
      <path id="Trazado_605374" data-name="Trazado 605374" d="M154.5,86.533c-3.934,0-7.915-.714-7.915-2.078,0-.8.853-1.355,2.61-1.684-.932.648-2.144,1.016-2.144,1.684s2.834,1.614,7.449,1.614,7.449-.941,7.449-1.614c0-.492-.8-.95-2.147-1.227,2.176-.027,2.613.7,2.613,1.227,0,1.364-3.982,2.078-7.916,2.078" transform="translate(20.608 11.637)" fill="#1a1a1a"/>
      <path id="Trazado_605375" data-name="Trazado 605375" d="M149.88,87.4a1.918,1.918,0,0,1-.3-1.06,8.9,8.9,0,0,0-2.984-6.937c-1.964-1.711-2.849-2.992-2.784-4.033a2.055,2.055,0,0,1,1.069-1.567c1.632-1.1,2.815.253,3.854,1.45.757.873,1.541,1.776,2.484,1.842a4.192,4.192,0,0,1,3.461,2.777c-.472.056-1.256-2.152-3.494-2.313-1.134-.082-1.982-1.057-2.8-2-1.046-1.2-1.948-2.237-3.243-1.369a1.626,1.626,0,0,0-.868,1.212c-.054.871.808,2.067,2.629,3.65a9.431,9.431,0,0,1,3.142,7.267c.016.326.031.606.059.817-.208.265-.218.266-.228.266" transform="translate(20.219 10.319)" fill="#1a1a1a"/>
      <path id="Trazado_605376" data-name="Trazado 605376" d="M149.5,77.93a17.143,17.143,0,0,1-.17-4.768c.052-.814.113-1.738.146-2.813a3.752,3.752,0,0,1,.537-2.059,2.2,2.2,0,0,1,2.058-.855,1.637,1.637,0,0,1,1.329.976,2.325,2.325,0,0,1,.108.723,60.95,60.95,0,0,1-.243,8.507c-.106-3.017-.16-6.611-.224-8.491a1.986,1.986,0,0,0-.076-.581A1.176,1.176,0,0,0,152,67.9a1.743,1.743,0,0,0-1.622.678,3.3,3.3,0,0,0-.44,1.793c-.036,1.08-.1,2.009-.149,2.828a29.886,29.886,0,0,0-.064,4.488c-.22.249-.225.249-.23.249" transform="translate(20.982 9.478)" fill="#1a1a1a"/>
      <path id="Trazado_605377" data-name="Trazado 605377" d="M155.764,77.8c.094-2.93.165-5.8-.014-8.785a1.482,1.482,0,0,0-.164-.72,1.31,1.31,0,0,0-.995-.466,1.668,1.668,0,0,0-1.652,1.053,1.451,1.451,0,0,1,1.666-1.518,1.781,1.781,0,0,1,1.369.676,1.86,1.86,0,0,1,.238.946,47.829,47.829,0,0,1-.219,8.61.232.232,0,0,1-.23.2" transform="translate(21.502 9.471)" fill="#1a1a1a"/>
      <path id="Trazado_605378" data-name="Trazado 605378" d="M158.187,88.054a46.435,46.435,0,0,0-.173-6.917,10.743,10.743,0,0,1-.07-2.086,42.611,42.611,0,0,0,.511-9.076,2.06,2.06,0,0,0-.4-1.173,1.239,1.239,0,0,0-1.041-.334,1.53,1.53,0,0,0-1.155.547c.04-.819.6-.951,1.1-1.009a1.687,1.687,0,0,1,1.435.48,2.439,2.439,0,0,1,.526,1.433,42.878,42.878,0,0,1-.5,9.15,10.027,10.027,0,0,0,.063,2.026,28.535,28.535,0,0,1-.057,6.756.233.233,0,0,1-.232.2" transform="translate(21.912 9.56)" fill="#1a1a1a"/>
      <path id="Trazado_605379" data-name="Trazado 605379" d="M117.319,129.1c-1.393,0-2.33-3.78-2.506-7.374-.179-3.625.395-7.516,1.809-7.587a3.034,3.034,0,0,1,.828.286.823.823,0,0,1-.816.178c-.7.035-1.572,2.753-1.357,7.1s1.344,6.977,2.058,6.931c.187-.008,1.128-.255,1.3-4.237.3,3.828-.576,4.667-1.28,4.7h-.038" transform="translate(16.137 16.047)" fill="#1a1a1a"/>
      <path id="Trazado_605380" data-name="Trazado 605380" d="M119.277,115.143c-.83-.083-1.637-.159-2.441-.234-3.264-.31-6.641-.631-9.947-1.25a96.656,96.656,0,0,1-12.633-3.343c4.846,1.105,8.842,2.163,12.719,2.887,3.286.616,6.652.934,9.906,1.243q1.208.113,2.419.234c.2.374.095.463-.023.463" transform="translate(13.251 15.509)" fill="#1a1a1a"/>
      <path id="Trazado_605381" data-name="Trazado 605381" d="M47.488,124.11c-8.3,0-16.885-10.99-21.551-21.693a16.511,16.511,0,0,1,4.6-4.445A30.5,30.5,0,0,1,36.3,94.685c.352.162,11.024,10.887,14.312,17.472C47.12,106.2,37.458,96.323,36.325,95.177A33.283,33.283,0,0,0,30.8,98.355a21.621,21.621,0,0,0-4.378,4C31.265,113.4,40.263,124.7,48.671,123.566c8.922-1.222,12.7-12.775,16.712-27.749-3.608,15.265-7.443,26.949-16.649,28.209a9.1,9.1,0,0,1-1.246.084" transform="translate(3.646 13.312)" fill="#1a1a1a"/>
      <path id="Trazado_605382" data-name="Trazado 605382" d="M43.228,107.232a73.191,73.191,0,0,1,2.615-6.889c4.09-9.734,7.321-17.421,13.839-18-6.2,1.014-9.38,8.589-13.411,18.178-.9,2.132-1.823,4.338-2.831,6.572a.231.231,0,0,1-.212.137" transform="translate(6.077 11.577)" fill="#1a1a1a"/>
      <path id="Trazado_605383" data-name="Trazado 605383" d="M61.024,76.5a2.758,2.758,0,0,1-2.274-1.2,7.067,7.067,0,0,1,1.467.585,2.3,2.3,0,1,0-.586-3.977A1.779,1.779,0,0,1,62,71.145a2.764,2.764,0,0,1-.98,5.351" transform="translate(8.26 9.979)" fill="#1a1a1a"/>
      <path id="Trazado_605384" data-name="Trazado 605384" d="M61.088,75.071a19.827,19.827,0,0,1-1.418-1.784c.123-.359,2.218-.966,2.218-.966.13.448-1.647.962-1.647.962l1.035,1.42c-.092.355-.14.368-.188.368" transform="translate(8.389 10.168)" fill="#1a1a1a"/>
      <path id="Trazado_605385" data-name="Trazado 605385" d="M57.794,80.742a3.571,3.571,0,0,1-2.9-1.5c-1.021-1.622-.194-3.9-.159-3.994l1.861-7.6c.449.111-1.418,7.739-1.418,7.739-.015.047-.79,2.184.108,3.611a3.129,3.129,0,0,0,2.525,1.285c.2.374.1.464-.021.464" transform="translate(7.646 9.51)" fill="#1a1a1a"/>
      <path id="Trazado_605386" data-name="Trazado 605386" d="M54.755,74.175c-.8-.187-1.115-.741-.965-1.274l1.154-4.113a1,1,0,0,1,1.235-.693.872.872,0,0,1,.554.39.862.862,0,0,1,.044.676c-.368-.411-.44-.538-.725-.619-.662.373-1.816,4.485-1.816,4.485.655.741.955.578,1.036.291.324.568-.08.858-.518.858" transform="translate(7.557 9.568)" fill="#1a1a1a"/>
      <path id="Trazado_605387" data-name="Trazado 605387" d="M44.811,137.874c.213-1.6,2.611-15.416,2.878-17.85.176,2.644-2.207,16.346-2.658,17.692a.232.232,0,0,1-.22.159" transform="translate(6.3 16.874)" fill="#1a1a1a"/>
      <path id="Trazado_605388" data-name="Trazado 605388" d="M75.268,118.136a3.544,3.544,0,0,1-1.6-.331c.339-.347,3.2,1.087,7.042-3.252,3.561-4.019-2.286-16.69-4.965-21.952,3.8,6.431,8.929,18.179,5.312,22.26-2.386,2.694-4.452,3.275-5.789,3.275" transform="translate(10.357 13.019)" fill="#1a1a1a"/>
      <path id="Trazado_605389" data-name="Trazado 605389" d="M76.223,141.524c-.26-.364-3.382-17.638-2.492-26.35a135.028,135.028,0,0,0,.8-21.107c.808,5.347.53,12.672-.338,21.155-.884,8.646,2.226,25.855,2.257,26.028-.2.273-.214.274-.228.274" transform="translate(10.343 13.225)" fill="#1a1a1a"/>
      <path id="Trazado_605390" data-name="Trazado 605390" d="M54.718,86.195c-.121-.032-.451-.172-1.809-.528A7.4,7.4,0,0,1,48.7,82.784l-.317-.372a10.473,10.473,0,0,0-.82-.818c-.7-.654-1.37-1.274-1.363-2.009a1.5,1.5,0,0,1,.591-1.11,1.3,1.3,0,0,1,.984-.34c1.081.06,2.246,1.25,2.7,1.759a10.5,10.5,0,0,0,1.062,1.063,25.73,25.73,0,0,0-1.762-1.881l-.5-.5a26.42,26.42,0,0,0-2.5-2.014,16.526,16.526,0,0,1-1.9-1.53,1.386,1.386,0,0,1,.037-1.608,1.534,1.534,0,0,1,1.652-.8,10.092,10.092,0,0,1,3.351,2.2c.5.057.833-.255,1.442-.36a3.271,3.271,0,0,1,2.421.316,1.858,1.858,0,0,1,1.288-.265,6.49,6.49,0,0,1,1.119.336,1.423,1.423,0,0,1-1.2.121,1.512,1.512,0,0,0-1.069.274,4.114,4.114,0,0,0-2.48-.324,1.585,1.585,0,0,0-.883.465c-.121.114-.306.286-.511.146-.072-.047-.224-.178-.432-.359a10,10,0,0,0-3.154-2.1,1.091,1.091,0,0,0-1.144.586.972.972,0,0,0-.087,1.062,17.386,17.386,0,0,0,1.826,1.463,26.3,26.3,0,0,1,2.551,2.059l.5.5c1.287,1.291,2.071,2.107,2.125,2.539-.285.422-.634.577-2.1-1.087a4.232,4.232,0,0,0-2.375-1.6.805.805,0,0,0-.647.222,1.084,1.084,0,0,0-.439.769c0,.529.589,1.08,1.217,1.664a11.4,11.4,0,0,1,.855.853l.321.376a6.94,6.94,0,0,0,3.972,2.734,13.621,13.621,0,0,1,1.788.534c.073.394-.011.443-.1.443" transform="translate(6.276 10.206)" fill="#1a1a1a"/>
      <path id="Trazado_605391" data-name="Trazado 605391" d="M52.557,78.1a22.624,22.624,0,0,0-3.189-2.931c.378-.3,2.618,1.42,3.383,2.57-.1.349-.151.362-.194.362" transform="translate(6.941 10.563)" fill="#1a1a1a"/>
      <path id="Trazado_605392" data-name="Trazado 605392" d="M54.841,76.86a26.046,26.046,0,0,0-2.313-1.924c.327-.335,1.616.6,2.483,1.534-.057.37-.114.39-.17.39" transform="translate(7.385 10.525)" fill="#1a1a1a"/>
      <path id="Trazado_605393" data-name="Trazado 605393" d="M72.248,101.3a7.537,7.537,0,0,1-2.242-.336A5.25,5.25,0,0,1,66.593,98.1a15.647,15.647,0,0,1-.9-3.784c-.042-.282-.084-.565-.13-.846-.338-2.075-.881-4.1-2.545-4.911a7.428,7.428,0,0,0-1.606-.5,4.957,4.957,0,0,1-2.548-1.147,5.445,5.445,0,0,1-1.514-4.193,6.131,6.131,0,0,1,3.223-5.25c.081.477-2.662,1.8-2.759,5.264a5.065,5.065,0,0,0,1.372,3.844,4.51,4.51,0,0,0,2.329,1.03,7.782,7.782,0,0,1,1.705.534c1.855.9,2.442,3.057,2.8,5.257.046.282.089.566.132.851a15.156,15.156,0,0,0,.867,3.673,4.8,4.8,0,0,0,3.122,2.6,6.668,6.668,0,0,0,5.333-.537,8.13,8.13,0,0,0,2.45-2.6c1.9-3.047,2.237-6.06,1.142-10.4A16.663,16.663,0,0,0,73.65,77.86c-.478-.465-.971-.948-1.465-1.473a1.715,1.715,0,0,1-.553-1.044,3.3,3.3,0,0,1,.534-1.584,20.475,20.475,0,0,0,.98-2.025,7.333,7.333,0,0,0,.461-3.93c-.492-2.726-5.5-3.846-5.554-3.856-2.492-2.175-6.685-3.423-9.568-1.837-2.769,1.525-2.038,4.836-2.03,4.869,0,.2.016,3.479,5.122,5.416-5.6-1.625-5.584-5.216-5.581-5.368-.007,0-.8-3.636,2.265-5.323,3.04-1.678,7.432-.4,9.951,1.8.619.144,5.331,1.325,5.851,4.214a7.765,7.765,0,0,1-.484,4.18,14.263,14.263,0,0,1-.678,1.45,4.9,4.9,0,0,0-.805,1.965,1.328,1.328,0,0,0,.428.753c.486.517.975,1,1.45,1.459a17.039,17.039,0,0,1,5.544,9.338c1.131,4.476.784,7.593-1.2,10.759a8.579,8.579,0,0,1-2.595,2.747,6.562,6.562,0,0,1-3.478.924" transform="translate(7.859 8.567)" fill="#1a1a1a"/>
      <path id="Trazado_605394" data-name="Trazado 605394" d="M38.363,118.562c.977-3.212,3.889-5.007,7.384-5.007a8.062,8.062,0,0,1,7.535,4.546,9.006,9.006,0,0,0-7.535-4.083,7.463,7.463,0,0,0-7.169,4.4.233.233,0,0,1-.216.144" transform="translate(5.393 15.965)" fill="#1a1a1a"/>
      <path id="Trazado_605395" data-name="Trazado 605395" d="M.232,72.814C0,72.582,0,59.4,0,59.4A5.814,5.814,0,0,1,5.808,53.6H64.685c0,.463-58.877.463-58.877.463A5.35,5.35,0,0,0,.464,59.4V72.582a.232.232,0,0,1-.233.232" transform="translate(0 7.535)" fill="#1a1a1a"/>
      <path id="Trazado_605396" data-name="Trazado 605396" d="M29.487,115.314H5.808A5.813,5.813,0,0,1,0,109.506V86.75c.464,0,.464,22.756.464,22.756a5.349,5.349,0,0,0,5.344,5.344H29.487c.232.363.128.464,0,.464" transform="translate(0 12.196)" fill="#1a1a1a"/>
      <path id="Trazado_605397" data-name="Trazado 605397" d="M73.266,116.857a6.113,6.113,0,0,0,5.344-5.808V75.774c.464,0,.464,35.275.464,35.275a5.813,5.813,0,0,1-5.808,5.808" transform="translate(10.3 10.653)" fill="#1a1a1a"/>
      <path id="Trazado_605398" data-name="Trazado 605398" d="M123.11,76.1c-7.252,0-7.252-4.715-7.252-12.529V61.2a20.569,20.569,0,0,0,1.563-4.46,5.15,5.15,0,0,1-.912-1.073c.428-.187,2.855,3.953,10.2,2.533.56-.108,2.662-.57,2.662-.57.281.192.993,2.8,1.331,3.465.024.095.133,2.753.133,2.753,0,7.381,0,12.25-7.73,12.25m-6.789-14.812V63.57c0,7.78,0,12.065,6.789,12.065,7.264,0,7.264-4.183,7.264-11.775l-.1-2.6a29.9,29.9,0,0,1-1.012-3.127c-.551.122-2.005.439-2.457.526-4.731.916-7.534-.413-8.989-1.58a19.835,19.835,0,0,1-1.491,4.21" transform="translate(16.289 7.825)" fill="#1a1a1a"/>
      <path id="Trazado_605399" data-name="Trazado 605399" d="M121.506,68.245c-.168-.057-1.665-.819-1.462-2,.129-.746.875-.73,1.411-.723.469.013.667-.009.688-.144.114-.741.081-5.051.081-5.093.466.175.5,4.384.379,5.163-.084.559-.681.551-1.157.538-.594-.011-.891.017-.944.338-.144.844,1.1,1.478,1.109,1.485.064.392-.019.439-.1.439" transform="translate(16.874 8.475)" fill="#1a1a1a"/>
      <path id="Trazado_605400" data-name="Trazado 605400" d="M122.891,69.693a2.566,2.566,0,0,1-.795-.137c.659-.274,1.086-.289,1.412-.492a1.746,1.746,0,0,0,.67-1.108c.454.106.31,1.046-.423,1.5a1.6,1.6,0,0,1-.863.235" transform="translate(17.166 9.554)" fill="#1a1a1a"/>
      <path id="Trazado_605401" data-name="Trazado 605401" d="M173.563,101.68c-.964-.522-1.324-1.634-1.13-3.163a4.285,4.285,0,0,1,1.808-3.277,4.347,4.347,0,0,1,.74-.376,10.941,10.941,0,0,1,1.363-.421A5.276,5.276,0,0,0,178.7,93.4a2.5,2.5,0,0,0,.642-2.217A108.06,108.06,0,0,0,177.433,80.3a5.67,5.67,0,0,1,2.627-4.644c3.408-2.293,7.935-2.026,11.918-1.463a3.9,3.9,0,0,1,3.319,2.069,8.877,8.877,0,0,1,.562,4.916c-.316-1.325-.211-3.194-.977-4.706a3.426,3.426,0,0,0-2.968-1.818c-3.9-.552-8.319-.816-11.6,1.389a5.209,5.209,0,0,0-2.425,4.179c.1.4,1.008,4.173,1.916,10.9a2.964,2.964,0,0,1-.787,2.622,5.717,5.717,0,0,1-2.561,1.149,10.569,10.569,0,0,0-1.307.4,3.922,3.922,0,0,0-.662.339,3.84,3.84,0,0,0-1.6,2.943c-.1.772-.123,2.144.786,2.672.041.392-.036.433-.116.433" transform="translate(24.235 10.376)" fill="#1a1a1a"/>
      <path id="Trazado_605402" data-name="Trazado 605402" d="M166.406,131.025c7.393-7,24.241-8.082,24.412-8.092-.141.474-16.834,1.546-24.259,8.035a.235.235,0,0,1-.153.057" transform="translate(23.395 17.283)" fill="#1a1a1a"/>
      <path id="Trazado_605403" data-name="Trazado 605403" d="M162.136,141.179a15.338,15.338,0,0,1-1.792-4.819c-.132-.655-.237-1.316-.312-1.965-.944-8.184,2.4-16.7,5-22.388,3.539-7.75,7.864-12.883,13.226-15.691-5.051,3.17-9.31,8.232-12.8,15.884-2.575,5.64-5.889,14.073-4.957,22.142.072.636.176,1.283.3,1.924a19.011,19.011,0,0,0,1.546,4.577c-.139.327-.173.335-.208.335" transform="translate(22.476 13.541)" fill="#1a1a1a"/>
      <path id="Trazado_605404" data-name="Trazado 605404" d="M206.266,110.844a9.995,9.995,0,0,1-.878-1.718c-3.548-8.2-8.063-12.6-14.2-13.847-.48-.1-1.933-.35-1.933-.35.08-.459,1.541-.2,2.025-.1,6.219,1.265,10.975,5.883,14.54,14.117.086.2.581,1.379.664,1.58-.152.317-.184.323-.213.323" transform="translate(26.607 13.309)" fill="#1a1a1a"/>
      <path id="Trazado_605405" data-name="Trazado 605405" d="M190.014,92.929c-.212,0-.437-.009-.679-.031-.778-.066-1.92-.205-2.718-.365a7.088,7.088,0,0,1,2.757-.1,4.762,4.762,0,0,0,1.872-.139,2.67,2.67,0,0,0,1.728-1.914,16.337,16.337,0,0,0,.5-5.384c-.017-1.208-.05-2.187-.08-3.164l-.035-1.038c.453-.441.5,1.023.5,1.023.033.981.064,1.962.08,2.942a17.486,17.486,0,0,1-.522,5.767,3.107,3.107,0,0,1-2.03,2.209,4.489,4.489,0,0,1-1.373.19" transform="translate(26.237 11.348)" fill="#1a1a1a"/>
      <path id="Trazado_605406" data-name="Trazado 605406" d="M182.195,101.063a15,15,0,0,1-5.979-1.451c2.9.773,5.322,1.209,7.35.879a4.836,4.836,0,0,0,3.75-3,6.72,6.72,0,0,0-.6-6.3c-.218-.318-.453-.63-.688-.941-1.1-1.467-2.245-2.983-1.579-5.085a6.565,6.565,0,0,1,1.644-2.374c.149-.161.3-.319.437-.477.976-1.1,1.814-2.127,2.561-3.148a11.085,11.085,0,0,0,1.7-2.509c.455-.148,1.405,1.135,4.4,4.051a20.424,20.424,0,0,1-4.074-3.623,17.89,17.89,0,0,1-1.543,2.216c-.861,1.173-1.707,2.213-2.694,3.321-.143.16-.292.321-.445.486A6.212,6.212,0,0,0,184.9,85.3c-.594,1.874.427,3.23,1.508,4.667.236.316.476.634.7.958a7.183,7.183,0,0,1,.641,6.748,5.284,5.284,0,0,1-4.1,3.276,8.957,8.957,0,0,1-1.449.114" transform="translate(24.774 10.775)" fill="#1a1a1a"/>
      <path id="Trazado_605407" data-name="Trazado 605407" d="M187.631,82.63c.186-.03.31.05.364.719.059.746-.133.877-.3.87s-.335-.237-.326-.77.021-.781.263-.819" transform="translate(26.342 11.616)" fill="#1a1a1a"/>
      <path id="Trazado_605408" data-name="Trazado 605408" d="M192.145,82.363c.185-.035.311.04.388.706.084.744-.1.881-.271.879s-.342-.225-.352-.757-.006-.781.236-.828" transform="translate(26.98 11.578)" fill="#1a1a1a"/>
      <path id="Trazado_605409" data-name="Trazado 605409" d="M192.9,81.272a1.572,1.572,0,0,0-1.509-.257c.867-.709,1.372-.4,1.661-.152-.021.382-.087.408-.152.408" transform="translate(26.908 11.328)" fill="#1a1a1a"/>
      <path id="Trazado_605410" data-name="Trazado 605410" d="M188.767,100.674c-1.291,0-3.394-2.565-3.832-3.116,1.45,1.081,3.284,2.895,3.958,2.63.785-.3.891-3.222.774-4.993l.205-3.938c.463.026.257,3.936.257,3.936.055.794.262,4.917-1.068,5.429a.792.792,0,0,1-.294.052" transform="translate(26 12.83)" fill="#1a1a1a"/>
      <path id="Trazado_605411" data-name="Trazado 605411" d="M191.722,95.731a4.215,4.215,0,0,0-.7-4.711c.358-.3,2.656,2.127.891,4.614a.231.231,0,0,1-.189.1" transform="translate(26.856 12.793)" fill="#1a1a1a"/>
      <path id="Trazado_605412" data-name="Trazado 605412" d="M174.7,128.5c-1.036-8.361,3.49-21.842,3.536-21.978.394.284-4.1,13.672-3.3,21.723-.216.255-.224.255-.232.255" transform="translate(24.539 14.975)" fill="#1a1a1a"/>
      <path id="Trazado_605413" data-name="Trazado 605413" d="M189.647,88.362a1.629,1.629,0,0,1-.952-.283,2.2,2.2,0,0,1-.811-1.476c.463-.036.546.731,1.078,1.095a1.464,1.464,0,0,0,1.264.113c-.128.516-.36.551-.578.551" transform="translate(26.415 12.175)" fill="#1a1a1a"/>
      <path id="Trazado_605414" data-name="Trazado 605414" d="M226.862,122.972a2.17,2.17,0,0,1-1.095-.282,2.629,2.629,0,0,1-1.2-2.239,6.111,6.111,0,0,1,3.11-5.384,2.631,2.631,0,0,1,2.534-.082c1.435.829,1.607,3.231.381,5.356a4.772,4.772,0,0,1-3.733,2.63m2.245-7.808a2.746,2.746,0,0,0-1.218.319,5.646,5.646,0,0,0-2.855,4.942,2.181,2.181,0,0,0,.966,1.861c1.211.7,3.1-.275,4.194-2.179s1-4.019-.212-4.72a1.726,1.726,0,0,0-.875-.225" transform="translate(31.571 16.125)" fill="#1a1a1a"/>
      <path id="Trazado_605415" data-name="Trazado 605415" d="M203.132,140.512a6.074,6.074,0,0,1-5.766-7.984l9.063-27.352a6.064,6.064,0,0,1,5.766-4.164h38.213a6.186,6.186,0,0,1,1.347.147c.059.024,3.828,2.082,3.828,2.082-.221.408-3.961-1.634-3.961-1.634a5.682,5.682,0,0,0-1.214-.13H212.2a5.606,5.606,0,0,0-5.327,3.846l-9.063,27.354a5.611,5.611,0,0,0,5.327,7.373c.233.36.129.464,0,.464" transform="translate(27.704 14.201)" fill="#1a1a1a"/>
      <path id="Trazado_605416" data-name="Trazado 605416" d="M243.625,140.633H205.409a6.123,6.123,0,0,1-5.763-7.985l9.062-26.174a6.052,6.052,0,0,1,5.766-3.986h38.214a6.147,6.147,0,0,1,5.019,2.542,5.57,5.57,0,0,1,.746,5.114l-9.062,26.174a6.384,6.384,0,0,1-5.765,4.315m-29.152-37.682a5.586,5.586,0,0,0-5.327,3.675L200.084,132.8a5.66,5.66,0,0,0,5.324,7.369h38.217a5.909,5.909,0,0,0,5.325-4l9.062-26.174a5.116,5.116,0,0,0-.685-4.692,5.684,5.684,0,0,0-4.64-2.347Z" transform="translate(28.025 14.409)" fill="#1a1a1a"/>
      <path id="Trazado_605417" data-name="Trazado 605417" d="M195.583,134.4a9.311,9.311,0,0,0-1.171-3.118c-.127-.25-.248-.482-.343-.687-.1-.224-.209-.487-.317-.77-.62-1.6-1.468-3.789-4.5-3.264a24.878,24.878,0,0,0-6.081,2.65c2.049-1.993,5.818-3.059,5.978-3.1,3.449-.591,4.4,1.9,5.036,3.548.107.273.2.526.3.743.095.2.211.424.338.668.517,1,1.161,2.241.985,3.145a.233.233,0,0,1-.228.188" transform="translate(25.752 17.717)" fill="#1a1a1a"/>
      <path id="Trazado_605418" data-name="Trazado 605418" d="M190.7,133.8a5.83,5.83,0,0,1-1.738-3.453c.466.2.777,1.969,1.9,3.054-.041.375-.1.4-.163.4" transform="translate(26.567 18.325)" fill="#1a1a1a"/>
      <path id="Trazado_605419" data-name="Trazado 605419" d="M198.053,134.493a2.332,2.332,0,0,0-.519-2.028,9.465,9.465,0,0,1-1.179-2.442,12.865,12.865,0,0,0-1.907-3.729c-1.289-1.405-4.224.245-4.253.261-.1-.479,3.06-2.247,4.6-.576a13.221,13.221,0,0,1,2,3.873,9.578,9.578,0,0,0,1.089,2.3,1.861,1.861,0,0,1,.37,2.233.232.232,0,0,1-.2.1" transform="translate(26.739 17.613)" fill="#1a1a1a"/>
      <path id="Trazado_605420" data-name="Trazado 605420" d="M184.75,134.844a6.937,6.937,0,0,1-1.955-6.044,6.79,6.79,0,0,1,7.61-5.847,8.33,8.33,0,0,1,4.983,2.853,10.922,10.922,0,0,0-5.057-2.394,6.337,6.337,0,0,0-7.077,5.461,6.667,6.667,0,0,0,1.666,5.58c-.056.371-.114.391-.17.391" transform="translate(25.687 17.275)" fill="#1a1a1a"/>
      <path id="Trazado_605421" data-name="Trazado 605421" d="M198.476,128.1c-.411-.746-1.07-2.334-1.841-2.653-1.16-.486-2.629.693-2.64.706-.227-.415,1.406-1.721,2.82-1.137,1.127.47,1.851,2.687,1.882,2.781-.173.3-.2.3-.22.3" transform="translate(27.271 17.556)" fill="#1a1a1a"/>
      <path id="Trazado_605422" data-name="Trazado 605422" d="M196.828,128.532c3.662-14.363.6-23.1.567-23.187.469-.072,3.586,8.792-.343,23.017a.232.232,0,0,1-.224.17" transform="translate(27.672 14.81)" fill="#1a1a1a"/>
      <path id="Trazado_605423" data-name="Trazado 605423" d="M23.55,87.919c-.164-.067-15.606-15.509-15.606-15.509.328-.328,15.606,14.949,15.606,14.949L38.155,72.754c.328,0,11.02,10.692,11.02,10.692-.328.328-10.856-10.2-10.856-10.2L23.714,87.852a.228.228,0,0,1-.164.067" transform="translate(1.117 10.18)" fill="#1a1a1a"/>
      <path id="Trazado_605424" data-name="Trazado 605424" d="M54.762,78.484H52.334c0-.464,2.428-.464,2.428-.464.232.36.127.464,0,.464m-5.033,0h-2.6c0-.464,2.6-.464,2.6-.464.232.36.128.464,0,.464m-5.208,0H41.916c0-.464,2.605-.464,2.605-.464.232.36.128.464,0,.464m-5.209,0H36.706c0-.464,2.605-.464,2.605-.464.232.36.127.464,0,.464m-5.209,0H31.5c0-.464,2.605-.464,2.605-.464.232.36.128.464,0,.464m-5.21,0H26.287c0-.464,2.605-.464,2.605-.464.233.36.129.464,0,.464m-5.209,0h-2.6c0-.464,2.6-.464,2.6-.464.232.36.129.464,0,.464m-5.208,0H15.87c0-.464,2.605-.464,2.605-.464.232.36.127.464,0,.464m-5.21,0h-2.6c0-.464,2.6-.464,2.6-.464.233.36.128.464,0,.464m-5.208,0H5.452c0-.464,2.605-.464,2.605-.464.232.36.128.464,0,.464" transform="translate(0.766 10.969)" fill="#1a1a1a"/>
      <path id="Trazado_605425" data-name="Trazado 605425" d="M27.705,102.6c-3.222-1.144-8.292-8.6-8.479-10.589A1.735,1.735,0,0,1,20.3,90.171a1.363,1.363,0,0,1,.55-1.623,1.715,1.715,0,0,1,.667-.3,1.415,1.415,0,0,1,1.192.4c.065.095,5.214,13.64,5.214,13.64-.1.29-.156.314-.218.314M21.73,88.69a1.259,1.259,0,0,0-.609.236.907.907,0,0,0-.3,1.268c-.194.352-1.241.613-1.133,1.769.16,1.7,4.59,8.341,7.6,9.958L22.363,88.961a1.021,1.021,0,0,0-.633-.27" transform="translate(2.702 12.404)" fill="#1a1a1a"/>
      <path id="Trazado_605426" data-name="Trazado 605426" d="M36.033,96.69c-.052-.006-9.789-2.261-9.789-2.261a36.044,36.044,0,0,1-3.458-4.144c-.651-.892-1.228-1.674-1.086-2.418a1.43,1.43,0,0,1,.717-.94c1.365-.844,2.221.374,2.791,1.181.107.153.263.384.452.66a32.679,32.679,0,0,0,2.028,2.8c.943,1.062,2.254,2.177,2.985,2.114a.584.584,0,0,0,.465-.3,1.547,1.547,0,0,0,.162-.887,8.112,8.112,0,0,0-.163-.968c-.257-1.258-.606-2.979.088-3.724a1.246,1.246,0,0,1,1.139-.335,1.791,1.791,0,0,1,1.058.417,1.831,1.831,0,0,1,.443.924c.163.684.276,1.419.387,2.126.3,1.934.609,3.935,1.948,5.365-.008.348-.087.391-.168.391m-9.621-2.7,9,2.085A11.325,11.325,0,0,1,33.793,91c-.113-.732-.221-1.423-.381-2.092a1.357,1.357,0,0,0-.314-.7,1.378,1.378,0,0,0-.793-.291.8.8,0,0,0-.74.19c-.53.57-.194,2.222.025,3.316a8.522,8.522,0,0,1,.175,1.037,1.992,1.992,0,0,1-.235,1.161,1.048,1.048,0,0,1-.82.513c-1.165.073-2.736-1.553-3.369-2.265a33.629,33.629,0,0,1-2.067-2.849c-.184-.273-.339-.5-.445-.655-.78-1.105-1.33-1.577-2.166-1.052a.98.98,0,0,0-.506.632c-.1.544.4,1.232.774,1.735a44.632,44.632,0,0,0,3.481,4.3" transform="translate(3.048 12.181)" fill="#1a1a1a"/>
      <path id="Trazado_605427" data-name="Trazado 605427" d="M24.521,95.8a28.191,28.191,0,0,1-2.294-2.615,21.428,21.428,0,0,1-1.9-2.926c.356-.319,1.358,1.542,2.261,2.629,1.114,1.342,2.114,2.53,2.114,2.53-.072.365-.124.382-.177.382" transform="translate(2.857 12.684)" fill="#1a1a1a"/>
      <path id="Trazado_605428" data-name="Trazado 605428" d="M11.486,98.661H6.2a45.62,45.62,0,0,1-.233-5.516,45.844,45.844,0,0,1,5.516-.232,45.815,45.815,0,0,1,.232,5.515.233.233,0,0,1-.232.233M6.434,98.2h4.819V93.378H6.434Z" transform="translate(0.839 13.063)" fill="#1a1a1a"/>
      <path id="Trazado_605429" data-name="Trazado 605429" d="M11.486,108.1H6.2a45.629,45.629,0,0,1-.233-5.516,45.618,45.618,0,0,1,5.516-.233,45.825,45.825,0,0,1,.232,5.515.233.233,0,0,1-.232.234m-5.052-.465h4.819v-4.819H6.434Z" transform="translate(0.839 14.389)" fill="#1a1a1a"/>
      <path id="Trazado_605430" data-name="Trazado 605430" d="M31.641,59.617H16.26c0-.464,15.381-.464,15.381-.464.232.36.128.464,0,.464" transform="translate(2.286 8.316)" fill="#1a1a1a"/>
      <path id="Trazado_605431" data-name="Trazado 605431" d="M12.127,59.617H8.088c0-.464,4.039-.464,4.039-.464.232.36.128.464,0,.464" transform="translate(1.137 8.316)" fill="#1a1a1a"/>
      <path id="Trazado_605432" data-name="Trazado 605432" d="M32.79,62.7H8.088c0-.463,24.7-.463,24.7-.463.232.36.128.463,0,.463" transform="translate(1.137 8.75)" fill="#1a1a1a"/>
      <path id="Trazado_605433" data-name="Trazado 605433" d="M19.434,65.82H8.089c0-.464,11.345-.464,11.345-.464.232.36.128.464,0,.464" transform="translate(1.137 9.188)" fill="#1a1a1a"/>
      <path id="Trazado_605434" data-name="Trazado 605434" d="M213.841,81.185l-11.918-.029c0-.464,11.685-.436,11.685-.436V20.953H153.842v48.29c-.466,0-.466-48.522-.466-48.522.233-.232,60.465-.232,60.465-.232.234.232.234,60.464.234,60.464-.113.209-.172.232-.234.232" transform="translate(21.563 2.881)" fill="#1a1a1a"/>
      <path id="Trazado_605435" data-name="Trazado 605435" d="M202.866,64.407H191.6c-.234-.233-.234-14.1-.234-14.1.234-.232,11.5-.232,11.5-.232.233.232.233,14.1.233,14.1a.234.234,0,0,1-.233.233m-11.032-.465h10.8v-13.4h-10.8Z" transform="translate(26.905 7.04)" fill="#1a1a1a"/>
      <path id="Trazado_605436" data-name="Trazado 605436" d="M191.506,87.168a2.468,2.468,0,0,0,.962-1.823,3.134,3.134,0,0,1-1.615-.428,13.312,13.312,0,0,1-.712-2.872,15.3,15.3,0,0,1,1.071,2.578,4.676,4.676,0,0,0,1.506.275,1.679,1.679,0,0,1-1.174,2.268l-.038,0" transform="translate(26.732 11.535)" fill="#1a1a1a"/>
      <path id="Trazado_605437" data-name="Trazado 605437" d="M186.478,82.968a1.707,1.707,0,0,1,.891-1.88,1.934,1.934,0,0,1,1.622-.07c-.631.273-1.049.285-1.4.477a2.2,2.2,0,0,0-.889,1.291.232.232,0,0,1-.227.181" transform="translate(26.207 11.37)" fill="#1a1a1a"/>
      <path id="Trazado_605438" data-name="Trazado 605438" d="M208.521,136.334H177.167a1.633,1.633,0,1,1,0-3.267h24.217c0,.464-24.217.464-24.217.464a1.17,1.17,0,0,0,0,2.339h31.354c.233.359.129.463,0,.463" transform="translate(24.678 18.708)" fill="#1a1a1a"/>
      <path id="Trazado_605439" data-name="Trazado 605439" d="M186.906,133.767c2.508-.61,2.636-2.355,2.638-2.374.462.048.308,2.2-2.624,2.374Z" transform="translate(26.277 18.473)" fill="#1a1a1a"/>
      <path id="Trazado_605440" data-name="Trazado 605440" d="M82.826,40.487H58.773a1.008,1.008,0,0,1-1.008-1.006V31.932a1.009,1.009,0,0,1,1.008-1.007H82.826a1.009,1.009,0,0,1,1.008,1.007v7.548a1.008,1.008,0,0,1-1.008,1.006M58.773,31.71c-.221.222-.221,7.771-.221,7.771.221.22,24.274.22,24.274.22.221-.22.221-7.769.221-7.769-.221-.222-24.274-.222-24.274-.222" transform="translate(8.121 4.348)"/>
      <path id="Trazado_605441" data-name="Trazado 605441" d="M74.309,35.411H60.6a.315.315,0,0,1,0-.63H74.309a.315.315,0,0,1,0,.63" transform="translate(8.475 4.89)"/>
      <path id="Trazado_605442" data-name="Trazado 605442" d="M76.781,33.383H60.6a.315.315,0,1,1,0-.63H76.781a.315.315,0,0,1,0,.63" transform="translate(8.475 4.605)"/>
      <path id="Trazado_605443" data-name="Trazado 605443" d="M71.634,37.559H60.6a.315.315,0,1,1,0-.63H71.634a.315.315,0,1,1,0,.63" transform="translate(8.475 5.192)"/>
      <path id="Trazado_605444" data-name="Trazado 605444" d="M82.826,29.339H58.773a1.008,1.008,0,0,1-1.008-1.006V20.784a1.009,1.009,0,0,1,1.008-1.007H82.826a1.009,1.009,0,0,1,1.008,1.007v7.548a1.008,1.008,0,0,1-1.008,1.006M58.773,20.562c-.221.222-.221,7.771-.221,7.771.221.22,24.274.22,24.274.22.221-.22.221-7.769.221-7.769-.221-.222-24.274-.222-24.274-.222" transform="translate(8.121 2.78)"/>
      <path id="Trazado_605445" data-name="Trazado 605445" d="M74.309,24.263H60.6a.315.315,0,1,1,0-.63H74.309a.315.315,0,1,1,0,.63" transform="translate(8.475 3.323)"/>
      <path id="Trazado_605446" data-name="Trazado 605446" d="M76.781,22.235H60.6a.315.315,0,1,1,0-.63H76.781a.315.315,0,1,1,0,.63" transform="translate(8.475 3.037)"/>
      <path id="Trazado_605447" data-name="Trazado 605447" d="M71.634,26.411H60.6a.315.315,0,1,1,0-.63H71.634a.315.315,0,1,1,0,.63" transform="translate(8.475 3.625)"/>
      <path id="Trazado_605448" data-name="Trazado 605448" d="M82.826,51.635H58.773a1.008,1.008,0,0,1-1.008-1.006V43.08a1.009,1.009,0,0,1,1.008-1.007H82.826a1.009,1.009,0,0,1,1.008,1.007v7.548a1.008,1.008,0,0,1-1.008,1.006M58.773,42.858c-.221.222-.221,7.771-.221,7.771.221.22,24.274.22,24.274.22.221-.22.221-7.769.221-7.769-.221-.222-24.274-.222-24.274-.222" transform="translate(8.121 5.915)"/>
      <path id="Trazado_605449" data-name="Trazado 605449" d="M74.309,46.559H60.6a.315.315,0,1,1,0-.63H74.309a.315.315,0,1,1,0,.63" transform="translate(8.475 6.457)"/>
      <path id="Trazado_605450" data-name="Trazado 605450" d="M76.781,44.529H60.6a.314.314,0,1,1,0-.628H76.781a.314.314,0,1,1,0,.628" transform="translate(8.475 6.172)"/>
      <path id="Trazado_605451" data-name="Trazado 605451" d="M71.634,48.707H60.6a.315.315,0,0,1,0-.63H71.634a.315.315,0,0,1,0,.63" transform="translate(8.475 6.759)"/>
      <rect id="Rectángulo_345712" data-name="Rectángulo 345712" width="30.854" height="38.405" transform="translate(98.856 20.078)" fill="#fff7c2"/>
      <path id="Trazado_605452" data-name="Trazado 605452" d="M118.588,54.755H88.049a.257.257,0,0,1-.257-.255V16.566a.256.256,0,0,1,.257-.255h30.539a.256.256,0,0,1,.257.255V54.5a.257.257,0,0,1-.257.255m-30.283-.512h30.026V16.823H88.305Z" transform="translate(12.343 2.293)" fill="#1a1a1a"/>
      <path id="Trazado_605453" data-name="Trazado 605453" d="M98.623,40.106a.257.257,0,0,1-.257-.257l0-2.2a.257.257,0,0,1,.513,0l0,2.2a.257.257,0,0,1-.255.257Z" transform="translate(13.829 5.258)" fill="#1a1a1a"/>
      <path id="Trazado_605454" data-name="Trazado 605454" d="M98.989,39.808a6.1,6.1,0,0,1-3.289-.822c-2.118-1.356-1.572-3.774-1.173-5.541.095-.419.184-.813.22-1.129.182-1.6.506-8.07.51-8.135a.259.259,0,0,1,.269-.243.256.256,0,0,1,.243.269c-.013.266-.327,6.553-.512,8.167a11.7,11.7,0,0,1-.229,1.184c-.387,1.709-.867,3.834.948,5,2.329,1.492,6.245.251,6.285.237a.256.256,0,1,1,.157.488,12.245,12.245,0,0,1-3.429.528" transform="translate(13.237 3.365)" fill="#1a1a1a"/>
      <path id="Trazado_605455" data-name="Trazado 605455" d="M105.812,30.122a.263.263,0,0,1-.254-.293,8.949,8.949,0,0,0-1.036-4.722,19.347,19.347,0,0,1-9.165-.672.257.257,0,0,1-.156-.327.26.26,0,0,1,.328-.155,19.248,19.248,0,0,0,9.081.617.252.252,0,0,1,.276.127,9.607,9.607,0,0,1,1.178,5.207.256.256,0,0,1-.253.219" transform="translate(13.382 3.366)" fill="#1a1a1a"/>
      <path id="Trazado_605456" data-name="Trazado 605456" d="M109.309,29.876c-.211-.054-.286-.2-.244-.333.017-.056,1.733-5.628.129-7.424a2.34,2.34,0,0,0-2.895-.911,10.488,10.488,0,0,1-1.512.255A6.146,6.146,0,0,1,101.3,20.3c-1.558-.877-3.171-1.784-5.231-.946a3.948,3.948,0,0,0-2.585,3.922,2.942,2.942,0,0,0,2.191,2.781.257.257,0,0,1-.127.5,3.442,3.442,0,0,1-2.577-3.244,4.458,4.458,0,0,1,2.9-4.433c2.29-.932,4.089.08,5.676.974a5.9,5.9,0,0,0,3.195,1.1,10.407,10.407,0,0,0,1.443-.248,2.814,2.814,0,0,1,3.391,1.071c1.8,2.012.051,7.678-.023,7.918a.258.258,0,0,1-.245.18" transform="translate(13.069 2.602)" fill="#1a1a1a"/>
      <path id="Trazado_605457" data-name="Trazado 605457" d="M103.06,27.522a5.232,5.232,0,0,0-1.269-.7.257.257,0,0,1-.187-.313.264.264,0,0,1,.311-.185,3.377,3.377,0,0,1,1.323.761.255.255,0,0,1-.178.44" transform="translate(14.283 3.7)" fill="#1a1a1a"/>
      <path id="Trazado_605458" data-name="Trazado 605458" d="M96.273,27.36c-.276-.159-.285-.321-.192-.427a2.471,2.471,0,0,1,1.293-.618.267.267,0,0,1,.292.216.257.257,0,0,1-.214.292,1.935,1.935,0,0,0-.988.452.258.258,0,0,1-.192.086" transform="translate(13.501 3.7)" fill="#1a1a1a"/>
      <path id="Trazado_605459" data-name="Trazado 605459" d="M97.4,33.151c-.262-.306-.4-2.005.66-4.956a.261.261,0,0,1,.328-.155.257.257,0,0,1,.155.328,13.629,13.629,0,0,0-.893,4.173l.915-.3a.257.257,0,0,1,.161.488l-1.247.409a.239.239,0,0,1-.08.013" transform="translate(13.667 3.94)" fill="#1a1a1a"/>
      <path id="Trazado_605460" data-name="Trazado 605460" d="M106.71,33.391a2.763,2.763,0,0,1-1.509-.445.256.256,0,0,1,.279-.43,2.265,2.265,0,1,0-.826-2.853.256.256,0,1,1-.465-.216,2.777,2.777,0,1,1,2.521,3.943" transform="translate(14.645 3.914)" fill="#1a1a1a"/>
      <path id="Trazado_605461" data-name="Trazado 605461" d="M102.21,43.476c-3.758,0-3.844-2.872-3.844-2.9a.256.256,0,0,1,.252-.26.261.261,0,0,1,.26.252c0,.1.092,2.391,3.317,2.4,3.607,0,4.778-1.914,4.955-2.248v-8.2a.257.257,0,0,1,.513,0v8.264c-.071.212-1.254,2.7-5.453,2.7" transform="translate(13.829 4.535)" fill="#1a1a1a"/>
      <path id="Trazado_605462" data-name="Trazado 605462" d="M96.445,29.467a.292.292,0,0,1-.276-.306l.042-.819a.292.292,0,1,1,.583.03l-.042.82a.292.292,0,0,1-.307.275" transform="translate(13.52 3.946)" fill="#1a1a1a"/>
      <path id="Trazado_605463" data-name="Trazado 605463" d="M100.74,29.645a.293.293,0,0,1-.276-.307l.042-.82a.292.292,0,0,1,.583.031l-.042.819a.3.3,0,0,1-.307.277" transform="translate(14.124 3.971)" fill="#1a1a1a"/>
      <path id="Trazado_605464" data-name="Trazado 605464" d="M98.972,34.809c-.137-.039-1.717-1.039-1.717-1.039a.257.257,0,0,1,.275-.435l1.379.876,1.3-1.729a.256.256,0,1,1,.411.307l-1.439,1.918a.258.258,0,0,1-.205.1" transform="translate(13.657 4.552)" fill="#1a1a1a"/>
      <path id="Trazado_605465" data-name="Trazado 605465" d="M88.049,47.8c-.222-.065-.29-.213-.241-.346,2.5-6.693,11.869-7.9,12.267-7.946a.257.257,0,0,1,.062.51c-.094.011-9.453,1.217-11.847,7.616a.256.256,0,0,1-.241.167" transform="translate(12.343 5.553)" fill="#1a1a1a"/>
      <path id="Trazado_605466" data-name="Trazado 605466" d="M116.019,44.2c-3.839-3.449-9.667-4.179-9.725-4.186a.257.257,0,0,1,.06-.51c.245.031,6.053.758,9.839,4.251a.256.256,0,0,1,.014.363.253.253,0,0,1-.188.082" transform="translate(14.912 5.554)" fill="#1a1a1a"/>
      <path id="Trazado_605467" data-name="Trazado 605467" d="M107.157,31.953c-.116-.027-2.132-1.046-2.132-1.046-.054-.421,1.962-2.21,1.962-2.21a.257.257,0,0,1,.34.384l-1.733,1.538,1.678.85a.256.256,0,0,1-.115.485" transform="translate(14.765 4.025)" fill="#1a1a1a"/>
    </g>
  </g>
</svg>
