<svg xmlns="http://www.w3.org/2000/svg" xmlns:xlink="http://www.w3.org/1999/xlink" width="462" height="300.43" viewBox="0 0 462 300.43">
  <defs>
    <clipPath id="clip-path">
      <rect id="Rectángulo_346068" data-name="Rectángulo 346068" width="397.274" height="264.166" fill="none"/>
    </clipPath>
    <clipPath id="clip-path-2">
      <rect id="Rectángulo_346071" data-name="Rectángulo 346071" width="49.294" height="49.295" transform="translate(0 0)" fill="none"/>
    </clipPath>
  </defs>
  <g id="Grupo_1015574" data-name="Grupo 1015574" transform="translate(-223 -3713.57)">
    <rect id="Rectángulo_346070" data-name="Rectángulo 346070" width="462" height="95" rx="47.5" transform="translate(223 3919)" fill="#a3bfe4"/>
    <g id="Grupo_1015571" data-name="Grupo 1015571" transform="translate(265 3713.57)">
      <rect id="Rectángulo_346067" data-name="Rectángulo 346067" width="176.038" height="105.123" transform="translate(110.789 116.955)" fill="#fff"/>
      <g id="Grupo_1015570" data-name="Grupo 1015570">
        <g id="Grupo_1015569" data-name="Grupo 1015569" clip-path="url(#clip-path)">
          <path id="Trazado_605818" data-name="Trazado 605818" d="M133.824,123.508H107.792c0-.788,26.032-.788,26.032-.788.394.611.217.788,0,.788" transform="translate(87.074 99.133)" fill="#1a1a1a"/>
          <path id="Trazado_605819" data-name="Trazado 605819" d="M167.714,141.765H135.832c0-.788,31.882-.788,31.882-.788a9.04,9.04,0,0,0,9.032-9.032V100.119c.788,0,.788,31.826.788,31.826a9.832,9.832,0,0,1-9.82,9.82" transform="translate(109.725 80.876)" fill="#1a1a1a"/>
          <path id="Trazado_605820" data-name="Trazado 605820" d="M158.858,105.778c-.394-.394-.394-12.177-.394-12.177.788,0,.788,11.783.788,11.783a.394.394,0,0,1-.394.394" transform="translate(128.007 75.611)" fill="#1a1a1a"/>
          <path id="Trazado_605821" data-name="Trazado 605821" d="M136.552,109.637H33.8a8.946,8.946,0,0,1-8.921-8.921V25.442A8.947,8.947,0,0,1,33.8,16.521H136.552a8.948,8.948,0,0,1,8.921,8.921v75.273a8.947,8.947,0,0,1-8.921,8.921" transform="translate(20.096 13.346)" fill="#33ece0"/>
          <path id="Trazado_605822" data-name="Trazado 605822" d="M158.789,101.847l35.982,2.215s5.418,2.027,2.529,32.085-5.765,45.251-5.765,45.251H176.061l-17.61-67.575Z" transform="translate(127.996 82.272)" fill="#afafaf"/>
          <path id="Trazado_605823" data-name="Trazado 605823" d="M188.976,106.6s10.082,1.925,15.782,11.044A99.482,99.482,0,0,1,216.333,143.5c1.97,7.352,5.308,20.446,3.771,27.905s-1.768,8.122-1.768,8.122l-91.635.092s-5.488-3.532-9.838-16.033-9.072-33.517-9.072-33.517,1.887-4.556,10.167-7.021,11.924-2.688,13-.457,7.423,18.49,7.423,18.49,1.9-16.952,7.748-24.528A34.645,34.645,0,0,1,166.383,104s3.071,2.918,6.647,1.978l-1.381,6.553,11.754-7.258s1.347,2.961,5.572,1.323" transform="translate(87.073 84.014)" fill="#1a1a1a"/>
          <path id="Trazado_605824" data-name="Trazado 605824" d="M38.208,91.039s-9.824,4.606-16.8,17.939S11.98,126,8.986,137.731s-1.951,17.608-1.432,19.915,1.8,12.291,12.4,15.856v18.033H68.49a19.635,19.635,0,0,1-8.184-4.275c-4.463-3.646-4.836-3.424-4.836-3.424s-1.981-3.487-.714-6.951,12.526-32.792,12.526-32.792l5.143-12.969s3.983-5.649,9.254-5.859,10.521-.273,10.521-.273-3.755-17.57-7.978-23.72A29.283,29.283,0,0,0,66.283,89.565c-6.521-1.188-28.075,1.473-28.075,1.473" transform="translate(5.613 72.104)" fill="#fff198"/>
          <path id="Trazado_605825" data-name="Trazado 605825" d="M130.048,126.484s.28-7.936.277-10.711-.75-5.425-4.617-5.315L110.621,103.9s-3.822-1.9-5.013.734,5.02,5.546,5.02,5.546-3.7.768-2,4.028c0,0-3.31.034-3.285,2.961s5.5,5.389,5.5,5.389l5.017,9s10.3-1.5,14.189-5.067" transform="translate(85.098 83.392)" fill="#fff"/>
          <path id="Trazado_605826" data-name="Trazado 605826" d="M158.568,120.785s-2.576-2.444-1.835-7.2a14.247,14.247,0,0,1,4.051-7.723,4.223,4.223,0,0,0,3.35-3.917c.186-3.326-3.357-4.961-5.554-4.268L155,95.1s-.7-3.619-2.535-3.925l-1.837-.307s-5.353-3.706-5.38-6.062l-1.678,5.532a3.053,3.053,0,0,0-3.1,1.1c-1.345,1.625-3.708,8.417.277,10.825.322.53-1.329,10.4,6.683,10.171l.766,9.052-1.381,6.555Z" transform="translate(111.91 68.506)" fill="#fff"/>
          <path id="Trazado_605827" data-name="Trazado 605827" d="M42.888,104.634l-1.242,6.64s-.358,2.73,1.242,3.795,8.354-3.833,8.354-3.833,5.508-5.065,7.461-4.547,2.462,1.743,2.135,3.238l-.445.882a2.325,2.325,0,0,1,3.019,1.761L57,113.487a13.075,13.075,0,0,0-8.285,8.3,77.149,77.149,0,0,1-3.8,9.887l-2.422,1.18s-2.168-4.657-4.08-6.57a30.294,30.294,0,0,1-3.776-5.127,8.821,8.821,0,0,0,1.931-5.888c.033-3.945,2.488-9.834,6.32-10.633" transform="translate(27.98 84.523)" fill="#fff"/>
          <path id="Trazado_605828" data-name="Trazado 605828" d="M140.434,92.418s-1.459-8.894,4.794-9.775a36.848,36.848,0,0,1,14.833-.221c7.783,1.587,10.935,5.9,10.959,10.216,0,0-3.437,16.382-3.574,18.374s-.354,3.218,2.191,4.129,8.1,6.139,10.135,14.761,2,11.4,2,11.4-3.18-7.506-8.645-11.261-6.015-4.619-9.58-5.112-6.325.013-7.334-3.319-1.141-5.009-.2-8.133a11.985,11.985,0,0,1,3.359-5.158,4.153,4.153,0,0,0,3.35-4.1c-.063-3.44-4-4.38-5.555-4.086-.378.02-3.579-2.582-3.579-2.582s-.539-3.437-2.182-3.923-1.989,0-1.989,0-3.424-2.845-4.34-4.433a11.183,11.183,0,0,1-1.126-2.381l-1.651,6.2Z" transform="translate(113.323 66.053)" fill="#ffce26"/>
          <path id="Trazado_605829" data-name="Trazado 605829" d="M146.234,100.672l.767,9.263s-5.635.24-6.647-2.892a9.859,9.859,0,0,1,1.2-7.674s2.607,1.678,4.679,1.3" transform="translate(113.105 80.27)" fill="#ffce26"/>
          <path id="Trazado_605830" data-name="Trazado 605830" d="M51.033,106.635a46.348,46.348,0,0,0-5-5.112l.231-4.38s3.69.447,5.084-2.623a19.533,19.533,0,0,0,1.43-8.724c-.036-2.676-.257-10.465-.257-10.465s-5.243.38-8.607-.861a41.589,41.589,0,0,1-6.877-3.505s1.992,6.17-1.544,10c0,0-4.812-.926-5.611,3.587s3.917,4.876,5.425,4.373c0,0,5.225,3.09,5.723,7.493a8.06,8.06,0,0,1-3.65,7.815l-1.526.564c-1.641.553-6.645,2.186-7.743,1.835a76.977,76.977,0,0,0,5.062,10c2.354,3.534,4.228,4.492,6.739,4.113s3.4-1.916,3.9-3.7a16.324,16.324,0,0,0,.161-4.794s4.89,6.976,8.714,3.751-.577-7.772-1.651-9.366" transform="translate(22.707 57.324)" fill="#fff"/>
          <path id="Trazado_605831" data-name="Trazado 605831" d="M25.547,108.59a17.806,17.806,0,0,0,9.655,1.135c5.131-.951,7.81-2.661,9.109-4.223s2.464-4.5,1.294-6.891-3.008-5.346-5.3-6.407c0,0-4.89,1.1-5.225-3.033s2.674-5.2,5.226-4.7a6.3,6.3,0,0,0,2.139-4.429,17.075,17.075,0,0,0-.412-5.8,20.2,20.2,0,0,0,15.294,4.2,15.752,15.752,0,0,0,.19-5.221c-.376-2.911-1.567-4.771-4.209-4.881A23.223,23.223,0,0,0,41.6,67.188c-6.626,1.039-10.465,2.565-12.3,5.02a11.476,11.476,0,0,0-2.045,5.431l3.3,18.266s-6.682-.5-8.121,3.529.313,8.077,3.118,9.156" transform="translate(17.701 54.049)" fill="#1a1a1a"/>
          <path id="Trazado_605832" data-name="Trazado 605832" d="M38.254,85.956l-.231,4.207,3.158,2.822,1.128.237s1.846-2.3,1.184-4.274a25.027,25.027,0,0,0-1.782-3.921Z" transform="translate(30.715 68.685)" fill="#1a1a1a"/>
          <path id="Trazado_605833" data-name="Trazado 605833" d="M40.025,110.846,44.6,97.072H73.108c-4.2,13.962-4.95,21.609-4.95,21.609l-11.592.419s-7.439,1.82-8.744,4.93l-10.129-.595Z" transform="translate(30.448 78.414)" fill="#fff"/>
          <path id="Trazado_605834" data-name="Trazado 605834" d="M131.464,112.516a5.527,5.527,0,0,0-4.646,3.878c-1.305,3.71-.311,4.774,0,6.09s1.967,4.659.17,6.873-4.042,8.363-.043,11.87,10.362.564,11.4-.4,4.225-4.946,3.4-9.856-2.108-5.5-1.358-7.886,1.094-6.488-2.09-9.122a7.646,7.646,0,0,0-6.83-1.443" transform="translate(100.744 90.673)" fill="#fff"/>
          <path id="Trazado_605835" data-name="Trazado 605835" d="M133.578,106.213a4.264,4.264,0,0,0-2.554,4.418c.3,3.335,2.486,4.435,3.288,4.077s2.468-1.481,2.292-4.386-1.763-4.124-3.026-4.109" transform="translate(105.823 85.798)" fill="#fff"/>
          <path id="Trazado_605836" data-name="Trazado 605836" d="M145.026,138.28l-.043-5.59s-2.287-1.734-10.4-1.58-10.59,1.58-10.59,1.58l.152,23.274s3.692,1.578,10.722,1.385,6.993-.392,6.993-.392l2.421-.32Z" transform="translate(100.159 105.903)" fill="#ffce26"/>
          <path id="Trazado_605837" data-name="Trazado 605837" d="M141.757,133.133v3.684a29.673,29.673,0,0,1-6.145.325c-2.887-.221-5.64-.427-6.3,1.719a4.337,4.337,0,0,0,.264,3.527,3.177,3.177,0,0,0-1.542,2.536c-.023,1.689,1.911,3.617,1.911,3.617a4.967,4.967,0,0,0-1.012,3.323c.219,1.792,3.243,3.381,8.8,3.3a29.443,29.443,0,0,0,10-1.952s1.461-3.348,1.41-10.829-.718-7.388-.718-7.388-4.53-2.9-6.665-1.867" transform="translate(103.427 107.365)" fill="#fff"/>
          <path id="Trazado_605838" data-name="Trazado 605838" d="M119.678,106.643a9.906,9.906,0,1,1-9.9-9.9,9.905,9.905,0,0,1,9.9,9.9" transform="translate(80.671 78.145)" fill="#983333"/>
          <path id="Trazado_605839" data-name="Trazado 605839" d="M136.421,107.425s.759-5.478,6.033-5.411l.953,3.381Z" transform="translate(110.2 82.406)" fill="#ffce26"/>
          <path id="Trazado_605840" data-name="Trazado 605840" d="M48.726,73.22c-.376-2.911-1.567-4.771-4.207-4.881A23.261,23.261,0,0,0,32.8,67.187a7.461,7.461,0,0,0,1.211.06c10.865-.049,11.848,9.026,11.848,9.026-3.977.347-12.62-2.034-12.62-2.034a20.2,20.2,0,0,0,15.294,4.2,15.811,15.811,0,0,0,.19-5.221" transform="translate(26.498 54.049)" fill="#fff"/>
          <path id="Trazado_605841" data-name="Trazado 605841" d="M30.6,97.871c3.581-.98,5.61-2.375,6.689-3.672,1.3-1.562,2.462-4.5,1.294-6.89s-3.008-5.347-5.3-6.409c-.531.081-1.963.494-1.963.494a9.451,9.451,0,0,1,4.811,8.329c-.172,5.221-4.724,7.739-5.535,8.148" transform="translate(24.721 65.352)" fill="#fff"/>
          <path id="Trazado_605842" data-name="Trazado 605842" d="M40.093,92.788a9.385,9.385,0,0,0,1.464.277c.392-.542,1.627-2.442,1.067-4.116a25.027,25.027,0,0,0-1.782-3.921L39.1,85.69s3.167,4.013.994,7.1" transform="translate(31.584 68.685)" fill="#fff"/>
          <path id="Trazado_605843" data-name="Trazado 605843" d="M216.257,68.495h-44.24a11.288,11.288,0,0,1-11.255-11.254V35.681a11.288,11.288,0,0,1,11.255-11.255h44.24a11.288,11.288,0,0,1,11.255,11.255v21.56a11.288,11.288,0,0,1-11.255,11.254" transform="translate(129.862 19.731)" fill="#fff198"/>
          <path id="Trazado_605844" data-name="Trazado 605844" d="M142.3,93.012l1.651-6.2a11.184,11.184,0,0,0,1.126,2.381c.918,1.587,4.341,4.433,4.341,4.433s.192-.259.935-.208c-2.408-2.853-4.538-5.951-4.406-7.871.208-2.968,4.85-3.641,7.727-3.771a36.479,36.479,0,0,0-8.444.868c-6.253.879-4.794,9.773-4.794,9.773Z" transform="translate(113.322 66.056)" fill="#fff"/>
          <path id="Trazado_605845" data-name="Trazado 605845" d="M147.559,90.1c.154.721,3.355,3.321,3.355,3.321s-1.486-1.372-3.355-3.321" transform="translate(119.198 72.783)" fill="#fff"/>
          <path id="Trazado_605846" data-name="Trazado 605846" d="M142.919,100.077a10.726,10.726,0,0,1-1.365-.707,9.857,9.857,0,0,0-1.2,7.672c1.011,3.135,6.645,2.894,6.645,2.894-8.13-.063-4.08-9.86-4.08-9.86" transform="translate(113.105 80.271)" fill="#fff"/>
          <path id="Trazado_605847" data-name="Trazado 605847" d="M156,113.371c-10.256-2.037-1.481-17.414-1.481-17.414a5.031,5.031,0,0,1-1.887.9,11.992,11.992,0,0,0-3.357,5.156c-.944,3.124-.812,4.8.2,8.133.931,3.075,3.357,2.883,6.53,3.223" transform="translate(120.065 77.514)" fill="#fff"/>
          <path id="Trazado_605848" data-name="Trazado 605848" d="M61.074,74.879H237.529V68.034s-.841-7.848-8.887-8.289-157.248,0-157.248,0S61.074,60,61.074,68.333Z" transform="translate(49.335 48.104)" fill="#1a1a1a"/>
          <path id="Trazado_605849" data-name="Trazado 605849" d="M30.049,33.815h120.6V29.87s-1.41-7.972-8.46-7.972H39.4s-10.675.951-9.355,11.917" transform="translate(24.183 17.689)" fill="#1a1a1a"/>
          <path id="Trazado_605850" data-name="Trazado 605850" d="M14.075,152.689s25.4-2.533,41.151-27.605c0,0-9.6,8.905-16.559,13s-16.469,8.683-24.472,6.483Z" transform="translate(11.37 101.042)" fill="#1a1a1a"/>
          <path id="Trazado_605851" data-name="Trazado 605851" d="M148.788,65.4a3.6,3.6,0,1,1-3.6-3.6,3.6,3.6,0,0,1,3.6,3.6" transform="translate(114.378 49.92)" fill="#fff"/>
          <path id="Trazado_605852" data-name="Trazado 605852" d="M155.618,65.4a3.6,3.6,0,1,1-3.6-3.6,3.6,3.6,0,0,1,3.6,3.6" transform="translate(119.894 49.92)" fill="#ffce26"/>
          <path id="Trazado_605853" data-name="Trazado 605853" d="M141.958,65.4a3.6,3.6,0,1,1-3.6-3.6,3.6,3.6,0,0,1,3.6,3.6" transform="translate(108.861 49.92)" fill="#fff"/>
          <path id="Trazado_605854" data-name="Trazado 605854" d="M185.551,36.806c-1.175-2.01-3.1-2.008-4.27,0L172.26,52.258c-1.175,2.01-.23,3.654,2.1,3.654h18.125c2.327,0,3.27-1.643,2.1-3.654Z" transform="translate(138.743 28.515)" fill="#fff"/>
          <path id="Trazado_605855" data-name="Trazado 605855" d="M149.157,96.217s-.3-1.672-1.808-.978-1.26,2.283-2.724,1.788-2.379-1.341-2.95-.249,1.535,3.357,3.3,3.415.4-.033.4-.033.155-1.989,1.01-2.585a18.285,18.285,0,0,1,2.779-1.358" transform="translate(114.367 76.798)" fill="#1a1a1a"/>
          <path id="Trazado_605856" data-name="Trazado 605856" d="M158.6,148.279s3.954-4.93,9.916-5.42a13.292,13.292,0,0,1,9.525,2.708l-.745,2.62Z" transform="translate(128.115 115.359)" fill="#afafaf"/>
          <path id="Trazado_605857" data-name="Trazado 605857" d="M18.983,132.111c8.605-9.352,24.982-19.772,25.146-19.877.577.123,3.352,2.433,7.844,8.471a37.654,37.654,0,0,1,4.534,8.113c-1.381-1.323-2.824-4.5-5.165-7.645a56.952,56.952,0,0,0-7.038-8.119C42.22,114.394,27.483,123.961,19.258,132a.4.4,0,0,1-.275.112" transform="translate(15.334 90.662)" fill="#1a1a1a"/>
          <path id="Trazado_605858" data-name="Trazado 605858" d="M24.84,173.969a14.724,14.724,0,0,1-7.777-2.043A20.5,20.5,0,0,1,7.61,158.585c-3.9-16.456,6.955-39.853,13.985-51.081a80.541,80.541,0,0,1,6.781-9.592,36.987,36.987,0,0,1,9.782-7.86c-2.831,2.368-6.758,5.525-9.182,8.372a79.8,79.8,0,0,0-6.716,9.5C15.295,119.044,4.531,142.2,8.375,158.4a19.74,19.74,0,0,0,9.1,12.85c11.434,6.946,31.96-6.056,47.236-22.01-8.988,10.523-26.475,24.723-39.867,24.725" transform="translate(5.482 72.743)" fill="#1a1a1a"/>
          <path id="Trazado_605859" data-name="Trazado 605859" d="M59.184,103.469c-4.953-7.5-11.208-11.968-19.461-13.828,8.639,1.143,15.057,5.718,19.792,13.224-.186.582-.26.6-.331.6" transform="translate(32.088 72.412)" fill="#1a1a1a"/>
          <path id="Trazado_605860" data-name="Trazado 605860" d="M40.857,95.486c-.362,0-.745-.016-1.153-.052-1.318-.112-3.25-.347-4.594-.618a12.023,12.023,0,0,1,4.661-.166,7.991,7.991,0,0,0,3.164-.233,4.534,4.534,0,0,0,2.923-3.232c.947-2.892.9-6.029.85-9.062-.034-2.206-.121-5-.188-7.19l-.049-1.546c.785-.024.832,1.52.832,1.52.071,2.2.157,4.995.184,6.777.054,3.523.1,6.727-.882,9.746a5.27,5.27,0,0,1-3.431,3.735,7.546,7.546,0,0,1-2.316.322" transform="translate(28.362 59.281)" fill="#1a1a1a"/>
          <path id="Trazado_605861" data-name="Trazado 605861" d="M36.173,76.134c.313-.047.524.085.615,1.215.1,1.26-.228,1.482-.51,1.47s-.566-.4-.553-1.3.038-1.322.448-1.387" transform="translate(28.858 61.494)" fill="#1a1a1a"/>
          <path id="Trazado_605862" data-name="Trazado 605862" d="M41.156,75.954c.311-.06.524.067.654,1.191.143,1.256-.175,1.49-.457,1.488s-.58-.38-.6-1.28-.009-1.322.4-1.4" transform="translate(32.919 61.346)" fill="#1a1a1a"/>
          <path id="Trazado_605863" data-name="Trazado 605863" d="M42.752,75.219a2.642,2.642,0,0,0-2.553-.432c1.468-1.2,2.314-.683,2.809-.259-.038.644-.146.691-.257.691" transform="translate(32.473 59.814)" fill="#1a1a1a"/>
          <path id="Trazado_605864" data-name="Trazado 605864" d="M35.213,75.522a3.216,3.216,0,0,1,3.574-1.432c-.242.745-2.037.235-3.317,1.336a.4.4,0,0,1-.257.1" transform="translate(28.445 59.764)" fill="#1a1a1a"/>
          <path id="Trazado_605865" data-name="Trazado 605865" d="M33.351,85.252a4.547,4.547,0,0,1-4.471-4.767,4.485,4.485,0,0,1,7.211-3.272,8.77,8.77,0,0,1-2.5-.139,3.7,3.7,0,1,0,1.472,6.978,1.525,1.525,0,0,1-1.708,1.2" transform="translate(23.322 61.619)" fill="#1a1a1a"/>
          <path id="Trazado_605866" data-name="Trazado 605866" d="M31.086,82.176c-.239-.705,2.11-2.52,2.11-2.52l-2.632-1.949c.466-.633,3.52,1.625,3.52,1.625.005.627-2.757,2.761-2.757,2.761a.385.385,0,0,1-.24.083" transform="translate(24.69 62.681)" fill="#1a1a1a"/>
          <path id="Trazado_605867" data-name="Trazado 605867" d="M41.192,101.285c-.257-.092-9.164-7.692-9.164-7.692.51-.6,8.9,6.557,8.9,6.557l1.435-8.155.345-6.561c.783.042.434,6.647.434,6.647l-1.56,8.878c-.3.318-.343.325-.387.325" transform="translate(25.872 69.013)" fill="#1a1a1a"/>
          <path id="Trazado_605868" data-name="Trazado 605868" d="M40.994,93.159c2.281-4.286-1.043-7.813-1.188-7.962.6-.506,4.491,3.6,1.508,7.8a.4.4,0,0,1-.32.165" transform="translate(32.155 68.788)" fill="#1a1a1a"/>
          <path id="Trazado_605869" data-name="Trazado 605869" d="M32.3,110.405c-3.923,0-8.128-1.056-9.6-4.145-1.421-2.972-1.387-5.723.1-7.745,1.5-2.041,4.313-3.1,7.446-2.782a179.921,179.921,0,0,0-3.167-17.892,9.561,9.561,0,0,1,4.438-7.849c6.4-4.3,18.376-3.464,21.979-2.169a4.28,4.28,0,0,1,2.918,1.448c1.623,1.77,2.2,4.836,1.708,9.111-.327-4.058-.844-6.989-2.272-8.562a3.459,3.459,0,0,0-2.417-1.213c-2.882-1.041-14.887-2.4-21.478,2.036a8.808,8.808,0,0,0-4.1,7.065c.168.678,1.7,7.05,3.236,18.42-3.485.007-6.255.936-7.66,2.851-1.305,1.779-1.312,4.243-.024,6.944,1.62,3.384,7.1,4.031,11.286,3.565,4.686-.528,10.1-2.728,10.906-6.311C47.1,96.5,40.23,92.75,40.162,92.712c.445-.653,7.837,3.386,6.2,10.635-.895,3.981-6.463,6.344-11.583,6.917a21.977,21.977,0,0,1-2.478.141" transform="translate(17.496 53.944)" fill="#1a1a1a"/>
          <path id="Trazado_605870" data-name="Trazado 605870" d="M51.847,110.406c-.412-.983-.669-1.414-1.153-1.665a1.881,1.881,0,0,0-1.741.024c.235-1.1,1.3-1.13,2.1-.721A2.173,2.173,0,0,1,52.238,110a5.287,5.287,0,0,1-.39.407" transform="translate(39.544 87.081)" fill="#1a1a1a"/>
          <path id="Trazado_605871" data-name="Trazado 605871" d="M39,121.484c-.2-.727.5-1.162,2.363-2.29a10.868,10.868,0,0,1-2.157,2.233.392.392,0,0,1-.206.058" transform="translate(31.475 96.285)" fill="#1a1a1a"/>
          <path id="Trazado_605872" data-name="Trazado 605872" d="M38.522,117.488c1.694-12.664,5.015-20.321,5.049-20.4.36-.237,16.581-.237,16.581-.237,0,.788-15.961.788-15.961.788a95.766,95.766,0,0,0-5.282,19.519.393.393,0,0,1-.387.327" transform="translate(31.118 78.238)" fill="#1a1a1a"/>
          <path id="Trazado_605873" data-name="Trazado 605873" d="M57.824,119.248c1.331-12.25,3.71-19.634,4.393-21.607H50.488c0-.786,12.286-.786,12.286-.786.338.607-2.556,8.305-4.561,22.057a.394.394,0,0,1-.389.336" transform="translate(40.784 78.239)" fill="#1a1a1a"/>
          <path id="Trazado_605874" data-name="Trazado 605874" d="M21.842,135.96c6.1-13.381,6.926-33.987,6.933-34.193.777.237-.054,21.01-6.582,33.976a.4.4,0,0,1-.351.217" transform="translate(17.644 82.207)" fill="#1a1a1a"/>
          <path id="Trazado_605875" data-name="Trazado 605875" d="M40.88,84.027c.28-1.063,1.274-2.206,1.368-2.927-.253-.526-1.012-.2-1.417-.022-.447.193-.739.32-1,.192a35.351,35.351,0,0,1-.955-5.116,10.589,10.589,0,0,1,1.408,4.3c.908-.39,1.923-.833,2.507-.155a1.094,1.094,0,0,1,.235.9A5.216,5.216,0,0,1,41.1,83.958a.411.411,0,0,1-.221.069" transform="translate(31.403 61.517)" fill="#1a1a1a"/>
          <path id="Trazado_605876" data-name="Trazado 605876" d="M39.441,83.443a2.772,2.772,0,0,1-1.609-.475,3.706,3.706,0,0,1-1.37-2.495c.783-.061.922,1.233,1.822,1.849a2.5,2.5,0,0,0,2.133.19c-.213.873-.609.931-.976.931" transform="translate(29.454 65.004)" fill="#1a1a1a"/>
          <path id="Trazado_605877" data-name="Trazado 605877" d="M34.476,122c-.132-.766,1.535-1.555,1.835-6.5.557-9.122,6.345-11.114,6.591-11.192.018.819-5.286,2.677-5.808,11.239-.331,5.447-2.258,6.338-2.477,6.423a.383.383,0,0,1-.141.027" transform="translate(27.844 84.264)" fill="#1a1a1a"/>
          <path id="Trazado_605878" data-name="Trazado 605878" d="M40.85,114.979c-2.685-.5-2.587-3.487-2.538-4.923.723,1.884.853,3.822,2.294,4.115a1.978,1.978,0,0,0,1.1-.166,15.193,15.193,0,0,0,2.827-1.6c.383-.253.763-.5,1.143-.734,1.464-.9,3.026-1.878,4.527-2.981.271-.2.541-.4.812-.607.683-.515,1.39-1.049,2.128-1.52a5.044,5.044,0,0,1,2.607-1.012,2.356,2.356,0,0,1,1.849.945c.842,1.036,1.325,2.869-1.168,5.72.586-1.862,1.739-3.773.559-5.225a1.622,1.622,0,0,0-1.244-.654,4.389,4.389,0,0,0-2.18.884c-.71.459-1.406.983-2.079,1.49-.271.2-.544.412-.819.615-1.524,1.119-3.1,2.11-4.583,3.014-.372.228-.745.475-1.119.723a15.7,15.7,0,0,1-2.979,1.674,3.172,3.172,0,0,1-1.135.24" transform="translate(30.936 85.265)" fill="#1a1a1a"/>
          <path id="Trazado_605879" data-name="Trazado 605879" d="M39.58,107.317a7.315,7.315,0,0,1-1.734-.224c-5.281-1.293-9.755-13.624-9.941-14.15.785-.139,5.255,12.194,10.129,13.387a4.347,4.347,0,0,0,3.983-.624c2.319-1.929,2.083-6.611,2.079-6.658.734-.217,3.261,3.256,5.955,3.48a3.218,3.218,0,0,0,2.614-1.045,3.363,3.363,0,0,0,1.054-2.553c-.043-2.585-2.587-6.237-7.56-10.852,5.743,4.259,8.3,7.99,8.347,10.838a4.155,4.155,0,0,1-1.289,3.124,3.974,3.974,0,0,1-3.231,1.271c-2.153-.181-4.1-2.043-5.107-3.182-.072,1.631-.472,4.61-2.356,6.177a4.456,4.456,0,0,1-2.943,1.011" transform="translate(22.542 71.149)" fill="#1a1a1a"/>
          <path id="Trazado_605880" data-name="Trazado 605880" d="M145.365,69.563a3.992,3.992,0,1,1,3.992-3.99,4,4,0,0,1-3.992,3.99m0-7.2a3.2,3.2,0,1,0,3.205,3.205,3.206,3.206,0,0,0-3.205-3.205" transform="translate(114.202 49.744)" fill="#1a1a1a"/>
          <path id="Trazado_605881" data-name="Trazado 605881" d="M152.2,69.563a3.992,3.992,0,1,1,3.988-3.99,4,4,0,0,1-3.988,3.99m0-7.2a3.2,3.2,0,1,0,3.2,3.205,3.208,3.208,0,0,0-3.2-3.205" transform="translate(119.719 49.744)" fill="#1a1a1a"/>
          <path id="Trazado_605882" data-name="Trazado 605882" d="M138.537,69.563a3.992,3.992,0,1,1,3.992-3.99,3.995,3.995,0,0,1-3.992,3.99m0-7.2a3.2,3.2,0,1,0,3.205,3.205,3.209,3.209,0,0,0-3.205-3.205" transform="translate(108.685 49.744)" fill="#1a1a1a"/>
          <path id="Trazado_605883" data-name="Trazado 605883" d="M211.222,74.494H168.659A12.326,12.326,0,0,1,156.35,62.185V41.948a12.326,12.326,0,0,1,12.309-12.309h42.917a12.326,12.326,0,0,1,12.309,12.309V62.185a11.956,11.956,0,0,1-7.276,11.084c3.883-2.554,6.49-6.526,6.49-11.084V41.948a11.536,11.536,0,0,0-11.523-11.523H168.659a11.536,11.536,0,0,0-11.523,11.523V62.185a11.535,11.535,0,0,0,11.523,11.523h42.563c.394.611.217.786,0,.786" transform="translate(126.299 23.942)" fill="#1a1a1a"/>
          <path id="Trazado_605884" data-name="Trazado 605884" d="M189.476,57.36H171.351a2.608,2.608,0,0,1-2.439-4.248l9.023-15.449a2.65,2.65,0,0,1,4.948,0l9.032,15.451a2.608,2.608,0,0,1-2.439,4.247m-9.068-20.614a2.227,2.227,0,0,0-1.793,1.314l-9.023,15.449a1.843,1.843,0,0,0,1.759,3.064h18.125a1.842,1.842,0,0,0,1.757-3.062L182.2,38.06a2.223,2.223,0,0,0-1.8-1.314" transform="translate(135.995 29.049)" fill="#1a1a1a"/>
          <path id="Trazado_605885" data-name="Trazado 605885" d="M156.891,148.173c.378-12.485-2.808-32.839-2.838-33.041.665.1,3.861,20.526,3.158,32.739a.321.321,0,0,1-.32.3" transform="translate(124.443 93.003)" fill="#1a1a1a"/>
          <path id="Trazado_605886" data-name="Trazado 605886" d="M175.653,134.655c-19.41-1.3-37.006-1.242-37.217-1.242.175-.654,17.8-.7,37.235.6.289.51.148.642-.018.642" transform="translate(111.828 107.409)" fill="#1a1a1a"/>
          <path id="Trazado_605887" data-name="Trazado 605887" d="M124.728,128.879a40.211,40.211,0,0,1,.958-6.454l.24-1.162c.246-1.173.622-2.885.622-2.885l.768.168s-.376,1.708-.622,2.88l-.24,1.157c-.409,1.972-.832,4.013-1.345,6a.4.4,0,0,1-.381.295" transform="translate(100.755 95.625)" fill="#1a1a1a"/>
          <path id="Trazado_605888" data-name="Trazado 605888" d="M128.034,115.89a15.425,15.425,0,0,1,5.055-7.17c-1.609,2.455-3.146,4.1-4.711,6.964a.393.393,0,0,1-.343.206" transform="translate(103.425 87.824)" fill="#1a1a1a"/>
          <path id="Trazado_605889" data-name="Trazado 605889" d="M133.9,109.7l-.439-.649s1.3-.882,2.124-1.412a25.277,25.277,0,0,1,10.006-3.845,52.222,52.222,0,0,0-9.583,4.505c-.817.528-2.108,1.4-2.108,1.4" transform="translate(107.808 83.84)" fill="#1a1a1a"/>
          <path id="Trazado_605890" data-name="Trazado 605890" d="M147.452,104.926c-.343,0-.669,0-.965-.007a8.848,8.848,0,0,1-3.419-.635,5.264,5.264,0,0,1-3.019-4.078,20,20,0,0,1-.289-5.606,55.1,55.1,0,0,1,1.058,5.443,4.533,4.533,0,0,0,2.563,3.522,8.041,8.041,0,0,0,3.124.566,44.654,44.654,0,0,0,4.543-.123,5.241,5.241,0,0,1-3.6.918" transform="translate(112.842 76.418)" fill="#1a1a1a"/>
          <path id="Trazado_605891" data-name="Trazado 605891" d="M151.449,93.735a16.97,16.97,0,0,1-4.087-3.22,20.6,20.6,0,0,1,4.3,2.5c.036.658-.09.719-.217.719" transform="translate(119.039 73.118)" fill="#1a1a1a"/>
          <path id="Trazado_605892" data-name="Trazado 605892" d="M151.544,100.68a4.646,4.646,0,0,1-2.479-.745,5.825,5.825,0,0,1,2.316-.043,3.828,3.828,0,0,0,2.659-.971,3.661,3.661,0,0,0,1.195-2.565A3.705,3.705,0,0,0,151.7,92.5a3.842,3.842,0,0,0-2.092.542,1.865,1.865,0,0,1,2.128-1.325,4.484,4.484,0,0,1-.19,8.965" transform="translate(120.415 74.085)" fill="#1a1a1a"/>
          <path id="Trazado_605893" data-name="Trazado 605893" d="M152.059,97.868c-.269-.11-2.795-2.522-2.795-2.522.07-.624,3.343-2.545,3.343-2.545.4.678-2.426,2.336-2.426,2.336l2.15,2.055c-.065.635-.17.676-.271.676" transform="translate(120.575 74.964)" fill="#1a1a1a"/>
          <path id="Trazado_605894" data-name="Trazado 605894" d="M143.148,116.078c-.385-.472.886-6.763.886-6.763l-.662-9.209c.779-.056,1.45,9.205,1.45,9.205-.007.107-1.11,5.563-1.11,5.563l10.982-6.785c.412.669-11.34,7.929-11.34,7.929a.406.406,0,0,1-.206.06" transform="translate(115.576 80.865)" fill="#1a1a1a"/>
          <path id="Trazado_605895" data-name="Trazado 605895" d="M142.529,98.508a4.822,4.822,0,0,1-1.878-3.041,1.1,1.1,0,0,1,.327-.868c.653-.609,1.618-.065,2.258.295a20.73,20.73,0,0,0,1.312-4.194c.584.913-.309,4.543-.447,4.9a.964.964,0,0,1-1.251-.023c-.383-.215-1.114-.611-1.332-.407a3.991,3.991,0,0,0,1.265,2.645c-.036.644-.145.692-.255.692" transform="translate(113.616 73.267)" fill="#1a1a1a"/>
          <path id="Trazado_605896" data-name="Trazado 605896" d="M128.139,133.292c-2.811-7.022-7.817-19.036-7.866-19.155.776-.183,5.785,11.848,8.236,18.629-.282.519-.325.526-.371.526" transform="translate(97.156 92.198)" fill="#1a1a1a"/>
          <path id="Trazado_605897" data-name="Trazado 605897" d="M141.7,100.506c-2.466-.291-3.728-3.316-3.27-6.908.443-3.422,2.267-5.949,4.23-5.949a3.259,3.259,0,0,1,2.724,2.328,9.485,9.485,0,0,1,.445,4.572,8.624,8.624,0,0,1-.868,3.079,7.727,7.727,0,0,1,.087-3.178,8.686,8.686,0,0,0-.394-4.185c-.427-1.079-1.065-1.725-1.8-1.819-1.58-.186-3.252,2.2-3.643,5.252s.613,5.8,2.2,6a1.626,1.626,0,0,0,1.455-.5c-.022,1.081-.531,1.305-1.162,1.305" transform="translate(111.745 70.803)" fill="#1a1a1a"/>
          <path id="Trazado_605898" data-name="Trazado 605898" d="M146.851,100.856c-2.366-.286-3.628-3.308-3.171-6.9.443-3.424,2.269-5.951,4.234-5.951,2.365.286,3.626,3.308,3.169,6.9-.443,3.422-2.269,5.948-4.232,5.948m1.068-12.063c-1.528,0-3.082,2.334-3.458,5.264-.39,3.05.613,5.8,2.195,6,1.58.168,3.254-2.2,3.646-5.25s-.613-5.8-2.2-6a1.611,1.611,0,0,0-.186-.013" transform="translate(115.99 71.091)" fill="#1a1a1a"/>
          <path id="Trazado_605899" data-name="Trazado 605899" d="M144.973,92.493c-1.562-1.3-2.522-.342-2.565-.3-.04-1.092,1.347-1.755,2.833-.381-.056.638-.163.682-.268.682" transform="translate(115.036 73.54)" fill="#1a1a1a"/>
          <path id="Trazado_605900" data-name="Trazado 605900" d="M135.9,112.4c-2.146-1.345-7.134-3.263-10.115-3.263H62.805c-5.653,0-10.655,3.026-12.365,7.482L33.848,159.829a9.033,9.033,0,0,0,1.029,8.47l6.2,4.539a14.748,14.748,0,0,0,7.826,2.777h6.886l68.7-33.242Z" transform="translate(26.843 88.157)" fill="#fff"/>
          <path id="Trazado_605901" data-name="Trazado 605901" d="M55.963,176.186h-6.89a14.971,14.971,0,0,1-8.063-2.86l-6.192-4.536a9.381,9.381,0,0,1-1.164-8.925l16.592-43.214c1.777-4.628,6.895-7.737,12.734-7.737h62.982c3.061,0,8.159,1.97,10.324,3.325.157.472-11.259,30.451-11.259,30.451-.2.213-68.893,33.457-68.893,33.457a.441.441,0,0,1-.172.04M35.34,168.2l6.139,4.5a14.479,14.479,0,0,0,7.595,2.7h6.8l68.478-33.133,11.243-29.527c-2.215-1.294-6.828-3.035-9.63-3.035H62.981c-5.516,0-10.339,2.905-12,7.229l-16.59,43.215a8.607,8.607,0,0,0,.949,8.052" transform="translate(26.668 87.98)" fill="#1a1a1a"/>
          <path id="Trazado_605902" data-name="Trazado 605902" d="M82.074,155.118H71.227c0-.788,10.847-.788,10.847-.788,5.516,0,10.337-2.905,12-7.229l4.65-12.107c.732.282-3.914,12.389-3.914,12.389-1.777,4.624-6.895,7.736-12.734,7.736" transform="translate(57.537 109.048)" fill="#1a1a1a"/>
          <path id="Trazado_605903" data-name="Trazado 605903" d="M85.207,175.377H48.369a13.9,13.9,0,0,1-11.617-5.611,9.393,9.393,0,0,1-1.119-8.9l16.594-43.214c1.775-4.626,6.891-7.736,12.732-7.736h62.982a13.891,13.891,0,0,1,11.613,5.611,9.38,9.38,0,0,1,1.121,8.9l-4.9,12.752c-.734-.28,4.162-13.034,4.162-13.034a8.622,8.622,0,0,0-1.032-8.173,13.115,13.115,0,0,0-10.968-5.27H64.96c-5.517,0-10.341,2.905-12,7.229L36.367,161.148a8.618,8.618,0,0,0,1.034,8.173,13.113,13.113,0,0,0,10.968,5.268H85.207c.394.613.217.788,0,.788" transform="translate(28.261 88.789)" fill="#1a1a1a"/>
          <path id="Trazado_605904" data-name="Trazado 605904" d="M185.581,186.106c5.411-16.216-2.9-40.607-8.721-52.545a80.115,80.115,0,0,0-5.675-10.151,24.9,24.9,0,0,0-6.553-6.322c-2.442-1.678-5.311-3.475-8.433-3.625-.334-.014-.665-.016-1-.013a7.826,7.826,0,0,1-2.867-.362,5.911,5.911,0,0,1-3.227-3.357,11.337,11.337,0,0,1-.02-8.148,16.6,16.6,0,0,1,2.149-3.6,6.123,6.123,0,0,0,1.284-1.629c.606.732.159,1.206-.233,1.625a16.294,16.294,0,0,0-2.477,3.91,10.48,10.48,0,0,0,.023,7.537,5.135,5.135,0,0,0,2.788,2.934,7.021,7.021,0,0,0,2.58.305c.347,0,.7,0,1.032.016,3.332.157,6.311,2.023,8.846,3.757a25.715,25.715,0,0,1,6.752,6.53,79.806,79.806,0,0,1,5.733,10.252c5.877,12.049,14.256,36.693,8.386,52.63a.394.394,0,0,1-.369.257" transform="translate(119.828 77.834)" fill="#1a1a1a"/>
          <path id="Trazado_605905" data-name="Trazado 605905" d="M181.75,141.88c-.971-10.442-5.071-22.879-12.705-26.4-2.29-1.054-2.37-1.978-2.007-4.344a186.559,186.559,0,0,1,3.567-18.36,8.81,8.81,0,0,0-3.974-7.135c-6.5-4.545-18.534-3.41-21.294-2.444a4.078,4.078,0,0,0-2.742,1.341c-1.472,1.614-2.048,4.539-1.674,8.462-1.188-4.149-.551-7.206,1.114-9.012a4.617,4.617,0,0,1,3.1-1.553c3.628-1.231,15.625-1.853,21.945,2.562a9.563,9.563,0,0,1,4.308,7.808c-.031.181-1.755,6.546-3.578,18.449-.329,2.155-.333,2.643,1.56,3.514,7.971,3.67,12.156,16.05,12.77,26.692a3.883,3.883,0,0,1-.394.416" transform="translate(113.342 65.866)" fill="#1a1a1a"/>
          <path id="Trazado_605906" data-name="Trazado 605906" d="M158.817,148.539a5.443,5.443,0,0,1,2.307-2.883c5.964-4.2,13.126-4.138,17.029.134-4.221-3.453-10.946-3.458-16.577.51a17.206,17.206,0,0,0-2.479,2.119.386.386,0,0,1-.28.121" transform="translate(128.292 115.148)" fill="#1a1a1a"/>
          <path id="Trazado_605907" data-name="Trazado 605907" d="M124.25,155.3c-.4-.394-.4-23.317-.4-23.317.788,0,.788,22.923.788,22.923a.393.393,0,0,1-.392.394" transform="translate(100.049 106.612)" fill="#1a1a1a"/>
          <path id="Trazado_605908" data-name="Trazado 605908" d="M132.08,143.362c-4.143,0-5.987-1.967-6.8-3.641-1.625-3.33-.475-7.9,1.576-10.395.031-.043,1.406-1.9-.266-6.13a8.758,8.758,0,0,1,.174-7.548,8.117,8.117,0,0,1,12.228-1.524,8.047,8.047,0,0,1,2.374,6.653c-.589,3.889-.748,4.919.447,8.18a12.691,12.691,0,0,1-1.238,10.46c-1.717,2.524-4.462,3.849-8.151,3.941-.114,0-.226,0-.338,0m1.692-30.6a8.073,8.073,0,0,0-1.28.107,6.735,6.735,0,0,0-5.047,3.165,7.988,7.988,0,0,0-.13,6.87c1.873,4.727.217,6.826.143,6.915-1.853,2.254-2.943,6.546-1.475,9.552,1.023,2.1,3.131,3.205,6.1,3.205,3.737-.09,6.268-1.3,7.837-3.6a11.966,11.966,0,0,0,1.146-9.748c-1.264-3.451-1.068-4.715-.555-8.1a7.529,7.529,0,0,0-2.079-6.448,6.483,6.483,0,0,0-4.662-1.918" transform="translate(100.576 90.459)" fill="#1a1a1a"/>
          <path id="Trazado_605909" data-name="Trazado 605909" d="M134.118,115.315c-1.73,0-3.173-1.936-3.317-4.483-.141-2.612,1.144-4.735,2.929-4.832s3.294,1.871,3.44,4.478-1.141,4.733-2.923,4.832c-.043,0-.087.005-.128.005m-.268-8.535c-1.379.074-2.381,1.909-2.263,4.006.121,2.137,1.253,3.786,2.616,3.74,1.322-.076,2.3-1.873,2.18-4.006-.114-2.054-1.265-3.74-2.533-3.74" transform="translate(105.652 85.624)" fill="#1a1a1a"/>
          <path id="Trazado_605910" data-name="Trazado 605910" d="M134.691,135.146c-.443,0-10.836-.025-10.836-2.13s10.393-2.13,10.836-2.13,10.836.025,10.836,2.13-10.393,2.13-10.836,2.13m0-3.471c-6.255,0-9.818.88-10.055,1.37.237.434,3.8,1.313,10.055,1.313,6.132,0,9.675-.842,10.039-1.341-.363-.5-3.907-1.341-10.039-1.341" transform="translate(100.05 105.73)" fill="#1a1a1a"/>
          <path id="Trazado_605911" data-name="Trazado 605911" d="M134.691,146.789c-.443,0-10.836-.025-10.836-2.13,1.018.463,4.581,1.343,10.836,1.343a45.219,45.219,0,0,0,6.909-.479c-1.3,1-3.67,1.265-6.909,1.265" transform="translate(100.05 116.855)" fill="#1a1a1a"/>
          <path id="Trazado_605912" data-name="Trazado 605912" d="M129.53,141.256a1.514,1.514,0,0,1-.971-1.179c-.461-1.9.071-4.189,1.983-4.89a5.454,5.454,0,0,1,2.489-.132,38.249,38.249,0,0,0,5.409.174,10.839,10.839,0,0,0,3.256-.427,3.32,3.32,0,0,1-2.972,1.2,39.322,39.322,0,0,1-5.657-.155,5.177,5.177,0,0,0-2.254.074c-1.656.607-1.8,2.706-1.491,3.97.522,1.264.371,1.363.208,1.363" transform="translate(103.724 108.893)" fill="#1a1a1a"/>
          <path id="Trazado_605913" data-name="Trazado 605913" d="M136.081,145.457a24.856,24.856,0,0,1-4.283-.333A4.02,4.02,0,0,1,128,139.746a2.706,2.706,0,0,1,1.173-1.582,1.478,1.478,0,0,1,1.421-.038,12.406,12.406,0,0,0,2.7.591,32.743,32.743,0,0,0,9.377-.307A18.641,18.641,0,0,1,133.2,139.5a13.059,13.059,0,0,1-2.724-.582c-.512-.181-.631-.222-.913-.069a1.959,1.959,0,0,0-.808,1.132,3.239,3.239,0,0,0,3.129,4.362,29.969,29.969,0,0,0,6.709.257c1.754-.092,3.332-.242,4.823-.459a8.555,8.555,0,0,1-4.78,1.244c-.8.042-1.665.074-2.554.074" transform="translate(103.251 111.444)" fill="#1a1a1a"/>
          <path id="Trazado_605914" data-name="Trazado 605914" d="M138.456,148.77a30.662,30.662,0,0,1-7.2-.866,3.737,3.737,0,0,1-2.981-4.044,2.508,2.508,0,0,1,1.929-2.518,5.689,5.689,0,0,0-1.146,2.591,2.944,2.944,0,0,0,2.4,3.211c.98.255,9.8,2.394,16.312-1.3-2.7,2.426-6.251,2.927-9.31,2.927" transform="translate(103.607 114.176)" fill="#1a1a1a"/>
          <path id="Trazado_605915" data-name="Trazado 605915" d="M214.1,146.4H158.637c0-.786,55.463-.786,55.463-.786.394.611.217.786,0,.786" transform="translate(128.146 117.629)" fill="#1a1a1a"/>
          <path id="Trazado_605916" data-name="Trazado 605916" d="M286.783,146.4H0c0-.786,286.783-.786,286.783-.786.394.611.217.786,0,.786" transform="translate(0 117.629)" fill="#1a1a1a"/>
          <path id="Trazado_605917" data-name="Trazado 605917" d="M118.238,113.9c-.8-.371-1.737-.8-2.813-1.285-3.957-1.806-9.375-4.275-10.185-6.5a1.566,1.566,0,0,1,.036-1.249c.944-1.983,2.641-2.262,6.269-1.027,3.838,1.3,13.551,6.219,13.963,6.427-.456.649-10.429-4.4-14.217-5.686-3.993-1.352-4.765-.517-5.306.624.689,2.56,6.369,5.15,9.764,6.7,1.087.5,2.028.926,2.67,1.26.1.663-.04.741-.183.741" transform="translate(84.922 83.281)" fill="#1a1a1a"/>
          <path id="Trazado_605918" data-name="Trazado 605918" d="M127.032,123.838c-.164-3.664.255-12.407-.521-13.884-1.609-3.064-3.937-2.236-5.814-1.567a22.257,22.257,0,0,0-8.2,4.814c-1.826,1.6-2.8,3.144-2.605,4.116.1.506.535.889,1.287,1.141,2.046.671,7.7-2.959,9.7-4.422-.306,1.2-7.152,6.1-9.95,5.167a2.371,2.371,0,0,1-1.808-1.73c-.259-1.289.754-3.017,2.86-4.861a22.455,22.455,0,0,1,8.175-4.863c2.092-.748,5.123-1.837,7.054,1.84,1.02,1.943.3,12.667.215,13.884a.39.39,0,0,1-.39.365" transform="translate(88.114 86.432)" fill="#1a1a1a"/>
          <path id="Trazado_605919" data-name="Trazado 605919" d="M112.376,115.19c-.7-.277-5.431-2.459-5.581-4.693a3.575,3.575,0,0,1,1.056-2.967,2.758,2.758,0,0,1,2.4-.615c-.824.642-1.423.792-1.884,1.2a2.8,2.8,0,0,0-.792,2.325c.1,1.5,3.61,3.391,4.955,4,.134.665-.011.752-.159.752" transform="translate(86.261 86.32)" fill="#1a1a1a"/>
          <path id="Trazado_605920" data-name="Trazado 605920" d="M114.5,119.338a5.547,5.547,0,0,1-1.925-.38,17.048,17.048,0,0,1-4.688-2.724c-1.356-1.079-2.742-2.417-2.751-4.165a2.926,2.926,0,0,1,1.153-2.343,3.114,3.114,0,0,1,2.666-.537c-.888.578-1.623.727-2.186,1.159a2.135,2.135,0,0,0-.848,1.717c.005,1.417,1.246,2.592,2.455,3.556a16.308,16.308,0,0,0,4.469,2.6,3.8,3.8,0,0,0,3.01.04,3.452,3.452,0,0,0,1.869-2.037,2.277,2.277,0,0,1-1.553,2.755,4.054,4.054,0,0,1-1.672.358" transform="translate(84.931 88.121)" fill="#1a1a1a"/>
          <path id="Trazado_605921" data-name="Trazado 605921" d="M61.249,141.542c-.392-.394-.392-72.292-.392-72.292a9.83,9.83,0,0,1,9.816-9.82H228.279a9.833,9.833,0,0,1,9.82,9.82V94.378c-.788,0-.788-25.128-.788-25.128a9.04,9.04,0,0,0-9.032-9.032H70.673a9.04,9.04,0,0,0-9.03,9.032v71.9a.394.394,0,0,1-.394.394" transform="translate(49.16 48.007)" fill="#1a1a1a"/>
          <path id="Trazado_605922" data-name="Trazado 605922" d="M117.521,123.508H95.748c0-.788,21.773-.788,21.773-.788.392.611.217.788,0,.788" transform="translate(77.345 99.133)" fill="#1a1a1a"/>
          <path id="Trazado_605923" data-name="Trazado 605923" d="M75.011,73.858H43.821c0-.788,31.19-.788,31.19-.788.394.613.217.788,0,.788" transform="translate(35.398 59.026)" fill="#1a1a1a"/>
          <path id="Trazado_605924" data-name="Trazado 605924" d="M150.773,90.555c-.394-.394-.394-59.084-.394-59.084a9.042,9.042,0,0,0-9.034-9.03H39.6a9.04,9.04,0,0,0-9.03,9.03V43.327c-.786,0-.786-11.856-.786-11.856A9.827,9.827,0,0,1,39.6,21.653H141.346a9.829,9.829,0,0,1,9.82,9.818v58.69a.393.393,0,0,1-.392.394" transform="translate(24.059 17.491)" fill="#1a1a1a"/>
          <path id="Trazado_605925" data-name="Trazado 605925" d="M30.174,79c-.392-.394-.392-29.957-.392-29.957.786,0,.786,29.563.786,29.563a.394.394,0,0,1-.394.394" transform="translate(24.058 39.616)" fill="#1a1a1a"/>
          <path id="Trazado_605926" data-name="Trazado 605926" d="M113.277,117.147a7.448,7.448,0,0,1,.537-4.849c.691.372-.4,2.616-.15,4.4-.353.448-.372.45-.387.45" transform="translate(91.333 90.714)" fill="#1a1a1a"/>
          <path id="Trazado_605927" data-name="Trazado 605927" d="M113.9,123.5c-1.835-2.847-6.244-9.728-6.286-9.8.705-.354,5.123,6.546,6.631,9.213-.212.569-.28.586-.345.586" transform="translate(86.927 91.837)" fill="#1a1a1a"/>
          <path id="Trazado_605928" data-name="Trazado 605928" d="M191.428,181.752c-.273-1.133,10.821-67.977,3.928-76.679a1.9,1.9,0,0,0-1.378-.817c-11.427-.738-35.156-2.119-35.395-2.133.284-.772,24.015.611,35.447,1.349a2.667,2.667,0,0,1,1.938,1.115c7.112,8.972-3.69,74.071-4.154,76.837a.393.393,0,0,1-.387.329" transform="translate(128.104 82.311)" fill="#1a1a1a"/>
          <path id="Trazado_605929" data-name="Trazado 605929" d="M170.389,150.434c.443-7.649,1.58-17.695,2.252-24.6.535-5.5,1.132-10.319,1.775-14.316.136,4.107-.461,8.905-1,14.392-.671,6.917-1.808,16.966-2.641,24.179a.394.394,0,0,1-.39.349" transform="translate(137.64 90.081)" fill="#1a1a1a"/>
          <path id="Trazado_605930" data-name="Trazado 605930" d="M173.365,112.7c.651-6.81,2.681-8.444,2.766-8.511.425.667-1.408,2.26-2.379,8.18a.392.392,0,0,1-.387.331" transform="translate(140.044 84.164)" fill="#1a1a1a"/>
          <path id="Trazado_605931" data-name="Trazado 605931" d="M110.578,123.98a5.054,5.054,0,0,1-2.173-.367,1.407,1.407,0,0,1-.774-.866c-.477-1.667,2.742-3.892,3.393-4.321-.983,1.591-2.874,3.279-2.639,4.1,2.206,1.305,8.9-.118,14.014-2.027,7.971-2.977,8.471-4.809,8.316-5.46-.118-.488-.477-.973-2.3-1.211,1.929-.539,2.815,0,3.061,1.027.457,1.913-2.422,4-8.8,6.38-3.54,1.32-8.842,2.741-12.1,2.741" transform="translate(86.906 91.782)" fill="#1a1a1a"/>
          <path id="Trazado_605932" data-name="Trazado 605932" d="M138.731,156.779a2.825,2.825,0,0,1-2.157-1.45c1.262.409,1.849.776,2.41.631,2.542-.667,2.766-9.337,2.849-12.6.226-8.506-1.289-9.654-1.954-9.753a1.109,1.109,0,0,0-.886.251c-.014-.976.457-1.1,1-1.029,1.943.291,2.8,3.74,2.625,10.55-.161,6.2-.7,12.624-3.438,13.342a1.687,1.687,0,0,1-.452.06" transform="translate(110.324 107.284)" fill="#1a1a1a"/>
          <path id="Trazado_605933" data-name="Trazado 605933" d="M126.875,168.346a14.492,14.492,0,0,1-5.843-6.9c-10.883-24.892-13.43-42.812-13.455-42.993.8.072,3.337,17.9,14.177,42.677a14.049,14.049,0,0,0,5.324,6.488c.061.66-.071.729-.2.729" transform="translate(86.9 95.686)" fill="#1a1a1a"/>
          <path id="Trazado_605934" data-name="Trazado 605934" d="M136.419,108.367c-.372-.513.1-1.989.1-1.989a6.2,6.2,0,0,1,5.984-4.583c-2.45.786-4.6,2.431-5.232,4.8l-.481,1.5a.391.391,0,0,1-.374.273" transform="translate(110.083 82.23)" fill="#1a1a1a"/>
          <path id="Trazado_605935" data-name="Trazado 605935" d="M135.769,137.823c-.32-.322-.32-5.758-.32-5.758.64,0,.64,5.436.64,5.436a.322.322,0,0,1-.32.322" transform="translate(109.415 106.682)" fill="#1a1a1a"/>
          <path id="Trazado_605936" data-name="Trazado 605936" d="M142.419,135.995c-3.874-3.451-6.711-2.509-6.732-2.5-.092-.647,2.986-1.7,6.949,1.943-.043.521-.128.557-.217.557" transform="translate(109.606 107.306)" fill="#1a1a1a"/>
          <path id="Trazado_605937" data-name="Trazado 605937" d="M108.095,111.225a6.154,6.154,0,1,1,6.152-6.154,6.16,6.16,0,0,1-6.152,6.154m0-11.519a5.366,5.366,0,1,0,5.366,5.366,5.372,5.372,0,0,0-5.366-5.366" transform="translate(82.349 79.906)" fill="#1a1a1a"/>
          <path id="Trazado_605938" data-name="Trazado 605938" d="M127.457,134.629c-.376-.284-2.327-6.971-2.327-6.971.75-.221,2.7,6.468,2.7,6.468-.3.5-.34.5-.376.5" transform="translate(101.08 103.118)" fill="#1a1a1a"/>
          <path id="Trazado_605939" data-name="Trazado 605939" d="M129.646,133.229a5.315,5.315,0,0,1-.027-2.251c.1-.591.212-1.211.4-2.016a2.657,2.657,0,0,1,.369,2.151c-.1.582-.2,1.137-.363,1.815a.4.4,0,0,1-.381.3" transform="translate(104.619 104.176)" fill="#1a1a1a"/>
          <path id="Trazado_605940" data-name="Trazado 605940" d="M133.395,116.171c.025-2.289-.029-2.784-.029-2.8.79-.034.855.526.414,2.5a.4.4,0,0,1-.385.307" transform="translate(107.733 91.576)" fill="#1a1a1a"/>
          <path id="Trazado_605941" data-name="Trazado 605941" d="M147.179,110.538c-3.5,0-5.81-.942-6.862-2.8-1.914-3.364,1.05-8.415,1.177-8.629.645.45-2.18,5.273-.493,8.242.9,1.594,2.985,2.4,6.179,2.4.394.613.217.788,0,.788" transform="translate(112.829 80.06)" fill="#1a1a1a"/>
          <path id="Trazado_605942" data-name="Trazado 605942" d="M148.808,91.785a13.581,13.581,0,0,1-5.716-5.991l-1.481,4.876c-.75-.23,1.038-6.132,1.038-6.132.761.029,2.247,4.228,6.351,6.51.08.663-.052.738-.192.738" transform="translate(114.245 68.29)" fill="#1a1a1a"/>
          <path id="Trazado_605943" data-name="Trazado 605943" d="M14.339,154.29c-.653-5.8-.394-18.309-.392-18.436.783.143.524,12.627.785,18.024a3.839,3.839,0,0,1-.392.412" transform="translate(11.224 109.742)" fill="#1a1a1a"/>
          <path id="Trazado_605944" data-name="Trazado 605944" d="M32.1,81.534c-.255-.7,3.429-4.91,1.359-10.485.7-.367,5.572,4.373,15.833,3.838-7.976,1.2-12.749-1.441-14.71-2.853a11.05,11.05,0,0,1-2.191,9.37.384.384,0,0,1-.291.13" transform="translate(25.917 57.377)" fill="#1a1a1a"/>
          <path id="Trazado_605945" data-name="Trazado 605945" d="M65.558,34.446H38.851c0-.786,26.707-.786,26.707-.786.392.611.215.786,0,.786" transform="translate(31.384 27.19)" fill="#1a1a1a"/>
          <path id="Trazado_605946" data-name="Trazado 605946" d="M65.558,39.2H38.851c0-.786,26.707-.786,26.707-.786.392.611.215.786,0,.786" transform="translate(31.384 31.034)" fill="#1a1a1a"/>
          <path id="Trazado_605947" data-name="Trazado 605947" d="M65.558,43.963H38.851c0-.788,26.707-.788,26.707-.788.392.613.215.788,0,.788" transform="translate(31.384 34.877)" fill="#1a1a1a"/>
          <path id="Trazado_605948" data-name="Trazado 605948" d="M65.558,52.811H38.851c0-.788,26.707-.788,26.707-.788.392.611.215.788,0,.788" transform="translate(31.384 42.024)" fill="#1a1a1a"/>
          <path id="Trazado_605949" data-name="Trazado 605949" d="M65.558,57.569H38.851c0-.788,26.707-.788,26.707-.788.392.613.215.788,0,.788" transform="translate(31.384 45.868)" fill="#1a1a1a"/>
          <path id="Trazado_605950" data-name="Trazado 605950" d="M65.558,62.325H38.851c0-.786,26.707-.786,26.707-.786.392.611.215.786,0,.786" transform="translate(31.384 49.711)" fill="#1a1a1a"/>
          <path id="Trazado_605951" data-name="Trazado 605951" d="M99.951,34.446h-26.7c0-.786,26.7-.786,26.7-.786.392.611.217.786,0,.786" transform="translate(59.169 27.19)" fill="#1a1a1a"/>
          <path id="Trazado_605952" data-name="Trazado 605952" d="M99.951,39.2h-26.7c0-.786,26.7-.786,26.7-.786.392.611.217.786,0,.786" transform="translate(59.169 31.034)" fill="#1a1a1a"/>
          <path id="Trazado_605953" data-name="Trazado 605953" d="M99.951,43.963h-26.7c0-.788,26.7-.788,26.7-.788.392.613.217.788,0,.788" transform="translate(59.169 34.877)" fill="#1a1a1a"/>
          <path id="Trazado_605954" data-name="Trazado 605954" d="M107.106,74.573H80.4c0-.786,26.707-.786,26.707-.786.392.611.215.786,0,.786" transform="translate(64.946 59.605)" fill="#1a1a1a"/>
          <path id="Trazado_605955" data-name="Trazado 605955" d="M107.106,79.332H80.4c0-.788,26.707-.788,26.707-.788.392.613.215.788,0,.788" transform="translate(64.946 63.448)" fill="#1a1a1a"/>
          <path id="Trazado_605956" data-name="Trazado 605956" d="M107.106,84.088H80.4c0-.786,26.707-.786,26.707-.786.392.611.215.786,0,.786" transform="translate(64.946 67.291)" fill="#1a1a1a"/>
          <path id="Trazado_605957" data-name="Trazado 605957" d="M141.866,81.442h-26.7c0-.786,26.7-.786,26.7-.786.392.611.215.786,0,.786" transform="translate(93.028 65.154)" fill="#1a1a1a"/>
          <path id="Trazado_605958" data-name="Trazado 605958" d="M141.866,86.2h-26.7c0-.788,26.7-.788,26.7-.788.392.613.215.788,0,.788" transform="translate(93.028 68.996)" fill="#1a1a1a"/>
          <path id="Trazado_605959" data-name="Trazado 605959" d="M141.866,90.958h-26.7c0-.786,26.7-.786,26.7-.786.392.611.215.786,0,.786" transform="translate(93.028 72.841)" fill="#1a1a1a"/>
          <path id="Trazado_605960" data-name="Trazado 605960" d="M99.951,52.811h-26.7c0-.788,26.7-.788,26.7-.788.392.611.217.788,0,.788" transform="translate(59.169 42.024)" fill="#1a1a1a"/>
          <path id="Trazado_605961" data-name="Trazado 605961" d="M99.951,57.569h-26.7c0-.788,26.7-.788,26.7-.788.392.613.217.788,0,.788" transform="translate(59.169 45.868)" fill="#1a1a1a"/>
          <path id="Trazado_605962" data-name="Trazado 605962" d="M63.612,72.62c-.394-.394-.394-38.978-.394-38.978C64,33.642,64,72.226,64,72.226a.4.4,0,0,1-.392.394" transform="translate(51.067 27.176)" fill="#1a1a1a"/>
          <path id="Trazado_605963" data-name="Trazado 605963" d="M112.646,110.161c-.284-.123-23.467-24.563-23.467-24.563.569-.541,23.753,23.9,23.753,23.9-.09.624-.188.662-.286.662" transform="translate(72.039 69.139)" fill="#1a1a1a"/>
          <path id="Trazado_605964" data-name="Trazado 605964" d="M108.834,105.022c-.253-.692,13.253-12.2,13.253-12.2.512.6-13,12.105-13,12.105a.394.394,0,0,1-.255.094" transform="translate(87.913 74.982)" fill="#1a1a1a"/>
          <path id="Trazado_605965" data-name="Trazado 605965" d="M185.462,43.3c-.824-1.634-1.365-3.046-1.978-4.469a8.063,8.063,0,0,1,2.352,3.952c-.291.508-.333.517-.374.517m-3.57-8.312c-1.043-1.526-1.8-2.835-2.6-4.1a7.994,7.994,0,0,1,2.941,3.522c-.222.564-.284.577-.345.577m-4.823-7.643c-1.2-1.352-2.151-2.527-3.137-3.65a7.994,7.994,0,0,1,3.451,3.023c-.15.6-.233.627-.315.627m-5.958-6.788c-1.338-1.148-2.464-2.153-3.617-3.1a7.918,7.918,0,0,1,3.89,2.426c-.067.633-.17.674-.273.674m-6.965-5.736c-1.446-.92-2.721-1.73-4.006-2.478a7.963,7.963,0,0,1,4.23,1.761c.023.656-.1.718-.224.718m-7.8-4.536c-1.513-.682-2.9-1.284-4.286-1.828a8.064,8.064,0,0,1,4.456,1.079c.116.665-.024.748-.17.748m-8.4-3.29c-1.524-.454-2.983-.853-4.447-1.2a8.213,8.213,0,0,1,4.565.434c.2.66.049.768-.117.768m-8.782-2.1c-1.508-.257-3.006-.47-4.51-.64a8.332,8.332,0,0,1,4.579-.141c.286.645.118.781-.069.781" transform="translate(108.777 3.121)" fill="#1a1a1a"/>
          <path id="Trazado_605966" data-name="Trazado 605966" d="M95.205,32.731c-.325-.622.387-2.139,2.054-4.48-.98,2.733-1.69,4.239-1.7,4.254a.393.393,0,0,1-.356.226m5.179-7.4a10.523,10.523,0,0,1,2.854-3.943,11.149,11.149,0,0,1-2.56,3.807.382.382,0,0,1-.295.136m6.521-6.25a9.945,9.945,0,0,1,3.4-3.419,10.9,10.9,0,0,1-3.155,3.33.391.391,0,0,1-.246.089m7.441-5.116a9.424,9.424,0,0,1,3.813-2.873,10.754,10.754,0,0,1-3.616,2.818.373.373,0,0,1-.2.054m8.1-3.974a9.073,9.073,0,0,1,4.113-2.336A10.64,10.64,0,0,1,122.6,9.96a.416.416,0,0,1-.148.029m8.558-2.88a8.811,8.811,0,0,1,4.306-1.831,10.4,10.4,0,0,1-4.2,1.817.346.346,0,0,1-.1.014m8.833-1.869a8.724,8.724,0,0,1,4.435-1.374A10.2,10.2,0,0,1,139.9,5.234a.353.353,0,0,1-.061.005m8.976-.973a1.377,1.377,0,0,1,1.385-.862,1.378,1.378,0,0,1-1.361.861l-.023,0" transform="translate(76.844 2.751)" fill="#1a1a1a"/>
          <path id="Trazado_605967" data-name="Trazado 605967" d="M145.3,100.813a4.411,4.411,0,0,1-2.791-.989,2.884,2.884,0,0,1-1.226-2.124,1.532,1.532,0,0,1,.77-1.338,2.205,2.205,0,0,1,2.137.121c.933.521,1.045.488,1.3.423s.374-.094.944-.992a2.223,2.223,0,0,1,1.8-1.124,1.535,1.535,0,0,1,1.336.81,2.76,2.76,0,0,1-.1,2.345,4.583,4.583,0,0,1-3.026,2.723,4.708,4.708,0,0,1-1.144.146m-2.352-3.887c-.743.251-.864.481-.877.8A2.173,2.173,0,0,0,143,99.214a3.719,3.719,0,0,0,3.25.691,3.8,3.8,0,0,0,2.495-2.265A2.089,2.089,0,0,0,148.894,96a.75.75,0,0,0-.649-.423,1.465,1.465,0,0,0-1.144.757c-.64,1.012-.889,1.2-1.416,1.334-.488.123-.774.119-1.875-.5a1.8,1.8,0,0,0-.861-.24" transform="translate(114.129 76.57)" fill="#1a1a1a"/>
          <path id="Trazado_605968" data-name="Trazado 605968" d="M143.845,100.2c-.757-3.337,2.016-4.5,3.534-4.693-.047.8-3.509,1.291-3.144,4.252-.358.439-.376.441-.39.441" transform="translate(116.094 77.151)" fill="#1a1a1a"/>
          <path id="Trazado_605969" data-name="Trazado 605969" d="M183.054,195.9a3.2,3.2,0,0,1,2.421-.837,2.926,2.926,0,0,1-2.421.837m6.944-.439a11.32,11.32,0,0,1,4.378-1.524,7.973,7.973,0,0,1-4.328,1.52l-.051,0m8.84-1.851a12.1,12.1,0,0,1,4.143-2.213,7.994,7.994,0,0,1-4.03,2.2.432.432,0,0,1-.114.016m8.432-3.245a12.983,12.983,0,0,1,3.8-2.851,8,8,0,0,1-3.628,2.811.41.41,0,0,1-.17.04m7.808-4.548a14.166,14.166,0,0,1,3.352-3.422,7.949,7.949,0,0,1-3.129,3.352.386.386,0,0,1-.222.071m6.976-5.727a15.459,15.459,0,0,1,2.838-3.91,8.025,8.025,0,0,1-2.565,3.8.4.4,0,0,1-.273.11m6.005-6.743a16.917,16.917,0,0,1,2.278-4.3,8.081,8.081,0,0,1-1.967,4.143.393.393,0,0,1-.311.154M233,165.786a20.99,20.99,0,0,1,1.62-4.608,7.861,7.861,0,0,1-1.276,4.406.39.39,0,0,1-.344.2m3.581-8.285a23.434,23.434,0,0,1,.861-4.834,8.04,8.04,0,0,1-.488,4.563.39.39,0,0,1-.372.271m2.151-8.775a26.672,26.672,0,0,1,.193-4.91,8.142,8.142,0,0,1,.193,4.581.4.4,0,0,1-.387.329m.835-8.992a2.879,2.879,0,0,1-.38-1.52c0-1.141-.033-2.274-.1-3.366a4.918,4.918,0,0,1,.888,3.366c0,.378,0,.757-.013,1.135a.4.4,0,0,1-.394.385m-.544-9.014c-.611-1.849-.9-3.328-1.256-4.729a7.589,7.589,0,0,1,1.643,4.281c-.351.448-.371.448-.387.448m-2.216-8.746c-.917-1.692-1.547-3.053-2.24-4.3a7.08,7.08,0,0,1,2.607,3.767c-.273.522-.32.531-.367.531m-13.524-5.308c.9-.73,2.29-.994,3.889-1.6a5.023,5.023,0,0,1-3.889,1.6m-4.409-1.788a4.939,4.939,0,0,1-1.792-3.6,3.773,3.773,0,0,1,.139-1.03c.682.468.647.743.647,1.029a4.46,4.46,0,0,0,1.289,2.941c-.092.626-.188.663-.284.663m13.513-.739a36.961,36.961,0,0,0-3.449-3.258,4.343,4.343,0,0,1,3.015,1.759,33.276,33.276,0,0,0,2.909-2.032,4.874,4.874,0,0,1-2.384,2.63c.085.87,0,.9-.09.9m-7.054-5.521a8.511,8.511,0,0,0-4.359-.582c1.271-1.014,3-.788,4.507-.174.154.665.007.756-.148.756m13.126-.325a19.141,19.141,0,0,1,2.618-4.06,7.409,7.409,0,0,1-2.336,3.943.387.387,0,0,1-.282.118m5.409-7.208a22.957,22.957,0,0,1,1.641-4.594,7.5,7.5,0,0,1-1.3,4.4.4.4,0,0,1-.342.2m3.523-8.3a29.6,29.6,0,0,1,.636-4.861,7.52,7.52,0,0,1-.262,4.579.388.388,0,0,1-.374.282m1.546-8.887a8.857,8.857,0,0,1-.318-2.8c-.011-1.012-.027-1.551-.058-2.084a1.59,1.59,0,0,1,.841,1.607c0,1.3-.023,2.121-.07,2.912a.4.4,0,0,1-.394.369m-.468-9.008c-.638-1.8-.978-3.269-1.394-4.682a7.468,7.468,0,0,1,1.781,4.223c-.343.457-.367.459-.387.459M245.9,66.249c-.962-1.6-1.649-2.938-2.406-4.2a7.407,7.407,0,0,1,2.766,3.654c-.253.539-.307.551-.36.551m-4.617-7.741c-1.229-1.323-2.227-2.45-3.274-3.5a7.472,7.472,0,0,1,3.583,2.862c-.137.607-.224.635-.309.635m-6.371-6.38c-1.4-1-2.632-1.866-3.9-2.659a7.619,7.619,0,0,1,4.149,1.958c-.013.651-.13.7-.244.7m-7.647-4.785c-.949-.416-1.737-.772-2.515-1.1q-.889-.371-1.783-.709a2.048,2.048,0,0,1,2.081-.018c.8.331,1.6.692,2.386,1.076.116.665-.024.747-.17.747m-8.437-3.232c-1.484-.434-2.943-.839-4.449-1.213a8.548,8.548,0,0,1,4.565.445c.208.658.054.768-.116.768M210.072,41.9c-1.553-.318-3.028-.606-4.5-.884a8.851,8.851,0,0,1,4.586.107c.266.651.1.777-.081.777" transform="translate(147.87 32.918)" fill="#1a1a1a"/>
          <path id="Trazado_605970" data-name="Trazado 605970" d="M132.894,12.835a6.347,6.347,0,0,1-3.368-.962,6.423,6.423,0,1,1,3.368.962M132.918.784a5.684,5.684,0,0,0-1.3.152,5.594,5.594,0,1,0,1.3-.152" transform="translate(102.177 0.001)" fill="#1a1a1a"/>
          <path id="Trazado_605971" data-name="Trazado 605971" d="M89.7,174.806H52.858c-8.779,0-15.023-7.058-12.367-13.976l16.592-43.215c1.712-4.456,6.714-7.482,12.367-7.482h62.984c8.777,0,15.023,7.059,12.365,13.976l-16.592,43.215c-1.71,4.456-6.714,7.482-12.367,7.482H89.7Z" transform="translate(32.21 88.964)" fill="#1a1a1a"/>
          <path id="Trazado_605972" data-name="Trazado 605972" d="M65.463,128.992c-1.967,3.408-1.745,7.219.5,8.513s5.655-.419,7.622-3.825,1.745-7.219-.5-8.513-5.655.418-7.622,3.825" transform="translate(51.798 100.759)" fill="#fff"/>
          <path id="Trazado_605973" data-name="Trazado 605973" d="M67.262,137.72a3.714,3.714,0,0,1-1.871-.488,4.433,4.433,0,0,1-2.023-3.782,10.317,10.317,0,0,1,5.252-9.1,4.064,4.064,0,0,1,6.311,3.643,10.324,10.324,0,0,1-5.253,9.1,5.411,5.411,0,0,1-2.415.627m3.775-13.21a4.643,4.643,0,0,0-2.063.542,9.547,9.547,0,0,0-4.821,8.352,3.292,3.292,0,0,0,5.174,2.986,9.535,9.535,0,0,0,4.82-8.352,3.681,3.681,0,0,0-1.632-3.147,2.929,2.929,0,0,0-1.477-.381" transform="translate(51.178 99.944)" fill="#1a1a1a"/>
        </g>
      </g>
    </g>
    <text id="FAKE" transform="translate(467 3855)" fill="#12263f" font-size="16" font-family="Roboto-Regular, Roboto"><tspan x="0" y="0">FAKE</tspan></text>
    <g id="Grupo_1015573" data-name="Grupo 1015573" transform="translate(479.353 3756)">
      <g id="Grupo_1015572" data-name="Grupo 1015572" clip-path="url(#clip-path-2)">
        <path id="Trazado_605974" data-name="Trazado 605974" d="M49.294,24.647A24.647,24.647,0,1,1,24.647,0,24.647,24.647,0,0,1,49.294,24.647" fill="#a3bfe4"/>
        <path id="Trazado_605975" data-name="Trazado 605975" d="M16.755,25.132a2.606,2.606,0,0,0-3.689,0l-1.006,1a2.607,2.607,0,0,0,0,3.688l7.349,7.349a2.608,2.608,0,0,0,3.689,0L38.226,22.415a2.609,2.609,0,0,0,0-3.688L37.22,17.72a2.61,2.61,0,0,0-3.689,0L21.253,29.631Z" fill="#fff"/>
        <path id="Trazado_605976" data-name="Trazado 605976" d="M20.759,35.378a2.823,2.823,0,0,1-2.013-.836L11.4,27.193a2.846,2.846,0,0,1,0-4.026l1.005-1a2.843,2.843,0,0,1,4.027,0l4.333,4.332L32.869,14.748a2.848,2.848,0,0,1,4.025,0L37.9,15.757a2.854,2.854,0,0,1,0,4.026L22.771,34.545a2.832,2.832,0,0,1-2.012.833M14.415,21.805a2.356,2.356,0,0,0-1.675.694L11.734,23.5a2.368,2.368,0,0,0,0,3.35l7.349,7.35a2.368,2.368,0,0,0,3.351,0l15.13-14.761a2.375,2.375,0,0,0,0-3.348l-1.006-1.007a2.372,2.372,0,0,0-3.351,0L20.926,27c-.337,0-4.835-4.5-4.835-4.5a2.358,2.358,0,0,0-1.676-.694" fill="#1a1a1a"/>
      </g>
    </g>
  </g>
</svg>
