<svg xmlns="http://www.w3.org/2000/svg" width="1030" height="283" viewBox="0 0 1030 283">
  <g id="Grupo_1015576" data-name="Grupo 1015576" transform="translate(-285 -4155)">
    <rect id="Rectángulo_346072" data-name="Rectángulo 346072" width="1030" height="283" transform="translate(285 4155)" fill="#fff"/>
    <g id="Grupo_1015575" data-name="Grupo 1015575" transform="translate(105 -5416.814)">
      <path id="Trazado_601354" data-name="Trazado 601354" d="M-8060.489-2062l95.84,8.367,792.51.738v119.37h-911" transform="translate(8376 11700)" fill="none" stroke="#a3bfe4" stroke-width="4" stroke-dasharray="5"/>
      <path id="Trazado_601355" data-name="Trazado 601355" d="M-92,0l38.11,47.407L-92,94.815H103.555l37.059-47.657L103.555,0Z" transform="translate(272 9599)" fill="#d6fbf9"/>
      <path id="Trazado_601356" data-name="Trazado 601356" d="M-92,0l38.11,47.407L-92,94.815H103.555l37.059-47.657L103.555,0Z" transform="translate(777 9599)" fill="#d6fbf9"/>
      <path id="Trazado_601357" data-name="Trazado 601357" d="M-92,0l38.11,47.407L-92,94.815H103.555l37.059-47.657L103.555,0Z" transform="translate(1077.614 9814.815) rotate(180)" fill="#d6fbf9"/>
      <path id="Trazado_605978" data-name="Trazado 605978" d="M-92,0l38.11,47.407L-92,94.815H103.555l37.059-47.657L103.555,0Z" transform="translate(572.614 9814.815) rotate(180)" fill="#d6fbf9"/>
      <path id="Trazado_605979" data-name="Trazado 605979" d="M-92,0l38.11,47.407L-92,94.815H103.555l37.059-47.657L103.555,0Z" transform="translate(320.614 9814.815) rotate(180)" fill="#fffbe5"/>
      <path id="Trazado_605977" data-name="Trazado 605977" d="M-92,0l38.11,47.407L-92,94.815H103.555l37.059-47.657L103.555,0Z" transform="translate(825.614 9814.815) rotate(180)" fill="#fffbe5"/>
      <path id="Trazado_601358" data-name="Trazado 601358" d="M-92,0l38.11,47.407L-92,94.815H103.555l37.059-47.657L103.555,0Z" transform="translate(1029 9599)" fill="#fffbe5"/>
      <path id="Trazado_601359" data-name="Trazado 601359" d="M-92,0l38.11,47.407L-92,94.815H103.555l37.059-47.657L103.555,0Z" transform="translate(524 9599)" fill="#fffbe5"/>
      <path id="Trazado_606124" data-name="Trazado 606124" d="M5.229,10.5a5.141,5.141,0,0,1-.237,1.633A3.876,3.876,0,0,1,4.167,13.4l-.855.881a2.467,2.467,0,0,0-.747,1.687,1.539,1.539,0,0,0,.407,1.168,1.6,1.6,0,0,0,1.146.387,1.634,1.634,0,0,0,1.17-.416A1.451,1.451,0,0,0,5.728,16H7.745a2.986,2.986,0,0,1-1.009,2.335,3.819,3.819,0,0,1-2.6.864,3.849,3.849,0,0,1-2.648-.835A3,3,0,0,1,.548,16a4,4,0,0,1,1.287-2.725L2.6,12.5a2.305,2.305,0,0,0,.73-1.554l.017-.44ZM5.4,7.927A1.079,1.079,0,0,1,5.1,8.7a1.107,1.107,0,0,1-.843.31,1.121,1.121,0,0,1-.847-.31,1.139,1.139,0,0,1,0-1.538,1.121,1.121,0,0,1,.847-.31,1.107,1.107,0,0,1,.843.31A1.068,1.068,0,0,1,5.4,7.927ZM9.5,16V3.914h3.569a5.6,5.6,0,0,1,2.843.714A4.868,4.868,0,0,1,17.83,6.653a6.429,6.429,0,0,1,.681,3v.606a6.4,6.4,0,0,1-.685,3.021,4.809,4.809,0,0,1-1.951,2.009,5.858,5.858,0,0,1-2.9.706ZM11.6,5.607v8.716h1.37A3.154,3.154,0,0,0,15.5,13.29a4.5,4.5,0,0,0,.9-2.968V9.65a4.619,4.619,0,0,0-.855-3,3.031,3.031,0,0,0-2.482-1.038Zm8.434,5.819a5.3,5.3,0,0,1,.523-2.378,3.819,3.819,0,0,1,1.469-1.627A4.14,4.14,0,0,1,24.2,6.853a3.923,3.923,0,0,1,2.951,1.17,4.6,4.6,0,0,1,1.224,3.1l.008.473a5.343,5.343,0,0,1-.51,2.374,3.773,3.773,0,0,1-1.461,1.619,4.17,4.17,0,0,1-2.2.573A3.9,3.9,0,0,1,21.171,14.9a4.848,4.848,0,0,1-1.141-3.374Zm2.017.174a3.619,3.619,0,0,0,.573,2.171,1.862,1.862,0,0,0,1.594.784,1.842,1.842,0,0,0,1.59-.8,4,4,0,0,0,.569-2.333,3.572,3.572,0,0,0-.585-2.158,1.973,1.973,0,0,0-3.158-.012A3.922,3.922,0,0,0,22.047,11.6ZM24.753,3.25h2.3l-2.3,2.515-1.619,0Zm7.205,3.769.058,1.038a3.229,3.229,0,0,1,2.615-1.2q2.806,0,2.855,3.212V16H35.469V10.181A1.85,1.85,0,0,0,35.1,8.915,1.554,1.554,0,0,0,33.892,8.5a1.944,1.944,0,0,0-1.818,1.1V16H30.057V7.019Zm7.205,4.424a5.34,5.34,0,0,1,.963-3.333,3.085,3.085,0,0,1,2.582-1.258,2.931,2.931,0,0,1,2.308,1V3.25h2.017V16H45.206l-.1-.93a2.973,2.973,0,0,1-2.416,1.1,3.068,3.068,0,0,1-2.552-1.27A5.535,5.535,0,0,1,39.163,11.443Zm2.017.174a3.739,3.739,0,0,0,.527,2.137,1.71,1.71,0,0,0,1.5.768,1.9,1.9,0,0,0,1.81-1.1V9.583A1.876,1.876,0,0,0,43.222,8.5a1.723,1.723,0,0,0-1.511.776A4.163,4.163,0,0,0,41.18,11.617Zm11.912,4.549a4.173,4.173,0,0,1-3.109-1.208,4.381,4.381,0,0,1-1.191-3.217v-.249a5.389,5.389,0,0,1,.519-2.4,3.949,3.949,0,0,1,1.457-1.648,3.851,3.851,0,0,1,2.092-.589,3.525,3.525,0,0,1,2.835,1.17,4.949,4.949,0,0,1,1,3.312v.813H50.826a2.7,2.7,0,0,0,.743,1.76,2.23,2.23,0,0,0,1.639.647,2.731,2.731,0,0,0,2.258-1.121l1.087,1.038a3.631,3.631,0,0,1-1.44,1.249A4.509,4.509,0,0,1,53.092,16.166Zm-.241-7.695a1.7,1.7,0,0,0-1.341.581,3.012,3.012,0,0,0-.652,1.619H54.7v-.149a2.452,2.452,0,0,0-.54-1.531A1.686,1.686,0,0,0,52.851,8.471Zm13.6,7.695a4.173,4.173,0,0,1-3.109-1.208,4.381,4.381,0,0,1-1.191-3.217v-.249a5.389,5.389,0,0,1,.519-2.4,3.949,3.949,0,0,1,1.457-1.648,3.851,3.851,0,0,1,2.092-.589,3.525,3.525,0,0,1,2.835,1.17,4.949,4.949,0,0,1,1,3.312v.813H64.182a2.7,2.7,0,0,0,.743,1.76,2.23,2.23,0,0,0,1.639.647,2.731,2.731,0,0,0,2.258-1.121l1.087,1.038a3.631,3.631,0,0,1-1.44,1.249A4.509,4.509,0,0,1,66.448,16.166Zm-.241-7.695a1.7,1.7,0,0,0-1.341.581,3.012,3.012,0,0,0-.652,1.619h3.843v-.149a2.452,2.452,0,0,0-.54-1.531A1.686,1.686,0,0,0,66.207,8.471ZM76.649,13.56a.914.914,0,0,0-.444-.822,4.723,4.723,0,0,0-1.473-.5,7.574,7.574,0,0,1-1.718-.548A2.293,2.293,0,0,1,71.5,9.575a2.391,2.391,0,0,1,.979-1.942,3.872,3.872,0,0,1,2.49-.78,4.029,4.029,0,0,1,2.6.8,2.529,2.529,0,0,1,.992,2.067H76.55a1.243,1.243,0,0,0-.432-.967,1.654,1.654,0,0,0-1.146-.386,1.787,1.787,0,0,0-1.083.307.968.968,0,0,0-.419.822.818.818,0,0,0,.39.722,5.365,5.365,0,0,0,1.577.519,7.466,7.466,0,0,1,1.864.623,2.639,2.639,0,0,1,1,.867,2.212,2.212,0,0,1,.328,1.229,2.34,2.34,0,0,1-1,1.963A4.283,4.283,0,0,1,75,16.166a4.644,4.644,0,0,1-1.967-.4,3.238,3.238,0,0,1-1.345-1.1,2.594,2.594,0,0,1-.481-1.5h1.959a1.421,1.421,0,0,0,.54,1.1,2.1,2.1,0,0,0,1.32.386,2.04,2.04,0,0,0,1.212-.3A.938.938,0,0,0,76.649,13.56Zm6.267-8.724V7.019H84.5V8.513H82.917v5.014a1.1,1.1,0,0,0,.2.743.943.943,0,0,0,.726.228,3.107,3.107,0,0,0,.706-.083v1.561a4.968,4.968,0,0,1-1.328.191q-2.324,0-2.324-2.565V8.513H79.422V7.019H80.9V4.835ZM91.408,16a3.113,3.113,0,0,1-.232-.838,3.393,3.393,0,0,1-4.565.232,2.47,2.47,0,0,1-.855-1.909,2.55,2.55,0,0,1,1.067-2.2,5.169,5.169,0,0,1,3.051-.768h1.237V9.924a1.573,1.573,0,0,0-.39-1.116,1.547,1.547,0,0,0-1.187-.419,1.777,1.777,0,0,0-1.129.344,1.066,1.066,0,0,0-.44.876H85.946a2.239,2.239,0,0,1,.49-1.382,3.263,3.263,0,0,1,1.332-1.009,4.68,4.68,0,0,1,1.88-.365,3.769,3.769,0,0,1,2.515.793,2.827,2.827,0,0,1,.963,2.229v4.051a4.591,4.591,0,0,0,.34,1.934V16Zm-2.216-1.453a2.294,2.294,0,0,0,1.125-.291,1.941,1.941,0,0,0,.793-.78V11.783H90.022a2.973,2.973,0,0,0-1.685.39,1.264,1.264,0,0,0-.564,1.1,1.179,1.179,0,0,0,.386.926A1.5,1.5,0,0,0,89.192,14.547Zm1.121-11.3h2.3l-2.3,2.515-1.619,0Zm6.8,9.206a4.663,4.663,0,0,1,.274-1.761,4.617,4.617,0,0,1,1.083-1.442,8.269,8.269,0,0,0,1.025-1.117,1.955,1.955,0,0,0,.332-1.094,1.672,1.672,0,0,0-.386-1.189,1.482,1.482,0,0,0-1.133-.41,1.631,1.631,0,0,0-1.15.4,1.406,1.406,0,0,0-.436,1.088H94.7a2.972,2.972,0,0,1,1-2.326,3.824,3.824,0,0,1,2.6-.856,3.732,3.732,0,0,1,2.6.847,3.035,3.035,0,0,1,.934,2.368,3.877,3.877,0,0,1-1.262,2.667L99.56,10.636A2.738,2.738,0,0,0,99,12.456Zm-.141,2.577a1.058,1.058,0,0,1,.307-.79,1.29,1.29,0,0,1,1.668.008,1.065,1.065,0,0,1,.307.781,1.046,1.046,0,0,1-.3.761,1.13,1.13,0,0,1-.847.306,1.115,1.115,0,0,1-.843-.306A1.054,1.054,0,0,1,96.97,15.033Z" transform="translate(510 9634)" fill="#12263f"/>
      <path id="Trazado_606123" data-name="Trazado 606123" d="M5.229,10.5a5.141,5.141,0,0,1-.237,1.633A3.876,3.876,0,0,1,4.167,13.4l-.855.881a2.467,2.467,0,0,0-.747,1.687,1.539,1.539,0,0,0,.407,1.168,1.6,1.6,0,0,0,1.146.387,1.634,1.634,0,0,0,1.17-.416A1.451,1.451,0,0,0,5.728,16H7.745a2.986,2.986,0,0,1-1.009,2.335,3.819,3.819,0,0,1-2.6.864,3.849,3.849,0,0,1-2.648-.835A3,3,0,0,1,.548,16a4,4,0,0,1,1.287-2.725L2.6,12.5a2.305,2.305,0,0,0,.73-1.554l.017-.44ZM5.4,7.927A1.079,1.079,0,0,1,5.1,8.7a1.107,1.107,0,0,1-.843.31,1.121,1.121,0,0,1-.847-.31,1.139,1.139,0,0,1,0-1.538,1.121,1.121,0,0,1,.847-.31,1.107,1.107,0,0,1,.843.31A1.068,1.068,0,0,1,5.4,7.927Zm13.7,2.345a7.46,7.46,0,0,1-.544,2.976,4.847,4.847,0,0,1-1.523,2l2.075,1.619-1.361,1.229-2.573-2.034a5.213,5.213,0,0,1-1.087.108,4.825,4.825,0,0,1-2.611-.718A4.716,4.716,0,0,1,9.7,13.4a7.183,7.183,0,0,1-.635-3.063V9.658a7.352,7.352,0,0,1,.627-3.121,4.71,4.71,0,0,1,1.768-2.071,4.8,4.8,0,0,1,2.611-.718,4.887,4.887,0,0,1,2.635.71A4.651,4.651,0,0,1,18.469,6.5,7.336,7.336,0,0,1,19.1,9.6Zm-2.108-.631a5.248,5.248,0,0,0-.764-3.1A2.509,2.509,0,0,0,14.07,5.491a2.469,2.469,0,0,0-2.121,1.067,5.165,5.165,0,0,0-.784,3.009v.706a5.3,5.3,0,0,0,.768,3.063,2.474,2.474,0,0,0,2.154,1.1,2.478,2.478,0,0,0,2.154-1.062,5.356,5.356,0,0,0,.751-3.1Zm9.488,5.479a3.128,3.128,0,0,1-2.523,1.046,2.788,2.788,0,0,1-2.212-.855,3.637,3.637,0,0,1-.751-2.474V7.019H23.01v5.794q0,1.71,1.419,1.71a1.993,1.993,0,0,0,1.984-1.054V7.019H28.43V16h-1.9ZM32.63,16H30.613V7.019H32.63ZM30.489,4.686a1.071,1.071,0,0,1,.295-.772,1.113,1.113,0,0,1,.843-.307,1.127,1.127,0,0,1,.847.307,1.062,1.062,0,0,1,.3.772,1.038,1.038,0,0,1-.3.76,1.136,1.136,0,0,1-.847.3,1.122,1.122,0,0,1-.843-.3A1.046,1.046,0,0,1,30.489,4.686Zm8.292,11.48a4.173,4.173,0,0,1-3.109-1.208,4.381,4.381,0,0,1-1.191-3.217v-.249A5.389,5.389,0,0,1,35,9.09a3.949,3.949,0,0,1,1.457-1.648,3.851,3.851,0,0,1,2.092-.589,3.525,3.525,0,0,1,2.835,1.17,4.949,4.949,0,0,1,1,3.312v.813H36.515a2.7,2.7,0,0,0,.743,1.76,2.23,2.23,0,0,0,1.639.647,2.731,2.731,0,0,0,2.258-1.121l1.087,1.038a3.631,3.631,0,0,1-1.44,1.249A4.509,4.509,0,0,1,38.781,16.166Zm-.241-7.695a1.7,1.7,0,0,0-1.341.581,3.012,3.012,0,0,0-.652,1.619h3.843v-.149a2.452,2.452,0,0,0-.54-1.531A1.686,1.686,0,0,0,38.541,8.471ZM39,3.25h2.3L39,5.765l-1.619,0ZM45.82,7.019l.058,1.038a3.229,3.229,0,0,1,2.615-1.2q2.806,0,2.855,3.212V16H49.332V10.181a1.85,1.85,0,0,0-.369-1.266A1.554,1.554,0,0,0,47.754,8.5a1.944,1.944,0,0,0-1.818,1.1V16H43.919V7.019Zm15.771,9.147a4.173,4.173,0,0,1-3.109-1.208,4.381,4.381,0,0,1-1.191-3.217v-.249a5.389,5.389,0,0,1,.519-2.4,3.949,3.949,0,0,1,1.457-1.648,3.851,3.851,0,0,1,2.092-.589,3.525,3.525,0,0,1,2.835,1.17,4.949,4.949,0,0,1,1,3.312v.813H59.326a2.7,2.7,0,0,0,.743,1.76,2.23,2.23,0,0,0,1.639.647,2.731,2.731,0,0,0,2.258-1.121l1.087,1.038a3.631,3.631,0,0,1-1.44,1.249A4.509,4.509,0,0,1,61.592,16.166Zm-.241-7.695a1.7,1.7,0,0,0-1.341.581,3.012,3.012,0,0,0-.652,1.619H63.2v-.149a2.452,2.452,0,0,0-.54-1.531A1.686,1.686,0,0,0,61.351,8.471ZM71.793,13.56a.914.914,0,0,0-.444-.822,4.723,4.723,0,0,0-1.473-.5,7.574,7.574,0,0,1-1.718-.548,2.293,2.293,0,0,1-1.511-2.117,2.391,2.391,0,0,1,.979-1.942,3.872,3.872,0,0,1,2.49-.78,4.029,4.029,0,0,1,2.6.8,2.529,2.529,0,0,1,.992,2.067H71.694a1.243,1.243,0,0,0-.432-.967,1.654,1.654,0,0,0-1.146-.386,1.787,1.787,0,0,0-1.083.307.968.968,0,0,0-.419.822.818.818,0,0,0,.39.722,5.365,5.365,0,0,0,1.577.519,7.466,7.466,0,0,1,1.864.623,2.639,2.639,0,0,1,1,.867,2.212,2.212,0,0,1,.328,1.229,2.34,2.34,0,0,1-1,1.963,4.283,4.283,0,0,1-2.631.751,4.644,4.644,0,0,1-1.967-.4,3.238,3.238,0,0,1-1.345-1.1,2.594,2.594,0,0,1-.481-1.5h1.959a1.421,1.421,0,0,0,.54,1.1,2.1,2.1,0,0,0,1.32.386,2.04,2.04,0,0,0,1.212-.3A.938.938,0,0,0,71.793,13.56Zm5.611-1.1a4.663,4.663,0,0,1,.274-1.761,4.617,4.617,0,0,1,1.083-1.442,8.269,8.269,0,0,0,1.025-1.117,1.955,1.955,0,0,0,.332-1.094,1.672,1.672,0,0,0-.386-1.189,1.482,1.482,0,0,0-1.133-.41,1.631,1.631,0,0,0-1.15.4,1.406,1.406,0,0,0-.436,1.088H75A2.972,2.972,0,0,1,76,4.6a3.824,3.824,0,0,1,2.6-.856,3.732,3.732,0,0,1,2.6.847,3.035,3.035,0,0,1,.934,2.368,3.877,3.877,0,0,1-1.262,2.667l-1.021,1.005a2.738,2.738,0,0,0-.564,1.82Zm-.141,2.577a1.058,1.058,0,0,1,.307-.79,1.29,1.29,0,0,1,1.668.008,1.065,1.065,0,0,1,.307.781,1.046,1.046,0,0,1-.3.761,1.13,1.13,0,0,1-.847.306,1.115,1.115,0,0,1-.843-.306A1.054,1.054,0,0,1,77.264,15.033Z" transform="translate(256 9634)" fill="#12263f"/>
      <path id="Trazado_606126" data-name="Trazado 606126" d="M5.229,10.5a5.141,5.141,0,0,1-.237,1.633A3.876,3.876,0,0,1,4.167,13.4l-.855.881a2.467,2.467,0,0,0-.747,1.687,1.539,1.539,0,0,0,.407,1.168,1.6,1.6,0,0,0,1.146.387,1.634,1.634,0,0,0,1.17-.416A1.451,1.451,0,0,0,5.728,16H7.745a2.986,2.986,0,0,1-1.009,2.335,3.819,3.819,0,0,1-2.6.864,3.849,3.849,0,0,1-2.648-.835A3,3,0,0,1,.548,16a4,4,0,0,1,1.287-2.725L2.6,12.5a2.305,2.305,0,0,0,.73-1.554l.017-.44ZM5.4,7.927A1.079,1.079,0,0,1,5.1,8.7a1.107,1.107,0,0,1-.843.31,1.121,1.121,0,0,1-.847-.31,1.139,1.139,0,0,1,0-1.538,1.121,1.121,0,0,1,.847-.31,1.107,1.107,0,0,1,.843.31A1.068,1.068,0,0,1,5.4,7.927Zm13.7,2.345a7.46,7.46,0,0,1-.544,2.976,4.847,4.847,0,0,1-1.523,2l2.075,1.619-1.361,1.229-2.573-2.034a5.213,5.213,0,0,1-1.087.108,4.825,4.825,0,0,1-2.611-.718A4.716,4.716,0,0,1,9.7,13.4a7.183,7.183,0,0,1-.635-3.063V9.658a7.352,7.352,0,0,1,.627-3.121,4.71,4.71,0,0,1,1.768-2.071,4.8,4.8,0,0,1,2.611-.718,4.887,4.887,0,0,1,2.635.71A4.651,4.651,0,0,1,18.469,6.5,7.336,7.336,0,0,1,19.1,9.6Zm-2.108-.631a5.248,5.248,0,0,0-.764-3.1A2.509,2.509,0,0,0,14.07,5.491a2.469,2.469,0,0,0-2.121,1.067,5.165,5.165,0,0,0-.784,3.009v.706a5.3,5.3,0,0,0,.768,3.063,2.474,2.474,0,0,0,2.154,1.1,2.478,2.478,0,0,0,2.154-1.062,5.356,5.356,0,0,0,.751-3.1Zm9.488,5.479a3.128,3.128,0,0,1-2.523,1.046,2.788,2.788,0,0,1-2.212-.855,3.637,3.637,0,0,1-.751-2.474V7.019H23.01v5.794q0,1.71,1.419,1.71a1.993,1.993,0,0,0,1.984-1.054V7.019H28.43V16h-1.9Zm7.96,1.046a4.173,4.173,0,0,1-3.109-1.208,4.381,4.381,0,0,1-1.191-3.217v-.249a5.389,5.389,0,0,1,.519-2.4,3.949,3.949,0,0,1,1.457-1.648,3.851,3.851,0,0,1,2.092-.589,3.525,3.525,0,0,1,2.835,1.17,4.949,4.949,0,0,1,1,3.312v.813H32.174a2.7,2.7,0,0,0,.743,1.76,2.23,2.23,0,0,0,1.639.647,2.731,2.731,0,0,0,2.258-1.121L37.9,14.473a3.631,3.631,0,0,1-1.44,1.249A4.509,4.509,0,0,1,34.44,16.166ZM34.2,8.471a1.7,1.7,0,0,0-1.341.581,3.012,3.012,0,0,0-.652,1.619H36.05v-.149a2.452,2.452,0,0,0-.54-1.531A1.686,1.686,0,0,0,34.2,8.471Zm.457-5.221h2.3l-2.3,2.515-1.619,0Zm8.807,8.193a5.34,5.34,0,0,1,.963-3.333,3.085,3.085,0,0,1,2.582-1.258,2.931,2.931,0,0,1,2.308,1V3.25h2.017V16H49.506l-.1-.93a2.973,2.973,0,0,1-2.416,1.1,3.068,3.068,0,0,1-2.552-1.27A5.535,5.535,0,0,1,43.463,11.443Zm2.017.174a3.739,3.739,0,0,0,.527,2.137,1.71,1.71,0,0,0,1.5.768,1.9,1.9,0,0,0,1.81-1.1V9.583A1.876,1.876,0,0,0,47.522,8.5a1.723,1.723,0,0,0-1.511.776A4.163,4.163,0,0,0,45.48,11.617Zm11.912,4.549a4.173,4.173,0,0,1-3.109-1.208,4.381,4.381,0,0,1-1.191-3.217v-.249a5.389,5.389,0,0,1,.519-2.4,3.949,3.949,0,0,1,1.457-1.648,3.851,3.851,0,0,1,2.092-.589,3.525,3.525,0,0,1,2.835,1.17,4.949,4.949,0,0,1,1,3.312v.813H55.125a2.7,2.7,0,0,0,.743,1.76,2.23,2.23,0,0,0,1.639.647,2.731,2.731,0,0,0,2.258-1.121l1.087,1.038a3.631,3.631,0,0,1-1.44,1.249A4.509,4.509,0,0,1,57.392,16.166Zm-.241-7.695a1.7,1.7,0,0,0-1.341.581,3.012,3.012,0,0,0-.652,1.619H59v-.149a2.452,2.452,0,0,0-.54-1.531A1.686,1.686,0,0,0,57.151,8.471ZM67.593,13.56a.914.914,0,0,0-.444-.822,4.723,4.723,0,0,0-1.473-.5,7.574,7.574,0,0,1-1.718-.548,2.293,2.293,0,0,1-1.511-2.117,2.391,2.391,0,0,1,.979-1.942,3.872,3.872,0,0,1,2.49-.78,4.029,4.029,0,0,1,2.6.8,2.529,2.529,0,0,1,.992,2.067H67.494a1.243,1.243,0,0,0-.432-.967,1.654,1.654,0,0,0-1.146-.386,1.787,1.787,0,0,0-1.083.307.968.968,0,0,0-.419.822.818.818,0,0,0,.39.722,5.365,5.365,0,0,0,1.577.519,7.466,7.466,0,0,1,1.864.623,2.639,2.639,0,0,1,1,.867,2.212,2.212,0,0,1,.328,1.229,2.34,2.34,0,0,1-1,1.963,4.283,4.283,0,0,1-2.631.751,4.644,4.644,0,0,1-1.967-.4,3.238,3.238,0,0,1-1.345-1.1,2.594,2.594,0,0,1-.481-1.5h1.959a1.421,1.421,0,0,0,.54,1.1,2.1,2.1,0,0,0,1.32.386,2.04,2.04,0,0,0,1.212-.3A.938.938,0,0,0,67.593,13.56Zm7.695,2.606a4.173,4.173,0,0,1-3.109-1.208,4.381,4.381,0,0,1-1.191-3.217v-.249a5.389,5.389,0,0,1,.519-2.4,3.949,3.949,0,0,1,1.457-1.648,3.851,3.851,0,0,1,2.092-.589,3.525,3.525,0,0,1,2.835,1.17,4.949,4.949,0,0,1,1,3.312v.813H73.022a2.7,2.7,0,0,0,.743,1.76,2.23,2.23,0,0,0,1.639.647,2.731,2.731,0,0,0,2.258-1.121l1.087,1.038a3.631,3.631,0,0,1-1.44,1.249A4.509,4.509,0,0,1,75.288,16.166Zm-.241-7.695a1.7,1.7,0,0,0-1.341.581,3.012,3.012,0,0,0-.652,1.619H76.9v-.149a2.452,2.452,0,0,0-.54-1.531A1.686,1.686,0,0,0,75.047,8.471ZM85.822,16a3.113,3.113,0,0,1-.232-.838,3.393,3.393,0,0,1-4.565.232,2.47,2.47,0,0,1-.855-1.909,2.55,2.55,0,0,1,1.067-2.2,5.169,5.169,0,0,1,3.051-.768h1.237V9.924a1.573,1.573,0,0,0-.39-1.116,1.547,1.547,0,0,0-1.187-.419,1.777,1.777,0,0,0-1.129.344,1.066,1.066,0,0,0-.44.876H80.36a2.239,2.239,0,0,1,.49-1.382,3.263,3.263,0,0,1,1.332-1.009,4.68,4.68,0,0,1,1.88-.365,3.769,3.769,0,0,1,2.515.793,2.827,2.827,0,0,1,.963,2.229v4.051a4.591,4.591,0,0,0,.34,1.934V16Zm-2.216-1.453a2.294,2.294,0,0,0,1.125-.291,1.941,1.941,0,0,0,.793-.78V11.783H84.436a2.973,2.973,0,0,0-1.685.39,1.264,1.264,0,0,0-.564,1.1,1.179,1.179,0,0,0,.386.926A1.5,1.5,0,0,0,83.605,14.547Zm7.919-2.092a4.663,4.663,0,0,1,.274-1.761,4.617,4.617,0,0,1,1.083-1.442,8.269,8.269,0,0,0,1.025-1.117,1.955,1.955,0,0,0,.332-1.094,1.672,1.672,0,0,0-.386-1.189,1.482,1.482,0,0,0-1.133-.41,1.631,1.631,0,0,0-1.15.4,1.406,1.406,0,0,0-.436,1.088H89.117a2.972,2.972,0,0,1,1-2.326,3.824,3.824,0,0,1,2.6-.856,3.732,3.732,0,0,1,2.6.847,3.035,3.035,0,0,1,.934,2.368,3.877,3.877,0,0,1-1.262,2.667l-1.021,1.005a2.738,2.738,0,0,0-.564,1.82Zm-.141,2.577a1.058,1.058,0,0,1,.307-.79,1.29,1.29,0,0,1,1.668.008,1.065,1.065,0,0,1,.307.781,1.046,1.046,0,0,1-.3.761,1.13,1.13,0,0,1-.847.306,1.115,1.115,0,0,1-.843-.306A1.054,1.054,0,0,1,91.383,15.033Z" transform="translate(1020 9636.408)" fill="#12263f"/>
      <path id="Trazado_606125" data-name="Trazado 606125" d="M5.229,10.5a5.141,5.141,0,0,1-.237,1.633A3.876,3.876,0,0,1,4.167,13.4l-.855.881a2.467,2.467,0,0,0-.747,1.687,1.539,1.539,0,0,0,.407,1.168,1.6,1.6,0,0,0,1.146.387,1.634,1.634,0,0,0,1.17-.416A1.451,1.451,0,0,0,5.728,16H7.745a2.986,2.986,0,0,1-1.009,2.335,3.819,3.819,0,0,1-2.6.864,3.849,3.849,0,0,1-2.648-.835A3,3,0,0,1,.548,16a4,4,0,0,1,1.287-2.725L2.6,12.5a2.305,2.305,0,0,0,.73-1.554l.017-.44ZM5.4,7.927A1.079,1.079,0,0,1,5.1,8.7a1.107,1.107,0,0,1-.843.31,1.121,1.121,0,0,1-.847-.31,1.139,1.139,0,0,1,0-1.538,1.121,1.121,0,0,1,.847-.31,1.107,1.107,0,0,1,.843.31A1.068,1.068,0,0,1,5.4,7.927Zm13.7,2.345a7.46,7.46,0,0,1-.544,2.976,4.847,4.847,0,0,1-1.523,2l2.075,1.619-1.361,1.229-2.573-2.034a5.213,5.213,0,0,1-1.087.108,4.825,4.825,0,0,1-2.611-.718A4.716,4.716,0,0,1,9.7,13.4a7.183,7.183,0,0,1-.635-3.063V9.658a7.352,7.352,0,0,1,.627-3.121,4.71,4.71,0,0,1,1.768-2.071,4.8,4.8,0,0,1,2.611-.718,4.887,4.887,0,0,1,2.635.71A4.651,4.651,0,0,1,18.469,6.5,7.336,7.336,0,0,1,19.1,9.6Zm-2.108-.631a5.248,5.248,0,0,0-.764-3.1A2.509,2.509,0,0,0,14.07,5.491a2.469,2.469,0,0,0-2.121,1.067,5.165,5.165,0,0,0-.784,3.009v.706a5.3,5.3,0,0,0,.768,3.063,2.474,2.474,0,0,0,2.154,1.1,2.478,2.478,0,0,0,2.154-1.062,5.356,5.356,0,0,0,.751-3.1Zm9.488,5.479a3.128,3.128,0,0,1-2.523,1.046,2.788,2.788,0,0,1-2.212-.855,3.637,3.637,0,0,1-.751-2.474V7.019H23.01v5.794q0,1.71,1.419,1.71a1.993,1.993,0,0,0,1.984-1.054V7.019H28.43V16h-1.9Zm7.96,1.046a4.173,4.173,0,0,1-3.109-1.208,4.381,4.381,0,0,1-1.191-3.217v-.249a5.389,5.389,0,0,1,.519-2.4,3.949,3.949,0,0,1,1.457-1.648,3.851,3.851,0,0,1,2.092-.589,3.525,3.525,0,0,1,2.835,1.17,4.949,4.949,0,0,1,1,3.312v.813H32.174a2.7,2.7,0,0,0,.743,1.76,2.23,2.23,0,0,0,1.639.647,2.731,2.731,0,0,0,2.258-1.121L37.9,14.473a3.631,3.631,0,0,1-1.44,1.249A4.509,4.509,0,0,1,34.44,16.166ZM34.2,8.471a1.7,1.7,0,0,0-1.341.581,3.012,3.012,0,0,0-.652,1.619H36.05v-.149a2.452,2.452,0,0,0-.54-1.531A1.686,1.686,0,0,0,34.2,8.471Zm.457-5.221h2.3l-2.3,2.515-1.619,0Zm8.807,8.193a5.34,5.34,0,0,1,.963-3.333,3.085,3.085,0,0,1,2.582-1.258,2.931,2.931,0,0,1,2.308,1V3.25h2.017V16H49.506l-.1-.93a2.973,2.973,0,0,1-2.416,1.1,3.068,3.068,0,0,1-2.552-1.27A5.535,5.535,0,0,1,43.463,11.443Zm2.017.174a3.739,3.739,0,0,0,.527,2.137,1.71,1.71,0,0,0,1.5.768,1.9,1.9,0,0,0,1.81-1.1V9.583A1.876,1.876,0,0,0,47.522,8.5a1.723,1.723,0,0,0-1.511.776A4.163,4.163,0,0,0,45.48,11.617ZM55.582,16H53.565V7.019h2.017ZM53.44,4.686a1.071,1.071,0,0,1,.295-.772,1.113,1.113,0,0,1,.843-.307,1.127,1.127,0,0,1,.847.307,1.062,1.062,0,0,1,.3.772,1.038,1.038,0,0,1-.3.76,1.136,1.136,0,0,1-.847.3,1.122,1.122,0,0,1-.843-.3A1.046,1.046,0,0,1,53.44,4.686Zm8.027,9.87a1.824,1.824,0,0,0,1.253-.44,1.5,1.5,0,0,0,.531-1.087h1.9a2.963,2.963,0,0,1-.523,1.565,3.43,3.43,0,0,1-1.328,1.15,3.958,3.958,0,0,1-1.81.423,3.829,3.829,0,0,1-2.988-1.22,4.84,4.84,0,0,1-1.1-3.37v-.208a4.759,4.759,0,0,1,1.1-3.283,3.8,3.8,0,0,1,2.988-1.233,3.69,3.69,0,0,1,2.611.934,3.345,3.345,0,0,1,1.058,2.453h-1.9a1.847,1.847,0,0,0-.527-1.27,1.7,1.7,0,0,0-1.258-.5,1.775,1.775,0,0,0-1.511.71,3.621,3.621,0,0,0-.54,2.154v.324a3.682,3.682,0,0,0,.527,2.179A1.773,1.773,0,0,0,61.467,14.556Zm9.164,1.61a4.173,4.173,0,0,1-3.109-1.208,4.381,4.381,0,0,1-1.191-3.217v-.249a5.389,5.389,0,0,1,.519-2.4,3.949,3.949,0,0,1,1.457-1.648A3.851,3.851,0,0,1,70.4,6.853a3.525,3.525,0,0,1,2.835,1.17,4.949,4.949,0,0,1,1,3.312v.813H68.365a2.7,2.7,0,0,0,.743,1.76,2.23,2.23,0,0,0,1.639.647,2.731,2.731,0,0,0,2.258-1.121l1.087,1.038a3.631,3.631,0,0,1-1.44,1.249A4.509,4.509,0,0,1,70.631,16.166Zm-.241-7.695a1.7,1.7,0,0,0-1.341.581,3.012,3.012,0,0,0-.652,1.619h3.843v-.149A2.452,2.452,0,0,0,71.7,8.99,1.686,1.686,0,0,0,70.391,8.471Zm7.28,3.984a4.663,4.663,0,0,1,.274-1.761,4.617,4.617,0,0,1,1.083-1.442,8.269,8.269,0,0,0,1.025-1.117,1.955,1.955,0,0,0,.332-1.094A1.672,1.672,0,0,0,80,5.852a1.482,1.482,0,0,0-1.133-.41,1.631,1.631,0,0,0-1.15.4A1.406,1.406,0,0,0,77.28,6.93H75.263a2.972,2.972,0,0,1,1-2.326,3.824,3.824,0,0,1,2.6-.856,3.732,3.732,0,0,1,2.6.847A3.035,3.035,0,0,1,82.4,6.964,3.877,3.877,0,0,1,81.14,9.631l-1.021,1.005a2.738,2.738,0,0,0-.564,1.82Zm-.141,2.577a1.058,1.058,0,0,1,.307-.79,1.29,1.29,0,0,1,1.668.008,1.065,1.065,0,0,1,.307.781,1.046,1.046,0,0,1-.3.761,1.13,1.13,0,0,1-.847.306,1.115,1.115,0,0,1-.843-.306A1.054,1.054,0,0,1,77.529,15.033Z" transform="translate(766 9632.184)" fill="#12263f"/>
      <path id="Trazado_606130" data-name="Trazado 606130" d="M5.229,10.5a5.141,5.141,0,0,1-.237,1.633A3.876,3.876,0,0,1,4.167,13.4l-.855.881a2.467,2.467,0,0,0-.747,1.687,1.539,1.539,0,0,0,.407,1.168,1.6,1.6,0,0,0,1.146.387,1.634,1.634,0,0,0,1.17-.416A1.451,1.451,0,0,0,5.728,16H7.745a2.986,2.986,0,0,1-1.009,2.335,3.819,3.819,0,0,1-2.6.864,3.849,3.849,0,0,1-2.648-.835A3,3,0,0,1,.548,16a4,4,0,0,1,1.287-2.725L2.6,12.5a2.305,2.305,0,0,0,.73-1.554l.017-.44ZM5.4,7.927A1.079,1.079,0,0,1,5.1,8.7a1.107,1.107,0,0,1-.843.31,1.121,1.121,0,0,1-.847-.31,1.139,1.139,0,0,1,0-1.538,1.121,1.121,0,0,1,.847-.31,1.107,1.107,0,0,1,.843.31A1.068,1.068,0,0,1,5.4,7.927Zm13.7,2.345a7.46,7.46,0,0,1-.544,2.976,4.847,4.847,0,0,1-1.523,2l2.075,1.619-1.361,1.229-2.573-2.034a5.213,5.213,0,0,1-1.087.108,4.825,4.825,0,0,1-2.611-.718A4.716,4.716,0,0,1,9.7,13.4a7.183,7.183,0,0,1-.635-3.063V9.658a7.352,7.352,0,0,1,.627-3.121,4.71,4.71,0,0,1,1.768-2.071,4.8,4.8,0,0,1,2.611-.718,4.887,4.887,0,0,1,2.635.71A4.651,4.651,0,0,1,18.469,6.5,7.336,7.336,0,0,1,19.1,9.6Zm-2.108-.631a5.248,5.248,0,0,0-.764-3.1A2.509,2.509,0,0,0,14.07,5.491a2.469,2.469,0,0,0-2.121,1.067,5.165,5.165,0,0,0-.784,3.009v.706a5.3,5.3,0,0,0,.768,3.063,2.474,2.474,0,0,0,2.154,1.1,2.478,2.478,0,0,0,2.154-1.062,5.356,5.356,0,0,0,.751-3.1Zm9.488,5.479a3.128,3.128,0,0,1-2.523,1.046,2.788,2.788,0,0,1-2.212-.855,3.637,3.637,0,0,1-.751-2.474V7.019H23.01v5.794q0,1.71,1.419,1.71a1.993,1.993,0,0,0,1.984-1.054V7.019H28.43V16h-1.9Zm7.96,1.046a4.173,4.173,0,0,1-3.109-1.208,4.381,4.381,0,0,1-1.191-3.217v-.249a5.389,5.389,0,0,1,.519-2.4,3.949,3.949,0,0,1,1.457-1.648,3.851,3.851,0,0,1,2.092-.589,3.525,3.525,0,0,1,2.835,1.17,4.949,4.949,0,0,1,1,3.312v.813H32.174a2.7,2.7,0,0,0,.743,1.76,2.23,2.23,0,0,0,1.639.647,2.731,2.731,0,0,0,2.258-1.121L37.9,14.473a3.631,3.631,0,0,1-1.44,1.249A4.509,4.509,0,0,1,34.44,16.166ZM34.2,8.471a1.7,1.7,0,0,0-1.341.581,3.012,3.012,0,0,0-.652,1.619H36.05v-.149a2.452,2.452,0,0,0-.54-1.531A1.686,1.686,0,0,0,34.2,8.471Zm.457-5.221h2.3l-2.3,2.515-1.619,0ZM45.712,7.019l.058,1.038a3.229,3.229,0,0,1,2.615-1.2q2.806,0,2.855,3.212V16H49.224V10.181a1.85,1.85,0,0,0-.369-1.266A1.554,1.554,0,0,0,47.646,8.5a1.944,1.944,0,0,0-1.818,1.1V16H43.812V7.019Zm7.205,4.408a5.3,5.3,0,0,1,.523-2.378A3.819,3.819,0,0,1,54.91,7.421a4.14,4.14,0,0,1,2.175-.569,3.923,3.923,0,0,1,2.951,1.17,4.6,4.6,0,0,1,1.224,3.1l.008.473a5.343,5.343,0,0,1-.51,2.374A3.773,3.773,0,0,1,59.3,15.593a4.17,4.17,0,0,1-2.2.573A3.9,3.9,0,0,1,54.059,14.9a4.848,4.848,0,0,1-1.141-3.374Zm2.017.174a3.619,3.619,0,0,0,.573,2.171,1.862,1.862,0,0,0,1.594.784,1.842,1.842,0,0,0,1.59-.8,4,4,0,0,0,.569-2.333,3.572,3.572,0,0,0-.585-2.158,1.973,1.973,0,0,0-3.158-.012A3.922,3.922,0,0,0,54.935,11.6ZM69.353,16H67.336V3.25h2.017Zm6.151.166A4.173,4.173,0,0,1,72.4,14.958,4.381,4.381,0,0,1,71.2,11.742v-.249a5.389,5.389,0,0,1,.519-2.4A3.949,3.949,0,0,1,73.18,7.442a3.851,3.851,0,0,1,2.092-.589,3.525,3.525,0,0,1,2.835,1.17,4.949,4.949,0,0,1,1,3.312v.813H73.238a2.7,2.7,0,0,0,.743,1.76,2.23,2.23,0,0,0,1.639.647,2.731,2.731,0,0,0,2.258-1.121l1.087,1.038a3.631,3.631,0,0,1-1.44,1.249A4.509,4.509,0,0,1,75.5,16.166Zm-.241-7.695a1.7,1.7,0,0,0-1.341.581,3.012,3.012,0,0,0-.652,1.619h3.843v-.149a2.452,2.452,0,0,0-.54-1.531A1.686,1.686,0,0,0,75.263,8.471Zm9.289,2.972A5.253,5.253,0,0,1,85.535,8.1a3.157,3.157,0,0,1,2.611-1.249,2.958,2.958,0,0,1,2.416,1.071l.091-.9h1.818v8.708a3.619,3.619,0,0,1-1.1,2.789A4.189,4.189,0,0,1,88.4,19.536a4.783,4.783,0,0,1-1.93-.411,3.429,3.429,0,0,1-1.432-1.075L86,16.838a2.883,2.883,0,0,0,2.291,1.1,2.228,2.228,0,0,0,1.585-.544,2.084,2.084,0,0,0,.581-1.6v-.606a2.97,2.97,0,0,1-2.324.971,3.15,3.15,0,0,1-2.577-1.253A5.423,5.423,0,0,1,84.552,11.443Zm2.009.174a3.616,3.616,0,0,0,.552,2.129,1.775,1.775,0,0,0,1.531.776,1.941,1.941,0,0,0,1.81-1.046V9.525A1.913,1.913,0,0,0,88.661,8.5a1.782,1.782,0,0,0-1.548.789A4.049,4.049,0,0,0,86.561,11.617Zm13.422,3.5a3.128,3.128,0,0,1-2.523,1.046,2.788,2.788,0,0,1-2.212-.855,3.637,3.637,0,0,1-.751-2.474V7.019h2.017v5.794q0,1.71,1.419,1.71a1.993,1.993,0,0,0,1.984-1.054V7.019h2.017V16h-1.9Zm9.04-1.561a.914.914,0,0,0-.444-.822,4.723,4.723,0,0,0-1.473-.5,7.574,7.574,0,0,1-1.718-.548,2.293,2.293,0,0,1-1.511-2.117,2.391,2.391,0,0,1,.979-1.942,3.872,3.872,0,0,1,2.49-.78,4.029,4.029,0,0,1,2.6.8,2.529,2.529,0,0,1,.992,2.067h-2.017a1.243,1.243,0,0,0-.432-.967,1.654,1.654,0,0,0-1.146-.386,1.787,1.787,0,0,0-1.083.307.968.968,0,0,0-.419.822.818.818,0,0,0,.39.722,5.365,5.365,0,0,0,1.577.519,7.466,7.466,0,0,1,1.864.623,2.639,2.639,0,0,1,1,.867,2.212,2.212,0,0,1,.328,1.229,2.34,2.34,0,0,1-1,1.963,4.283,4.283,0,0,1-2.631.751,4.644,4.644,0,0,1-1.967-.4,3.238,3.238,0,0,1-1.345-1.1,2.594,2.594,0,0,1-.481-1.5h1.959a1.421,1.421,0,0,0,.54,1.1,2.1,2.1,0,0,0,1.32.386,2.04,2.04,0,0,0,1.212-.3A.938.938,0,0,0,109.022,13.56Zm6.267-8.724V7.019h1.585V8.513H115.29v5.014a1.1,1.1,0,0,0,.2.743.943.943,0,0,0,.726.228,3.107,3.107,0,0,0,.706-.083v1.561a4.968,4.968,0,0,1-1.328.191q-2.324,0-2.324-2.565V8.513h-1.478V7.019h1.478V4.835ZM123.781,16a3.113,3.113,0,0,1-.232-.838,3.393,3.393,0,0,1-4.565.232,2.47,2.47,0,0,1-.855-1.909,2.55,2.55,0,0,1,1.067-2.2,5.169,5.169,0,0,1,3.051-.768h1.237V9.924a1.573,1.573,0,0,0-.39-1.116,1.547,1.547,0,0,0-1.187-.419,1.777,1.777,0,0,0-1.129.344,1.066,1.066,0,0,0-.44.876h-2.017a2.239,2.239,0,0,1,.49-1.382,3.263,3.263,0,0,1,1.332-1.009,4.68,4.68,0,0,1,1.88-.365,3.769,3.769,0,0,1,2.515.793,2.827,2.827,0,0,1,.963,2.229v4.051a4.591,4.591,0,0,0,.34,1.934V16Zm-2.216-1.453a2.294,2.294,0,0,0,1.125-.291,1.941,1.941,0,0,0,.793-.78V11.783H122.4a2.973,2.973,0,0,0-1.685.39,1.264,1.264,0,0,0-.564,1.1,1.179,1.179,0,0,0,.386.926A1.5,1.5,0,0,0,121.565,14.547Zm7.919-2.092a4.663,4.663,0,0,1,.274-1.761,4.617,4.617,0,0,1,1.083-1.442,8.269,8.269,0,0,0,1.025-1.117,1.955,1.955,0,0,0,.332-1.094,1.672,1.672,0,0,0-.386-1.189,1.482,1.482,0,0,0-1.133-.41,1.631,1.631,0,0,0-1.15.4,1.406,1.406,0,0,0-.436,1.088h-2.017a2.972,2.972,0,0,1,1-2.326,3.824,3.824,0,0,1,2.6-.856,3.732,3.732,0,0,1,2.6.847,3.035,3.035,0,0,1,.934,2.368,3.877,3.877,0,0,1-1.262,2.667l-1.021,1.005a2.738,2.738,0,0,0-.564,1.82Zm-.141,2.577a1.058,1.058,0,0,1,.307-.79,1.29,1.29,0,0,1,1.668.008,1.065,1.065,0,0,1,.307.781,1.046,1.046,0,0,1-.3.761,1.13,1.13,0,0,1-.847.306,1.115,1.115,0,0,1-.843-.306A1.054,1.054,0,0,1,129.343,15.033Z" transform="translate(973.614 9756.475)" fill="#12263f"/>
      <path id="Trazado_606128" data-name="Trazado 606128" d="M5.229,10.5a5.141,5.141,0,0,1-.237,1.633A3.876,3.876,0,0,1,4.167,13.4l-.855.881a2.467,2.467,0,0,0-.747,1.687,1.539,1.539,0,0,0,.407,1.168,1.6,1.6,0,0,0,1.146.387,1.634,1.634,0,0,0,1.17-.416A1.451,1.451,0,0,0,5.728,16H7.745a2.986,2.986,0,0,1-1.009,2.335,3.819,3.819,0,0,1-2.6.864,3.849,3.849,0,0,1-2.648-.835A3,3,0,0,1,.548,16a4,4,0,0,1,1.287-2.725L2.6,12.5a2.305,2.305,0,0,0,.73-1.554l.017-.44ZM5.4,7.927A1.079,1.079,0,0,1,5.1,8.7a1.107,1.107,0,0,1-.843.31,1.121,1.121,0,0,1-.847-.31,1.139,1.139,0,0,1,0-1.538,1.121,1.121,0,0,1,.847-.31,1.107,1.107,0,0,1,.843.31A1.068,1.068,0,0,1,5.4,7.927Zm10.417,4.96a1.459,1.459,0,0,0-.56-1.229,6.741,6.741,0,0,0-2.021-.872,9.76,9.76,0,0,1-2.324-.979A3.1,3.1,0,0,1,9.255,7.1a2.945,2.945,0,0,1,1.191-2.407,4.821,4.821,0,0,1,3.092-.946,5.223,5.223,0,0,1,2.25.465A3.692,3.692,0,0,1,17.34,5.537,3.4,3.4,0,0,1,17.9,7.442H15.813a1.894,1.894,0,0,0-.594-1.482,2.45,2.45,0,0,0-1.7-.535,2.558,2.558,0,0,0-1.6.44,1.465,1.465,0,0,0-.569,1.229A1.325,1.325,0,0,0,11.97,8.2,7.076,7.076,0,0,0,14,9.065a9.317,9.317,0,0,1,2.266.955,3.6,3.6,0,0,1,1.253,1.229,3.2,3.2,0,0,1,.4,1.623,2.876,2.876,0,0,1-1.158,2.4,5.023,5.023,0,0,1-3.142.892A5.9,5.9,0,0,1,11.2,15.68a4.051,4.051,0,0,1-1.71-1.341,3.341,3.341,0,0,1-.61-1.992h2.1a1.955,1.955,0,0,0,.681,1.594,2.981,2.981,0,0,0,1.951.564,2.59,2.59,0,0,0,1.648-.444A1.433,1.433,0,0,0,15.813,12.887ZM25,15.12a3.128,3.128,0,0,1-2.523,1.046,2.788,2.788,0,0,1-2.212-.855,3.637,3.637,0,0,1-.751-2.474V7.019h2.017v5.794q0,1.71,1.419,1.71a1.993,1.993,0,0,0,1.984-1.054V7.019h2.017V16h-1.9ZM35.386,16H33.369V7.019h2.017ZM33.245,4.686a1.071,1.071,0,0,1,.295-.772,1.113,1.113,0,0,1,.843-.307,1.127,1.127,0,0,1,.847.307,1.062,1.062,0,0,1,.3.772,1.038,1.038,0,0,1-.3.76,1.136,1.136,0,0,1-.847.3,1.122,1.122,0,0,1-.843-.3A1.046,1.046,0,0,1,33.245,4.686Zm6.209,2.333.058,1.038a3.229,3.229,0,0,1,2.615-1.2q2.806,0,2.855,3.212V16H42.965V10.181A1.85,1.85,0,0,0,42.6,8.915,1.554,1.554,0,0,0,41.388,8.5a1.944,1.944,0,0,0-1.818,1.1V16H37.553V7.019ZM52.071,13.56a.914.914,0,0,0-.444-.822,4.723,4.723,0,0,0-1.473-.5,7.574,7.574,0,0,1-1.718-.548,2.293,2.293,0,0,1-1.511-2.117A2.391,2.391,0,0,1,47.9,7.633a3.872,3.872,0,0,1,2.49-.78,4.029,4.029,0,0,1,2.6.8,2.529,2.529,0,0,1,.992,2.067H51.971a1.243,1.243,0,0,0-.432-.967,1.654,1.654,0,0,0-1.146-.386,1.787,1.787,0,0,0-1.083.307.968.968,0,0,0-.419.822.818.818,0,0,0,.39.722,5.365,5.365,0,0,0,1.577.519,7.466,7.466,0,0,1,1.864.623,2.639,2.639,0,0,1,1,.867,2.212,2.212,0,0,1,.328,1.229,2.34,2.34,0,0,1-1,1.963,4.283,4.283,0,0,1-2.631.751,4.644,4.644,0,0,1-1.967-.4,3.238,3.238,0,0,1-1.345-1.1,2.594,2.594,0,0,1-.481-1.5h1.959a1.421,1.421,0,0,0,.54,1.1,2.1,2.1,0,0,0,1.32.386,2.04,2.04,0,0,0,1.212-.3A.938.938,0,0,0,52.071,13.56ZM61.177,16a3.113,3.113,0,0,1-.232-.838,3.393,3.393,0,0,1-4.565.232,2.47,2.47,0,0,1-.855-1.909,2.55,2.55,0,0,1,1.067-2.2,5.169,5.169,0,0,1,3.051-.768h1.237V9.924a1.573,1.573,0,0,0-.39-1.116A1.547,1.547,0,0,0,59.3,8.388a1.777,1.777,0,0,0-1.129.344,1.066,1.066,0,0,0-.44.876H55.715a2.239,2.239,0,0,1,.49-1.382,3.263,3.263,0,0,1,1.332-1.009,4.68,4.68,0,0,1,1.88-.365,3.769,3.769,0,0,1,2.515.793A2.827,2.827,0,0,1,62.9,9.874v4.051a4.591,4.591,0,0,0,.34,1.934V16ZM58.96,14.547a2.294,2.294,0,0,0,1.125-.291,1.941,1.941,0,0,0,.793-.78V11.783H59.791a2.973,2.973,0,0,0-1.685.39,1.264,1.264,0,0,0-.564,1.1,1.179,1.179,0,0,0,.386.926A1.5,1.5,0,0,0,58.96,14.547Zm8.575-9.712V7.019h1.585V8.513H67.535v5.014a1.1,1.1,0,0,0,.2.743.943.943,0,0,0,.726.228,3.107,3.107,0,0,0,.706-.083v1.561a4.968,4.968,0,0,1-1.328.191q-2.324,0-2.324-2.565V8.513H64.041V7.019h1.478V4.835ZM72.806,16H70.789V7.019h2.017ZM70.665,4.686a1.071,1.071,0,0,1,.295-.772,1.113,1.113,0,0,1,.843-.307,1.127,1.127,0,0,1,.847.307,1.062,1.062,0,0,1,.3.772,1.038,1.038,0,0,1-.3.76,1.136,1.136,0,0,1-.847.3,1.122,1.122,0,0,1-.843-.3A1.046,1.046,0,0,1,70.665,4.686Zm9.372,8.874a.914.914,0,0,0-.444-.822,4.723,4.723,0,0,0-1.473-.5,7.574,7.574,0,0,1-1.718-.548A2.293,2.293,0,0,1,74.89,9.575a2.391,2.391,0,0,1,.979-1.942,3.872,3.872,0,0,1,2.49-.78,4.029,4.029,0,0,1,2.6.8,2.529,2.529,0,0,1,.992,2.067H79.937a1.243,1.243,0,0,0-.432-.967,1.654,1.654,0,0,0-1.146-.386,1.787,1.787,0,0,0-1.083.307.968.968,0,0,0-.419.822.818.818,0,0,0,.39.722,5.365,5.365,0,0,0,1.577.519,7.466,7.466,0,0,1,1.864.623,2.639,2.639,0,0,1,1,.867,2.212,2.212,0,0,1,.328,1.229,2.34,2.34,0,0,1-1,1.963,4.283,4.283,0,0,1-2.631.751,4.644,4.644,0,0,1-1.967-.4,3.238,3.238,0,0,1-1.345-1.1,2.594,2.594,0,0,1-.481-1.5H76.55a1.421,1.421,0,0,0,.54,1.1,2.1,2.1,0,0,0,1.32.386,2.04,2.04,0,0,0,1.212-.3A.938.938,0,0,0,80.036,13.56ZM84.485,16V8.513h-1.37V7.019h1.37V6.2a3.085,3.085,0,0,1,.83-2.308,3.18,3.18,0,0,1,2.324-.813,4.662,4.662,0,0,1,1.129.149L88.719,4.8a3.973,3.973,0,0,0-.772-.066A1.3,1.3,0,0,0,86.5,6.222v.8h1.826V8.513H86.5V16Zm10.683,0a3.113,3.113,0,0,1-.232-.838,3.393,3.393,0,0,1-4.565.232,2.47,2.47,0,0,1-.855-1.909,2.55,2.55,0,0,1,1.067-2.2,5.169,5.169,0,0,1,3.051-.768H94.87V9.924a1.573,1.573,0,0,0-.39-1.116,1.547,1.547,0,0,0-1.187-.419,1.777,1.777,0,0,0-1.129.344,1.066,1.066,0,0,0-.44.876H89.707a2.239,2.239,0,0,1,.49-1.382,3.263,3.263,0,0,1,1.332-1.009,4.68,4.68,0,0,1,1.88-.365,3.769,3.769,0,0,1,2.515.793,2.827,2.827,0,0,1,.963,2.229v4.051a4.591,4.591,0,0,0,.34,1.934V16Zm-2.216-1.453a2.294,2.294,0,0,0,1.125-.291,1.941,1.941,0,0,0,.793-.78V11.783H93.782a2.973,2.973,0,0,0-1.685.39,1.264,1.264,0,0,0-.564,1.1,1.179,1.179,0,0,0,.386.926A1.5,1.5,0,0,0,92.952,14.547Zm9.737.008a1.824,1.824,0,0,0,1.253-.44,1.5,1.5,0,0,0,.531-1.087h1.9a2.963,2.963,0,0,1-.523,1.565,3.43,3.43,0,0,1-1.328,1.15,3.958,3.958,0,0,1-1.81.423,3.829,3.829,0,0,1-2.988-1.22,4.84,4.84,0,0,1-1.1-3.37v-.208a4.759,4.759,0,0,1,1.1-3.283,3.8,3.8,0,0,1,2.988-1.233,3.69,3.69,0,0,1,2.611.934,3.345,3.345,0,0,1,1.058,2.453h-1.9a1.847,1.847,0,0,0-.527-1.27,1.7,1.7,0,0,0-1.258-.5,1.775,1.775,0,0,0-1.511.71,3.621,3.621,0,0,0-.54,2.154v.324a3.681,3.681,0,0,0,.527,2.179A1.773,1.773,0,0,0,102.689,14.556Zm8.9,0a1.824,1.824,0,0,0,1.253-.44,1.5,1.5,0,0,0,.531-1.087h1.9a2.963,2.963,0,0,1-.523,1.565,3.43,3.43,0,0,1-1.328,1.15,3.958,3.958,0,0,1-1.81.423,3.829,3.829,0,0,1-2.988-1.22,4.84,4.84,0,0,1-1.1-3.37v-.208a4.759,4.759,0,0,1,1.1-3.283A3.8,3.8,0,0,1,111.6,6.853a3.69,3.69,0,0,1,2.611.934,3.345,3.345,0,0,1,1.058,2.453h-1.9a1.847,1.847,0,0,0-.527-1.27,1.7,1.7,0,0,0-1.258-.5,1.775,1.775,0,0,0-1.511.71,3.621,3.621,0,0,0-.54,2.154v.324a3.681,3.681,0,0,0,.527,2.179A1.773,1.773,0,0,0,111.587,14.556ZM118.942,16h-2.017V7.019h2.017ZM116.8,4.686a1.071,1.071,0,0,1,.295-.772,1.113,1.113,0,0,1,.843-.307,1.127,1.127,0,0,1,.847.307,1.062,1.062,0,0,1,.3.772,1.038,1.038,0,0,1-.3.76,1.136,1.136,0,0,1-.847.3,1.122,1.122,0,0,1-.843-.3A1.046,1.046,0,0,1,116.8,4.686Zm3.959,6.74a5.3,5.3,0,0,1,.523-2.378,3.819,3.819,0,0,1,1.469-1.627,4.14,4.14,0,0,1,2.175-.569,3.923,3.923,0,0,1,2.951,1.17,4.6,4.6,0,0,1,1.224,3.1l.008.473a5.343,5.343,0,0,1-.51,2.374,3.773,3.773,0,0,1-1.461,1.619,4.17,4.17,0,0,1-2.2.573A3.9,3.9,0,0,1,121.9,14.9a4.848,4.848,0,0,1-1.141-3.374Zm2.017.174a3.619,3.619,0,0,0,.573,2.171,1.862,1.862,0,0,0,1.594.784,1.842,1.842,0,0,0,1.59-.8,4,4,0,0,0,.569-2.333,3.572,3.572,0,0,0-.585-2.158,1.973,1.973,0,0,0-3.158-.012A3.922,3.922,0,0,0,122.777,11.6Zm2.706-8.351h2.3l-2.3,2.515-1.619,0Zm7.205,3.769.058,1.038a3.229,3.229,0,0,1,2.615-1.2q2.806,0,2.855,3.212V16H136.2V10.181a1.85,1.85,0,0,0-.369-1.266,1.554,1.554,0,0,0-1.208-.411,1.944,1.944,0,0,0-1.818,1.1V16h-2.017V7.019Zm9.455,5.437a4.663,4.663,0,0,1,.274-1.761A4.617,4.617,0,0,1,143.5,9.253a8.269,8.269,0,0,0,1.025-1.117,1.955,1.955,0,0,0,.332-1.094,1.672,1.672,0,0,0-.386-1.189,1.482,1.482,0,0,0-1.133-.41,1.631,1.631,0,0,0-1.15.4,1.406,1.406,0,0,0-.436,1.088h-2.017a2.972,2.972,0,0,1,1-2.326,3.824,3.824,0,0,1,2.6-.856,3.732,3.732,0,0,1,2.6.847,3.035,3.035,0,0,1,.934,2.368,3.877,3.877,0,0,1-1.262,2.667l-1.021,1.005a2.738,2.738,0,0,0-.564,1.82ZM142,15.033a1.058,1.058,0,0,1,.307-.79,1.29,1.29,0,0,1,1.668.008,1.065,1.065,0,0,1,.307.781,1.046,1.046,0,0,1-.3.761,1.13,1.13,0,0,1-.847.306,1.115,1.115,0,0,1-.843-.306A1.054,1.054,0,0,1,142,15.033Z" transform="translate(463 9757.408)" fill="#12263f"/>
      <path id="Trazado_606127" data-name="Trazado 606127" d="M5.229,10.5a5.141,5.141,0,0,1-.237,1.633A3.876,3.876,0,0,1,4.167,13.4l-.855.881a2.467,2.467,0,0,0-.747,1.687,1.539,1.539,0,0,0,.407,1.168,1.6,1.6,0,0,0,1.146.387,1.634,1.634,0,0,0,1.17-.416A1.451,1.451,0,0,0,5.728,16H7.745a2.986,2.986,0,0,1-1.009,2.335,3.819,3.819,0,0,1-2.6.864,3.849,3.849,0,0,1-2.648-.835A3,3,0,0,1,.548,16a4,4,0,0,1,1.287-2.725L2.6,12.5a2.305,2.305,0,0,0,.73-1.554l.017-.44ZM5.4,7.927A1.079,1.079,0,0,1,5.1,8.7a1.107,1.107,0,0,1-.843.31,1.121,1.121,0,0,1-.847-.31,1.139,1.139,0,0,1,0-1.538,1.121,1.121,0,0,1,.847-.31,1.107,1.107,0,0,1,.843.31A1.068,1.068,0,0,1,5.4,7.927Zm13.7,2.345a7.46,7.46,0,0,1-.544,2.976,4.847,4.847,0,0,1-1.523,2l2.075,1.619-1.361,1.229-2.573-2.034a5.213,5.213,0,0,1-1.087.108,4.825,4.825,0,0,1-2.611-.718A4.716,4.716,0,0,1,9.7,13.4a7.183,7.183,0,0,1-.635-3.063V9.658a7.352,7.352,0,0,1,.627-3.121,4.71,4.71,0,0,1,1.768-2.071,4.8,4.8,0,0,1,2.611-.718,4.887,4.887,0,0,1,2.635.71A4.651,4.651,0,0,1,18.469,6.5,7.336,7.336,0,0,1,19.1,9.6Zm-2.108-.631a5.248,5.248,0,0,0-.764-3.1A2.509,2.509,0,0,0,14.07,5.491a2.469,2.469,0,0,0-2.121,1.067,5.165,5.165,0,0,0-.784,3.009v.706a5.3,5.3,0,0,0,.768,3.063,2.474,2.474,0,0,0,2.154,1.1,2.478,2.478,0,0,0,2.154-1.062,5.356,5.356,0,0,0,.751-3.1Zm9.488,5.479a3.128,3.128,0,0,1-2.523,1.046,2.788,2.788,0,0,1-2.212-.855,3.637,3.637,0,0,1-.751-2.474V7.019H23.01v5.794q0,1.71,1.419,1.71a1.993,1.993,0,0,0,1.984-1.054V7.019H28.43V16h-1.9Zm7.96,1.046a4.173,4.173,0,0,1-3.109-1.208,4.381,4.381,0,0,1-1.191-3.217v-.249a5.389,5.389,0,0,1,.519-2.4,3.949,3.949,0,0,1,1.457-1.648,3.851,3.851,0,0,1,2.092-.589,3.525,3.525,0,0,1,2.835,1.17,4.949,4.949,0,0,1,1,3.312v.813H32.174a2.7,2.7,0,0,0,.743,1.76,2.23,2.23,0,0,0,1.639.647,2.731,2.731,0,0,0,2.258-1.121L37.9,14.473a3.631,3.631,0,0,1-1.44,1.249A4.509,4.509,0,0,1,34.44,16.166ZM34.2,8.471a1.7,1.7,0,0,0-1.341.581,3.012,3.012,0,0,0-.652,1.619H36.05v-.149a2.452,2.452,0,0,0-.54-1.531A1.686,1.686,0,0,0,34.2,8.471Zm.457-5.221h2.3l-2.3,2.515-1.619,0ZM47.53,14.556a1.824,1.824,0,0,0,1.253-.44,1.5,1.5,0,0,0,.531-1.087h1.9a2.963,2.963,0,0,1-.523,1.565,3.43,3.43,0,0,1-1.328,1.15,3.958,3.958,0,0,1-1.81.423,3.829,3.829,0,0,1-2.988-1.22,4.84,4.84,0,0,1-1.1-3.37v-.208a4.759,4.759,0,0,1,1.1-3.283,3.8,3.8,0,0,1,2.988-1.233,3.69,3.69,0,0,1,2.611.934,3.345,3.345,0,0,1,1.058,2.453h-1.9a1.847,1.847,0,0,0-.527-1.27,1.7,1.7,0,0,0-1.258-.5,1.775,1.775,0,0,0-1.511.71,3.621,3.621,0,0,0-.54,2.154v.324a3.682,3.682,0,0,0,.527,2.179A1.773,1.773,0,0,0,47.53,14.556Zm4.831-3.129a5.3,5.3,0,0,1,.523-2.378,3.819,3.819,0,0,1,1.469-1.627,4.14,4.14,0,0,1,2.175-.569,3.923,3.923,0,0,1,2.951,1.17,4.6,4.6,0,0,1,1.224,3.1l.008.473a5.343,5.343,0,0,1-.51,2.374,3.773,3.773,0,0,1-1.461,1.619,4.17,4.17,0,0,1-2.2.573A3.9,3.9,0,0,1,53.5,14.9a4.848,4.848,0,0,1-1.141-3.374Zm2.017.174a3.619,3.619,0,0,0,.573,2.171,1.862,1.862,0,0,0,1.594.784,1.842,1.842,0,0,0,1.59-.8,4,4,0,0,0,.569-2.333,3.572,3.572,0,0,0-.585-2.158,1.973,1.973,0,0,0-3.158-.012A3.922,3.922,0,0,0,54.378,11.6ZM64.29,7.019l.058,1.038a3.229,3.229,0,0,1,2.615-1.2q2.806,0,2.855,3.212V16H67.8V10.181a1.85,1.85,0,0,0-.369-1.266A1.554,1.554,0,0,0,66.224,8.5a1.944,1.944,0,0,0-1.818,1.1V16H62.389V7.019ZM74.4,4.835V7.019h1.585V8.513H74.4v5.014a1.1,1.1,0,0,0,.2.743.943.943,0,0,0,.726.228,3.107,3.107,0,0,0,.706-.083v1.561a4.968,4.968,0,0,1-1.328.191q-2.324,0-2.324-2.565V8.513H70.905V7.019h1.478V4.835ZM81.48,16.166a4.173,4.173,0,0,1-3.109-1.208,4.381,4.381,0,0,1-1.191-3.217v-.249a5.389,5.389,0,0,1,.519-2.4,3.949,3.949,0,0,1,1.457-1.648,3.851,3.851,0,0,1,2.092-.589,3.525,3.525,0,0,1,2.835,1.17,4.949,4.949,0,0,1,1,3.312v.813H79.214a2.7,2.7,0,0,0,.743,1.76,2.23,2.23,0,0,0,1.639.647,2.731,2.731,0,0,0,2.258-1.121l1.087,1.038a3.631,3.631,0,0,1-1.44,1.249A4.509,4.509,0,0,1,81.48,16.166ZM81.24,8.471a1.7,1.7,0,0,0-1.341.581,3.012,3.012,0,0,0-.652,1.619h3.843v-.149a2.452,2.452,0,0,0-.54-1.531A1.686,1.686,0,0,0,81.24,8.471Zm7.28-1.453.058,1.038a3.229,3.229,0,0,1,2.615-1.2q2.806,0,2.855,3.212V16H92.031V10.181a1.85,1.85,0,0,0-.369-1.266A1.554,1.554,0,0,0,90.454,8.5a1.944,1.944,0,0,0-1.818,1.1V16H86.619V7.019ZM98.248,16H96.231V7.019h2.017ZM96.106,4.686a1.071,1.071,0,0,1,.295-.772,1.113,1.113,0,0,1,.843-.307,1.127,1.127,0,0,1,.847.307,1.062,1.062,0,0,1,.3.772,1.038,1.038,0,0,1-.3.76,1.136,1.136,0,0,1-.847.3,1.122,1.122,0,0,1-.843-.3A1.046,1.046,0,0,1,96.106,4.686Zm3.959,6.757a5.34,5.34,0,0,1,.963-3.333,3.085,3.085,0,0,1,2.582-1.258,2.931,2.931,0,0,1,2.308,1V3.25h2.017V16h-1.826l-.1-.93a2.973,2.973,0,0,1-2.416,1.1,3.068,3.068,0,0,1-2.552-1.27A5.535,5.535,0,0,1,100.066,11.443Zm2.017.174a3.739,3.739,0,0,0,.527,2.137,1.71,1.71,0,0,0,1.5.768,1.9,1.9,0,0,0,1.81-1.1V9.583A1.876,1.876,0,0,0,104.125,8.5a1.723,1.723,0,0,0-1.511.776A4.163,4.163,0,0,0,102.083,11.617Zm7.579-.191a5.3,5.3,0,0,1,.523-2.378,3.819,3.819,0,0,1,1.469-1.627,4.14,4.14,0,0,1,2.175-.569,3.923,3.923,0,0,1,2.951,1.17,4.6,4.6,0,0,1,1.224,3.1l.008.473a5.343,5.343,0,0,1-.51,2.374,3.773,3.773,0,0,1-1.461,1.619,4.17,4.17,0,0,1-2.2.573A3.9,3.9,0,0,1,110.8,14.9a4.848,4.848,0,0,1-1.141-3.374Zm2.017.174a3.619,3.619,0,0,0,.573,2.171,1.862,1.862,0,0,0,1.594.784,1.842,1.842,0,0,0,1.59-.8A4,4,0,0,0,116,11.426a3.572,3.572,0,0,0-.585-2.158,1.973,1.973,0,0,0-3.158-.012A3.922,3.922,0,0,0,111.679,11.6Zm13.074,1.959a.914.914,0,0,0-.444-.822,4.723,4.723,0,0,0-1.473-.5,7.574,7.574,0,0,1-1.718-.548,2.293,2.293,0,0,1-1.511-2.117,2.391,2.391,0,0,1,.979-1.942,3.872,3.872,0,0,1,2.49-.78,4.029,4.029,0,0,1,2.6.8,2.529,2.529,0,0,1,.992,2.067h-2.017a1.243,1.243,0,0,0-.432-.967,1.654,1.654,0,0,0-1.146-.386,1.787,1.787,0,0,0-1.083.307.968.968,0,0,0-.419.822.818.818,0,0,0,.39.722,5.365,5.365,0,0,0,1.577.519,7.466,7.466,0,0,1,1.864.623,2.639,2.639,0,0,1,1,.867,2.212,2.212,0,0,1,.328,1.229,2.34,2.34,0,0,1-1,1.963,4.283,4.283,0,0,1-2.631.751,4.644,4.644,0,0,1-1.967-.4,3.238,3.238,0,0,1-1.345-1.1,2.594,2.594,0,0,1-.481-1.5h1.959a1.421,1.421,0,0,0,.54,1.1,2.1,2.1,0,0,0,1.32.386,2.04,2.04,0,0,0,1.212-.3A.938.938,0,0,0,124.752,13.56Zm13.414,1.561a3.128,3.128,0,0,1-2.523,1.046,2.788,2.788,0,0,1-2.212-.855,3.637,3.637,0,0,1-.751-2.474V7.019H134.7v5.794q0,1.71,1.419,1.71a1.993,1.993,0,0,0,1.984-1.054V7.019h2.017V16h-1.9Zm9.04-1.561a.914.914,0,0,0-.444-.822,4.723,4.723,0,0,0-1.473-.5,7.574,7.574,0,0,1-1.718-.548,2.293,2.293,0,0,1-1.511-2.117,2.391,2.391,0,0,1,.979-1.942,3.872,3.872,0,0,1,2.49-.78,4.029,4.029,0,0,1,2.6.8,2.529,2.529,0,0,1,.992,2.067h-2.017a1.243,1.243,0,0,0-.432-.967,1.654,1.654,0,0,0-1.146-.386,1.787,1.787,0,0,0-1.083.307.968.968,0,0,0-.419.822.818.818,0,0,0,.39.722,5.365,5.365,0,0,0,1.577.519,7.466,7.466,0,0,1,1.864.623,2.639,2.639,0,0,1,1,.867,2.212,2.212,0,0,1,.328,1.229,2.34,2.34,0,0,1-1,1.963,4.283,4.283,0,0,1-2.631.751,4.644,4.644,0,0,1-1.967-.4,3.238,3.238,0,0,1-1.345-1.1,2.594,2.594,0,0,1-.481-1.5h1.959a1.421,1.421,0,0,0,.54,1.1,2.1,2.1,0,0,0,1.32.386,2.04,2.04,0,0,0,1.212-.3A.938.938,0,0,0,147.206,13.56ZM156.312,16a3.113,3.113,0,0,1-.232-.838,3.393,3.393,0,0,1-4.565.232,2.47,2.47,0,0,1-.855-1.909,2.55,2.55,0,0,1,1.067-2.2,5.169,5.169,0,0,1,3.051-.768h1.237V9.924a1.573,1.573,0,0,0-.39-1.116,1.547,1.547,0,0,0-1.187-.419,1.777,1.777,0,0,0-1.129.344,1.066,1.066,0,0,0-.44.876H150.85a2.239,2.239,0,0,1,.49-1.382,3.263,3.263,0,0,1,1.332-1.009,4.68,4.68,0,0,1,1.88-.365,3.769,3.769,0,0,1,2.515.793,2.827,2.827,0,0,1,.963,2.229v4.051a4.591,4.591,0,0,0,.34,1.934V16ZM154.1,14.547a2.294,2.294,0,0,0,1.125-.291,1.941,1.941,0,0,0,.793-.78V11.783h-1.087a2.973,2.973,0,0,0-1.685.39,1.264,1.264,0,0,0-.564,1.1,1.179,1.179,0,0,0,.386.926A1.5,1.5,0,0,0,154.1,14.547Zm7.919-2.092a4.663,4.663,0,0,1,.274-1.761,4.617,4.617,0,0,1,1.083-1.442A8.269,8.269,0,0,0,164.4,8.135a1.955,1.955,0,0,0,.332-1.094,1.672,1.672,0,0,0-.386-1.189,1.482,1.482,0,0,0-1.133-.41,1.631,1.631,0,0,0-1.15.4,1.406,1.406,0,0,0-.436,1.088h-2.017a2.972,2.972,0,0,1,1-2.326,3.824,3.824,0,0,1,2.6-.856,3.732,3.732,0,0,1,2.6.847,3.035,3.035,0,0,1,.934,2.368,3.877,3.877,0,0,1-1.262,2.667l-1.021,1.005a2.738,2.738,0,0,0-.564,1.82Zm-.141,2.577a1.058,1.058,0,0,1,.307-.79,1.29,1.29,0,0,1,1.668.008,1.065,1.065,0,0,1,.307.781,1.046,1.046,0,0,1-.3.761,1.13,1.13,0,0,1-.847.306,1.115,1.115,0,0,1-.843-.306A1.054,1.054,0,0,1,161.874,15.033Z" transform="translate(200 9757.408)" fill="#12263f"/>
      <path id="Trazado_606129" data-name="Trazado 606129" d="M19.262,10.5a5.141,5.141,0,0,1-.237,1.633A3.876,3.876,0,0,1,18.2,13.4l-.855.881a2.467,2.467,0,0,0-.747,1.687A1.539,1.539,0,0,0,17,17.133a1.6,1.6,0,0,0,1.146.387,1.634,1.634,0,0,0,1.17-.416A1.451,1.451,0,0,0,19.76,16h2.017a2.986,2.986,0,0,1-1.009,2.335,3.819,3.819,0,0,1-2.6.864,3.849,3.849,0,0,1-2.648-.835A3,3,0,0,1,14.581,16a4,4,0,0,1,1.287-2.725l.764-.773a2.305,2.305,0,0,0,.73-1.554l.017-.44Zm.166-2.577a1.079,1.079,0,0,1-.295.773,1.107,1.107,0,0,1-.843.31,1.121,1.121,0,0,1-.847-.31,1.139,1.139,0,0,1,0-1.538,1.121,1.121,0,0,1,.847-.31,1.107,1.107,0,0,1,.843.31A1.068,1.068,0,0,1,19.428,7.927Zm13.323,4.138a4.364,4.364,0,0,1-1.428,3.017,4.867,4.867,0,0,1-3.312,1.083,4.713,4.713,0,0,1-2.544-.685,4.5,4.5,0,0,1-1.7-1.947,7.024,7.024,0,0,1-.623-2.93V9.476a7.075,7.075,0,0,1,.606-3.013,4.567,4.567,0,0,1,1.739-2.009,4.851,4.851,0,0,1,2.619-.706,4.672,4.672,0,0,1,3.221,1.083A4.527,4.527,0,0,1,32.751,7.9H30.659a2.985,2.985,0,0,0-.76-1.88,2.51,2.51,0,0,0-1.789-.577,2.452,2.452,0,0,0-2.1,1,5,5,0,0,0-.751,2.937v1.072a5.308,5.308,0,0,0,.7,2.991,2.328,2.328,0,0,0,2.054,1.03,2.715,2.715,0,0,0,1.859-.556,2.9,2.9,0,0,0,.789-1.851Zm7.122,3.055a3.128,3.128,0,0,1-2.523,1.046,2.788,2.788,0,0,1-2.212-.855,3.637,3.637,0,0,1-.751-2.474V7.019H36.4v5.794q0,1.71,1.419,1.71a1.993,1.993,0,0,0,1.984-1.054V7.019h2.017V16h-1.9Zm9.372.88a3.113,3.113,0,0,1-.232-.838,3.393,3.393,0,0,1-4.565.232,2.47,2.47,0,0,1-.855-1.909,2.55,2.55,0,0,1,1.067-2.2,5.169,5.169,0,0,1,3.051-.768h1.237V9.924a1.573,1.573,0,0,0-.39-1.116,1.547,1.547,0,0,0-1.187-.419,1.777,1.777,0,0,0-1.129.344,1.066,1.066,0,0,0-.44.876H43.783a2.239,2.239,0,0,1,.49-1.382A3.263,3.263,0,0,1,45.6,7.218a4.68,4.68,0,0,1,1.88-.365A3.769,3.769,0,0,1,50,7.645a2.827,2.827,0,0,1,.963,2.229v4.051a4.591,4.591,0,0,0,.34,1.934V16Zm-2.216-1.453a2.294,2.294,0,0,0,1.125-.291,1.941,1.941,0,0,0,.793-.78V11.783H47.859a2.973,2.973,0,0,0-1.685.39,1.264,1.264,0,0,0-.564,1.1A1.179,1.179,0,0,0,46,14.2,1.5,1.5,0,0,0,47.029,14.547Zm1.121-11.3h2.3l-2.3,2.515-1.619,0ZM55.221,16H53.2V3.25h2.017Zm10.384.166A4.173,4.173,0,0,1,62.5,14.958a4.381,4.381,0,0,1-1.191-3.217v-.249a5.389,5.389,0,0,1,.519-2.4,3.949,3.949,0,0,1,1.457-1.648,3.851,3.851,0,0,1,2.092-.589,3.525,3.525,0,0,1,2.835,1.17,4.949,4.949,0,0,1,1,3.312v.813H63.34a2.7,2.7,0,0,0,.743,1.76,2.23,2.23,0,0,0,1.639.647,2.731,2.731,0,0,0,2.258-1.121l1.087,1.038a3.631,3.631,0,0,1-1.44,1.249A4.509,4.509,0,0,1,65.606,16.166Zm-.241-7.695a1.7,1.7,0,0,0-1.341.581,3.012,3.012,0,0,0-.652,1.619h3.843v-.149a2.452,2.452,0,0,0-.54-1.531A1.686,1.686,0,0,0,65.365,8.471ZM75.807,13.56a.914.914,0,0,0-.444-.822,4.723,4.723,0,0,0-1.473-.5,7.574,7.574,0,0,1-1.718-.548,2.293,2.293,0,0,1-1.511-2.117,2.391,2.391,0,0,1,.979-1.942,3.872,3.872,0,0,1,2.49-.78,4.029,4.029,0,0,1,2.6.8,2.529,2.529,0,0,1,.992,2.067H75.708a1.243,1.243,0,0,0-.432-.967,1.654,1.654,0,0,0-1.146-.386,1.787,1.787,0,0,0-1.083.307.968.968,0,0,0-.419.822.818.818,0,0,0,.39.722,5.365,5.365,0,0,0,1.577.519,7.466,7.466,0,0,1,1.864.623,2.639,2.639,0,0,1,1,.867,2.212,2.212,0,0,1,.328,1.229,2.34,2.34,0,0,1-1,1.963,4.283,4.283,0,0,1-2.631.751,4.644,4.644,0,0,1-1.967-.4,3.238,3.238,0,0,1-1.345-1.1,2.594,2.594,0,0,1-.481-1.5h1.959a1.421,1.421,0,0,0,.54,1.1,2.1,2.1,0,0,0,1.32.386,2.04,2.04,0,0,0,1.212-.3A.938.938,0,0,0,75.807,13.56Zm13.007,0a.914.914,0,0,0-.444-.822,4.723,4.723,0,0,0-1.473-.5,7.574,7.574,0,0,1-1.718-.548,2.293,2.293,0,0,1-1.511-2.117,2.391,2.391,0,0,1,.979-1.942,3.872,3.872,0,0,1,2.49-.78,4.029,4.029,0,0,1,2.6.8,2.529,2.529,0,0,1,.992,2.067H88.715a1.243,1.243,0,0,0-.432-.967,1.654,1.654,0,0,0-1.146-.386,1.787,1.787,0,0,0-1.083.307.968.968,0,0,0-.419.822.818.818,0,0,0,.39.722,5.365,5.365,0,0,0,1.577.519,7.466,7.466,0,0,1,1.864.623,2.639,2.639,0,0,1,1,.867,2.212,2.212,0,0,1,.328,1.229,2.34,2.34,0,0,1-1,1.963,4.283,4.283,0,0,1-2.631.751,4.644,4.644,0,0,1-1.967-.4,3.238,3.238,0,0,1-1.345-1.1,2.594,2.594,0,0,1-.481-1.5h1.959a1.421,1.421,0,0,0,.54,1.1,2.1,2.1,0,0,0,1.32.386,2.04,2.04,0,0,0,1.212-.3A.938.938,0,0,0,88.815,13.56ZM98,15.12a3.128,3.128,0,0,1-2.523,1.046,2.788,2.788,0,0,1-2.212-.855,3.637,3.637,0,0,1-.751-2.474V7.019h2.017v5.794q0,1.71,1.419,1.71a1.993,1.993,0,0,0,1.984-1.054V7.019h2.017V16h-1.9ZM10.426,35.6a5.348,5.348,0,0,1-.946,3.324,3.031,3.031,0,0,1-2.54,1.241,3.051,3.051,0,0,1-2.366-.971v4.258H2.557V31.019H4.417l.083.913a2.963,2.963,0,0,1,2.416-1.079,3.062,3.062,0,0,1,2.577,1.224,5.49,5.49,0,0,1,.934,3.4Zm-2.009-.174a3.746,3.746,0,0,0-.535-2.133A1.741,1.741,0,0,0,6.351,32.5a1.856,1.856,0,0,0-1.776,1.021V37.51a1.873,1.873,0,0,0,1.793,1.046,1.739,1.739,0,0,0,1.507-.776A4.124,4.124,0,0,0,8.417,35.426Zm8.417-2.565a4.992,4.992,0,0,0-.822-.066,1.85,1.85,0,0,0-1.868,1.063V40H12.128V31.019h1.926l.05,1a2.273,2.273,0,0,1,2.025-1.17,1.888,1.888,0,0,1,.714.116Zm5.072,7.3A4.173,4.173,0,0,1,18.8,38.958a4.381,4.381,0,0,1-1.191-3.217v-.249a5.389,5.389,0,0,1,.519-2.4,3.949,3.949,0,0,1,1.457-1.648,3.851,3.851,0,0,1,2.092-.589,3.525,3.525,0,0,1,2.835,1.17,4.949,4.949,0,0,1,1,3.312v.813H19.64a2.7,2.7,0,0,0,.743,1.76,2.23,2.23,0,0,0,1.639.647,2.731,2.731,0,0,0,2.258-1.121l1.087,1.038a3.631,3.631,0,0,1-1.44,1.249A4.509,4.509,0,0,1,21.906,40.166Zm-.241-7.695a1.7,1.7,0,0,0-1.341.581,3.012,3.012,0,0,0-.652,1.619h3.843v-.149a2.452,2.452,0,0,0-.54-1.531A1.686,1.686,0,0,0,21.666,32.471Zm5.03,2.955a5.3,5.3,0,0,1,.523-2.378,3.819,3.819,0,0,1,1.469-1.627,4.14,4.14,0,0,1,2.175-.569,3.923,3.923,0,0,1,2.951,1.17,4.6,4.6,0,0,1,1.224,3.1l.008.473a5.343,5.343,0,0,1-.51,2.374,3.773,3.773,0,0,1-1.461,1.619,4.17,4.17,0,0,1-2.2.573A3.9,3.9,0,0,1,27.837,38.9,4.848,4.848,0,0,1,26.7,35.526Zm2.017.174a3.619,3.619,0,0,0,.573,2.171,1.862,1.862,0,0,0,1.594.784,1.842,1.842,0,0,0,1.59-.8,4,4,0,0,0,.569-2.333,3.572,3.572,0,0,0-.585-2.158,1.973,1.973,0,0,0-3.158-.012A3.922,3.922,0,0,0,28.713,35.6Zm11.729,2.955a1.824,1.824,0,0,0,1.253-.44,1.5,1.5,0,0,0,.531-1.087h1.9a2.963,2.963,0,0,1-.523,1.565,3.43,3.43,0,0,1-1.328,1.15,3.958,3.958,0,0,1-1.81.423,3.829,3.829,0,0,1-2.988-1.22,4.84,4.84,0,0,1-1.1-3.37v-.208a4.759,4.759,0,0,1,1.1-3.283,3.8,3.8,0,0,1,2.988-1.233,3.69,3.69,0,0,1,2.611.934,3.345,3.345,0,0,1,1.058,2.453h-1.9a1.847,1.847,0,0,0-.527-1.27,1.7,1.7,0,0,0-1.258-.5,1.775,1.775,0,0,0-1.511.71,3.621,3.621,0,0,0-.54,2.154v.324a3.682,3.682,0,0,0,.527,2.179A1.773,1.773,0,0,0,40.442,38.556Zm10.65.564a3.128,3.128,0,0,1-2.523,1.046,2.788,2.788,0,0,1-2.212-.855,3.637,3.637,0,0,1-.751-2.474V31.019h2.017v5.794q0,1.71,1.419,1.71a1.993,1.993,0,0,0,1.984-1.054v-6.45h2.017V40h-1.9Zm11.87-3.52a5.348,5.348,0,0,1-.946,3.324,3.287,3.287,0,0,1-4.906.27v4.258H55.093V31.019h1.859l.083.913a2.963,2.963,0,0,1,2.416-1.079,3.062,3.062,0,0,1,2.577,1.224,5.49,5.49,0,0,1,.934,3.4Zm-2.009-.174a3.746,3.746,0,0,0-.535-2.133,1.741,1.741,0,0,0-1.531-.789,1.856,1.856,0,0,0-1.776,1.021V37.51A1.873,1.873,0,0,0,58.9,38.556a1.739,1.739,0,0,0,1.507-.776A4.124,4.124,0,0,0,60.953,35.426ZM70.034,40a3.113,3.113,0,0,1-.232-.838,3.393,3.393,0,0,1-4.565.232,2.47,2.47,0,0,1-.855-1.909,2.55,2.55,0,0,1,1.067-2.2,5.169,5.169,0,0,1,3.051-.768h1.237v-.589a1.573,1.573,0,0,0-.39-1.116,1.547,1.547,0,0,0-1.187-.419,1.777,1.777,0,0,0-1.129.344,1.066,1.066,0,0,0-.44.876H64.572a2.239,2.239,0,0,1,.49-1.382,3.263,3.263,0,0,1,1.332-1.009,4.68,4.68,0,0,1,1.88-.365,3.769,3.769,0,0,1,2.515.793,2.827,2.827,0,0,1,.963,2.229v4.051a4.591,4.591,0,0,0,.34,1.934V40Zm-2.216-1.453a2.294,2.294,0,0,0,1.125-.291,1.941,1.941,0,0,0,.793-.78V35.783H68.648a2.973,2.973,0,0,0-1.685.39,1.264,1.264,0,0,0-.564,1.1,1.179,1.179,0,0,0,.386.926A1.5,1.5,0,0,0,67.818,38.547Zm9.737.008a1.824,1.824,0,0,0,1.253-.44,1.5,1.5,0,0,0,.531-1.087h1.9a2.963,2.963,0,0,1-.523,1.565,3.43,3.43,0,0,1-1.328,1.15,3.958,3.958,0,0,1-1.81.423,3.829,3.829,0,0,1-2.988-1.22,4.84,4.84,0,0,1-1.1-3.37v-.208a4.759,4.759,0,0,1,1.1-3.283,3.8,3.8,0,0,1,2.988-1.233,3.69,3.69,0,0,1,2.611.934,3.345,3.345,0,0,1,1.058,2.453h-1.9a1.847,1.847,0,0,0-.527-1.27,1.7,1.7,0,0,0-1.258-.5,1.775,1.775,0,0,0-1.511.71,3.621,3.621,0,0,0-.54,2.154v.324a3.681,3.681,0,0,0,.527,2.179A1.773,1.773,0,0,0,77.555,38.556ZM84.909,40H82.892V31.019h2.017ZM82.768,28.686a1.071,1.071,0,0,1,.295-.772,1.113,1.113,0,0,1,.843-.307,1.127,1.127,0,0,1,.847.307,1.062,1.062,0,0,1,.3.772,1.038,1.038,0,0,1-.3.76,1.136,1.136,0,0,1-.847.3,1.122,1.122,0,0,1-.843-.3A1.046,1.046,0,0,1,82.768,28.686Zm3.959,6.74a5.3,5.3,0,0,1,.523-2.378,3.819,3.819,0,0,1,1.469-1.627,4.14,4.14,0,0,1,2.175-.569,3.923,3.923,0,0,1,2.951,1.17,4.6,4.6,0,0,1,1.224,3.1l.008.473a5.343,5.343,0,0,1-.51,2.374,3.773,3.773,0,0,1-1.461,1.619,4.17,4.17,0,0,1-2.2.573A3.9,3.9,0,0,1,87.868,38.9a4.848,4.848,0,0,1-1.141-3.374Zm2.017.174a3.619,3.619,0,0,0,.573,2.171,1.862,1.862,0,0,0,1.594.784,1.842,1.842,0,0,0,1.59-.8,4,4,0,0,0,.569-2.333,3.572,3.572,0,0,0-.585-2.158,1.973,1.973,0,0,0-3.158-.012A3.922,3.922,0,0,0,88.744,35.6ZM91.45,27.25h2.3l-2.3,2.515-1.619,0Zm7.205,3.769.058,1.038a3.229,3.229,0,0,1,2.615-1.2q2.806,0,2.855,3.212V40h-2.017V34.181a1.85,1.85,0,0,0-.369-1.266,1.554,1.554,0,0,0-1.208-.411,1.944,1.944,0,0,0-1.818,1.1V40H96.754V31.019Zm9.455,5.437a4.663,4.663,0,0,1,.274-1.761,4.617,4.617,0,0,1,1.083-1.442,8.269,8.269,0,0,0,1.025-1.117,1.955,1.955,0,0,0,.332-1.094,1.672,1.672,0,0,0-.386-1.189,1.482,1.482,0,0,0-1.133-.41,1.631,1.631,0,0,0-1.15.4,1.406,1.406,0,0,0-.436,1.088H105.7a2.972,2.972,0,0,1,1-2.326,3.824,3.824,0,0,1,2.6-.856,3.732,3.732,0,0,1,2.6.847,3.035,3.035,0,0,1,.934,2.368,3.877,3.877,0,0,1-1.262,2.667l-1.021,1.005a2.738,2.738,0,0,0-.564,1.82Zm-.141,2.577a1.058,1.058,0,0,1,.307-.79,1.29,1.29,0,0,1,1.668.008,1.065,1.065,0,0,1,.307.781,1.046,1.046,0,0,1-.3.761,1.13,1.13,0,0,1-.847.306,1.115,1.115,0,0,1-.843-.306A1.054,1.054,0,0,1,107.969,39.033Z" transform="translate(736 9745.408)" fill="#12263f"/>
    </g>
  </g>
</svg>
