<svg xmlns="http://www.w3.org/2000/svg" xmlns:xlink="http://www.w3.org/1999/xlink" width="1030" height="392" viewBox="0 0 1030 392">
  <defs>
    <clipPath id="clip-path">
      <rect id="Rectángulo_345947" data-name="Rectángulo 345947" width="229.999" height="230" fill="#33ece0"/>
    </clipPath>
    <clipPath id="clip-path-2">
      <rect id="Rectángulo_345972" data-name="Rectángulo 345972" width="96.752" height="62.873" fill="none"/>
    </clipPath>
    <clipPath id="clip-path-4">
      <rect id="Rectángulo_345960" data-name="Rectángulo 345960" width="16.893" height="16.893" fill="none"/>
    </clipPath>
    <clipPath id="clip-path-5">
      <rect id="Rectángulo_345961" data-name="Rectángulo 345961" width="25.333" height="25.337" fill="none"/>
    </clipPath>
    <clipPath id="clip-path-6">
      <rect id="Rectángulo_345962" data-name="Rectángulo 345962" width="22.21" height="22.2" fill="none"/>
    </clipPath>
    <clipPath id="clip-path-7">
      <rect id="Rectángulo_345963" data-name="Rectángulo 345963" width="10.077" height="10.072" fill="none"/>
    </clipPath>
    <clipPath id="clip-path-8">
      <rect id="Rectángulo_345966" data-name="Rectángulo 345966" width="42.956" height="19.247" fill="none"/>
    </clipPath>
    <clipPath id="clip-path-9">
      <rect id="Rectángulo_345970" data-name="Rectángulo 345970" width="5.005" height="5.005" fill="none"/>
    </clipPath>
  </defs>
  <g id="Grupo_1015433" data-name="Grupo 1015433" transform="translate(-285 -8863)">
    <rect id="Rectángulo_345948" data-name="Rectángulo 345948" width="1030" height="392" transform="translate(1315 9255) rotate(180)" fill="#fffef9"/>
    <circle id="Elipse_5753" data-name="Elipse 5753" cx="115" cy="115" r="115" transform="translate(685 8944)" fill="#fff"/>
    <g id="Grupo_1015408" data-name="Grupo 1015408" transform="translate(685 8945.226)">
      <path id="Trazado_605530" data-name="Trazado 605530" d="M85.232,82.954l20.476,4.721-10.856,4.9-4.9,10.854Z" transform="translate(-51.093 -49.727)" fill="#a3bfe4"/>
      <path id="Trazado_605531" data-name="Trazado 605531" d="M0,268.829l17.814,11.137L13.6,268.826l4.213-11.137Z" transform="translate(0 -154.474)" fill="#fff198"/>
      <path id="Trazado_605532" data-name="Trazado 605532" d="M82.955,458.35l4.72-20.475,4.9,10.853,10.855,4.9Z" transform="translate(-49.728 -262.489)" fill="#983333"/>
      <path id="Trazado_605533" data-name="Trazado 605533" d="M268.827,533.96l-11.138-4.21,11.141,17.814,11.137-17.814Z" transform="translate(-154.475 -317.564)" fill="#33ece0"/>
      <path id="Trazado_605534" data-name="Trazado 605534" d="M458.35,460.634l-20.474-4.72,10.853-4.9,4.9-10.855Z" transform="translate(-262.489 -263.86)" fill="#a3bfe4"/>
      <path id="Trazado_605535" data-name="Trazado 605535" d="M533.957,272.056l-4.214,11.138,17.815-11.14-17.813-11.137Z" transform="translate(-317.56 -156.41)" fill="#fff198"/>
      <path id="Trazado_605536" data-name="Trazado 605536" d="M460.628,85.231l-4.72,20.477-4.9-10.855-10.855-4.9Z" transform="translate(-263.856 -51.093)" fill="#983333"/>
      <path id="Trazado_605537" data-name="Trazado 605537" d="M272.053,0,260.916,17.816,272.057,13.6l11.138,4.211Z" transform="translate(-156.409 0)" fill="#33ece0"/>
      <g id="Grupo_1015409" data-name="Grupo 1015409">
        <g id="Grupo_1015408-2" data-name="Grupo 1015408" clip-path="url(#clip-path)">
          <path id="Trazado_605538" data-name="Trazado 605538" d="M134.268,93.292l-9.342-3.261a88.167,88.167,0,0,0-41.662,44.81l4.353-2.1,4.578-2.208,2.006,4.671,1.895,4.4A74.523,74.523,0,0,1,130.6,102.485Z" transform="translate(-49.913 -53.97)" fill="#a3bfe4"/>
          <path id="Trazado_605539" data-name="Trazado 605539" d="M79.453,207.617l-8.911,4.3a88.16,88.16,0,0,0,2.228,61.146l1.593-4.562,1.675-4.8,4.72,1.881,4.456,1.772a74.515,74.515,0,0,1-1.854-50.646Z" transform="translate(-39.637 -124.458)" fill="#fff198"/>
          <path id="Trazado_605540" data-name="Trazado 605540" d="M93.287,363.63l-3.26,9.34a88.15,88.15,0,0,0,44.812,41.664l-2.1-4.351-2.208-4.581L135.2,403.7l4.406-1.895A74.539,74.539,0,0,1,102.478,367.3Z" transform="translate(-53.968 -217.982)" fill="#983333"/>
          <path id="Trazado_605541" data-name="Trazado 605541" d="M207.616,466.205l4.3,8.912a88.161,88.161,0,0,0,61.146-2.23L268.5,471.3l-4.8-1.677,1.882-4.722,1.775-4.454A74.531,74.531,0,0,1,216.7,462.3Z" transform="translate(-124.458 -276.019)" fill="#33ece0"/>
          <path id="Trazado_605542" data-name="Trazado 605542" d="M363.63,406.745l9.341,3.261A88.185,88.185,0,0,0,414.634,365.2l-4.353,2.1L405.7,369.5l-2.009-4.671-1.895-4.4a74.52,74.52,0,0,1-34.505,37.124Z" transform="translate(-217.982 -216.062)" fill="#a3bfe4"/>
          <path id="Trazado_605543" data-name="Trazado 605543" d="M466.2,268.669l8.91-4.3a88.19,88.19,0,0,0-2.227-61.148l-1.593,4.565-1.678,4.8-4.722-1.882-4.454-1.775a74.532,74.532,0,0,1,1.851,50.649Z" transform="translate(-276.015 -121.824)" fill="#fff198"/>
          <path id="Trazado_605544" data-name="Trazado 605544" d="M406.744,134.273,410,124.93a88.164,88.164,0,0,0-44.811-41.662l2.1,4.353L369.5,92.2l-4.67,2.008-4.4,1.894a74.559,74.559,0,0,1,37.124,34.507Z" transform="translate(-216.061 -49.916)" fill="#983333"/>
          <path id="Trazado_605545" data-name="Trazado 605545" d="M268.669,79.459l-4.3-8.913a88.17,88.17,0,0,0-61.146,2.225l4.56,1.593,4.8,1.677L210.7,80.763l-1.772,4.455a74.519,74.519,0,0,1,50.647-1.853Z" transform="translate(-121.825 -39.639)" fill="#33ece0"/>
        </g>
      </g>
    </g>
    <circle id="Elipse_5754" data-name="Elipse 5754" cx="17" cy="17" r="17" transform="translate(925 9043)" fill="#fff8cb"/>
    <circle id="Elipse_5755" data-name="Elipse 5755" cx="17" cy="17" r="17" transform="translate(641 9043)" fill="#fff8cb"/>
    <circle id="Elipse_5756" data-name="Elipse 5756" cx="17" cy="17" r="17" transform="translate(783 9186)" fill="#b6f8f4"/>
    <path id="Trazado_606241" data-name="Trazado 606241" d="M8.957-5A6.123,6.123,0,0,1,7.919-1.162,3.622,3.622,0,0,1,4.881.166a3.647,3.647,0,0,1-3.021-1.3A5.943,5.943,0,0,1,.789-4.873V-7.1a6.042,6.042,0,0,1,1.05-3.843,3.649,3.649,0,0,1,3.026-1.312,3.652,3.652,0,0,1,3.021,1.3A5.925,5.925,0,0,1,8.957-7.222Zm-2.4-2.446a4.426,4.426,0,0,0-.411-2.189,1.389,1.389,0,0,0-1.282-.685,1.364,1.364,0,0,0-1.249.652,4.142,4.142,0,0,0-.427,2.04v2.941a4.646,4.646,0,0,0,.4,2.2,1.37,1.37,0,0,0,1.291.719,1.347,1.347,0,0,0,1.27-.69,4.535,4.535,0,0,0,.407-2.11Zm4.375,1.5.7-6.143H18.4v2H13.6l-.3,2.6a3.8,3.8,0,0,1,1.818-.457,3.484,3.484,0,0,1,2.706,1.071,4.277,4.277,0,0,1,.979,3,4.382,4.382,0,0,1-.494,2.1A3.486,3.486,0,0,1,16.892-.344a4.418,4.418,0,0,1-2.175.51,4.692,4.692,0,0,1-2.034-.444A3.607,3.607,0,0,1,11.2-1.527a3.4,3.4,0,0,1-.577-1.834H13a1.773,1.773,0,0,0,.527,1.175,1.671,1.671,0,0,0,1.183.419,1.475,1.475,0,0,0,1.253-.585,2.711,2.711,0,0,0,.44-1.656A2.242,2.242,0,0,0,15.9-5.586a1.858,1.858,0,0,0-1.436-.548,2.077,2.077,0,0,0-1.386.448l-.232.216Z" transform="translate(791 9209)" fill="#12263f"/>
    <path id="Unión_13" data-name="Unión 13" d="M8129.84,11936.881a17,17,0,1,1,12.021,4.979A17,17,0,0,1,8129.84,11936.881Zm-200.818-200.818a17,17,0,1,1,12.021,4.979A17,17,0,0,1,7929.021,11736.063Z" transform="translate(-7241.451 -2764.451)" fill="#e3ecf7"/>
    <path id="Trazado_606234" data-name="Trazado 606234" d="M8.957-5A6.123,6.123,0,0,1,7.919-1.162,3.622,3.622,0,0,1,4.881.166a3.647,3.647,0,0,1-3.021-1.3A5.943,5.943,0,0,1,.789-4.873V-7.1a6.042,6.042,0,0,1,1.05-3.843,3.649,3.649,0,0,1,3.026-1.312,3.652,3.652,0,0,1,3.021,1.3A5.925,5.925,0,0,1,8.957-7.222Zm-2.4-2.446a4.426,4.426,0,0,0-.411-2.189,1.389,1.389,0,0,0-1.282-.685,1.364,1.364,0,0,0-1.249.652,4.142,4.142,0,0,0-.427,2.04v2.941a4.646,4.646,0,0,0,.4,2.2,1.37,1.37,0,0,0,1.291.719,1.347,1.347,0,0,0,1.27-.69,4.535,4.535,0,0,0,.407-2.11Zm6.458.337h1.278a1.8,1.8,0,0,0,1.353-.457,1.673,1.673,0,0,0,.44-1.212,1.479,1.479,0,0,0-.436-1.137,1.689,1.689,0,0,0-1.2-.407A1.77,1.77,0,0,0,13.3-9.94a1.208,1.208,0,0,0-.465.984h-2.4a2.95,2.95,0,0,1,.51-1.7,3.4,3.4,0,0,1,1.428-1.175,4.765,4.765,0,0,1,2.021-.423,4.519,4.519,0,0,1,3,.917,3.13,3.13,0,0,1,1.087,2.528,2.543,2.543,0,0,1-.506,1.527,3.29,3.29,0,0,1-1.328,1.071,3,3,0,0,1,1.523,1.1,2.972,2.972,0,0,1,.5,1.727A3.181,3.181,0,0,1,17.5-.805a4.723,4.723,0,0,1-3.109.971,4.478,4.478,0,0,1-2.959-.955,3.118,3.118,0,0,1-1.15-2.523h2.4a1.39,1.39,0,0,0,.51,1.112,1.881,1.881,0,0,0,1.258.432,1.89,1.89,0,0,0,1.341-.452,1.562,1.562,0,0,0,.486-1.2q0-1.81-1.992-1.81h-1.27Z" transform="translate(933 9066)" fill="#12263f"/>
    <path id="Trazado_606237" data-name="Trazado 606237" d="M8.957-5A6.123,6.123,0,0,1,7.919-1.162,3.622,3.622,0,0,1,4.881.166a3.647,3.647,0,0,1-3.021-1.3A5.943,5.943,0,0,1,.789-4.873V-7.1a6.042,6.042,0,0,1,1.05-3.843,3.649,3.649,0,0,1,3.026-1.312,3.652,3.652,0,0,1,3.021,1.3A5.925,5.925,0,0,1,8.957-7.222Zm-2.4-2.446a4.426,4.426,0,0,0-.411-2.189,1.389,1.389,0,0,0-1.282-.685,1.364,1.364,0,0,0-1.249.652,4.142,4.142,0,0,0-.427,2.04v2.941a4.646,4.646,0,0,0,.4,2.2,1.37,1.37,0,0,0,1.291.719,1.347,1.347,0,0,0,1.27-.69,4.535,4.535,0,0,0,.407-2.11ZM17.672-4.549h1.37v1.934h-1.37V0h-2.4V-2.615H10.318L10.21-4.125l5.039-7.96h2.424Zm-5.072,0h2.673V-8.815l-.158.274Z" transform="translate(891 9167)" fill="#12263f"/>
    <path id="Trazado_606232" data-name="Trazado 606232" d="M8.957-5A6.123,6.123,0,0,1,7.919-1.162,3.622,3.622,0,0,1,4.881.166a3.647,3.647,0,0,1-3.021-1.3A5.943,5.943,0,0,1,.789-4.873V-7.1a6.042,6.042,0,0,1,1.05-3.843,3.649,3.649,0,0,1,3.026-1.312,3.652,3.652,0,0,1,3.021,1.3A5.925,5.925,0,0,1,8.957-7.222Zm-2.4-2.446a4.426,4.426,0,0,0-.411-2.189,1.389,1.389,0,0,0-1.282-.685,1.364,1.364,0,0,0-1.249.652,4.142,4.142,0,0,0-.427,2.04v2.941a4.646,4.646,0,0,0,.4,2.2,1.37,1.37,0,0,0,1.291.719,1.347,1.347,0,0,0,1.27-.69,4.535,4.535,0,0,0,.407-2.11Zm12.235-3.3L14.12,0H11.588L16.27-10.152H10.26v-1.934h8.533Z" transform="translate(649 9066)" fill="#12263f"/>
    <path id="Trazado_606230" data-name="Trazado 606230" d="M8.957-5A6.123,6.123,0,0,1,7.919-1.162,3.622,3.622,0,0,1,4.881.166a3.647,3.647,0,0,1-3.021-1.3A5.943,5.943,0,0,1,.789-4.873V-7.1a6.042,6.042,0,0,1,1.05-3.843,3.649,3.649,0,0,1,3.026-1.312,3.652,3.652,0,0,1,3.021,1.3A5.925,5.925,0,0,1,8.957-7.222Zm-2.4-2.446a4.426,4.426,0,0,0-.411-2.189,1.389,1.389,0,0,0-1.282-.685,1.364,1.364,0,0,0-1.249.652,4.142,4.142,0,0,0-.427,2.04v2.941a4.646,4.646,0,0,0,.4,2.2,1.37,1.37,0,0,0,1.291.719,1.347,1.347,0,0,0,1.27-.69,4.535,4.535,0,0,0,.407-2.11Zm11.9-1.431a2.811,2.811,0,0,1-.44,1.561A3.166,3.166,0,0,1,16.8-6.226,3.5,3.5,0,0,1,18.2-5.059a2.992,2.992,0,0,1,.515,1.747,3.168,3.168,0,0,1-1.1,2.544,4.445,4.445,0,0,1-2.98.934,4.465,4.465,0,0,1-2.988-.938,3.16,3.16,0,0,1-1.1-2.54,3.011,3.011,0,0,1,.515-1.751,3.442,3.442,0,0,1,1.386-1.162,3.134,3.134,0,0,1-1.208-1.087A2.831,2.831,0,0,1,10.8-8.874a3.133,3.133,0,0,1,1.029-2.461,4.052,4.052,0,0,1,2.8-.917,4.079,4.079,0,0,1,2.793.909A3.121,3.121,0,0,1,18.453-8.874ZM16.3-3.486a1.74,1.74,0,0,0-.457-1.262,1.628,1.628,0,0,0-1.229-.473,1.625,1.625,0,0,0-1.22.469,1.737,1.737,0,0,0-.457,1.266,1.736,1.736,0,0,0,.448,1.245,1.633,1.633,0,0,0,1.245.473,1.629,1.629,0,0,0,1.224-.457A1.733,1.733,0,0,0,16.3-3.486Zm-.249-5.271A1.66,1.66,0,0,0,15.68-9.89a1.325,1.325,0,0,0-1.054-.427A1.335,1.335,0,0,0,13.58-9.9a1.651,1.651,0,0,0-.374,1.146A1.735,1.735,0,0,0,13.58-7.6a1.307,1.307,0,0,0,1.054.44,1.3,1.3,0,0,0,1.05-.44A1.747,1.747,0,0,0,16.054-8.757Z" transform="translate(691 8966)" fill="#12263f"/>
    <path id="Trazado_606228" data-name="Trazado 606228" d="M7.994,13.186H3.312L2.333,16H.149L4.715,3.914H6.6L11.173,16H8.981ZM3.9,11.493H7.4L5.653,6.479Zm9.919-4.474.058,1.038a3.229,3.229,0,0,1,2.615-1.2q2.806,0,2.855,3.212V16H17.332V10.181a1.85,1.85,0,0,0-.369-1.266A1.554,1.554,0,0,0,15.755,8.5a1.944,1.944,0,0,0-1.818,1.1V16H11.92V7.019ZM26.77,16a3.113,3.113,0,0,1-.232-.838,3.393,3.393,0,0,1-4.565.232,2.47,2.47,0,0,1-.855-1.909,2.55,2.55,0,0,1,1.067-2.2,5.169,5.169,0,0,1,3.051-.768h1.237V9.924a1.573,1.573,0,0,0-.39-1.116,1.547,1.547,0,0,0-1.187-.419,1.777,1.777,0,0,0-1.129.344,1.066,1.066,0,0,0-.44.876H21.308a2.239,2.239,0,0,1,.49-1.382A3.263,3.263,0,0,1,23.13,7.218a4.68,4.68,0,0,1,1.88-.365,3.769,3.769,0,0,1,2.515.793,2.827,2.827,0,0,1,.963,2.229v4.051a4.591,4.591,0,0,0,.34,1.934V16Zm-2.216-1.453a2.294,2.294,0,0,0,1.125-.291,1.941,1.941,0,0,0,.793-.78V11.783H25.384a2.973,2.973,0,0,0-1.685.39,1.264,1.264,0,0,0-.564,1.1,1.179,1.179,0,0,0,.386.926A1.5,1.5,0,0,0,24.554,14.547Zm1.121-11.3h2.3l-2.3,2.515-1.619,0ZM32.747,16H30.729V3.25h2.017Zm4.341,0H35.071V7.019h2.017ZM34.946,4.686a1.071,1.071,0,0,1,.295-.772,1.113,1.113,0,0,1,.843-.307,1.127,1.127,0,0,1,.847.307,1.062,1.062,0,0,1,.3.772,1.038,1.038,0,0,1-.3.76,1.136,1.136,0,0,1-.847.3,1.122,1.122,0,0,1-.843-.3A1.046,1.046,0,0,1,34.946,4.686Zm9.372,8.874a.914.914,0,0,0-.444-.822,4.723,4.723,0,0,0-1.473-.5,7.574,7.574,0,0,1-1.718-.548,2.293,2.293,0,0,1-1.511-2.117,2.391,2.391,0,0,1,.979-1.942,3.872,3.872,0,0,1,2.49-.78,4.029,4.029,0,0,1,2.6.8,2.529,2.529,0,0,1,.992,2.067H44.218a1.243,1.243,0,0,0-.432-.967,1.654,1.654,0,0,0-1.146-.386,1.787,1.787,0,0,0-1.083.307.968.968,0,0,0-.419.822.818.818,0,0,0,.39.722,5.365,5.365,0,0,0,1.577.519,7.466,7.466,0,0,1,1.864.623,2.639,2.639,0,0,1,1,.867,2.212,2.212,0,0,1,.328,1.229,2.34,2.34,0,0,1-1,1.963,4.283,4.283,0,0,1-2.631.751,4.644,4.644,0,0,1-1.967-.4,3.238,3.238,0,0,1-1.345-1.1,2.594,2.594,0,0,1-.481-1.5h1.959a1.421,1.421,0,0,0,.54,1.1,2.1,2.1,0,0,0,1.32.386,2.04,2.04,0,0,0,1.212-.3A.938.938,0,0,0,44.318,13.56ZM50.2,16H48.186V7.019H50.2ZM48.062,4.686a1.071,1.071,0,0,1,.295-.772,1.113,1.113,0,0,1,.843-.307,1.127,1.127,0,0,1,.847.307,1.062,1.062,0,0,1,.3.772,1.038,1.038,0,0,1-.3.76,1.136,1.136,0,0,1-.847.3,1.122,1.122,0,0,1-.843-.3A1.046,1.046,0,0,1,48.062,4.686Zm9.372,8.874a.914.914,0,0,0-.444-.822,4.723,4.723,0,0,0-1.473-.5,7.574,7.574,0,0,1-1.718-.548,2.293,2.293,0,0,1-1.511-2.117,2.391,2.391,0,0,1,.979-1.942,3.872,3.872,0,0,1,2.49-.78,4.029,4.029,0,0,1,2.6.8,2.529,2.529,0,0,1,.992,2.067H57.333a1.243,1.243,0,0,0-.432-.967,1.654,1.654,0,0,0-1.146-.386,1.787,1.787,0,0,0-1.083.307.968.968,0,0,0-.419.822.818.818,0,0,0,.39.722,5.365,5.365,0,0,0,1.577.519,7.466,7.466,0,0,1,1.864.623,2.639,2.639,0,0,1,1,.867,2.212,2.212,0,0,1,.328,1.229,2.34,2.34,0,0,1-1,1.963,4.283,4.283,0,0,1-2.631.751,4.644,4.644,0,0,1-1.967-.4,3.238,3.238,0,0,1-1.345-1.1,2.594,2.594,0,0,1-.481-1.5h1.959a1.421,1.421,0,0,0,.54,1.1,2.1,2.1,0,0,0,1.32.386,2.04,2.04,0,0,0,1.212-.3A.938.938,0,0,0,57.433,13.56Zm7.6-2.117a5.34,5.34,0,0,1,.963-3.333,3.085,3.085,0,0,1,2.582-1.258,2.931,2.931,0,0,1,2.308,1V3.25H72.9V16H71.071l-.1-.93a2.973,2.973,0,0,1-2.416,1.1A3.068,3.068,0,0,1,66,14.9,5.535,5.535,0,0,1,65.028,11.443Zm2.017.174a3.739,3.739,0,0,0,.527,2.137,1.71,1.71,0,0,0,1.5.768,1.9,1.9,0,0,0,1.81-1.1V9.583A1.876,1.876,0,0,0,69.087,8.5a1.723,1.723,0,0,0-1.511.776A4.163,4.163,0,0,0,67.045,11.617Zm11.912,4.549a4.173,4.173,0,0,1-3.109-1.208,4.381,4.381,0,0,1-1.191-3.217v-.249a5.389,5.389,0,0,1,.519-2.4,3.949,3.949,0,0,1,1.457-1.648,3.851,3.851,0,0,1,2.092-.589,3.525,3.525,0,0,1,2.835,1.17,4.949,4.949,0,0,1,1,3.312v.813H76.691a2.7,2.7,0,0,0,.743,1.76,2.23,2.23,0,0,0,1.639.647,2.731,2.731,0,0,0,2.258-1.121l1.087,1.038a3.631,3.631,0,0,1-1.44,1.249A4.509,4.509,0,0,1,78.957,16.166Zm-.241-7.695a1.7,1.7,0,0,0-1.341.581,3.012,3.012,0,0,0-.652,1.619h3.843v-.149a2.452,2.452,0,0,0-.54-1.531A1.686,1.686,0,0,0,78.716,8.471ZM86.27,16H84.253V3.25H86.27Zm10.119-1.444a1.824,1.824,0,0,0,1.253-.44,1.5,1.5,0,0,0,.531-1.087h1.9a2.963,2.963,0,0,1-.523,1.565,3.43,3.43,0,0,1-1.328,1.15,3.958,3.958,0,0,1-1.81.423,3.829,3.829,0,0,1-2.988-1.22,4.84,4.84,0,0,1-1.1-3.37v-.208a4.759,4.759,0,0,1,1.1-3.283,3.8,3.8,0,0,1,2.988-1.233,3.69,3.69,0,0,1,2.611.934,3.345,3.345,0,0,1,1.058,2.453h-1.9a1.847,1.847,0,0,0-.527-1.27,1.7,1.7,0,0,0-1.258-.5,1.775,1.775,0,0,0-1.511.71,3.621,3.621,0,0,0-.54,2.154v.324a3.681,3.681,0,0,0,.527,2.179A1.773,1.773,0,0,0,96.389,14.556Zm4.831-3.129a5.3,5.3,0,0,1,.523-2.378,3.819,3.819,0,0,1,1.469-1.627,4.14,4.14,0,0,1,2.175-.569,3.923,3.923,0,0,1,2.951,1.17,4.6,4.6,0,0,1,1.224,3.1l.008.473a5.343,5.343,0,0,1-.51,2.374,3.773,3.773,0,0,1-1.461,1.619,4.17,4.17,0,0,1-2.2.573,3.9,3.9,0,0,1-3.042-1.266,4.848,4.848,0,0,1-1.141-3.374Zm2.017.174a3.619,3.619,0,0,0,.573,2.171,1.862,1.862,0,0,0,1.594.784,1.842,1.842,0,0,0,1.59-.8,4,4,0,0,0,.569-2.333,3.572,3.572,0,0,0-.585-2.158,1.973,1.973,0,0,0-3.158-.012A3.922,3.922,0,0,0,103.237,11.6Zm9.911-4.582.058,1.038a3.229,3.229,0,0,1,2.615-1.2q2.806,0,2.855,3.212V16h-2.017V10.181a1.85,1.85,0,0,0-.369-1.266,1.554,1.554,0,0,0-1.208-.411,1.944,1.944,0,0,0-1.818,1.1V16h-2.017V7.019Zm10.11-2.183V7.019h1.585V8.513h-1.585v5.014a1.1,1.1,0,0,0,.2.743.943.943,0,0,0,.726.228,3.107,3.107,0,0,0,.706-.083v1.561a4.968,4.968,0,0,1-1.328.191q-2.324,0-2.324-2.565V8.513h-1.478V7.019h1.478V4.835Zm7.081,11.331a4.173,4.173,0,0,1-3.109-1.208,4.381,4.381,0,0,1-1.191-3.217v-.249a5.389,5.389,0,0,1,.519-2.4,3.949,3.949,0,0,1,1.457-1.648,3.851,3.851,0,0,1,2.092-.589,3.525,3.525,0,0,1,2.835,1.17,4.949,4.949,0,0,1,1,3.312v.813h-5.869a2.7,2.7,0,0,0,.743,1.76,2.23,2.23,0,0,0,1.639.647,2.731,2.731,0,0,0,2.258-1.121l1.087,1.038a3.631,3.631,0,0,1-1.44,1.249A4.509,4.509,0,0,1,130.339,16.166ZM130.1,8.471a1.7,1.7,0,0,0-1.341.581,3.012,3.012,0,0,0-.652,1.619h3.843v-.149a2.452,2.452,0,0,0-.54-1.531A1.686,1.686,0,0,0,130.1,8.471Zm8.633,1.5,1.71-2.955h2.241l-2.748,4.424L142.773,16h-2.225l-1.793-3.071L136.971,16H134.73l2.839-4.557L134.83,7.019h2.225Zm7.853-5.138V7.019h1.585V8.513h-1.585v5.014a1.1,1.1,0,0,0,.2.743.943.943,0,0,0,.726.228,3.107,3.107,0,0,0,.706-.083v1.561a4.968,4.968,0,0,1-1.328.191q-2.324,0-2.324-2.565V8.513h-1.478V7.019h1.478V4.835Zm2.5,6.591a5.3,5.3,0,0,1,.523-2.378,3.819,3.819,0,0,1,1.469-1.627,4.14,4.14,0,0,1,2.175-.569,3.923,3.923,0,0,1,2.951,1.17,4.6,4.6,0,0,1,1.224,3.1l.008.473a5.343,5.343,0,0,1-.51,2.374,3.773,3.773,0,0,1-1.461,1.619,4.17,4.17,0,0,1-2.2.573,3.9,3.9,0,0,1-3.042-1.266,4.848,4.848,0,0,1-1.141-3.374Zm2.017.174a3.619,3.619,0,0,0,.573,2.171,1.862,1.862,0,0,0,1.594.784,1.842,1.842,0,0,0,1.59-.8,4,4,0,0,0,.569-2.333,3.572,3.572,0,0,0-.585-2.158,1.973,1.973,0,0,0-3.158-.012A3.922,3.922,0,0,0,151.1,11.6Z" transform="translate(1040 8935)" fill="#12263f"/>
    <path id="Trazado_606226" data-name="Trazado 606226" d="M36.912,3.914,40.4,13.178l3.478-9.264h2.714V16H44.5V12.016l.208-5.329L41.137,16h-1.5L36.074,6.695l.208,5.321V16H34.189V3.914ZM48.5,11.426a5.3,5.3,0,0,1,.523-2.378,3.819,3.819,0,0,1,1.469-1.627,4.14,4.14,0,0,1,2.175-.569,3.923,3.923,0,0,1,2.951,1.17,4.6,4.6,0,0,1,1.224,3.1l.008.473a5.343,5.343,0,0,1-.51,2.374,3.773,3.773,0,0,1-1.461,1.619,4.17,4.17,0,0,1-2.2.573A3.9,3.9,0,0,1,49.641,14.9,4.848,4.848,0,0,1,48.5,11.526Zm2.017.174a3.619,3.619,0,0,0,.573,2.171,1.862,1.862,0,0,0,1.594.784,1.842,1.842,0,0,0,1.59-.8,4,4,0,0,0,.569-2.333,3.572,3.572,0,0,0-.585-2.158A1.973,1.973,0,0,0,51.1,9.256,3.922,3.922,0,0,0,50.517,11.6Zm9.911-4.582.058,1.038a3.229,3.229,0,0,1,2.615-1.2q2.806,0,2.855,3.212V16H63.939V10.181a1.85,1.85,0,0,0-.369-1.266A1.554,1.554,0,0,0,62.362,8.5a1.944,1.944,0,0,0-1.818,1.1V16H58.527V7.019ZM70.157,16H68.14V7.019h2.017ZM68.015,4.686a1.071,1.071,0,0,1,.295-.772,1.113,1.113,0,0,1,.843-.307A1.127,1.127,0,0,1,70,3.914a1.062,1.062,0,0,1,.3.772,1.038,1.038,0,0,1-.3.76,1.136,1.136,0,0,1-.847.3,1.122,1.122,0,0,1-.843-.3A1.046,1.046,0,0,1,68.015,4.686Zm6.865.149V7.019h1.585V8.513H74.88v5.014a1.1,1.1,0,0,0,.2.743.943.943,0,0,0,.726.228,3.107,3.107,0,0,0,.706-.083v1.561a4.968,4.968,0,0,1-1.328.191q-2.324,0-2.324-2.565V8.513H71.385V7.019h1.478V4.835Zm2.5,6.591A5.3,5.3,0,0,1,77.9,9.048a3.819,3.819,0,0,1,1.469-1.627,4.14,4.14,0,0,1,2.175-.569A3.923,3.923,0,0,1,84.5,8.023a4.6,4.6,0,0,1,1.224,3.1l.008.473a5.343,5.343,0,0,1-.51,2.374,3.773,3.773,0,0,1-1.461,1.619,4.17,4.17,0,0,1-2.2.573A3.9,3.9,0,0,1,78.52,14.9a4.848,4.848,0,0,1-1.141-3.374ZM79.4,11.6a3.619,3.619,0,0,0,.573,2.171,1.862,1.862,0,0,0,1.594.784,1.842,1.842,0,0,0,1.59-.8,4,4,0,0,0,.569-2.333,3.572,3.572,0,0,0-.585-2.158,1.973,1.973,0,0,0-3.158-.012A3.922,3.922,0,0,0,79.4,11.6ZM92.137,8.861a4.991,4.991,0,0,0-.822-.066,1.85,1.85,0,0,0-1.868,1.063V16H87.431V7.019h1.926l.05,1a2.273,2.273,0,0,1,2.025-1.17,1.888,1.888,0,0,1,.714.116Zm5.072,7.3A4.173,4.173,0,0,1,94.1,14.958a4.381,4.381,0,0,1-1.191-3.217v-.249a5.389,5.389,0,0,1,.519-2.4,3.949,3.949,0,0,1,1.457-1.648,3.851,3.851,0,0,1,2.092-.589,3.525,3.525,0,0,1,2.835,1.17,4.949,4.949,0,0,1,1,3.312v.813H94.943a2.7,2.7,0,0,0,.743,1.76,2.23,2.23,0,0,0,1.639.647,2.731,2.731,0,0,0,2.258-1.121l1.087,1.038a3.631,3.631,0,0,1-1.44,1.249A4.509,4.509,0,0,1,97.209,16.166Zm-.241-7.695a1.7,1.7,0,0,0-1.341.581,3.012,3.012,0,0,0-.652,1.619h3.843v-.149a2.452,2.452,0,0,0-.54-1.531A1.686,1.686,0,0,0,96.968,8.471ZM102,11.426a5.3,5.3,0,0,1,.523-2.378,3.819,3.819,0,0,1,1.469-1.627,4.14,4.14,0,0,1,2.175-.569,3.923,3.923,0,0,1,2.951,1.17,4.6,4.6,0,0,1,1.224,3.1l.008.473a5.343,5.343,0,0,1-.51,2.374,3.773,3.773,0,0,1-1.461,1.619,4.17,4.17,0,0,1-2.2.573A3.9,3.9,0,0,1,103.14,14.9,4.848,4.848,0,0,1,102,11.526Zm2.017.174a3.619,3.619,0,0,0,.573,2.171,1.862,1.862,0,0,0,1.594.784,1.842,1.842,0,0,0,1.59-.8,4,4,0,0,0,.569-2.333,3.572,3.572,0,0,0-.585-2.158,1.973,1.973,0,0,0-3.158-.012A3.922,3.922,0,0,0,104.016,11.6Zm15.415,1.511,1.826-6.093h2.15l-3.569,10.343a2.9,2.9,0,0,1-2.789,2.266,3.6,3.6,0,0,1-.971-.15V17.909l.382.025a1.964,1.964,0,0,0,1.15-.278,1.842,1.842,0,0,0,.61-.933l.291-.771-3.154-8.933h2.175ZM136.057,10.6h-4.964v3.719h5.8V16h-7.9V3.914h7.844V5.607h-5.744V8.944h4.964Zm5.3,2.839,1.9-6.425h2.083L142.232,16h-1.751l-3.138-8.981h2.092ZM151.845,16a3.113,3.113,0,0,1-.232-.838,3.393,3.393,0,0,1-4.565.232,2.47,2.47,0,0,1-.855-1.909,2.55,2.55,0,0,1,1.067-2.2,5.169,5.169,0,0,1,3.051-.768h1.237V9.924a1.573,1.573,0,0,0-.39-1.116,1.547,1.547,0,0,0-1.187-.419,1.777,1.777,0,0,0-1.129.344,1.066,1.066,0,0,0-.44.876h-2.017a2.239,2.239,0,0,1,.49-1.382A3.263,3.263,0,0,1,148.2,7.218a4.68,4.68,0,0,1,1.88-.365,3.769,3.769,0,0,1,2.515.793,2.827,2.827,0,0,1,.963,2.229v4.051a4.591,4.591,0,0,0,.34,1.934V16Zm-2.216-1.453a2.294,2.294,0,0,0,1.125-.291,1.941,1.941,0,0,0,.793-.78V11.783h-1.087a2.973,2.973,0,0,0-1.685.39,1.264,1.264,0,0,0-.564,1.1,1.179,1.179,0,0,0,.386.926A1.5,1.5,0,0,0,149.628,14.547ZM157.821,16H155.8V3.25h2.017Zm7.637-.88a3.128,3.128,0,0,1-2.523,1.046,2.788,2.788,0,0,1-2.212-.855,3.637,3.637,0,0,1-.751-2.474V7.019h2.017v5.794q0,1.71,1.419,1.71a1.993,1.993,0,0,0,1.984-1.054V7.019h2.017V16h-1.9Zm9.372.88a3.113,3.113,0,0,1-.232-.838,3.393,3.393,0,0,1-4.565.232,2.47,2.47,0,0,1-.855-1.909,2.55,2.55,0,0,1,1.067-2.2,5.169,5.169,0,0,1,3.051-.768h1.237V9.924a1.573,1.573,0,0,0-.39-1.116,1.547,1.547,0,0,0-1.187-.419,1.777,1.777,0,0,0-1.129.344,1.066,1.066,0,0,0-.44.876h-2.017a2.239,2.239,0,0,1,.49-1.382,3.263,3.263,0,0,1,1.332-1.009,4.68,4.68,0,0,1,1.88-.365,3.769,3.769,0,0,1,2.515.793,2.827,2.827,0,0,1,.963,2.229v4.051a4.591,4.591,0,0,0,.34,1.934V16Zm-2.216-1.453a2.294,2.294,0,0,0,1.125-.291,1.941,1.941,0,0,0,.793-.78V11.783h-1.087a2.973,2.973,0,0,0-1.685.39,1.264,1.264,0,0,0-.564,1.1,1.179,1.179,0,0,0,.386.926A1.5,1.5,0,0,0,172.613,14.547Zm9.737.008a1.824,1.824,0,0,0,1.253-.44,1.5,1.5,0,0,0,.531-1.087h1.9a2.963,2.963,0,0,1-.523,1.565,3.43,3.43,0,0,1-1.328,1.15,3.958,3.958,0,0,1-1.81.423,3.829,3.829,0,0,1-2.988-1.22,4.84,4.84,0,0,1-1.1-3.37v-.208a4.759,4.759,0,0,1,1.1-3.283,3.8,3.8,0,0,1,2.988-1.233,3.69,3.69,0,0,1,2.611.934,3.345,3.345,0,0,1,1.058,2.453h-1.9a1.847,1.847,0,0,0-.527-1.27,1.7,1.7,0,0,0-1.258-.5,1.775,1.775,0,0,0-1.511.71,3.621,3.621,0,0,0-.54,2.154v.324a3.682,3.682,0,0,0,.527,2.179A1.773,1.773,0,0,0,182.35,14.556ZM189.7,16h-2.017V7.019H189.7ZM187.563,4.686a1.07,1.07,0,0,1,.295-.772,1.113,1.113,0,0,1,.843-.307,1.127,1.127,0,0,1,.847.307,1.062,1.062,0,0,1,.3.772,1.038,1.038,0,0,1-.3.76,1.136,1.136,0,0,1-.847.3,1.122,1.122,0,0,1-.843-.3A1.046,1.046,0,0,1,187.563,4.686Zm3.959,6.74a5.3,5.3,0,0,1,.523-2.378,3.819,3.819,0,0,1,1.469-1.627,4.14,4.14,0,0,1,2.175-.569,3.923,3.923,0,0,1,2.951,1.17,4.6,4.6,0,0,1,1.224,3.1l.008.473a5.343,5.343,0,0,1-.51,2.374,3.773,3.773,0,0,1-1.461,1.619,4.17,4.17,0,0,1-2.2.573,3.9,3.9,0,0,1-3.042-1.266,4.848,4.848,0,0,1-1.141-3.374Zm2.017.174a3.619,3.619,0,0,0,.573,2.171,1.862,1.862,0,0,0,1.594.784,1.842,1.842,0,0,0,1.59-.8,4,4,0,0,0,.569-2.333,3.572,3.572,0,0,0-.585-2.158,1.973,1.973,0,0,0-3.158-.012A3.922,3.922,0,0,0,193.54,11.6Zm2.706-8.351h2.3l-2.3,2.515-1.619,0Zm7.205,3.769.058,1.038a3.229,3.229,0,0,1,2.615-1.2q2.806,0,2.855,3.212V16h-2.017V10.181a1.85,1.85,0,0,0-.369-1.266,1.554,1.554,0,0,0-1.208-.411,1.944,1.944,0,0,0-1.818,1.1V16H201.55V7.019Z" transform="translate(353 8935)" fill="#12263f"/>
    <path id="Trazado_606233" data-name="Trazado 606233" d="M3.951,3.914l3.486,9.264,3.478-9.264H13.63V16H11.538V12.016l.208-5.329L8.176,16h-1.5L3.113,6.695l.208,5.321V16H1.229V3.914Zm11.588,7.512a5.3,5.3,0,0,1,.523-2.378,3.819,3.819,0,0,1,1.469-1.627,4.14,4.14,0,0,1,2.175-.569,3.923,3.923,0,0,1,2.951,1.17,4.6,4.6,0,0,1,1.224,3.1l.008.473a5.343,5.343,0,0,1-.51,2.374,3.773,3.773,0,0,1-1.461,1.619,4.17,4.17,0,0,1-2.2.573A3.9,3.9,0,0,1,16.68,14.9a4.848,4.848,0,0,1-1.141-3.374Zm2.017.174a3.619,3.619,0,0,0,.573,2.171,1.862,1.862,0,0,0,1.594.784,1.842,1.842,0,0,0,1.59-.8,4,4,0,0,0,.569-2.333A3.572,3.572,0,0,0,21.3,9.268a1.973,1.973,0,0,0-3.158-.012A3.922,3.922,0,0,0,17.556,11.6Zm7.662-.158a5.34,5.34,0,0,1,.963-3.333,3.085,3.085,0,0,1,2.582-1.258,2.931,2.931,0,0,1,2.308,1V3.25h2.017V16H31.261l-.1-.93a2.973,2.973,0,0,1-2.416,1.1,3.068,3.068,0,0,1-2.552-1.27A5.535,5.535,0,0,1,25.218,11.443Zm2.017.174a3.739,3.739,0,0,0,.527,2.137,1.71,1.71,0,0,0,1.5.768,1.9,1.9,0,0,0,1.81-1.1V9.583A1.876,1.876,0,0,0,29.277,8.5a1.723,1.723,0,0,0-1.511.776A4.163,4.163,0,0,0,27.235,11.617Zm11.912,4.549a4.173,4.173,0,0,1-3.109-1.208,4.381,4.381,0,0,1-1.191-3.217v-.249a5.389,5.389,0,0,1,.519-2.4,3.949,3.949,0,0,1,1.457-1.648,3.851,3.851,0,0,1,2.092-.589,3.525,3.525,0,0,1,2.835,1.17,4.949,4.949,0,0,1,1,3.312v.813H36.88a2.7,2.7,0,0,0,.743,1.76,2.23,2.23,0,0,0,1.639.647,2.731,2.731,0,0,0,2.258-1.121l1.087,1.038a3.631,3.631,0,0,1-1.44,1.249A4.509,4.509,0,0,1,39.146,16.166Zm-.241-7.695a1.7,1.7,0,0,0-1.341.581,3.012,3.012,0,0,0-.652,1.619h3.843v-.149a2.452,2.452,0,0,0-.54-1.531A1.686,1.686,0,0,0,38.906,8.471ZM46.459,16H44.442V3.25h2.017Zm1.818-4.574A5.3,5.3,0,0,1,48.8,9.048,3.819,3.819,0,0,1,50.27,7.421a4.14,4.14,0,0,1,2.175-.569A3.923,3.923,0,0,1,55.4,8.023a4.6,4.6,0,0,1,1.224,3.1l.008.473a5.343,5.343,0,0,1-.51,2.374,3.773,3.773,0,0,1-1.461,1.619,4.17,4.17,0,0,1-2.2.573A3.9,3.9,0,0,1,49.419,14.9a4.848,4.848,0,0,1-1.141-3.374Zm2.017.174a3.619,3.619,0,0,0,.573,2.171,1.862,1.862,0,0,0,1.594.784,1.842,1.842,0,0,0,1.59-.8,4,4,0,0,0,.569-2.333,3.572,3.572,0,0,0-.585-2.158,1.973,1.973,0,0,0-3.158-.012A3.922,3.922,0,0,0,50.294,11.6Zm11.9-.158a5.34,5.34,0,0,1,.963-3.333,3.085,3.085,0,0,1,2.582-1.258,2.931,2.931,0,0,1,2.308,1V3.25h2.017V16H68.232l-.1-.93a2.973,2.973,0,0,1-2.416,1.1,3.068,3.068,0,0,1-2.552-1.27A5.535,5.535,0,0,1,62.189,11.443Zm2.017.174a3.739,3.739,0,0,0,.527,2.137,1.71,1.71,0,0,0,1.5.768,1.9,1.9,0,0,0,1.81-1.1V9.583A1.876,1.876,0,0,0,66.249,8.5a1.723,1.723,0,0,0-1.511.776A4.163,4.163,0,0,0,64.207,11.617Zm11.912,4.549a4.173,4.173,0,0,1-3.109-1.208,4.381,4.381,0,0,1-1.191-3.217v-.249a5.389,5.389,0,0,1,.519-2.4,3.949,3.949,0,0,1,1.457-1.648,3.851,3.851,0,0,1,2.092-.589,3.525,3.525,0,0,1,2.835,1.17,4.949,4.949,0,0,1,1,3.312v.813H73.852a2.7,2.7,0,0,0,.743,1.76,2.23,2.23,0,0,0,1.639.647,2.731,2.731,0,0,0,2.258-1.121l1.087,1.038a3.631,3.631,0,0,1-1.44,1.249A4.509,4.509,0,0,1,76.118,16.166Zm-.241-7.695a1.7,1.7,0,0,0-1.341.581,3.012,3.012,0,0,0-.652,1.619h3.843v-.149a2.452,2.452,0,0,0-.54-1.531A1.686,1.686,0,0,0,75.877,8.471Zm19.059,3.594a4.364,4.364,0,0,1-1.428,3.017A4.867,4.867,0,0,1,90.2,16.166a4.713,4.713,0,0,1-2.544-.685,4.5,4.5,0,0,1-1.7-1.947,7.024,7.024,0,0,1-.623-2.93V9.476a7.075,7.075,0,0,1,.606-3.013,4.567,4.567,0,0,1,1.739-2.009A4.851,4.851,0,0,1,90.3,3.748a4.672,4.672,0,0,1,3.221,1.083A4.527,4.527,0,0,1,94.936,7.9H92.844a2.985,2.985,0,0,0-.76-1.88A2.51,2.51,0,0,0,90.3,5.441a2.452,2.452,0,0,0-2.1,1A5,5,0,0,0,87.44,9.38v1.072a5.308,5.308,0,0,0,.7,2.991,2.328,2.328,0,0,0,2.054,1.03,2.715,2.715,0,0,0,1.859-.556,2.9,2.9,0,0,0,.789-1.851Zm1.3-.639a5.3,5.3,0,0,1,.523-2.378,3.819,3.819,0,0,1,1.469-1.627,4.14,4.14,0,0,1,2.175-.569,3.923,3.923,0,0,1,2.951,1.17,4.6,4.6,0,0,1,1.224,3.1l.008.473a5.343,5.343,0,0,1-.51,2.374,3.773,3.773,0,0,1-1.461,1.619,4.17,4.17,0,0,1-2.2.573A3.9,3.9,0,0,1,97.381,14.9a4.848,4.848,0,0,1-1.141-3.374Zm2.017.174a3.619,3.619,0,0,0,.573,2.171,1.862,1.862,0,0,0,1.594.784,1.842,1.842,0,0,0,1.59-.8,4,4,0,0,0,.569-2.333A3.572,3.572,0,0,0,102,9.268a1.973,1.973,0,0,0-3.158-.012A3.922,3.922,0,0,0,98.256,11.6Zm9.936-4.582.058.938a3.232,3.232,0,0,1,2.59-1.1,2.483,2.483,0,0,1,2.465,1.378,3.186,3.186,0,0,1,2.756-1.378,2.8,2.8,0,0,1,2.212.822,3.618,3.618,0,0,1,.743,2.424V16H117V10.156a1.786,1.786,0,0,0-.374-1.253,1.635,1.635,0,0,0-1.237-.4,1.679,1.679,0,0,0-1.125.369,1.948,1.948,0,0,0-.61.967L113.663,16h-2.017V10.09A1.439,1.439,0,0,0,110.027,8.5a1.776,1.776,0,0,0-1.718.988V16h-2.017V7.019Zm18.336,8.1a3.128,3.128,0,0,1-2.523,1.046,2.788,2.788,0,0,1-2.212-.855,3.637,3.637,0,0,1-.751-2.474V7.019h2.017v5.794q0,1.71,1.419,1.71a1.993,1.993,0,0,0,1.984-1.054V7.019h2.017V16h-1.9Zm5.877-8.1.058,1.038a3.229,3.229,0,0,1,2.615-1.2q2.806,0,2.855,3.212V16h-2.017V10.181a1.85,1.85,0,0,0-.369-1.266A1.554,1.554,0,0,0,134.34,8.5a1.944,1.944,0,0,0-1.818,1.1V16H130.5V7.019ZM142.134,16h-2.017V7.019h2.017ZM139.993,4.686a1.07,1.07,0,0,1,.295-.772,1.113,1.113,0,0,1,.843-.307,1.127,1.127,0,0,1,.847.307,1.062,1.062,0,0,1,.3.772,1.038,1.038,0,0,1-.3.76,1.136,1.136,0,0,1-.847.3,1.122,1.122,0,0,1-.843-.3A1.046,1.046,0,0,1,139.993,4.686Zm8.027,9.87a1.824,1.824,0,0,0,1.253-.44,1.5,1.5,0,0,0,.531-1.087h1.9a2.963,2.963,0,0,1-.523,1.565,3.43,3.43,0,0,1-1.328,1.15,3.958,3.958,0,0,1-1.81.423,3.829,3.829,0,0,1-2.988-1.22,4.84,4.84,0,0,1-1.1-3.37v-.208a4.759,4.759,0,0,1,1.1-3.283,3.8,3.8,0,0,1,2.988-1.233,3.69,3.69,0,0,1,2.611.934,3.345,3.345,0,0,1,1.058,2.453h-1.9a1.847,1.847,0,0,0-.527-1.27,1.7,1.7,0,0,0-1.258-.5,1.775,1.775,0,0,0-1.511.71,3.621,3.621,0,0,0-.54,2.154v.324a3.682,3.682,0,0,0,.527,2.179A1.773,1.773,0,0,0,148.02,14.556ZM158.595,16a3.113,3.113,0,0,1-.232-.838,3.393,3.393,0,0,1-4.565.232,2.47,2.47,0,0,1-.855-1.909,2.55,2.55,0,0,1,1.067-2.2,5.169,5.169,0,0,1,3.051-.768H158.3V9.924a1.573,1.573,0,0,0-.39-1.116,1.547,1.547,0,0,0-1.187-.419,1.777,1.777,0,0,0-1.129.344,1.066,1.066,0,0,0-.44.876h-2.017a2.239,2.239,0,0,1,.49-1.382,3.263,3.263,0,0,1,1.332-1.009,4.68,4.68,0,0,1,1.88-.365,3.769,3.769,0,0,1,2.515.793,2.827,2.827,0,0,1,.963,2.229v4.051a4.591,4.591,0,0,0,.34,1.934V16Zm-2.216-1.453a2.294,2.294,0,0,0,1.125-.291,1.941,1.941,0,0,0,.793-.78V11.783h-1.087a2.973,2.973,0,0,0-1.685.39,1.264,1.264,0,0,0-.564,1.1,1.179,1.179,0,0,0,.386.926A1.5,1.5,0,0,0,156.378,14.547Zm9.737.008a1.824,1.824,0,0,0,1.253-.44,1.5,1.5,0,0,0,.531-1.087h1.9a2.963,2.963,0,0,1-.523,1.565,3.43,3.43,0,0,1-1.328,1.15,3.958,3.958,0,0,1-1.81.423,3.829,3.829,0,0,1-2.988-1.22,4.84,4.84,0,0,1-1.1-3.37v-.208a4.759,4.759,0,0,1,1.1-3.283,3.8,3.8,0,0,1,2.988-1.233,3.69,3.69,0,0,1,2.611.934,3.345,3.345,0,0,1,1.058,2.453h-1.9a1.847,1.847,0,0,0-.527-1.27,1.7,1.7,0,0,0-1.258-.5,1.775,1.775,0,0,0-1.511.71,3.621,3.621,0,0,0-.54,2.154v.324a3.682,3.682,0,0,0,.527,2.179A1.773,1.773,0,0,0,166.115,14.556ZM173.47,16h-2.017V7.019h2.017ZM171.328,4.686a1.07,1.07,0,0,1,.295-.772,1.113,1.113,0,0,1,.843-.307,1.127,1.127,0,0,1,.847.307,1.062,1.062,0,0,1,.3.772,1.038,1.038,0,0,1-.3.76,1.136,1.136,0,0,1-.847.3,1.122,1.122,0,0,1-.843-.3A1.046,1.046,0,0,1,171.328,4.686Zm3.959,6.74a5.3,5.3,0,0,1,.523-2.378,3.819,3.819,0,0,1,1.469-1.627,4.14,4.14,0,0,1,2.175-.569,3.923,3.923,0,0,1,2.951,1.17,4.6,4.6,0,0,1,1.224,3.1l.008.473a5.343,5.343,0,0,1-.51,2.374,3.773,3.773,0,0,1-1.461,1.619,4.17,4.17,0,0,1-2.2.573,3.9,3.9,0,0,1-3.042-1.266,4.848,4.848,0,0,1-1.141-3.374Zm2.017.174a3.619,3.619,0,0,0,.573,2.171,1.862,1.862,0,0,0,1.594.784,1.842,1.842,0,0,0,1.59-.8,4,4,0,0,0,.569-2.333,3.572,3.572,0,0,0-.585-2.158,1.973,1.973,0,0,0-3.158-.012A3.922,3.922,0,0,0,177.3,11.6Zm2.706-8.351h2.3l-2.3,2.515-1.619,0Zm7.205,3.769.058,1.038a3.229,3.229,0,0,1,2.615-1.2q2.806,0,2.855,3.212V16h-2.017V10.181a1.85,1.85,0,0,0-.369-1.266A1.554,1.554,0,0,0,189.15,8.5a1.944,1.944,0,0,0-1.818,1.1V16h-2.017V7.019Z" transform="translate(1040 9003)" fill="#12263f"/>
    <path id="Trazado_606231" data-name="Trazado 606231" d="M68.854,5.607H65.085V16H63V5.607H59.266V3.914h9.587ZM74.216,16a3.113,3.113,0,0,1-.232-.838,3.393,3.393,0,0,1-4.565.232,2.47,2.47,0,0,1-.855-1.909,2.55,2.55,0,0,1,1.067-2.2,5.169,5.169,0,0,1,3.051-.768h1.237V9.924a1.573,1.573,0,0,0-.39-1.116,1.547,1.547,0,0,0-1.187-.419,1.777,1.777,0,0,0-1.129.344,1.066,1.066,0,0,0-.44.876H68.754a2.239,2.239,0,0,1,.49-1.382,3.263,3.263,0,0,1,1.332-1.009,4.68,4.68,0,0,1,1.88-.365,3.769,3.769,0,0,1,2.515.793,2.827,2.827,0,0,1,.963,2.229v4.051a4.591,4.591,0,0,0,.34,1.934V16ZM72,14.547a2.294,2.294,0,0,0,1.125-.291,1.941,1.941,0,0,0,.793-.78V11.783H72.83a2.973,2.973,0,0,0-1.685.39,1.264,1.264,0,0,0-.564,1.1,1.179,1.179,0,0,0,.386.926A1.5,1.5,0,0,0,72,14.547ZM73.12,3.25h2.3l-2.3,2.515-1.619,0Zm8.616,11.306a1.824,1.824,0,0,0,1.253-.44,1.5,1.5,0,0,0,.531-1.087h1.9a2.963,2.963,0,0,1-.523,1.565,3.43,3.43,0,0,1-1.328,1.15,3.958,3.958,0,0,1-1.81.423,3.829,3.829,0,0,1-2.988-1.22,4.84,4.84,0,0,1-1.1-3.37v-.208a4.759,4.759,0,0,1,1.1-3.283,3.8,3.8,0,0,1,2.988-1.233,3.69,3.69,0,0,1,2.611.934,3.345,3.345,0,0,1,1.058,2.453h-1.9a1.847,1.847,0,0,0-.527-1.27,1.7,1.7,0,0,0-1.258-.5,1.775,1.775,0,0,0-1.511.71,3.621,3.621,0,0,0-.54,2.154v.324a3.681,3.681,0,0,0,.527,2.179A1.773,1.773,0,0,0,81.736,14.556Zm7.736-9.72V7.019h1.585V8.513H89.473v5.014a1.1,1.1,0,0,0,.2.743.943.943,0,0,0,.726.228,3.107,3.107,0,0,0,.706-.083v1.561a4.968,4.968,0,0,1-1.328.191q-2.324,0-2.324-2.565V8.513H85.978V7.019h1.478V4.835ZM94.744,16H92.727V7.019h2.017ZM92.6,4.686a1.071,1.071,0,0,1,.295-.772,1.113,1.113,0,0,1,.843-.307,1.127,1.127,0,0,1,.847.307,1.062,1.062,0,0,1,.3.772,1.038,1.038,0,0,1-.3.76,1.136,1.136,0,0,1-.847.3,1.122,1.122,0,0,1-.843-.3A1.046,1.046,0,0,1,92.6,4.686Zm8.027,9.87a1.824,1.824,0,0,0,1.253-.44,1.5,1.5,0,0,0,.531-1.087h1.9a2.963,2.963,0,0,1-.523,1.565,3.43,3.43,0,0,1-1.328,1.15,3.958,3.958,0,0,1-1.81.423,3.829,3.829,0,0,1-2.988-1.22,4.84,4.84,0,0,1-1.1-3.37v-.208a4.759,4.759,0,0,1,1.1-3.283,3.8,3.8,0,0,1,2.988-1.233,3.69,3.69,0,0,1,2.611.934,3.345,3.345,0,0,1,1.058,2.453h-1.9a1.847,1.847,0,0,0-.527-1.27,1.7,1.7,0,0,0-1.258-.5,1.775,1.775,0,0,0-1.511.71,3.621,3.621,0,0,0-.54,2.154v.324a3.681,3.681,0,0,0,.527,2.179A1.773,1.773,0,0,0,100.629,14.556ZM111.2,16a3.113,3.113,0,0,1-.232-.838,3.393,3.393,0,0,1-4.565.232,2.47,2.47,0,0,1-.855-1.909,2.55,2.55,0,0,1,1.067-2.2,5.169,5.169,0,0,1,3.051-.768h1.237V9.924a1.573,1.573,0,0,0-.39-1.116,1.547,1.547,0,0,0-1.187-.419,1.777,1.777,0,0,0-1.129.344,1.066,1.066,0,0,0-.44.876h-2.017a2.239,2.239,0,0,1,.49-1.382,3.263,3.263,0,0,1,1.332-1.009,4.68,4.68,0,0,1,1.88-.365,3.769,3.769,0,0,1,2.515.793,2.827,2.827,0,0,1,.963,2.229v4.051a4.591,4.591,0,0,0,.34,1.934V16Zm-2.216-1.453a2.294,2.294,0,0,0,1.125-.291,1.941,1.941,0,0,0,.793-.78V11.783h-1.087a2.973,2.973,0,0,0-1.685.39,1.264,1.264,0,0,0-.564,1.1,1.179,1.179,0,0,0,.386.926A1.5,1.5,0,0,0,108.988,14.547Zm11.082-.988a.914.914,0,0,0-.444-.822,4.723,4.723,0,0,0-1.473-.5,7.574,7.574,0,0,1-1.718-.548,2.293,2.293,0,0,1-1.511-2.117,2.391,2.391,0,0,1,.979-1.942,3.872,3.872,0,0,1,2.49-.78,4.029,4.029,0,0,1,2.6.8,2.529,2.529,0,0,1,.992,2.067H119.97a1.243,1.243,0,0,0-.432-.967,1.654,1.654,0,0,0-1.146-.386,1.787,1.787,0,0,0-1.083.307.968.968,0,0,0-.419.822.818.818,0,0,0,.39.722,5.365,5.365,0,0,0,1.577.519,7.466,7.466,0,0,1,1.864.623,2.639,2.639,0,0,1,1,.867,2.212,2.212,0,0,1,.328,1.229,2.34,2.34,0,0,1-1,1.963,4.283,4.283,0,0,1-2.631.751,4.644,4.644,0,0,1-1.967-.4,3.238,3.238,0,0,1-1.345-1.1,2.594,2.594,0,0,1-.481-1.5h1.959a1.421,1.421,0,0,0,.54,1.1,2.1,2.1,0,0,0,1.32.386,2.04,2.04,0,0,0,1.212-.3A.938.938,0,0,0,120.069,13.56Zm11.115-.448,1.826-6.093h2.15l-3.569,10.343a2.9,2.9,0,0,1-2.789,2.266,3.6,3.6,0,0,1-.971-.15V17.909l.382.025a1.964,1.964,0,0,0,1.15-.278,1.842,1.842,0,0,0,.61-.933l.291-.771-3.154-8.933h2.175Zm16.328.075H142.83L141.851,16h-2.183l4.565-12.086h1.884L150.691,16H148.5Zm-4.092-1.693h3.5l-1.751-5.014Zm12.136,3.063a1.824,1.824,0,0,0,1.253-.44,1.5,1.5,0,0,0,.531-1.087h1.9a2.963,2.963,0,0,1-.523,1.565,3.43,3.43,0,0,1-1.328,1.15,3.958,3.958,0,0,1-1.81.423,3.829,3.829,0,0,1-2.988-1.22,4.84,4.84,0,0,1-1.1-3.37v-.208a4.759,4.759,0,0,1,1.1-3.283,3.8,3.8,0,0,1,2.988-1.233,3.69,3.69,0,0,1,2.611.934,3.345,3.345,0,0,1,1.058,2.453h-1.9a1.847,1.847,0,0,0-.527-1.27,1.7,1.7,0,0,0-1.258-.5,1.775,1.775,0,0,0-1.511.71,3.621,3.621,0,0,0-.54,2.154v.324a3.682,3.682,0,0,0,.527,2.179A1.773,1.773,0,0,0,155.555,14.556Zm8.9,0a1.824,1.824,0,0,0,1.253-.44,1.5,1.5,0,0,0,.531-1.087h1.9a2.963,2.963,0,0,1-.523,1.565,3.43,3.43,0,0,1-1.328,1.15,3.958,3.958,0,0,1-1.81.423,3.829,3.829,0,0,1-2.988-1.22,4.84,4.84,0,0,1-1.1-3.37v-.208a4.759,4.759,0,0,1,1.1-3.283,3.8,3.8,0,0,1,2.988-1.233,3.69,3.69,0,0,1,2.611.934,3.345,3.345,0,0,1,1.058,2.453h-1.9a1.847,1.847,0,0,0-.527-1.27,1.7,1.7,0,0,0-1.258-.5,1.775,1.775,0,0,0-1.511.71,3.621,3.621,0,0,0-.54,2.154v.324a3.682,3.682,0,0,0,.527,2.179A1.773,1.773,0,0,0,164.454,14.556ZM171.808,16h-2.017V7.019h2.017ZM169.667,4.686a1.07,1.07,0,0,1,.295-.772,1.113,1.113,0,0,1,.843-.307,1.127,1.127,0,0,1,.847.307,1.062,1.062,0,0,1,.3.772,1.038,1.038,0,0,1-.3.76,1.136,1.136,0,0,1-.847.3,1.122,1.122,0,0,1-.843-.3A1.046,1.046,0,0,1,169.667,4.686Zm3.959,6.74a5.3,5.3,0,0,1,.523-2.378,3.819,3.819,0,0,1,1.469-1.627,4.14,4.14,0,0,1,2.175-.569,3.923,3.923,0,0,1,2.951,1.17,4.6,4.6,0,0,1,1.224,3.1l.008.473a5.343,5.343,0,0,1-.51,2.374,3.773,3.773,0,0,1-1.461,1.619,4.17,4.17,0,0,1-2.2.573,3.9,3.9,0,0,1-3.042-1.266,4.848,4.848,0,0,1-1.141-3.374Zm2.017.174a3.619,3.619,0,0,0,.573,2.171,1.862,1.862,0,0,0,1.594.784,1.842,1.842,0,0,0,1.59-.8,4,4,0,0,0,.569-2.333,3.572,3.572,0,0,0-.585-2.158,1.973,1.973,0,0,0-3.158-.012A3.922,3.922,0,0,0,175.643,11.6Zm9.911-4.582.058,1.038a3.229,3.229,0,0,1,2.615-1.2q2.806,0,2.855,3.212V16h-2.017V10.181a1.85,1.85,0,0,0-.369-1.266,1.554,1.554,0,0,0-1.208-.411,1.944,1.944,0,0,0-1.818,1.1V16h-2.017V7.019Zm11.538,9.147a4.173,4.173,0,0,1-3.109-1.208,4.381,4.381,0,0,1-1.191-3.217v-.249a5.389,5.389,0,0,1,.519-2.4,3.949,3.949,0,0,1,1.457-1.648,3.851,3.851,0,0,1,2.092-.589,3.525,3.525,0,0,1,2.835,1.17,4.949,4.949,0,0,1,1,3.312v.813h-5.869a2.7,2.7,0,0,0,.743,1.76,2.23,2.23,0,0,0,1.639.647,2.731,2.731,0,0,0,2.258-1.121l1.087,1.038a3.631,3.631,0,0,1-1.44,1.249A4.509,4.509,0,0,1,197.092,16.166Zm-.241-7.695a1.7,1.7,0,0,0-1.341.581,3.012,3.012,0,0,0-.652,1.619H198.7v-.149a2.452,2.452,0,0,0-.54-1.531A1.686,1.686,0,0,0,196.852,8.471Zm10.442,5.088a.914.914,0,0,0-.444-.822,4.723,4.723,0,0,0-1.473-.5,7.574,7.574,0,0,1-1.718-.548,2.293,2.293,0,0,1-1.511-2.117,2.391,2.391,0,0,1,.979-1.942,3.872,3.872,0,0,1,2.49-.78,4.029,4.029,0,0,1,2.6.8,2.529,2.529,0,0,1,.992,2.067h-2.017a1.243,1.243,0,0,0-.432-.967,1.654,1.654,0,0,0-1.146-.386,1.787,1.787,0,0,0-1.083.307.968.968,0,0,0-.419.822.818.818,0,0,0,.39.722,5.365,5.365,0,0,0,1.577.519,7.466,7.466,0,0,1,1.864.623,2.639,2.639,0,0,1,1,.867,2.212,2.212,0,0,1,.328,1.229,2.34,2.34,0,0,1-1,1.963,4.283,4.283,0,0,1-2.631.751,4.644,4.644,0,0,1-1.967-.4,3.238,3.238,0,0,1-1.345-1.1,2.594,2.594,0,0,1-.481-1.5h1.959a1.421,1.421,0,0,0,.54,1.1,2.1,2.1,0,0,0,1.32.386,2.04,2.04,0,0,0,1.212-.3A.938.938,0,0,0,207.294,13.56Z" transform="translate(353 9003)" fill="#12263f"/>
    <path id="Trazado_606235" data-name="Trazado 606235" d="M5.669,11.352H3.329V16h-2.1V3.914h4.25a4.944,4.944,0,0,1,3.229.939A3.321,3.321,0,0,1,9.845,7.57,3.4,3.4,0,0,1,9.26,9.6a3.724,3.724,0,0,1-1.631,1.259l2.714,5.033V16H8.093ZM3.329,9.658H5.487a2.4,2.4,0,0,0,1.66-.535,1.867,1.867,0,0,0,.6-1.465,1.988,1.988,0,0,0-.552-1.5,2.345,2.345,0,0,0-1.648-.548H3.329Zm7.936,1.768a5.3,5.3,0,0,1,.523-2.378,3.819,3.819,0,0,1,1.469-1.627,4.14,4.14,0,0,1,2.175-.569,3.923,3.923,0,0,1,2.951,1.17,4.6,4.6,0,0,1,1.224,3.1l.008.473a5.343,5.343,0,0,1-.51,2.374,3.773,3.773,0,0,1-1.461,1.619,4.17,4.17,0,0,1-2.2.573A3.9,3.9,0,0,1,12.406,14.9a4.848,4.848,0,0,1-1.141-3.374Zm2.017.174a3.619,3.619,0,0,0,.573,2.171,1.862,1.862,0,0,0,1.594.784,1.842,1.842,0,0,0,1.59-.8,4,4,0,0,0,.569-2.333,3.572,3.572,0,0,0-.585-2.158,1.973,1.973,0,0,0-3.158-.012A3.922,3.922,0,0,0,13.281,11.6ZM23.466,16H21.449V3.25h2.017Zm6.151.166a4.173,4.173,0,0,1-3.109-1.208,4.381,4.381,0,0,1-1.191-3.217v-.249a5.389,5.389,0,0,1,.519-2.4,3.949,3.949,0,0,1,1.457-1.648,3.851,3.851,0,0,1,2.092-.589,3.525,3.525,0,0,1,2.835,1.17,4.949,4.949,0,0,1,1,3.312v.813H27.351a2.7,2.7,0,0,0,.743,1.76,2.23,2.23,0,0,0,1.639.647,2.731,2.731,0,0,0,2.258-1.121l1.087,1.038a3.631,3.631,0,0,1-1.44,1.249A4.509,4.509,0,0,1,29.617,16.166Zm-.241-7.695a1.7,1.7,0,0,0-1.341.581,3.012,3.012,0,0,0-.652,1.619h3.843v-.149a2.452,2.452,0,0,0-.54-1.531A1.686,1.686,0,0,0,29.376,8.471ZM39.819,13.56a.914.914,0,0,0-.444-.822,4.723,4.723,0,0,0-1.473-.5,7.574,7.574,0,0,1-1.718-.548,2.293,2.293,0,0,1-1.511-2.117,2.391,2.391,0,0,1,.979-1.942,3.872,3.872,0,0,1,2.49-.78,4.029,4.029,0,0,1,2.6.8,2.529,2.529,0,0,1,.992,2.067H39.719a1.243,1.243,0,0,0-.432-.967,1.654,1.654,0,0,0-1.146-.386,1.787,1.787,0,0,0-1.083.307.968.968,0,0,0-.419.822.818.818,0,0,0,.39.722,5.365,5.365,0,0,0,1.577.519,7.466,7.466,0,0,1,1.864.623,2.639,2.639,0,0,1,1,.867,2.212,2.212,0,0,1,.328,1.229,2.34,2.34,0,0,1-1,1.963,4.283,4.283,0,0,1-2.631.751,4.644,4.644,0,0,1-1.967-.4,3.238,3.238,0,0,1-1.345-1.1,2.594,2.594,0,0,1-.481-1.5h1.959a1.421,1.421,0,0,0,.54,1.1,2.1,2.1,0,0,0,1.32.386,2.04,2.04,0,0,0,1.212-.3A.938.938,0,0,0,39.819,13.56Zm11.115-.448L52.76,7.019h2.15L51.34,17.361a2.9,2.9,0,0,1-2.789,2.266,3.6,3.6,0,0,1-.971-.15V17.909l.382.025a1.964,1.964,0,0,0,1.15-.278,1.842,1.842,0,0,0,.61-.933l.291-.771L46.858,7.019h2.175Zm14-1.76H62.6V16H60.5V3.914h4.25a4.944,4.944,0,0,1,3.229.939A3.321,3.321,0,0,1,69.112,7.57,3.4,3.4,0,0,1,68.527,9.6,3.724,3.724,0,0,1,66.9,10.859l2.714,5.033V16h-2.25ZM62.6,9.658h2.158a2.4,2.4,0,0,0,1.66-.535,1.867,1.867,0,0,0,.6-1.465,1.988,1.988,0,0,0-.552-1.5,2.345,2.345,0,0,0-1.648-.548H62.6Zm12.269,6.508a4.173,4.173,0,0,1-3.109-1.208,4.381,4.381,0,0,1-1.191-3.217v-.249a5.389,5.389,0,0,1,.519-2.4,3.949,3.949,0,0,1,1.457-1.648,3.851,3.851,0,0,1,2.092-.589,3.525,3.525,0,0,1,2.835,1.17,4.949,4.949,0,0,1,1,3.312v.813H72.6a2.7,2.7,0,0,0,.743,1.76,2.23,2.23,0,0,0,1.639.647,2.731,2.731,0,0,0,2.258-1.121l1.087,1.038a3.631,3.631,0,0,1-1.44,1.249A4.509,4.509,0,0,1,74.865,16.166Zm-.241-7.695a1.7,1.7,0,0,0-1.341.581,3.012,3.012,0,0,0-.652,1.619h3.843v-.149a2.452,2.452,0,0,0-.54-1.531A1.686,1.686,0,0,0,74.624,8.471ZM85.066,13.56a.914.914,0,0,0-.444-.822,4.723,4.723,0,0,0-1.473-.5,7.574,7.574,0,0,1-1.718-.548A2.293,2.293,0,0,1,79.92,9.575,2.391,2.391,0,0,1,80.9,7.633a3.872,3.872,0,0,1,2.49-.78,4.029,4.029,0,0,1,2.6.8,2.529,2.529,0,0,1,.992,2.067H84.967a1.243,1.243,0,0,0-.432-.967,1.654,1.654,0,0,0-1.146-.386,1.787,1.787,0,0,0-1.083.307.968.968,0,0,0-.419.822.818.818,0,0,0,.39.722,5.365,5.365,0,0,0,1.577.519,7.466,7.466,0,0,1,1.864.623,2.639,2.639,0,0,1,1,.867,2.212,2.212,0,0,1,.328,1.229,2.34,2.34,0,0,1-1,1.963,4.283,4.283,0,0,1-2.631.751,4.644,4.644,0,0,1-1.967-.4,3.238,3.238,0,0,1-1.345-1.1,2.594,2.594,0,0,1-.481-1.5H81.58a1.421,1.421,0,0,0,.54,1.1,2.1,2.1,0,0,0,1.32.386,2.04,2.04,0,0,0,1.212-.3A.938.938,0,0,0,85.066,13.56Zm11.6-1.959a5.348,5.348,0,0,1-.946,3.324,3.287,3.287,0,0,1-4.906.27v4.258H88.8V7.019h1.859l.083.913A2.963,2.963,0,0,1,93.16,6.853a3.062,3.062,0,0,1,2.577,1.224,5.49,5.49,0,0,1,.934,3.4Zm-2.009-.174a3.746,3.746,0,0,0-.535-2.133A1.741,1.741,0,0,0,92.6,8.5a1.856,1.856,0,0,0-1.776,1.021V13.51a1.873,1.873,0,0,0,1.793,1.046,1.739,1.739,0,0,0,1.507-.776A4.124,4.124,0,0,0,94.662,11.426Zm3.337,0a5.3,5.3,0,0,1,.523-2.378,3.819,3.819,0,0,1,1.469-1.627,4.14,4.14,0,0,1,2.175-.569,3.923,3.923,0,0,1,2.951,1.17,4.6,4.6,0,0,1,1.224,3.1l.008.473a5.343,5.343,0,0,1-.51,2.374,3.773,3.773,0,0,1-1.461,1.619,4.17,4.17,0,0,1-2.2.573A3.9,3.9,0,0,1,99.14,14.9,4.848,4.848,0,0,1,98,11.526Zm2.017.174a3.619,3.619,0,0,0,.573,2.171,1.862,1.862,0,0,0,1.594.784,1.842,1.842,0,0,0,1.59-.8,4,4,0,0,0,.569-2.333,3.572,3.572,0,0,0-.585-2.158,1.973,1.973,0,0,0-3.158-.012A3.922,3.922,0,0,0,100.016,11.6Zm9.911-4.582.058,1.038a3.229,3.229,0,0,1,2.615-1.2q2.806,0,2.855,3.212V16h-2.017V10.181a1.85,1.85,0,0,0-.369-1.266,1.554,1.554,0,0,0-1.208-.411,1.944,1.944,0,0,0-1.818,1.1V16h-2.017V7.019Zm12.617,6.541a.914.914,0,0,0-.444-.822,4.723,4.723,0,0,0-1.473-.5,7.574,7.574,0,0,1-1.718-.548A2.293,2.293,0,0,1,117.4,9.575a2.391,2.391,0,0,1,.979-1.942,3.872,3.872,0,0,1,2.49-.78,4.029,4.029,0,0,1,2.6.8,2.529,2.529,0,0,1,.992,2.067h-2.017a1.243,1.243,0,0,0-.432-.967,1.654,1.654,0,0,0-1.146-.386,1.787,1.787,0,0,0-1.083.307.968.968,0,0,0-.419.822.818.818,0,0,0,.39.722,5.365,5.365,0,0,0,1.577.519,7.466,7.466,0,0,1,1.864.623,2.639,2.639,0,0,1,1,.867,2.212,2.212,0,0,1,.328,1.229,2.34,2.34,0,0,1-1,1.963,4.283,4.283,0,0,1-2.631.751,4.644,4.644,0,0,1-1.967-.4,3.238,3.238,0,0,1-1.345-1.1,2.594,2.594,0,0,1-.481-1.5h1.959a1.421,1.421,0,0,0,.54,1.1,2.1,2.1,0,0,0,1.32.386,2.04,2.04,0,0,0,1.212-.3A.938.938,0,0,0,122.544,13.56ZM131.65,16a3.113,3.113,0,0,1-.232-.838,3.393,3.393,0,0,1-4.565.232A2.47,2.47,0,0,1,126,13.485a2.55,2.55,0,0,1,1.067-2.2,5.169,5.169,0,0,1,3.051-.768h1.237V9.924a1.573,1.573,0,0,0-.39-1.116,1.547,1.547,0,0,0-1.187-.419,1.777,1.777,0,0,0-1.129.344,1.066,1.066,0,0,0-.44.876h-2.017a2.239,2.239,0,0,1,.49-1.382,3.263,3.263,0,0,1,1.332-1.009,4.68,4.68,0,0,1,1.88-.365,3.769,3.769,0,0,1,2.515.793,2.827,2.827,0,0,1,.963,2.229v4.051a4.591,4.591,0,0,0,.34,1.934V16Zm-2.216-1.453a2.294,2.294,0,0,0,1.125-.291,1.941,1.941,0,0,0,.793-.78V11.783h-1.087a2.973,2.973,0,0,0-1.685.39,1.264,1.264,0,0,0-.564,1.1,1.179,1.179,0,0,0,.386.926A1.5,1.5,0,0,0,129.434,14.547ZM143.363,11.6a5.4,5.4,0,0,1-.934,3.329,3.042,3.042,0,0,1-2.569,1.237,2.93,2.93,0,0,1-2.457-1.137l-.1.971h-1.826V3.25h2.017V7.882a2.92,2.92,0,0,1,2.349-1.029,3.077,3.077,0,0,1,2.582,1.22,5.484,5.484,0,0,1,.938,3.412Zm-2.017-.174a3.813,3.813,0,0,0-.515-2.191,1.714,1.714,0,0,0-1.494-.73,1.873,1.873,0,0,0-1.843,1.146v3.7a1.892,1.892,0,0,0,1.859,1.17,1.7,1.7,0,0,0,1.461-.706,3.7,3.7,0,0,0,.531-2.133ZM147.2,16h-2.017V7.019H147.2ZM145.056,4.686a1.07,1.07,0,0,1,.295-.772,1.113,1.113,0,0,1,.843-.307,1.127,1.127,0,0,1,.847.307,1.062,1.062,0,0,1,.3.772,1.038,1.038,0,0,1-.3.76,1.136,1.136,0,0,1-.847.3,1.122,1.122,0,0,1-.843-.3A1.046,1.046,0,0,1,145.056,4.686ZM151.539,16h-2.017V3.25h2.017Zm4.341,0h-2.017V7.019h2.017ZM153.739,4.686a1.07,1.07,0,0,1,.295-.772,1.113,1.113,0,0,1,.843-.307,1.127,1.127,0,0,1,.847.307,1.062,1.062,0,0,1,.3.772,1.038,1.038,0,0,1-.3.76,1.136,1.136,0,0,1-.847.3,1.122,1.122,0,0,1-.843-.3A1.046,1.046,0,0,1,153.739,4.686Zm3.959,6.757a5.34,5.34,0,0,1,.963-3.333,3.085,3.085,0,0,1,2.582-1.258,2.931,2.931,0,0,1,2.308,1V3.25h2.017V16h-1.826l-.1-.93a2.973,2.973,0,0,1-2.416,1.1,3.068,3.068,0,0,1-2.552-1.27A5.535,5.535,0,0,1,157.7,11.443Zm2.017.174a3.739,3.739,0,0,0,.527,2.137,1.71,1.71,0,0,0,1.5.768,1.9,1.9,0,0,0,1.81-1.1V9.583A1.876,1.876,0,0,0,161.757,8.5a1.723,1.723,0,0,0-1.511.776A4.163,4.163,0,0,0,159.715,11.617ZM173.038,16a3.113,3.113,0,0,1-.232-.838,3.393,3.393,0,0,1-4.565.232,2.47,2.47,0,0,1-.855-1.909,2.55,2.55,0,0,1,1.067-2.2,5.169,5.169,0,0,1,3.051-.768h1.237V9.924a1.573,1.573,0,0,0-.39-1.116,1.547,1.547,0,0,0-1.187-.419,1.777,1.777,0,0,0-1.129.344,1.066,1.066,0,0,0-.44.876h-2.017a2.239,2.239,0,0,1,.49-1.382A3.263,3.263,0,0,1,169.4,7.218a4.68,4.68,0,0,1,1.88-.365,3.769,3.769,0,0,1,2.515.793,2.827,2.827,0,0,1,.963,2.229v4.051a4.591,4.591,0,0,0,.34,1.934V16Zm-2.216-1.453a2.294,2.294,0,0,0,1.125-.291,1.941,1.941,0,0,0,.793-.78V11.783h-1.087a2.973,2.973,0,0,0-1.685.39,1.264,1.264,0,0,0-.564,1.1,1.179,1.179,0,0,0,.386.926A1.5,1.5,0,0,0,170.822,14.547Zm5.669-3.1a5.34,5.34,0,0,1,.963-3.333,3.085,3.085,0,0,1,2.582-1.258,2.931,2.931,0,0,1,2.308,1V3.25h2.017V16h-1.826l-.1-.93a2.973,2.973,0,0,1-2.416,1.1,3.068,3.068,0,0,1-2.552-1.27A5.535,5.535,0,0,1,176.491,11.443Zm2.017.174a3.739,3.739,0,0,0,.527,2.137,1.71,1.71,0,0,0,1.5.768,1.9,1.9,0,0,0,1.81-1.1V9.583A1.876,1.876,0,0,0,180.55,8.5a1.723,1.723,0,0,0-1.511.776A4.163,4.163,0,0,0,178.508,11.617Zm11.912,4.549a4.173,4.173,0,0,1-3.109-1.208,4.381,4.381,0,0,1-1.191-3.217v-.249a5.389,5.389,0,0,1,.519-2.4A3.949,3.949,0,0,1,188.1,7.442a3.851,3.851,0,0,1,2.092-.589,3.525,3.525,0,0,1,2.835,1.17,4.949,4.949,0,0,1,1,3.312v.813h-5.869a2.7,2.7,0,0,0,.743,1.76,2.23,2.23,0,0,0,1.639.647,2.731,2.731,0,0,0,2.258-1.121l1.087,1.038a3.631,3.631,0,0,1-1.44,1.249A4.509,4.509,0,0,1,190.42,16.166Zm-.241-7.695a1.7,1.7,0,0,0-1.341.581,3.012,3.012,0,0,0-.652,1.619h3.843v-.149a2.452,2.452,0,0,0-.54-1.531A1.686,1.686,0,0,0,190.179,8.471Zm10.442,5.088a.914.914,0,0,0-.444-.822,4.723,4.723,0,0,0-1.473-.5,7.574,7.574,0,0,1-1.718-.548,2.293,2.293,0,0,1-1.511-2.117,2.391,2.391,0,0,1,.979-1.942,3.872,3.872,0,0,1,2.49-.78,4.029,4.029,0,0,1,2.6.8,2.529,2.529,0,0,1,.992,2.067h-2.017a1.243,1.243,0,0,0-.432-.967,1.654,1.654,0,0,0-1.146-.386,1.787,1.787,0,0,0-1.083.307.968.968,0,0,0-.419.822.818.818,0,0,0,.39.722,5.365,5.365,0,0,0,1.577.519,7.466,7.466,0,0,1,1.864.623,2.639,2.639,0,0,1,1,.867,2.212,2.212,0,0,1,.328,1.229,2.34,2.34,0,0,1-1,1.963,4.283,4.283,0,0,1-2.631.751,4.644,4.644,0,0,1-1.967-.4,3.238,3.238,0,0,1-1.345-1.1,2.594,2.594,0,0,1-.481-1.5h1.959a1.421,1.421,0,0,0,.54,1.1,2.1,2.1,0,0,0,1.32.386,2.04,2.04,0,0,0,1.212-.3A.938.938,0,0,0,200.622,13.56Z" transform="translate(1040 9078)" fill="#12263f"/>
    <path id="Trazado_606239" data-name="Trazado 606239" d="M130.479,11.352h-2.341V16h-2.1V3.914h4.25a4.944,4.944,0,0,1,3.229.939,3.321,3.321,0,0,1,1.137,2.717,3.4,3.4,0,0,1-.585,2.031,3.724,3.724,0,0,1-1.631,1.259l2.714,5.033V16H132.9Zm-2.341-1.693H130.3a2.4,2.4,0,0,0,1.66-.535,1.867,1.867,0,0,0,.6-1.465,1.988,1.988,0,0,0-.552-1.5,2.345,2.345,0,0,0-1.648-.548h-2.216Zm12.269,6.508a4.173,4.173,0,0,1-3.109-1.208,4.381,4.381,0,0,1-1.191-3.217v-.249a5.389,5.389,0,0,1,.519-2.4,3.949,3.949,0,0,1,1.457-1.648,3.851,3.851,0,0,1,2.092-.589,3.525,3.525,0,0,1,2.835,1.17,4.949,4.949,0,0,1,1,3.312v.813H138.14a2.7,2.7,0,0,0,.743,1.76,2.23,2.23,0,0,0,1.639.647,2.731,2.731,0,0,0,2.258-1.121l1.087,1.038a3.631,3.631,0,0,1-1.44,1.249A4.509,4.509,0,0,1,140.406,16.166Zm-.241-7.695a1.7,1.7,0,0,0-1.341.581,3.012,3.012,0,0,0-.652,1.619h3.843v-.149a2.452,2.452,0,0,0-.54-1.531A1.686,1.686,0,0,0,140.166,8.471Zm10.442,5.088a.914.914,0,0,0-.444-.822,4.723,4.723,0,0,0-1.473-.5,7.574,7.574,0,0,1-1.718-.548,2.293,2.293,0,0,1-1.511-2.117,2.391,2.391,0,0,1,.979-1.942,3.872,3.872,0,0,1,2.49-.78,4.029,4.029,0,0,1,2.6.8,2.529,2.529,0,0,1,.992,2.067h-2.017a1.243,1.243,0,0,0-.432-.967,1.654,1.654,0,0,0-1.146-.386,1.787,1.787,0,0,0-1.083.307.968.968,0,0,0-.419.822.818.818,0,0,0,.39.722,5.365,5.365,0,0,0,1.577.519,7.466,7.466,0,0,1,1.864.623,2.639,2.639,0,0,1,1,.867,2.212,2.212,0,0,1,.328,1.229,2.34,2.34,0,0,1-1,1.963,4.283,4.283,0,0,1-2.631.751,4.644,4.644,0,0,1-1.967-.4,3.238,3.238,0,0,1-1.345-1.1,2.594,2.594,0,0,1-.481-1.5h1.959a1.421,1.421,0,0,0,.54,1.1,2.1,2.1,0,0,0,1.32.386,2.04,2.04,0,0,0,1.212-.3A.938.938,0,0,0,150.608,13.56Zm9.181,1.561a3.128,3.128,0,0,1-2.523,1.046,2.788,2.788,0,0,1-2.212-.855,3.637,3.637,0,0,1-.751-2.474V7.019h2.017v5.794q0,1.71,1.419,1.71a1.993,1.993,0,0,0,1.984-1.054V7.019h2.017V16h-1.9Zm6.151.88h-2.017V3.25h2.017Zm4.723-11.165V7.019h1.585V8.513h-1.585v5.014a1.1,1.1,0,0,0,.2.743.943.943,0,0,0,.726.228,3.107,3.107,0,0,0,.706-.083v1.561a4.968,4.968,0,0,1-1.328.191q-2.324,0-2.324-2.565V8.513h-1.478V7.019h1.478V4.835ZM179.154,16a3.113,3.113,0,0,1-.232-.838,3.393,3.393,0,0,1-4.565.232,2.47,2.47,0,0,1-.855-1.909,2.55,2.55,0,0,1,1.067-2.2,5.169,5.169,0,0,1,3.051-.768h1.237V9.924a1.573,1.573,0,0,0-.39-1.116,1.547,1.547,0,0,0-1.187-.419,1.777,1.777,0,0,0-1.129.344,1.066,1.066,0,0,0-.44.876h-2.017a2.239,2.239,0,0,1,.49-1.382,3.263,3.263,0,0,1,1.332-1.009,4.68,4.68,0,0,1,1.88-.365,3.769,3.769,0,0,1,2.515.793,2.827,2.827,0,0,1,.963,2.229v4.051a4.591,4.591,0,0,0,.34,1.934V16Zm-2.216-1.453a2.294,2.294,0,0,0,1.125-.291,1.941,1.941,0,0,0,.793-.78V11.783h-1.087a2.973,2.973,0,0,0-1.685.39,1.264,1.264,0,0,0-.564,1.1,1.179,1.179,0,0,0,.386.926A1.5,1.5,0,0,0,176.938,14.547Zm5.669-3.1a5.34,5.34,0,0,1,.963-3.333,3.085,3.085,0,0,1,2.582-1.258,2.931,2.931,0,0,1,2.308,1V3.25h2.017V16H188.65l-.1-.93a2.973,2.973,0,0,1-2.416,1.1,3.068,3.068,0,0,1-2.552-1.27A5.535,5.535,0,0,1,182.607,11.443Zm2.017.174a3.739,3.739,0,0,0,.527,2.137,1.71,1.71,0,0,0,1.5.768,1.9,1.9,0,0,0,1.81-1.1V9.583A1.876,1.876,0,0,0,186.667,8.5a1.723,1.723,0,0,0-1.511.776A4.163,4.163,0,0,0,184.625,11.617Zm7.579-.191a5.3,5.3,0,0,1,.523-2.378A3.819,3.819,0,0,1,194.2,7.421a4.14,4.14,0,0,1,2.175-.569,3.923,3.923,0,0,1,2.951,1.17,4.6,4.6,0,0,1,1.224,3.1l.008.473a5.343,5.343,0,0,1-.51,2.374,3.773,3.773,0,0,1-1.461,1.619,4.17,4.17,0,0,1-2.2.573,3.9,3.9,0,0,1-3.042-1.266,4.848,4.848,0,0,1-1.141-3.374Zm2.017.174a3.619,3.619,0,0,0,.573,2.171,1.862,1.862,0,0,0,1.594.784,1.842,1.842,0,0,0,1.59-.8,4,4,0,0,0,.569-2.333,3.572,3.572,0,0,0-.585-2.158,1.973,1.973,0,0,0-3.158-.012A3.922,3.922,0,0,0,194.22,11.6Zm13.074,1.959a.914.914,0,0,0-.444-.822,4.723,4.723,0,0,0-1.473-.5,7.574,7.574,0,0,1-1.718-.548,2.293,2.293,0,0,1-1.511-2.117,2.391,2.391,0,0,1,.979-1.942,3.872,3.872,0,0,1,2.49-.78,4.029,4.029,0,0,1,2.6.8,2.529,2.529,0,0,1,.992,2.067h-2.017a1.243,1.243,0,0,0-.432-.967,1.654,1.654,0,0,0-1.146-.386,1.787,1.787,0,0,0-1.083.307.968.968,0,0,0-.419.822.818.818,0,0,0,.39.722,5.365,5.365,0,0,0,1.577.519,7.466,7.466,0,0,1,1.864.623,2.639,2.639,0,0,1,1,.867,2.212,2.212,0,0,1,.328,1.229,2.34,2.34,0,0,1-1,1.963,4.283,4.283,0,0,1-2.631.751,4.644,4.644,0,0,1-1.967-.4,3.238,3.238,0,0,1-1.345-1.1,2.594,2.594,0,0,1-.481-1.5h1.959a1.421,1.421,0,0,0,.54,1.1,2.1,2.1,0,0,0,1.32.386,2.04,2.04,0,0,0,1.212-.3A.938.938,0,0,0,207.294,13.56Z" transform="translate(353 9078)" fill="#12263f"/>
    <path id="Trazado_606236" data-name="Trazado 606236" d="M7.994,13.186H3.312L2.333,16H.149L4.715,3.914H6.6L11.173,16H8.981ZM3.9,11.493H7.4L5.653,6.479ZM17.7,15.12a3.128,3.128,0,0,1-2.523,1.046,2.788,2.788,0,0,1-2.212-.855,3.637,3.637,0,0,1-.751-2.474V7.019h2.017v5.794q0,1.71,1.419,1.71a1.993,1.993,0,0,0,1.984-1.054V7.019h2.017V16h-1.9Zm3.627-3.677a5.34,5.34,0,0,1,.963-3.333,3.085,3.085,0,0,1,2.582-1.258,2.931,2.931,0,0,1,2.308,1V3.25h2.017V16H27.368l-.1-.93a2.973,2.973,0,0,1-2.416,1.1A3.068,3.068,0,0,1,22.3,14.9,5.535,5.535,0,0,1,21.325,11.443Zm2.017.174a3.739,3.739,0,0,0,.527,2.137,1.71,1.71,0,0,0,1.5.768,1.9,1.9,0,0,0,1.81-1.1V9.583A1.876,1.876,0,0,0,25.384,8.5a1.723,1.723,0,0,0-1.511.776A4.163,4.163,0,0,0,23.342,11.617ZM33.444,16H31.427V7.019h2.017ZM31.3,4.686a1.071,1.071,0,0,1,.295-.772,1.113,1.113,0,0,1,.843-.307,1.127,1.127,0,0,1,.847.307,1.062,1.062,0,0,1,.3.772,1.038,1.038,0,0,1-.3.76,1.136,1.136,0,0,1-.847.3,1.122,1.122,0,0,1-.843-.3A1.046,1.046,0,0,1,31.3,4.686Zm8.292,11.48a4.173,4.173,0,0,1-3.109-1.208,4.381,4.381,0,0,1-1.191-3.217v-.249a5.389,5.389,0,0,1,.519-2.4,3.949,3.949,0,0,1,1.457-1.648,3.851,3.851,0,0,1,2.092-.589A3.525,3.525,0,0,1,42.2,8.023a4.949,4.949,0,0,1,1,3.312v.813H37.329a2.7,2.7,0,0,0,.743,1.76,2.23,2.23,0,0,0,1.639.647,2.731,2.731,0,0,0,2.258-1.121l1.087,1.038a3.631,3.631,0,0,1-1.44,1.249A4.509,4.509,0,0,1,39.595,16.166Zm-.241-7.695a1.7,1.7,0,0,0-1.341.581,3.012,3.012,0,0,0-.652,1.619h3.843v-.149a2.452,2.452,0,0,0-.54-1.531A1.686,1.686,0,0,0,39.354,8.471Zm7.28-1.453.058,1.038a3.229,3.229,0,0,1,2.615-1.2q2.806,0,2.855,3.212V16H50.145V10.181a1.85,1.85,0,0,0-.369-1.266A1.554,1.554,0,0,0,48.568,8.5a1.944,1.944,0,0,0-1.818,1.1V16H44.733V7.019Zm11.272,7.537a1.824,1.824,0,0,0,1.253-.44,1.5,1.5,0,0,0,.531-1.087h1.9a2.963,2.963,0,0,1-.523,1.565,3.43,3.43,0,0,1-1.328,1.15,3.958,3.958,0,0,1-1.81.423,3.829,3.829,0,0,1-2.988-1.22,4.84,4.84,0,0,1-1.1-3.37v-.208a4.759,4.759,0,0,1,1.1-3.283,3.8,3.8,0,0,1,2.988-1.233,3.69,3.69,0,0,1,2.611.934,3.345,3.345,0,0,1,1.058,2.453h-1.9a1.847,1.847,0,0,0-.527-1.27,1.7,1.7,0,0,0-1.258-.5,1.775,1.775,0,0,0-1.511.71,3.621,3.621,0,0,0-.54,2.154v.324a3.682,3.682,0,0,0,.527,2.179A1.773,1.773,0,0,0,57.906,14.556ZM65.261,16H63.244V7.019h2.017ZM63.119,4.686a1.071,1.071,0,0,1,.295-.772,1.113,1.113,0,0,1,.843-.307,1.127,1.127,0,0,1,.847.307,1.062,1.062,0,0,1,.3.772,1.038,1.038,0,0,1-.3.76,1.136,1.136,0,0,1-.847.3,1.122,1.122,0,0,1-.843-.3A1.046,1.046,0,0,1,63.119,4.686ZM72.823,16a3.113,3.113,0,0,1-.232-.838,3.393,3.393,0,0,1-4.565.232,2.47,2.47,0,0,1-.855-1.909,2.55,2.55,0,0,1,1.067-2.2,5.169,5.169,0,0,1,3.051-.768h1.237V9.924a1.573,1.573,0,0,0-.39-1.116,1.547,1.547,0,0,0-1.187-.419,1.777,1.777,0,0,0-1.129.344,1.066,1.066,0,0,0-.44.876H67.361a2.239,2.239,0,0,1,.49-1.382,3.263,3.263,0,0,1,1.332-1.009,4.68,4.68,0,0,1,1.88-.365,3.769,3.769,0,0,1,2.515.793,2.827,2.827,0,0,1,.963,2.229v4.051a4.591,4.591,0,0,0,.34,1.934V16Zm-2.216-1.453a2.294,2.294,0,0,0,1.125-.291,1.941,1.941,0,0,0,.793-.78V11.783H71.437a2.973,2.973,0,0,0-1.685.39,1.264,1.264,0,0,0-.564,1.1,1.179,1.179,0,0,0,.386.926A1.5,1.5,0,0,0,70.606,14.547Zm11.082-.988a.914.914,0,0,0-.444-.822,4.723,4.723,0,0,0-1.473-.5,7.574,7.574,0,0,1-1.718-.548,2.293,2.293,0,0,1-1.511-2.117,2.391,2.391,0,0,1,.979-1.942,3.872,3.872,0,0,1,2.49-.78,4.029,4.029,0,0,1,2.6.8,2.529,2.529,0,0,1,.992,2.067H81.588a1.243,1.243,0,0,0-.432-.967,1.654,1.654,0,0,0-1.146-.386,1.787,1.787,0,0,0-1.083.307.968.968,0,0,0-.419.822.818.818,0,0,0,.39.722,5.365,5.365,0,0,0,1.577.519,7.466,7.466,0,0,1,1.864.623,2.639,2.639,0,0,1,1,.867,2.212,2.212,0,0,1,.328,1.229,2.34,2.34,0,0,1-1,1.963,4.283,4.283,0,0,1-2.631.751,4.644,4.644,0,0,1-1.967-.4,3.238,3.238,0,0,1-1.345-1.1,2.594,2.594,0,0,1-.481-1.5H78.2a1.421,1.421,0,0,0,.54,1.1,2.1,2.1,0,0,0,1.32.386,2.04,2.04,0,0,0,1.212-.3A.938.938,0,0,0,81.688,13.56ZM92.8,13.111l1.826-6.093h2.15L93.209,17.361a2.9,2.9,0,0,1-2.789,2.266,3.6,3.6,0,0,1-.971-.15V17.909l.382.025a1.964,1.964,0,0,0,1.15-.278,1.842,1.842,0,0,0,.61-.933l.291-.771L88.727,7.019H90.9Zm11.663-1.594V16h-2.1V3.914h4.624a4.675,4.675,0,0,1,3.217,1.055A3.549,3.549,0,0,1,111.4,7.761a3.431,3.431,0,0,1-1.166,2.767,4.9,4.9,0,0,1-3.266.989Zm0-1.693h2.523A2.485,2.485,0,0,0,108.7,9.3a1.937,1.937,0,0,0,.589-1.523,2.09,2.09,0,0,0-.6-1.565,2.3,2.3,0,0,0-1.644-.6h-2.582Zm14.012,5.3a3.128,3.128,0,0,1-2.523,1.046,2.788,2.788,0,0,1-2.212-.855,3.637,3.637,0,0,1-.751-2.474V7.019h2.017v5.794q0,1.71,1.419,1.71a1.993,1.993,0,0,0,1.984-1.054V7.019h2.017V16h-1.9ZM117.323,3.25h2.3l-2.3,2.515-1.619,0ZM130.364,11.6a5.4,5.4,0,0,1-.934,3.329,3.042,3.042,0,0,1-2.569,1.237,2.93,2.93,0,0,1-2.457-1.137l-.1.971h-1.826V3.25H124.5V7.882a2.92,2.92,0,0,1,2.349-1.029,3.077,3.077,0,0,1,2.582,1.22,5.484,5.484,0,0,1,.938,3.412Zm-2.017-.174a3.813,3.813,0,0,0-.515-2.191,1.714,1.714,0,0,0-1.494-.73A1.873,1.873,0,0,0,124.5,9.65v3.7a1.892,1.892,0,0,0,1.859,1.17,1.7,1.7,0,0,0,1.461-.706,3.7,3.7,0,0,0,.531-2.133ZM134.2,16h-2.017V3.25H134.2Zm4.341,0h-2.017V7.019h2.017ZM136.4,4.686a1.07,1.07,0,0,1,.295-.772,1.113,1.113,0,0,1,.843-.307,1.127,1.127,0,0,1,.847.307,1.062,1.062,0,0,1,.3.772,1.038,1.038,0,0,1-.3.76,1.136,1.136,0,0,1-.847.3,1.122,1.122,0,0,1-.843-.3A1.046,1.046,0,0,1,136.4,4.686Zm8.027,9.87a1.824,1.824,0,0,0,1.253-.44,1.5,1.5,0,0,0,.531-1.087h1.9a2.963,2.963,0,0,1-.523,1.565,3.43,3.43,0,0,1-1.328,1.15,3.958,3.958,0,0,1-1.81.423,3.829,3.829,0,0,1-2.988-1.22,4.84,4.84,0,0,1-1.1-3.37v-.208a4.759,4.759,0,0,1,1.1-3.283,3.8,3.8,0,0,1,2.988-1.233,3.69,3.69,0,0,1,2.611.934,3.345,3.345,0,0,1,1.058,2.453h-1.9a1.847,1.847,0,0,0-.527-1.27,1.7,1.7,0,0,0-1.258-.5,1.775,1.775,0,0,0-1.511.71,3.621,3.621,0,0,0-.54,2.154v.324a3.682,3.682,0,0,0,.527,2.179A1.773,1.773,0,0,0,144.425,14.556Zm4.831-3.129a5.3,5.3,0,0,1,.523-2.378,3.819,3.819,0,0,1,1.469-1.627,4.14,4.14,0,0,1,2.175-.569,3.923,3.923,0,0,1,2.951,1.17,4.6,4.6,0,0,1,1.224,3.1l.008.473a5.343,5.343,0,0,1-.51,2.374,3.773,3.773,0,0,1-1.461,1.619,4.17,4.17,0,0,1-2.2.573A3.9,3.9,0,0,1,150.4,14.9a4.848,4.848,0,0,1-1.141-3.374Zm2.017.174a3.619,3.619,0,0,0,.573,2.171,1.862,1.862,0,0,0,1.594.784,1.842,1.842,0,0,0,1.59-.8,4,4,0,0,0,.569-2.333,3.572,3.572,0,0,0-.585-2.158,1.973,1.973,0,0,0-3.158-.012A3.922,3.922,0,0,0,151.273,11.6Zm13.074,1.959a.914.914,0,0,0-.444-.822,4.723,4.723,0,0,0-1.473-.5,7.574,7.574,0,0,1-1.718-.548A2.293,2.293,0,0,1,159.2,9.575a2.391,2.391,0,0,1,.979-1.942,3.872,3.872,0,0,1,2.49-.78,4.029,4.029,0,0,1,2.6.8,2.529,2.529,0,0,1,.992,2.067h-2.017a1.243,1.243,0,0,0-.432-.967,1.654,1.654,0,0,0-1.146-.386,1.787,1.787,0,0,0-1.083.307.968.968,0,0,0-.419.822.818.818,0,0,0,.39.722,5.365,5.365,0,0,0,1.577.519,7.466,7.466,0,0,1,1.864.623,2.639,2.639,0,0,1,1,.867,2.212,2.212,0,0,1,.328,1.229,2.34,2.34,0,0,1-1,1.963,4.283,4.283,0,0,1-2.631.751,4.644,4.644,0,0,1-1.967-.4,3.238,3.238,0,0,1-1.345-1.1,2.594,2.594,0,0,1-.481-1.5h1.959a1.421,1.421,0,0,0,.54,1.1,2.1,2.1,0,0,0,1.32.386,2.04,2.04,0,0,0,1.212-.3A.938.938,0,0,0,164.347,13.56Z" transform="translate(1040 9146)" fill="#12263f"/>
    <path id="Trazado_606240" data-name="Trazado 606240" d="M110.449,14.323h5.487V16h-7.587V3.914h2.1ZM119.5,16h-2.017V7.019H119.5ZM117.355,4.686a1.071,1.071,0,0,1,.295-.772,1.113,1.113,0,0,1,.843-.307,1.127,1.127,0,0,1,.847.307,1.062,1.062,0,0,1,.3.772,1.038,1.038,0,0,1-.3.76,1.136,1.136,0,0,1-.847.3,1.122,1.122,0,0,1-.843-.3A1.046,1.046,0,0,1,117.355,4.686Zm6.209,2.333.058,1.038a3.229,3.229,0,0,1,2.615-1.2q2.806,0,2.855,3.212V16h-2.017V10.181a1.85,1.85,0,0,0-.369-1.266A1.554,1.554,0,0,0,125.5,8.5a1.944,1.944,0,0,0-1.818,1.1V16h-2.017V7.019ZM135.1,16.166a4.173,4.173,0,0,1-3.109-1.208,4.381,4.381,0,0,1-1.191-3.217v-.249a5.389,5.389,0,0,1,.519-2.4,3.949,3.949,0,0,1,1.457-1.648,3.851,3.851,0,0,1,2.092-.589,3.525,3.525,0,0,1,2.835,1.17,4.949,4.949,0,0,1,1,3.312v.813h-5.869a2.7,2.7,0,0,0,.743,1.76,2.23,2.23,0,0,0,1.639.647,2.731,2.731,0,0,0,2.258-1.121l1.087,1.038a3.631,3.631,0,0,1-1.44,1.249A4.509,4.509,0,0,1,135.1,16.166Zm-.241-7.695a1.7,1.7,0,0,0-1.341.581,3.012,3.012,0,0,0-.652,1.619h3.843v-.149a2.452,2.452,0,0,0-.54-1.531A1.686,1.686,0,0,0,134.861,8.471ZM145.636,16a3.113,3.113,0,0,1-.232-.838,3.393,3.393,0,0,1-4.565.232,2.47,2.47,0,0,1-.855-1.909,2.55,2.55,0,0,1,1.067-2.2,5.169,5.169,0,0,1,3.051-.768h1.237V9.924a1.573,1.573,0,0,0-.39-1.116,1.547,1.547,0,0,0-1.187-.419,1.777,1.777,0,0,0-1.129.344,1.066,1.066,0,0,0-.44.876h-2.017a2.239,2.239,0,0,1,.49-1.382A3.263,3.263,0,0,1,142,7.218a4.68,4.68,0,0,1,1.88-.365,3.769,3.769,0,0,1,2.515.793,2.827,2.827,0,0,1,.963,2.229v4.051a4.591,4.591,0,0,0,.34,1.934V16Zm-2.216-1.453a2.294,2.294,0,0,0,1.125-.291,1.941,1.941,0,0,0,.793-.78V11.783H144.25a2.973,2.973,0,0,0-1.685.39,1.264,1.264,0,0,0-.564,1.1,1.179,1.179,0,0,0,.386.926A1.5,1.5,0,0,0,143.419,14.547Zm7.944-7.529.058.938a3.232,3.232,0,0,1,2.59-1.1,2.483,2.483,0,0,1,2.465,1.378,3.186,3.186,0,0,1,2.756-1.378,2.8,2.8,0,0,1,2.212.822,3.618,3.618,0,0,1,.743,2.424V16H160.17V10.156A1.786,1.786,0,0,0,159.8,8.9a1.635,1.635,0,0,0-1.237-.4,1.679,1.679,0,0,0-1.125.369,1.948,1.948,0,0,0-.61.967L156.833,16h-2.017V10.09A1.439,1.439,0,0,0,153.2,8.5a1.776,1.776,0,0,0-1.718.988V16h-2.017V7.019ZM166.4,16h-2.017V7.019H166.4ZM164.263,4.686a1.07,1.07,0,0,1,.295-.772,1.113,1.113,0,0,1,.843-.307,1.127,1.127,0,0,1,.847.307,1.062,1.062,0,0,1,.3.772,1.038,1.038,0,0,1-.3.76,1.136,1.136,0,0,1-.847.3,1.122,1.122,0,0,1-.843-.3A1.046,1.046,0,0,1,164.263,4.686Zm8.292,11.48a4.173,4.173,0,0,1-3.109-1.208,4.381,4.381,0,0,1-1.191-3.217v-.249a5.389,5.389,0,0,1,.519-2.4,3.949,3.949,0,0,1,1.457-1.648,3.851,3.851,0,0,1,2.092-.589,3.525,3.525,0,0,1,2.835,1.17,4.949,4.949,0,0,1,1,3.312v.813h-5.869a2.7,2.7,0,0,0,.743,1.76,2.23,2.23,0,0,0,1.639.647,2.731,2.731,0,0,0,2.258-1.121l1.087,1.038a3.631,3.631,0,0,1-1.44,1.249A4.509,4.509,0,0,1,172.555,16.166Zm-.241-7.695a1.7,1.7,0,0,0-1.341.581,3.012,3.012,0,0,0-.652,1.619h3.843v-.149a2.452,2.452,0,0,0-.54-1.531A1.686,1.686,0,0,0,172.314,8.471Zm7.28-1.453.058,1.038a3.229,3.229,0,0,1,2.615-1.2q2.806,0,2.855,3.212V16h-2.017V10.181a1.85,1.85,0,0,0-.369-1.266,1.554,1.554,0,0,0-1.208-.411,1.944,1.944,0,0,0-1.818,1.1V16h-2.017V7.019ZM189.7,4.835V7.019h1.585V8.513H189.7v5.014a1.1,1.1,0,0,0,.2.743.943.943,0,0,0,.726.228,3.107,3.107,0,0,0,.706-.083v1.561a4.968,4.968,0,0,1-1.328.191q-2.324,0-2.324-2.565V8.513H186.21V7.019h1.478V4.835Zm2.5,6.591a5.3,5.3,0,0,1,.523-2.378A3.819,3.819,0,0,1,194.2,7.421a4.14,4.14,0,0,1,2.175-.569,3.923,3.923,0,0,1,2.951,1.17,4.6,4.6,0,0,1,1.224,3.1l.008.473a5.343,5.343,0,0,1-.51,2.374,3.773,3.773,0,0,1-1.461,1.619,4.17,4.17,0,0,1-2.2.573,3.9,3.9,0,0,1-3.042-1.266,4.848,4.848,0,0,1-1.141-3.374Zm2.017.174a3.619,3.619,0,0,0,.573,2.171,1.862,1.862,0,0,0,1.594.784,1.842,1.842,0,0,0,1.59-.8,4,4,0,0,0,.569-2.333,3.572,3.572,0,0,0-.585-2.158,1.973,1.973,0,0,0-3.158-.012A3.922,3.922,0,0,0,194.22,11.6Zm13.074,1.959a.914.914,0,0,0-.444-.822,4.723,4.723,0,0,0-1.473-.5,7.574,7.574,0,0,1-1.718-.548,2.293,2.293,0,0,1-1.511-2.117,2.391,2.391,0,0,1,.979-1.942,3.872,3.872,0,0,1,2.49-.78,4.029,4.029,0,0,1,2.6.8,2.529,2.529,0,0,1,.992,2.067h-2.017a1.243,1.243,0,0,0-.432-.967,1.654,1.654,0,0,0-1.146-.386,1.787,1.787,0,0,0-1.083.307.968.968,0,0,0-.419.822.818.818,0,0,0,.39.722,5.365,5.365,0,0,0,1.577.519,7.466,7.466,0,0,1,1.864.623,2.639,2.639,0,0,1,1,.867,2.212,2.212,0,0,1,.328,1.229,2.34,2.34,0,0,1-1,1.963,4.283,4.283,0,0,1-2.631.751,4.644,4.644,0,0,1-1.967-.4,3.238,3.238,0,0,1-1.345-1.1,2.594,2.594,0,0,1-.481-1.5h1.959a1.421,1.421,0,0,0,.54,1.1,2.1,2.1,0,0,0,1.32.386,2.04,2.04,0,0,0,1.212-.3A.938.938,0,0,0,207.294,13.56Z" transform="translate(353 9146)" fill="#12263f"/>
    <path id="Trazado_605530-2" data-name="Trazado 605530" d="M-7104.025-2773H-6917v29.039h20" transform="translate(7917 11689)" fill="none" stroke="#33ece0" stroke-width="2" stroke-dasharray="4"/>
    <path id="Trazado_605547" data-name="Trazado 605547" d="M-7104.025-2773h182.872v48.226h15.128" transform="translate(-6321.025 6431.265) rotate(180)" fill="none" stroke="#33ece0" stroke-width="2" stroke-dasharray="4"/>
    <path id="Trazado_605531-2" data-name="Trazado 605531" d="M-7001.433-2773h-19.911l-.089,43.5h-96.227v-22.177" transform="translate(8021.433 11929.039)" fill="none" stroke="#7898c1" stroke-width="2" stroke-dasharray="4"/>
    <path id="Trazado_605546" data-name="Trazado 605546" d="M0,24.5H19.911L20,0h96.227V22.177" transform="translate(582.887 8920.842)" fill="none" stroke="#7898c1" stroke-width="2" stroke-dasharray="4"/>
    <path id="Trazado_605532-2" data-name="Trazado 605532" d="M-7043.081-2773h-19.776l-.057,22.5h-56.746v-34.177" transform="translate(8063.081 11862.039)" fill="none" stroke="#99905b" stroke-width="2" stroke-dasharray="4"/>
    <path id="Trazado_605549" data-name="Trazado 605549" d="M-7043.081-2754.021h-19.776l-.057,29.8h-56.746v-60.457" transform="translate(-6463.081 6258.322) rotate(180)" fill="none" stroke="#99905b" stroke-width="2" stroke-dasharray="4"/>
    <path id="Trazado_605533-2" data-name="Trazado 605533" d="M-6897-2743.961h-20V-2773h-44.473v-25.9H-7002" transform="translate(7917 11756.961)" fill="none" stroke="#983333" stroke-width="2" stroke-dasharray="4"/>
    <path id="Trazado_605548" data-name="Trazado 605548" d="M-6898-2724.961h-19.81v-39.081h-44.049V-2798.9H-7002" transform="translate(-6318 6363.039) rotate(180)" fill="none" stroke="#983333" stroke-width="2" stroke-dasharray="4"/>
    <circle id="Elipse_5761" data-name="Elipse 5761" cx="5" cy="5" r="5" transform="translate(1015 8940)" fill="#33ece0"/>
    <circle id="Elipse_5762" data-name="Elipse 5762" cx="5" cy="5" r="5" transform="translate(1015 9151)" fill="#a3bfe4"/>
    <circle id="Elipse_5766" data-name="Elipse 5766" cx="5" cy="5" r="5" transform="translate(575 9151)" fill="#33ece0"/>
    <circle id="Elipse_5763" data-name="Elipse 5763" cx="5" cy="5" r="5" transform="translate(1015 9083)" fill="#fff198"/>
    <circle id="Elipse_5767" data-name="Elipse 5767" cx="5" cy="5" r="5" transform="translate(575 9083)" fill="#983333"/>
    <circle id="Elipse_5764" data-name="Elipse 5764" cx="5" cy="5" r="5" transform="translate(1015 9008)" fill="#983333"/>
    <circle id="Elipse_5768" data-name="Elipse 5768" cx="5" cy="5" r="5" transform="translate(575 9008)" fill="#fff198"/>
    <circle id="Elipse_5765" data-name="Elipse 5765" cx="17" cy="17" r="17" transform="translate(783 8899)" fill="#b6f8f4"/>
    <path id="Trazado_606227" data-name="Trazado 606227" d="M8.957-5A6.123,6.123,0,0,1,7.919-1.162,3.622,3.622,0,0,1,4.881.166a3.647,3.647,0,0,1-3.021-1.3A5.943,5.943,0,0,1,.789-4.873V-7.1a6.042,6.042,0,0,1,1.05-3.843,3.649,3.649,0,0,1,3.026-1.312,3.652,3.652,0,0,1,3.021,1.3A5.925,5.925,0,0,1,8.957-7.222Zm-2.4-2.446a4.426,4.426,0,0,0-.411-2.189,1.389,1.389,0,0,0-1.282-.685,1.364,1.364,0,0,0-1.249.652,4.142,4.142,0,0,0-.427,2.04v2.941a4.646,4.646,0,0,0,.4,2.2,1.37,1.37,0,0,0,1.291.719,1.347,1.347,0,0,0,1.27-.69,4.535,4.535,0,0,0,.407-2.11ZM16.4,0H14V-9.247l-2.864.888V-10.31L16.145-12.1H16.4Z" transform="translate(791 8922)" fill="#12263f"/>
    <circle id="Elipse_5769" data-name="Elipse 5769" cx="5" cy="5" r="5" transform="translate(575 8940)" fill="#a3bfe4"/>
    <path id="Unión_14" data-name="Unión 14" d="M7929.021,11939a17,17,0,1,1,12.021,4.979A17,17,0,0,1,7929.021,11939Zm202.941-202.938a17,17,0,1,1,12.019,4.979A17,17,0,0,1,8131.961,11736.063Z" transform="translate(-7242.512 -2766.012)" fill="#f0e0e0"/>
    <path id="Trazado_606229" data-name="Trazado 606229" d="M8.957-5A6.123,6.123,0,0,1,7.919-1.162,3.622,3.622,0,0,1,4.881.166a3.647,3.647,0,0,1-3.021-1.3A5.943,5.943,0,0,1,.789-4.873V-7.1a6.042,6.042,0,0,1,1.05-3.843,3.649,3.649,0,0,1,3.026-1.312,3.652,3.652,0,0,1,3.021,1.3A5.925,5.925,0,0,1,8.957-7.222Zm-2.4-2.446a4.426,4.426,0,0,0-.411-2.189,1.389,1.389,0,0,0-1.282-.685,1.364,1.364,0,0,0-1.249.652,4.142,4.142,0,0,0-.427,2.04v2.941a4.646,4.646,0,0,0,.4,2.2,1.37,1.37,0,0,0,1.291.719,1.347,1.347,0,0,0,1.27-.69,4.535,4.535,0,0,0,.407-2.11ZM18.859,0H10.575V-1.644l3.91-4.167a9.645,9.645,0,0,0,1.191-1.536,2.467,2.467,0,0,0,.386-1.245,1.846,1.846,0,0,0-.407-1.266,1.468,1.468,0,0,0-1.162-.461,1.584,1.584,0,0,0-1.282.56,2.219,2.219,0,0,0-.469,1.473H10.334a3.962,3.962,0,0,1,.527-2.017,3.715,3.715,0,0,1,1.49-1.432,4.529,4.529,0,0,1,2.183-.519,4.288,4.288,0,0,1,2.9.9,3.172,3.172,0,0,1,1.033,2.532A4.064,4.064,0,0,1,18-7a10.148,10.148,0,0,1-1.594,2.167l-2.748,2.9h5.2Z" transform="translate(893 8964)" fill="#12263f"/>
    <path id="Trazado_606238" data-name="Trazado 606238" d="M8.957-5A6.123,6.123,0,0,1,7.919-1.162,3.622,3.622,0,0,1,4.881.166a3.647,3.647,0,0,1-3.021-1.3A5.943,5.943,0,0,1,.789-4.873V-7.1a6.042,6.042,0,0,1,1.05-3.843,3.649,3.649,0,0,1,3.026-1.312,3.652,3.652,0,0,1,3.021,1.3A5.925,5.925,0,0,1,8.957-7.222Zm-2.4-2.446a4.426,4.426,0,0,0-.411-2.189,1.389,1.389,0,0,0-1.282-.685,1.364,1.364,0,0,0-1.249.652,4.142,4.142,0,0,0-.427,2.04v2.941a4.646,4.646,0,0,0,.4,2.2,1.37,1.37,0,0,0,1.291.719,1.347,1.347,0,0,0,1.27-.69,4.535,4.535,0,0,0,.407-2.11ZM17.083-12.21v1.976h-.232a4.075,4.075,0,0,0-2.619.847,3.44,3.44,0,0,0-1.191,2.283,3.267,3.267,0,0,1,2.432-.979,3.078,3.078,0,0,1,2.507,1.129,4.525,4.525,0,0,1,.93,2.972,4.451,4.451,0,0,1-.51,2.133A3.661,3.661,0,0,1,16.954-.365a4.2,4.2,0,0,1-2.113.531,3.919,3.919,0,0,1-3.084-1.328,5.155,5.155,0,0,1-1.175-3.544V-5.57a7.758,7.758,0,0,1,.743-3.474,5.447,5.447,0,0,1,2.133-2.333,6.251,6.251,0,0,1,3.225-.834Zm-2.341,6.06a1.917,1.917,0,0,0-1.054.3,1.822,1.822,0,0,0-.7.8v.729a3.23,3.23,0,0,0,.473,1.877,1.529,1.529,0,0,0,1.328.675,1.512,1.512,0,0,0,1.249-.609,2.484,2.484,0,0,0,.477-1.578,2.479,2.479,0,0,0-.481-1.591A1.569,1.569,0,0,0,14.742-6.151Z" transform="translate(689 9167)" fill="#12263f"/>
    <circle id="Elipse_5770" data-name="Elipse 5770" cx="57" cy="57" r="57" transform="translate(743 9002)" fill="#a3bfe4"/>
    <g id="Grupo_1015432" data-name="Grupo 1015432" transform="translate(-12.112 -13.478)">
      <g id="Grupo_1015431" data-name="Grupo 1015431" transform="translate(763.868 9036.521)">
        <g id="Grupo_1015430" data-name="Grupo 1015430" clip-path="url(#clip-path-2)">
          <g id="Grupo_1015429" data-name="Grupo 1015429">
            <g id="Grupo_1015428" data-name="Grupo 1015428" clip-path="url(#clip-path-2)">
              <path id="Trazado_605550" data-name="Trazado 605550" d="M14.776,109.547a1.136,1.136,0,0,1-.779-.308,8.971,8.971,0,0,0-12.1-.156,1.14,1.14,0,1,1-1.515-1.7,11.252,11.252,0,0,1,15.172.2,1.141,1.141,0,0,1-.78,1.973" transform="translate(0 -56.456)" fill="#55639e"/>
              <path id="Trazado_605551" data-name="Trazado 605551" d="M15.185,117.755a1.138,1.138,0,0,1-.806-.334,5.179,5.179,0,0,0-7.333,0,1.14,1.14,0,1,1-1.612-1.613,7.458,7.458,0,0,1,10.558,0,1.141,1.141,0,0,1-.806,1.947" transform="translate(-2.754 -61.363)" fill="#55639e"/>
              <path id="Trazado_605552" data-name="Trazado 605552" d="M17.17,125.087a1.964,1.964,0,1,1-1.964-1.964,1.964,1.964,0,0,1,1.964,1.964" transform="translate(-7.152 -66.496)" fill="#55639e"/>
              <rect id="Rectángulo_345949" data-name="Rectángulo 345949" width="17.838" height="3.61" transform="translate(37.597 56.982)" fill="#e3e3e3"/>
              <path id="Rectángulo_345950" data-name="Rectángulo 345950" d="M2.771,0H54.925A2.771,2.771,0,0,1,57.7,2.771v33.8a2.77,2.77,0,0,1-2.77,2.77H2.771A2.771,2.771,0,0,1,0,36.568V2.771A2.771,2.771,0,0,1,2.771,0Z" transform="translate(18.276 18.682)" fill="#fff"/>
              <path id="Rectángulo_345951" data-name="Rectángulo 345951" d="M.844,0H31.6a.844.844,0,0,1,.844.844v0a.843.843,0,0,1-.843.843H.844A.844.844,0,0,1,0,.844v0A.844.844,0,0,1,.844,0Z" transform="translate(30.902 60.401)" fill="#fff"/>
              <path id="Trazado_605553" data-name="Trazado 605553" d="M97.7,44.694V74.12A1.087,1.087,0,0,1,96.619,75.2H44.229a1.086,1.086,0,0,1-1.085-1.081V44.694a1.087,1.087,0,0,1,1.085-1.085h52.39A1.088,1.088,0,0,1,97.7,44.694" transform="translate(-23.301 -23.552)" fill="#abe0cf"/>
              <rect id="Rectángulo_345952" data-name="Rectángulo 345952" width="37.161" height="23.095" transform="translate(28.289 28.557)" fill="#fff"/>
              <rect id="Rectángulo_345953" data-name="Rectángulo 345953" width="31.712" height="4.82" transform="translate(30.66 31.034)" fill="#9cccbd"/>
              <rect id="Rectángulo_345954" data-name="Rectángulo 345954" width="8.991" height="8.657" transform="translate(30.66 41.277)" fill="#9cccbd"/>
              <rect id="Rectángulo_345955" data-name="Rectángulo 345955" width="31.712" height="1.351" transform="translate(30.66 37.328)" fill="#ff4747"/>
              <rect id="Rectángulo_345956" data-name="Rectángulo 345956" width="20.81" height="1.601" transform="translate(41.562 41.277)" fill="#ff4747"/>
              <rect id="Rectángulo_345957" data-name="Rectángulo 345957" width="13.819" height="1.601" transform="translate(41.561 44.805)" fill="#9cccbd"/>
              <rect id="Rectángulo_345958" data-name="Rectángulo 345958" width="13.819" height="1.601" transform="translate(41.561 48.332)" fill="#9cccbd"/>
              <rect id="Rectángulo_345959" data-name="Rectángulo 345959" width="5.614" height="5.554" transform="translate(57.165 45.171)" fill="#9cccbd"/>
              <g id="Grupo_1015412" data-name="Grupo 1015412" transform="translate(19.843 20.057)" style="mix-blend-mode: soft-light;isolation: isolate">
                <g id="Grupo_1015411" data-name="Grupo 1015411">
                  <g id="Grupo_1015410" data-name="Grupo 1015410" clip-path="url(#clip-path-4)">
                    <path id="Trazado_605554" data-name="Trazado 605554" d="M60.036,43.609,54.8,48.843l-7.046,7.041L43.143,60.5V53.116l9.511-9.507Z" transform="translate(-43.143 -43.609)" fill="#fff"/>
                  </g>
                </g>
              </g>
              <g id="Grupo_1015415" data-name="Grupo 1015415" transform="translate(19.843 20.057)" style="mix-blend-mode: soft-light;isolation: isolate">
                <g id="Grupo_1015414" data-name="Grupo 1015414">
                  <g id="Grupo_1015413" data-name="Grupo 1015413" clip-path="url(#clip-path-5)">
                    <path id="Trazado_605555" data-name="Trazado 605555" d="M68.476,43.609,68.09,44l-8.918,8.918-7.34,7.34-3.569,3.574-5.119,5.119V65.253L59.172,49.23l5.616-5.62Z" transform="translate(-43.143 -43.609)" fill="#fff"/>
                  </g>
                </g>
              </g>
              <g id="Grupo_1015418" data-name="Grupo 1015418" transform="translate(52.194 29.448)" style="mix-blend-mode: soft-light;isolation: isolate">
                <g id="Grupo_1015417" data-name="Grupo 1015417">
                  <g id="Grupo_1015416" data-name="Grupo 1015416" clip-path="url(#clip-path-6)">
                    <path id="Trazado_605556" data-name="Trazado 605556" d="M135.693,64.029V71.4l-3.868,3.867-10.96,10.96h-7.382l2.368-2.369,18.811-18.8Z" transform="translate(-113.484 -64.029)" fill="#fff"/>
                  </g>
                </g>
              </g>
              <g id="Grupo_1015421" data-name="Grupo 1015421" transform="translate(64.327 41.577)" style="mix-blend-mode: soft-light;isolation: isolate">
                <g id="Grupo_1015420" data-name="Grupo 1015420">
                  <g id="Grupo_1015419" data-name="Grupo 1015419" clip-path="url(#clip-path-7)">
                    <path id="Trazado_605557" data-name="Trazado 605557" d="M149.941,90.4v3.689l-6.384,6.383h-3.693Z" transform="translate(-139.864 -90.399)" fill="#fff"/>
                  </g>
                </g>
              </g>
              <path id="Trazado_605558" data-name="Trazado 605558" d="M135.921,123.85a1.635,1.635,0,0,1,2.312,2.312l-2.862,2.863a1.635,1.635,0,0,1-2.312-2.312Z" transform="translate(-71.603 -66.63)" fill="#55639e"/>
              <path id="Trazado_605559" data-name="Trazado 605559" d="M179.547,123.85a1.635,1.635,0,0,0-2.312,2.312l2.862,2.863a1.635,1.635,0,1,0,2.312-2.312Z" transform="translate(-95.462 -66.63)" fill="#55639e"/>
              <path id="Trazado_605560" data-name="Trazado 605560" d="M143.446,100.514a14.977,14.977,0,1,1,14.977-14.977,14.994,14.994,0,0,1-14.977,14.977" transform="translate(-69.383 -38.108)" fill="#ff4747"/>
              <path id="Trazado_605561" data-name="Trazado 605561" d="M147.028,101.046a11.926,11.926,0,1,1,11.927-11.927,11.94,11.94,0,0,1-11.927,11.927" transform="translate(-72.965 -41.69)" fill="#fff"/>
              <path id="Trazado_605562" data-name="Trazado 605562" d="M150.474,101.558a8.991,8.991,0,1,1,8.991-8.991,9,9,0,0,1-8.991,8.991" transform="translate(-76.412 -45.138)" fill="#ff4747"/>
              <path id="Trazado_605563" data-name="Trazado 605563" d="M154.131,102.1a5.877,5.877,0,1,1,5.877-5.877,5.884,5.884,0,0,1-5.877,5.877" transform="translate(-80.069 -48.794)" fill="#fff"/>
              <path id="Trazado_605564" data-name="Trazado 605564" d="M157.688,102.628a2.849,2.849,0,1,1,2.849-2.849,2.852,2.852,0,0,1-2.849,2.849" transform="translate(-83.625 -52.35)" fill="#ff4747"/>
              <line id="Línea_141" data-name="Línea 141" x1="18.158" y2="18.158" transform="translate(74.063 29.272)" fill="#ff4747"/>
              <rect id="Rectángulo_345964" data-name="Rectángulo 345964" width="25.679" height="1.401" transform="translate(73.567 46.934) rotate(-45)" fill="#55639e"/>
              <path id="Trazado_605565" data-name="Trazado 605565" d="M189.425,62.355,187.6,58.737l5.18-5.113,1.821,3.617Z" transform="translate(-101.321 -28.961)" fill="#55639e"/>
              <path id="Trazado_605566" data-name="Trazado 605566" d="M194.993,67.984l-3.5-1.68,5.18-5.113,3.5,1.679Z" transform="translate(-103.421 -33.048)" fill="#55639e"/>
              <path id="Trazado_605567" data-name="Trazado 605567" d="M161.2,102.016a.752.752,0,1,1-.751-.752.751.751,0,0,1,.751.752" transform="translate(-86.25 -54.69)" fill="#55639e"/>
              <path id="Trazado_605568" data-name="Trazado 605568" d="M102.73,30.677a5.66,5.66,0,1,1-5.66-5.66,5.66,5.66,0,0,1,5.66,5.66" transform="translate(-49.369 -13.511)" fill="#e3e3e3"/>
              <path id="Trazado_605569" data-name="Trazado 605569" d="M52.03,12.8V23.6L78.1,34.006V2.389Z" transform="translate(-28.1 -1.29)" fill="#fff"/>
              <path id="Trazado_605570" data-name="Trazado 605570" d="M27.8,30.265a5.247,5.247,0,1,0-5.247,5.247A5.248,5.248,0,0,0,27.8,30.265" transform="translate(-9.346 -13.511)" fill="#fff"/>
              <rect id="Rectángulo_345965" data-name="Rectángulo 345965" width="8.4" height="10.495" transform="translate(13.206 11.506)" fill="#55639e"/>
              <path id="Trazado_605571" data-name="Trazado 605571" d="M107.458,32.233a1.385,1.385,0,1,1-2.77,0V1.385a1.385,1.385,0,1,1,2.77,0Z" transform="translate(-56.54 0.001)" fill="#55639e"/>
              <g id="Grupo_1015424" data-name="Grupo 1015424" transform="translate(7.958 14.371)" opacity="0.8" style="mix-blend-mode: multiply;isolation: isolate">
                <g id="Grupo_1015423" data-name="Grupo 1015423">
                  <g id="Grupo_1015422" data-name="Grupo 1015422" clip-path="url(#clip-path-8)">
                    <path id="Trazado_605572" data-name="Trazado 605572" d="M30.949,34.107v4.769h-8.4a5.243,5.243,0,0,1-4.673-7.63,5.238,5.238,0,0,0,4.673,2.861Z" transform="translate(-17.303 -31.246)" fill="#e3e3e3"/>
                    <path id="Trazado_605573" data-name="Trazado 605573" d="M79.01,48.052v4.774a1.384,1.384,0,1,1-2.769,0v-.258L52.022,42.9V38.127l24.219,9.667v.258a1.384,1.384,0,1,0,2.769,0" transform="translate(-36.054 -34.963)" fill="#e3e3e3"/>
                  </g>
                </g>
              </g>
              <rect id="Rectángulo_345967" data-name="Rectángulo 345967" width="3.753" height="24.347" transform="translate(20.176 11.506)" fill="#55639e"/>
              <path id="Trazado_605574" data-name="Trazado 605574" d="M171.576,24.569a.309.309,0,0,1-.309-.309,4.082,4.082,0,0,0-4.077-4.078.309.309,0,1,1,0-.618,4.7,4.7,0,0,1,4.7,4.7.309.309,0,0,1-.31.309" transform="translate(-90.129 -10.566)" fill="#fff"/>
              <path id="Trazado_605575" data-name="Trazado 605575" d="M166.886,22.419a5.5,5.5,0,0,1-.808,2.879,5.568,5.568,0,0,1-2.605,2.23l-.553,1.831h-3.181l-.553-1.848a5.533,5.533,0,1,1,7.7-5.092" transform="translate(-84.156 -9.12)" fill="#ffdd63"/>
              <path id="Trazado_605576" data-name="Trazado 605576" d="M167.41,22.419A5.5,5.5,0,0,1,166.6,25.3a6.172,6.172,0,0,1-9.811-4.984c0-.025,0-.05,0-.075a5.532,5.532,0,0,1,10.616,2.18" transform="translate(-84.679 -9.12)" fill="#fff75c"/>
              <path id="Trazado_605577" data-name="Trazado 605577" d="M165.52,42.048h-2.144l.608,2.812,1.363.6h.173l1.363-.6.608-2.812Z" transform="translate(-88.236 -22.709)" fill="#55639e"/>
              <rect id="Rectángulo_345968" data-name="Rectángulo 345968" width="0.276" height="6.52" transform="matrix(0.975, -0.222, 0.222, 0.975, 74.925, 13.606)" fill="#55639e"/>
              <rect id="Rectángulo_345969" data-name="Rectángulo 345969" width="6.52" height="0.276" transform="translate(77.761 19.904) rotate(-77.306)" fill="#55639e"/>
              <path id="Trazado_605578" data-name="Trazado 605578" d="M166.525,29.408a.569.569,0,0,1-.464-.3c-.1-.133-.183-.248-.352-.248s-.254.115-.352.248a.5.5,0,0,1-.926,0c-.1-.133-.183-.248-.352-.248s-.254.115-.352.248a.5.5,0,0,1-.926,0c-.1-.133-.183-.248-.351-.248a.069.069,0,0,1,0-.138.565.565,0,0,1,.463.305c.1.133.183.248.352.248s.253-.115.351-.248a.5.5,0,0,1,.926,0c.1.133.184.248.352.248s.253-.115.352-.248a.5.5,0,0,1,.927,0c.1.133.184.248.352.248s.254-.115.352-.248a.569.569,0,0,1,.465-.3.069.069,0,0,1,0,.138c-.169,0-.255.115-.353.248a.567.567,0,0,1-.464.3" transform="translate(-87.698 -15.509)" fill="#55639e"/>
              <g id="Grupo_1015427" data-name="Grupo 1015427" transform="translate(76.752 8.721)" opacity="0.5">
                <g id="Grupo_1015426" data-name="Grupo 1015426">
                  <g id="Grupo_1015425" data-name="Grupo 1015425" clip-path="url(#clip-path-9)">
                    <path id="Trazado_605579" data-name="Trazado 605579" d="M171.576,23.967a.309.309,0,0,1-.309-.31,4.082,4.082,0,0,0-4.077-4.077.309.309,0,1,1,0-.619,4.7,4.7,0,0,1,4.7,4.7.309.309,0,0,1-.31.31" transform="translate(-166.881 -18.962)" fill="#fff"/>
                  </g>
                </g>
              </g>
              <path id="Trazado_605580" data-name="Trazado 605580" d="M167.432,42.345a.3.3,0,0,1-.3.3h-4.189a.3.3,0,1,1,0-.594h4.189a.3.3,0,0,1,.3.3" transform="translate(-87.843 -22.709)" fill="#9cc0c9"/>
              <path id="Trazado_605581" data-name="Trazado 605581" d="M167.484,44.764a.3.3,0,0,1-.3.3h-3.6a.3.3,0,0,1,0-.593h3.6a.3.3,0,0,1,.3.3" transform="translate(-88.189 -24.016)" fill="#9cc0c9"/>
              <path id="Trazado_605582" data-name="Trazado 605582" d="M167.551,47.17a.3.3,0,0,1-.3.3h-3.162a.3.3,0,1,1,0-.593h3.162a.3.3,0,0,1,.3.3" transform="translate(-88.463 -25.315)" fill="#9cc0c9"/>
              <path id="Trazado_605583" data-name="Trazado 605583" d="M168.893,42.351a.3.3,0,1,0,.3-.3.3.3,0,0,0-.3.3" transform="translate(-91.215 -22.709)" fill="#fff"/>
              <path id="Trazado_605584" data-name="Trazado 605584" d="M168.7,44.757a.3.3,0,1,0,.3-.3.3.3,0,0,0-.3.3" transform="translate(-91.108 -24.009)" fill="#fff"/>
              <path id="Trazado_605585" data-name="Trazado 605585" d="M168.5,47.163a.3.3,0,1,0,.3-.3.3.3,0,0,0-.3.3" transform="translate(-91.001 -25.308)" fill="#fff"/>
              <path id="Trazado_605586" data-name="Trazado 605586" d="M173.823,21.664a.323.323,0,1,1-.323-.323.323.323,0,0,1,.323.323" transform="translate(-93.529 -11.526)" fill="#fff"/>
              <path id="Trazado_605587" data-name="Trazado 605587" d="M174.95,23.451a.184.184,0,1,1-.184-.184.184.184,0,0,1,.184.184" transform="translate(-94.287 -12.566)" fill="#fff"/>
              <path id="Trazado_605588" data-name="Trazado 605588" d="M167.806,8.488a.463.463,0,0,1-.925,0v-2.2a.463.463,0,0,1,.925,0Z" transform="translate(-90.129 -3.145)" fill="#fff75c"/>
              <path id="Trazado_605589" data-name="Trazado 605589" d="M152.335,14.129a.463.463,0,1,1-.654.654l-1.558-1.557a.463.463,0,0,1,.654-.654Z" transform="translate(-81.005 -6.717)" fill="#fff75c"/>
              <path id="Trazado_605590" data-name="Trazado 605590" d="M180.015,14.129a.463.463,0,0,0,.654.654l1.558-1.557a.463.463,0,0,0-.655-.654Z" transform="translate(-97.149 -6.717)" fill="#fff75c"/>
              <path id="Trazado_605591" data-name="Trazado 605591" d="M184.1,28.462a.463.463,0,1,0,0,.925h2.2a.463.463,0,0,0,0-.925Z" transform="translate(-99.177 -15.372)" fill="#fff75c"/>
              <path id="Trazado_605592" data-name="Trazado 605592" d="M145.8,28.462a.463.463,0,0,0,0,.925h2.2a.463.463,0,1,0,0-.925Z" transform="translate(-78.495 -15.372)" fill="#fff75c"/>
              <path id="Trazado_605593" data-name="Trazado 605593" d="M162.96,28.735a.486.486,0,1,1-.486-.486.486.486,0,0,1,.486.486" transform="translate(-87.486 -15.257)" fill="#fff75c"/>
              <path id="Trazado_605594" data-name="Trazado 605594" d="M172.706,28.735a.486.486,0,1,1-.486-.486.486.486,0,0,1,.486.486" transform="translate(-92.75 -15.257)" fill="#fff75c"/>
              <path id="Trazado_605595" data-name="Trazado 605595" d="M172.432,29.445a.34.34,0,1,1-.34-.339.339.339,0,0,1,.34.339" transform="translate(-92.76 -15.72)" fill="#55639e"/>
              <path id="Trazado_605596" data-name="Trazado 605596" d="M163.3,29.445a.339.339,0,1,1-.34-.339.339.339,0,0,1,.34.339" transform="translate(-87.83 -15.72)" fill="#55639e"/>
            </g>
          </g>
        </g>
      </g>
    </g>
  </g>
</svg>
