<svg xmlns="http://www.w3.org/2000/svg" xmlns:xlink="http://www.w3.org/1999/xlink" width="190" height="187" viewBox="0 0 190 187">
  <defs>
    <clipPath id="clip-path">
      <rect id="Rectángulo_345981" data-name="Rectángulo 345981" width="112.098" height="97.158" fill="none"/>
    </clipPath>
  </defs>
  <g id="Grupo_1015670" data-name="Grupo 1015670" transform="translate(-390 -12451)">
    <g id="Grupo_1015448" data-name="Grupo 1015448" transform="translate(390.344 12450.346)">
      <g id="Grupo_1014855" data-name="Grupo 1014855" transform="translate(-0.344 0.654)">
        <path id="Unión_12" data-name="Unión 12" d="M136.017,177.861A95.867,95.867,0,0,1,95,187C42.537,187,0,145.14,0,93.5S42.537,0,95,0s95,41.863,95,93.5a92.242,92.242,0,0,1-22.27,60.154L180.779,187Z" transform="translate(0 0)" fill="#a3bfe4"/>
        <ellipse id="Elipse_4842" data-name="Elipse 4842" cx="79" cy="79.5" rx="79" ry="79.5" transform="translate(16 13)" fill="#e3ecf7"/>
      </g>
    </g>
    <g id="Grupo_1015455" data-name="Grupo 1015455" transform="translate(428.951 12495.921)">
      <path id="Trazado_605784" data-name="Trazado 605784" d="M198.344,505.01H131.657l9.031-6.13h48.625Z" transform="translate(-108.951 -412.844)" fill="#2697d3"/>
      <g id="Grupo_1015454" data-name="Grupo 1015454">
        <g id="Grupo_1015453" data-name="Grupo 1015453" clip-path="url(#clip-path)">
          <path id="Trazado_605785" data-name="Trazado 605785" d="M104.483,0H7.619A7.625,7.625,0,0,0,0,7.615V72.523a7.623,7.623,0,0,0,7.619,7.615h96.864a7.622,7.622,0,0,0,7.615-7.615V7.615A7.624,7.624,0,0,0,104.483,0m2.226,61.741a2.233,2.233,0,0,1-2.226,2.229H7.619a2.228,2.228,0,0,1-2.227-2.206c0-.006,0-.015,0-.023V7.615A2.249,2.249,0,0,1,7.619,5.389h96.864a2.229,2.229,0,0,1,2.226,2.226Z" fill="#73b2e1"/>
          <path id="Trazado_605786" data-name="Trazado 605786" d="M131.716,31.755l-99.64,57.6a2.226,2.226,0,0,1-.834-1.716c0-.007-.008-.017-.008-.024V33.486a2.25,2.25,0,0,1,2.229-2.219H130.33a2.214,2.214,0,0,1,1.386.488" transform="translate(-25.847 -25.875)" fill="#fff9cf"/>
          <path id="Trazado_605787" data-name="Trazado 605787" d="M136.6,35.827V89.958a2.237,2.237,0,0,1-2.229,2.229H37.506a2.253,2.253,0,0,1-1.387-.487l99.64-57.6a2.191,2.191,0,0,1,.843,1.732" transform="translate(-29.89 -28.215)" fill="#fff198"/>
          <path id="Trazado_605788" data-name="Trazado 605788" d="M349.573,92.823l-14.592,35.284-1.4-3.372,13.607-32.9Z" transform="translate(-276.053 -76)" fill="#a3bfe4"/>
          <path id="Trazado_605789" data-name="Trazado 605789" d="M74.293,131.68a14.135,14.135,0,1,0,18.472,7.639,14.134,14.134,0,0,0-18.472-7.639m10.093,24.33a12.206,12.206,0,1,1,6.6-15.952,12.207,12.207,0,0,1-6.6,15.952" transform="translate(-54.263 -108.075)" fill="#87d2dc"/>
          <path id="Trazado_605790" data-name="Trazado 605790" d="M42.187,301.142l1.4,3.37-12.35-5.145v-2.894Z" transform="translate(-25.848 -245.343)" fill="#ef542b"/>
          <path id="Trazado_605791" data-name="Trazado 605791" d="M103.253,204.234l1.4,3.37-8.51,20.577-1.4-3.37Z" transform="translate(-78.404 -169.012)" fill="#fcb415"/>
          <path id="Trazado_605792" data-name="Trazado 605792" d="M176.769,217.748l1.4,3.372L145.488,207.6l-1.4-3.37Z" transform="translate(-119.24 -169.013)" fill="#90b73e"/>
          <path id="Trazado_605793" data-name="Trazado 605793" d="M451.477,104.03l-34.86-13.886.956-2.4,33.906,13.507Z" transform="translate(-344.768 -72.615)" fill="#fcb415"/>
          <path id="Trazado_605794" data-name="Trazado 605794" d="M400.38,69.272a4.9,4.9,0,1,1-6.409-2.65,4.9,4.9,0,0,1,6.409,2.65" transform="translate(-323.522 -54.822)" fill="#353535"/>
          <path id="Trazado_605795" data-name="Trazado 605795" d="M408.391,79.983a2.838,2.838,0,1,1-3.71-1.534,2.839,2.839,0,0,1,3.71,1.534" transform="translate(-333.442 -64.74)" fill="#dedfe1"/>
          <path id="Trazado_605796" data-name="Trazado 605796" d="M307.378,251.908a7.806,7.806,0,1,1-10.2-4.219,7.806,7.806,0,0,1,10.2,4.219" transform="translate(-241.939 -204.478)" fill="#ef542b"/>
          <path id="Trazado_605797" data-name="Trazado 605797" d="M317.1,264.9a5.3,5.3,0,1,1-6.927-2.863A5.3,5.3,0,0,1,317.1,264.9" transform="translate(-253.972 -216.511)" fill="#c4e6ec"/>
          <path id="Trazado_605798" data-name="Trazado 605798" d="M323.681,273.708a3.6,3.6,0,1,1-4.706-1.945,3.6,3.6,0,0,1,4.706,1.945" transform="translate(-262.127 -224.667)" fill="#90b73e"/>
          <path id="Trazado_605799" data-name="Trazado 605799" d="M77.748,305.173a5.43,5.43,0,1,1-7.1-2.935,5.43,5.43,0,0,1,7.1,2.935" transform="translate(-55.694 -249.77)" fill="#484646"/>
          <path id="Trazado_605800" data-name="Trazado 605800" d="M84.508,314.209a3.687,3.687,0,1,1-4.818-1.992,3.688,3.688,0,0,1,4.818,1.992" transform="translate(-64.065 -258.139)" fill="#c4e6ec"/>
          <path id="Trazado_605801" data-name="Trazado 605801" d="M89.09,320.336a2.5,2.5,0,1,1-3.273-1.353,2.5,2.5,0,0,1,3.273,1.353" transform="translate(-69.738 -263.813)" fill="#ef542b"/>
          <path id="Trazado_605802" data-name="Trazado 605802" d="M128.761,188.083a5,5,0,1,1-6.535-2.7,5,5,0,0,1,6.535,2.7" transform="translate(-98.594 -153.094)" fill="#484646"/>
          <path id="Trazado_605803" data-name="Trazado 605803" d="M139.5,202.437a2.231,2.231,0,1,1-2.916-1.205,2.23,2.23,0,0,1,2.916,1.205" transform="translate(-111.888 -166.386)" fill="#fcb415"/>
          <rect id="Rectángulo_345980" data-name="Rectángulo 345980" width="48.625" height="5.898" transform="translate(31.736 80.138)" fill="#1f64ae"/>
          <path id="Trazado_605804" data-name="Trazado 605804" d="M131.212,534.424s-1.657,4.992,9.031,4.992h24.313v-4.992Z" transform="translate(-108.506 -442.258)" fill="#3874b9"/>
          <path id="Trazado_605805" data-name="Trazado 605805" d="M358.343,534.424s1.657,4.992-9.031,4.992H325v-4.992Z" transform="translate(-268.951 -442.258)" fill="#1f64ae"/>
          <path id="Trazado_605806" data-name="Trazado 605806" d="M287.122,90.858a7.421,7.421,0,0,0-.167-1.564l1.7-.689-.381-1.173-1.777.44a7.428,7.428,0,0,0-1.839-2.531l.968-1.555-1-.725-1.179,1.4a7.357,7.357,0,0,0-2.975-.968l-.132-1.826H279.1l-.131,1.826a7.359,7.359,0,0,0-2.976.968l-1.18-1.4-1,.725.969,1.555a7.411,7.411,0,0,0-1.84,2.531l-1.777-.44-.382,1.173,1.7.689a7.4,7.4,0,0,0,0,3.129l-1.7.689.382,1.173,1.777-.44a7.41,7.41,0,0,0,1.84,2.531l-.969,1.555,1,.725,1.18-1.4a7.35,7.35,0,0,0,2.975.968l.131,1.826h1.233l.131-1.826a7.356,7.356,0,0,0,2.975-.968l1.179,1.4,1-.725-.968-1.555a7.422,7.422,0,0,0,1.84-2.531l1.777.44.381-1.173-1.7-.689a7.421,7.421,0,0,0,.167-1.565m-7.4,4.457a4.457,4.457,0,1,1,4.457-4.457,4.457,4.457,0,0,1-4.457,4.457" transform="translate(-224.089 -67.584)" fill="#a0dbea"/>
          <path id="Trazado_605807" data-name="Trazado 605807" d="M422.6,189.931a12.064,12.064,0,0,0-.272-2.544l2.758-1.12-.619-1.907-2.89.715a12.076,12.076,0,0,0-2.991-4.115l1.574-2.529-1.624-1.178-1.917,2.278a11.961,11.961,0,0,0-4.838-1.574l-.213-2.969h-2.005l-.213,2.969a11.965,11.965,0,0,0-4.838,1.574l-1.918-2.278-1.623,1.178,1.575,2.529a12.055,12.055,0,0,0-2.992,4.115l-2.889-.715-.62,1.907,2.759,1.12a12.033,12.033,0,0,0,0,5.087l-2.759,1.12.62,1.907,2.889-.715a12.049,12.049,0,0,0,2.992,4.115l-1.575,2.529,1.623,1.178,1.918-2.278a11.956,11.956,0,0,0,4.837,1.575l.214,2.969h2.005l.213-2.969a11.964,11.964,0,0,0,4.838-1.574l1.917,2.278,1.624-1.178L418.59,198.9a12.062,12.062,0,0,0,2.991-4.115l2.89.715.619-1.907-2.758-1.119a12.061,12.061,0,0,0,.272-2.544m-12.035,7.247a7.246,7.246,0,1,1,7.247-7.247,7.247,7.247,0,0,1-7.247,7.247" transform="translate(-327.747 -144.811)" fill="#3874b9"/>
        </g>
      </g>
    </g>
  </g>
</svg>
