<svg xmlns="http://www.w3.org/2000/svg" xmlns:xlink="http://www.w3.org/1999/xlink" width="358" height="204" viewBox="0 0 358 204">
  <defs>
    <clipPath id="clip-path">
      <rect id="Rect치ngulo_345977" data-name="Rect치ngulo 345977" width="310.546" height="194.851" fill="none"/>
    </clipPath>
  </defs>
  <g id="Grupo_1015452" data-name="Grupo 1015452" transform="translate(-327 -12349)">
    <rect id="Rect치ngulo_345978" data-name="Rect치ngulo 345978" width="358" height="64" rx="32" transform="translate(327 12489)" fill="#a3bfe4"/>
    <g id="Grupo_1015451" data-name="Grupo 1015451" transform="translate(351 12349)">
      <g id="Grupo_1015450" data-name="Grupo 1015450" clip-path="url(#clip-path)">
        <path id="Trazado_605609" data-name="Trazado 605609" d="M228.948,74.048H205.123l-10.573,6.6V55.824a6.424,6.424,0,0,1,6.424-6.424h27.974a6.423,6.423,0,0,1,6.424,6.424v11.8a6.424,6.424,0,0,1-6.424,6.425" transform="translate(69.838 17.733)" fill="#fff"/>
        <path id="Trazado_605610" data-name="Trazado 605610" d="M66.669,56.824a7.766,7.766,0,0,0-6.318-3.444c-4.224,0-4.108,1.07-6.883,1.07s-8.313-.915-10.563,4.269.867,8.151,4.774,7.723l-.495.832a21.862,21.862,0,0,0-1.417,2.616c.137.037-.8,6.038,3.141,8.1l.451,1-1.6,2.123-.571,2.105.414,1.756,1.306,1.383,1.06.459,1.991.289,2.45-.221s2.155-.819,2.324-.087,1.719,4.455.029,5.246-1.854,9.294-1.113,9.558,3.854,1.161,5.493,1.53,2.168.476,3.382-1.479,2.745-3.729,3.221-4.558,1.976-6.45,1.976-6.45L68.453,85.34,71.061,85l5.329-1.438,1.95-1.729.438-1.567-.549-3.459-.916-1.92-1.332-1.643L75.1,72.071l-.472-1.315.285-2.066.116-3.21-.59-2.684-1.181-2.384L71.58,58.718l-1.926-.7-1.329.079L67.4,58Z" transform="translate(15.13 19.162)" fill="#fff"/>
        <path id="Trazado_605611" data-name="Trazado 605611" d="M207.82,71.707V61.281l-9.15-3.945-3.948-9.256,4.244-9.378-7.181-7.438-9.3,4.018L173.2,31.794l-3.912-9.544h-10.5l-3.869,9.559-9.267,3.656L136.1,31.328l-7.271,7.238,4.033,9.329-4.033,9.17-10.266,4.16V71.547l9.692,3.747,4.607,9.338-4.073,9.7,4.481,4.414,4.19-1.567,1.625,3.363,6.4-2.942,9.471,4.239,3.884,9.715h10.278l3.611-9.681,9.4-4.273,9.744,4.395,7.185-7.8-3.922-9.676,3.728-9.093ZM163.993,83.148a16.662,16.662,0,1,1,16.661-16.661,16.661,16.661,0,0,1-16.661,16.661" transform="translate(42.56 7.987)" fill="#1a1a1a"/>
        <path id="Trazado_605612" data-name="Trazado 605612" d="M214.97,167.123a97.9,97.9,0,0,1-2.9-18.743c-.4-9.471-.436-14.685-.436-14.685s10.172-.221,12.788-3.014,5.07-5.161,4.96-10.351-5.86-14.917-8.226-18.918-8.189-13.684-12.58-17.619-9.575-8.135-14.011-7.73-20.223.319-20.223.319-8.695.845-14.705,6.8-6.4,9.851-6.4,9.851l.058,58.947s.058,13.834.024,15.146Z" transform="translate(55.008 27.295)" fill="#33ece0"/>
        <path id="Trazado_605613" data-name="Trazado 605613" d="M52.918,75.277A26.459,26.459,0,1,1,26.461,48.819,26.459,26.459,0,0,1,52.918,75.277" transform="translate(0 17.525)" fill="#fff"/>
        <path id="Trazado_605614" data-name="Trazado 605614" d="M128.972,73.97A78.509,78.509,0,0,0,112.359,76.8,30.3,30.3,0,0,0,100.54,83.92l-1.73-4.974s-2.352,4.834-11.422,5.536-11.016-.563-11.016-.563,2.465,15.642,3.01,18.982,2.441,14.908,3.594,18.047,5.208,15.624,16.753,13.5c0,0,8.343-1.337,9.945-9.588l1.026-6.24a132.506,132.506,0,0,1-.52,15.828c-.783,6.235-4,27.232-5.969,32.871l-.245.622,63.317-.075s-4.112-19.066-5.061-23.942-1.581-16.66-1.874-19.369.688-7.412.867-9.164a53.341,53.341,0,0,0,.076-10.463,75.118,75.118,0,0,1,6.215,6.709c2.789,3.484,5.816,7.654,6.531,10.58s.111,6.448-5.277,10.465c0,0,3.334.084,5.52,6.346s3.093,8.152,2.977,10.979a11.968,11.968,0,0,1-.621,3.957s5.982-2.778,8.843-4.332a31.143,31.143,0,0,0,9.461-9.744c1.616-3.143,3.058-8.528,1.434-15.994a58.451,58.451,0,0,0-6.656-17.567c-2.457-4.017-7.633-11.637-11.346-14.65s-6.62-6.582-7.919-7.757-6.6-5.494-10.737-6.8a70.347,70.347,0,0,0-11.13-2.715c-2.5-.272-6.721-.439-6.721-.439Z" transform="translate(27.416 26.553)" fill="#a3bfe4"/>
        <path id="Trazado_605615" data-name="Trazado 605615" d="M113.977,61.208a3.955,3.955,0,0,0-5.1,3.228s-.005,2.967,2.2,3.558a4.867,4.867,0,0,0,3.471-.128s.841,5.569,3.73,7.054c0,0-.092,5.349-.752,6.973s-1.655,5.921,5.868,6.955c0,0,4.756.067,5.99-1.443s1.824-2.515,1.5-3.313a38.322,38.322,0,0,1-1.181-6c-.1-1.379-.189-3.175-.189-3.175a5.555,5.555,0,0,0,2.586-3.054c.507-1.962,1.146-3.982,1.146-3.982s2.669,1.22,4.118-.185a4.429,4.429,0,0,0,1.559-4.008,4.884,4.884,0,0,0-3.4-2.748,4.63,4.63,0,0,0-2.036.3l-.155-1.045s-5.274-.381-8.695-2.693-7.371-5.6-7.371-5.6-1.858,5.75-2.975,6.785Z" transform="translate(39.084 18.631)" fill="#fff"/>
        <path id="Trazado_605616" data-name="Trazado 605616" d="M174.09,70.33,173.4,80.436l10.956,11.782L187.6,80.555l-.284-1.867s4.3.192,4.968-4.752.064-16.635.064-16.635l-12.312-4.743L171.208,62.2A5.145,5.145,0,0,0,168,65.956c-.694,2.988,3.21,6.3,6.09,4.373" transform="translate(60.279 18.867)" fill="#fff"/>
        <path id="Trazado_605617" data-name="Trazado 605617" d="M176.478,67.419l-.652,6.148s-.444,5.133,1.831,6.272a19.15,19.15,0,0,0,8.3,1.39c1.931-.182,4.407.1,5.556-2.006a12.032,12.032,0,0,0,1.162-5.267,13.592,13.592,0,0,0-.175-1.566,9.379,9.379,0,0,0-2.664-.336c-1.169.086-2.905-.079-3.306-.046a3.99,3.99,0,0,1-1.994-.814,10.453,10.453,0,0,0-3.589-.848c-.848-.1-1.927.019-2.37-1.286a48.716,48.716,0,0,1-1.038-4.809,11.23,11.23,0,0,0,2.578-3.759c.51-1.756.9-4.021.9-4.021a12.744,12.744,0,0,0,5.82,3.43,9.177,9.177,0,0,0,5.661-.061l.208,4.64s2.654-2.093,2.806-3.6.175-3.838-1.591-4.163a6.946,6.946,0,0,0,.434-6.151c-1.457-3.147-4.372-4.985-6.213-5.074a10.664,10.664,0,0,0-6.13,1.43c-1.844,1.208-3.979,4.133-4.062,4.786a33.356,33.356,0,0,0-5.687.4,5.971,5.971,0,0,0-4.285,3.408c-.949,2.157-.307,6.416.268,7.927s.882,2.212.882,2.212a4.972,4.972,0,0,1,4-.845,6.2,6.2,0,0,1,3.353,2.6" transform="translate(60.126 16.326)" fill="#ffce26"/>
        <path id="Trazado_605618" data-name="Trazado 605618" d="M177.555,95.714l-8.791-18.269,4.33-4.373L184.05,84.855,187.3,73.191l2.552,4.057.207,15.791-.573-.64.817,8.144.4,6.727-.643-.588-2.153,1.167h-4.139l-5-14.155Z" transform="translate(60.582 26.231)" fill="#fff"/>
        <path id="Trazado_605619" data-name="Trazado 605619" d="M79.451,78.451l2.5,4.892s-5.322-.125-5.675-1.638,3.175-3.255,3.175-3.255" transform="translate(27.372 28.162)" fill="#1a1a1a"/>
        <path id="Trazado_605620" data-name="Trazado 605620" d="M91.484,76.631,89.556,81.55s3.668-1.189,4.074-3.187c0,0,.416-1.364-2.146-1.733" transform="translate(32.148 27.509)" fill="#1a1a1a"/>
        <path id="Trazado_605621" data-name="Trazado 605621" d="M177.148,65.312s1.871.984,1.957,2.263a4.69,4.69,0,0,1-.376,2.208,5.017,5.017,0,0,0,3.464.179c1.532-.663,1.419-2.078.538-2.388s-2.468.414-2.814-.406-.09-2.26-1.211-2.48a1.4,1.4,0,0,0-1.557.624" transform="translate(63.591 23.208)" fill="#1a1a1a"/>
        <path id="Trazado_605622" data-name="Trazado 605622" d="M146.925,118.938l-2.761-1.178s.182-.739.75-.559a9.846,9.846,0,0,1,2.011,1.737" transform="translate(51.751 42.062)" fill="#3a3a3a"/>
        <path id="Trazado_605623" data-name="Trazado 605623" d="M146.9,130.957s3.714-.544,4.917-1.426c0,0,.66,4.853-1.1,4.684s-3.679-2.78-3.815-3.259" transform="translate(52.735 46.498)" fill="#1a1a1a"/>
        <path id="Trazado_605624" data-name="Trazado 605624" d="M169.187,101.109s2.011.209,2.382.981a5.1,5.1,0,0,1,3.116-.981c1.828.06,3.289,1.184,3.456,2.18l1.623-.8s-2.3-3.59-4.909-3.456-3.312.117-5.668,2.074" transform="translate(60.734 35.55)" fill="#1a1a1a"/>
        <path id="Trazado_605625" data-name="Trazado 605625" d="M177.148,88.538l3.117,4.038-.519,8.734,1.008,3.426H184.9l1.917-.9c.557.135.522-6.175.522-6.175l-2.867-5.464.61-5.1-4.038-5.352Z" transform="translate(63.591 29.344)" fill="#1a1a1a"/>
        <path id="Trazado_605626" data-name="Trazado 605626" d="M177.007,65.138s-.246,3.667,1.681,4.281c.318,0,.686-1.48.318-2.4s-2-1.881-2-1.881" transform="translate(63.537 23.383)" fill="#fff"/>
        <path id="Trazado_605627" data-name="Trazado 605627" d="M113.887,64.169s.722,1.856-.612,1.86-5.174.337-6.683,2.63-2.1,3.559-1.938,6.066,2.726,4.317,2.726,4.317a49.787,49.787,0,0,1,11.448-1.367A5.017,5.017,0,0,0,119.4,75.2c.17-2,.245-4.584.245-4.584a8.159,8.159,0,0,1-2.851-4.05c-.648-2.472-.73-2.919-.73-2.919a2.959,2.959,0,0,1-2.181.52" transform="translate(37.559 22.848)" fill="#1a1a1a"/>
        <path id="Trazado_605628" data-name="Trazado 605628" d="M129.555,64.169s-.4,1.856.934,1.86,5.118.549,6.629,2.84,1.782,3.18,1.624,5.689-2.649,4.449-2.649,4.449a46.867,46.867,0,0,0-11.157-1.332,5.011,5.011,0,0,1-.575-2.475c-.169-2-.245-4.584-.245-4.584a8.159,8.159,0,0,0,2.851-4.05c.647-2.472.728-2.919.728-2.919a2.008,2.008,0,0,0,1.859.52" transform="translate(44.554 22.848)" fill="#1a1a1a"/>
        <path id="Trazado_605629" data-name="Trazado 605629" d="M111.516,62.9l2.033.3.067-2.555a34.888,34.888,0,0,0,2.975-6.785s5.008,4.748,8.227,6.083,6.7,2.427,7.839,2.212l.111.747,1.453-.183s.533-4.812.613-7.147-1.11-6.338-4.323-7.54a21.462,21.462,0,0,0-10.325-1.46A8.186,8.186,0,0,0,114.4,50.26a4.49,4.49,0,0,0-3.479,3.927c-.586,3.488.6,8.716.6,8.716" transform="translate(39.758 16.672)" fill="#1a1a1a"/>
        <path id="Trazado_605630" data-name="Trazado 605630" d="M180.715,102.74s-1.155-2.206-3.276-2.18a7.865,7.865,0,0,0-3.168.553s-2.753-.769-4.391-.182-2.446.828-2.446.828-3.748-.584-5.416,1.176a67.733,67.733,0,0,1,2.467,6.833c.825,2.972,1.427,5.856,1.427,5.856a4.935,4.935,0,0,0,2.48-1.257,12.076,12.076,0,0,0,1.488-2.819s.478,3.411,3.543,2.9c2.127-.353,2.647-2.651,2.647-3.441s.262-4.868,1.617-6.291a8.291,8.291,0,0,1,3.028-1.977" transform="translate(58.16 36.098)" fill="#fff"/>
        <path id="Trazado_605631" data-name="Trazado 605631" d="M192.21,106.082s3.619-3.251,6.852-3.961a23.321,23.321,0,0,1,6.45-.391,3.333,3.333,0,0,0-1.177-3.3,11.033,11.033,0,0,0-4.274-1.99s-1.526-2.3-5.488-2.322-10.142,5.333-10.142,5.333,5.176,3.211,7.779,6.633" transform="translate(66.206 33.785)" fill="#fff"/>
        <path id="Trazado_605632" data-name="Trazado 605632" d="M93.879,85.536s2.06-4.983,2.954-7.563,2.115-5.693.849-7.5-4.273-3.679-6.741-4.481-3.744-.711-3.965,1.412,2.172,4.649,5.422,6.455L77.512,79.834s3.309,7.328,4.2,8.148c0,0,9.492-.522,12.167-2.446" transform="translate(27.825 23.523)" fill="#fff"/>
        <path id="Trazado_605633" data-name="Trazado 605633" d="M77.554,89.749l28.568-10.638L92.489,42.873,64.061,53.511Z" transform="translate(22.996 15.39)" fill="#fff"/>
        <path id="Trazado_605634" data-name="Trazado 605634" d="M152.574,119.993a23.551,23.551,0,0,0-8.382-3.631c-4.883-1.025-9.681.393-10.653,1.233s-2.515,2.236-.968,4.029c0,0-3.054,2.245-1.161,4.932,0,0-1.324,1.438-.614,2.472a5.248,5.248,0,0,0,4.54,1.84c2.25-.044,6.951-.949,9.165-.315,0,0,.421,3.714,5.04,4.928a10.833,10.833,0,0,0,8.136-1.091s-1.166-6.719-2.4-9.346-2.707-5.05-2.707-5.05" transform="translate(46.877 41.642)" fill="#fff"/>
        <path id="Trazado_605635" data-name="Trazado 605635" d="M125.672,89.161a1.442,1.442,0,1,1-1.443-1.442,1.443,1.443,0,0,1,1.443,1.442" transform="translate(44.078 31.489)" fill="#fff"/>
        <path id="Trazado_605636" data-name="Trazado 605636" d="M125.672,102.371a1.442,1.442,0,1,1-1.443-1.442,1.443,1.443,0,0,1,1.443,1.442" transform="translate(44.078 36.231)" fill="#fff"/>
        <path id="Trazado_605637" data-name="Trazado 605637" d="M125.672,115.618a1.442,1.442,0,1,1-1.443-1.443,1.443,1.443,0,0,1,1.443,1.443" transform="translate(44.078 40.986)" fill="#fff"/>
        <path id="Trazado_605638" data-name="Trazado 605638" d="M125.672,128.827a1.442,1.442,0,1,1-1.443-1.442,1.444,1.444,0,0,1,1.443,1.442" transform="translate(44.078 45.728)" fill="#fff"/>
        <path id="Trazado_605639" data-name="Trazado 605639" d="M131.11,126.212s1.3,2.889,6.723,2.615l5.428-.273-.193-1.763a25.008,25.008,0,0,0-4.592.124c-3.328.288-6.864.145-7.366-.7" transform="translate(47.065 45.307)" fill="#1a1a1a"/>
        <path id="Trazado_605640" data-name="Trazado 605640" d="M84.532,66.544A7.213,7.213,0,0,0,88.058,74.6l2.227-.8s-5.418-3.128-5.753-7.258" transform="translate(30.271 23.888)" fill="#b5b5b5"/>
        <path id="Trazado_605641" data-name="Trazado 605641" d="M63.849,80.356s-15.394,1.866-20.473,10.13c0,0-2.886,3.713-3.464,7.026l33.61,3.15,2.1,1.571,16.187,33.9-.39,2.789-4.139,3.925-1.124.328L75.9,142.233l-33.72-2.905s-2.615-.27-3.7-1.169S32.487,125.6,32.487,125.6a17.452,17.452,0,0,1-4.114.542c-1.68-.082-5.017-.432-5.017-.432a62.245,62.245,0,0,0,3.374,8.693c1.61,2.949,5.846,10.089,9.9,11.843a14.912,14.912,0,0,0,6.743,1.484s-.133,5.6-.511,8.337-1.534,8.413-2.193,9.45l61.735.175V151.225s4.5-3.423,5.876-7.84a40.573,40.573,0,0,0,1.348-11.137c-.037-.858-.09-1.73-.09-1.73s-5.7-4.547-7.351-11.154-3.156-14.688-3.488-16.778S96.41,88.907,96.41,88.907a17.526,17.526,0,0,0-9.543-7.7c-6.629-2.138-10.236-.871-10.236-.871a14.339,14.339,0,0,1-3.84,4.694c-2.666,2.121-5.46,6.189-7.156,5.441s-1.424-5.353-1.335-5.984.164-2.585.164-2.585Z" transform="translate(8.384 28.703)" fill="#1a1a1a"/>
        <path id="Trazado_605642" data-name="Trazado 605642" d="M143,36.347V28.685l-6.721-2.9-2.9-6.8,3.119-6.893-5.277-5.464-6.834,2.952-6.823-2.562L114.688,0h-7.719l-2.844,7.025L97.316,9.711l-7.023-3.04-5.342,5.32,2.965,6.855-2.965,6.739-7.545,3.059v7.584l7.124,2.753,3.387,6.863L84.922,52.97l3.294,3.244,3.078-1.152,1.195,2.472L97.2,55.371l6.959,3.115,2.854,7.141h7.553l2.654-7.116,6.908-3.141,7.16,3.23,5.281-5.735-2.882-7.11,2.74-6.682ZM110.8,44.755A12.245,12.245,0,1,1,123.04,32.509,12.246,12.246,0,0,1,110.8,44.755" transform="translate(27.787)" fill="#983333"/>
        <path id="Trazado_605643" data-name="Trazado 605643" d="M36.794,80.78c-.54,3.869-3.628,6.728-8.15,7.55-.488.088-.972.2-1.567.33V92.9H23.214V88.641c-5.562-.616-8.722-3.516-9.895-8.509,2.051-.495,3.989-.964,6.06-1.462.159.41.317.781.447,1.161a5.749,5.749,0,0,0,7.635,3.3,3.306,3.306,0,0,0,2.26-3.039,2.694,2.694,0,0,0-1.761-2.835c-1.647-.694-3.347-1.282-5.025-1.911-.887-.332-1.8-.618-2.664-.991-4.357-1.866-6.277-4.992-5.731-9.279.533-4.177,3.179-6.758,7.864-7.674.19-.037.375-.1.678-.181V53.965H26.9l.088,3.21a16.471,16.471,0,0,1,3.039.859A9.127,9.127,0,0,1,35.894,64.3L30.533,66.34a29.115,29.115,0,0,0-1.95-2.831,4.3,4.3,0,0,0-4.519-1.242A3.078,3.078,0,0,0,21.6,64.822a2.614,2.614,0,0,0,1.629,3.124c1.408.616,2.865,1.139,4.3,1.7,1.205.469,2.441.885,3.619,1.405,4.515,1.995,6.288,5.085,5.64,9.73" transform="translate(4.781 19.372)" fill="#ffce26"/>
        <path id="Trazado_605644" data-name="Trazado 605644" d="M129.851,65.5c.008.005,4.538,3.064,3.229,7.632-1.154,4.023-3.23,4.379-3.23,4.379l4.417.643a6.9,6.9,0,0,0,2.416-4.254c.158-2.507-.114-3.4-1.624-5.689-1.125-1.707-3.512-2.445-5.208-2.711" transform="translate(46.613 23.511)" fill="#fefefe"/>
        <path id="Trazado_605645" data-name="Trazado 605645" d="M190.35,56.639a6.944,6.944,0,0,0,.434-6.149,9.363,9.363,0,0,0-4.913-4.778c.023.026,5.4,7.443,1.812,10.518-1.942,1.665-5.9,3.73-10.237.159a12.744,12.744,0,0,0,5.82,3.43,9.189,9.189,0,0,0,5.663-.06l.208,4.638s2.654-2.093,2.806-3.6.175-3.838-1.593-4.163" transform="translate(63.698 16.409)" fill="#fff"/>
        <path id="Trazado_605646" data-name="Trazado 605646" d="M188.531,65.362a11.337,11.337,0,0,0-1.561-.3c-.008.942.795,10.6-8.416,9.014a13.424,13.424,0,0,0,3.435.121c1.93-.182,4.407.1,5.556-2a12.04,12.04,0,0,0,1.162-5.269,13.924,13.924,0,0,0-.175-1.564" transform="translate(64.096 23.356)" fill="#fff"/>
        <path id="Trazado_605647" data-name="Trazado 605647" d="M178.694,71.717c-.235-.026-.478-.06-.727-.1.243.038.487.073.727.1" transform="translate(63.885 25.708)" fill="#fff"/>
        <path id="Trazado_605648" data-name="Trazado 605648" d="M131.072,61.957l.11.747,1.453-.183s.533-4.812.613-7.147-1.109-6.338-4.323-7.54c-.851-.318-1.7-.6-2.567-.833,1.991,2.437,4.888,6.87,2.269,9.552-3.751,3.842-13.457-2.892-13.457-2.892,1.11,1.18,5.262,4.922,8.061,6.083,3.219,1.335,6.7,2.427,7.84,2.212" transform="translate(41.343 16.872)" fill="#fefefe"/>
        <path id="Trazado_605649" data-name="Trazado 605649" d="M178.9,84.037l2.726,4.108.253,4.379,4.667,10.634.158-5.271-2.869-5.691.61-5.1-4.323-5.35Z" transform="translate(64.221 29.344)" fill="#fff"/>
        <path id="Trazado_605650" data-name="Trazado 605650" d="M47.122,72.116a4.458,4.458,0,0,0,2.165-1.366l-.877-1a4.631,4.631,0,0,1-1.288,2.362" transform="translate(16.916 25.04)" fill="#ccc"/>
        <path id="Trazado_605651" data-name="Trazado 605651" d="M48.032,69.209v.681a1.667,1.667,0,0,0,.171-.665Z" transform="translate(17.242 24.844)" fill="#ccc"/>
        <path id="Trazado_605652" data-name="Trazado 605652" d="M78.745,110l10.086,21.345s1.788,3.5.235,5.191a4.682,4.682,0,0,1-3.423,1.6l-45.058-3.8s-1.31-.309-2.907-3.032-4.824-10.658-4.824-10.658L22.4,99.011s-.72-4.089,2.586-5.255l45.922,3.9s1.767-.06,3.142,2.416S78.745,110,78.745,110" transform="translate(8.017 33.656)" fill="#e8e8e8"/>
        <path id="Trazado_605653" data-name="Trazado 605653" d="M23.361,97.8l2.54,4.781s.643.7,3.768.64,4.315-.262,5.165.5,2.142,2.377.73,5.046a2.8,2.8,0,0,1,1.413,2.453,3.2,3.2,0,0,1-.925,2.343,2.73,2.73,0,0,1,1.184,2.628c-.375,1.564-2.249,2.66-3.638,3.15s-7.616.568-8.744-.039-2.945-.957-4.2-4.209a25.292,25.292,0,0,1-1.461-8.715,17.392,17.392,0,0,1,1.124-5.015c.565-1.351,3.048-3.566,3.048-3.566" transform="translate(6.885 35.109)" fill="#fff"/>
        <path id="Trazado_605654" data-name="Trazado 605654" d="M47.048,110.265c1.128,1.951,1,4.138-.284,4.879s-3.243-.239-4.369-2.192-1-4.137.284-4.879,3.243.239,4.369,2.192" transform="translate(14.943 38.706)" fill="#fff"/>
        <path id="Trazado_605655" data-name="Trazado 605655" d="M24.178,93.977l2.115-1.686L66.2,95.514l7.025.719a6.092,6.092,0,0,1,2.878,3.137L91.51,131.7s.467,2.134-.571,3.039l-1.9,1.722s.809-.4,0-2.643l-16.1-34.04a7,7,0,0,0-2.358-1.608Z" transform="translate(8.679 33.13)" fill="#fff"/>
        <path id="Trazado_605656" data-name="Trazado 605656" d="M78.517,122.05a120.166,120.166,0,0,0-9.781-10.539c2.664,1.6,7.926,6.86,10.075,9.979-.154.54-.224.56-.295.56" transform="translate(24.674 40.03)" fill="#1a1a1a"/>
        <path id="Trazado_605657" data-name="Trazado 605657" d="M82.388,139.463c-6.026,0-13.238-3.469-20.739-10.051,9.376,7.275,17.809,10.63,24.207,8.89,9.5-2.57,10.082-14.336,9.581-21.12,1.231,6.951.606,19.106-9.395,21.812a14,14,0,0,1-3.654.469" transform="translate(22.13 42.066)" fill="#1a1a1a"/>
        <path id="Trazado_605658" data-name="Trazado 605658" d="M42.733,136.054a14.338,14.338,0,0,1-3.009-.326c-7.593-1.638-13.84-12.316-16.662-22.174,3.45,9.457,9.51,19.9,16.812,21.474a13.507,13.507,0,0,0,3.586.291c-.215.728-.47.735-.727.735" transform="translate(8.279 40.763)" fill="#1a1a1a"/>
        <path id="Trazado_605659" data-name="Trazado 605659" d="M82.388,89.689c-4.813-9.649-15.559-9.52-19.97-9.024,4.486-1.226,15.6-1.349,20.292,8.514-.219.5-.27.51-.322.51" transform="translate(22.406 28.75)" fill="#1a1a1a"/>
        <path id="Trazado_605660" data-name="Trazado 605660" d="M35.633,97.46c-.295-.076-.4-.276-.341-.466C38.782,85.825,47.268,82.581,54.268,81c.162-.034,3.8-.775,5.644-.916A31.328,31.328,0,0,1,54.417,81.7c-6.807,1.536-15.062,4.686-18.444,15.509a.357.357,0,0,1-.34.251" transform="translate(12.663 28.749)" fill="#1a1a1a"/>
        <path id="Trazado_605661" data-name="Trazado 605661" d="M53.129,79.294a5.825,5.825,0,0,1-.779-.052,4.791,4.791,0,0,1-3.66-2.814,18.342,18.342,0,0,1-1.681-4.962c1.106,1.806,1.619,3.321,2.313,4.626a4.12,4.12,0,0,0,3.123,2.442,7.318,7.318,0,0,0,2.876-.284c1.146-.3,2.81-.8,3.945-1.246A7.254,7.254,0,0,1,55.5,78.94a9.387,9.387,0,0,1-2.374.353" transform="translate(16.875 25.654)" fill="#1a1a1a"/>
        <path id="Trazado_605662" data-name="Trazado 605662" d="M60.01,72.685a4.053,4.053,0,0,1-1.229-.189,5.231,5.231,0,0,1,2.017-.618,3.367,3.367,0,1,0-3.266-5.551,1.7,1.7,0,0,1,1.529-1.693,4.082,4.082,0,1,1,.949,8.052" transform="translate(20.653 23.161)" fill="#1a1a1a"/>
        <path id="Trazado_605663" data-name="Trazado 605663" d="M60.979,70.266C60.812,70.225,58,68.743,58,68.743c-.091-.565,2.29-3.064,2.29-3.064.519.495-1.538,2.651-1.538,2.651l2.392,1.261c.086.6-.038.674-.166.674" transform="translate(20.82 23.577)" fill="#1a1a1a"/>
        <path id="Trazado_605664" data-name="Trazado 605664" d="M81.62,147.227c-.12-5.284-.355-14.726-.357-14.821.718.077.954,9.544.715,14.481a.357.357,0,0,1-.357.34" transform="translate(29.171 47.53)" fill="#1a1a1a"/>
        <path id="Trazado_605665" data-name="Trazado 605665" d="M69.44,117.395c-3-9.631-2.763-23.54-2.761-23.679.713.152.482,13.957,3.107,23.224-.28.451-.313.455-.345.455" transform="translate(23.934 33.642)" fill="#1a1a1a"/>
        <path id="Trazado_605666" data-name="Trazado 605666" d="M50,73.345a4.624,4.624,0,0,1-2.3-2.2,1,1,0,0,1,.071-.844c.414-.693,1.4-.461,2.047-.3a18.59,18.59,0,0,0,.1-4c.741.651.867,4.048.836,4.4a.878.878,0,0,1-1.1.294c-.393-.092-1.12-.266-1.268-.024a3.632,3.632,0,0,0,1.769,2c.117.6-.014.682-.148.682" transform="translate(17.101 23.691)" fill="#1a1a1a"/>
        <path id="Trazado_605667" data-name="Trazado 605667" d="M51.319,74.032c.447-.651,1.08-.825,1.5-1.238a2.663,2.663,0,0,0,.629-1.888c.718.007.818,1.468-.128,2.4a2.748,2.748,0,0,1-2,.728" transform="translate(18.422 25.453)" fill="#1a1a1a"/>
        <path id="Trazado_605668" data-name="Trazado 605668" d="M24.635,93.348H20.772c-.357-.357-.357-4.294-.357-4.294-5.433-.694-8.668-3.558-9.885-8.745.265-.429,6.322-1.892,6.322-1.892a4.418,4.418,0,0,1,.871,1.392,5.068,5.068,0,0,0,2.668,2.96,5.738,5.738,0,0,0,4.5.12,2.954,2.954,0,0,0,2.029-2.73,2.324,2.324,0,0,0-1.542-2.48c-1.17-.492-2.388-.939-3.569-1.371-.481-.177-.964-.353-1.445-.534-.3-.114-.613-.223-.923-.332-.58-.205-1.178-.417-1.756-.665-4.512-1.932-6.514-5.18-5.944-9.653.553-4.346,3.3-7.03,8.15-7.98.39-.1.39-3.085.39-3.085.357-.357,4.175-.357,4.175-.357.357.348.438,3.266.438,3.266a22.246,22.246,0,0,1,2.809.825,9.42,9.42,0,0,1,6.088,6.488c-.212.447-5.575,2.491-5.575,2.491a3.234,3.234,0,0,1-1.03-1.071,15.259,15.259,0,0,0-1.315-1.862,3.974,3.974,0,0,0-4.163-1.129,2.718,2.718,0,0,0-2.2,2.267,2.259,2.259,0,0,0,1.421,2.738c1,.44,2.056.84,3.071,1.227q.61.23,1.216.466c.4.158.815.308,1.224.461.8.295,1.619.6,2.409.95,4.665,2.062,6.524,5.274,5.85,10.107-.557,4-3.792,7.007-8.441,7.854-.321.058-.64.129-.989.205-.284.063-.284,4.008-.284,4.008a.358.358,0,0,1-.357.357m-3.506-.715h3.149V88.757a7.058,7.058,0,0,1,1.86-.684c4.4-.8,7.34-3.51,7.86-7.249.624-4.468-1.1-7.44-5.432-9.354-.769-.34-1.583-.641-2.37-.934-.413-.152-.825-.306-1.233-.465s-.809-.311-1.212-.463c-1.025-.39-2.085-.795-3.105-1.241a2.961,2.961,0,0,1-1.836-3.513,3.42,3.42,0,0,1,2.726-2.839,4.648,4.648,0,0,1,4.873,1.351,16,16,0,0,1,1.381,1.949c.143.227.288.455.439.684L33,64.18a8.659,8.659,0,0,0-5.532-5.713,16.92,16.92,0,0,0-2.964-.843c-.317-.345-.4-3.209-.4-3.209H21v2.9c-5.485,1.415-8.034,3.893-8.547,7.9-.523,4.118,1.335,7.114,5.519,8.905.554.238,1.143.447,1.712.648.313.11.625.22.935.337.478.179.959.356,1.439.531,1.188.435,2.415.885,3.6,1.383a3.064,3.064,0,0,1,1.98,3.192,3.669,3.669,0,0,1-2.49,3.346,6.433,6.433,0,0,1-5.061-.141,5.774,5.774,0,0,1-3.039-3.372c-.091-.262-.194-.519-.3-.79-.029-.069-5.435,1.237-5.435,1.237,1.227,4.737,4.338,7.319,9.5,7.89.318.355.318,4.252.318,4.252" transform="translate(3.78 19.277)" fill="#1a1a1a"/>
        <path id="Trazado_605669" data-name="Trazado 605669" d="M25.689,98.4A23.954,23.954,0,0,1,2.142,78.163C4.539,89.244,14.358,97.68,25.689,97.68a23.1,23.1,0,1,0-18.3-37.2,21.183,21.183,0,0,1,18.3-9.721,23.816,23.816,0,1,1,0,47.632" transform="translate(0.769 18.223)" fill="#1a1a1a"/>
        <path id="Trazado_605670" data-name="Trazado 605670" d="M91.409,86.144c-.294-.073-.4-.273-.341-.463A52.891,52.891,0,0,1,94.42,77.3c1.738-3.1,1.392-5.869.183-6.9-1.617-1.386-6.94-5.159-8.89-4.383a1.244,1.244,0,0,0-.7,1.155c-.417,3.885,6.5,7.4,6.568,7.431-.624.488-7.749-3.13-7.277-7.508a1.9,1.9,0,0,1,1.15-1.741c2.806-1.106,9.554,4.445,9.62,4.5,1.7,1.457,1.692,4.735-.024,7.8a52.833,52.833,0,0,0-3.294,8.238.358.358,0,0,1-.342.253" transform="translate(30.253 23.408)" fill="#1a1a1a"/>
        <path id="Trazado_605671" data-name="Trazado 605671" d="M81.7,84.525a58.188,58.188,0,0,1-4.425-8.364c.678-.23,2.988,5.1,4.725,7.814-.169.533-.234.55-.3.55" transform="translate(27.739 27.337)" fill="#1a1a1a"/>
        <path id="Trazado_605672" data-name="Trazado 605672" d="M85.624,78.686a15.436,15.436,0,0,0-2.707-4.523c.6-.4,2.365,1.526,3.054,4.073-.284.446-.315.45-.347.45" transform="translate(29.765 26.603)" fill="#1a1a1a"/>
        <path id="Trazado_605673" data-name="Trazado 605673" d="M158.826,154.444c24.534-9.987,22.543-25.387,17.343-39.227-5.524-14.7-13.579-22.086-19.459-27.477-1-.92-1.942-1.779-2.791-2.607-7-6.811-17.974-10.88-29.352-10.88,11.559-.715,22.719,3.429,29.851,10.368.844.822,1.779,1.677,2.775,2.593,5.935,5.44,14.061,12.89,19.647,27.752,5.323,14.17,7.363,29.938-17.888,39.455a.363.363,0,0,1-.125.023" transform="translate(44.716 26.627)" fill="#1a1a1a"/>
        <path id="Trazado_605674" data-name="Trazado 605674" d="M94.157,84.373c9.415-8.924,20.8-10.665,28.651-10.665-7.731.715-18.936,2.426-28.419,10.58a.359.359,0,0,1-.232.086" transform="translate(33.8 26.459)" fill="#1a1a1a"/>
        <path id="Trazado_605675" data-name="Trazado 605675" d="M153.331,93.39c-.295-.076-.4-.276-.34-.465,3.518-11.165,15.015-16.684,21.678-16.9-6.436.921-17.582,6.277-21,17.112a.356.356,0,0,1-.341.25" transform="translate(54.914 27.292)" fill="#1a1a1a"/>
        <path id="Trazado_605676" data-name="Trazado 605676" d="M310.334,143.57H0c0-.715,310.334-.715,310.334-.715.357.554.2.715,0,.715" transform="translate(0 51.281)" fill="#1a1a1a"/>
        <path id="Trazado_605677" data-name="Trazado 605677" d="M165.312,104.662a.366.366,0,0,1-.355-.4,53.828,53.828,0,0,0-.538-12.6c.716-.049,1.9,7.039,1.248,12.679a.357.357,0,0,1-.355.317" transform="translate(59.022 32.906)" fill="#1a1a1a"/>
        <path id="Trazado_605678" data-name="Trazado 605678" d="M229.027,53.406a42.635,42.635,0,0,1-.681-4.414,7,7,0,0,1,1.038,4.048c-.352.366-.355.366-.357.366m-1.089-8.147c-.665-1.589-1.053-2.9-1.5-4.184a7.027,7.027,0,0,1,1.848,3.741c-.291.439-.319.443-.347.443M225.226,37.5c-.9-1.436-1.534-2.65-2.221-3.817A7.058,7.058,0,0,1,225.551,37c-.223.5-.273.508-.325.508m-4.161-7.08c-1.072-1.234-1.926-2.31-2.825-3.344a7.19,7.19,0,0,1,3.115,2.776c-.144.546-.217.568-.289.568m-5.379-6.206c-1.209-1.036-2.231-1.953-3.285-2.829a7.322,7.322,0,0,1,3.533,2.216c-.063.576-.156.613-.249.613m-6.314-5.255c-1.291-.841-2.437-1.6-3.609-2.328a7.5,7.5,0,0,1,3.817,1.68c.014.6-.1.648-.208.648M128.4,18.395c-.173-.677,1.012-1.612,3.219-2.982a28.856,28.856,0,0,1-3,2.9.358.358,0,0,1-.223.077m74-3.759c-1.337-.673-2.567-1.29-3.824-1.879a7.651,7.651,0,0,1,3.993,1.207c.082.6-.042.673-.169.673m-67.021-.617a8.748,8.748,0,0,1,3.535-2.52,9.518,9.518,0,0,1-3.366,2.476.362.362,0,0,1-.169.043m59.586-2.881c-1.156-.446-2.214-.855-3.272-1.243-.23-.084-.458-.166-.686-.247.472-.591.7-.508.934-.423,1.067.39,2.13.8,3.161,1.224.137.6.005.689-.136.689m-52.118-.576a8.419,8.419,0,0,1,3.753-2.1,9.427,9.427,0,0,1-3.623,2.074.341.341,0,0,1-.13.024M187.2,8.4c-1.408-.4-2.74-.746-4.058-1.048a7.5,7.5,0,0,1,4.158.347c.2.6.054.7-.1.7m-36.554-.417a8.086,8.086,0,0,1,3.933-1.653,9.45,9.45,0,0,1-3.84,1.639.371.371,0,0,1-.092.014m28.54-1.421c-1.4-.228-2.76-.413-4.112-.556a7.5,7.5,0,0,1,4.172-.154c.264.587.113.709-.06.709m-20.485-.23a7.787,7.787,0,0,1,4.059-1.174,9.477,9.477,0,0,1-4.008,1.17.344.344,0,0,1-.052,0m12.308-.624c-1.405-.06-2.77-.075-4.105-.045a7.368,7.368,0,0,1,4.12-.67c.333.564.175.715-.015.715" transform="translate(46.085 1.783)" fill="#1a1a1a"/>
        <path id="Trazado_605679" data-name="Trazado 605679" d="M22.078,61.5a12.015,12.015,0,0,1-.116-4.51,13.207,13.207,0,0,1,.47,3.786c-.349.724-.352.724-.355.724M23,53.328a.371.371,0,0,1-.351-.431c.288-1.332.644-2.68,1.057-4.01a10.232,10.232,0,0,1-.357,4.16.357.357,0,0,1-.349.281m2.437-7.848a11.518,11.518,0,0,1,1.4-4.259,10.08,10.08,0,0,1-1.068,4.038.36.36,0,0,1-.332.222m3.744-7.317a10.549,10.549,0,0,1,2.029-3.968,10,10,0,0,1-1.726,3.8.351.351,0,0,1-.3.169m4.9-6.6a9.822,9.822,0,0,1,2.573-3.6,9.834,9.834,0,0,1-2.3,3.475.354.354,0,0,1-.269.122m5.864-5.751a9.324,9.324,0,0,1,3.017-3.191,9.717,9.717,0,0,1-2.786,3.105.346.346,0,0,1-.231.086m6.617-4.869a8.914,8.914,0,0,1,3.353-2.779,9.585,9.585,0,0,1-3.16,2.723.357.357,0,0,1-.193.056m50.4-3.46c-.23-.083-1.46-1.012-3.707-2.124a9.82,9.82,0,0,1,3.925,1.483c0,.594-.11.641-.217.641m-43.233-.553a8.557,8.557,0,0,1,3.622-2.362A9.53,9.53,0,0,1,53.889,16.9a.359.359,0,0,1-.156.035m7.618-3.081a7.971,7.971,0,0,1,3.88-1.814,9.784,9.784,0,0,1-3.768,1.8.4.4,0,0,1-.111.018M89.629,13.8c-1.386-.473-2.7-.866-4.024-1.188a6.986,6.986,0,0,1,4.145.493c.164.6.027.694-.121.694M69.35,11.962a7.443,7.443,0,0,1,4.07-1.137.327.327,0,0,1,.378.334,34.221,34.221,0,0,1-4.394.8.366.366,0,0,1-.054,0m12.3-.109c-1.383-.186-2.751-.306-4.111-.357a7.053,7.053,0,0,1,4.158-.355c.283.582.129.712-.048.712" transform="translate(7.829 3.883)" fill="#1a1a1a"/>
        <path id="Trazado_605680" data-name="Trazado 605680" d="M116.335,58.781c.285-.043.476.079.559,1.106.091,1.148-.205,1.349-.462,1.337s-.515-.363-.5-1.182.034-1.2.408-1.261" transform="translate(41.615 21.098)" fill="#1a1a1a"/>
        <path id="Trazado_605681" data-name="Trazado 605681" d="M123.551,58.85c.287-.037.474.091.529,1.12.063,1.15-.241,1.343-.5,1.325s-.506-.376-.472-1.195.064-1.2.44-1.25" transform="translate(44.192 21.124)" fill="#1a1a1a"/>
        <path id="Trazado_605682" data-name="Trazado 605682" d="M178.222,59.719c.285-.045.477.077.56,1.106.09,1.146-.207,1.348-.463,1.337s-.515-.364-.5-1.184.033-1.2.406-1.26" transform="translate(63.831 21.435)" fill="#1a1a1a"/>
        <path id="Trazado_605683" data-name="Trazado 605683" d="M184.378,59.787c.287-.037.474.09.529,1.12.063,1.148-.241,1.343-.5,1.325s-.5-.376-.472-1.195.064-1.2.44-1.25" transform="translate(66.028 21.46)" fill="#1a1a1a"/>
        <path id="Trazado_605684" data-name="Trazado 605684" d="M112.694,66.456a4.136,4.136,0,0,1-4.076-4.338,4.086,4.086,0,0,1,5.587-3.536,1.413,1.413,0,0,1-1.3.432,3.29,3.29,0,0,0-2.439.834,3.368,3.368,0,0,0,2.017,5.887,3.383,3.383,0,0,0,1.761-.372,1.38,1.38,0,0,1-1.548,1.093" transform="translate(38.988 20.926)" fill="#1a1a1a"/>
        <path id="Trazado_605685" data-name="Trazado 605685" d="M111.137,64.051c-.219-.64,1.922-2.293,1.922-2.293l-2.4-1.773c.425-.573,3.2,1.48,3.2,1.48.005.571-2.509,2.511-2.509,2.511a.35.35,0,0,1-.219.075" transform="translate(39.724 21.497)" fill="#1a1a1a"/>
        <path id="Trazado_605686" data-name="Trazado 605686" d="M128.742,66.457A4.086,4.086,0,0,1,126.864,66a5.282,5.282,0,0,1,2.091-.264,3.368,3.368,0,0,0,2.017-5.887,3.3,3.3,0,0,0-2.439-.834,3.34,3.34,0,0,0-1.1.26c.145-.838.6-.946,1.061-.973a4,4,0,0,1,2.954,1.012A4.081,4.081,0,0,1,129,66.449c-.087,0-.174.008-.258.008" transform="translate(45.541 20.925)" fill="#1a1a1a"/>
        <path id="Trazado_605687" data-name="Trazado 605687" d="M129.573,64.176c-.219-.075-2.732-2.015-2.732-2.015,0-.571,2.782-2.624,2.782-2.624.425.573-1.972,2.347-1.972,2.347l2.14,1.653c-.005.593-.111.64-.219.64" transform="translate(45.533 21.372)" fill="#1a1a1a"/>
        <path id="Trazado_605688" data-name="Trazado 605688" d="M172.112,76.291c-.357-.375.16-10.668.16-10.668.715.035.2,10.328.2,10.328a.359.359,0,0,1-.356.34" transform="translate(61.739 23.557)" fill="#1a1a1a"/>
        <path id="Trazado_605689" data-name="Trazado 605689" d="M186.549,77.809c-.31,0-.617-.005-.92-.012-.262,0-.523-.01-.783-.011a21.509,21.509,0,0,1-4.678-.466c-1.292-.292-2.757-.62-3.628-1.913a8.438,8.438,0,0,1-1.129-4.324,16.958,16.958,0,0,1,.063-2.525c.215-1.757.51-4.377.568-4.886a3.959,3.959,0,0,0-6.728-1.029,3.958,3.958,0,0,0,5.466,5.655c-1.3,1.9-3.686,1.856-5.373.467a4.672,4.672,0,1,1,7.334-5.267c.022.166-.318,3.188-.556,5.141a16.141,16.141,0,0,0-.058,2.411,7.832,7.832,0,0,0,1.006,3.957c.713,1.057,1.975,1.34,3.194,1.614a20.727,20.727,0,0,0,4.527.45c.261,0,.525.007.792.011,2.082.041,4.232.082,5.449-1.772,1.147-1.749,1.155-4.044,1.162-6.265,0-.489,0-.969.016-1.434.046-1.487-.2-11.456-.2-11.557.726.393.964,10.073.916,11.58-.014.457-.015.931-.016,1.413-.008,2.216-.015,4.727-1.279,6.654-1.234,1.881-3.226,2.108-5.142,2.108" transform="translate(60.199 20.122)" fill="#1a1a1a"/>
        <path id="Trazado_605690" data-name="Trazado 605690" d="M186.615,59.208a2.571,2.571,0,0,0-2.9-.959c2.359-1.362,3.218.432,3.228.451-.223.5-.272.508-.323.508" transform="translate(65.947 20.727)" fill="#1a1a1a"/>
        <path id="Trazado_605691" data-name="Trazado 605691" d="M176.782,59.53c1.788-3.222,4.033-1.832,4.057-1.818-.454.56-2.115-.44-3.775,1.681a.356.356,0,0,1-.281.137" transform="translate(63.46 20.606)" fill="#1a1a1a"/>
        <path id="Trazado_605692" data-name="Trazado 605692" d="M182.356,74.009C182,73.652,182,71.786,182,71.786c.715,0,.715,1.866.715,1.866a.358.358,0,0,1-.357.357" transform="translate(65.333 25.769)" fill="#1a1a1a"/>
        <path id="Trazado_605693" data-name="Trazado 605693" d="M169.507,66.143c-.378-.121-1.617-.906-2.317-7.11-.4-3.575,1.6-6.134,3.783-6.814a19.354,19.354,0,0,1,6.789-.552c2.124-4.069,4.865-5.6,6.807-6.172a8.39,8.39,0,0,1,6.679.834,7.815,7.815,0,0,1,3.93,4.8,8.249,8.249,0,0,1-.655,5.356,1.924,1.924,0,0,1,1.181,1.11,5.773,5.773,0,0,1-2.756,7.352c2.665-2.318,2.905-5.449,2.117-7.033-.11-.22-.5-.925-1.014-.7-.432-.54,1.128-3.13.432-5.918a7.144,7.144,0,0,0-3.6-4.35,7.68,7.68,0,0,0-6.114-.765c-1.843.54-4.46,2.025-6.485,6.028-.4.19-4.157-.223-7.1.693-1.54.48-3.684,2.487-3.283,6.053.65,5.765,1.749,6.5,1.761,6.511.133.6-.008.678-.155.678" transform="translate(59.998 16.207)" fill="#1a1a1a"/>
        <path id="Trazado_605694" data-name="Trazado 605694" d="M181.5,67.529c.766-.715,2.119-.863,2.488-1.258a3.682,3.682,0,0,0-.37-1.544c-.556-1.457-1.392-3.658-.87-5.772a22.731,22.731,0,0,0,1.537,5.517,6.679,6.679,0,0,1,.482,1.591.918.918,0,0,1-.258.7c-.7.747-2.775.769-3.01.769" transform="translate(65.154 21.163)" fill="#1a1a1a"/>
        <path id="Trazado_605695" data-name="Trazado 605695" d="M180.783,70.793a4.1,4.1,0,0,1-2.441-.814,4.162,4.162,0,0,1-1.613-3.336,2.5,2.5,0,0,1,.722-2.009,1.4,1.4,0,0,1,1.383-.232,2.024,2.024,0,0,1,1.15,1.574c.17.951.258,1.018.454,1.161s.28.209,1.242.09a2.03,2.03,0,0,1,1.843.633,1.389,1.389,0,0,1,.188,1.39,2.614,2.614,0,0,1-1.761,1.371,4,4,0,0,1-1.166.173m-2.437-5.767a1.565,1.565,0,0,0-.9,1.61,3.446,3.446,0,0,0,1.322,2.767,3.345,3.345,0,0,0,2.976.534,1.991,1.991,0,0,0,1.3-.932.687.687,0,0,0-.077-.7,1.324,1.324,0,0,0-1.195-.368c-1.136.14-1.385.05-1.756-.226s-.531-.482-.733-1.608a1.328,1.328,0,0,0-.707-1.031.6.6,0,0,0-.227-.045" transform="translate(63.441 23.086)" fill="#1a1a1a"/>
        <path id="Trazado_605696" data-name="Trazado 605696" d="M178.872,69.942c1.018-2.911-1.735-4.509-1.855-4.576a2.864,2.864,0,0,1,2.168,4.392.36.36,0,0,1-.313.183" transform="translate(63.544 23.465)" fill="#1a1a1a"/>
        <path id="Trazado_605697" data-name="Trazado 605697" d="M170.132,65.969c-.158-.678,2.752-2.119,2.752-2.119l-2.7-2.761c.512-.5,3.559,2.612,3.559,2.612-.1.571-3.449,2.231-3.449,2.231a.349.349,0,0,1-.159.037" transform="translate(61.071 21.91)" fill="#1a1a1a"/>
        <path id="Trazado_605698" data-name="Trazado 605698" d="M176.934,52.717a26.135,26.135,0,0,1-2.032-2.312c.556-.448,2.31,1.73,2.31,1.73-.121.556-.2.582-.279.582" transform="translate(62.785 18.072)" fill="#1a1a1a"/>
        <path id="Trazado_605699" data-name="Trazado 605699" d="M194.784,81.109c-.357-.357-.357-12.7-.357-12.7v-12.6a6.7,6.7,0,0,1,6.69-6.692h27.965a6.7,6.7,0,0,1,6.692,6.692V67.756a6.7,6.7,0,0,1-6.692,6.693c3.3-.715,5.977-3.4,5.977-6.693V55.812a5.984,5.984,0,0,0-5.977-5.977H201.117a5.983,5.983,0,0,0-5.975,5.977V67.756a5.848,5.848,0,0,0,.035.64c-.035.2-.035,11.7-.035,11.7l9.834-6.307c.193-.056,15.972-.056,15.972-.056,0,.715-15.676.715-15.676.715l-10.294,6.6a.355.355,0,0,1-.193.057" transform="translate(69.794 17.633)" fill="#1a1a1a"/>
        <path id="Trazado_605700" data-name="Trazado 605700" d="M220.465,56.4h-6.523c0-.715,6.523-.715,6.523-.715.357.554.2.715,0,.715" transform="translate(76.8 19.989)" fill="#1a1a1a"/>
        <path id="Trazado_605701" data-name="Trazado 605701" d="M210.946,56.4H200.4c0-.715,10.542-.715,10.542-.715.357.554.2.715,0,.715" transform="translate(71.94 19.989)" fill="#1a1a1a"/>
        <path id="Trazado_605702" data-name="Trazado 605702" d="M225.325,61.342H200.4c0-.715,24.921-.715,24.921-.715.357.554.2.715,0,.715" transform="translate(71.94 21.763)" fill="#1a1a1a"/>
        <path id="Trazado_605703" data-name="Trazado 605703" d="M97.359,132.6c-12.7,0-15.65-16.949-16.637-22.631-1.447-8.309-4.669-29.026-4.7-29.234.738.1,3.961,20.809,5.4,29.112.991,5.691,3.968,22.98,17.046,21.994,5.816-.454,11.99-5.024,11.873-16.488.836,11.948-5.679,16.721-11.819,17.2-.4.03-.787.046-1.166.046" transform="translate(27.289 28.982)" fill="#1a1a1a"/>
        <path id="Trazado_605704" data-name="Trazado 605704" d="M101.1,111.654c-.806-5.31-1.735-9.935-2.435-12.937a181.094,181.094,0,0,0-6.353-21.258c.7-.163,4.267,9.159,7.05,21.1a96.044,96.044,0,0,1,2.1,12.712c-.336.389-.347.389-.357.389" transform="translate(33.137 27.805)" fill="#1a1a1a"/>
        <path id="Trazado_605705" data-name="Trazado 605705" d="M122.577,74.952a10.327,10.327,0,0,1-6.4-1.968c-1.576-1.253-2.62-3.264-3.191-6.151a79.822,79.822,0,0,1-.427-9.889c.679,2.123.779,7.98,1.129,9.751.535,2.714,1.495,4.588,2.933,5.729a9.629,9.629,0,0,0,5.96,1.813c.357.556.2.715,0,.715" transform="translate(40.402 20.441)" fill="#1a1a1a"/>
        <path id="Trazado_605706" data-name="Trazado 605706" d="M119.928,74.569c1.68-.715,4.076-1.029,5.96-2.528,1.441-1.143,2.4-3.017,2.935-5.729a58.791,58.791,0,0,0,.359-8.3c.742,1.676.73,6.48.344,8.441-.572,2.885-1.614,4.9-3.192,6.151a10.328,10.328,0,0,1-6.406,1.968" transform="translate(43.051 20.824)" fill="#1a1a1a"/>
        <path id="Trazado_605707" data-name="Trazado 605707" d="M131.541,60.625c-6.794,0-13.769-6.37-15.555-8.12-.451,1.431-1.7,5.111-2.973,6.552.925-2.124,2.449-7.272,2.464-7.325.682-.06,8.67,8.18,16.071,8.18.31.711.151.713-.007.713" transform="translate(40.569 18.57)" fill="#1a1a1a"/>
        <path id="Trazado_605708" data-name="Trazado 605708" d="M121.932,83.145c-2.882,0-5.536-1.2-6.762-3.048a2.927,2.927,0,0,1-.4-2.8c.909-2.146,1.106-8.4,1.109-8.466.707.285.511,6.476-.453,8.746a2.241,2.241,0,0,0,.342,2.125,7.474,7.474,0,0,0,6.167,2.727c2.884,0,5.1-.843,6.068-2.309a2.666,2.666,0,0,0,.283-2.544c-.962-2.271-1.159-8.461-1.166-8.723.716.041.915,6.3,1.824,8.443a3.361,3.361,0,0,1-.345,3.217c-.65.983-2.381,2.631-6.663,2.631" transform="translate(41.127 24.709)" fill="#1a1a1a"/>
        <path id="Trazado_605709" data-name="Trazado 605709" d="M111.8,63.379c-.434-.552-2.559-7.589-.387-11.281a4.235,4.235,0,0,1,2.748-2.038,9.776,9.776,0,0,1,5.906-3.691c4.919-.863,12.7.356,14.6,5.767.853,2.428.856,5.2.015,10.595.116-5.373.12-8.055-.69-10.358-1.765-5.019-9.139-6.119-13.806-5.3a9.206,9.206,0,0,0-5.523,3.506,4.1,4.1,0,0,0-2.639,1.882c-2.011,3.418.092,10.385.113,10.456-.272.457-.307.462-.341.462" transform="translate(39.648 16.555)" fill="#1a1a1a"/>
        <path id="Trazado_605710" data-name="Trazado 605710" d="M144.6,149.267c-1.171-1.926-3.335-12.246-4.955-22.284,2.434,10.612,4.546,20.285,5.277,21.769-.215.5-.269.515-.322.515" transform="translate(50.13 45.584)" fill="#1a1a1a"/>
        <path id="Trazado_605711" data-name="Trazado 605711" d="M138.942,125.651c-.974-6.944-.961-11.407-.308-14.367,2.3-10.433-1.394-20.828-1.432-20.931.711-.136,4.472,10.452,2.13,21.086-.635,2.884-.646,7.277-.033,13.822-.334.39-.344.39-.356.39" transform="translate(49.252 32.434)" fill="#1a1a1a"/>
        <path id="Trazado_605712" data-name="Trazado 605712" d="M96.678,162.481c1.481-4.169,8.45-40.549,6.152-50.978-2.342-10.634,1.42-21.222,1.458-21.328.635.347-3.058,10.748-.761,21.173,2.32,10.529-4.712,47.246-6.527,50.933a.36.36,0,0,1-.322.2" transform="translate(34.705 32.37)" fill="#1a1a1a"/>
        <path id="Trazado_605713" data-name="Trazado 605713" d="M82.161,84.294c-3.276,0-5.857-.628-6.129-2.125-.212-1.176.917-2.336,3.359-3.449-1.75,1.585-2.8,2.533-2.657,3.321.25,1.383,4.959,2.123,11.315.976a29.147,29.147,0,0,0,7.6-2.351c1.784-.9,2.776-1.839,2.653-2.524-.077-.427-.379-.906-2.025-1.22,1.78-.389,2.558.148,2.727,1.091.192,1.063-.858,2.2-3.033,3.291a29.961,29.961,0,0,1-7.8,2.416,34.749,34.749,0,0,1-6.016.573" transform="translate(27.284 27.567)" fill="#1a1a1a"/>
        <path id="Trazado_605714" data-name="Trazado 605714" d="M151.389,139.014c-1.246,0-2.782-1.644-3.877-3.313,2.056,1.831,3.438,2.776,4.063,2.568,1.329-.458,1.347-5.224-.754-11.331s-5.057-9.844-6.378-9.4c2.029-1.455,5.213,3.816,7.053,9.166s2.577,11.46.31,12.24a1.278,1.278,0,0,1-.417.068" transform="translate(51.851 42.106)" fill="#1a1a1a"/>
        <path id="Trazado_605715" data-name="Trazado 605715" d="M77.644,90.2c-.336-.232-13.829-36.472-13.829-36.472.209-.459,28.778-11.1,28.778-11.1.461.212,13.955,36.449,13.955,36.449-.212.461-3.105,1.538-3.105,1.538-.249-.671,2.309-1.624,2.309-1.624L92.507,43.422,64.61,53.809l13.245,35.57,19.652-7.319c.25.67-19.739,8.114-19.739,8.114a.382.382,0,0,1-.124.022" transform="translate(22.908 15.302)" fill="#1a1a1a"/>
        <path id="Trazado_605716" data-name="Trazado 605716" d="M114.409,58.635c.306-2.245,2.753-2.752,4.2-2.427-1.348.431-3.391.879-3.869,2.192a.356.356,0,0,1-.336.235" transform="translate(41.07 20.145)" fill="#1a1a1a"/>
        <path id="Trazado_605717" data-name="Trazado 605717" d="M120.707,67.4a5.469,5.469,0,0,1-1.56-.232c.241-.67,1.969-.122,3.089-.887a2.6,2.6,0,0,0,.98-2.117,1.936,1.936,0,0,1-.58,2.711,3.428,3.428,0,0,1-1.928.526" transform="translate(42.771 23.031)" fill="#1a1a1a"/>
        <path id="Trazado_605718" data-name="Trazado 605718" d="M107.485,78.959a6.732,6.732,0,0,1-2.835-7.847,8.647,8.647,0,0,1,8.162-5.746c.79.052.795.03.852-.158a2.183,2.183,0,0,0,.015-.8c.742.269.779.651.669,1.007-.232.754-.83.709-1.23.678a8.2,8.2,0,0,0-4.478,1.163,7.882,7.882,0,0,0-3.315,4.082,6.073,6.073,0,0,0,2.358,6.962c.029.6-.083.655-.2.655" transform="translate(37.44 23.122)" fill="#1a1a1a"/>
        <path id="Trazado_605719" data-name="Trazado 605719" d="M134.7,78.976c2.059-2.177,3.026-5.038,2.158-7.617a7.877,7.877,0,0,0-3.312-4.082,8.055,8.055,0,0,0-4.175-1.178c-.707.048-1.3.094-1.537-.663a2.819,2.819,0,0,1-.042-1.074c.686.351.658.644.727.864.058.189.064.209.491.175a8.884,8.884,0,0,1,4.911,1.265,8.6,8.6,0,0,1,3.612,4.463,6.792,6.792,0,0,1-2.634,7.787.366.366,0,0,1-.2.06" transform="translate(45.862 23.104)" fill="#1a1a1a"/>
        <path id="Trazado_605720" data-name="Trazado 605720" d="M164.949,112.927a5.848,5.848,0,0,0,3.521-4.255c.775.228.5,1.271-.17,2.226a4.79,4.79,0,0,1-3.3,2.025.327.327,0,0,1-.05,0" transform="translate(59.212 39.01)" fill="#1a1a1a"/>
        <path id="Trazado_605721" data-name="Trazado 605721" d="M163.3,107.6c-.275-.054-.393-.249-.347-.44a8.725,8.725,0,0,1,11.164-6.3c-.313.643-3.247-.576-6.613,1.333a7.457,7.457,0,0,0-3.858,5.137.354.354,0,0,1-.347.275" transform="translate(58.492 36.038)" fill="#1a1a1a"/>
        <path id="Trazado_605722" data-name="Trazado 605722" d="M162.018,103.291c1.931-3.207,5.594-2.04,5.751-1.99-.254.67-3.59-.379-5.477,1.863a.361.361,0,0,1-.275.126" transform="translate(58.16 36.276)" fill="#1a1a1a"/>
        <path id="Trazado_605723" data-name="Trazado 605723" d="M131.448,125.892a3.172,3.172,0,0,1-.809-3.234c.322-.974,1.3-2.314,4.137-3.169,5.108-1.54,11.61.144,11.884.216-.247.671-6.768-1.015-11.676.467-2.013.606-3.281,1.545-3.667,2.711a2.738,2.738,0,0,0,.417,2.439c-.139.548-.212.569-.287.569" transform="translate(46.84 42.661)" fill="#1a1a1a"/>
        <path id="Trazado_605724" data-name="Trazado 605724" d="M132.315,122.054a2.44,2.44,0,0,1-.867-2.785c.584-1.61,2.676-2.833,5.458-3.192a22.006,22.006,0,0,1,6.312-.083,24.308,24.308,0,0,1,6.993,2.363c.923.454,1.434.7,2.051,1.074a2.532,2.532,0,0,1-2.089-.295A24.274,24.274,0,0,0,143.1,116.7a21.209,21.209,0,0,0-6.1.084c-2.479.321-4.392,1.39-4.879,2.729a1.824,1.824,0,0,0,.458,1.941c-.088.568-.175.6-.262.6" transform="translate(47.132 41.569)" fill="#1a1a1a"/>
        <path id="Trazado_605725" data-name="Trazado 605725" d="M152.136,134.172a9.325,9.325,0,0,1-2.889-.431A7.723,7.723,0,0,1,144.078,129a7.454,7.454,0,0,0-3.554-.077c-.351.048-.7.094-1.048.126a33.449,33.449,0,0,1-5.435.091,3.946,3.946,0,0,1-3.2-1.326,2.909,2.909,0,0,1,.348-3.484,5.863,5.863,0,0,1,3.03-1.744,19.427,19.427,0,0,1,13.3.357,24.679,24.679,0,0,0-13.058.315,5.292,5.292,0,0,0-2.714,1.515,2.221,2.221,0,0,0-.318,2.634,3.369,3.369,0,0,0,2.654,1.021,33.58,33.58,0,0,0,5.319-.088c.338-.035.681-.08,1.022-.125a7.76,7.76,0,0,1,4.073.183,7.707,7.707,0,0,0,4.964,4.664,11.29,11.29,0,0,0,8.118-.915,7.506,7.506,0,0,1-5.449,2.025" transform="translate(46.815 43.646)" fill="#1a1a1a"/>
        <path id="Trazado_605726" data-name="Trazado 605726" d="M146.137,125.213c3.244-3.119,5.074-5.609,5.387-8.261.578-4.883-3.868-10.006-9.494-16.5-1.112-1.282-2.265-2.609-3.426-3.994a14.278,14.278,0,0,1,3.965,3.525c5.743,6.622,10.281,11.852,9.666,17.048-.34,2.865-2.265,5.517-5.891,8.109a.346.346,0,0,1-.208.068" transform="translate(49.755 34.628)" fill="#1a1a1a"/>
        <path id="Trazado_605727" data-name="Trazado 605727" d="M82.161,84.294c-3.276,0-5.857-.628-6.129-2.125-.212-1.176.917-2.336,3.359-3.449-1.75,1.585-2.8,2.533-2.657,3.321.25,1.383,4.959,2.123,11.315.976a29.147,29.147,0,0,0,7.6-2.351c1.784-.9,2.776-1.839,2.653-2.524-.077-.427-.379-.906-2.025-1.22,1.78-.389,2.558.148,2.727,1.091.192,1.063-.858,2.2-3.033,3.291a29.961,29.961,0,0,1-7.8,2.416,34.749,34.749,0,0,1-6.016.573" transform="translate(27.284 27.567)" fill="#1a1a1a"/>
        <path id="Trazado_605728" data-name="Trazado 605728" d="M179.818,103.106c-1.817-2.693-3.734-3.786-6.338-3.647a5.324,5.324,0,0,0-4.184,2.135c.734-2.017,2.138-2.732,4.143-2.847,2.884-.167,5.049,1.083,6.685,3.819-.181.525-.243.541-.306.541" transform="translate(60.772 35.442)" fill="#1a1a1a"/>
        <path id="Trazado_605729" data-name="Trazado 605729" d="M163.652,135.347q-.885,0-1.748-.056c13.617.17,31.236-9.73,42.267-18.521A35.415,35.415,0,0,0,201,107.1a22.711,22.711,0,0,0-8.556-8.674l-13.965,7.133c-.325-.639,13.807-7.856,13.807-7.856a20.993,20.993,0,0,1,9.344,9.062,36.339,36.339,0,0,1,3.282,10.1c-10.788,8.865-27.674,18.481-41.26,18.481" transform="translate(58.119 35.073)" fill="#1a1a1a"/>
        <path id="Trazado_605730" data-name="Trazado 605730" d="M197.561,134.079a109.469,109.469,0,0,1-12.849-.813c.326-.677,23.411,2.271,29.179-3.464,7.344-7.3,3.472-14.416-1.011-22.651l-.308-.569c-4.648-8.549-15.529-28.574-28.6-30.577C197.5,77.354,208.5,97.6,213.2,106.239l.311.571c4.426,8.133,8.61,15.818.886,23.5-3.022,3-10.26,3.77-16.834,3.77" transform="translate(66.04 27.284)" fill="#1a1a1a"/>
        <path id="Trazado_605731" data-name="Trazado 605731" d="M118.474,66.309a3.4,3.4,0,0,1-1.5-2.274A1.39,1.39,0,0,1,117.382,63a1.542,1.542,0,0,1,1.128-.492,2.3,2.3,0,0,1,1.215.412c.22-1.966.371-4.728-.026-5.333,1.314.7.775,5.171.66,6.057-.781.03-1.337-.421-1.85-.421a.842.842,0,0,0-.618.279,2.474,2.474,0,0,0,.821,2.185c-.043.583-.14.622-.238.622" transform="translate(41.99 20.672)" fill="#1a1a1a"/>
        <path id="Trazado_605732" data-name="Trazado 605732" d="M114.662,51.4a13.266,13.266,0,0,1-1.443-1.776c.582-.413,1.734,1.212,1.734,1.212-.148.544-.219.564-.291.564" transform="translate(40.643 17.788)" fill="#1a1a1a"/>
        <path id="Trazado_605733" data-name="Trazado 605733" d="M182.279,68.928c-1.078-.867-2.969-1.061-4.35-1.2a10.728,10.728,0,0,1-1.379-.194c-1.189-.311-1.547-3.671-1.628-4.7l-.291-1.139a14.471,14.471,0,0,0,3.479-8.253c.8.01,4.485,4.884,11.748,3.194A10.146,10.146,0,0,1,178.745,54.3a13.87,13.87,0,0,1-3.374,7.406l.254,1.01c.173,2.11.685,4.009,1.106,4.119a10.973,10.973,0,0,0,1.272.173c1.481.154,3.509.363,4.519,1.3-.05.582-.145.621-.242.621" transform="translate(62.688 19.184)" fill="#1a1a1a"/>
        <path id="Trazado_605734" data-name="Trazado 605734" d="M186.75,65.841A4.046,4.046,0,0,0,184,65.495c-.11-.711,1.628-1.155,2.942-.313.039.6-.077.659-.194.659" transform="translate(66.05 23.234)" fill="#1a1a1a"/>
        <path id="Trazado_605735" data-name="Trazado 605735" d="M199.641,152.251c-3.929-10.956-3.7-33.563-3.7-33.79.712.235.485,22.721,4.036,33.318-.262.467-.3.472-.338.472" transform="translate(70.337 42.524)" fill="#1a1a1a"/>
        <path id="Trazado_605736" data-name="Trazado 605736" d="M153.423,147.58a122.091,122.091,0,0,1-.357-16.109c.711.128.289,9.734.713,15.726-.34.383-.349.383-.356.383" transform="translate(54.905 47.195)" fill="#1a1a1a"/>
        <path id="Trazado_605737" data-name="Trazado 605737" d="M177.48,96.295c-.325-.208-8.772-18.636-8.772-18.636a63.132,63.132,0,0,1,4.145-4.767c.523,0,11.036,11.308,11.036,11.308l2.893-11.035c.64-.109,3.517,4.146,3.517,4.146.063.2.063,15.848.063,15.848-.648.209-6.265-7.59-6.265-7.59l-6.311,10.551a.357.357,0,0,1-.306.174m-8.023-18.716,8.066,17.592,6.1-10.2L173.115,73.66Zm15,7.269,5.187,7.2V77.62l-2.373-3.51Z" transform="translate(60.562 26.166)" fill="#1a1a1a"/>
        <path id="Trazado_605738" data-name="Trazado 605738" d="M181.212,102.724c-2.6-7.631-5.307-14.311-5.333-14.377.689-.2,3.4,6.507,5.674,13.915-.272.458-.307.462-.341.462" transform="translate(63.136 31.713)" fill="#1a1a1a"/>
        <path id="Trazado_605739" data-name="Trazado 605739" d="M185.171,101.506a133.233,133.233,0,0,0-1.42-14.165c.712-.08,1.582,4.748,1.778,13.8-.352.366-.355.366-.357.366" transform="translate(65.962 31.353)" fill="#1a1a1a"/>
        <path id="Trazado_605740" data-name="Trazado 605740" d="M69.824,57.449c-.124-.693,19.153-7.873,19.153-7.873.249.671-19.028,7.851-19.028,7.851a.4.4,0,0,1-.125.022" transform="translate(25.065 17.796)" fill="#1a1a1a"/>
        <path id="Trazado_605741" data-name="Trazado 605741" d="M71.926,63.538c-.124-.693,19.155-7.871,19.155-7.871.25.67-19.03,7.849-19.03,7.849a.4.4,0,0,1-.125.022" transform="translate(25.819 19.983)" fill="#1a1a1a"/>
        <path id="Trazado_605742" data-name="Trazado 605742" d="M74.03,69.63c-.124-.693,19.155-7.871,19.155-7.871.249.671-19.03,7.849-19.03,7.849a.356.356,0,0,1-.125.022" transform="translate(26.575 22.17)" fill="#1a1a1a"/>
        <path id="Trazado_605743" data-name="Trazado 605743" d="M172.359,99.58c.06-.718,7.636-1.037,14.246-1.181-6.587.858-14.155,1.178-14.231,1.181Z" transform="translate(61.872 35.323)" fill="#1a1a1a"/>
        <path id="Trazado_605744" data-name="Trazado 605744" d="M210.669,110.621c-1.96-5.6-4.267-8.7-7.814-10.305l-.692-.111c-6.311-1.055-11.9,4.372-11.955,4.426-.266-.745,5.392-6.258,12.072-5.131l.735.118c3.869,1.719,6.306,4.962,7.993,10.542-.273.458-.307.462-.34.462" transform="translate(68.277 35.663)" fill="#1a1a1a"/>
        <path id="Trazado_605745" data-name="Trazado 605745" d="M203.2,101.544c-.295-.076-.4-.276-.341-.463.03-.1.709-2.552-3.12-4.218-3.974-1.729-8.822,1.427-8.87,1.458-.183-.737,4.826-4,9.155-2.115,4.443,1.934,3.528,5.055,3.517,5.087a.359.359,0,0,1-.341.251" transform="translate(68.516 34.328)" fill="#1a1a1a"/>
        <path id="Trazado_605746" data-name="Trazado 605746" d="M184.532,99.7c-.179-.7,2.1-3.4,7.341-5.3a7.536,7.536,0,0,1,8.543,2.043c-.681.289-3.414-3.151-8.3-1.373a18.054,18.054,0,0,0-7.311,4.5.357.357,0,0,1-.275.129" transform="translate(66.238 33.69)" fill="#1a1a1a"/>
        <path id="Trazado_605747" data-name="Trazado 605747" d="M120,154.4c-.357-.357-.357-72.352-.357-72.352.715,0,.715,71.994.715,71.994a.358.358,0,0,1-.357.357" transform="translate(42.947 29.455)" fill="#1a1a1a"/>
        <path id="Trazado_605748" data-name="Trazado 605748" d="M124.313,91.033a1.758,1.758,0,1,1,1.757-1.757,1.76,1.76,0,0,1-1.757,1.757m0-2.8a1.043,1.043,0,1,0,1.042,1.044,1.044,1.044,0,0,0-1.042-1.044" transform="translate(43.994 31.416)" fill="#1a1a1a"/>
        <path id="Trazado_605749" data-name="Trazado 605749" d="M124.313,104.242a1.756,1.756,0,1,1,1.757-1.756,1.759,1.759,0,0,1-1.757,1.756m0-2.8a1.042,1.042,0,1,0,1.042,1.042,1.043,1.043,0,0,0-1.042-1.042" transform="translate(43.994 36.159)" fill="#1a1a1a"/>
        <path id="Trazado_605750" data-name="Trazado 605750" d="M124.313,117.459a1.758,1.758,0,1,1,1.757-1.757,1.76,1.76,0,0,1-1.757,1.757m0-2.8a1.043,1.043,0,1,0,1.042,1.044,1.044,1.044,0,0,0-1.042-1.044" transform="translate(43.994 40.903)" fill="#1a1a1a"/>
        <path id="Trazado_605751" data-name="Trazado 605751" d="M124.313,117.459a1.758,1.758,0,1,1,1.757-1.757,1.76,1.76,0,0,1-1.757,1.757m0-2.8a1.043,1.043,0,1,0,1.042,1.044,1.044,1.044,0,0,0-1.042-1.044" transform="translate(43.994 40.903)" fill="#1a1a1a"/>
        <path id="Trazado_605752" data-name="Trazado 605752" d="M124.313,130.667a1.757,1.757,0,1,1,1.757-1.757,1.76,1.76,0,0,1-1.757,1.757m0-2.8a1.042,1.042,0,1,0,1.042,1.042,1.043,1.043,0,0,0-1.042-1.042" transform="translate(43.994 45.645)" fill="#1a1a1a"/>
        <path id="Trazado_605753" data-name="Trazado 605753" d="M180.477,91.712c-.291-.147-3.543-4.654-3.543-4.654.58-.42,3.713,3.922,3.713,3.922l3.566-.338.4-4.982c.713.058.287,5.338.287,5.338-.322.329-4.391.713-4.391.713h-.034" transform="translate(63.515 30.749)" fill="#1a1a1a"/>
        <path id="Trazado_605754" data-name="Trazado 605754" d="M179.143,98.972a.361.361,0,0,1-.356-.385l.669-8.757c.712.054.043,8.812.043,8.812a.357.357,0,0,1-.356.33" transform="translate(64.18 32.247)" fill="#1a1a1a"/>
        <path id="Trazado_605755" data-name="Trazado 605755" d="M185.521,95.708c-.321-.2-3.222-6.022-3.222-6.022.64-.318,3.542,5.505,3.542,5.505-.212.5-.266.516-.319.516" transform="translate(65.441 32.191)" fill="#1a1a1a"/>
        <path id="Trazado_605756" data-name="Trazado 605756" d="M48.432,74.687a3.091,3.091,0,0,1-2.409-1.517,9.363,9.363,0,0,1-.95-8.1A2.951,2.951,0,0,1,47.307,63c1.9-.207,3.672,2.17,4.057,5.443a7.946,7.946,0,0,1-.088,2.91,6.977,6.977,0,0,1-.621-2.825c-.328-2.78-1.831-5.021-3.264-4.816-.671.079-1.258.659-1.655,1.636a8.65,8.65,0,0,0,.871,7.412,2.284,2.284,0,0,0,1.988,1.208,1.449,1.449,0,0,0,1.173-.762c.147,1.074-.341,1.386-1.091,1.473a1.8,1.8,0,0,1-.243.014" transform="translate(15.992 22.609)" fill="#1a1a1a"/>
        <path id="Trazado_605757" data-name="Trazado 605757" d="M54.71,73.566c-1.8,0-3.445-2.324-3.815-5.458a8.649,8.649,0,0,1,.453-4.158,2.581,2.581,0,0,1,4.888-.573,8.6,8.6,0,0,1,1.4,3.94c.385,3.274-.8,6.012-2.685,6.235a2.127,2.127,0,0,1-.245.015m-.886-10.991a2.274,2.274,0,0,0-1.813,1.646,7.9,7.9,0,0,0-.4,3.8C51.933,70.8,53.422,73,54.869,72.84s2.388-2.662,2.06-5.44a7.875,7.875,0,0,0-1.275-3.608,2.425,2.425,0,0,0-1.831-1.218" transform="translate(18.245 22.206)" fill="#1a1a1a"/>
        <path id="Trazado_605758" data-name="Trazado 605758" d="M49.312,67.793c.037-1.132,1.117-2.026,2.727-1.14a2.45,2.45,0,0,0-2.419.965.358.358,0,0,1-.308.175" transform="translate(17.702 23.798)" fill="#1a1a1a"/>
        <path id="Trazado_605759" data-name="Trazado 605759" d="M83.33,132.2c-.391-.018-44.879-4.008-44.879-4.008a4.239,4.239,0,0,1-3.442-2.4l-5.221-11.05c.646-.3,5.868,10.745,5.868,10.745a3.517,3.517,0,0,0,2.859,2L83,131.474a3.51,3.51,0,0,0,3.487-5l-7.025-14.86c.647-.306,7.67,14.556,7.67,14.556a4.226,4.226,0,0,1-3.805,6.03" transform="translate(10.693 40.066)" fill="#1a1a1a"/>
        <path id="Trazado_605760" data-name="Trazado 605760" d="M78.905,110.486c-.322-.205-5.126-10.368-5.126-10.368a3.523,3.523,0,0,0-2.859-1.995l-44.487-3.99a3.51,3.51,0,0,0-3.487,5l2.308,4.881c-.647.3-2.954-4.577-2.954-4.577a4.226,4.226,0,0,1,4.2-6.013l44.487,3.991a4.242,4.242,0,0,1,3.442,2.4l4.8,10.162c-.22.5-.272.51-.323.51" transform="translate(7.857 33.53)" fill="#1a1a1a"/>
        <path id="Trazado_605761" data-name="Trazado 605761" d="M88.148,138.316c-.251-.612,2.8-3.631,2.8-3.631a3.457,3.457,0,0,0,.106-3.209L75.511,98.58a3.52,3.52,0,0,0-2.859-1.995L28.164,92.594a3.523,3.523,0,0,0-1.45.17L23.531,95.3c-.446-.559,2.785-3.137,2.785-3.137a4.09,4.09,0,0,1,1.913-.284l44.486,3.991a4.236,4.236,0,0,1,3.441,2.4l15.547,32.9a4.166,4.166,0,0,1-.158,3.912c-.058.073-3.147,3.127-3.147,3.127a.352.352,0,0,1-.25.1" transform="translate(8.432 32.977)" fill="#1a1a1a"/>
        <path id="Trazado_605762" data-name="Trazado 605762" d="M68.61,85.644c-2.337,0-4.01-.586-4.99-1.754a4.287,4.287,0,0,1-1.1-3.283,7.044,7.044,0,0,1,2.555-4.176c.419.58-1.625,2.195-1.844,4.255a3.591,3.591,0,0,0,.932,2.744c1.135,1.355,3.452,1.8,6.879,1.314,2.858-.4,6.258-1.139,7.19-3.325a3.718,3.718,0,0,0,.219-1.678,9.263,9.263,0,0,0-2.178-5.6c-1.407-1.58-2.395-2.689-1.831-4.766a11.1,11.1,0,0,0-1.659-8.956,4.5,4.5,0,0,0-3.49-1.971H67.433A6.846,6.846,0,0,1,66.4,57.106c-2.912-4.152-6.375-3.448-10.039-2.7a20.034,20.034,0,0,1-5.18.59,8.632,8.632,0,0,0-6.621,1.995,6.733,6.733,0,0,0-1.782,5.353,3.814,3.814,0,0,0,1.691,3.108c1.252.806,3.758,1.355,8.6-.584,4.788-1.918,7.726-2.817,8.275-2.549.2.328.9,5.736,2.163,7.26-1.773-1.025-2.472-5.41-2.64-6.6-.477.069-2.233.431-7.533,2.556-5.126,2.052-7.858,1.415-9.246.52a4.463,4.463,0,0,1-2.019-3.676,7.42,7.42,0,0,1,1.995-5.9c2.2-2.166,5.435-2.308,7.169-2.2a19.8,19.8,0,0,0,4.992-.578c3.728-.758,7.584-1.544,10.777,3.01l.636,1.019H69.3a5.105,5.105,0,0,1,4.058,2.252,11.693,11.693,0,0,1,1.782,9.575c-.462,1.7.322,2.587,1.411,3.808a10.255,10.255,0,0,1,2.623,6.338,4.6,4.6,0,0,1-.276,1.992c-1.072,2.517-4.7,3.328-7.748,3.753a18.55,18.55,0,0,1-2.537.193" transform="translate(15.095 19.069)" fill="#1a1a1a"/>
        <path id="Trazado_605763" data-name="Trazado 605763" d="M36.1,150.353c2.863-7.454,2.666-26.414,2.664-26.6.726.776.915,19.3-2.34,26.4a.351.351,0,0,1-.323.208" transform="translate(12.958 44.422)" fill="#1a1a1a"/>
        <path id="Trazado_605764" data-name="Trazado 605764" d="M50.947,80.69c-2.022,0-4.02-.587-4.9-2.335-1.6-3.16,1.552-6.046,1.583-6.076.366.633-2.293,3.085-.947,5.753,1.367,2.7,6.186,2.075,8.343,1.159-.809,1.12-2.452,1.5-4.077,1.5" transform="translate(16.367 25.946)" fill="#1a1a1a"/>
        <path id="Trazado_605765" data-name="Trazado 605765" d="M29.7,120.17c-3.725,0-6.69-.886-7.92-2.458a12.268,12.268,0,0,1-2.093-4.66,25.745,25.745,0,0,1-.6-9.117c.393-3.349,4.269-6.224,4.436-6.344.383.6-3.37,3.389-3.724,6.429a24.961,24.961,0,0,0,.576,8.858,11.583,11.583,0,0,0,1.962,4.395c1.144,1.457,4.76,2.647,10.263,2.011,1.647-.19,4.627-1.446,4.391-3.619a1.925,1.925,0,0,0-1.021-1.5,1.407,1.407,0,0,1,1.731,1.419c.28,2.579-2.828,4.154-5.02,4.406a26.057,26.057,0,0,1-2.987.177" transform="translate(6.793 35.033)" fill="#1a1a1a"/>
        <path id="Trazado_605766" data-name="Trazado 605766" d="M31.416,108.4a52.543,52.543,0,0,1-8.366-.829c.856-.435,7.663.306,9.2.075.931-.124,1.932-.257,2.28-.817a2.869,2.869,0,0,0,.334-2.48,3.079,3.079,0,0,0-1.533-1.62,3.806,3.806,0,0,0-2.094-.257c-.194.011-.39.022-.583.027-7.371.17-8.733-1.449-8.862-1.638.616-.375,1.945,1.1,8.844.923a5.5,5.5,0,0,1,3.036.315,3.75,3.75,0,0,1,1.863,2.009,3.573,3.573,0,0,1-.4,3.1c-.525.847-1.727,1.006-2.524,1.11a7.624,7.624,0,0,1-1.2.083" transform="translate(7.824 36.185)" fill="#1a1a1a"/>
        <path id="Trazado_605767" data-name="Trazado 605767" d="M41.03,94.122c-.357-.357-.357-1.765-.357-1.765.715,0,.715,1.408.715,1.408a.358.358,0,0,1-.357.357" transform="translate(14.601 33.154)" fill="#1a1a1a"/>
        <path id="Trazado_605768" data-name="Trazado 605768" d="M29.839,112.054a59.291,59.291,0,0,1-7.222-.511c.159-.7,5.819.09,9.925-.326,1.481-.149,3-1.114,2.847-2.878a3.525,3.525,0,0,0-1.54-2.4,2.446,2.446,0,0,1,2.252,2.337c.2,2.246-1.667,3.469-3.486,3.653a27.351,27.351,0,0,1-2.776.126" transform="translate(8.119 38.029)" fill="#1a1a1a"/>
        <path id="Trazado_605769" data-name="Trazado 605769" d="M47.016,115.2a3.233,3.233,0,0,1-1.443-.372,5.66,5.66,0,0,1-2.276-2.248c-1.223-2.119-1.036-4.527.419-5.368s3.631.205,4.856,2.324,1.037,4.528-.416,5.369a2.262,2.262,0,0,1-1.139.295m-2.151-7.572a1.561,1.561,0,0,0-.792.2c-1.112.643-1.182,2.613-.155,4.391a4.934,4.934,0,0,0,1.976,1.966,1.976,1.976,0,0,0,1.9.1c1.112-.641,1.181-2.612.154-4.391a4.055,4.055,0,0,0-3.086-2.265" transform="translate(15.252 38.381)" fill="#1a1a1a"/>
        <path id="Trazado_605770" data-name="Trazado 605770" d="M55.484,91.984c-2.711-.848-1.971-7.631-1.775-9.158L52.38,77.017c.7-.158,2.043,5.712,2.043,5.712-.417,3.343-.45,8.067.8,8.5,1.9.647,7.311-5.259,10.377-9.229l-1.181-5.174c.7-.159,1.916,5.179,1.916,5.179-.86,1.333-7.591,9.978-10.847,9.978" transform="translate(18.803 27.578)" fill="#1a1a1a"/>
        <path id="Trazado_605771" data-name="Trazado 605771" d="M58.125,58.969c-.156-.679,2.344-1.9,2.344-1.9.314.641-2.188,1.862-2.188,1.862a.354.354,0,0,1-.156.035" transform="translate(20.863 20.487)" fill="#1a1a1a"/>
        <path id="Trazado_605772" data-name="Trazado 605772" d="M191.2,58.849a24.32,24.32,0,0,1-1.847-4.127l-.406-1.109a2.688,2.688,0,0,1,.009-1.866c.579-1.29,1.186-2.567,1.794-3.842.646-1.358,1.292-2.717,1.9-4.088a1.35,1.35,0,0,0-.132-1.09c-1.133-1.211-2.322-2.411-3.472-3.573-.886-.9-1.772-1.79-2.643-2.7a.857.857,0,0,0-1.243-.194c-2.907,1.441-5.339,2.593-7.652,3.627a2.913,2.913,0,0,1-2,.091c-2.472-.891-4.934-1.855-7.322-2.866a3.042,3.042,0,0,1-1.572-1.468c-.87-2.159-1.723-4.483-2.766-7.533-.241-.707-.454-.973-1.2-.936-2.711.065-5.486.065-8.484,0-.667-.008-.983.19-1.233.92-.413,1.207-.852,2.4-1.292,3.6-.463,1.261-.927,2.522-1.359,3.794a2.537,2.537,0,0,1-1.8,1.735c-2.393.833-4.7,1.753-6.84,2.737a2.566,2.566,0,0,1-2.494-.026c-1.268-.637-2.551-1.25-3.832-1.863-1.218-.582-2.433-1.163-3.637-1.765a.955.955,0,0,0-1.373.238c-2.162,2.259-4.126,4.22-6,6-.542.514-.522.825-.188,1.5,1.087,2.2,2.358,4.809,3.551,7.53a2.924,2.924,0,0,1-.048,2.121c-.355.828-.454,1.06-.732,1.678-.375-.906-.277-1.136-.069-1.624a2.523,2.523,0,0,0,.194-1.889c-1.186-2.707-2.453-5.31-3.535-7.5a1.709,1.709,0,0,1,.334-2.337c1.867-1.771,3.824-3.724,5.978-5.974a1.651,1.651,0,0,1,2.208-.383c1.2.6,2.412,1.181,3.626,1.761,1.286.613,2.573,1.23,3.847,1.87a1.864,1.864,0,0,0,1.871.015c2.166-.993,4.489-1.924,6.9-2.764a1.841,1.841,0,0,0,1.36-1.29c.434-1.277.9-2.544,1.366-3.811.438-1.192.874-2.384,1.287-3.584a1.784,1.784,0,0,1,1.923-1.4c2.988.067,5.753.063,8.451,0a1.705,1.705,0,0,1,1.9,1.42c1.037,3.037,1.888,5.35,2.752,7.5a2.375,2.375,0,0,0,1.186,1.075c2.377,1.007,4.828,1.966,7.287,2.852a2.184,2.184,0,0,0,1.47-.071c2.306-1.03,4.729-2.178,7.627-3.615a1.547,1.547,0,0,1,2.077.341c.871.905,1.753,1.8,2.636,2.691,1.154,1.165,2.344,2.37,3.484,3.588a2,2,0,0,1,.265,1.869c-.616,1.378-1.264,2.741-1.912,4.1-.6,1.271-1.209,2.543-1.788,3.828a1.98,1.98,0,0,0,.011,1.325l.406,1.113c.5,1.379.807,2.212,1.506,3.874-.236.487-.284.5-.33.5" transform="translate(44.211 9.498)" fill="#1a1a1a"/>
        <path id="Trazado_605773" data-name="Trazado 605773" d="M153.519,80.282a16.9,16.9,0,0,1-11.932-28.8,16.877,16.877,0,1,1,11.937,28.8Zm.139-33.009a16.233,16.233,0,0,0-11.565,4.717,16.155,16.155,0,0,0,11.426,27.578,16.148,16.148,0,0,0,.174-32.295Z" transform="translate(49.066 16.713)" fill="#1a1a1a"/>
        <path id="Trazado_605774" data-name="Trazado 605774" d="M153.021,75.656A20.341,20.341,0,0,1,138.064,69.1a23.583,23.583,0,0,0,14.957,5.84,20.2,20.2,0,0,0,3.112-.243,4.209,4.209,0,0,1-3.108.958Z" transform="translate(49.561 24.806)" fill="#1a1a1a"/>
        <path id="Trazado_605775" data-name="Trazado 605775" d="M158.584,72.24a44.43,44.43,0,0,0,4.6-6.723,12.109,12.109,0,0,1-4.366,6.64.363.363,0,0,1-.231.083" transform="translate(56.928 23.519)" fill="#1a1a1a"/>
        <path id="Trazado_605776" data-name="Trazado 605776" d="M161.6,47.675a20,20,0,0,0-18.11-1.43,12.417,12.417,0,0,1,7.742-2.238,20.074,20.074,0,0,1,10.557,3.006c.048.6-.069.662-.189.662" transform="translate(51.511 15.797)" fill="#1a1a1a"/>
        <path id="Trazado_605777" data-name="Trazado 605777" d="M111.415,68.558c-1.979-.042-4.029-.043-6.33,0a1.333,1.333,0,0,1-1.449-1.04c-.771-2.34-1.438-4.251-2.094-6.012a1.539,1.539,0,0,0-.712-.735c-.777-.367-1.564-.711-2.354-1.055-.974-.423-1.983-.863-2.954-1.343a1.245,1.245,0,0,0-1.3-.041c-.894.444-1.712.829-2.551,1.226-.51.242-1.029.487-1.576.75a1.921,1.921,0,0,1,1.271-1.4c.834-.4,1.648-.78,2.539-1.222a1.946,1.946,0,0,1,1.937.041c.955.473,1.957.909,2.923,1.33.8.345,1.59.693,2.373,1.061a2.249,2.249,0,0,1,1.078,1.133c.66,1.768,1.329,3.687,2.1,6.038a.648.648,0,0,0,.758.548c2.309-.039,4.37-.039,6.3,0,.492,0,.64-.1.8-.61.689-2.151,1.367-4.093,2.068-5.937a2.4,2.4,0,0,1,1.174-1.193c1.711-.8,3.547-1.6,5.456-2.367a2.183,2.183,0,0,1,1.559-.02c1.593.707,3.135,1.441,4.769,2.215l1.457.69,1.014-1.026c1.294-1.3,2.631-2.65,3.9-4a.963.963,0,0,0,.035-.723c-.45-1.006-.925-2-1.4-3-.424-.891-.849-1.782-1.257-2.681a2.152,2.152,0,0,1-.1-1.473c.708-2.034,1.393-3.854,2.094-5.565a2.339,2.339,0,0,1,1.177-1.2c2.017-.815,4.046-1.534,5.588-2.068.434-.151.538-.3.529-.769-.039-2.246-.039-4.307,0-6.3.01-.488-.116-.656-.614-.83-1.523-.526-3.525-1.231-5.485-2.034a2.528,2.528,0,0,1-1.22-1.264c-.659-1.522-1.328-3.215-2.1-5.327a2.072,2.072,0,0,1,.008-1.455c.432-.961.883-1.909,1.336-2.861.477-1,.955-2.007,1.407-3.022a.916.916,0,0,0-.08-.707c-.841-.9-1.707-1.772-2.574-2.649-.658-.665-1.315-1.329-1.964-2-.28-.292-.429-.315-.813-.128-2.105,1.044-3.963,1.926-5.682,2.695a2.247,2.247,0,0,1-1.557.068c-1.828-.658-3.658-1.374-5.437-2.128a2.348,2.348,0,0,1-1.214-1.139c-.65-1.614-1.283-3.339-2.055-5.594-.179-.531-.3-.654-.8-.632-2.007.049-4.067.049-6.3,0-.484-.007-.651.117-.825.621-.3.886-.626,1.765-.95,2.643-.345.944-.694,1.889-1.015,2.84a1.977,1.977,0,0,1-1.4,1.347c-1.765.613-3.469,1.3-5.069,2.028a1.986,1.986,0,0,1-1.928-.02c-.95-.478-1.909-.938-2.869-1.4-.893-.427-1.788-.855-2.673-1.3a.617.617,0,0,0-.911.158c-1.624,1.7-3.084,3.153-4.456,4.453-.366.347-.353.535-.121,1.006.807,1.632,1.753,3.571,2.636,5.591a2.251,2.251,0,0,1-.033,1.647c-.771,1.794-1.6,3.575-2.46,5.3a2.6,2.6,0,0,1-1.252,1.223c-1.987.756-4.031,1.438-5.941,2.059-.512.167-.636.326-.624.809.043,1.934.043,3.994,0,6.3-.01.466.092.6.533.747,1.814.586,3.952,1.291,6.05,2.09a2.561,2.561,0,0,1,1.23,1.261c.357.75.688,1.515,1.018,2.28.4.934.819,1.9,1.28,2.816a2.156,2.156,0,0,1,.041,2.15c-.446.9-.871,1.8-1.3,2.7-.4.856-.806,1.712-1.227,2.56-.231.469-.2.665.152,1,.938.9,1.722,1.654,2.725,2.67A7.7,7.7,0,0,1,82.5,56.242a1.368,1.368,0,0,1-.3-1.837c.417-.843.818-1.693,1.219-2.545.428-.909.856-1.817,1.3-2.715a1.455,1.455,0,0,0-.038-1.511c-.472-.936-.891-1.909-1.3-2.854-.326-.756-.652-1.513-1.007-2.257a1.876,1.876,0,0,0-.838-.9c-2.083-.794-4.21-1.495-6.015-2.078A1.3,1.3,0,0,1,74.5,38.1c.041-2.294.041-4.345,0-6.269a1.376,1.376,0,0,1,1.118-1.5c1.9-.62,3.936-1.3,5.907-2.048a1.9,1.9,0,0,0,.866-.874c.856-1.71,1.678-3.48,2.442-5.261a1.569,1.569,0,0,0,.035-1.079c-.878-2.006-1.817-3.937-2.62-5.558a1.362,1.362,0,0,1,.268-1.844c1.366-1.292,2.816-2.742,4.432-4.428a1.3,1.3,0,0,1,1.746-.3c.883.442,1.773.867,2.662,1.292.964.461,1.927.921,2.881,1.4a1.294,1.294,0,0,0,1.31.008c1.62-.742,3.347-1.434,5.133-2.053a1.275,1.275,0,0,0,.951-.9c.323-.958.674-1.908,1.022-2.858.322-.874.644-1.749.946-2.63a1.394,1.394,0,0,1,1.515-1.1c2.221.049,4.27.049,6.266,0a1.388,1.388,0,0,1,1.5,1.117c.766,2.242,1.4,3.956,2.041,5.558a1.654,1.654,0,0,0,.83.747c1.767.749,3.584,1.46,5.4,2.113a1.511,1.511,0,0,0,1.023-.049c1.71-.765,3.559-1.642,5.655-2.681a1.241,1.241,0,0,1,1.647.273c.644.671,1.3,1.333,1.956,1.994.871.881,1.741,1.763,2.587,2.665a1.564,1.564,0,0,1,.212,1.487c-.455,1.021-.935,2.029-1.415,3.037-.45.946-.9,1.892-1.329,2.847a1.4,1.4,0,0,0,.01.915c.771,2.1,1.436,3.781,2.087,5.292a1.821,1.821,0,0,0,.836.885c1.945.8,3.933,1.5,5.448,2.021a1.392,1.392,0,0,1,1.1,1.521c-.041,1.984-.041,4.035,0,6.269a1.336,1.336,0,0,1-1.011,1.46c-1.534.531-3.552,1.246-5.554,2.056a1.635,1.635,0,0,0-.783.8c-.7,1.7-1.377,3.506-2.081,5.527a1.443,1.443,0,0,0,.073.944c.4.894.829,1.782,1.252,2.668.477,1,.955,2,1.407,3.016a1.588,1.588,0,0,1-.166,1.5c-1.279,1.36-2.621,2.711-3.917,4.017l-1.192,1.2a8.043,8.043,0,0,1-2.093-.727c-1.629-.773-3.169-1.5-4.752-2.207a1.455,1.455,0,0,0-1,.029c-1.9.768-3.722,1.56-5.424,2.354a1.7,1.7,0,0,0-.807.8c-.7,1.833-1.37,3.764-2.059,5.9a1.347,1.347,0,0,1-1.438,1.108" transform="translate(26.742 0.751)" fill="#1a1a1a"/>
        <path id="Trazado_605778" data-name="Trazado 605778" d="M102.64,42.209a12.626,12.626,0,0,1-8.919-21.522,12.612,12.612,0,1,1,8.922,21.522Zm.1-24.49a11.964,11.964,0,0,0-8.513,3.471,11.9,11.9,0,0,0,8.415,20.3,11.888,11.888,0,0,0,.126-23.775Z" transform="translate(32.327 6.104)" fill="#1a1a1a"/>
        <path id="Trazado_605779" data-name="Trazado 605779" d="M88.613,32.91a10.713,10.713,0,0,1-.923-4.548,15.893,15.893,0,0,1,2.117-7.949,31.292,31.292,0,0,0-1.4,7.949,15.323,15.323,0,0,0,.552,4.1c-.28.447-.314.451-.344.451" transform="translate(31.478 7.328)" fill="#1a1a1a"/>
        <path id="Trazado_605780" data-name="Trazado 605780" d="M100.333,41.019a15.894,15.894,0,0,1-3.854-.47,12.905,12.905,0,0,1,3.854-.245A15.141,15.141,0,0,0,114.9,29.276c-1.2,6.991-7.47,11.74-14.571,11.743" transform="translate(34.633 10.509)" fill="#1a1a1a"/>
        <path id="Trazado_605781" data-name="Trazado 605781" d="M105.806,16.666a15.433,15.433,0,0,0-6.375-1.412,8.869,8.869,0,0,1,6.526.731c.113.6-.016.681-.151.681" transform="translate(35.693 5.354)" fill="#1a1a1a"/>
        <path id="Trazado_605782" data-name="Trazado 605782" d="M193.7,96.833c-.36-.341-1.366-5.462-3.214-8.992,2.529,3.293,3.525,8.354,3.566,8.567-.307.423-.329.425-.352.425" transform="translate(68.381 31.533)" fill="#1a1a1a"/>
        <path id="Trazado_605783" data-name="Trazado 605783" d="M170.752,115.028a2.94,2.94,0,0,1-1.488-.361,3.641,3.641,0,0,1-1.548-2.457,10.288,10.288,0,0,1-.258-1.773,10.5,10.5,0,0,1,1.764-7.064,7.481,7.481,0,0,1,5.753-3.073,4.317,4.317,0,0,1,4.129,2.4c-.694.194-1.518-1.684-4.127-1.684a6.765,6.765,0,0,0-5.189,2.794c-1.631,2.11-1.712,5.031-1.617,6.583a9.7,9.7,0,0,0,.241,1.654,2.965,2.965,0,0,0,1.211,2,2.417,2.417,0,0,0,1.416.255,3.1,3.1,0,0,0,2.487-1.439,4.205,4.205,0,0,0,.4-2.086,9.814,9.814,0,0,1,.314-3.639,11.045,11.045,0,0,1,1.81-3.047,11.253,11.253,0,0,1-1.137,3.286,7.606,7.606,0,0,0-.284,2.84,5.751,5.751,0,0,1-.48,3,3.83,3.83,0,0,1-3.054,1.8c-.117.008-.232.014-.344.014" transform="translate(60.102 36.005)" fill="#1a1a1a"/>
      </g>
    </g>
  </g>
</svg>
