<svg xmlns="http://www.w3.org/2000/svg" xmlns:xlink="http://www.w3.org/1999/xlink" width="190" height="187" viewBox="0 0 190 187">
  <defs>
    <clipPath id="clip-path">
      <rect id="Rectángulo_345981" data-name="Rectángulo 345981" width="112.098" height="97.158" fill="none"/>
    </clipPath>
    <clipPath id="clip-path-2">
      <rect id="Rectángulo_345985" data-name="Rectángulo 345985" width="66.03" height="46.399" fill="none"/>
    </clipPath>
    <clipPath id="clip-path-4">
      <rect id="Rectángulo_345983" data-name="Rectángulo 345983" width="7.637" height="7.701" fill="none"/>
    </clipPath>
  </defs>
  <g id="Grupo_1015669" data-name="Grupo 1015669" transform="translate(-1016 -12451)">
    <g id="Grupo_1015449" data-name="Grupo 1015449" transform="translate(1016.344 12450.346)">
      <g id="Grupo_1014855" data-name="Grupo 1014855" transform="translate(-0.344 0.654)">
        <path id="Unión_12" data-name="Unión 12" d="M136.017,177.861A95.867,95.867,0,0,1,95,187C42.537,187,0,145.14,0,93.5S42.537,0,95,0s95,41.863,95,93.5a92.242,92.242,0,0,1-22.27,60.154L180.779,187Z" transform="translate(0 0)" fill="#a3bfe4"/>
        <ellipse id="Elipse_4842" data-name="Elipse 4842" cx="79" cy="79.5" rx="79" ry="79.5" transform="translate(16 13)" fill="#fffbe5"/>
      </g>
    </g>
    <g id="Grupo_1015456" data-name="Grupo 1015456" transform="translate(1058.951 12495.921)">
      <path id="Trazado_605784" data-name="Trazado 605784" d="M198.344,505.01H131.657l9.031-6.13h48.625Z" transform="translate(-108.951 -412.844)" fill="#2697d3"/>
      <g id="Grupo_1015454" data-name="Grupo 1015454">
        <g id="Grupo_1015453" data-name="Grupo 1015453" clip-path="url(#clip-path)">
          <path id="Trazado_605785" data-name="Trazado 605785" d="M104.483,0H7.619A7.625,7.625,0,0,0,0,7.615V72.523a7.623,7.623,0,0,0,7.619,7.615h96.864a7.622,7.622,0,0,0,7.615-7.615V7.615A7.624,7.624,0,0,0,104.483,0m2.226,61.741a2.233,2.233,0,0,1-2.226,2.229H7.619a2.228,2.228,0,0,1-2.227-2.206c0-.006,0-.015,0-.023V7.615A2.249,2.249,0,0,1,7.619,5.389h96.864a2.229,2.229,0,0,1,2.226,2.226Z" fill="#73b2e1"/>
          <path id="Trazado_605786" data-name="Trazado 605786" d="M131.716,31.755l-99.64,57.6a2.226,2.226,0,0,1-.834-1.716c0-.007-.008-.017-.008-.024V33.486a2.25,2.25,0,0,1,2.229-2.219H130.33a2.214,2.214,0,0,1,1.386.488" transform="translate(-25.847 -25.875)" fill="#f3f9ff"/>
          <path id="Trazado_605787" data-name="Trazado 605787" d="M136.6,35.827V89.958a2.237,2.237,0,0,1-2.229,2.229H37.506a2.253,2.253,0,0,1-1.387-.487l99.64-57.6a2.191,2.191,0,0,1,.843,1.732" transform="translate(-29.89 -28.215)" fill="#fff"/>
          <rect id="Rectángulo_345980" data-name="Rectángulo 345980" width="48.625" height="5.898" transform="translate(31.736 80.138)" fill="#1f64ae"/>
          <path id="Trazado_605804" data-name="Trazado 605804" d="M131.212,534.424s-1.657,4.992,9.031,4.992h24.313v-4.992Z" transform="translate(-108.506 -442.258)" fill="#3874b9"/>
          <path id="Trazado_605805" data-name="Trazado 605805" d="M358.343,534.424s1.657,4.992-9.031,4.992H325v-4.992Z" transform="translate(-268.951 -442.258)" fill="#1f64ae"/>
          <g id="Grupo_1015463" data-name="Grupo 1015463" transform="translate(25.455 12.659)">
            <g id="Grupo_1015462" data-name="Grupo 1015462" clip-path="url(#clip-path-2)">
              <g id="Grupo_1015461" data-name="Grupo 1015461" transform="translate(0 0)">
                <g id="Grupo_1015460" data-name="Grupo 1015460" clip-path="url(#clip-path-2)">
                  <path id="Trazado_605808" data-name="Trazado 605808" d="M58.576,17.7a7.421,7.421,0,0,0-2.962.615,7.1,7.1,0,0,0-9.154-8.442,8.978,8.978,0,0,0-17.329-1.2A11.73,11.73,0,1,0,7.374,17.085a7.766,7.766,0,0,0,.4,15.522H58.576a7.455,7.455,0,0,0,0-14.909" transform="translate(0 0)" fill="#33ece0"/>
                  <g id="Grupo_1015459" data-name="Grupo 1015459" transform="translate(29.197 24.816)" opacity="0.5" style="mix-blend-mode: multiply;isolation: isolate">
                    <g id="Grupo_1015458" data-name="Grupo 1015458">
                      <g id="Grupo_1015457" data-name="Grupo 1015457" clip-path="url(#clip-path-4)">
                        <rect id="Rectángulo_345982" data-name="Rectángulo 345982" width="7.637" height="7.701" transform="translate(0 0)" fill="#c1c1c1"/>
                      </g>
                    </g>
                  </g>
                  <path id="Trazado_605809" data-name="Trazado 605809" d="M34.926,38.792V26.506H27.289V38.792H22.06l9.049,9.3,9.048-9.3Z" transform="translate(-1.407 -1.691)" fill="#ffaa27"/>
                </g>
              </g>
            </g>
          </g>
        </g>
      </g>
    </g>
  </g>
</svg>
